<?xml version="1.0" encoding="utf-8"?>
<!-- Generator: Adobe Illustrator 15.1.0, SVG Export Plug-In  -->
<!DOCTYPE svg PUBLIC "-//W3C//DTD SVG 1.1//EN" "http://www.w3.org/Graphics/SVG/1.1/DTD/svg11.dtd" [
	<!ENTITY ns_flows "http://ns.adobe.com/Flows/1.0/">
]>
<svg version="1.1"
	 xmlns="http://www.w3.org/2000/svg" xmlns:xlink="http://www.w3.org/1999/xlink" xmlns:a="http://ns.adobe.com/AdobeSVGViewerExtensions/3.0/"
	 x="0px" y="0px" width="50px" height="50px" viewBox="-1.667 -1.304 50 50" enable-background="new -1.667 -1.304 50 50"
	 xml:space="preserve">
<defs>
</defs>
<path fill="#1F5F8C" d="M17.495,47.029c-0.177,0-0.339-0.104-0.394-0.253l-0.006-0.018l-0.007-0.017
	c-0.066-0.148-0.029-0.33,0.09-0.441l0.01-0.01l0.01-0.01c0.769-0.791,1.364-1.587,1.818-2.434l0.446-0.832h-8.99
	c-1.348,0-2.445-1.097-2.445-2.445V24.518c0-1.349,1.097-2.445,2.445-2.445h4.014c0.242,0,0.438,0.197,0.438,0.439
	c0,0.25-0.188,0.438-0.438,0.438h-4.014c-0.864,0-1.567,0.703-1.567,1.567v13.607h29.221V24.518c0-0.85-0.718-1.567-1.567-1.567
	h-4.013c-0.251,0-0.439-0.188-0.439-0.438c0-0.242,0.196-0.439,0.439-0.439h4.013c1.349,0,2.445,1.097,2.445,2.445V40.57
	c0,1.349-1.097,2.445-2.445,2.445h-8.99l0.446,0.832c0.474,0.881,1.087,1.702,1.824,2.439l0.014,0.014
	c0.119,0.111,0.156,0.293,0.09,0.441l-0.004,0.01c-0.072,0.171-0.227,0.277-0.403,0.277H17.495z M20.222,43.371
	c-0.269,0.672-0.608,1.289-1.038,1.887l-0.643,0.894h9.939l-0.633-0.892c-0.419-0.59-0.777-1.229-1.065-1.901l-0.146-0.343h-6.272
	L20.222,43.371z M20.497,42.574c0,0.018-0.001,0.036-0.004,0.055l1.119,0.146c0.009-0.066,0.014-0.134,0.014-0.2H20.497z
	 M25.384,42.494c-0.001,0.029-0.003,0.059-0.003,0.088h1.129c0-0.009,0.001-0.017,0.001-0.025L25.384,42.494z M25.445,42.139
	c-0.02,0.066-0.035,0.136-0.046,0.205l1.116,0.172c0.006-0.042,0.019-0.083,0.036-0.121l-0.549-0.256h0.536l0.111,0.119
	c0.022-0.021,0.046-0.039,0.071-0.055l-0.041-0.064h9.877c0.864,0,1.567-0.704,1.567-1.568v-1.567H8.904v1.567
	c0,0.879,0.688,1.568,1.567,1.568H25.445z"/>
<path fill="#1F5F8C" d="M26.524,24.957c-0.25,0-0.438-0.189-0.438-0.439v-8.967l-2.268,2.268c-0.078,0.078-0.185,0.12-0.303,0.12
	c-0.118,0-0.226-0.042-0.303-0.12c-0.089-0.09-0.137-0.205-0.135-0.326c0.001-0.112,0.046-0.215,0.125-0.291l3.03-3.029
	c0.077-0.081,0.181-0.126,0.293-0.126s0.217,0.045,0.294,0.126l3.029,3.029c0.08,0.076,0.124,0.179,0.126,0.291
	c0.001,0.121-0.047,0.236-0.136,0.326c-0.071,0.071-0.188,0.115-0.304,0.115c-0.115,0-0.231-0.044-0.303-0.115l-2.268-2.268v8.967
	C26.964,24.768,26.775,24.957,26.524,24.957z"/>
<path fill="#1F5F8C" d="M20.505,30.977c-0.116,0-0.232-0.045-0.303-0.115l-3.01-3.01c-0.182-0.182-0.182-0.445,0-0.627
	c0.078-0.078,0.186-0.121,0.304-0.121c0.118,0,0.226,0.043,0.303,0.121l2.268,2.268v-8.987c0-0.242,0.197-0.439,0.439-0.439
	s0.439,0.197,0.439,0.439v9.002l2.243-2.277c0.088-0.081,0.204-0.126,0.326-0.126c0.12,0,0.228,0.043,0.306,0.121
	c0.181,0.182,0.181,0.445,0,0.627l-3.01,3.01C20.737,30.932,20.621,30.977,20.505,30.977z"/>
<path fill="#1F5F8C" d="M2.446,27.605c-0.105,0-0.252-0.041-0.349-0.158C0.726,25.776,0,23.721,0,21.508
	c0-4.964,3.876-9.105,8.823-9.43l0.432-0.028l0.084-0.425C10.684,4.89,16.645,0,23.515,0c2.649,0,5.253,0.734,7.529,2.122
	c2.271,1.386,4.108,3.355,5.313,5.698l0.14,0.271l0.305,0.032c2.797,0.286,5.381,1.604,7.278,3.709
	c1.902,2.11,2.95,4.834,2.95,7.669c0,2.376-0.721,4.658-2.084,6.598c-0.084,0.12-0.213,0.188-0.354,0.188
	c-0.094,0-0.187-0.029-0.267-0.086c-0.147-0.104-0.18-0.254-0.18-0.359c0-0.09,0.027-0.178,0.081-0.262
	c1.26-1.746,1.926-3.849,1.926-6.078c0-5.603-4.376-10.239-9.963-10.557c-0.155-0.009-0.3-0.104-0.354-0.233L35.83,8.699
	l-0.006-0.012c-2.225-4.744-7.057-7.81-12.31-7.81c-6.73,0-12.518,5.014-13.461,11.661l-0.001,0.013
	c-0.025,0.212-0.204,0.365-0.423,0.365c-4.825,0-8.751,3.854-8.751,8.591c0,1.994,0.66,3.856,1.908,5.388
	c0.063,0.082,0.099,0.181,0.099,0.271c0,0.143-0.052,0.259-0.154,0.346C2.648,27.576,2.56,27.605,2.446,27.605z"/>
</svg>
