<?xml version="1.0" encoding="utf-8"?>
<!-- Generator: Adobe Illustrator 15.1.0, SVG Export Plug-In  -->
<!DOCTYPE svg PUBLIC "-//W3C//DTD SVG 1.1//EN" "http://www.w3.org/Graphics/SVG/1.1/DTD/svg11.dtd" [
	<!ENTITY ns_flows "http://ns.adobe.com/Flows/1.0/">
]>
<svg version="1.1"
	 xmlns="http://www.w3.org/2000/svg" xmlns:xlink="http://www.w3.org/1999/xlink" xmlns:a="http://ns.adobe.com/AdobeSVGViewerExtensions/3.0/"
	 x="0px" y="0px" width="50px" height="50px" viewBox="0 0 50 50" enable-background="new 0 0 50 50" xml:space="preserve">
<defs>
</defs>
<path fill="#1F5F8C" d="M36.687,50c-7.341,0-13.313-5.973-13.313-13.313c0-7.342,5.972-13.313,13.313-13.313
	C44.028,23.373,50,29.345,50,36.687C50,44.027,44.028,50,36.687,50z M36.687,24.502c-6.719,0-12.185,5.466-12.185,12.185
	s5.466,12.185,12.185,12.185s12.185-5.466,12.185-12.185S43.405,24.502,36.687,24.502z"/>
<path fill="#1F5F8C" d="M34.562,41.501c-0.148,0-0.295-0.062-0.401-0.167l-4.248-4.247c-0.22-0.221-0.22-0.578,0-0.799
	c0.106-0.105,0.248-0.164,0.399-0.164c0.15,0,0.293,0.059,0.398,0.164l3.823,3.823l7.039-8.046c0.108-0.124,0.263-0.194,0.426-0.194
	c0.136,0,0.268,0.05,0.371,0.141c0.235,0.206,0.259,0.563,0.054,0.798l-7.437,8.5c-0.102,0.115-0.246,0.185-0.398,0.191H34.562z"/>
<path fill="#1F5F8C" d="M4.814,43.625C2.16,43.625,0,41.466,0,38.812V4.813C0,2.159,2.16,0,4.814,0h23.373
	c2.654,0,4.813,2.159,4.813,4.813v12.749c0,0.312-0.253,0.564-0.564,0.564c-0.311,0-0.563-0.253-0.563-0.564V4.813
	c0-2.031-1.653-3.686-3.686-3.686H4.814c-2.032,0-3.686,1.654-3.686,3.686v33.998c0,2.031,1.653,3.685,3.686,3.685h12.749
	c0.311,0,0.564,0.253,0.564,0.564s-0.253,0.564-0.564,0.564H4.814z"/>
<path fill="#1F5F8C" d="M19.688,28.518c-0.312,0-0.564-0.253-0.564-0.564V11.188c0-0.312,0.253-0.564,0.564-0.564h6.374
	c0.312,0,0.564,0.253,0.564,0.564v9.604c0,0.312-0.253,0.564-0.564,0.564c-0.311,0-0.564-0.253-0.564-0.564v-9.039h-5.246v16.2
	C20.252,28.265,20,28.518,19.688,28.518z"/>
<path fill="#1F5F8C" d="M4.814,30.876c-0.312,0-0.564-0.253-0.564-0.564c0-0.311,0.253-0.564,0.564-0.564h1.561v-10.06
	c0-0.312,0.253-0.564,0.564-0.564h6.374c0.312,0,0.564,0.253,0.564,0.564v10.06h4.79c0.312,0,0.564,0.254,0.564,0.564
	c0,0.312-0.253,0.564-0.564,0.564H4.814z M7.503,29.747h5.246v-9.495H7.503V29.747z"/>
</svg>
