<?xml version="1.0" encoding="utf-8"?>
<!-- Generator: Adobe Illustrator 15.1.0, SVG Export Plug-In  -->
<!DOCTYPE svg PUBLIC "-//W3C//DTD SVG 1.1//EN" "http://www.w3.org/Graphics/SVG/1.1/DTD/svg11.dtd" [
	<!ENTITY ns_flows "http://ns.adobe.com/Flows/1.0/">
]>
<svg version="1.1"
	 xmlns="http://www.w3.org/2000/svg" xmlns:xlink="http://www.w3.org/1999/xlink" xmlns:a="http://ns.adobe.com/AdobeSVGViewerExtensions/3.0/"
	 x="0px" y="0px" width="180px" height="180px" viewBox="0 0 180 180" enable-background="new 0 0 180 180" xml:space="preserve">
<defs>
</defs>
<rect x="23.7" y="170" fill="#1D5E8B" width="118.5" height="4.9"/>
<path fill="#1D5E8B" d="M66.3,65.6c-1.4,0-2.5-1.1-2.5-2.5s1.1-2.5,2.5-2.5h41.9c1.399,0,2.5,1.1,2.5,2.5s-1.101,2.5-2.5,2.5H66.3z"
	/>
<path fill="#1D5E8B" d="M66.3,97.3c-1.4,0-2.5-1.1-2.5-2.5c0-1.399,1.1-2.5,2.5-2.5H139.9c1.399,0,2.5,1.101,2.5,2.5
	c0,1.4-1.101,2.5-2.5,2.5H66.3z"/>
<path fill="#1D5E8B" d="M148,174.9c-15.5,0-28-12.601-28-28V132.8H4.9V146.9c0,11.3,8.1,20.699,18.8,22.699v5
	C10.3,172.5,0,160.9,0,146.9v-16.5c0-0.7,0.3-1.301,0.7-1.7c0.5-0.5,1.1-0.7,1.7-0.7h27.4V2.7c0-1,0.6-1.8,1.5-2.2
	c0.3-0.1,0.7-0.2,1-0.2c0.6,0,1.2,0.2,1.6,0.6l21.9,19.4l22-19.7c0.5-0.4,1-0.6,1.6-0.6s1.2,0.2,1.6,0.6l22,19.6l21.9-19.6
	c0.5-0.4,1-0.6,1.6-0.6s1.2,0.2,1.6,0.6L150,20.2l22-19.4c0.4-0.4,1-0.6,1.6-0.6c0.4,0,0.7,0.1,1,0.2c0.9,0.4,1.4,1.3,1.4,2.2v144.2
	C176.1,162.4,163.5,174.9,148,174.9z M34.8,127.9H122.4c1.399,0,2.5,1.1,2.5,2.5v16.5C124.9,159.6,135.3,170,148,170
	s23.1-10.4,23.1-23.1V8.1L151.7,25.3c-0.5,0.4-1,0.6-1.601,0.6c-0.6,0-1.199-0.2-1.6-0.6l-22-19.5l-21.9,19.6
	c-0.5,0.4-1,0.6-1.6,0.6s-1.2-0.2-1.6-0.6l-22-19.6L57.5,25.4c-0.5,0.4-1,0.6-1.6,0.6s-1.2-0.2-1.6-0.6L34.8,8.1V127.9z"/>
</svg>
