<?xml version="1.0" encoding="utf-8"?>
<!-- Generator: Adobe Illustrator 15.1.0, SVG Export Plug-In  -->
<!DOCTYPE svg PUBLIC "-//W3C//DTD SVG 1.1//EN" "http://www.w3.org/Graphics/SVG/1.1/DTD/svg11.dtd" [
	<!ENTITY ns_flows "http://ns.adobe.com/Flows/1.0/">
]>
<svg version="1.1"
	 xmlns="http://www.w3.org/2000/svg" xmlns:xlink="http://www.w3.org/1999/xlink" xmlns:a="http://ns.adobe.com/AdobeSVGViewerExtensions/3.0/"
	 x="0px" y="0px" width="180px" height="180px" viewBox="-12 0 180 180" enable-background="new -12 0 180 180"
	 xml:space="preserve">
<defs>
</defs>
<path fill="#1D5E8B" d="M77.5,175c-4.5,0-8.9-0.4-13.2-1.3c-1-0.2-1.7-1.101-1.7-2.101v-11.8l-2-0.8c-0.7-0.3-1.3-0.5-2-0.8l-2-0.9
	l-8.3,8.3c-0.4,0.4-0.9,0.601-1.5,0.601c-0.4,0-0.8-0.101-1.2-0.4c-3.7-2.399-7.2-5.3-10.3-8.399c-3.1-3.101-6-6.601-8.4-10.301
	c-0.6-0.8-0.4-2,0.3-2.699l8.3-8.301l-0.9-2c-0.3-0.699-0.6-1.3-0.8-2l-0.8-2H21.1c-1,0-1.9-0.699-2.1-1.699
	c-0.9-4.301-1.3-8.801-1.3-13.2c0-2.3,0.1-4.601,0.4-6.9l0.2-2.1l-1.8-1C6.3,99.6,0,88.9,0,77.4C0,61.7,11.7,48.2,27.2,46l2.5-0.4
	l0.2-2.5c1.1-11.7,6.6-22.6,15.4-30.6C54.2,4.4,65.6,0,77.5,0c11.9,0,23.4,4.4,32.2,12.5c8.8,8,14.2,18.9,15.399,30.6l0.2,2.5
	l2.5,0.4c15.5,2.2,27.2,15.7,27.2,31.4c0,11.5-6.3,22.2-16.4,27.8l-1.8,1l0.2,2.1c0.2,2.3,0.4,4.601,0.4,6.9
	c0,4.399-0.4,8.899-1.301,13.2c-0.199,1-1.1,1.699-2.1,1.699h-11.8l-0.8,2c-0.301,0.7-0.5,1.301-0.801,2l-0.899,2l8.3,8.301
	c0.7,0.699,0.8,1.8,0.3,2.699c-2.399,3.7-5.3,7.2-8.399,10.301c-3.2,3.1-6.601,6-10.301,8.399c-0.3,0.2-0.8,0.4-1.199,0.4
	c-0.601,0-1.101-0.2-1.5-0.601l-8.301-8.3l-2,0.9c-0.699,0.3-1.3,0.6-2,0.8l-2,0.8v11.8c0,1-0.699,1.9-1.699,2.101
	C86.4,174.6,82,175,77.5,175z M56.2,152.5c0.4,0,0.7,0.1,1,0.3c2.6,1.4,5.3,2.5,8.1,3.4c0.9,0.3,1.5,1.1,1.5,2v11.7l2.8,0.399
	c2.6,0.3,5.3,0.5,7.9,0.5c2.6,0,5.3-0.2,7.9-0.5l2.8-0.399v-11.7c0-0.9,0.6-1.8,1.5-2c2.8-0.8,5.5-2,8.1-3.4c0.3-0.2,0.7-0.3,1-0.3
	c0.601,0,1.101,0.2,1.5,0.6l8.3,8.301l2.2-1.7c2.101-1.601,4.101-3.4,5.9-5.2c1.899-1.9,3.6-3.9,5.2-5.9l1.699-2.199l-8.3-8.301
	c-0.7-0.699-0.8-1.699-0.399-2.5c1.399-2.6,2.5-5.3,3.399-8.1c0.3-0.9,1.101-1.5,2-1.5H132l0.4-2.8c0.3-2.601,0.5-5.3,0.5-7.9
	c0-1.2,0-2.5-0.101-3.7l-0.2-3.6l-3.6,0.7c-1.9,0.399-3.9,0.5-5.9,0.5h-25l0.4,3.6c0.1,0.9,0.2,1.7,0.2,2.5
	c0,11.8-9.601,21.4-21.4,21.4s-21.4-9.601-21.4-21.4c0-0.8,0.1-1.7,0.2-2.5l0.4-3.6h-25c-2,0-4-0.2-5.9-0.5L22,108l-0.2,3.6
	c-0.1,1.2-0.1,2.5-0.1,3.7c0,2.601,0.2,5.3,0.5,7.9l0.4,2.8h11.7c0.9,0,1.8,0.6,2,1.5c0.8,2.8,2,5.5,3.4,8.1
	c0.4,0.801,0.3,1.9-0.4,2.5L31,146.4l1.7,2.199c1.6,2.101,3.4,4.101,5.2,5.9c1.9,1.9,3.9,3.6,5.9,5.2l2.2,1.7l8.3-8.301
	C55.1,152.8,55.6,152.5,56.2,152.5z M60.8,111.6c-0.2,1.2-0.4,2.4-0.4,3.601c0,9.399,7.7,17.1,17.1,17.1c9.4,0,17.1-7.7,17.1-17.1
	c0-1.2-0.1-2.4-0.399-3.601l-0.5-2.5H61.3L60.8,111.6z M79.6,104.9h43.7c7.3,0,14.2-2.9,19.4-8.101s8.1-12.1,8.1-19.4
	c0-15.1-12.3-27.4-27.399-27.5h-0.2c-0.601,0-1.101-0.2-1.5-0.6c-0.4-0.4-0.601-0.9-0.601-1.5c0-24-19.5-43.5-43.5-43.5
	C65.9,4.2,55,8.8,46.7,17C38.5,25.2,34,36.2,34,47.8c0,1.2-0.9,2.1-2.1,2.1h-0.2c-15.1,0-27.4,12.4-27.4,27.5
	c0,15.2,12.3,27.5,27.5,27.5h43.7V65.7L62.9,78.2c-0.4,0.4-0.9,0.6-1.5,0.6s-1.1-0.2-1.5-0.6c-0.4-0.4-0.6-0.9-0.6-1.5
	c0-0.6,0.2-1.1,0.6-1.5L76,59.1c0.4-0.4,0.9-0.6,1.5-0.6s1.1,0.2,1.5,0.6l16.1,16.1c0.4,0.4,0.601,0.9,0.601,1.5
	c0,0.6-0.2,1.1-0.601,1.5c-0.399,0.4-0.899,0.6-1.5,0.6c-0.6,0-1.1-0.2-1.5-0.6L79.6,65.7V104.9z"/>
</svg>
