<?xml version="1.0" encoding="utf-8"?>
<!-- Generator: Adobe Illustrator 15.1.0, SVG Export Plug-In  -->
<!DOCTYPE svg PUBLIC "-//W3C//DTD SVG 1.1//EN" "http://www.w3.org/Graphics/SVG/1.1/DTD/svg11.dtd" [
	<!ENTITY ns_flows "http://ns.adobe.com/Flows/1.0/">
]>
<svg version="1.1"
	 xmlns="http://www.w3.org/2000/svg" xmlns:xlink="http://www.w3.org/1999/xlink" xmlns:a="http://ns.adobe.com/AdobeSVGViewerExtensions/3.0/"
	 x="0px" y="0px" width="56px" height="53px" viewBox="-1.364 0.043 56 53" enable-background="new -1.364 0.043 56 53"
	 xml:space="preserve">
<defs>
</defs>
<path fill="#154A9F" d="M10.774,49.235c-0.026,0-0.055-0.004-0.084-0.012L5.635,47.87c-0.125-0.033-0.222-0.129-0.254-0.254
	l-1.353-5.049c-0.032-0.121,0.004-0.256,0.095-0.348l3.692-3.693c0.067-0.066,0.161-0.104,0.256-0.104
	c0.032,0,0.063,0.004,0.093,0.012l5.046,1.352c0.125,0.033,0.22,0.131,0.254,0.256l1.352,5.047c0.033,0.123-0.002,0.256-0.091,0.344
	l-3.697,3.695C10.959,49.198,10.869,49.235,10.774,49.235z M4.776,42.584l1.245,4.637l4.646,1.252l3.407-3.391l-1.25-4.65
	l-4.646-1.248L4.776,42.584z"/>
<path fill="#154A9F" d="M9.406,53.237c-2.514-0.002-4.875-0.982-6.652-2.76S-0.001,46.334,0,43.823
	c0.003-5.184,4.22-9.402,9.403-9.406c0.102,0.004,0.2,0.006,0.296,0.01c0.096,0.002,0.19,0.004,0.286,0.008c0.023,0,0.041,0,0.059,0
	c0.378,0,0.746-0.154,1.011-0.426l2.978-2.979l-1.662-1.664c-0.532-0.521-0.851-1.217-0.902-1.961
	c-0.055-0.809,0.208-1.591,0.742-2.201c0.534-0.611,1.273-0.979,2.082-1.033l0.664-0.045l-0.173-0.642
	c-0.282-1.048,0.018-2.179,0.785-2.95c0.434-0.429,0.987-0.711,1.596-0.813l0.729-0.124l-0.333-0.66
	c-0.333-0.664-0.414-1.424-0.226-2.142c0.352-1.338,1.562-2.273,2.944-2.273c0.26,0,0.52,0.034,0.773,0.1l0.632,0.166l0.05-0.652
	c0.056-0.735,0.376-1.426,0.899-1.946c0.577-0.568,1.34-0.882,2.149-0.882c0.824,0,1.596,0.323,2.174,0.909l2.951,2.949l4.122-4.127
	c0.273-0.266,0.43-0.645,0.423-1.034V9.979c-0.086-1.359,0.135-2.75,0.633-4.02C36.509,2.34,39.942,0,43.831,0
	c1.176,0,2.331,0.22,3.436,0.654c0.116,0.045,0.2,0.145,0.228,0.268c0.023,0.115-0.013,0.24-0.096,0.323l-5.743,5.733l0.575,4.042
	l4.045,0.573l5.731-5.74c0.036-0.035,0.079-0.062,0.131-0.083c0.034-0.013,0.077-0.021,0.121-0.021c0.15,0,0.281,0.09,0.336,0.23
	c0.508,1.289,0.721,2.641,0.637,4.025c-0.307,4.942-4.421,8.813-9.365,8.813c-0.197,0-0.396-0.005-0.593-0.018
	c-0.03-0.002-0.048-0.002-0.067-0.002c-0.378,0-0.744,0.157-1.006,0.43l-1.54,1.555l0.601,0.602c1.209,1.22,1.979,2.833,2.17,4.545
	l0.651,5.811c0.195,1.764,0.914,3.404,2.075,4.74l0.385,0.443l1.029-1.029c0.066-0.068,0.15-0.102,0.239-0.102
	c0.11,0,0.2,0.035,0.266,0.102l5.123,5.123c0.138,0.137,0.138,0.367-0.002,0.508c-0.065,0.064-0.158,0.1-0.255,0.1
	c-0.098,0-0.188-0.035-0.258-0.105l-4.865-4.863L32.968,51.516l1.037,1.018c0.135,0.137,0.136,0.369-0.005,0.512
	c-0.064,0.061-0.16,0.1-0.262,0.102c-0.089,0-0.186-0.039-0.258-0.111l-1.269-1.275c-0.076-0.074-0.112-0.16-0.112-0.25
	c0-0.094,0.038-0.186,0.109-0.254l1.031-1.029L22.222,39.215l-2.982,2.986c-0.283,0.266-0.442,0.656-0.422,1.063l0.002,0.049
	c0.008,0.168,0.016,0.34,0.016,0.514c0.001,2.516-0.977,4.877-2.752,6.654c-1.776,1.777-4.137,2.756-6.649,2.756H9.406z
	 M9.411,35.135c-4.79,0-8.688,3.896-8.693,8.686c-0.002,4.791,3.895,8.693,8.688,8.697h0.028c4.788-0.004,8.682-3.904,8.682-8.691
	c0-0.174-0.009-0.34-0.018-0.521c-0.031-0.596,0.197-1.184,0.625-1.605l13.49-13.488c0.064-0.066,0.155-0.104,0.252-0.104
	c0.096,0,0.186,0.037,0.253,0.105c0.139,0.139,0.139,0.369-0.003,0.51l-9.987,9.99l11.017,11.008l12.289-12.299l-0.34-0.385
	c-1.3-1.467-2.102-3.271-2.318-5.219l-0.652-5.811c-0.179-1.545-0.879-3.006-1.973-4.115l-4.06-4.049
	c-0.455-0.438-1.043-0.675-1.665-0.675c-0.621,0-1.211,0.237-1.659,0.668l-4.487,4.488c-0.561,0.563-0.563,1.482-0.002,2.047
	c0.617,0.616,1.437,0.955,2.307,0.955c0.869,0,1.688-0.339,2.304-0.953c0.409-0.39,0.957-0.608,1.533-0.608
	c0.578,0,1.126,0.219,1.543,0.617l0.006,0.006c0.832,0.856,0.822,2.214-0.014,3.049l-0.637,0.643
	c-1.974,1.977-1.974,5.193,0.001,7.17l0.632,0.643c0.139,0.139,0.139,0.365,0.001,0.506l-0.02,0.02
	c-0.063,0.061-0.145,0.092-0.23,0.092c-0.094,0-0.18-0.037-0.245-0.105l-0.653-0.641c-2.252-2.254-2.25-5.93,0.003-8.189
	l0.642-0.641c0.273-0.273,0.428-0.65,0.423-1.035c0.006-0.376-0.146-0.742-0.425-1.017c-0.278-0.268-0.64-0.416-1.021-0.416
	c-0.381,0-0.742,0.148-1.018,0.414c-0.758,0.753-1.759,1.166-2.823,1.166c-0.782,0-1.544-0.229-2.199-0.66l-0.308-0.205
	l-0.304,0.211c-0.058,0.041-0.098,0.082-0.125,0.112l-0.017,0.018c-0.431,0.438-0.979,0.728-1.583,0.841l-0.708,0.13l0.317,0.646
	c0.174,0.352,0.276,0.73,0.305,1.123c0.06,0.809-0.2,1.592-0.73,2.205c-0.53,0.615-1.267,0.986-2.077,1.045l-0.652,0.049
	l0.164,0.633c0.272,1.053-0.037,2.178-0.806,2.943c-0.578,0.572-1.344,0.891-2.159,0.891c-0.821,0-1.594-0.322-2.175-0.906
	l-3.592-3.592l-2.982,2.994c-0.404,0.406-0.943,0.629-1.516,0.629c-0.034,0-0.067,0-0.1-0.002l-0.052-0.002
	c-0.161-0.006-0.343-0.016-0.472-0.016H9.411z M14.533,24.834c-0.622,0.003-1.21,0.245-1.654,0.682
	c-0.445,0.441-0.698,1.052-0.696,1.676c0,0.629,0.248,1.221,0.696,1.662l5.753,5.764c0.446,0.445,1.038,0.689,1.667,0.689
	s1.221-0.244,1.667-0.689c0.918-0.918,0.918-2.412,0-3.332l-0.632-0.641l-5.125-5.126c-0.442-0.442-1.03-0.685-1.654-0.685h-0.002
	H14.533z M15.92,21.216c-0.757,0.925-0.703,2.296,0.16,3.158l0.632,0.64l5.125,5.123c0.445,0.445,1.036,0.691,1.667,0.691
	s1.222-0.246,1.667-0.691c0.918-0.918,0.918-2.412,0-3.334l-1.436-1.443h-0.009l-2.076-2.077l-2.246-2.244
	c-0.446-0.442-1.035-0.685-1.662-0.685c-0.548,0-1.068,0.186-1.487,0.527h-0.017l-0.318,0.317V21.216z M18.531,16.034
	c-0.381,0.43-0.588,0.977-0.588,1.556c0.001,0.627,0.245,1.216,0.689,1.661l3.521,3.52l2.244,2.246
	c0.461,0.436,1.049,0.668,1.667,0.668c0.617,0,1.206-0.233,1.655-0.658l0.029-0.026l0.345-0.435l-0.146-0.308
	c-0.276-0.578-0.274-1.242,0-1.822l0.146-0.309l-0.343-0.425l-5.785-5.778c-0.457-0.438-1.045-0.675-1.667-0.675
	c-0.544,0-1.063,0.182-1.485,0.516h-0.2L18.531,16.034z M24.779,12.053c-0.618,0-1.206,0.233-1.655,0.658l-0.013,0.013
	c-0.907,0.917-0.907,2.41,0,3.329l5.512,5.511l3.332-3.332l-5.509-5.509C25.985,12.286,25.397,12.053,24.779,12.053z M35.02,16.466
	c0.817,0,1.593,0.311,2.186,0.873l2.938,2.938l1.563-1.561c0.396-0.402,0.941-0.631,1.501-0.631c0.037,0,0.075,0.001,0.112,0.003
	c0.167,0.009,0.338,0.015,0.508,0.015c0.57,0,1.142-0.056,1.7-0.167c4.697-0.935,7.761-5.516,6.826-10.212l-0.198-1.001l-5.501,5.5
	c-0.07,0.071-0.165,0.111-0.263,0.111c-0.015,0-0.031-0.001-0.048-0.003l-4.476-0.64c-0.157-0.022-0.283-0.148-0.305-0.306
	l-0.644-4.481c-0.016-0.108,0.024-0.223,0.104-0.301l5.504-5.504l-0.998-0.2C44.974,0.787,44.408,0.73,43.84,0.73
	c-0.175,0-0.353,0.006-0.525,0.016c-4.781,0.287-8.438,4.41-8.152,9.189c0.033,0.598-0.194,1.186-0.624,1.606l-4.127,4.126
	l2.039,2.041l0.385-0.368C33.427,16.776,34.203,16.466,35.02,16.466z"/>
</svg>
