<?xml version="1.0" encoding="utf-8"?>
<!-- Generator: Adobe Illustrator 15.1.0, SVG Export Plug-In  -->
<!DOCTYPE svg PUBLIC "-//W3C//DTD SVG 1.1//EN" "http://www.w3.org/Graphics/SVG/1.1/DTD/svg11.dtd" [
	<!ENTITY ns_flows "http://ns.adobe.com/Flows/1.0/">
]>
<svg version="1.1"
	 xmlns="http://www.w3.org/2000/svg" xmlns:xlink="http://www.w3.org/1999/xlink" xmlns:a="http://ns.adobe.com/AdobeSVGViewerExtensions/3.0/"
	 x="0px" y="0px" width="44px" height="52px" viewBox="0 0 44 52" enable-background="new 0 0 44 52" xml:space="preserve">
<defs>
</defs>
<path fill="#154A9F" d="M21.829,52.493c-0.03,0-0.09-0.011-0.176-0.032l-0.052-0.013c-9.826-3.405-16.097-9.127-19.17-17.492
	C-0.235,27.7-0.076,19.809,0.066,12.847c0.057-1.538,0.057-2.956,0.057-4.329c0-0.298,0.216-0.515,0.514-0.515
	c8.652,0,15.261-2.496,20.797-7.854C21.566,0.018,21.722,0,21.803,0c0.083,0,0.241,0.019,0.37,0.147
	C27.692,5.489,34.315,8,43.024,8.061c0.299,0,0.52,0.221,0.52,0.513c0,1.368,0,2.784,0.058,4.272l0.002,0.139
	c0.112,6.936,0.241,14.797-2.441,22.029c-3.098,8.349-9.373,14.056-19.187,17.447C21.936,52.473,21.866,52.493,21.829,52.493
	L21.829,52.493z M1.095,12.902c-0.292,14.406-0.618,30.732,20.23,38.313l0.48,0.176l0.481-0.176
	c20.85-7.581,20.52-23.956,20.228-38.403l-0.002-0.041c-0.053-0.8-0.053-1.579-0.053-2.332V9.083l-1.354-0.05
	c-7.32-0.268-13.331-2.535-18.377-6.937l-0.923-0.804l-0.923,0.803C15.851,6.484,10.005,8.706,2.484,9.09L1.15,9.156v1.336
	c0,0.349-0.011,0.697-0.024,1.065l-0.001,0.058C1.108,12.065,1.095,12.474,1.095,12.902z"/>
<path fill="#154A9F" d="M19.095,32.12c-0.157,0-0.245-0.036-0.361-0.152l-5.335-5.335c-0.207-0.232-0.23-0.591-0.051-0.783
	c0.121-0.107,0.274-0.167,0.435-0.167c0.085,0,0.245,0.018,0.368,0.142l5.001,5.001L29.488,20.49
	c0.091-0.098,0.201-0.15,0.326-0.158c0.153,0.011,0.279,0.051,0.346,0.109c0.21,0.241,0.221,0.603,0.022,0.801L19.405,32.02
	l-0.021,0.025C19.353,32.082,19.241,32.12,19.095,32.12z"/>
</svg>
