<?xml version="1.0" encoding="utf-8"?>
<!-- Generator: Adobe Illustrator 15.1.0, SVG Export Plug-In  -->
<!DOCTYPE svg PUBLIC "-//W3C//DTD SVG 1.1//EN" "http://www.w3.org/Graphics/SVG/1.1/DTD/svg11.dtd" [
	<!ENTITY ns_flows "http://ns.adobe.com/Flows/1.0/">
]>
<svg version="1.1"
	 xmlns="http://www.w3.org/2000/svg" xmlns:xlink="http://www.w3.org/1999/xlink" xmlns:a="http://ns.adobe.com/AdobeSVGViewerExtensions/3.0/"
	 x="0px" y="0px" width="180px" height="180px" viewBox="-7.96 0 180 180" enable-background="new -7.96 0 180 180"
	 xml:space="preserve">
<defs>
</defs>
<path fill="#1D5E8B" d="M106.139,177.3c-0.699,0-1.199-0.6-1.199-1.2v-31c-0.301-7,4.199-13.199,9.199-18.699l18.5-22.2
	c2.2-2.7,3-6.3,2.2-9.7l-3.3-12.9c-0.8-3.2-3.7-5.5-7.1-5.5h-21.4c-4.8,0.1-7.7,4-7.7,7.7c0,4.3,3.4,7.7,7.7,7.7h12
	c0.5,0,1,0.4,1.2,0.9s-0.101,1.1-0.5,1.399l-21.3,13.7c-3.7,2.4-5.9,6.5-5.9,10.9c0,0.699-0.6,1.199-1.2,1.199
	c-0.7,0-1.2-0.6-1.2-1.199c0-5.2,2.601-10.101,7-12.9l18.101-11.7l-5.2,0.2c-0.4,0-0.9,0-1.3,0c-2.8,0-5.101-0.4-6.2-1.1l-1.1-0.7
	l-0.801,1.1c-1.899,2.7-5,4.4-8.399,4.4c-3.8,0-7.4-2.2-9.1-5.7l-0.8-1.6l-1.4,1.2c-1.8,1.5-4.2,2.4-6.5,2.4c-3.8,0-7.3-2.1-9-5.6
	l-0.8-1.6l-1.4,1.2c-1.8,1.6-4.2,2.5-6.6,2.5c-5,0-9.3-3.8-10-8.7l-0.2-1.2h-6.4l-0.5,0.4c-3.8,5.8-10.1,9.3-17.1,9.3
	c-7.8,0-15-4.5-18.3-11.6c-0.2-0.4-0.2-0.8,0.1-1.2c0.2-0.4,0.6-0.6,1-0.6h18.9V63H1.24c-0.4,0-0.8-0.2-1-0.6
	c-0.2-0.4-0.3-0.8-0.1-1.2c3.4-7,10.6-11.6,18.3-11.6c1.6,0,3.3,0.2,4.8,0.6c0.7,0.2,1.1,0.8,0.9,1.5c-0.1,0.6-0.6,0.9-1.2,0.9
	c-0.1,0-0.2,0-0.3,0c-1.4-0.3-2.8-0.5-4.3-0.5c-5.1,0-10,2.2-13.4,6.1l-1.9,2.4h18.3c0.7,0,1.2,0.6,1.2,1.2v16.4
	c0,0.7-0.6,1.2-1.2,1.2H3.04l2.1,2.3c3.4,3.9,8.3,6.1,13.4,6.1c6.5,0,12.5-3.6,15.7-9.3c0.2-0.4,0.6-0.6,1.1-0.6h7.2V62.1h-7.2
	c-0.5,0-0.9-0.2-1.1-0.6c-0.4-0.8-1-1.6-1.5-2.3c-0.2-0.3-0.3-0.6-0.2-0.9c0-0.3,0.2-0.6,0.5-0.8s0.6-0.3,0.8-0.3
	c0.4,0,0.7,0.2,1,0.5c0.3,0.4,0.7,0.9,1,1.4l0.4,0.6h6.5l0.3-1.1c1.2-4.5,5.2-7.6,9.8-7.6c2.3,0,4.4,0.7,6.2,2.1l1.5,1.2l0.7-1.7
	c1.5-3.9,5.3-6.4,9.4-6.4c3,0,5.9,1.4,7.8,3.7l1.1,1.3l1.1-1.3c1.9-2.4,4.8-3.7,7.8-3.7s5.899,1.4,7.8,3.7l1.1,1.3l1.101-1.3
	c1.899-2.4,4.8-3.7,7.8-3.7c5.6,0,10.2,4.6,10.2,10.2v3.4h13.5l0.399-0.6c3.8-5.8,10.101-9.3,17.101-9.3c0.5,0,0.899,0,1.399,0
	c0.7,0,1.2,0.6,1.101,1.3c0,0.6-0.601,1.1-1.2,1.1h-0.101c-0.399,0-0.8,0-1.199,0c-6.5,0-12.5,3.6-15.7,9.3
	c-0.2,0.4-0.601,0.6-1.101,0.6h-14.3v11.5h8.2c4.6,0,8.8,3.5,9.6,8.1l-0.1,0.2l0.3,0.3c3.4,3.5,8.101,5.5,12.9,5.5
	c5.1,0,10-2.2,13.399-6.1l2.101-2.3h-18.3c-0.7,0-1.2-0.6-1.2-1.2V61.8c0-0.7,0.6-1.2,1.2-1.2h18.3l-2.101-2.3
	c-0.5-0.6-1-1.1-1.6-1.6c-0.2-0.2-0.4-0.5-0.4-0.8c0-0.3,0.101-0.6,0.301-0.9c0.199-0.3,0.6-0.4,0.899-0.4s0.601,0.1,0.8,0.3
	c2.101,1.8,3.7,4,4.9,6.5c0.2,0.4,0.2,0.8-0.1,1.2c-0.2,0.4-0.601,0.6-1,0.6h-18.9v14h18.9c0.399,0,0.8,0.2,1,0.6
	c0.199,0.4,0.3,0.8,0.1,1.2c-3.4,7-10.6,11.6-18.3,11.6c-3.2,0-6.4-0.8-9.2-2.2l-2.8-1.4l1.8,7.1c1.1,4.101,0.1,8.601-2.7,11.9
	l-18.3,21.8l-0.5,0.5c-3.8,4.5-8.5,10.101-8.2,16.8V176C107.339,176.7,106.839,177.3,106.139,177.3z M88.24,48.5
	c-4.2,0-7.7,3.4-7.7,7.7v31.3c0,4.2,3.4,7.7,7.7,7.7c2.8,0,5.3-1.5,6.7-3.9l0.5-0.8l-0.601-0.7c-1.3-1.8-2-3.9-2-6.1
	c0-2.6,1-5,2.8-6.9l0.4-0.4V56.2C95.94,52,92.54,48.5,88.24,48.5z M70.439,48.5c-4.2,0-7.7,3.4-7.7,7.7v27.5c0,4.2,3.4,7.7,7.7,7.7
	c4.3,0,7.7-3.4,7.7-7.7V56.2C78.14,52,74.64,48.5,70.439,48.5z M52.64,53.4c-4.2,0-7.7,3.4-7.7,7.7v19.1c0,4.2,3.4,7.7,7.7,7.7
	c4.2,0,7.7-3.4,7.7-7.7V61.1C60.24,56.9,56.839,53.4,52.64,53.4z M106.139,48.5c-4.199,0-7.699,3.4-7.699,7.7v18.2l1.8-0.5
	c0.899-0.3,1.8-0.4,2.8-0.4h10.8V56.2C113.839,52,110.339,48.5,106.139,48.5z"/>
<path fill="#1D5E8B" d="M52.64,177.3c-0.7,0-1.2-0.6-1.2-1.2v-31c0-4.3-1.5-8.5-4.2-11.8c-3.1-3.8-4.7-8.5-4.7-13.3V98.5
	c0-0.7,0.6-1.2,1.2-1.2c0.7,0,1.2,0.601,1.2,1.2V120c0,4.3,1.5,8.5,4.2,11.8c3.1,3.8,4.7,8.5,4.7,13.3v31
	C53.839,176.7,53.24,177.3,52.64,177.3z"/>
<path fill="#1D5E8B" d="M82.839,15.4c-0.7,0-1.2-0.6-1.2-1.2v-13c0-0.7,0.6-1.2,1.2-1.2c0.7,0,1.2,0.6,1.2,1.2v12.9
	C84.139,14.8,83.54,15.4,82.839,15.4z"/>
<path fill="#1D5E8B" d="M101.339,20.8c-0.2,0-0.5-0.1-0.7-0.2c-0.3-0.2-0.5-0.5-0.5-0.8c-0.1-0.3,0-0.6,0.2-0.9l3.4-5.3
	c0.2-0.4,0.6-0.6,1-0.6c0.2,0,0.5,0.1,0.7,0.2c0.3,0.2,0.5,0.5,0.5,0.8c0.1,0.3,0,0.7-0.2,0.9l-3.4,5.3
	C102.139,20.6,101.74,20.8,101.339,20.8z"/>
<path fill="#1D5E8B" d="M114.139,35.7c-0.5,0-0.899-0.3-1.1-0.7c-0.1-0.3-0.1-0.6,0-0.9c0.1-0.3,0.4-0.5,0.7-0.7l5.8-2.6
	c0.2-0.1,0.3-0.1,0.5-0.1c0.5,0,0.9,0.3,1.1,0.7c0.101,0.3,0.101,0.6,0,0.9c-0.1,0.3-0.3,0.5-0.699,0.7l-5.801,2.6
	C114.44,35.7,114.24,35.7,114.139,35.7z"/>
<path fill="#1D5E8B" d="M64.439,20.8c-0.4,0-0.8-0.2-1-0.6l-3.4-5.3c-0.2-0.3-0.2-0.6-0.2-0.9c0.1-0.3,0.3-0.6,0.5-0.8
	c0.2-0.1,0.4-0.2,0.7-0.2c0.4,0,0.8,0.2,1,0.6l3.4,5.3c0.2,0.3,0.2,0.6,0.2,0.9c-0.1,0.3-0.3,0.6-0.5,0.8
	C64.939,20.7,64.74,20.8,64.439,20.8z"/>
<path fill="#1D5E8B" d="M51.64,35.7c-0.2,0-0.3,0-0.5-0.1l-5.8-2.6c-0.3-0.1-0.5-0.4-0.7-0.7c-0.1-0.3-0.1-0.6,0-0.9
	c0.2-0.4,0.6-0.7,1.1-0.7c0.2,0,0.3,0,0.5,0.1l5.8,2.6c0.3,0.1,0.5,0.4,0.6,0.7c0.1,0.3,0.1,0.6,0,0.9
	C52.64,35.4,52.14,35.7,51.64,35.7z"/>
</svg>
