<?xml version="1.0" encoding="utf-8"?>
<!-- Generator: Adobe Illustrator 15.1.0, SVG Export Plug-In  -->
<!DOCTYPE svg PUBLIC "-//W3C//DTD SVG 1.1//EN" "http://www.w3.org/Graphics/SVG/1.1/DTD/svg11.dtd" [
	<!ENTITY ns_flows "http://ns.adobe.com/Flows/1.0/">
]>
<svg version="1.1"
	 xmlns="http://www.w3.org/2000/svg" xmlns:xlink="http://www.w3.org/1999/xlink" xmlns:a="http://ns.adobe.com/AdobeSVGViewerExtensions/3.0/"
	 x="0px" y="0px" width="180px" height="180px" viewBox="-2.5 -1 180 180" enable-background="new -2.5 -1 180 180"
	 xml:space="preserve">
<defs>
</defs>
<path fill="#1D5E8B" d="M35.9,113.7V61.3c0-18.9,14.2-34.8,32.9-37.1l2.1-0.3L60,2.2c-0.2-0.5-0.2-1,0.1-1.5C60.3,0.3,60.8,0,61.3,0
	h53.9c0.5,0,1,0.3,1.3,0.7c0.3,0.4,0.3,1,0.1,1.5l-11,21.8l2.101,0.3c18.8,2.2,32.899,18.2,32.899,37.1v40.4h-3V61.3
	c0-9.1-3.699-17.9-10.1-24.3c-6.5-6.5-15.1-10.1-24.3-10.1h-30c-19,0-34.4,15.5-34.4,34.4v52.4H35.9z M74.2,23.9h28.1L112.8,3h-49
	L74.2,23.9z"/>
<path fill="#1D5E8B" d="M76.5,176.5c-6.2,0-12.4-1.6-17.9-4.6L7.8,144.3c-4.8-2.6-7.8-7.6-7.8-13V131c0-4.7,2.2-9.1,6-11.9
	c2.5-2,5.7-3,8.9-3c2.2,0,4.5,0.5,6.5,1.5L61.5,137.7l-1.1-3.4c-1.3-4.1-0.5-8.6,2-12c2.5-3.399,6.6-5.5,10.9-5.5H96.4l0.399-0.2
	c7.5-4.8,16.2-7.3,25.101-7.3c6.1,0,12.1,1.2,17.8,3.5c4,1.601,7.8,3.8,11.2,6.4l0.8,0.6H175c0.8,0,1.5,0.7,1.5,1.5V175
	c0,0.8-0.7,1.5-1.5,1.5H76.5z M152.6,173.5h20.9v-50.9h-20.9V173.5z M14.9,118.9c-2.5,0-4.9,0.8-6.9,2.3c-3.1,2.2-4.9,5.8-4.9,9.7
	v0.3c0,4.3,2.4,8.3,6.2,10.399L60,169.3c5,2.8,10.7,4.2,16.5,4.2h73.1v-51.6l-0.6-0.5c-3.2-2.5-6.7-4.5-10.4-6
	c-5.3-2.2-10.899-3.301-16.699-3.301c-8.601,0-17,2.5-24.2,7.301c-0.2,0.199-0.5,0.199-0.8,0.199H73.3c-5.8,0-10.5,4.7-10.5,10.5
	c0,5.801,4.7,10.5,10.5,10.5h37.4v3H67.3c-0.2,0-0.5-0.1-0.7-0.199L20,120.1C18.4,119.3,16.6,118.9,14.9,118.9z"/>
<path fill="#1D5E8B" d="M86.8,101.7v-6h-12v-3h19.4c4.1,0,7.5-3.4,7.5-7.5c0-4.1-3.4-7.5-7.5-7.5h-12c-5.8,0-10.5-4.7-10.5-10.5
	c0-5.8,4.7-10.5,10.5-10.5h4.5v-6h3v6h12v3H82.3c-4.1,0-7.5,3.4-7.5,7.5c0,4.1,3.4,7.5,7.5,7.5h12c5.8,0,10.5,4.7,10.5,10.5
	c0,5.8-4.7,10.5-10.5,10.5h-4.5v6H86.8z"/>
</svg>
