<?xml version="1.0" encoding="utf-8"?>
<!-- Generator: Adobe Illustrator 15.1.0, SVG Export Plug-In  -->
<!DOCTYPE svg PUBLIC "-//W3C//DTD SVG 1.1//EN" "http://www.w3.org/Graphics/SVG/1.1/DTD/svg11.dtd" [
	<!ENTITY ns_flows "http://ns.adobe.com/Flows/1.0/">
]>
<svg version="1.1"
	 xmlns="http://www.w3.org/2000/svg" xmlns:xlink="http://www.w3.org/1999/xlink" xmlns:a="http://ns.adobe.com/AdobeSVGViewerExtensions/3.0/"
	 x="0px" y="0px" width="56px" height="53px" viewBox="0 0 56 53" enable-background="new 0 0 56 53" xml:space="preserve">
<defs>
</defs>
<path fill="#154A9F" d="M2.851,41.105C1.279,41.105,0,39.9,0,38.42V2.685C0,1.205,1.279,0,2.851,0h50.327
	c1.572,0,2.852,1.205,2.852,2.685V38.42c0,1.48-1.279,2.686-2.852,2.686H2.851z M2.851,0.749c-1.114,0-2.02,0.868-2.02,1.936V38.42
	c0,1.067,0.906,1.937,2.02,1.937h50.327c1.114,0,2.021-0.869,2.021-1.937V2.685c0-1.067-0.906-1.936-2.021-1.936H2.851z"/>
<path fill="#154A9F" d="M13.671,53.149c-0.229,0-0.416-0.168-0.416-0.374c0-0.078,0.027-0.153,0.078-0.218l4.524-5.681v-6.149
	c0-0.206,0.187-0.375,0.416-0.375h20.293c0.229,0,0.415,0.169,0.415,0.375v6.149l4.525,5.683c0.06,0.075,0.086,0.17,0.072,0.263
	c-0.014,0.099-0.069,0.187-0.155,0.248c-0.071,0.051-0.164,0.079-0.256,0.079H13.671z M18.689,46.995
	c0,0.078-0.027,0.154-0.076,0.217l-4.132,5.189h27.88l-4.133-5.19c-0.049-0.062-0.075-0.138-0.075-0.216v-5.89H18.689V46.995z"/>
<path fill="#154A9F" d="M26.351,28.256c-0.2-0.001-0.371-0.132-0.405-0.312l-2.079-10.883l-0.774-0.02l-2.161,8.876
	c-0.041,0.167-0.201,0.288-0.39,0.295l-0.032,0.001c-0.179,0-0.335-0.107-0.381-0.262l-2.658-8.19l-2.042,3.808
	c-0.069,0.129-0.216,0.213-0.374,0.213H9.852c-0.229,0-0.415-0.168-0.415-0.375c0-0.206,0.187-0.375,0.415-0.375h4.946l2.395-4.465
	c0.069-0.13,0.217-0.214,0.375-0.214c0.068,0,0.133,0.015,0.193,0.044c0.098,0.048,0.172,0.13,0.204,0.227l2.503,7.707l2.701-11.089
	c0.042-0.17,0.213-0.294,0.406-0.294h0.021c0.188,0.005,0.356,0.136,0.389,0.311l2.003,10.493l0.778,0.004l2.411-11.945
	c0.035-0.176,0.206-0.306,0.406-0.308c0.199,0.001,0.371,0.129,0.409,0.305l2.611,11.898l0.768,0.027l2.45-8.286
	c0.047-0.161,0.202-0.273,0.387-0.28c0.021-0.001,0.032-0.002,0.042-0.002c0.167,0,0.312,0.098,0.36,0.241l3.449,9.043l1.711-3.11
	c0.071-0.13,0.214-0.21,0.371-0.21h4.037c0.229,0,0.416,0.167,0.416,0.373c0,0.207-0.187,0.375-0.416,0.375h-3.778l-2.038,3.707
	c-0.068,0.13-0.209,0.21-0.361,0.21c-0.012,0-0.023,0-0.034-0.001c-0.172-0.012-0.315-0.11-0.37-0.253l-3.324-8.715l-2.997,10.142
	c-0.043,0.17-0.196,0.28-0.371,0.28c-0.011,0-0.021,0-0.031-0.001c-0.208-0.008-0.37-0.134-0.407-0.306l-2.462-11.215l-0.776,0.007
	l-2.462,12.215c-0.036,0.179-0.208,0.309-0.409,0.309H26.351z"/>
</svg>
