<?xml version="1.0" encoding="utf-8"?>
<!-- Generator: Adobe Illustrator 15.1.0, SVG Export Plug-In  -->
<!DOCTYPE svg PUBLIC "-//W3C//DTD SVG 1.1//EN" "http://www.w3.org/Graphics/SVG/1.1/DTD/svg11.dtd" [
	<!ENTITY ns_flows "http://ns.adobe.com/Flows/1.0/">
]>
<svg version="1.1"
	 xmlns="http://www.w3.org/2000/svg" xmlns:xlink="http://www.w3.org/1999/xlink" xmlns:a="http://ns.adobe.com/AdobeSVGViewerExtensions/3.0/"
	 x="0px" y="0px" width="180px" height="180px" viewBox="0 -0.014 180 180" enable-background="new 0 -0.014 180 180"
	 xml:space="preserve">
<defs>
</defs>
<path display="none" d="M147.4,59.586c-12.301,0-22.601,9.5-23.7,21.7h-28.4c0-0.6,0.3-1.4,0.3-2c0-2.8-0.8-5.6-2-8.1l26.2-26.2
	c1.7,0.8,3.601,1.7,5.601,1.7c6.1,0,11.1-5,11.1-11.1s-5-11.1-11.1-11.1c-6.101,0-11.101,5-11.101,11.1c0,2.5,0.8,5,2.5,6.7
	l-25.7,25.4c-3.3-3.6-8.1-6.1-13.399-6.1c-1.9,0-3.6,0.3-5.6,0.8l-10.8-19.5c9.8-7.2,12.8-20.9,6.1-31.5
	c-6.9-11.4-21.4-14.7-32.6-7.8c-11.1,6.7-14.7,21.2-7.8,32.6c6.4,10.6,19.5,14.2,30.6,8.9l10.9,19.2c-3.9,2.5-7,6.4-7.8,11.1
	l-32.3-8.9c0,0,0,0,0-0.3c0-6.1-5-11.1-11.1-11.1c-6.1,0-11.1,5-11.1,11.1c0,6.1,5,11.1,11.1,11.1c4.7,0,8.6-2.8,10.3-7l32.6,9.2
	c0,3.6,1.4,7.2,3.3,10l-20.6,12.8c-7.5-10.3-21.5-12.8-31.8-6.1c-11.1,7.2-14.4,21.899-7.5,32.8c4.5,7,12,11.1,20.1,11.1
	c10.9,0,20.6-7.5,23.1-18.399c1.1-5.3,0.6-10.9-2-15.601l21.5-13.1c0.8,0.8,1.9,1.4,2.8,2v7.8c-1.7-0.8-3.3-1.399-5.3-1.399
	c-4.7,0.3-8.4,4.199-8.4,9.199v43.7c0,3.3,1.4,6.101,3.6,8.101c0,0.3,0,0.3,0,0.6v13.4c0,1.1,0.8,2.199,2.2,2.199h60.5
	c1.1,0,2.2-0.8,2.2-2.199v-13.4c0-0.3,0-0.3,0-0.6c2.199-2,3.6-4.7,3.6-8.101c0-48.2,0.8-47.1-2.5-50.399c-1.7-1.7-3.9-2.5-6.1-2.5
	c-2,0-3.601,0.8-5,2.199c-1.4-5.6-8.601-8.899-13.4-4.5c-0.8-3.6-4.5-6.699-8.6-6.699c-1.101,0-2,0.3-2.8,0.6c2.5-2,4.2-4.5,5.3-7.5
	H124c1.1,12,11.1,21.7,23.7,21.7c13.1,0,23.7-10.601,23.7-23.7C171.099,70.187,160.5,59.586,147.4,59.586z M125.099,28.386
	c3.9,0,7,3.1,7,7s-3.1,7-7,7c-3.899,0-7-3.1-7-7S121.5,28.386,125.099,28.386z M30.7,33.986c-5.6-9.2-2.8-21.2,6.4-26.7
	c8.9-5.6,21.2-3.1,26.7,6.4c5.6,9.2,2.8,21.2-6.4,26.7C48.5,45.986,36.2,43.187,30.7,33.986z M17,73.286c-3.9,0-7-3.1-7-7
	c0-3.9,3.1-7,7-7s7,3.1,7,7C24,69.886,20.899,73.286,17,73.286z M42.899,120.586c-2.2,9.2-10.3,15.4-18.9,15.4
	c-6.7,0-12.8-3.3-16.4-9.2c-5.9-9.2-3.1-21.2,6.1-27c8.9-5.6,21.2-3.1,27,6.101C43.2,110.286,44,115.586,42.899,120.586z
	 M119.5,164.887v9.199h-55.7v-9.199h3.1l0,0h41.5h8.6l0,0H119.5z M91.7,96.387c2.5,0,4.7,2,4.7,4.699v6.101c0,0.6,0,17.6,0,18.1
	c0,1.101,0.8,2.2,2.199,2.2c1.4,0,2.2-0.8,2.2-2.2c0-18.399,0-17.6,0-17.6c0-3.601,3.601-9.8,7.8-5.601c0.801,0.801,1.4,2,1.4,3.301
	v6.699l0,0v17.801c0,1.1,0.8,2.199,2.2,2.199c1.1,0,2.2-0.8,2.2-2.199v-17.801l0,0c0-2.8,2.5-7,4.699-7c2.5,0,4.7,2,4.7,4.7
	c0,16.7,0,27.601,0,44.3c0,3.601-2.8,6.4-6.399,6.4h-51c-3.6,0-6.7-3.1-6.7-6.7v-43.7c0-2.5,2-4.699,4.5-5c1.4,0,2.5,0.301,3.6,1.4
	c0.8,0.8,1.4,2,1.4,3.1v17c0,1.101,0.8,2.2,2.2,2.2c1.1,0,2.2-0.8,2.2-2.2v-16.699l0,0V93.586l0,0v-14.5c0-0.3,0-0.8,0-1.1
	c0.6-2.5,2.8-4.2,5-3.9c0.6,0,0.3,0,0.8,0.3c0,0,0.6,0,0.6,0.3c1.7,0.8,2.8,2.2,2.8,4.2v14.5l0,0v8.899l0,0v17.8
	c0,1.101,0.8,2.2,2.2,2.2c1.1,0,2.2-0.8,2.2-2.2v-16.699l0,0C86.899,100.286,89.399,96.387,91.7,96.387z M86.899,88.886v-10.3
	c0-11.4-17.6-11.7-17.6,0.3v10.9c-3.1-2.5-5-6.4-5-10.6c0-7.5,6.1-13.4,13.4-13.4c7.2,0,13.399,6.1,13.399,13.4
	C91.099,82.986,89.7,86.386,86.899,88.886z M147.4,102.786c-10.9,0-19.5-8.6-19.5-19.5c0-10.9,8.6-19.5,19.5-19.5
	c10.899,0,19.5,8.6,19.5,19.5C166.9,94.187,158.299,102.786,147.4,102.786z"/>
<path fill="#1D5E8B" d="M47.2,44.786h61c1.6,0,3-1.3,3-3c0-1.6-1.3-3-3-3h-61c-1.6,0-3,1.3-3,3c0,0.8,0.2,1.5,0.7,2
	C45.5,44.486,46.299,44.786,47.2,44.786z"/>
<path fill="#1D5E8B" d="M47.2,77.187h61c1.6,0,3-1.3,3-3c0-1.5-1.4-3-3-3h-61c-1.6,0-3,1.3-3,3C44.2,75.886,45.5,77.187,47.2,77.187
	z"/>
<path fill="#1D5E8B" d="M145.4,96.986l-1.4-0.6v-92.2c0-1.7-1.2-3-3-3H14.2c-1.7,0-3,1.2-3,3v140c0,1.6,1.3,3,3,3h73.9l0.5,1.6
	c5.8,17.2,21.7,28.7,39.7,28.7c23.2,0,42-18.8,42-42C170.299,118.986,160.5,103.887,145.4,96.986z M86.299,135.187c0,1,0.2,2,0.3,3
	l0.5,2.8H18.7v-1.4h-1.6V7.286h120.7v87.2l-3.3-0.5c-2.2-0.3-4.2-0.6-6.3-0.6c-9.4,0-18.8,3.399-26.5,9.6l-0.7,0.5H47
	c-1.5,0-3,1.4-3,3s1.3,3,3,3h48.1l-2.3,3.7C88.5,119.687,86.299,127.286,86.299,135.187z M128.299,171.286
	c-19.899,0-36.1-16.1-36.1-35.899c0-19.9,16.2-36.101,36.1-36.101c19.9,0,36.101,16.2,36.101,36.101
	C164.4,155.187,148.2,171.286,128.299,171.286z"/>
<path fill="#1D5E8B" d="M141.4,123.086c-0.801,0-1.5,0.4-2,0.9l-15.101,17.3l-8.5-8.2c-0.6-0.6-1.3-0.899-2.2-0.899
	c-0.8,0-1.6,0.3-2.1,0.899c-0.6,0.601-0.9,1.301-0.9,2.101s0.301,1.6,0.9,2.1l10.7,10.7c1.1,1.1,3.2,1.2,4.3-0.2l17.4-19.7
	c0.5-0.6,0.8-1.399,0.699-2.199c-0.1-0.801-0.399-1.5-1-2C142.799,123.187,142,123.086,141.4,123.086z"/>
</svg>
