<?xml version="1.0" encoding="utf-8"?>
<!-- Generator: Adobe Illustrator 15.1.0, SVG Export Plug-In  -->
<!DOCTYPE svg PUBLIC "-//W3C//DTD SVG 1.1//EN" "http://www.w3.org/Graphics/SVG/1.1/DTD/svg11.dtd" [
	<!ENTITY ns_flows "http://ns.adobe.com/Flows/1.0/">
]>
<svg version="1.1"
	 xmlns="http://www.w3.org/2000/svg" xmlns:xlink="http://www.w3.org/1999/xlink" xmlns:a="http://ns.adobe.com/AdobeSVGViewerExtensions/3.0/"
	 x="0px" y="0px" width="180px" height="180px" viewBox="-10 0 180 180" enable-background="new -10 0 180 180"
	 xml:space="preserve">
<defs>
</defs>
<path fill="#1D5E8B" d="M79.8,177.3c-1.3,0-2.7-0.3-3.8-0.899l-0.4-0.2C52.5,164,33.3,146.5,20,125.7C6.9,105,0,81.5,0,57.8V39.5
	c0-3.4,2-6.4,5.2-7.7c13.2-5.2,23.7-14.9,29.6-27.2C36.1,1.8,39,0,42.2,0h75.3c3.2,0,6.1,1.8,7.4,4.7c5.8,12.3,16.3,21.9,29.5,27.2
	c3.199,1.2,5.199,4.3,5.199,7.7v18.3c0,23.8-6.899,47.2-20,67.9c-13.3,20.9-32.5,38.3-55.6,50.5l-0.4,0.2
	C82.5,176.9,81.1,177.3,79.8,177.3z M42.2,3.5c-1.8,0-3.5,1-4.2,2.6c-6.3,13.2-17.4,23.5-31.5,29c-1.8,0.7-3,2.4-3,4.4v18.3
	c0,23.1,6.7,45.9,19.5,66c13,20.3,31.7,37.3,54.2,49.2l0.4,0.2c0.7,0.399,1.4,0.5,2.2,0.5s1.5-0.2,2.2-0.5l0.4-0.2
	c22.5-11.8,41.3-28.9,54.199-49.2c12.801-20.1,19.5-42.9,19.5-66V39.5c0-1.9-1.199-3.7-3-4.4C139,29.5,127.9,19.3,121.7,6.2
	c-0.8-1.6-2.4-2.6-4.2-2.6H42.2V3.5z"/>
<path fill="#1D5E8B" d="M79.9,117.6c-1,0-1.8-0.8-1.8-1.8v-9.3l-0.7-0.3c-2-1-3.3-3-3.3-5.2c0-3.2,2.6-5.8,5.8-5.8s5.8,2.6,5.8,5.8
	c0,2.2-1.3,4.3-3.3,5.2l-0.7,0.3v9.3C81.7,116.8,80.9,117.6,79.9,117.6z"/>
<path fill="#1D5E8B" d="M51.6,124.9c-3.7,0-6.7-3-6.7-6.7V82.6c0-3.7,3-6.7,6.7-6.7h5.3V62.8c0-12.7,10.3-23,23.1-23
	c12.7,0,23.1,10.3,23.1,23v13.1h5.301c3.699,0,6.699,3,6.699,6.7v35.6c0,3.7-3,6.7-6.699,6.7H51.6z M51.6,78.5
	c-2.3,0-4.2,1.9-4.2,4.2v35.6c0,2.3,1.9,4.2,4.2,4.2h56.7c2.3,0,4.2-1.9,4.2-4.2V82.6c0-2.3-1.9-4.2-4.2-4.2H51.6V78.5z M79.9,42.3
	c-11.3,0-20.5,9.2-20.5,20.5v13.1h41.1V62.8C100.5,51.5,91.2,42.3,79.9,42.3z"/>
</svg>
