<?xml version="1.0" encoding="utf-8"?>
<!-- Generator: Adobe Illustrator 15.1.0, SVG Export Plug-In  -->
<!DOCTYPE svg PUBLIC "-//W3C//DTD SVG 1.1//EN" "http://www.w3.org/Graphics/SVG/1.1/DTD/svg11.dtd" [
	<!ENTITY ns_flows "http://ns.adobe.com/Flows/1.0/">
]>
<svg version="1.1"
	 xmlns="http://www.w3.org/2000/svg" xmlns:xlink="http://www.w3.org/1999/xlink" xmlns:a="http://ns.adobe.com/AdobeSVGViewerExtensions/3.0/"
	 x="0px" y="0px" width="180px" height="180px" viewBox="0 0 180 180" enable-background="new 0 0 180 180" xml:space="preserve">
<defs>
</defs>
<path display="none" d="M87.6,177.5c-1.3,0-2.7-0.3-3.8-0.9l-0.4-0.199C60.3,164.3,41.1,146.8,27.9,125.9
	C14.8,105.3,7.9,81.8,7.9,58V39.7c0-3.4,2-6.4,5.2-7.7c13.2-5.2,23.7-14.9,29.6-27.2C43.9,2,46.8,0.2,50,0.2h75.3
	c3.2,0,6.101,1.8,7.4,4.7c5.8,12.3,16.3,21.9,29.5,27.2c3.2,1.2,5.2,4.3,5.2,7.7V58c0,23.8-6.9,47.2-20,67.9
	C134.1,146.8,114.9,164.2,91.8,176.4L91.4,176.6C90.3,177.2,88.9,177.5,87.6,177.5z M50,3.8c-1.8,0-3.5,1-4.2,2.6
	c-6.2,13.1-17.4,23.4-31.5,28.9c-1.8,0.7-3,2.4-3,4.4V58c0,23.1,6.7,45.9,19.5,66c12.9,20.4,31.7,37.4,54.2,49.2l0.4,0.2
	c0.7,0.399,1.4,0.5,2.2,0.5c0.8,0,1.5-0.2,2.2-0.5l0.4-0.2c22.5-11.8,41.3-28.9,54.2-49.2c12.8-20.1,19.5-42.9,19.5-66V39.7
	c0-1.9-1.2-3.7-3-4.4c-14.101-5.6-25.2-15.8-31.4-28.9c-0.8-1.6-2.4-2.6-4.2-2.6H50z"/>
<path display="none" d="M87.7,117.8c-1,0-1.8-0.8-1.8-1.8v-9.3l-0.7-0.3c-2-1-3.3-3-3.3-5.2c0-3.2,2.6-5.8,5.8-5.8s5.8,2.6,5.8,5.8
	c0,2.2-1.3,4.3-3.3,5.2l-0.7,0.3v9.3C89.5,117,88.7,117.8,87.7,117.8z"/>
<path display="none" d="M59.4,125.1c-3.7,0-6.7-3-6.7-6.699V82.8c0-3.7,3-6.7,6.7-6.7h5.3v-13c0-12.7,10.3-23,23.1-23
	c12.7,0,23.101,10.3,23.101,23v13.1h5.3c3.7,0,6.7,3,6.7,6.7v35.6c0,3.7-3,6.7-6.7,6.7H59.4V125.1z M59.4,78.7
	c-2.3,0-4.2,1.9-4.2,4.2v35.6c0,2.3,1.9,4.2,4.2,4.2h56.7c2.301,0,4.2-1.9,4.2-4.2V82.8c0-2.3-1.899-4.2-4.2-4.2H59.4V78.7z
	 M87.7,42.5c-11.3,0-20.5,9.2-20.5,20.5v13.1h41.1v-13C108.3,51.7,99,42.5,87.7,42.5z"/>
<path display="none" d="M88,126.8c-21,0-38-17-38-37.8c0-21.1,17-38.2,38-38.2s38,17.1,38,38C126,109.7,108.9,126.8,88,126.8z
	 M88,55.2c-18.6,0-33.6,15.1-33.6,33.6C54.4,107.4,69.5,122.4,88,122.4c18.6,0,33.7-15.101,33.7-33.601
	C121.6,70.3,106.5,55.2,88,55.2z"/>
<path display="none" d="M88,99.2c-5.7,0-10.4-4.601-10.4-10.4c0-5.7,4.6-10.4,10.4-10.4S98.4,83,98.4,88.8
	C98.3,94.5,93.7,99.2,88,99.2z"/>
<path display="none" d="M88.2,177.2c-1.3,0-2.3-1-2.3-2.3v-18l-3-0.2c-33-2.5-59.8-29.3-62.3-62.3l-0.2-3h-18C1,91.3,0,90.3,0,89
	s1-2.3,2.3-2.3h17.6l0.2-3c2.6-33,29.3-59.8,62.3-62.3l3-0.2v-18c0-1.3,1-2.3,2.3-2.3c1.3,0,2.3,1,2.3,2.3V21l3,0.2
	c33,2.6,59.8,29.3,62.3,62.3l0.2,3h18c1.3,0,2.4,1.1,2.7,2.6c-0.101,1.2-1.101,2.2-2.3,2.2h-18l-0.2,3
	c-2.601,33-29.3,59.8-62.3,62.3l-3,0.2v18C90.5,176.1,89.4,177.2,88.2,177.2z M88,25.4c-35,0-63.4,28.5-63.4,63.4
	c0,34.9,28.4,63.4,63.4,63.4s63.4-28.5,63.4-63.4C151.4,53.9,123,25.4,88,25.4z"/>
<path fill="#1D5E8B" d="M88.2,178c-0.1,0-0.4,0-0.7-0.1h-0.2C54,166.4,32.8,147,22.3,118.6c-9-24.6-8.5-51.2-8-74.7
	c0.2-5.2,0.2-10,0.2-14.6c0-1.2,0.9-2.2,2.2-2.2C45.8,27,68,18.6,86.5,0.6C87,0.2,87.5,0,88.1,0s1.2,0.2,1.6,0.6
	c18.5,17.9,40.8,26.4,70,26.6c1.3,0,2.2,0.9,2.2,2.2c0,4.6,0,9.4,0.199,14.4v0.4c0.4,23.4,0.801,50-8.3,74.5
	c-10.5,28.3-31.8,47.6-65,59.1C88.5,178,88.3,178,88.2,178z M85.3,7.9C68.2,22.7,48.4,30.3,22.9,31.6l-4.1,0.2v4.1
	c0,1.2,0,2.4-0.1,3.6v0.2c0,1.3-0.1,2.8-0.1,4.4c-1,48.4-2.1,103.3,68,128.8l1.5,0.5l1.5-0.5c70-25.5,68.9-80.5,67.9-129.101v-0.1
	c-0.2-2.7-0.2-5.3-0.2-7.9v-4.1l-4.1-0.1C128.4,30.7,108,23,90.9,8.1l-2.8-2.5L85.3,7.9z"/>
<path fill="#1D5E8B" d="M79,109.3c-0.6,0-1.1-0.2-1.5-0.6l-18-18c-0.9-1-0.9-2.5-0.2-3.3c0.5-0.4,1.1-0.7,1.8-0.7
	c0.6,0,1.2,0.2,1.6,0.6L79.3,103.9l34.5-34.5c0.4-0.4,0.9-0.6,1.4-0.7c0.6,0,1.2,0.2,1.5,0.5c0.899,1,0.899,2.5,0.1,3.3l-36.3,36.4
	l-0.1,0.1C80,109.2,79.4,109.3,79,109.3z"/>
</svg>
