<?xml version="1.0" encoding="utf-8"?>
<!-- Generator: Adobe Illustrator 15.1.0, SVG Export Plug-In  -->
<!DOCTYPE svg PUBLIC "-//W3C//DTD SVG 1.1//EN" "http://www.w3.org/Graphics/SVG/1.1/DTD/svg11.dtd" [
	<!ENTITY ns_flows "http://ns.adobe.com/Flows/1.0/">
]>
<svg version="1.1"
	 xmlns="http://www.w3.org/2000/svg" xmlns:xlink="http://www.w3.org/1999/xlink" xmlns:a="http://ns.adobe.com/AdobeSVGViewerExtensions/3.0/"
	 x="0px" y="0px" width="180px" height="180px" viewBox="-3.8 0 180 180" enable-background="new -3.8 0 180 180"
	 xml:space="preserve">
<defs>
</defs>
<path display="none" d="M83.8,177.3c-1.3,0-2.7-0.3-3.8-0.899l-0.4-0.2C56.5,164.1,37.3,146.6,24.1,125.7
	C11,105.1,4.1,81.6,4.1,57.8V39.5c0-3.4,2-6.4,5.2-7.7C22.5,26.6,33,16.9,38.9,4.6C40.1,1.8,43,0,46.2,0h75.3
	c3.2,0,6.101,1.8,7.4,4.7c5.8,12.3,16.3,21.9,29.5,27.2c3.2,1.2,5.2,4.3,5.2,7.7v18.3c0,23.8-6.9,47.2-20,67.9
	c-13.301,20.9-32.5,38.3-55.601,50.5l-0.399,0.2C86.5,176.9,85.1,177.3,83.8,177.3z M46.2,3.5c-1.8,0-3.5,1-4.2,2.6
	C35.8,19.2,24.6,29.5,10.5,35c-1.8,0.7-3,2.4-3,4.4v18.3c0,23.1,6.7,45.899,19.5,66C40,144.1,58.7,161.1,81.2,173l0.4,0.2
	c0.7,0.399,1.4,0.5,2.2,0.5c0.8,0,1.5-0.2,2.2-0.5l0.4-0.2c22.5-11.8,41.3-28.9,54.2-49.2c12.8-20.1,19.5-42.9,19.5-66V39.5
	c0-1.9-1.2-3.7-3-4.4C143,29.5,131.9,19.3,125.7,6.2c-0.8-1.6-2.4-2.6-4.2-2.6H46.2V3.5z"/>
<path display="none" d="M83.9,117.6c-1,0-1.8-0.8-1.8-1.8v-9.3l-0.7-0.3c-2-1-3.3-3-3.3-5.2c0-3.2,2.6-5.8,5.8-5.8s5.8,2.6,5.8,5.8
	c0,2.2-1.3,4.3-3.3,5.2l-0.7,0.3v9.3C85.7,116.8,84.9,117.6,83.9,117.6z"/>
<path display="none" d="M55.6,124.9c-3.7,0-6.7-3-6.7-6.7V82.6c0-3.7,3-6.7,6.7-6.7h5.3V62.8c0-12.7,10.3-23,23.1-23
	c12.7,0,23.101,10.3,23.101,23v13.1h5.3c3.7,0,6.7,3,6.7,6.7v35.6c0,3.7-3,6.7-6.7,6.7H55.6z M55.6,78.5c-2.3,0-4.2,1.9-4.2,4.2
	v35.6c0,2.3,1.9,4.2,4.2,4.2h56.7c2.301,0,4.2-1.9,4.2-4.2V82.6c0-2.3-1.899-4.2-4.2-4.2H55.6V78.5z M83.9,42.3
	c-11.3,0-20.5,9.2-20.5,20.5v13.1h41.1V62.8C104.5,51.5,95.2,42.3,83.9,42.3z"/>
<path fill="#1D5E8B" d="M88,126.6c-21,0-38-17-38-37.8c0-21.1,17-38.2,38-38.2s38,17.1,38,38S108.9,126.6,88,126.6z M88,54.9
	c-18.6,0-33.6,15.1-33.6,33.6c0,18.6,15.1,33.6,33.6,33.6c18.6,0,33.7-15.1,33.7-33.6C121.6,70,106.5,54.9,88,54.9z"/>
<path fill="#1D5E8B" d="M88,98.9c-5.7,0-10.4-4.601-10.4-10.4c0-5.7,4.6-10.4,10.4-10.4s10.4,4.6,10.4,10.4
	C98.3,94.3,93.7,98.9,88,98.9z"/>
<path fill="#1D5E8B" d="M88.2,177c-1.301,0-2.3-1-2.3-2.3v-18l-3-0.2c-33-2.5-59.8-29.3-62.3-62.3l-0.2-3h-18C1,91.1,0,90,0,88.8
	c0-1.2,1-2.3,2.3-2.3h17.6l0.2-3c2.6-33,29.3-59.8,62.3-62.3l3-0.2V3c0-1.3,1-2.3,2.3-2.3C89,0.7,90,1.7,90,3v17.8l3,0.2
	c33,2.6,59.8,29.3,62.3,62.3l0.2,3h18c1.3,0,2.4,1.1,2.7,2.6c-0.101,1.2-1.101,2.2-2.3,2.2h-18l-0.2,3
	c-2.601,33-29.3,59.801-62.3,62.301l-3,0.199v18C90.5,175.9,89.399,177,88.2,177z M88,25.2c-35,0-63.4,28.5-63.4,63.4S53,152,88,152
	s63.4-28.5,63.4-63.4S123,25.2,88,25.2z"/>
</svg>
