<svg id="Group_12580" data-name="Group 12580" xmlns="http://www.w3.org/2000/svg" xmlns:xlink="http://www.w3.org/1999/xlink" width="80" height="73.611" viewBox="0 0 80 73.611">
  <defs>
    <clipPath id="clip-path">
      <rect id="Rectangle_4290" data-name="Rectangle 4290" width="80" height="73.611" fill="#17499e"/>
    </clipPath>
  </defs>
  <g id="Group_12579" data-name="Group 12579" clip-path="url(#clip-path)">
    <path id="Path_16409" data-name="Path 16409" d="M0,52.875a4.591,4.591,0,0,1,.718-.788c1.034-.736,2.26-.007,2.411,1.362a31.2,31.2,0,0,0,.6,4.229,17.079,17.079,0,0,0,15.591,12.8c.313.015.622.011.935.037a1.6,1.6,0,0,1,1.575,1.608,1.54,1.54,0,0,1-1.682,1.487,24.918,24.918,0,0,1-4.328-.512A19.908,19.908,0,0,1,1.027,59.61,37.412,37.412,0,0,1,0,54.906ZM39.945,64.98c-1.443-2.054-2.845-3.986-4.17-5.97A2.425,2.425,0,0,0,33.5,57.843c-4.314.044-8.631.033-12.948.011A4.7,4.7,0,0,1,15.605,52.9q-.017-16.181,0-32.374a4.694,4.694,0,0,1,4.965-4.936c1.741-.011,3.485,0,5.226,0,1.2-.007,1.921-.622,1.9-1.59-.018-.942-.725-1.524-1.881-1.531-1.719-.007-3.43,0-5.149,0a7.856,7.856,0,0,0-8.186,8.2q-.006,16.032,0,32.061A7.871,7.871,0,0,0,20.7,60.983c3.953,0,7.906.011,11.859-.011a1.252,1.252,0,0,1,1.2.611c1.527,2.23,3.088,4.435,4.645,6.647.986,1.4,2.1,1.388,3.088-.022,1.572-2.234,3.143-4.461,4.689-6.71a1.091,1.091,0,0,1,1.02-.526c4,.018,8.005.015,12.013.011a7.866,7.866,0,0,0,8.189-8.208q.006-16.066,0-32.138a7.851,7.851,0,0,0-8.138-8.174q-10.335-.006-20.674,0a4.084,4.084,0,0,0-.924.07,1.527,1.527,0,0,0,.018,2.978,5.108,5.108,0,0,0,1.008.07H59.058c3.32,0,5.226,1.907,5.226,5.226V52.635c0,3.312-1.914,5.223-5.234,5.223-4.262,0-8.528.022-12.794-.011a2.252,2.252,0,0,0-2.079,1.078c-1.358,2-2.764,3.96-4.233,6.054m.029-12.757A14.877,14.877,0,1,0,25.09,37.413a14.918,14.918,0,0,0,14.884,14.81m11.7-14.833a11.73,11.73,0,1,1-11.7-11.8,11.773,11.773,0,0,1,11.7,11.8M79.886,19.209a.74.74,0,0,1,.11-.033,41.391,41.391,0,0,0-1.126-5.153A19.922,19.922,0,0,0,64.03.5,24.781,24.781,0,0,0,59.709,0a1.528,1.528,0,0,0-1.653,1.509,1.584,1.584,0,0,0,1.52,1.575c.331.037.674.029,1.012.048A17.079,17.079,0,0,1,76.161,15.929a37.77,37.77,0,0,1,.607,4.306,1.561,1.561,0,1,0,3.117-.1c.007-.309,0-.622,0-.931m-6.158.534A14.229,14.229,0,0,0,63.736,6.875a21.1,21.1,0,0,0-4.06-.626A1.5,1.5,0,0,0,58.06,7.711a1.582,1.582,0,0,0,1.395,1.608c.21.029.42.026.626.037a10.9,10.9,0,0,1,10.1,8.289,22.088,22.088,0,0,1,.346,2.621,1.562,1.562,0,0,0,1.251,1.5,1.356,1.356,0,0,0,1.59-.7,5.835,5.835,0,0,0,.357-1.318M19.923,67.376h.018c1.115.022,1.866-.585,1.888-1.516.026-.9-.67-1.531-1.748-1.6-.155-.007-.313-.007-.467-.018A10.959,10.959,0,0,1,9.374,53.618a1.718,1.718,0,0,0-.935-1.667c-1.119-.537-2.212.346-2.19,1.745A14.133,14.133,0,0,0,19.923,67.376M32.2,12.473a1.55,1.55,0,0,0-.011,3.1,1.55,1.55,0,0,0,.011-3.1m6.912,26.161c-.648-.688-1.185-1.318-1.792-1.884a1.542,1.542,0,0,0-2.179-.055,1.506,1.506,0,0,0,0,2.227q1.419,1.507,2.922,2.922a1.485,1.485,0,0,0,2.172.022q3.235-3.152,6.378-6.393a1.5,1.5,0,0,0-.026-2.116,1.552,1.552,0,0,0-2.179-.015c-.217.184-.412.39-.615.593-1.52,1.527-3.04,3.051-4.678,4.7" transform="translate(0 0)" fill="#17499e"/>
  </g>
</svg>
