<svg id="Group_12626" data-name="Group 12626" xmlns="http://www.w3.org/2000/svg" xmlns:xlink="http://www.w3.org/1999/xlink" width="50" height="43.539" viewBox="0 0 50 43.539">
  <defs>
    <clipPath id="clip-path">
      <rect id="Rectangle_4307" data-name="Rectangle 4307" width="50" height="43.539" fill="none"/>
    </clipPath>
  </defs>
  <g id="Group_12625" data-name="Group 12625" clip-path="url(#clip-path)">
    <path id="Path_16468" data-name="Path 16468" d="M25.326,42.651c.836,5.633-12.24,5.806-13.346-2.714C6.6,41.444,2.886,36.251,5.487,31.662c-3.119-2.129-3.062-8.339.189-10.2-2.484-2.646.53-10.057,6.536-8.736-1.64-5.952,7.046-10.8,13.15-6.059Z" transform="translate(-2.53 -3.767)" fill="none" stroke="#17499e" stroke-width="2"/>
    <path id="Path_16469" data-name="Path 16469" d="M45.818,36.844a6.63,6.63,0,0,0,5.425,5.162" transform="translate(-36.321 -29.207)" fill="none" stroke="#17499e" stroke-width="2"/>
    <path id="Path_16470" data-name="Path 16470" d="M71.837,27.27c-.614,3.946,6.009,5.6,7.808,3.043" transform="translate(-56.915 -21.617)" fill="none" stroke="#17499e" stroke-width="2"/>
    <path id="Path_16471" data-name="Path 16471" d="M44.9,55.364c-.011,1.385-1.864,3.159-2.911,3.572" transform="translate(-33.283 -43.888)" fill="none" stroke="#17499e" stroke-width="2"/>
    <path id="Path_16472" data-name="Path 16472" d="M36.244,86.9c1.632.825,1.668,3.2,3.435,3.725,1.851.551,2.858-1.494,3.6-2.913a4.579,4.579,0,0,1,5.267-2.657,12.236,12.236,0,0,1,2.649.92" transform="translate(-28.731 -67.357)" fill="none" stroke="#17499e" stroke-width="2"/>
    <path id="Path_16473" data-name="Path 16473" d="M27.3,85.571c1.268,1.572,3.3-.751,1.985-2.117" transform="translate(-21.644 -66.155)" fill="none" stroke="#17499e" stroke-width="2"/>
    <path id="Path_16474" data-name="Path 16474" d="M82.968,130.683c-1.738-1.733-4.444.222-5.027,2.1-.687,2.21,1.4,4.01.667,6.161a2.331,2.331,0,0,1-2.786,1.665" transform="translate(-60.105 -103.062)" fill="none" stroke="#17499e" stroke-width="2"/>
    <path id="Path_16475" data-name="Path 16475" d="M44.766,134.3c-2.04-5.338,8.072-3.836,3.7-11.908" transform="translate(-35.268 -97.021)" fill="none" stroke="#17499e" stroke-width="2"/>
    <path id="Path_16476" data-name="Path 16476" d="M13.9,131.144c.725-1.185,2.455-1.274,3.715-1.2a10.987,10.987,0,0,1,2.9,1.063" transform="translate(-11.016 -102.995)" fill="none" stroke="#17499e" stroke-width="2"/>
    <path id="Path_16477" data-name="Path 16477" d="M156.817,27.9l.19-5.823-3.53-.116a17.748,17.748,0,0,0-.991-3.488l3.237-1.774-2.8-5.109-3.442,1.888a18.076,18.076,0,0,0-2.459-2.387l2.056-3.475L144.062,4.65l-2.121,3.584a17.967,17.967,0,0,0-3.211-.836V3.192H135.85V45.407h2.879V42.8a17.717,17.717,0,0,0,3.18-.826l1.241,2.332,5.143-2.732-1.3-2.448a18.174,18.174,0,0,0,2.629-2.575l2.429,1.549,3.131-4.914-2.617-1.667a17.727,17.727,0,0,0,.987-3.724Z" transform="translate(-107.69 -2.53)" fill="none" stroke="#17499e" stroke-width="2"/>
    <path id="Path_16478" data-name="Path 16478" d="M135.85,43.583V47.6a8.719,8.719,0,0,1,0,17.438v4.015a12.735,12.735,0,0,0,0-25.469Z" transform="translate(-107.69 -34.549)" fill="none" stroke="#17499e" stroke-width="2"/>
  </g>
</svg>
