<svg id="Group_12641" data-name="Group 12641" xmlns="http://www.w3.org/2000/svg" xmlns:xlink="http://www.w3.org/1999/xlink" width="77.24" height="80" viewBox="0 0 77.24 80">
  <defs>
    <clipPath id="clip-path">
      <rect id="Rectangle_653" data-name="Rectangle 653" width="77.24" height="80" fill="none"/>
    </clipPath>
  </defs>
  <g id="Group_2573" data-name="Group 2573" clip-path="url(#clip-path)">
    <path id="Path_12021" data-name="Path 12021" d="M30.467,21.675h-2.4A1.377,1.377,0,0,1,26.693,20.3V18.9a1.376,1.376,0,0,1,1.374-1.376h2.658a1.118,1.118,0,0,1,1.118,1.116,1.562,1.562,0,0,0,3.124,0,4.244,4.244,0,0,0-4.136-4.238V13.065a1.563,1.563,0,0,0-3.126,0v1.356A4.5,4.5,0,0,0,23.567,18.9V20.3a4.506,4.506,0,0,0,4.5,4.5h2.4a1.378,1.378,0,0,1,1.376,1.376v1.4a1.377,1.377,0,0,1-1.376,1.374H27.809a1.118,1.118,0,0,1-1.116-1.116,1.563,1.563,0,0,0-3.126,0,4.248,4.248,0,0,0,4.138,4.24v1.34a1.563,1.563,0,1,0,3.126,0V32.055a4.505,4.505,0,0,0,4.136-4.484v-1.4a4.5,4.5,0,0,0-4.5-4.5" transform="translate(23.567 11.503)" fill="#17499e"/>
    <path id="Path_12022" data-name="Path 12022" d="M76.73,52.97a5.96,5.96,0,0,0-7.86-3.044l-.022.01-9.842,4.54a1.562,1.562,0,1,0,1.308,2.838l9.83-4.534a2.834,2.834,0,0,1,2.278,5.19l-20.14,8.892a11.613,11.613,0,0,1-9.892-.224l-7.372-3.662a14.739,14.739,0,0,0-12.542-.284l-.094.042L16.916,50.356,24.516,47a15.166,15.166,0,0,1,11.406-.364l14.826,5.444a2.616,2.616,0,0,1-1.74,4.934L37.544,53.138a1.562,1.562,0,1,0-1,2.96l11.464,3.878a5.679,5.679,0,0,0,1.83.3A5.74,5.74,0,0,0,51.826,49.15L37,43.7a18.516,18.516,0,0,0-3.04-.83V34.236A15.463,15.463,0,0,1,49.406,18.792h5.706A15.461,15.461,0,0,1,70.556,34.236v4.072a1.563,1.563,0,1,0,3.126,0V34.236a18.6,18.6,0,0,0-15-18.224V11.306l3.946-6.754a1.564,1.564,0,0,0-.7-2.212L57.084.14A1.565,1.565,0,0,0,55.908.094L52.316,1.386,49.128.112A1.563,1.563,0,0,0,47.986.106L42.92,2.06a1.564,1.564,0,0,0-.8,2.216L46,11.286V15.98A18.6,18.6,0,0,0,30.836,34.236v8.338a18.357,18.357,0,0,0-7.584,1.568L15.6,47.522a3.864,3.864,0,0,0-4.774-1.386L.936,50.468A1.566,1.566,0,0,0,0,51.9V78.438A1.564,1.564,0,0,0,1.562,80a1.533,1.533,0,0,0,.7-.168l19.2-9.7A3.879,3.879,0,0,0,23.6,65.609l.136-.06a11.616,11.616,0,0,1,9.89.226L41,69.438a14.744,14.744,0,0,0,12.544.284l20.14-8.892a5.963,5.963,0,0,0,3.046-7.86m-21.174-37.3H49.128V12.444h6.428ZM45.718,4.33l2.82-1.088,3.168,1.266a1.561,1.561,0,0,0,1.11.02l3.554-1.28L59.058,4.47,56.222,9.32H48.486ZM20.162,67.294c-.026.01-.05.022-.074.034L3.124,75.9V69.566L7.518,67.41A1.563,1.563,0,0,0,6.14,64.6l-3.016,1.48V52.92L12.082,49a.748.748,0,0,1,.572-.014.739.739,0,0,1,.414.4l.358.81v0l7.118,16.118a.75.75,0,0,1-.382.986" transform="translate(0 0)" fill="#17499e"/>
  </g>
</svg>
