<svg id="Group_3113" data-name="Group 3113" xmlns="http://www.w3.org/2000/svg" xmlns:xlink="http://www.w3.org/1999/xlink" width="80" height="73.719" viewBox="0 0 80 73.719">
  <defs>
    <clipPath id="clip-path">
      <rect id="Rectangle_871" data-name="Rectangle 871" width="80" height="73.719" fill="#17499e"/>
    </clipPath>
  </defs>
  <g id="Group_3112" data-name="Group 3112" clip-path="url(#clip-path)">
    <path id="Path_12797" data-name="Path 12797" d="M17.551,0a1.8,1.8,0,0,1,.908,1.766q-.022,10-.009,20v.976c.572-.51,1.02-.908,1.466-1.306a1.446,1.446,0,0,1,2.114-.159c.554.528.484,1.265-.2,1.9q-1.787,1.663-3.592,3.3a1.454,1.454,0,0,1-2.285.027q-1.831-1.668-3.645-3.359c-.678-.634-.728-1.371-.15-1.9a1.433,1.433,0,0,1,2.064.156c.436.4.84.832,1.262,1.247l.227-.08v-.814c0-6.664.009-13.331-.009-20A1.791,1.791,0,0,1,16.613,0Z" transform="translate(22.921)" fill="#17499e"/>
    <path id="Path_12798" data-name="Path 12798" d="M38.606,22.907a2.176,2.176,0,0,1-1.884.737c-3.306-.029-6.608-.012-9.914-.012h-.752l-.1.162c.478.422.97.832,1.436,1.268.7.661.731,1.365.13,1.9a1.422,1.422,0,0,1-2.011-.124q-1.893-1.712-3.751-3.462a1.168,1.168,0,0,1,.009-1.952q1.853-1.752,3.754-3.459a1.407,1.407,0,0,1,2.005-.106,1.158,1.158,0,0,1-.094,1.843,10.6,10.6,0,0,0-1.415,1.474H26.8c3.282,0,6.558.024,9.837-.015a2.313,2.313,0,0,1,1.967.731Z" transform="translate(41.394 34.092)" fill="#17499e"/>
    <path id="Path_12799" data-name="Path 12799" d="M25.479,33.662q0,4.175,0,8.345c0,1.466-.717,2.014-2.276,1.675a8.3,8.3,0,0,1-2.023-.717Q15.39,40,9.63,36.98a4.794,4.794,0,0,1-2.846-4.467c0-4.771-.006-9.542.012-14.31a5.613,5.613,0,0,1,.271-1.693c.377-1.156,1.182-1.436,2.33-.846q4.693,2.415,9.374,4.854c1.855.964,3.692,1.961,5.576,2.881a1.821,1.821,0,0,1,1.147,1.852c-.029,2.8-.015,5.612-.015,8.413M9.447,18.535c0,4.783-.012,9.41.009,14.036a2.52,2.52,0,0,0,1.586,2.3c3.7,1.9,7.381,3.825,11.073,5.738.171.091.354.168.593.28.021-.209.041-.345.041-.481,0-4.818-.009-9.64.012-14.458a.836.836,0,0,0-.575-.82q-5.551-2.857-11.079-5.738c-.513-.265-1.029-.531-1.66-.858" transform="translate(13.22 29.94)" fill="#17499e"/>
    <path id="Path_12800" data-name="Path 12800" d="M14.015,33.6c0-2.8.015-5.609-.012-8.413A1.8,1.8,0,0,1,15.135,23.4c4.951-2.533,9.875-5.113,14.812-7.676,1.362-.708,2.2-.377,2.58,1.032a4.918,4.918,0,0,1,.174,1.277q.018,7.3,0,14.6a4.536,4.536,0,0,1-2.562,4.178c-4.046,2.159-8.13,4.258-12.226,6.337a5.937,5.937,0,0,1-2.067.569c-1.283.142-1.825-.357-1.828-1.554-.015-1.9-.006-3.789-.006-5.682Zm2.734,7.351c4.152-2.167,8.153-4.246,12.143-6.349a2.04,2.04,0,0,0,1.126-1.8c.029-4.718.012-9.433.012-14.225-.206.086-.339.133-.472.2-4.116,2.135-8.233,4.282-12.367,6.4-.442.227-.448.519-.448.885q.009,5.83.006,11.654Z" transform="translate(27.289 29.946)" fill="#17499e"/>
    <path id="Path_12801" data-name="Path 12801" d="M24.833,9.94a17.473,17.473,0,0,1,2.7.846c3.987,2.014,7.956,4.058,11.875,6.178a6.748,6.748,0,0,1,2.055,1.9c.722.952.469,1.6-.64,2.176q-6.144,3.194-12.293,6.375c-.929.481-1.864.95-2.784,1.448a1.8,1.8,0,0,1-1.831.009Q16.353,24.932,8.771,21.01c-1.029-.534-1.28-1.171-.622-2.07a6.434,6.434,0,0,1,1.958-1.89c4.01-2.17,8.077-4.258,12.152-6.322a15.767,15.767,0,0,1,2.574-.787m13.7,9.445c-.245-.159-.363-.251-.5-.318q-5.9-3.07-11.813-6.128a2.932,2.932,0,0,0-2.884.044q-5.763,3-11.539,5.986c-.212.109-.4.251-.675.419,4.529,2.35,8.938,4.641,13.364,6.906a1.139,1.139,0,0,0,.84-.068c1.395-.693,2.766-1.418,4.149-2.138l9.053-4.7" transform="translate(15.173 19.371)" fill="#17499e"/>
    <path id="Path_12802" data-name="Path 12802" d="M12.659,20.993c-.513-.442-1.047-.867-1.53-1.333a1.136,1.136,0,0,1-.05-1.793,1.387,1.387,0,0,1,1.946.05q1.959,1.76,3.866,3.562a1.132,1.132,0,0,1,.012,1.849q-1.933,1.836-3.922,3.615a1.364,1.364,0,0,1-1.946.024,1.144,1.144,0,0,1,.074-1.793c.5-.472,1.038-.908,1.557-1.359-.035-.062-.074-.118-.115-.177h-.823q-5.153,0-10.306-.006a1.293,1.293,0,0,1-1.4-1.008,1.215,1.215,0,0,1,.87-1.368,3.122,3.122,0,0,1,.849-.068q5.034,0,10.073,0h.755c.032-.062.062-.13.094-.192" transform="translate(0 34.09)" fill="#17499e"/>
  </g>
</svg>
