<svg xmlns="http://www.w3.org/2000/svg" xmlns:xlink="http://www.w3.org/1999/xlink" width="80" height="71.14" viewBox="0 0 80 71.14">
  <defs>
    <clipPath id="clip-path">
      <rect id="Rectangle_4285" data-name="Rectangle 4285" width="80" height="71.14" fill="none"/>
    </clipPath>
  </defs>
  <g id="Group_12570" data-name="Group 12570" transform="translate(0 0)">
    <g id="Group_12569" data-name="Group 12569" transform="translate(0 0)" clip-path="url(#clip-path)">
      <path id="Path_16397" data-name="Path 16397" d="M13.752,22.771A5,5,0,1,1,18.744,17.8a5.042,5.042,0,0,1-4.992,4.972m.024-6.864a1.865,1.865,0,1,0,1.832,1.876,1.931,1.931,0,0,0-1.832-1.876" transform="translate(26.232 38.314)" fill="#17499e"/>
      <path id="Path_16398" data-name="Path 16398" d="M39.939,71.137q-16.428,0-32.852,0c-3.444,0-6.04-1.744-6.828-4.84a7.03,7.03,0,0,1,.712-5.5c1.992-3.332,3.9-6.72,5.832-10.08Q20.363,27.233,33.9,3.733a6.786,6.786,0,0,1,9.948-2.488A8.112,8.112,0,0,1,45.9,3.557c4.532,7.76,9.008,15.552,13.5,23.336a3.863,3.863,0,0,1,.324.7,1.533,1.533,0,0,1-.7,1.812,1.482,1.482,0,0,1-1.856-.3,5.218,5.218,0,0,1-.612-.9q-6.606-11.442-13.2-22.88A3.686,3.686,0,0,0,39.375,3.2a3.745,3.745,0,0,0-2.74,2.1q-4.02,6.978-8.052,13.944-12.348,21.39-24.7,42.772A3.931,3.931,0,0,0,3.4,65.861a3.415,3.415,0,0,0,2.96,2.112c.312.028.62.032.932.032q32.7.006,65.4,0c2.128,0,3.344-.744,3.968-2.4a3.9,3.9,0,0,0-.532-3.492Q69.749,51.1,63.391,40.057a4.712,4.712,0,0,1-.432-.908A1.519,1.519,0,0,1,65.471,37.6a3.077,3.077,0,0,1,.5.7Q72.5,49.591,79.019,60.9a6.663,6.663,0,0,1-3.764,9.92,9.254,9.254,0,0,1-2.62.3q-16.35.024-32.7.012" transform="translate(0.001 0)" fill="#17499e"/>
      <path id="Path_16399" data-name="Path 16399" d="M18.766,17.83c0,2.344.04,4.692-.008,7.032a4.974,4.974,0,0,1-7.588,4.3,4.668,4.668,0,0,1-2.392-4.14c-.048-4.768-.06-9.54,0-14.3a4.99,4.99,0,0,1,9.98.08c.044,2.348.008,4.692.008,7.036m-3.124.012c0-2.3.016-4.588-.012-6.88a1.876,1.876,0,1,0-3.74.008c-.012,4.592-.028,9.18.024,13.764a2.7,2.7,0,0,0,.7,1.568,1.548,1.548,0,0,0,1.88.3,1.894,1.894,0,0,0,1.144-1.884q.012-3.438.008-6.88" transform="translate(26.214 17.407)" fill="#17499e"/>
      <path id="Path_16400" data-name="Path 16400" d="M15.033,9.643A1.525,1.525,0,0,1,16.561,8.1a1.534,1.534,0,1,1,.012,3.068,1.523,1.523,0,0,1-1.54-1.528" transform="translate(45.099 24.31)" fill="#17499e"/>
    </g>
  </g>
</svg>
