<svg id="Group_12640" data-name="Group 12640" xmlns="http://www.w3.org/2000/svg" xmlns:xlink="http://www.w3.org/1999/xlink" width="80" height="80" viewBox="0 0 80 80">
  <defs>
    <clipPath id="clip-path">
      <rect id="Rectangle_652" data-name="Rectangle 652" width="80" height="80" fill="none"/>
    </clipPath>
  </defs>
  <g id="Group_2571" data-name="Group 2571" clip-path="url(#clip-path)">
    <path id="Path_12016" data-name="Path 12016" d="M73.982,29.646l-3.5-.414a32.285,32.285,0,0,0-1.316-3.172l2.184-2.77c2.14-2.712,2.134-6.376-.012-8.522L65.23,8.662c-2.146-2.146-5.81-2.152-8.524-.014l-2.77,2.186a32.456,32.456,0,0,0-3.17-1.316l-.414-3.5C49.946,2.586,47.35,0,44.316,0H35.68c-3.034,0-5.63,2.586-6.036,6.016l-.412,3.5a31.562,31.562,0,0,0-3.17,1.314L23.29,8.648c-2.712-2.138-6.376-2.134-8.522.014L8.662,14.768c-2.146,2.146-2.152,5.81-.012,8.522l2.184,2.77A31.791,31.791,0,0,0,9.52,29.232l-3.5.414c-3.43.4-6.016,3-6.016,6.034v8.636c0,3.034,2.586,5.63,6.016,6.036l3.5.414a32.733,32.733,0,0,0,1.314,3.17l-2.184,2.77c-2.138,2.714-2.134,6.378.012,8.522l6.108,6.108c2.146,2.146,5.81,2.152,8.522.012l2.77-2.184a32.285,32.285,0,0,0,3.172,1.316l.412,3.5c.406,3.43,3,6.018,6.036,6.018h8.636c3.034,0,5.63-2.588,6.036-6.018l.414-3.5a32.488,32.488,0,0,0,3.172-1.316l2.77,2.184c2.712,2.14,6.376,2.134,8.522-.012l6.106-6.106c2.146-2.146,2.152-5.81.014-8.524l-2.184-2.77a32.733,32.733,0,0,0,1.314-3.17l3.5-.414c3.43-.406,6.018-3,6.018-6.036V35.68c0-3.034-2.588-5.63-6.018-6.034m2.892,14.67c0,1.452-1.4,2.712-3.258,2.932l-4.486.532a1.562,1.562,0,0,0-1.306,1.076,28.986,28.986,0,0,1-1.886,4.552,1.563,1.563,0,0,0,.162,1.686l2.8,3.548c1.16,1.47,1.258,3.352.232,4.378L63.02,69.126c-1.026,1.026-2.908.928-4.376-.23L55.1,66.1a1.563,1.563,0,0,0-1.686-.16,29.289,29.289,0,0,1-4.554,1.888,1.561,1.561,0,0,0-1.078,1.3l-.53,4.486c-.22,1.858-1.48,3.258-2.932,3.258H35.68c-1.452,0-2.712-1.4-2.932-3.258l-.53-4.486a1.563,1.563,0,0,0-1.078-1.306,29.259,29.259,0,0,1-4.552-1.886,1.548,1.548,0,0,0-.718-.176,1.564,1.564,0,0,0-.968.336l-3.548,2.8c-1.468,1.158-3.35,1.256-4.376.23L10.872,63.02c-1.028-1.026-.928-2.908.23-4.378l2.8-3.548a1.563,1.563,0,0,0,.16-1.686,28.987,28.987,0,0,1-1.886-4.552,1.56,1.56,0,0,0-1.306-1.076l-4.486-.532c-1.858-.22-3.258-1.48-3.258-2.932V35.68c0-1.452,1.4-2.712,3.26-2.932l4.484-.53a1.563,1.563,0,0,0,1.306-1.078,29.066,29.066,0,0,1,1.886-4.552A1.559,1.559,0,0,0,13.9,24.9l-2.8-3.548c-1.16-1.468-1.258-3.35-.232-4.376l6.106-6.108c1.026-1.026,2.908-.926,4.378.232L24.9,13.9a1.562,1.562,0,0,0,1.686.16,29.157,29.157,0,0,1,4.55-1.886,1.563,1.563,0,0,0,1.078-1.306l.53-4.484c.22-1.858,1.48-3.26,2.932-3.26h8.636c1.452,0,2.712,1.4,2.932,3.258l.53,4.486a1.563,1.563,0,0,0,1.078,1.306,28.987,28.987,0,0,1,4.552,1.886,1.563,1.563,0,0,0,1.686-.16l3.548-2.8c1.47-1.158,3.35-1.258,4.378-.23l6.106,6.106c1.026,1.026.928,2.908-.23,4.376L66.1,24.9a1.558,1.558,0,0,0-.16,1.686,29.157,29.157,0,0,1,1.886,4.55,1.563,1.563,0,0,0,1.306,1.078l4.484.53c1.858.22,3.26,1.48,3.26,2.932Z" fill="#17499e"/>
    <path id="Path_12017" data-name="Path 12017" d="M32.635,7.366A25.3,25.3,0,0,0,7.365,32.634,25.036,25.036,0,0,0,12.5,47.9a25.452,25.452,0,0,0,12.99,8.976,1.563,1.563,0,0,0,.882-3,22.144,22.144,0,1,1,11.832.192,1.563,1.563,0,1,0,.782,3.026A25.272,25.272,0,0,0,32.635,7.366" transform="translate(7.365 7.366)" fill="#17499e"/>
    <path id="Path_12018" data-name="Path 12018" d="M33.019,31.992l-10.676-8.11V16.9a1.562,1.562,0,0,0-3.124,0v7.754a1.565,1.565,0,0,0,.616,1.244L31.129,34.48a1.562,1.562,0,0,0,1.89-2.488" transform="translate(19.219 15.342)" fill="#17499e"/>
    <path id="Path_12019" data-name="Path 12019" d="M22.344,13.595a1.563,1.563,0,1,1-1.562-1.562,1.563,1.563,0,0,1,1.562,1.562" transform="translate(19.218 12.033)" fill="#17499e"/>
    <path id="Path_12020" data-name="Path 12020" d="M22.06,32.634A1.563,1.563,0,1,1,20.5,31.072a1.563,1.563,0,0,1,1.562,1.562" transform="translate(18.934 31.072)" fill="#17499e"/>
  </g>
</svg>
