<svg id="Group_12644" data-name="Group 12644" xmlns="http://www.w3.org/2000/svg" xmlns:xlink="http://www.w3.org/1999/xlink" width="80" height="59.815" viewBox="0 0 80 59.815">
  <defs>
    <clipPath id="clip-path">
      <rect id="Rectangle_649" data-name="Rectangle 649" width="80" height="59.815" fill="none"/>
    </clipPath>
  </defs>
  <g id="Group_2564" data-name="Group 2564" clip-path="url(#clip-path)">
    <path id="Path_12000" data-name="Path 12000" d="M17.279,19.055a1.563,1.563,0,1,1-1.563-1.563,1.563,1.563,0,0,1,1.563,1.563" transform="translate(7.012 8.665)" fill="#17499e"/>
    <path id="Path_12001" data-name="Path 12001" d="M23.246,22.538a1.563,1.563,0,1,1-1.563-1.563,1.563,1.563,0,0,1,1.563,1.563" transform="translate(9.968 10.391)" fill="#17499e"/>
    <path id="Path_12002" data-name="Path 12002" d="M29.19,16.061A1.563,1.563,0,1,1,27.628,14.5a1.563,1.563,0,0,1,1.563,1.563" transform="translate(12.912 7.182)" fill="#17499e"/>
    <path id="Path_12003" data-name="Path 12003" d="M35.017,18.638a1.563,1.563,0,1,1-1.563-1.563,1.563,1.563,0,0,1,1.563,1.563" transform="translate(15.799 8.459)" fill="#17499e"/>
    <path id="Path_12004" data-name="Path 12004" d="M40.776,11.259A1.563,1.563,0,1,1,39.214,9.7a1.563,1.563,0,0,1,1.563,1.563" transform="translate(18.652 4.803)" fill="#17499e"/>
    <path id="Path_12005" data-name="Path 12005" d="M78.439,46.894H46.8a1.562,1.562,0,0,0-1.561,1.563A2.64,2.64,0,0,1,42.6,51.093H37.364a2.64,2.64,0,0,1-2.636-2.636,1.563,1.563,0,0,0-1.563-1.563H8.569V6.418a3.3,3.3,0,0,1,3.293-3.294H68.139a3.3,3.3,0,0,1,3.294,3.294V36.5a1.562,1.562,0,1,0,3.124,0V6.418A6.425,6.425,0,0,0,68.139,0H11.861A6.426,6.426,0,0,0,5.443,6.418V46.894H1.563A1.563,1.563,0,0,0,0,48.456v2.455a8.914,8.914,0,0,0,8.9,8.9H71.1a8.914,8.914,0,0,0,8.9-8.9V48.456a1.563,1.563,0,0,0-1.563-1.563m-1.563,4.018A5.786,5.786,0,0,1,71.1,56.69H8.9a5.785,5.785,0,0,1-5.778-5.778v-.893H31.817a5.774,5.774,0,0,0,5.546,4.2H42.6a5.771,5.771,0,0,0,5.546-4.2H76.876Z" fill="#17499e"/>
    <path id="Path_12006" data-name="Path 12006" d="M62.489,4.457H9.84A1.563,1.563,0,0,0,8.277,6.02V39.678A1.563,1.563,0,0,0,9.84,41.24H62.489a1.563,1.563,0,0,0,1.563-1.563V6.02a1.563,1.563,0,0,0-1.563-1.563M60.926,38.115h-5.6V19.39a1.563,1.563,0,1,0-3.125,0V38.115H46.544V31.163a1.563,1.563,0,1,0-3.125,0v6.952h-5.66V27.553a1.563,1.563,0,0,0-3.125,0V38.115H28.975V36.606a1.562,1.562,0,0,0-3.124,0v1.509h-5.66v-6.2a1.563,1.563,0,0,0-3.125,0v6.2H11.4V7.582H60.926Z" transform="translate(4.1 2.208)" fill="#17499e"/>
    <path id="Path_12007" data-name="Path 12007" d="M50.771,29.008a1.563,1.563,0,1,1-1.564-1.561,1.563,1.563,0,0,1,1.564,1.561" transform="translate(23.603 13.597)" fill="#17499e"/>
  </g>
</svg>
