<svg xmlns="http://www.w3.org/2000/svg" xmlns:xlink="http://www.w3.org/1999/xlink" width="37.544" height="50" viewBox="0 0 37.544 50">
  <defs>
    <clipPath id="clip-path">
      <rect id="Rectangle_4293" data-name="Rectangle 4293" width="37.544" height="50" fill="#17499e"/>
    </clipPath>
  </defs>
  <g id="Group_12608" data-name="Group 12608" transform="translate(-5 1.5)">
    <g id="Group_12636" data-name="Group 12636" transform="translate(5 -1.5)">
      <g id="Group_12584" data-name="Group 12584" clip-path="url(#clip-path)">
        <path id="Path_16411" data-name="Path 16411" d="M16.787,54.049a24.714,24.714,0,0,1-2.925-.868A8.844,8.844,0,0,1,9.478,49.1c-2.307-4.351-4.563-8.728-6.839-13.1Q1.422,33.67.209,31.333c-.338-.653-.282-.933.275-1.4A8.879,8.879,0,0,1,3.1,28.173a5.431,5.431,0,0,1,5.811,1.439c.436.473.838.979,1.348,1.58V30.5q.009-9.106.015-18.212a4.287,4.287,0,0,1,2.137-4.011,3.977,3.977,0,0,1,5.842,2.853,6.889,6.889,0,0,1,.1,1.212c.009,3.044.006,6.087.007,9.13,0,.032.009.064.025.169a3.954,3.954,0,0,1,3.3-.589,4.049,4.049,0,0,1,2.6,2.127,3.912,3.912,0,0,1,3.69-1.059,4.158,4.158,0,0,1,2.878,2.6,4.049,4.049,0,0,1,6.649,2.755c.021.243.029.488.029.732.01,5.143.033,10.286.02,15.428a10.182,10.182,0,0,1-4.727,9,8.387,8.387,0,0,1-3.686,1.318,2.418,2.418,0,0,0-.327.084ZM1.923,30.983c1.091,2.1,2.17,4.174,3.251,6.248,1.915,3.675,3.783,7.376,5.764,11.015a7.4,7.4,0,0,0,6.687,4.112c3.481.063,6.964.03,10.447.007A7.085,7.085,0,0,0,32.5,50.8a8.336,8.336,0,0,0,3.317-6.718c.052-4.816.018-9.634.019-14.451,0-.6.013-1.2-.009-1.806a2.447,2.447,0,0,0-1.788-2.3,2.418,2.418,0,0,0-2.975,2.435c-.021.7.008,1.4-.016,2.1a.782.782,0,0,1-.784.775.817.817,0,0,1-.87-.745,3.623,3.623,0,0,1-.01-.439c0-1.172.021-2.344-.008-3.515a2.344,2.344,0,0,0-2.96-2.349,2.435,2.435,0,0,0-1.633,2.27c-.033,1.269-.012,2.539-.018,3.808a2.831,2.831,0,0,1-.025.486.825.825,0,0,1-.847.722.8.8,0,0,1-.8-.722,3.378,3.378,0,0,1-.025-.535c0-1.562.013-3.125-.01-4.687a2.465,2.465,0,0,0-1.7-2.418,2.333,2.333,0,0,0-3,2.285c-.021,1.79-.006,3.58-.007,5.37,0,.841-.265,1.229-.839,1.23s-.836-.376-.836-1.223q0-8.983,0-17.966a5.1,5.1,0,0,0-.085-1.018,2.422,2.422,0,0,0-2.167-1.942,2.335,2.335,0,0,0-2.306,1.688,4.377,4.377,0,0,0-.155,1.25q-.024,10.472-.024,20.944c0,.457-.077.85-.559,1.026s-.8-.089-1.083-.437q-1.125-1.381-2.263-2.752c-1.74-2.1-4.162-2.183-6.1-.181" transform="translate(0 -4.049)" fill="#17499e"/>
        <path id="Path_16412" data-name="Path 16412" d="M22.5,0c.408.1.819.18,1.222.294a7.489,7.489,0,0,1,5.426,6.98c.007.664-.286,1.033-.823,1.037-.519,0-.821-.343-.849-.974a5.83,5.83,0,0,0-11.585-.745c-.044.256-.04.519-.061.778-.05.623-.372.962-.891.94a.851.851,0,0,1-.8-1.021,7.327,7.327,0,0,1,4.424-6.6A15.554,15.554,0,0,1,20.839,0Z" transform="translate(-7.372)" fill="#17499e"/>
      </g>
    </g>
  </g>
</svg>
