<svg xmlns="http://www.w3.org/2000/svg" xmlns:xlink="http://www.w3.org/1999/xlink" width="80" height="74.288" viewBox="0 0 80 74.288">
  <defs>
    <clipPath id="clip-path">
      <rect id="Rectangle_872" data-name="Rectangle 872" width="80" height="74.288" fill="#17499e"/>
    </clipPath>
  </defs>
  <g id="Group_3115" data-name="Group 3115" transform="translate(0 0)">
    <g id="Group_3114" data-name="Group 3114" transform="translate(0 0)" clip-path="url(#clip-path)">
      <path id="Path_12803" data-name="Path 12803" d="M78.538,49.537a6.2,6.2,0,1,1,0-12.392,1.325,1.325,0,1,0,0-2.65,8.864,8.864,0,0,0-8.6,6.759l-5.931-1.443A30.431,30.431,0,1,0,15.582,53.927L8.427,59.858a8.866,8.866,0,0,0-7.043-3.5,1.327,1.327,0,0,0,0,2.653,6.2,6.2,0,1,1,0,12.392,1.325,1.325,0,1,0,0,2.65,8.867,8.867,0,0,0,8.849-8.846,8.917,8.917,0,0,0-.514-2.984l8.035-6.644A30.221,30.221,0,0,0,50.21,56.875a1.321,1.321,0,1,0-1.328-2.283,27.554,27.554,0,0,1-28.992-.746l12.078-9.991a8.845,8.845,0,0,0,13.452-5.817l6.628,1.61a19.491,19.491,0,0,1-3.53,4.753,19.284,19.284,0,0,1-13.635,5.617,1.325,1.325,0,1,0,0,2.65A21.924,21.924,0,0,0,50.39,46.288a22.145,22.145,0,0,0,4.308-5.98l5.8,1.41a27.607,27.607,0,0,1-4.537,7.122,1.311,1.311,0,0,0,.065,1.806L73.968,68.59l-1.757,1.757L53.986,52.635a1.323,1.323,0,0,0-1.839,1.9L71.3,73.16a1.368,1.368,0,0,0,.929.383,1.4,1.4,0,0,0,.942-.383l3.612-3.612a1.329,1.329,0,0,0,0-1.871L58.726,49.6a30.179,30.179,0,0,0,4.354-7.289l6.628,1.606a8.857,8.857,0,0,0,8.83,8.267,1.325,1.325,0,0,0,0-2.65M36.722,42.562A6.236,6.236,0,0,1,32.845,41.2c-.049-.049-.1-.085-.147-.134a6.19,6.19,0,1,1,4.024,1.492m8.781-7.24a8.861,8.861,0,0,0-8.781-7.786,8.718,8.718,0,0,0-4.986,1.557l-10.155-12a1.535,1.535,0,0,0-.281-.249A19.38,19.38,0,0,1,53.142,37.177ZM55.71,37.789a22.021,22.021,0,1,0-42.843-7.171,1.328,1.328,0,0,0,1.325,1.325H26.518a1.325,1.325,0,1,0,0-2.65H15.566a19.3,19.3,0,0,1,3.994-10.5L29.8,30.883a8.8,8.8,0,0,0,.147,11.165L17.672,52.2a27.787,27.787,0,1,1,43.752-13.02Z" transform="translate(0.134 0.231)" fill="#17499e"/>
      <path id="Path_12805" data-name="Path 12805" d="M3.856,15.177A8.882,8.882,0,0,1,3.689,2.654,8.9,8.9,0,0,1,16.215,2.5,1.323,1.323,0,0,1,14.36,4.391,6.2,6.2,0,0,0,5.6,4.509a6.115,6.115,0,0,0-1.74,4.407,6.145,6.145,0,0,0,1.855,4.358,1.323,1.323,0,0,1-.926,2.267,1.34,1.34,0,0,1-.929-.363" transform="translate(2.7 -0.002)" fill="#17499e"/>
    </g>
  </g>
</svg>
