<svg id="Group_12606" data-name="Group 12606" xmlns="http://www.w3.org/2000/svg" xmlns:xlink="http://www.w3.org/1999/xlink" width="80" height="86.994" viewBox="0 0 80 86.994">
  <defs>
    <clipPath id="clip-path">
      <rect id="Rectangle_874" data-name="Rectangle 874" width="80" height="86.994" fill="#17499e"/>
    </clipPath>
  </defs>
  <g id="Group_3118" data-name="Group 3118" clip-path="url(#clip-path)">
    <path id="Path_12807" data-name="Path 12807" d="M40.5,86.993c-.95-.122-1.893-.251-2.843-.362-1.479-.177-1.8-.543-1.709-2.029.1-1.663.2-3.334.324-5,.031-.438-.08-.672-.55-.769A35.21,35.21,0,0,1,23.75,73.843a2.835,2.835,0,0,0-.3-.132c-1.207,1.364-2.425,2.732-3.636,4.106-1.107,1.242-1.4,1.27-2.742.247a43.8,43.8,0,0,1-8.191-8.212c-.971-1.263-.933-1.59.292-2.669,1.378-1.214,2.753-2.436,4.148-3.678a36.1,36.1,0,0,1-5.31-12.8c-1.924.1-3.838.191-5.745.313C.926,51.11.588,50.817.4,49.464a45.123,45.123,0,0,1,.014-12.1c.15-1.114.578-1.479,1.681-1.406,1.942.125,3.89.226,5.905.341a36.185,36.185,0,0,1,5.328-12.8c-1.468-1.3-2.9-2.575-4.339-3.852-.967-.86-1.02-1.284-.258-2.293a43.319,43.319,0,0,1,8.616-8.623c.992-.748,1.42-.713,2.237.2,1.281,1.43,2.554,2.874,3.9,4.395A36.709,36.709,0,0,1,36.51,7.985c-.146-2-.3-3.946-.431-5.884C36,.942,36.3.556,37.453.406a45.175,45.175,0,0,1,12.1,0c1.162.157,1.468.612,1.364,1.792-.2,2.2-.365,4.4-.553,6.594-.08.9-.6,1.423-1.294,1.347-.717-.077-1.131-.651-1.065-1.559.122-1.667.278-3.327.418-4.99.024-.275.042-.55.063-.894a38.2,38.2,0,0,0-9.983,0c.129,1.615.244,3.16.372,4.7.024.31.066.619.077.929.063,1.413-.115,1.615-1.552,1.89a34.157,34.157,0,0,0-12.913,5.307c-1.232.839-1.5.807-2.5-.3-1.221-1.371-2.446-2.746-3.716-4.183a39.881,39.881,0,0,0-7.245,7.224c1.444,1.284,2.85,2.54,4.266,3.789.96.86,1.023,1.27.313,2.318a33,33,0,0,0-5.376,13.063c-.177,1.02-.564,1.336-1.632,1.294-1.437-.063-2.878-.171-4.318-.254-.5-.031-1.009-.059-1.59-.094a44.64,44.64,0,0,0-.017,10.224c1.465-.08,2.892-.157,4.322-.237.536-.035,1.068-.084,1.611-.1,1.093-.024,1.444.278,1.639,1.381a32.282,32.282,0,0,0,3.462,9.869c.581,1.065,1.246,2.088,1.9,3.107.686,1.065.644,1.458-.324,2.314-1.392,1.239-2.787,2.485-4.252,3.786a40.293,40.293,0,0,0,7.224,7.238c1.281-1.441,2.533-2.85,3.793-4.256.912-1.02,1.239-1.068,2.37-.289A33.757,33.757,0,0,0,37.4,76.783c1.155.226,1.416.626,1.326,1.837-.132,1.851-.223,3.716-.341,5.662a37.157,37.157,0,0,0,10.21,0c-.111-2.039-.212-3.984-.334-5.926A1.27,1.27,0,0,1,49.1,76.87a1.189,1.189,0,0,1,1.521,1.152c.1.846.115,1.695.16,2.544.084,1.524.167,3.052.251,4.572a1.183,1.183,0,0,1-1.148,1.392c-1.145.15-2.29.31-3.435.463ZM47.628,42.33V41.182c0-6.57.017-13.136-.01-19.7a7.731,7.731,0,0,0-5.825-7.457,7.641,7.641,0,0,0-8.661,3.755,1.162,1.162,0,0,1-1.04.658A7.706,7.706,0,0,0,24.926,26.1c-.021.543-.212.682-.7.828A9.716,9.716,0,0,0,20.3,43.454c-.052.111-.063.174-.1.205a9.748,9.748,0,0,0,4.214,16.5.932.932,0,0,1,.48.692,7.785,7.785,0,0,0,7.231,7.722,1.157,1.157,0,0,1,1.02.682,7.371,7.371,0,0,0,6.417,3.95,7.692,7.692,0,0,0,8.059-7.8c.021-6.566.01-13.133.01-19.7v-.957c.226-.024.31-.042.393-.042,8.24,0,16.477,0,24.717-.021.539,0,.71.275.946.647a3.385,3.385,0,0,0,3.824,1.5A3.476,3.476,0,0,0,80,43.548a3.425,3.425,0,0,0-2.46-3.3,3.282,3.282,0,0,0-3.821,1.458,1.154,1.154,0,0,1-1.214.626q-11.969-.016-23.944-.007h-.929m-12.3,25.9c.72-.442,1.371-.891,2.07-1.246a1.414,1.414,0,0,1,.922-.021,3.419,3.419,0,0,0,2.144-6.49,3.348,3.348,0,0,0-4.332,1.907,4.925,4.925,0,0,0-.164,2.07c.045.442-.014.668-.376.884A5.371,5.371,0,0,1,27.306,61c-.028-.428.07-.689.585-.717a3.467,3.467,0,0,0,1.145-.275,4.89,4.89,0,0,1,3.65-.31c1.649.553,3.522-1.054,3.748-2.829a3.419,3.419,0,0,0-3.156-3.946,3.313,3.313,0,0,0-3.588,3.163c.059,1.18-.522,1.437-1.378,1.677-4.364,1.239-8.877-2.464-8.769-7.2a6.951,6.951,0,0,1,2.582-5.4,1.9,1.9,0,0,1,1.12-.452q10.742-.037,21.477-.021c.139,0,.275.017.473.028.021.226.063.445.063.658q0,9.938,0,19.866a5.368,5.368,0,0,1-4.6,5.543,5.261,5.261,0,0,1-5.328-2.547m-7.91-41.639a5.217,5.217,0,0,1,4.13-5.689,5.452,5.452,0,0,1,3.842.63.95.95,0,0,1,.574,1.26,3.121,3.121,0,0,0,1.267,3.445,3.22,3.22,0,0,0,3.595.3,3.261,3.261,0,0,0,1.872-3.177,3.435,3.435,0,0,0-4.277-3.174,1.675,1.675,0,0,1-1.047-.195c-.7-.358-1.354-.8-2.029-1.214a5.225,5.225,0,0,1,5.087-2.6,5.374,5.374,0,0,1,4.659,4.106,7.289,7.289,0,0,1,.164,1.427q.016,10.027.007,20.047c0,.139-.014.282-.024.56h-.8c-6.994,0-13.985.014-20.98-.021A2.332,2.332,0,0,1,22.09,41.8a7.17,7.17,0,0,1-2.237-7.673A7.378,7.378,0,0,1,26.2,29a6.148,6.148,0,0,1,3.424.786,11.137,11.137,0,0,0,.191,2.046,3.364,3.364,0,0,0,4.374,2.244A3.43,3.43,0,0,0,36.3,29.74a3.347,3.347,0,0,0-4.444-2.077A1.329,1.329,0,0,1,30.6,27.6a8.775,8.775,0,0,0-1.573-.612c-.508-.16-1.037-.251-1.611-.39m5.637,5.275a1.025,1.025,0,0,1-1.037-1.033,1.045,1.045,0,0,1,1.1-1.04,1.039,1.039,0,0,1-.066,2.074m44.527,11.8a.926.926,0,0,1-1.037.88.97.97,0,0,1-1.02-1.02,1.034,1.034,0,1,1,2.057.139M33.131,55.334a.934.934,0,0,1,.943,1A.979.979,0,0,1,33.1,57.4a1.09,1.09,0,0,1-1.1-1.061,1.061,1.061,0,0,1,1.124-1m6.093-30.81a.936.936,0,0,1-.967-1.016.985.985,0,0,1,.988-1.054,1.082,1.082,0,0,1,1.075,1.082,1.014,1.014,0,0,1-1.1.988m-.971,39.064a.913.913,0,0,1,.988-.919.979.979,0,0,1,1.075.964,1.085,1.085,0,0,1-1.051,1.1,1.07,1.07,0,0,1-1.013-1.148m29.1,5.373c-.143.195-.247.331-.341.47a3.424,3.424,0,1,0,6.215,1.347,3.471,3.471,0,0,0-3.16-2.843,1.337,1.337,0,0,1-.853-.5c-1.465-2.046-2.892-4.117-4.318-6.187a1.687,1.687,0,0,0-1.451-.866c-4.158,0-8.313,0-12.472.01-.86,0-1.392.473-1.42,1.155s.522,1.2,1.413,1.246c.226.017.452.007.679.007,3.563,0,7.127-.01,10.69.021a1.492,1.492,0,0,1,1.051.473c1.347,1.851,2.627,3.748,3.967,5.672M69.794,72.4a.983.983,0,0,1-.96-1.047.94.94,0,0,1,1-1.02A1.011,1.011,0,0,1,70.894,71.4a1.052,1.052,0,0,1-1.1,1M57.2,26.341c2.008,0,4.016-.024,6.02.014a1.82,1.82,0,0,0,1.7-.877c1.162-1.736,2.4-3.424,3.56-5.164.536-.8,1.027-1.552,2.171-1.294a1.116,1.116,0,0,0,.491-.111,3.424,3.424,0,1,0-4.05-1.74.917.917,0,0,1-.077,1.12c-1.2,1.681-2.38,3.368-3.532,5.084a1.218,1.218,0,0,1-1.169.612c-3.73-.024-7.468-.017-11.2-.014-.981,0-1.549.435-1.555,1.169s.567,1.2,1.531,1.2q3.048.005,6.11,0m13.947-10.61a.95.95,0,0,1-1.013.94.979.979,0,0,1-1.051-.992,1.034,1.034,0,1,1,2.063.052M61.964,34.991c-2.519,0-5.039-.007-7.558,0-.957,0-1.517.619-1.308,1.434.2.766.793.94,1.507.936,4.447,0,8.894-.129,13.328.049,2.269.094,3.988-.435,5.328-2.293.609-.849,1.326-1.757,2.634-1.19.021.007.056-.007.084-.01a3.44,3.44,0,0,0-.3-6.873c-1.945.1-3.626,1.785-3.153,3.7.369,1.5-.414,2.081-1.176,2.885a5.309,5.309,0,0,1-.839.839,2.362,2.362,0,0,1-1.162.494c-2.46.045-4.924.024-7.384.024m14.911-4.433a.977.977,0,0,1-1.065.94.939.939,0,0,1-1-1.016,1.006,1.006,0,0,1,1.086-1.04,1.043,1.043,0,0,1,.981,1.117M62.413,49.718q-3.226,0-6.451,0a6.97,6.97,0,0,0-1.931.094,1.44,1.44,0,0,0-.891,1,1.736,1.736,0,0,0,.71,1.159c.233.195.7.146,1.065.146,4.124.01,8.261.118,12.381-.045a4.983,4.983,0,0,1,4.781,2.074c.372.522.616.828.3,1.517a3.255,3.255,0,0,0,1.2,3.97,3.4,3.4,0,0,0,4.1-.1,3.437,3.437,0,0,0,1.051-3.97,3.5,3.5,0,0,0-3.511-2.15,1.222,1.222,0,0,1-.853-.306c-.853-.825-1.684-1.674-2.467-2.565a2.334,2.334,0,0,0-1.931-.832c-2.519.031-5.032.01-7.548.01m13.157,6.09a1.04,1.04,0,0,1,.017,2.077,1.087,1.087,0,0,1-1.1-1.065,1.1,1.1,0,0,1,1.079-1.013" transform="translate(0 0.001)" fill="#17499e"/>
  </g>
</svg>
