<svg id="Group_2559" data-name="Group 2559" xmlns="http://www.w3.org/2000/svg" xmlns:xlink="http://www.w3.org/1999/xlink" width="80" height="68.097" viewBox="0 0 80 68.097">
  <defs>
    <clipPath id="clip-path">
      <path id="Path_11997" data-name="Path 11997" d="M58.221,44.6c.051-.111.1-.23.157-.337.878-1.524,1.757-3.047,2.673-4.634,1.689.974,3.338,1.927,4.993,2.884a7.1,7.1,0,0,1-5.46,2.622,5.149,5.149,0,0,1-2.363-.535m-26.81-2.058,2.467-4.191c1.52.872,3.017,1.731,4.593,2.637-1.748,2.663-2.862,5.71-5.5,7.7A11.323,11.323,0,0,1,26.1,51.076c-3.25.031-6.5.007-9.811.007v-5.3h.88c2.865,0,5.729-.012,8.592.005h.051a6.111,6.111,0,0,0,5.6-3.24m-22.14-5.2h4.746V57.491H9.271ZM2.232,31.071A25.293,25.293,0,0,1,4.9,31.09a2.577,2.577,0,0,1,2.123,2.462c.015.208.007.415.007.625q0,14.254,0,28.509c0,2.186-1.006,3.187-3.2,3.19-.514,0-1.032,0-1.6,0ZM50.443,45.349q-5.919-3.4-11.82-6.818Q27.617,32.172,16.61,25.819a3.856,3.856,0,0,1-2.148-3.138,3.394,3.394,0,0,1,.24-1.745c1.067-2.045,2.234-4.035,3.4-6.1l41.045,23.7c-1.178,2-2.247,4-3.487,5.877a3.472,3.472,0,0,1-2.964,1.566,4.55,4.55,0,0,1-2.251-.626M19.232,12.932c.644-1.118,1.258-2.191,1.876-3.264,1.027-1.777,2.045-3.561,3.085-5.334a3.868,3.868,0,0,1,5.563-1.5q23.649,13.639,47.288,27.3c.089.049.169.114.332.225-2.322,4.025-4.639,8.039-6.987,12.106q-25.6-14.78-51.158-29.535M27.465,0a6.2,6.2,0,0,0-5.3,3.415q-4.466,7.73-8.927,15.466c-2,3.464-1.059,6.939,2.4,8.927q6.116,3.524,12.228,7.055c1.347.778,2.692,1.563,4.093,2.377-.855,1.457-1.673,2.87-2.5,4.275a3.99,3.99,0,0,1-3.681,2.072q-2.648-.008-5.3,0-1.762,0-3.529,0c-.223,0-.446-.029-.647-.044a1.539,1.539,0,0,1-.044-.223q-.005-3.243-.005-6.483c0-1.549-.252-1.8-1.818-1.8H9.213c0-.514,0-.952,0-1.387a4.711,4.711,0,0,0-4.176-4.763,28.576,28.576,0,0,0-3.9-.09C.361,28.807,0,29.261,0,30.078q0,6.29,0,12.577V54.212Q0,60.5,0,66.789a1.13,1.13,0,0,0,1.282,1.3c.262.005.523.007.785.009H2.68l1.261-.005a4.876,4.876,0,0,0,5.272-5.237c0-1.006,0-2.012,0-3.068,1.9,0,3.693.005,5.487,0,1.193,0,1.542-.352,1.544-1.524,0-1.633,0-3.265,0-4.98.361,0,.642,0,.921,0H19.82c2.213,0,4.426,0,6.639-.024a12.932,12.932,0,0,0,7.165-2.312,13.921,13.921,0,0,0,4.338-4.736c.785-1.365,1.6-2.717,2.411-4.1.3.167.528.289.752.419,2.794,1.61,5.569,3.25,8.381,4.825a5.879,5.879,0,0,0,6.8-.456,1.041,1.041,0,0,1,1.108-.167,9.009,9.009,0,0,0,9.833-2.2c.276-.264.528-.555.8-.844.584.337,1.124.645,1.663.957,1.275.732,1.6.642,2.349-.649q3.968-6.849,7.94-13.7v-.781a8.874,8.874,0,0,0-1.021-.809Q55.015,14.851,31.035,1.016A7.069,7.069,0,0,0,27.584,0Z" fill="none"/>
    </clipPath>
    <clipPath id="clip-path-2">
      <path id="Path_11998" data-name="Path 11998" d="M39.835,20.49a1.189,1.189,0,1,1,.005,0h-.005m-2.474-1.2a2.474,2.474,0,1,0,4.948.069,2.454,2.454,0,0,0-2.435-2.506h-.042a2.472,2.472,0,0,0-2.471,2.437" transform="translate(-37.361 -16.853)" fill="none"/>
    </clipPath>
    <clipPath id="clip-path-3">
      <path id="Path_11999" data-name="Path 11999" d="M10.5,12.311c-.139.348.084.608.388.783q2.518,1.455,5.038,2.9c.428.245.8.167.993-.183a.678.678,0,0,0-.36-.949q-2.514-1.46-5.035-2.9a4.028,4.028,0,0,0-.527-.2c-.162.171-.409.326-.5.546" transform="translate(-10.459 -11.765)" fill="#17499e"/>
    </clipPath>
  </defs>
  <g id="Group_2554" data-name="Group 2554">
    <g id="Group_2553" data-name="Group 2553" clip-path="url(#clip-path)">
      <rect id="Rectangle_646" data-name="Rectangle 646" width="80" height="68.097" fill="#17499e"/>
    </g>
  </g>
  <g id="Group_2556" data-name="Group 2556" transform="translate(70.369 30.366)">
    <g id="Group_2555" data-name="Group 2555" clip-path="url(#clip-path-2)">
      <rect id="Rectangle_647" data-name="Rectangle 647" width="4.969" height="4.985" transform="translate(-0.012 0)" fill="#17499e"/>
    </g>
  </g>
  <g id="Group_2558" data-name="Group 2558" transform="translate(18.994 21.044)">
    <g id="Group_2557" data-name="Group 2557" clip-path="url(#clip-path-3)">
      <rect id="Rectangle_648" data-name="Rectangle 648" width="6.746" height="4.478" transform="translate(-0.097 0)" fill="#17499e"/>
    </g>
  </g>
</svg>
