<svg xmlns="http://www.w3.org/2000/svg" xmlns:xlink="http://www.w3.org/1999/xlink" width="90" height="81.698" viewBox="0 0 90 81.698">
  <defs>
    <clipPath id="clip-path">
      <rect id="Rectangle_873" data-name="Rectangle 873" width="90" height="81.698" fill="#17499e"/>
    </clipPath>
  </defs>
  <g id="Group_3117" data-name="Group 3117" transform="translate(0 0)">
    <g id="Group_3116" data-name="Group 3116" transform="translate(0 0)" clip-path="url(#clip-path)">
      <path id="Path_12806" data-name="Path 12806" d="M90,81.673q-29.016,0-58.027,0a5.714,5.714,0,0,0-.647,0c-.924.1-1.221-.346-1.258-1.221-.041-.944.46-1.066,1.209-1.058,1.559.02,3.117.008,4.92.008.081-1.408.256-2.735.2-4.045-.049-1.026.1-2.43-1.819-1.937-.305.081-.851-.777-1.286-1.2.5-.4.993-1.14,1.49-1.14,2.637-.012,5.279.118,7.912.285,1.388.09,2.763.452,4.155.5a2.059,2.059,0,0,0,2.263-1.872c.366-3.2.594-6.426.883-9.739a13.508,13.508,0,0,1-1.652-.016c-.757-.077-1.717-.269-1.424-1.27.155-.521.969-.981,1.583-1.192a6.185,6.185,0,0,1,2.076.147c-.419-1.819-.757-3.394-1.152-4.957-.48-1.909-.37-2.076,1.559-2.088.867,0,1.73.008,2.592,0,2.658-.012,3.94-2.067,2.735-4.452-1.542-3.061-3.146-6.088-4.684-9.149a5.112,5.112,0,0,1-.537-1.811c-.248-2.89-.419-5.783-.647-8.673-.114-1.429-.574-2.308-2.377-2.206-3.122.183-6.263.053-9.4.053-1.8,0-2.1-.33-2.084-2.194.028-4.318.085-8.636,0-12.954a2.156,2.156,0,0,0-1.213-1.571A42.013,42.013,0,0,0,28.11,5.95,29.433,29.433,0,0,0,9.719,9.267c-1.327.712-2.084,1.485-1.884,3.13a23.076,23.076,0,0,1,0,4.53c-.081,1.034.232,1.315,1.233,1.3,4.054-.045,8.107-.008,12.157-.024,1.848-.008,2.149.326,2.1,2.129-.061,2.051-.1,4.106.012,6.149a2.207,2.207,0,0,0,1.022,1.583,4.665,4.665,0,0,1-.033,8.274,2.226,2.226,0,0,0-.952,1.587c-.1,2.422-.085,4.855,0,7.281.045,1.319-.407,1.856-1.758,1.815C19.413,46.95,17.2,47,14.79,47V79.463c0,2.059-.142,2.21-2.21,2.214H0V79.41c1.494,0,2.991-.02,4.485.008.818.016,1.1-.248,1.1-1.131q-.055-33.93-.012-67.864a2.561,2.561,0,0,1,.965-1.86A29.531,29.531,0,0,1,25.9,3.614c3.52.37,7,1.152,10.716,1.783,0-.7.012-1.831,0-2.959-.037-2.3.061-2.4,2.3-2.4C54.413.037,69.92.061,85.426,0c1.624-.008,2.01.57,2,2.051q-.079,10.286,0,20.573c.016,1.571-.574,2.165-2.1,2.035a23.8,23.8,0,0,1-2.588-.037c-2.247-.44-3.248.781-4.049,2.609-.973,2.206-2.084,4.351-3.227,6.475-.289.533-.96,1.249-1.4,1.209-.488-.041-1.042-.777-1.335-1.335-1.372-2.6-2.645-5.262-4-7.875-.216-.415-.676-1-1.03-1.005-5.067-.065-10.138-.045-15.026-.045.232,3.651.44,7.163.692,10.671a3.816,3.816,0,0,0,.5,1.331c1.49,2.9,2.837,5.881,4.534,8.652,2.12,3.459-.842,8.473-4.876,7.859a11.6,11.6,0,0,0-1.644-.012,14.753,14.753,0,0,0,.606,2.735c1.034,2.373.509,4.55-.232,6.911a24.588,24.588,0,0,0-.8,6.463c-.126,3.415-2.3,5.23-5.653,4.725-2.015-.309-4.082-.281-6.125-.423-.973-.065-1.144.346-1.042,1.27a14.693,14.693,0,0,1-.041,3.382c-.11.887.167,1.213,1,1.192.216,0,.431,0,.651,0q24.877,0,49.758,0ZM74.132,31.256A34.906,34.906,0,0,0,76.4,26.7c1.127-3.508,3.244-5.132,7-4.326,1.282.277,1.783-.285,1.762-1.677-.073-5.449-.028-10.9-.028-16.348V2.434H39.07c0,6.068.114,12-.065,17.923-.053,1.844.509,2.076,2.1,2.063,8.583-.065,17.167.057,25.75-.09,2.153-.037,3.321.545,4.1,2.576.79,2.059,1.97,3.972,3.183,6.349M7.851,50.087h.041q0,13.357,0,26.722c0,2.609-.012,2.491,2.645,2.641,1.7.1,2.043-.464,2.031-2.076-.073-10.256,0-20.512-.073-30.768-.008-1.534.464-1.99,1.941-1.892,1.779.118,3.565,0,5.348.033,1.026.016,1.457-.354,1.4-1.437a36.428,36.428,0,0,1,.037-4.371A3,3,0,0,0,19.6,35.8a4.283,4.283,0,0,1-.228-7.09A3.775,3.775,0,0,0,21.2,24.7a23.165,23.165,0,0,1-.053-2.91c.057-1-.305-1.319-1.306-1.306q-5.348.067-10.7-.016c-.965-.012-1.327.236-1.323,1.274.037,9.446.024,18.892.024,28.342m16.67-17.834a2.447,2.447,0,0,0-2.149-2.409,2.464,2.464,0,0,0-2.4,2.336,2.278,2.278,0,0,0,2.242,2.263,2.221,2.221,0,0,0,2.3-2.19M78.69,58.837c.216-4.945-2.7-10.72-5.918-13.984-.627-.635-1.335-1.323-2.149-.484-.737.753-.106,1.453.48,2.055A18.186,18.186,0,0,1,76.11,56.566a18.9,18.9,0,0,1-4.924,16.54c-.59.639-1.351,1.3-.452,2.141.79.737,1.461.13,2.043-.5,3.907-4.216,5.913-9.177,5.913-15.913m-6.85.757a15.832,15.832,0,0,0-3.895-9.853c-.647-.68-1.4-1.237-2.2-.521-.867.769-.094,1.433.46,2.027a12.218,12.218,0,0,1,3.345,8.917,12.716,12.716,0,0,1-3.467,8.392c-.334.37-.228,1.14-.326,1.726a19.173,19.173,0,0,0,1.937-.212c.22-.045.407-.342.574-.549a15.884,15.884,0,0,0,3.573-9.926M42.627,33.739a4.963,4.963,0,0,0,1.583-.033,10.513,10.513,0,0,0,1.705-1.05c-.59-.4-1.164-1.1-1.774-1.135a63.6,63.6,0,0,0-7.1,0c-.619.037-1.673.7-1.705,1.127-.073.993.863,1.1,1.746,1.1,3.248-.008,3.248.012,3.264,3.211,0,.057-.024.122,0,.159q.531.867,1.066,1.722A6.079,6.079,0,0,0,42.574,37a17.039,17.039,0,0,0,.053-3.264m22.8,26.153c-.9-1.917-1.652-3.756-2.641-5.462-.212-.366-1.266-.248-1.933-.35.081.59-.041,1.335.273,1.746,1.97,2.592,2.055,5.283.028,7.838-.521.655-1.091,1.3-.1,1.783a1.937,1.937,0,0,0,1.84-.378c.932-1.563,1.628-3.264,2.531-5.177m8.062-48.28c.008,3.736-.8,5.185-3.321,5.979A4.539,4.539,0,0,1,64.4,13.63c-.073-1.392-.057-2.8-.008-4.2a4.348,4.348,0,0,1,4.652-4.265,4.442,4.442,0,0,1,4.436,4.347c.02.7,0,1.4,0,2.1M71.2,11.379A16.191,16.191,0,0,0,71.189,9.6a2.148,2.148,0,0,0-2.173-2.129,2.247,2.247,0,0,0-2.348,2.145c-.061,1.237-.061,2.483,0,3.72a2.261,2.261,0,0,0,4.522-.016c.061-.643.012-1.294.012-1.941m-18.461.57c.1,1.453.163,3.329-1.567,4.7a4.228,4.228,0,0,1-4.652.81,4.383,4.383,0,0,1-2.877-4.106c-.012-1.294-.033-2.592.008-3.887a4.5,4.5,0,0,1,4.672-4.31,4.387,4.387,0,0,1,4.412,4.391c.016.647,0,1.3,0,2.4m-2.287-.541c0-.541.02-1.083,0-1.62a2.179,2.179,0,0,0-2.312-2.324A2.265,2.265,0,0,0,45.92,9.739q-.061,1.7,0,3.4c.049,1.331,1.18,2.56,2.316,2.4a2.336,2.336,0,0,0,2.214-2.352c.028-.594,0-1.188,0-1.783m7.012.057h.008c0,1.506.037,3.012-.012,4.513-.028.875.041,1.827,1.054,1.754.48-.033,1.241-1.026,1.266-1.608.126-3.113.13-6.239,0-9.352-.024-.594-.838-1.156-1.286-1.73-.342.582-.928,1.144-.981,1.75-.142,1.547-.049,3.113-.049,4.672m23,0A41.427,41.427,0,0,0,80.411,6.8c-.073-.623-.785-1.172-1.209-1.754-.37.582-1.038,1.152-1.058,1.75-.122,3.1-.151,6.211-.037,9.312.02.59.834,1.148,1.282,1.722.35-.513.956-1,1-1.538.134-1.6.049-3.215.049-4.827Z" transform="translate(0 0.002)" fill="#17499e"/>
    </g>
  </g>
</svg>
