<svg xmlns="http://www.w3.org/2000/svg" xmlns:xlink="http://www.w3.org/1999/xlink" width="46.55" height="80" viewBox="0 0 46.55 80">
  <defs>
    <clipPath id="clip-path">
      <rect id="Rectangle_4289" data-name="Rectangle 4289" width="46.55" height="80" fill="none"/>
    </clipPath>
  </defs>
  <g id="Group_12578" data-name="Group 12578" transform="translate(0 0)">
    <g id="Group_12577" data-name="Group 12577" transform="translate(0 0)" clip-path="url(#clip-path)">
      <path id="Path_16408" data-name="Path 16408" d="M38.117,6.363A6.376,6.376,0,0,0,33.6.285C33.335.2,33.072.1,32.809,0H5.307A3.891,3.891,0,0,1,4.9.171a6.442,6.442,0,0,0-4.89,6.36C0,9.029,0,43.217,0,45.717l.006.029c0,3.708,0,7.419,0,11.13a6.262,6.262,0,0,0,5.723,6.23c2.307.165,4.633.067,6.947.1,1.676.022,1.264-.282,1.829,1.28a16.17,16.17,0,0,0,8.015,9.263,1.4,1.4,0,0,1,.589.811c.393,1.426.723,2.868,1.09,4.3.228.875.792,1.277,1.5,1.1.688-.177,1-.833.783-1.7-.33-1.334-.748-2.653-.976-4a3.529,3.529,0,0,0-2.142-2.792A13.19,13.19,0,0,1,16.6,63.2c1.946,0,3.765,0,5.581,0,1.1,0,1.689-.412,1.7-1.176s-.6-1.207-1.667-1.217h-.469c-4.947,0-9.891.006-14.841-.006a5.966,5.966,0,0,1-1.467-.124,4.1,4.1,0,0,1-3.093-4.319q0-18.382,0-36.774l0-.013c0-6.576,0-12.046.006-12.984a3.9,3.9,0,0,1,2.865-4,34.346,34.346,0,0,1,4.652-.333c0,.38,0,.561,0,.742A4.644,4.644,0,0,0,14.6,7.828q4.606.062,9.216-.019a4.5,4.5,0,0,0,4.3-3.632c.12-.577.146-1.176.219-1.838.824,0,1.654.054,2.478-.006,3.191-.244,5.039,1.9,5,4.931-.1,7.992-.035,15.982-.032,23.971,0,.973.421,1.531,1.15,1.543s1.185-.548,1.185-1.505q0-12.459,0-24.909M23.511,5.473c-2.887.016-5.771.01-8.655.006-1.857,0-2.824-1.173-2.529-3.118H25.77a2.342,2.342,0,0,1-2.26,3.112M19.064,19.645a22.111,22.111,0,0,1,4.126.06,2.285,2.285,0,0,0,2.358-.871c.992-1.03,2.047-2,3.077-3,.783-.751,1.4-.843,1.958-.288s.441,1.255-.339,2.012c-1.363,1.325-2.741,2.63-4.079,3.984a1.594,1.594,0,0,0-.418.992c-.038,2.263-.013,4.529-.019,6.791a2.79,2.79,0,0,1-3.09,3.1c-2.4.01-4.785.01-7.181,0a2.765,2.765,0,0,1-3.045-3.058q-.019-3.351,0-6.712a2.747,2.747,0,0,1,3.061-3.033c1.195-.013,2.389,0,3.591,0v.025M21.9,22.006c-2.117,0-4.373-.01-6.623.022a.649.649,0,0,0-.441.463q-.043,3.508,0,7.023a.712.712,0,0,0,.485.494c2.5.035,4.994.029,7.495,0,.168,0,.479-.273.482-.421.035-1.7.022-3.4.022-5.277-.317.288-.507.447-.685.621-1,.954-1.984,1.917-2.976,2.874a1.107,1.107,0,0,1-1.543.228,13.773,13.773,0,0,1-1.765-1.531,1.164,1.164,0,0,1,1.54-1.724c.273.187.523.418.871.7q1.578-1.749,3.137-3.476M44.483,44.972q-.138,4.174-.279,8.344a5.57,5.57,0,0,1-.1.852A1.177,1.177,0,0,1,42.8,55.221,1.249,1.249,0,0,1,41.768,53.8c.076-1.062.228-2.126.241-3.188.032-4.034.032-8.068.029-12.1a1.917,1.917,0,0,0-1.825-1.962,1.851,1.851,0,0,0-1.962,1.724c-.235,2.38-.456,4.76-.586,7.149a3.415,3.415,0,0,1-1.382,2.763,22.1,22.1,0,0,0-8.008,13.437c-.158.786-.333,1.572-.529,2.355-.212.827-.757,1.195-1.47,1.03-.694-.158-1-.732-.821-1.581.776-3.825,1.714-7.593,3.863-10.946A26.73,26.73,0,0,1,34.7,46.348a1.782,1.782,0,0,0,.57-1.1c.215-2.225.371-4.459.526-6.687a4.35,4.35,0,0,1,2.561-3.98,4.06,4.06,0,0,1,4.281.428,3.9,3.9,0,0,1,1.74,3.242c.032,2.237.01,4.478.01,6.715ZM10.3,41.965v4.269h.852c2.89,0,5.777.006,8.664,0a1.129,1.129,0,0,1,1.258.925,1.069,1.069,0,0,1-.637,1.287,1.89,1.89,0,0,1-.754.127q-4.687.014-9.371.006A2.243,2.243,0,0,1,7.865,46.23c-.038-1.455-.048-2.916,0-4.37a2.245,2.245,0,0,1,2.418-2.31q8.78-.014,17.566,0a2.262,2.262,0,0,1,2.421,2.389c.029,1.426.035,2.862,0,4.291a2.257,2.257,0,0,1-2.45,2.348c-.856.006-1.718.006-2.576,0-.973-.006-1.5-.434-1.489-1.2.01-.732.52-1.141,1.448-1.144.856-.006,1.708,0,2.621,0V41.965Zm29.59,22.884c.323-1.664.65-3.318.973-4.975.067-.326.127-.662.212-.989a1.157,1.157,0,0,1,1.41-1,1.21,1.21,0,0,1,.891,1.5c-.3,1.581-.65,3.153-.913,4.741a3.39,3.39,0,0,0,.06,1.515c1.245,4.069,2.532,8.129,3.806,12.188a4.242,4.242,0,0,1,.209.748A1.123,1.123,0,0,1,45.7,79.9a1.089,1.089,0,0,1-1.363-.615,3.562,3.562,0,0,1-.244-.659q-1.949-6.2-3.885-12.407c-.136-.444-.209-.9-.317-1.372" transform="translate(0.001 0.001)" fill="#17499e"/>
    </g>
  </g>
</svg>
