<svg xmlns="http://www.w3.org/2000/svg" width="50" height="13.446" viewBox="0 0 50 13.446">
  <g id="Union_2" data-name="Union 2" fill="none">
    <path d="M36.555,6.723a6.723,6.723,0,1,1,6.722,6.723A6.722,6.722,0,0,1,36.555,6.723Zm-18.067,0a6.723,6.723,0,1,1,6.723,6.723A6.723,6.723,0,0,1,18.487,6.723ZM0,6.723a6.723,6.723,0,1,1,6.723,6.723A6.723,6.723,0,0,1,0,6.723Z" stroke="none"/>
    <path d="M 6.722789764404297 2.000004768371582 C 4.118629455566406 2.000004768371582 2 4.118634223937988 2 6.722784519195557 C 2 9.326934814453125 4.118629455566406 11.44556427001953 6.722789764404297 11.44556427001953 C 9.326938629150391 11.44556427001953 11.44557189941406 9.326934814453125 11.44557189941406 6.722784519195557 C 11.44557189941406 4.118634223937988 9.326938629150391 2.000004768371582 6.722789764404297 2.000004768371582 M 25.21025085449219 2.000004768371582 C 22.60610008239746 2.000004768371582 20.48747062683105 4.118634223937988 20.48747062683105 6.722784519195557 C 20.48747062683105 9.326934814453125 22.60610008239746 11.44556427001953 25.21025085449219 11.44556427001953 C 27.81419944763184 11.44556427001953 29.93265914916992 9.326934814453125 29.93265914916992 6.722784519195557 C 29.93265914916992 4.118634223937988 27.81419944763184 2.000004768371582 25.21025085449219 2.000004768371582 M 43.2772216796875 2.000004768371582 C 40.67327117919922 2.000004768371582 38.5548095703125 4.118634223937988 38.5548095703125 6.722784519195557 C 38.5548095703125 9.326934814453125 40.67327117919922 11.44556427001953 43.2772216796875 11.44556427001953 C 45.88137054443359 11.44556427001953 48 9.326934814453125 48 6.722784519195557 C 48 4.118634223937988 45.88137054443359 2.000004768371582 43.2772216796875 2.000004768371582 M 6.722789764404297 4.76837158203125e-06 C 10.43547821044922 4.76837158203125e-06 13.44557189941406 3.009714126586914 13.44557189941406 6.722784519195557 C 13.44557189941406 10.43548393249512 10.43547821044922 13.44556427001953 6.722789764404297 13.44556427001953 C 3.009708404541016 13.44556427001953 0 10.43548393249512 0 6.722784519195557 C 0 3.009714126586914 3.009708404541016 4.76837158203125e-06 6.722789764404297 4.76837158203125e-06 Z M 25.21025085449219 4.76837158203125e-06 C 28.92295074462891 4.76837158203125e-06 31.93265914916992 3.009714126586914 31.93265914916992 6.722784519195557 C 31.93265914916992 10.43548393249512 28.92295074462891 13.44556427001953 25.21025085449219 13.44556427001953 C 21.4971809387207 13.44556427001953 18.48747062683105 10.43548393249512 18.48747062683105 6.722784519195557 C 18.48747062683105 3.009714126586914 21.4971809387207 4.76837158203125e-06 25.21025085449219 4.76837158203125e-06 Z M 43.2772216796875 4.76837158203125e-06 C 46.99029159545898 4.76837158203125e-06 50 3.009714126586914 50 6.722784519195557 C 50 10.43548393249512 46.99029159545898 13.44556427001953 43.2772216796875 13.44556427001953 C 39.56452178955078 13.44556427001953 36.5548095703125 10.43548393249512 36.5548095703125 6.722784519195557 C 36.5548095703125 3.009714126586914 39.56452178955078 4.76837158203125e-06 43.2772216796875 4.76837158203125e-06 Z" stroke="none" fill="#17499e"/>
  </g>
</svg>
