<svg xmlns="http://www.w3.org/2000/svg" width="50.559" height="46" viewBox="0 0 50.559 46">
  <g id="Group_12626" data-name="Group 12626" transform="translate(-4 0.522)">
    <g id="Group_12637" data-name="Group 12637" transform="translate(4 -10.521)">
      <g id="Group_12624" data-name="Group 12624" transform="translate(0 10)">
        <path id="Path_16437" data-name="Path 16437" d="M37.15,12.015H2.049V53.96H25.415c.165-1.391.406-2.788.478-4.194a10.452,10.452,0,0,1,1.5-4.974c3.2-5.381,6.3-10.828,9.41-16.263a2.7,2.7,0,0,0,.332-1.258c.03-2.608.019-5.217.015-7.825a1.053,1.053,0,0,1,.98-1.206c.557-.063.967.449,1.009,1.175.011.184.005.369.005.553,0,1.133,0,2.266,0,3.4a1.6,1.6,0,0,0,.183.8q.581-1,1.162-2c.778-1.344,1.534-2.7,2.337-4.03a4.137,4.137,0,0,1,7.7,1.577,4.353,4.353,0,0,1-.675,2.858Q44.705,31.459,39.6,40.362a3.626,3.626,0,0,0-.44,1.7c-.035,4.136-.015,8.273-.016,12.409,0,1.264-.266,1.527-1.53,1.527H1.573C.261,56,0,55.74,0,54.436,0,38.6,0,27.362,0,11.527,0,10.278.278,10,1.529,10H37.648c1.214,0,1.486.27,1.493,1.484q.008,1.541,0,3.083c-.006.88-.34,1.331-.981,1.351s-1-.454-1.006-1.319c-.007-.838,0-1.675,0-2.584m9.586,11.979-3.763-2.165L28.514,46.876l3.769,2.158,14.453-25.04M37.11,44.7c-.25.4-.391.614-.518.834-.949,1.64-1.88,3.291-2.854,4.916a3.881,3.881,0,0,1-.934,1.039c-1.049.816-2.135,1.583-3.358,2.48H37.11Zm10.572-22.44c.752-1.032,1.251-2,.582-3.143a2.024,2.024,0,0,0-2.057-1.045c-1.224.117-1.746,1.005-2.184,2.072l3.659,2.115m-19.7,26.6c-.139,1.372-.261,2.581-.406,4.017l3.246-2.376-2.84-1.64" transform="translate(0 -10)" fill="#17499e"/>
        <path id="Path_16439" data-name="Path 16439" d="M43.668,104.483q-4.7,0-9.39,0c-.262,0-.6.074-.771-.056a2.031,2.031,0,0,1-.78-.943c-.134-.529.283-.872.787-1a3.216,3.216,0,0,1,.785-.037q9.351,0,18.7,0a3.183,3.183,0,0,1,.707.027,1,1,0,0,1,.055,1.974,2.694,2.694,0,0,1-.7.039q-4.695,0-9.39,0" transform="translate(-24.07 -79.993)" fill="#17499e"/>
        <path id="Path_16440" data-name="Path 16440" d="M43.629,60.509H52.94a3.27,3.27,0,0,1,.708.024,1,1,0,0,1,.014,1.991,2.751,2.751,0,0,1-.629.026H34.173c-.079,0-.158,0-.237,0-.839-.022-1.313-.409-1.291-1.052.021-.613.478-.982,1.276-.984,2.815-.008,5.629,0,8.444,0h1.263" transform="translate(-24.028 -49.128)" fill="#17499e"/>
        <path id="Path_16442" data-name="Path 16442" d="M84.985,81.485c1.132,0,2.265-.008,3.4,0,.819.008,1.253.352,1.274.978.023.665-.424,1.054-1.274,1.057q-3.357.013-6.715,0c-.777,0-1.276-.391-1.3-.976-.03-.61.5-1.051,1.3-1.059,1.106-.011,2.212,0,3.318,0" transform="translate(-59.149 -64.57)" fill="#17499e"/>
        <path id="Path_16443" data-name="Path 16443" d="M36.808,83.521c-.975,0-1.95.01-2.924,0-.791-.01-1.259-.391-1.269-1s.455-1.027,1.236-1.032q3.043-.018,6.085,0c.769.005,1.267.444,1.249,1.036s-.508.985-1.3.995c-1.027.014-2.055,0-3.082,0" transform="translate(-24.006 -64.566)" fill="#17499e"/>
        <path id="Path_16445" data-name="Path 16445" d="M36.187,123.415c.764,0,1.528-.013,2.292,0,.65.014,1.135.271,1.173,1,.03.6-.417,1.018-1.146,1.028q-2.371.032-4.742,0c-.717-.01-1.2-.455-1.145-1.037.065-.7.537-.984,1.2-.99.79-.008,1.581,0,2.371,0" transform="translate(-24.005 -95.43)" fill="#17499e"/>
      </g>
    </g>
  </g>
</svg>
