<svg id="Group_12612" data-name="Group 12612" xmlns="http://www.w3.org/2000/svg" xmlns:xlink="http://www.w3.org/1999/xlink" width="50" height="44.784" viewBox="0 0 50 44.784">
  <defs>
    <clipPath id="clip-path">
      <rect id="Rectangle_4295" data-name="Rectangle 4295" width="50" height="44.784" fill="#17499e"/>
    </clipPath>
  </defs>
  <g id="Group_12588" data-name="Group 12588" clip-path="url(#clip-path)">
    <path id="Path_16419" data-name="Path 16419" d="M1.532,32.394c-.247,1.584.386,2.349,1.89,2.351q3.124,0,6.249,0c.562,0,1.123.063,1.1.775-.02.651-.568.716-1.091.717-2.161,0-4.322.034-6.482,0A3.058,3.058,0,0,1,0,32.956Q0,18.121,0,3.286A3.026,3.026,0,0,1,3.328.008Q18.52-.007,33.712,0c.545,0,1.135.016,1.1.759-.035.724-.632.7-1.169.7q-15,0-29.993,0c-1.678,0-2.2.516-2.2,2.171q0,13,0,26v1.147H48.558V29.84q0-13.117,0-26.234c0-1.606-.54-2.145-2.15-2.146-2.838,0-5.676-.005-8.514,0-.535,0-1.042-.04-1.051-.727-.009-.707.527-.728,1.046-.728,2.968,0,5.936-.017,8.9.005A3.01,3.01,0,0,1,50,3.254Q50,18.127,50,33a3.057,3.057,0,0,1-3.314,3.233c-4.582.02-9.164.008-13.747.01h-.973l.7,4.091c.653.049,1.227.046,1.784.143a2.156,2.156,0,0,1,1.765,2.168,2.187,2.187,0,0,1-1.94,2.1,5.98,5.98,0,0,1-.7.032q-8.592,0-17.184,0a2.237,2.237,0,0,1-2.48-1.568,2.127,2.127,0,0,1,1.766-2.759c.51-.078,1.032-.073,1.657-.112l.715-4.1H17.017c-1.146,0-2.295.043-3.434-.043a1.139,1.139,0,0,1-.829-.7c-.081-.5.341-.76.864-.754.338,0,.677,0,1.015,0q15.973,0,31.946,0c1.515,0,2.133-.752,1.888-2.351Zm17.3,7.994h6.558c.521,0,1.06.042,1.076.717.018.737-.553.766-1.1.765h-.7q-4.139,0-8.279,0c-.519,0-1.064.024-1.081.707s.487.753,1.032.753q8.669-.008,17.338,0c.547,0,1.038-.081,1.03-.752-.008-.629-.492-.707-1-.706-1.328,0-2.655,0-3.983,0-.56,0-1.219.036-1.23-.722-.012-.827.694-.753,1.267-.76.434-.006.869,0,1.418,0l-.725-4.148c-3.56,0-7.021,0-10.481.016a.621.621,0,0,0-.471.355c-.242,1.216-.438,2.44-.668,3.777" transform="translate(0 0)" fill="#17499e"/>
    <path id="Path_16420" data-name="Path 16420" d="M114.537,73.284c-1.135,2.231-2.178,4.321-3.27,6.384a1.387,1.387,0,0,1-.861.709c-.242.026-.631-.378-.791-.677-.918-1.714-1.787-3.455-2.75-5.338a17.033,17.033,0,0,0-.81,1.584A1.442,1.442,0,0,1,104.389,77c-.7-.068-1.4-.014-2.105-.017-.513,0-.9-.239-.906-.757-.01-.542.409-.742.9-.751.624-.012,1.253.035,1.87-.028a1.039,1.039,0,0,0,.7-.432c.432-.738.76-1.538,1.2-2.274.177-.3.529-.678.806-.682s.654.365.814.663c.812,1.509,1.568,3.049,2.345,4.577.115.225.243.444.43.784.816-1.6,1.575-3.094,2.336-4.585.342-.671.667-1.351,1.036-2.006.427-.758,1.039-.758,1.451.009q.92,1.716,1.77,3.469a.76.76,0,0,0,.838.508c.57-.037,1.144-.015,1.716-.006.519.008.97.17.951.778s-.477.738-.994.737c-.78,0-1.561-.025-2.34.007a1.13,1.13,0,0,1-1.158-.732c-.468-.953-.959-1.895-1.511-2.98" transform="translate(-74.918 -52.415)" fill="#17499e"/>
    <path id="Path_16421" data-name="Path 16421" d="M160,25.644c0,1.509-.014,3.018.005,4.527.009.7-.3.988-.988.974q-1.678-.035-3.357,0c-.634.013-.917-.282-.918-.883q0-4.644,0-9.289c0-.656.355-.925.989-.919,1.067.01,2.134,0,3.2,0,.844.007,1.063.225,1.067,1.061.007,1.509,0,3.018,0,4.527m-1.51-4.072h-2.223v8.122h2.223Z" transform="translate(-114.353 -14.817)" fill="#17499e"/>
    <path id="Path_16422" data-name="Path 16422" d="M106.548,32.1c0,1.2-.014,2.392.007,3.587.012.693-.279.993-.98.977q-1.676-.039-3.354,0c-.674.015-.95-.311-.95-.939q0-3.626,0-7.253c0-.64.292-.957.947-.951,1.144.011,2.289.005,3.433,0a.789.789,0,0,1,.9.912c-.007,1.222,0,2.443,0,3.665m-3.716,3.1h2.235V29.029h-2.235Z" transform="translate(-74.839 -20.334)" fill="#17499e"/>
    <path id="Path_16423" data-name="Path 16423" d="M25.843,53.161q-3.9,0-7.809,0a1.505,1.505,0,0,1-.688-.062c-.221-.124-.506-.381-.508-.583a1.01,1.01,0,0,1,.422-.721,1.588,1.588,0,0,1,.826-.121q7.73-.009,15.461,0c.208,0,.475-.066.61.036.258.194.609.492.6.74s-.384.512-.652.688c-.147.1-.405.027-.613.027H25.843" transform="translate(-12.443 -38.168)" fill="#17499e"/>
    <path id="Path_16424" data-name="Path 16424" d="M25.72,20.051c2.654,0,5.308-.012,7.962.017a1.417,1.417,0,0,1,.94.375.651.651,0,0,1-.419,1.022,3.915,3.915,0,0,1-.853.057q-7.65,0-15.3,0c-.13,0-.26,0-.39,0-.472-.022-.925-.113-.934-.7-.009-.619.435-.767.953-.768q4.02,0,8.041,0" transform="translate(-12.361 -14.816)" fill="#17499e"/>
    <path id="Path_16425" data-name="Path 16425" d="M128.121,39.08c0-.856.018-1.713,0-2.569-.019-.715.277-1.055,1.013-1.041,1.09.022,2.181.017,3.271,0,.686-.01,1,.3.994.985-.008,1.712,0,3.425,0,5.137,0,.637-.278.952-.945.94-1.116-.021-2.233-.025-3.348,0-.692.016-1.006-.266-.988-.965.022-.83.005-1.66.006-2.491m1.519,1.98h2.2V36.978h-2.2Z" transform="translate(-94.677 -26.213)" fill="#17499e"/>
    <path id="Path_16426" data-name="Path 16426" d="M25.812,81.373h7.573c.208,0,.47-.074.613.023a5.336,5.336,0,0,1,.739.727c-.255.237-.475.594-.774.681a4.871,4.871,0,0,1-1.319.033H18.28c-.156,0-.312,0-.468,0-.532.018-1.054-.047-1.072-.715s.492-.762,1.032-.751c.364.007.729,0,1.093,0h6.948" transform="translate(-12.37 -60.115)" fill="#17499e"/>
    <path id="Path_16427" data-name="Path 16427" d="M46.719,68.121c-1.583,0-3.167-.009-4.75,0-.553,0-1.06-.128-1.05-.751s.512-.748,1.067-.746q4.789.014,9.578,0c.537,0,1.039.086,1.036.756s-.527.736-1.053.736H46.719" transform="translate(-30.239 -49.238)" fill="#17499e"/>
    <path id="Path_16428" data-name="Path 16428" d="M22.545,36.417c-1.585,0-3.171,0-4.756,0-.511,0-1.065-.019-1.054-.722.011-.667.52-.739,1.054-.738q4.8.005,9.59,0c.534,0,1.05.07,1.053.737,0,.684-.528.719-1.054.717-1.611-.006-3.223,0-4.834,0v.01" transform="translate(-12.367 -25.832)" fill="#17499e"/>
    <path id="Path_16429" data-name="Path 16429" d="M21.359,97.729q-1.79,0-3.58,0c-.536,0-1.035-.1-1.043-.758-.008-.69.538-.734,1.051-.734,2.387,0,4.774.009,7.16.009.509,0,.993.093,1.008.7.016.644-.468.786-1.016.785-1.194,0-2.387,0-3.58,0" transform="translate(-12.368 -71.119)" fill="#17499e"/>
    <path id="Path_16430" data-name="Path 16430" d="M18.985,68.082a6.358,6.358,0,0,1-1.464-.031c-.268-.065-.64-.444-.637-.678a.955.955,0,0,1,.613-.711,20.149,20.149,0,0,1,3.095.007.946.946,0,0,1,.585.727.98.98,0,0,1-.649.668,7.306,7.306,0,0,1-1.544.031v-.013" transform="translate(-12.477 -49.222)" fill="#17499e"/>
    <path id="Path_16431" data-name="Path 16431" d="M71.181,36.333a6.257,6.257,0,0,1-1.467-.031c-.294-.073-.515-.44-.769-.675.252-.245.488-.677.76-.7a15.853,15.853,0,0,1,2.866,0,1.087,1.087,0,0,1,.713.7c.109.443-.241.7-.706.7s-.931,0-1.4,0v0" transform="translate(-50.951 -25.762)" fill="#17499e"/>
  </g>
</svg>
