<svg id="Group_12574" data-name="Group 12574" xmlns="http://www.w3.org/2000/svg" xmlns:xlink="http://www.w3.org/1999/xlink" width="80" height="79.968" viewBox="0 0 80 79.968">
  <defs>
    <clipPath id="clip-path">
      <rect id="Rectangle_4287" data-name="Rectangle 4287" width="80" height="79.968" fill="none"/>
    </clipPath>
  </defs>
  <g id="Group_12573" data-name="Group 12573" clip-path="url(#clip-path)">
    <path id="Path_16402" data-name="Path 16402" d="M24.99,79.964H18.117c-.36-.048-.716-.128-1.072-.152a42.254,42.254,0,0,1-10.1-1.735C4.106,77.174,1.323,76.138,0,73.1V31.248a7.376,7.376,0,0,1,4.17-3.958,23.091,23.091,0,0,1,2.243-.88,42.382,42.382,0,0,1,10.7-1.9,59.492,59.492,0,0,1,14.23.624c1.8.312,3.583.768,5.45,1.172v-.92c0-5.726.012-11.447-.016-17.173a4.379,4.379,0,0,1,1.655-3.615,11.543,11.543,0,0,1,2.135-1.423,31.239,31.239,0,0,1,10.34-2.7A58.951,58.951,0,0,1,70.768,1.3a18.267,18.267,0,0,1,7.093,2.883A4.863,4.863,0,0,1,79.98,8.365q-.06,19.438,0,38.876a4.947,4.947,0,0,1-2.207,4.3,16.268,16.268,0,0,1-5.15,2.335,45.379,45.379,0,0,1-9.9,1.619,60.151,60.151,0,0,1-14.918-.772c-1.567-.3-3.111-.708-4.71-1.084v.88c0,5.83-.008,11.655.012,17.485a3.639,3.639,0,0,1-1.192,2.939,15.475,15.475,0,0,1-3.2,2.159,30.369,30.369,0,0,1-9.236,2.379c-1.491.2-2.995.324-4.49.484M39.984,63.191c-5.9,2.815-12.115,3.387-18.4,3.391-6.317.008-12.555-.588-18.461-3.391v.824c0,2.523.024,5.046-.016,7.573a1.627,1.627,0,0,0,.824,1.635,30.07,30.07,0,0,0,4.154,1.891A41.494,41.494,0,0,0,18.76,76.754a52.691,52.691,0,0,0,15.166-1.311,13.537,13.537,0,0,0,5.2-2.191,1.992,1.992,0,0,0,.816-1.228c.072-2.907.04-5.822.04-8.832m-.028-51.056v.824c0,2.471.048,4.946-.02,7.417A2.064,2.064,0,0,0,41,22.363c.268.168.532.336.812.48a28.083,28.083,0,0,0,9.356,2.475,57.8,57.8,0,0,0,11.064.32A40.3,40.3,0,0,0,72.343,23.9a23.79,23.79,0,0,0,3.327-1.487,2.121,2.121,0,0,0,1.2-2.163c-.084-2-.024-4.006-.024-6.014V12.116c-5.9,2.8-12.119,3.383-18.409,3.391-6.317,0-12.555-.592-18.481-3.371M3.123,49.82c0,2.875.02,5.678-.016,8.485a1.578,1.578,0,0,0,.764,1.507A20.794,20.794,0,0,0,6.981,61.38,37.518,37.518,0,0,0,17.6,63.315a54.209,54.209,0,0,0,16.042-1.168,15.608,15.608,0,0,0,5.394-2.163A1.976,1.976,0,0,0,40,58.173c-.056-2.443-.02-4.894-.02-7.337V49.82c-5.914,2.807-12.131,3.395-18.417,3.4-6.309,0-12.551-.588-18.445-3.4m0-13.375c0,2.847.028,5.606-.02,8.361a1.733,1.733,0,0,0,.864,1.7,20.221,20.221,0,0,0,3.195,1.571,41.27,41.27,0,0,0,12.183,1.947,49.406,49.406,0,0,0,14.382-1.307,35.8,35.8,0,0,0,5.118-2,1.99,1.99,0,0,0,1.164-2.091c-.072-2.391-.024-4.782-.024-7.177v-1c-5.906,2.779-12.107,3.383-18.4,3.383-6.321,0-12.551-.6-18.461-3.387m39.976.376c.364.132.68.264,1,.368a39.589,39.589,0,0,0,9.936,1.771,54.889,54.889,0,0,0,16.425-1.14,16.031,16.031,0,0,0,5.39-2.143A2.04,2.04,0,0,0,76.857,33.8c-.048-2.551-.012-5.1-.02-7.649,0-.208-.028-.424-.044-.636-5.874,2.759-12.087,3.363-18.377,3.367-6.313,0-12.543-.6-18.425-3.363a5.564,5.564,0,0,1-.036.712,2.1,2.1,0,0,0,1.088,2.355,4.318,4.318,0,0,1,2.071,4.1c-.076,1.347-.016,2.7-.016,4.13m0,3.511v8.221c0,1.731,0,1.731,1.667,2.227A44.338,44.338,0,0,0,55.126,52.4,50.052,50.052,0,0,0,71.5,50.892a28.162,28.162,0,0,0,4.47-1.955,1.663,1.663,0,0,0,.888-1.683c-.048-1.691-.012-3.379-.012-5.07V39.025C65.714,43.3,54.486,43.039,43.1,40.332M58.329,12.5c2.615-.2,5.234-.368,7.841-.624a29.314,29.314,0,0,0,3.527-.62,17.574,17.574,0,0,0,6.022-2.239c1.423-.944,1.475-1.675-.032-2.475a21.3,21.3,0,0,0-4.878-1.963,54.009,54.009,0,0,0-24.49-.112A14.749,14.749,0,0,0,40.86,6.654c-1.16.828-1.216,1.527.032,2.219a22.28,22.28,0,0,0,4.4,1.9A51.491,51.491,0,0,0,58.329,12.5m-36.8,14.978A46.071,46.071,0,0,0,8.021,29.229a21.794,21.794,0,0,0-4.2,1.963c-.936.552-.92,1.216,0,1.811a16.279,16.279,0,0,0,3.235,1.663,35.525,35.525,0,0,0,9.14,1.8,54.9,54.9,0,0,0,17.281-1.028A14.586,14.586,0,0,0,39.2,33.1c.988-.752,1.044-1.355-.008-1.975a20.441,20.441,0,0,0-4.07-1.891,46.793,46.793,0,0,0-13.595-1.755M69.5,79.968c.308-.276.624-.536.916-.824l8.725-8.713c1.144-1.156,1.152-1.831.02-2.971q-4.4-4.384-8.78-8.772c-.076-.076-.148-.144-.22-.22a1.573,1.573,0,0,0-1.851-.428,1.6,1.6,0,0,0-.968,1.635c0,1.144,0,2.291,0,3.431,0,.2-.04.4-.064.624H56.605c-1.164,0-1.927.64-1.907,1.583.016.928.748,1.535,1.871,1.535H68.589c1.347,0,1.887-.528,1.923-1.879.008-.5,0-.988,0-1.491,1.9,1.9,3.711,3.711,5.466,5.462-1.771,1.763-3.587,3.579-5.486,5.474,0-.588.04-1.152-.012-1.711A1.461,1.461,0,0,0,68.9,71.224c-4.058-.012-8.121-.028-12.175.028a1.974,1.974,0,0,0-1.347.724,1.527,1.527,0,0,0,1.423,2.359c3.227.016,6.453.008,9.68.008h.852c0,1.24.04,2.359-.012,3.475a2.154,2.154,0,0,0,1.08,2.151ZM0,11.576a5.2,5.2,0,0,0,.424.544q4.738,4.75,9.488,9.5a1.523,1.523,0,0,0,1.731.344,1.56,1.56,0,0,0,.976-1.475c.02-.308,0-.624,0-.932V16.258h.96q4.1,0,8.193,0c1.16,0,1.831-.564,1.847-1.531.016-1-.668-1.579-1.875-1.579-3.463,0-6.925-.008-10.38,0-1.343,0-1.887.532-1.915,1.879-.012.492,0,.988,0,1.435C7.561,14.6,5.738,12.8,3.994,11.088L9.456,5.626c0,.5-.024,1.008,0,1.515a1.528,1.528,0,0,0,1.687,1.631q5.428.024,10.848,0a1.877,1.877,0,0,0,.956-.272,1.441,1.441,0,0,0,.592-1.779A1.486,1.486,0,0,0,21.991,5.65H12.623c0-1.335,0-2.559.008-3.782A1.632,1.632,0,0,0,9.7.688C7.869,2.539,6.022,4.363,4.19,6.21,2.783,7.625,1.4,9.057,0,10.484Z" transform="translate(0 0)" fill="#17499e"/>
  </g>
</svg>
