<svg id="Group_12642" data-name="Group 12642" xmlns="http://www.w3.org/2000/svg" xmlns:xlink="http://www.w3.org/1999/xlink" width="80" height="79.998" viewBox="0 0 80 79.998">
  <defs>
    <clipPath id="clip-path">
      <rect id="Rectangle_654" data-name="Rectangle 654" width="80" height="79.998" fill="none"/>
    </clipPath>
  </defs>
  <g id="Group_2575" data-name="Group 2575" clip-path="url(#clip-path)">
    <path id="Path_12023" data-name="Path 12023" d="M40.023,0Q55.58,0,71.136,0C76.46,0,80,3.52,80,8.814q0,31.175,0,62.352C80,76.472,76.47,80,71.158,80Q39.979,80,8.8,80C3.581,80,0,76.442,0,71.246Q0,39.945,0,8.644A8.315,8.315,0,0,1,8.657,0Q24.341-.008,40.023,0M30,76.658c.456.026.7.052.95.052q20.123,0,40.249-.008c3.47-.008,5.51-2.156,5.512-5.7q.009-30.812,0-61.624c0-4.182-1.932-6.082-6.14-6.082q-30.626,0-61.25,0c-4.01,0-6.024,1.96-6.024,5.946q-.009,19.689,0,39.375V50H4.845q11.313,0,22.625,0C29.559,50,30,50.453,30,52.587V76.658M26.709,53.431a4.146,4.146,0,0,0-.634-.122c-7.29-.008-14.58,0-21.869-.028-.978-.006-.92.558-.92,1.214.008,5.54-.01,11.08.01,16.62.012,3.456,2.058,5.564,5.5,5.588,5.58.04,11.162-.01,16.744.028.942.006,1.2-.292,1.194-1.216-.044-4.456-.02-8.914-.02-13.372V53.431" transform="translate(0 0)" fill="#17499e"/>
    <path id="Path_12024" data-name="Path 12024" d="M44.267,10.073H42.593q-8.376,0-16.75-.014a2.536,2.536,0,0,1-1.436-.232A2.368,2.368,0,0,1,23.423,8.3c.018-.5.62-1.062,1.092-1.444a2.086,2.086,0,0,1,1.2-.194q11.124-.03,22.247-.032a1.878,1.878,0,0,1,2.092,2.076q0,11.187-.014,22.371c0,1.456-.674,2.3-1.746,2.27-1.026-.026-1.63-.832-1.668-2.228-.006-.208,0-.416,0-.624q0-7.875,0-15.75V12.8l-.384-.258c-.468.558-.9,1.152-1.412,1.666Q32.479,26.594,20.107,38.958c-.148.148-.29.3-.444.44a1.691,1.691,0,0,1-2.536.086,1.661,1.661,0,0,1,.176-2.448c1.61-1.63,3.236-3.242,4.856-4.862l22.107-22.1" transform="translate(16.668 6.635)" fill="#17499e"/>
  </g>
</svg>
