<svg id="Group_12638" data-name="Group 12638" xmlns="http://www.w3.org/2000/svg" xmlns:xlink="http://www.w3.org/1999/xlink" width="47.85" height="50" viewBox="0 0 47.85 50">
  <defs>
    <clipPath id="clip-path">
      <rect id="Rectangle_4296" data-name="Rectangle 4296" width="47.85" height="50" fill="#17499e"/>
    </clipPath>
  </defs>
  <g id="Group_12590" data-name="Group 12590" clip-path="url(#clip-path)">
    <path id="Path_16432" data-name="Path 16432" d="M32.863,43.89A21.929,21.929,0,1,0,2.069,21.807a21.782,21.782,0,0,0,14.275,22.6q.6-1.912,1.211-3.825,2.163-6.836,4.332-13.671a.959.959,0,0,0-.224-1.1,2.55,2.55,0,0,1-.624-2.541,1.033,1.033,0,0,0-.362-1.205q-3.518-3.5-7.014-7.021c-.183-.184-.468-.377-.488-.587-.038-.4-.056-.951.174-1.174a1.326,1.326,0,0,1,1.163-.1,3.459,3.459,0,0,1,.981.872q3.346,3.341,6.679,6.694a.9.9,0,0,0,1.071.281,2.962,2.962,0,0,1,3.593,2.094,2.862,2.862,0,0,1-1.943,3.573c-.841.2-1.073.648-1.294,1.358-1.83,5.881-3.693,11.751-5.547,17.624-.332,1.051-.768,1.26-1.817.883A23.688,23.688,0,0,1,1.357,31.794,23.92,23.92,0,1,1,36.49,44.278a22.67,22.67,0,0,1-2.552,1.346c-.478.22-.7.416-.519.988a20.015,20.015,0,0,1,.455,2.134.98.98,0,0,1-1.233,1.207q-3.878-1.178-7.725-2.456c-.794-.266-.874-1.138-.2-1.766,1.127-1.044,2.284-2.055,3.43-3.079.757-.677,1.506-1.364,2.278-2.024.8-.688,1.544-.469,1.812.548.235.893.415,1.8.623,2.716m-2.229-.775-3.395,3.042,4.326,1.381-.931-4.423M23.9,22.961A.9.9,0,0,0,23,23.992a.947.947,0,0,0,1.891-.072.9.9,0,0,0-.983-.959" transform="translate(0 0)" fill="#17499e"/>
    <path id="Path_16433" data-name="Path 16433" d="M17.368,89.741c-.363,0-.73.029-1.09-.007a.883.883,0,0,1-.855-.935.842.842,0,0,1,.819-.955,10.641,10.641,0,0,1,2.325.039,1.3,1.3,0,0,1,.76.89.805.805,0,0,1-.793.956,10.279,10.279,0,0,1-1.167.009v0" transform="translate(-11.395 -64.866)" fill="#17499e"/>
    <path id="Path_16434" data-name="Path 16434" d="M154.794,89.779c-.363,0-.728.02-1.089,0a.879.879,0,0,1-.876-.912.832.832,0,0,1,.788-.976,18.6,18.6,0,0,1,2.33,0,.834.834,0,0,1,.8.966.875.875,0,0,1-.863.921c-.361.029-.726.005-1.089.005v0" transform="translate(-112.907 -64.902)" fill="#17499e"/>
    <path id="Path_16435" data-name="Path 16435" d="M89.834,17.4c0,.363.028.728-.007,1.087a.874.874,0,0,1-.929.855.844.844,0,0,1-.948-.824,10.456,10.456,0,0,1,.036-2.32,1.3,1.3,0,0,1,.885-.75.788.788,0,0,1,.95.788A10.616,10.616,0,0,1,89.83,17.4h0" transform="translate(-64.942 -11.394)" fill="#17499e"/>
  </g>
</svg>
