<svg id="Group_12643" data-name="Group 12643" xmlns="http://www.w3.org/2000/svg" xmlns:xlink="http://www.w3.org/1999/xlink" width="80" height="75.463" viewBox="0 0 80 75.463">
  <defs>
    <clipPath id="clip-path">
      <rect id="Rectangle_650" data-name="Rectangle 650" width="80" height="75.463" fill="none"/>
    </clipPath>
  </defs>
  <g id="Group_2566" data-name="Group 2566" clip-path="url(#clip-path)">
    <path id="Path_12008" data-name="Path 12008" d="M40.347,12c-1.809-1.751-3.415-3.249-4.941-4.822-.385-.4-.806-1.126-.679-1.543.123-.4.9-.766,1.436-.86Q49.627,2.407,63.1.125C63.619.036,64.153.055,65.046,0c-.283,2.783-.421,5.424-.841,8.018-1.151,7.114-2.409,14.213-3.669,21.309-.089.5-.453,1.207-.838,1.324a1.9,1.9,0,0,1-1.447-.617c-1.566-1.541-3.06-3.158-4.692-4.864-1.287,1.273-2.407,2.362-3.5,3.475-.56.568-1.185,1.111-1.9.428s-.245-1.349.336-1.922c1.3-1.285,2.611-2.564,3.881-3.879a1.277,1.277,0,0,1,2.124.019c1.307,1.373,2.624,2.741,4.164,4.349C60.141,19.022,61.55,10.806,63,2.356L38.164,6.6c-.068.119-.134.238-.2.358C39.07,8,40.2,9.016,41.282,10.076c1.862,1.819,1.851,1.828.06,3.618l-20.9,20.911c-.289.291-.562.594-.811.858C23.064,38.88,26.443,42.244,30,45.781c1.4-1.439,2.877-2.992,4.394-4.509.583-.581,1.217-1.611,2.141-.694.964.955-.053,1.626-.674,2.254C34.2,44.519,32.5,46.172,30.846,47.87a1.287,1.287,0,0,1-2.126,0c-3.728-3.739-7.471-7.461-11.191-11.208-.938-.943-.887-1.3.189-2.375Q28.431,23.565,39.153,12.857A9.778,9.778,0,0,1,40.347,12" transform="translate(14.952)" fill="#17499e"/>
    <path id="Path_12009" data-name="Path 12009" d="M4.814,28.669c-.4-.3-.828-.458-.926-.736a1.577,1.577,0,0,1,.1-1.156,5.384,5.384,0,0,1,1-1.1Q12.079,18.585,19.18,11.5c.611-.607,1.27-1.658,2.234-.649.885.926-.1,1.57-.687,2.158Q13.474,20.3,6.193,27.552c-.394.392-.868.706-1.379,1.117" transform="translate(3.387 9.251)" fill="#17499e"/>
    <path id="Path_12010" data-name="Path 12010" d="M39.478,27.342A9.151,9.151,0,0,1,38.7,28.41Q31.08,36.048,23.45,43.673c-.562.56-1.166.909-1.824.255-.7-.692-.208-1.262.323-1.794C27.03,37.047,32.1,31.949,37.214,26.893a2.214,2.214,0,0,1,1.5-.468c.253.006.491.57.764.917" transform="translate(18.866 23.427)" fill="#17499e"/>
    <path id="Path_12011" data-name="Path 12011" d="M12.814,24.911c-.355-.311-.853-.543-.881-.823a1.8,1.8,0,0,1,.407-1.3c1.779-1.854,3.622-3.645,5.441-5.464q2.988-2.988,5.967-5.992c.553-.557,1.183-.953,1.817-.292.6.626.272,1.277-.289,1.836q-5.685,5.663-11.365,11.335a6.632,6.632,0,0,1-1.1.7" transform="translate(10.573 9.487)" fill="#17499e"/>
    <path id="Path_12012" data-name="Path 12012" d="M18.058,42.2c-.192-.145-.64-.317-.762-.621a1.277,1.277,0,0,1,.14-1.113,27.852,27.852,0,0,1,2.809-2.794,1.411,1.411,0,0,1,1.315.021,1.2,1.2,0,0,1,.245,1.158c-1,1.141-2.1,2.188-3.183,3.256-.072.07-.238.043-.564.092" transform="translate(15.274 33.263)" fill="#17499e"/>
    <path id="Path_12013" data-name="Path 12013" d="M8.631,24.515c-.208-.147-.638-.294-.743-.568a1.312,1.312,0,0,1,.075-1.126,32.331,32.331,0,0,1,2.9-2.879,1.194,1.194,0,0,1,1.172-.008c.275.283.5,1.056.33,1.26-.958,1.123-2.041,2.141-3.1,3.179-.1.1-.313.075-.632.141" transform="translate(6.914 17.54)" fill="#17499e"/>
    <path id="Path_12014" data-name="Path 12014" d="M.023,26.284A4.838,4.838,0,0,1,2.639,21.67a1.42,1.42,0,0,1,1.2.249,1.114,1.114,0,0,1,.2,1.072C3.058,24.1,2,25.147.926,26.163c-.181.17-.6.087-.9.121" transform="translate(0 19.169)" fill="#17499e"/>
    <path id="Path_12015" data-name="Path 12015" d="M33.58,18.219a3.554,3.554,0,0,1-.423.834A17.6,17.6,0,0,1,30.944,21.2c-.341.249-1,.06-1.519.072,0-.509-.194-1.168.053-1.5a12.645,12.645,0,0,1,2.173-2.181,1.574,1.574,0,0,1,1.228-.164c.279.074.466.507.7.789" transform="translate(26.024 15.407)" fill="#17499e"/>
  </g>
</svg>
