<svg xmlns="http://www.w3.org/2000/svg" xmlns:xlink="http://www.w3.org/1999/xlink" width="51.789" height="80" viewBox="0 0 51.789 80">
  <defs>
    <clipPath id="clip-path">
      <rect id="Rectangle_4291" data-name="Rectangle 4291" width="51.789" height="80" fill="none"/>
    </clipPath>
  </defs>
  <g id="Group_12582" data-name="Group 12582" transform="translate(0 0)">
    <g id="Group_12581" data-name="Group 12581" transform="translate(0 0)" clip-path="url(#clip-path)">
      <path id="Path_16410" data-name="Path 16410" d="M17.653,43.988a8.091,8.091,0,0,1-5.715,5.672c-.632.176-1.317.162-1.963.309a1.048,1.048,0,0,0-.678.506c-1.12,3.1-2.206,6.213-3.281,9.336a3.922,3.922,0,0,0,.172,2.922c1.718,4,3.417,8.008,5.142,12.012a8.893,8.893,0,0,1,.492,4.1,1.252,1.252,0,0,1-1.3,1.149,1.2,1.2,0,0,1-1.31-1.215c.183-1.932-.629-3.572-1.352-5.251q-2.118-4.937-4.2-9.877a6.75,6.75,0,0,1-.081-5.037c1.036-2.926,2.051-5.862,3.07-8.795a4.056,4.056,0,0,0,.095-.439c-3.372-1.718-5.205-4.436-4.833-8.257.348-3.484,2.416-5.75,5.8-6.94-.221-.239-.414-.457-.618-.664Q3.964,30.38.84,27.252c-1.127-1.127-1.12-1.616.025-2.768,2.262-2.258,4.524-4.513,6.874-6.863a8.233,8.233,0,0,1-5.37-4.928,7.774,7.774,0,0,1-.284-4.826A8.061,8.061,0,0,1,9.494,1.812c3.442-.274,6.354,1.8,8.159,5.844.211-.2.418-.376.608-.565Q21.443,3.909,24.632.724c.959-.955,1.6-.966,2.546-.025,2.634,2.631,5.261,5.275,7.906,7.9a1.579,1.579,0,0,1,.594,1.626c-.193.681-.752.892-1.387,1.022a5.319,5.319,0,1,0,6.252,6.3c.13-.632.306-1.208.983-1.419a1.617,1.617,0,0,1,1.7.608c2.624,2.645,5.265,5.272,7.892,7.91.906.906.9,1.577-.014,2.49q-3.177,3.193-6.368,6.371c-.193.2-.376.4-.611.65,3.758,1.4,5.922,4.015,5.809,8.029-.116,3.878-2.339,6.329-6.055,7.576,0,2.385,0,4.8-.007,7.214a5.362,5.362,0,0,1-.095,1.236c-.551,2.279-2.613,3.453-5.174,3.031a9.964,9.964,0,0,1-5.117-2.423c-.077.039-.158.077-.242.123q.527,1.428,1.043,2.863a34.315,34.315,0,0,1,1.408,3.976,11.1,11.1,0,0,1-.748,7,9.6,9.6,0,0,1-.46.98,7.77,7.77,0,0,0-1.31,4.882,1.192,1.192,0,0,1-1.507,1.3c-.429-.137-1.033-.622-1.057-.983a8.273,8.273,0,0,1,.474-4.485,27.261,27.261,0,0,0,1.935-4.668,7.832,7.832,0,0,0-.717-5.9,15.7,15.7,0,0,1-1.791-7.934c.091-4.808.032-9.617.021-14.429a4.008,4.008,0,1,0-8-.053c-.021,5.56-.007,11.124-.007,16.683,0,.555.011,1.11,0,1.668a1.337,1.337,0,1,1-2.659-.032c-.011-4.173-.021-8.338.014-12.511a2.082,2.082,0,0,0-.731-1.735c-.516-.457-.948-1-1.493-1.577M25.84,3.309q-2.5,2.508-4.995,5.016c-1.12,1.124-2.237,2.244-3.365,3.361a1.334,1.334,0,0,1-1.609.3,1.279,1.279,0,0,1-.727-1.377c.021-.3.046-.611.039-.917A5.244,5.244,0,0,0,11.433,4.8,5.336,5.336,0,0,0,5.473,6.86a5.061,5.061,0,0,0-.253,5.521,5.009,5.009,0,0,0,4.956,2.736c.794-.035,1.524-.021,1.883.846.348.85-.2,1.356-.724,1.872C10.014,19.149,8.7,20.466,7.38,21.787c-1.352,1.352-2.7,2.7-4.081,4.078.232.249.414.45.611.646q3.651,3.662,7.306,7.32c.214.221.527.411.608.674a2.134,2.134,0,0,1,.137,1.37,2.129,2.129,0,0,1-1.156.752c-.292.109-.66-.028-.99-.018a5.158,5.158,0,0,0-4.8,3.158,4.984,4.984,0,0,0,.808,5.606,5.046,5.046,0,0,0,5.49,1.668,5.3,5.3,0,0,0,3.874-5.391c0-.109-.018-.221-.028-.334a1.341,1.341,0,0,1,.724-1.531,1.371,1.371,0,0,1,1.718.432c.7.713,1.419,1.419,2.216,2.209.3-4.7,2.244-7.316,5.746-7.773a6.535,6.535,0,0,1,5.283,1.521,7.05,7.05,0,0,1,2.423,5.079c.457-.488.759-.853,1.1-1.173.436-.414,1.015-.671,1.5-.27a3.259,3.259,0,0,1,.8,1.324c.105.256-.021.6-.014.906a5.3,5.3,0,1,0,4.956-5.412c-.776.053-1.489.053-1.833-.769-.33-.794.133-1.352.678-1.89,2.466-2.448,4.907-4.921,7.376-7.369a4,4,0,0,1,.8-.5c-2.16-2.171-4.1-4.113-6.038-6.055-2.887,3.811-5.539,5.093-9.114,4.187A7.541,7.541,0,0,1,27.491,17.9c-.678-3.864.962-6.744,4.271-8.686-1.956-1.949-3.9-3.888-5.922-5.908M34.1,43.848c-.383.709-.846,1.184-.868,1.672-.081,2.188-.081,4.387-.018,6.582a6.684,6.684,0,0,0,6.245,6.519,1.442,1.442,0,0,0,1.749-1.588c.014-.608,0-1.222,0-1.83V49.952c-3.551-.544-5.859-2.494-7.109-6.1" transform="translate(0 0.001)" fill="#17499e"/>
    </g>
  </g>
</svg>
