<svg id="Group_2520" data-name="Group 2520" xmlns="http://www.w3.org/2000/svg" xmlns:xlink="http://www.w3.org/1999/xlink" width="100.898" height="100.727" viewBox="0 0 100.898 100.727">
  <defs>
    <clipPath id="clip-path">
      <rect id="Rectangle_623" data-name="Rectangle 623" width="100.898" height="100.727" transform="translate(0 0)" fill="#fff"/>
    </clipPath>
  </defs>
  <g id="Group_2519" data-name="Group 2519" clip-path="url(#clip-path)">
    <path id="Path_11824" data-name="Path 11824" d="M79.661,66.948c.539-.076,1.079-.143,1.616-.209a32.782,32.782,0,0,0,4.416-.753,17.922,17.922,0,0,0,.059-34.436,24.221,24.221,0,0,0-4.137-.722c-1.918-.188-2.1-.261-2.255-2.217A27.936,27.936,0,0,0,74.13,14.4,28.868,28.868,0,0,0,50.789,2.152a27.093,27.093,0,0,0-5.274.517C32.832,5.193,24.921,12.927,22,25.657a19.446,19.446,0,0,0-.334,2.251c-.033.311-.068.622-.108.931-.227,1.757-.307,1.831-2.141,1.974-6.988.545-12.082,3.856-15.144,9.843a17.785,17.785,0,0,0,.493,17.177,18,18,0,0,0,14.943,8.9c.235.008.47.011.711.011l.809-.005v2.178q-.349.009-.695.009A19.532,19.532,0,0,1,5.895,62.887C.35,57.115-1.294,50.38,1.009,42.866,3.3,35.392,8.638,30.61,16.449,29.037c2.19-.44,3-1.243,3.352-3.3A31.019,31.019,0,0,1,43.852.688,32.471,32.471,0,0,1,50.474,0,31.066,31.066,0,0,1,79.64,20.158a40.583,40.583,0,0,1,1.766,6.806,1.956,1.956,0,0,0,1.842,1.874A20.08,20.08,0,0,1,86.98,67.87a28.9,28.9,0,0,1-5.212,1.024c-.692.094-1.395.189-2.107.3Z" fill="#fff"/>
    <path id="Path_11825" data-name="Path 11825" d="M6.05,92.753a6.268,6.268,0,0,1-1.455-.174,5.813,5.813,0,0,1,.032-11.335,6.173,6.173,0,0,1,1.408-.166,5.6,5.6,0,0,1,5.132,3.34A2.2,2.2,0,0,0,13.44,85.86c1.65-.027,3.207-.034,4.764-.034l5.98.008c2.319,0,2.92-.6,2.922-2.879,0-3.475,0-14.512,0-14.512h2.186V79.75l0,1.2c0,.87.009,1.741-.008,2.611a4.149,4.149,0,0,1-4.506,4.457c-1.849.016-3.7.029-5.549.029-1.91,0-3.821-.013-5.731-.049h0a2.25,2.25,0,0,0-2.337,1.471A5.593,5.593,0,0,1,6.05,92.753m-.117-9.492a3.668,3.668,0,0,0-2.581,1.1,3.63,3.63,0,0,0-1.077,2.6,3.719,3.719,0,0,0,3.649,3.638,3.666,3.666,0,0,0,.127-7.331Z" fill="#fff"/>
    <path id="Path_11826" data-name="Path 11826" d="M94.81,92.772c-2.347,0-4.193-1.462-5.643-4.468l-.137-.282H76.856c-3.749-.006-5.21-1.458-5.211-5.179V73.231h2.189v9.5c0,2.61.508,3.1,3.174,3.1H89.02l.137-.279c1.468-2.982,3.388-4.494,5.707-4.494a6.367,6.367,0,0,1,1.387.162,5.9,5.9,0,0,1,4.6,5.689A5.822,5.822,0,0,1,96.26,92.6a6.517,6.517,0,0,1-1.45.173m.184-9.512A3.661,3.661,0,0,0,91.341,86.9a3.7,3.7,0,0,0,3.59,3.691h0a3.667,3.667,0,0,0,.223-7.331Z" fill="#fff"/>
    <path id="Path_11827" data-name="Path 11827" d="M50.315,100.724A5.915,5.915,0,0,1,44.7,95.84c-.528-2.839,1.034-5.247,4.4-6.781l.293-.134V65.275H51.5V88.766l.257.143c3.933,2.186,5.216,4.483,4.291,7.681a5.942,5.942,0,0,1-5.55,4.137Zm.151-9.508a3.682,3.682,0,0,0-2.632,1.132,3.621,3.621,0,0,0-1.024,2.665,3.7,3.7,0,0,0,3.653,3.528h.1a3.663,3.663,0,0,0-.1-7.324Z" fill="#fff"/>
    <path id="Path_11828" data-name="Path 11828" d="M49.374,60.89l-.005-2.973c-.006-2.914-.014-5.928.028-8.883.02-1.516-.268-2.48-1.844-3.235a5.48,5.48,0,0,1-2.686-6.571,5.811,5.811,0,0,1,11.22.064,5.741,5.741,0,0,1-2.763,6.618c-.293.166-.6.308-.933.465l-.829.4V60.89Zm1.093-23.736a3.709,3.709,0,0,0-3.657,3.5,3.6,3.6,0,0,0,1,2.673,3.682,3.682,0,0,0,2.632,1.156h0a3.665,3.665,0,0,0,.144-7.328Z" fill="#fff"/>
    <path id="Path_11829" data-name="Path 11829" d="M71.707,68.83V56.467l-.253-.144c-3.971-2.253-5.218-4.48-4.306-7.685a5.926,5.926,0,0,1,5.561-4.131l.174,0a5.835,5.835,0,0,1,5.591,4.878c.695,3.643-1.991,5.686-4.367,6.758l-.294.133V68.83Zm1.038-22.137a3.665,3.665,0,0,0-.208,7.324c.072.005.146.007.218.007a3.666,3.666,0,0,0,.076-7.33Z" fill="#fff"/>
    <path id="Path_11830" data-name="Path 11830" d="M27.11,64.1l0-1.359c.009-1.776.017-3.453-.047-5.168a2.4,2.4,0,0,0-1.113-1.786c-2.881-1.523-4.08-3.97-3.377-6.89A5.809,5.809,0,0,1,33.9,49.12c.622,2.856-.66,5.285-3.519,6.663l-1.089.508V64.1Zm1.078-17.406a3.647,3.647,0,0,0-2.567,6.239,3.648,3.648,0,0,0,2.564,1.092l.136,0a3.665,3.665,0,0,0-.127-7.328Z" fill="#fff"/>
    <path id="Path_11831" data-name="Path 11831" d="M61.611,84.832a1.278,1.278,0,0,1-.835-.4c-1.089-1.046-2.16-2.111-3.255-3.2l-1.073-1.065,1.54-1.516,2.451,2.157V62.089H62.7V80.841l2.521-2.222,1.551,1.642-1.025.991c-1.112,1.079-2.233,2.166-3.375,3.23a1.128,1.128,0,0,1-.76.35" fill="#fff"/>
    <path id="Path_11832" data-name="Path 11832" d="M38.284,78.354V59.633L35.66,61.857,34.153,60.3c.318-.314.633-.63.947-.944,1.144-1.147,2.327-2.332,3.562-3.39a1.333,1.333,0,0,1,.685-.141,1.225,1.225,0,0,1,.624.121c1.216,1.083,2.338,2.251,3.525,3.488q.479.5.966,1l-1.474,1.441L40.537,59.62V78.354Z" fill="#fff"/>
  </g>
</svg>
