<svg id="Group_2522" data-name="Group 2522" xmlns="http://www.w3.org/2000/svg" xmlns:xlink="http://www.w3.org/1999/xlink" width="111.26" height="92.417" viewBox="0 0 111.26 92.417">
  <defs>
    <clipPath id="clip-path">
      <rect id="Rectangle_625" data-name="Rectangle 625" width="111.26" height="92.417" transform="translate(0 0)" fill="#fff"/>
    </clipPath>
  </defs>
  <g id="Group_2521" data-name="Group 2521" clip-path="url(#clip-path)">
    <path id="Path_11833" data-name="Path 11833" d="M96.286,92.417q-4.191,0-8.384-.011c-3.6-.01-5.069-1.5-5.081-5.14-.009-2.373-.007-4.746,0-7.16l0-4.637H66.066s.473,1.628.612,2.117c.375,1.316.763,2.677,1.234,4a2.3,2.3,0,0,0,1.658,1.166,6.708,6.708,0,0,0,1.1.077l.951-.012c.208,0,.41,0,.611.022a5.345,5.345,0,0,1,4.206,3.289,5.178,5.178,0,0,1-.225,5.171,3.156,3.156,0,0,1-2.18,1.053q-12.143.066-24.286.061-9.115,0-18.231-.024c-1.759,0-2.533-.8-2.59-2.659l-.007-.18a15.767,15.767,0,0,1,.072-2.793c.36-2.446,2.2-3.906,4.923-3.906.146,0,.293,0,.444.013s.306.013.45.013c2.064,0,3.094-.912,3.439-3.048a16.935,16.935,0,0,1,.686-2.532c.154-.48.292-.9.423-1.352l.186-.64h-21.5c-4.984,0-6.13-1.144-6.131-6.112V61.125l-4.59.008c-.8,0-1.583,0-2.37-.013C1.44,61.077.007,59.615,0,56.073Q-.006,30.547,0,5.022C.007,1.462,1.441.009,4.954.008Q20.789,0,36.625,0t31.67.008c3.537,0,4.918,1.4,4.928,5.008.011,4.3.011,4.365.01,5.283l0,7.544,1.35.066c.585.033,1.111.062,1.637.063,1.413,0,12.055.007,12.055.007,4.071.009,5.38,1.343,5.384,5.493,0,5.79,0,24.32,0,24.32v3.092l7.9,0,4.373,0c3.977.009,5.319,1.353,5.322,5.326q.008,15.447,0,30.894c0,3.86-1.461,5.3-5.383,5.3q-4.794.008-9.586.009m.866-2.389q4.434,0,8.868.052a2.51,2.51,0,0,0,2.956-2.945c-.045-3.619-.037-7.3-.029-10.865l.007-4.47-.007-4.515c-.009-3.618-.018-7.361.031-11.038a3.368,3.368,0,0,0-.712-2.428,2.974,2.974,0,0,0-2.22-.72c-3,.036-5.92.05-8.838.05q-4.6,0-9.212-.043a3.019,3.019,0,0,0-2.259.707,3.144,3.144,0,0,0-.709,2.271c.044,10.586.043,21.054,0,31.115a2.941,2.941,0,0,0,.685,2.179,3.147,3.147,0,0,0,2.256.7c3.12-.032,6.153-.05,9.185-.05m-23.01-.062.05-.445c.181-1.629.163-2.87-.519-3.632a3.839,3.839,0,0,0-2.933-.846q-8.982-.009-17.966-.009t-17.955.009a3.81,3.81,0,0,0-3.082,1.016c-.727.938-.484,2.38-.191,3.531l.1.376ZM65.705,82.6l-.187-.64c-.148-.508-.3-.992-.446-1.462a30.442,30.442,0,0,1-.863-3.118,2.23,2.23,0,0,0-2.428-2.105c-.115,0-.234,0-.36.012-.757.053-1.563.1-2.362.1a12.572,12.572,0,0,1-2.1-.157c-.254-.055-.485-.237-.939-.724l-.344-.37.373-.34a6.751,6.751,0,0,1,1.117-.87l.147-.085s.451.056.579.068c.182.018.363.034.533.034h9.338q6.066,0,12.129-.006c.541,0,1.081-.038,1.607-.075l1.15-.069V67.1H14.607l-.068.42c-.4,2.466-.581,3.79.105,4.6.67.788,1.993.827,4.273.827H48.052c.97,0,1.477.113,1.749.393a1.1,1.1,0,0,1,.246.828c-.022.976-.623,1.148-1.876,1.148L47.05,75.3c-.488-.009-.974-.018-1.46-.018-.793,0-1.442.024-2.043.073a2.412,2.412,0,0,0-1.877,1.211c-.457,1.234-.8,2.492-1.173,3.825l-.057.205c-.124.446-.25.9-.384,1.365l-.184.638ZM82.82,64.506c0-.861,0-2.593-.008-3.268-.009-2.123-.018-4.065.02-6.041.051-2.655,1.633-4.224,4.341-4.305.425-.013.85-.017,1.285-.017l2.818.011V44.268c0-7.4,0-14.659,0-21.923,0-1.44-.839-2.141-2.56-2.141H73.23V42.365q0,6.585,0,13.169c0,4.44-1.175,5.589-5.692,5.59H14.4v3.381ZM2.476,18.135c-.025.251-.051.473-.074.675a9.361,9.361,0,0,0-.089,1.09V31.049c0,8.124.006,16.524-.038,24.783a3.145,3.145,0,0,0,.68,2.254,3.317,3.317,0,0,0,2.411.7q18.253-.043,36.464-.034H67.637c3.038,0,3.352-.309,3.353-3.306q.008-17.529,0-35.058c0-.477-.028-.955-.057-1.474l-.06-1.234c-3.413,0-24.135,0-28.571-.005-.18,0-.355.006-.532.013s-.334.012-.5.012a2.257,2.257,0,0,1-.913-.143,2.036,2.036,0,0,1-.834-.854l-.1-.209.1-.209a2.249,2.249,0,0,1,.868-.878,1.458,1.458,0,0,1,.659-.11c.157,0,.32.008.481.017.206.011.388.021.565.021l28.9,0L71,13.669c.007-.767.013-1.453-.014-2.138-.079-2-.173-4-.269-6l-.128-2.7-.451-.026c-.862-.047-1.724-.107-2.587-.167-1.86-.129-3.762-.26-5.641-.266Q50.7,2.348,39.5,2.353l-26.466.01-3.392.005c-1.573,0-3.143,0-4.716-.02a2.794,2.794,0,0,0-2.053.615,2.29,2.29,0,0,0-.564,1.7c.018,2.309.015,4.619.011,7.044l0,3.632H30.9c.19,0,.39-.017.591-.034s.35-.032.5-.032a1.176,1.176,0,0,1,.336.039,1.231,1.231,0,0,1,.741,1.079,1.357,1.357,0,0,1-.615,1.221l-.232.141-.274,0c-.145,0-.3-.013-.451-.027-.257-.024-.459-.042-.649-.042H2.519Z" fill="#fff"/>
    <path id="Path_11834" data-name="Path 11834" d="M19.174,52.6q-3.924,0-7.847-.029c-2.142-.015-2.869-.725-2.881-2.813-.042-7.367-.043-14.886,0-22.986.009-2.184.77-2.928,3.015-2.947q3.882-.034,7.765-.034,3.78,0,7.559.034c2.243.021,2.931.715,2.947,2.969.019,2.723.015,5.446.011,8.169l0,3.433,0,3.35c0,2.6.007,5.209-.009,7.814-.015,2.32-.656,3-2.86,3.012q-3.846.028-7.7.028m8.19-26.308H10.917V50.221H27.364Z" fill="#fff"/>
    <path id="Path_11835" data-name="Path 11835" d="M50.36,40.42l-6.789.009q-2.229,0-4.454-.015c-2.469-.02-3.152-.709-3.172-3.205-.007-.862,0-1.724,0-2.585v-.135c0-1.064.007-2.129-.01-3.193a3,3,0,0,1,.654-2.12,2.483,2.483,0,0,1,1.827-.64q6-.045,12.006-.044,5.923,0,11.846.038a2.549,2.549,0,0,1,1.867.644,2.837,2.837,0,0,1,.657,2.079c-.009.919,0,1.837,0,2.755,0,1.2.01,2.391-.012,3.586-.039,2.027-.827,2.789-2.908,2.814q-2.354.027-4.709.024Zm12.017-9.433H38.391v6.942H62.377Z" fill="#fff"/>
    <path id="Path_11836" data-name="Path 11836" d="M96.985,87.9a.934.934,0,1,1,.934-.934.935.935,0,0,1-.934.934" fill="#fff"/>
    <path id="Path_11837" data-name="Path 11837" d="M64.729,10.486a.933.933,0,1,1,.934-.934.935.935,0,0,1-.934.934" fill="#fff"/>
    <path id="Path_11838" data-name="Path 11838" d="M58.277,10.486a.934.934,0,1,1,.935-.934.935.935,0,0,1-.935.934" fill="#fff"/>
    <rect id="Rectangle_624" data-name="Rectangle 624" width="28.863" height="4.213" rx="1.681" transform="translate(35.933 47.614)" fill="#fff"/>
    <path id="Path_11839" data-name="Path 11839" d="M6.242,9.907l.073-1.366,7.913.022L14.16,9.907Z" fill="#fff"/>
  </g>
</svg>
