<svg id="Group_2565" data-name="Group 2565" xmlns="http://www.w3.org/2000/svg" xmlns:xlink="http://www.w3.org/1999/xlink" width="60.501" height="89.328" viewBox="0 0 60.501 89.328">
  <defs>
    <clipPath id="clip-path">
      <rect id="Rectangle_655" data-name="Rectangle 655" width="60.501" height="89.328" fill="#fff"/>
    </clipPath>
  </defs>
  <g id="Group_2564" data-name="Group 2564" transform="translate(0 0)" clip-path="url(#clip-path)">
    <path id="Path_11984" data-name="Path 11984" d="M28.609,89.328q-9.237,0-18.468-.024C2.807,89.284.07,86.512.046,79.079c-.031-8.013-.1-64.3.024-70.634C.172,3.188,3.188.2,8.566.042,9.209.022,12.3,0,23.383,0,33.2,0,45.054.018,49.868.029,58,.046,60.485,2.532,60.492,10.661q.017,34.03,0,68.063c0,7.9-2.719,10.573-10.761,10.584q-10.559.017-21.12.02m1.871-3.06q9.782,0,19.565.117h.018c1.822,0,4.151-.2,5.8-1.864,1.663-1.685,1.831-4.083,1.811-5.739-.1-8.075-.082-16.293-.064-24.24l.013-9.533q0-4.838-.013-9.681c-.02-8.057-.042-16.388.068-24.573.022-1.791-.148-4.376-1.888-6.14C54.519,3.327,52.659,2.7,50.11,2.7c-6.632.077-13.07.11-19.505.11q-10.129,0-20.252-.095h0c-2.664,0-4.5.617-5.761,1.884C2.886,6.308,2.7,8.718,2.705,10.384c.095,23.4.095,46.462,0,68.545-.011,2.509.586,4.336,1.829,5.583,1.666,1.672,4.08,1.866,5.753,1.866,6.868-.071,13.532-.11,20.2-.11" transform="translate(0 0)" fill="#fff"/>
    <path id="Path_11985" data-name="Path 11985" d="M7.6,30.544c-1.633,0-1.714-.084-1.716-1.756s0-3.336.007-5c0-1.212.531-1.227.879-1.236H6.8c.416,0,.895.031.921,1.234.015.82.011,1.639.009,2.49l0,2.329H38.615l-.007-2.395c-.009-.917-.018-1.813.015-2.708.026-.731.3-.895.8-.936h.02c.692,0,.969.289.98.879q.066,3.034,0,6.072c-.013.639-.11,1.027-1.333,1.031l-6.275.007Z" transform="translate(7.078 27.131)" fill="#fff"/>
    <path id="Path_11986" data-name="Path 11986" d="M17.56,37.807c-.159,0-.474-.123-1.06-.705q-2.72-2.707-5.418-5.431a1.561,1.561,0,0,1-.546-.991.76.76,0,0,1,.291-.564.887.887,0,0,1,.566-.308,1.643,1.643,0,0,1,.983.6c.465.469.9.967,1.34,1.465l2.893,2.855.029-2.459V12.754c0-.943.2-1.108.476-1.238a1.229,1.229,0,0,1,.509-.123c.52,0,.857.452.866,1.15.029,2.465.026,4.933.024,7.4L18.5,30.565c0,.273-.077,4.514-.077,4.514l2.368-2.516.639-.709c.46-.513.919-1.025,1.4-1.509a1.517,1.517,0,0,1,.921-.538.826.826,0,0,1,.544.289c.192.194.65.648-.172,1.485q-2.723,2.773-5.484,5.51c-.632.624-.952.716-1.086.716" transform="translate(12.677 13.708)" fill="#fff"/>
  </g>
</svg>
