<svg xmlns="http://www.w3.org/2000/svg" viewBox="0 0 172.51 172.51"><defs><style>.cls-1{fill:#fff;}.cls-2{fill:#231f20;}</style></defs><title>30Asset 3</title><g id="Layer_2" data-name="Layer 2"><g id="Layer_2-2" data-name="Layer 2"><rect class="cls-1" width="172.51" height="172.51"/></g><g id="Layer_1-2" data-name="Layer 1"><path class="cls-2" d="M124,14.85c-9.27,0-10.73,9.62-10.73,20.41S114.72,55.68,124,55.68s10.73-9.55,10.73-20.42S133.2,14.85,124,14.85Z"/><path class="cls-2" d="M158.81,59a46.54,46.54,0,0,1-12.32-1.87l-.42-11.42h2c.83,3.53,2.42,10,11.49,10,6,0,9.41-3.25,9.41-7.48,0-6.78-8.1-9.27-14.46-13.35-4.15-2.7-7.55-6-7.55-11.56,0-7.47,5.75-11.77,15.85-11.77a58.13,58.13,0,0,1,9.69,1V0H0V37.87l20.44-4.34,23.8,3.71L0,48.77V65.54l44.24-12.4L67.42,58,0,80.78v17.7l67.42-24,26,5.45L0,118.29v19.83L93.38,97.28l25.65,6.1L0,164.63v7.88H22.67L119,121.77l26.58,5.72-61.37,45h88.27V55.44C169.29,57.94,164.49,59,158.81,59ZM83.74,59a46.69,46.69,0,0,1-12.32-1.87L71,45.71h2c.83,3.53,2.42,10,11.48,10,6,0,9.42-3.25,9.42-7.48,0-6.78-8.1-9.27-14.47-13.35-4.15-2.7-7.54-6-7.54-11.56,0-7.47,5.74-11.77,15.85-11.77A66.55,66.55,0,0,1,99,12.77l.41,10.73h-2c-.56-3.74-2.36-8.65-9.69-8.65-5.61,0-8.72,2.83-8.72,6.43,0,6.79,11.76,10,16.95,14,3.39,2.63,5.82,5.68,5.82,10.38C101.81,55.4,94.26,59,83.74,59ZM124,59c-14.39,0-18.89-9-18.89-23.74S109.6,11.52,124,11.52s18.89,9,18.89,23.74S138.46,59,124,59Z"/><path class="cls-2" d="M162.82,14.85c-5.6,0-8.72,2.83-8.72,6.43,0,6.79,11.77,10,17,14,.51.4,1,.81,1.45,1.23v-13C172,19.76,170.16,14.85,162.82,14.85Z"/></g></g></svg>