<svg width="20" height="27" viewBox="0 0 20 27" fill="none" xmlns="http://www.w3.org/2000/svg">
<path d="M10 0C7.34891 0.00351673 4.80742 1.05821 2.93282 2.93282C1.05821 4.80742 0.00351673 7.34892 0 10C0 17.1792 9.31667 26.1708 9.7125 26.55C9.78949 26.6248 9.89263 26.6667 10 26.6667C10.1074 26.6667 10.2105 26.6248 10.2875 26.55C10.6833 26.1708 20 17.1792 20 10C19.9965 7.34892 18.9418 4.80742 17.0672 2.93282C15.1926 1.05821 12.6511 0.00351673 10 0V0ZM10 14.5833C9.0935 14.5833 8.20736 14.3145 7.45364 13.8109C6.69991 13.3073 6.11245 12.5915 5.76555 11.754C5.41865 10.9165 5.32789 9.99492 5.50473 9.10584C5.68158 8.21676 6.1181 7.40008 6.75909 6.75909C7.40008 6.1181 8.21676 5.68158 9.10584 5.50473C9.99492 5.32789 10.9165 5.41865 11.754 5.76555C12.5915 6.11245 13.3073 6.69991 13.8109 7.45364C14.3145 8.20736 14.5833 9.0935 14.5833 10C14.5826 11.2154 14.0995 12.3807 13.2401 13.2401C12.3807 14.0995 11.2154 14.5826 10 14.5833Z" fill="white"/>
</svg>
