<?xml version="1.0" encoding="utf-8"?>
<!-- Generator: Adobe Illustrator 15.1.0, SVG Export Plug-In  -->
<!DOCTYPE svg PUBLIC "-//W3C//DTD SVG 1.1//EN" "http://www.w3.org/Graphics/SVG/1.1/DTD/svg11.dtd" [
	<!ENTITY ns_flows "http://ns.adobe.com/Flows/1.0/">
]>
<svg version="1.1"
	 xmlns="http://www.w3.org/2000/svg" xmlns:xlink="http://www.w3.org/1999/xlink" xmlns:a="http://ns.adobe.com/AdobeSVGViewerExtensions/3.0/"
	 x="0px" y="0px" width="175px" height="68px" viewBox="-0.4 0 175 68" enable-background="new -0.4 0 175 68" xml:space="preserve"
	>
<defs>
</defs>
<g>
	<g>
		<path fill="#252B56" d="M72.7,19.4v9.2h-7.5V2.5h18.3v6.3H72.7v4.2h9.4v6.3H72.7z"/>
		<path fill="#252B56" d="M99.7,12.7c6.5,1.8,8.4,4.4,8.4,8.3c0,6-5.1,8.1-11.7,8.1c-4.4,0-8.2-1-11.2-2.9l2.5-5.7
			c2.5,1.4,5.1,2.3,8.3,2.3c3.3,0,4.4-0.4,4.4-1.5c0-1.2-0.9-1.8-6.3-3.4c-5.7-1.6-7.7-4.2-7.7-8.1c0-5,3.8-7.8,10.9-7.8
			c3.7,0,6.8,0.7,10.1,2.8l-2.8,5.3c-2.3-1.2-4.3-1.9-6.9-1.9c-2.7,0-3.5,0.5-3.5,1.7C94.2,11,95.3,11.4,99.7,12.7z"/>
		<path fill="#252B56" d="M140.1,2.5v26.1h-7.3V13.4l-5.4,8.2h-3.2l-5.4-8.2v15.2h-7.3V2.5h7l7.3,10.6l7.3-10.6H140.1z"/>
	</g>
</g>
<g>
	<g>
		<path fill="#252B56" d="M79.3,66.2L73,68c-0.9-2.6-2.6-4.2-6-4.2c-2.7,0-4.5,0.6-6.8,1.7l-3.9-3.9l4.6-9.1c-1.7-1.5-3-3.6-3-5.9
			c0-5.2,5.1-8.6,10.4-8.6c1.3,0,2.5,0.2,3.7,0.6l1.4-2.9l5.9,1.6l-2.3,4.5c1,1.3,1.6,2.9,1.6,4.7c0,5.1-5.1,8.3-10.4,8.3
			c-0.6,0-1.2,0-1.8-0.1l-2.2,4.4c1.2-0.5,2.5-0.7,4.6-0.7C73.7,58.3,77.6,61,79.3,66.2z M64.6,46.4c0,2.1,1.4,3.5,3.5,3.5
			c2.1,0,3.5-1.4,3.5-3.5c0-2-1.4-3.3-3.5-3.3C66.1,43.1,64.6,44.3,64.6,46.4z"/>
		<path fill="#252B56" d="M88.5,33.3v23.8h-6.8V33.3H88.5z"/>
		<path fill="#252B56" d="M114.2,47.8c0,5.7-5.5,9.9-11.4,9.9c-5.9,0-11.4-4.1-11.4-9.9c0-5.7,5.5-9.8,11.4-9.8
			C108.7,37.9,114.2,42.1,114.2,47.8z M107.2,47.8c0-2.6-1.8-4.2-4.4-4.2c-2.6,0-4.4,1.6-4.4,4.2c0,2.6,1.8,4.3,4.4,4.3
			C105.4,52.1,107.2,50.4,107.2,47.8z"/>
		<path fill="#252B56" d="M139,46.9c0,5.4-3.8,9-9.4,9c-2.4,0-4.7-1.2-5.7-2.7v4h-6.8V33.3h6.8v7.3c1.1-1.5,3.4-2.7,5.7-2.7
			C135.2,37.9,139,41.5,139,46.9z M132,46.9c0-2.3-1.7-3.6-4.1-3.6c-2.1,0-3.9,1.1-4.3,3v1.1c0.3,1.9,2.2,3,4.3,3
			C130.3,50.5,132,49.2,132,46.9z"/>
		<path fill="#252B56" d="M163.6,38.4v18.7h-6.8v-2.3c-1.2,1.5-3.2,2.8-5.9,2.8c-5.4,0-9.7-4.8-9.7-10c0-5.4,4.2-9.8,9.7-9.8
			c2.6,0,4.7,1.3,5.9,2.8v-2.3H163.6z M157.1,47.2c-0.4-2.2-2.1-3.7-4.4-3.7c-3,0-4.5,1.5-4.5,4.2c0,2.4,1.7,4.4,4.5,4.4
			c2.2,0,4-1.4,4.4-3.7V47.2z"/>
		<path fill="#252B56" d="M174.1,33.3v23.8h-6.8V33.3H174.1z"/>
	</g>
</g>
<g>
	<g>
		<path fill="#19499A" d="M0,30.7c0.1,2.4,1.9,4.1,4.8,4.3c12.1,0.9,23.5,4.5,34.2,10c2.2,1.1,4.3,2.4,6.2,4.1
			c1.3,1.2,2.1,1,3.2-0.3c4.6-5.8,5-5.4-1.6-9.6c-6.7-4.2-14.2-6.9-21.9-9.2c-6.6-1.9-13.2-3.6-20.1-3.5C1.7,26.7-0.1,28.3,0,30.7z"
			/>
		<path fill="#E52629" d="M56.2,32.5c-0.1-2.4-1.6-3.3-3-4.2c-6.8-4.1-14.1-7.2-21.6-9.6c-5.4-1.8-10.9-2.9-16.4-4.1
			C12,14,9.4,15.4,8.8,18c-0.6,2.9,0.9,5,4.2,5.6c11,2.1,21.6,5.5,31.7,10.5c2.5,1.2,5,2.5,7,4.4c1.6,1.5,2.6,1.1,3.1-0.9
			C55.4,35.8,55.8,33.9,56.2,32.5z"/>
		<path fill="#19499A" d="M7.9,38.6C5.7,38.7,4,40,3.8,42.3c-0.1,2.4,1.5,3.7,3.9,4.1c5.6,0.8,11.1,2.1,16.3,4.2
			c3.4,1.3,7,2.6,9.7,5c2.7,2.4,4.7,2,7.3,0.1c3.2-2.4,3.3-3,0-5.1c-9.8-6.3-20.6-10-32-11.8C8.7,38.7,8.4,38.7,7.9,38.6z"/>
		<path fill="#19499A" d="M56.4,23.7c0.7-5.6-3.2-7.7-7.2-9.7c-6.9-3.4-14.1-6.1-21.6-8.2c-0.8-0.2-1.5-0.3-2.3-0.5
			c-2.4-0.6-4.4-0.1-5.2,2.5c-0.8,2.6,0.6,4.1,3,4.9c4.9,1.6,9.9,2.7,14.7,4.6c5.5,2.2,11.1,4.3,15.9,7.9c0.7,0.5,1.4,1.4,2.3,0.8
			C56.8,25.4,56.4,24.4,56.4,23.7z"/>
		<path fill="#19499A" d="M36.4,0c-2,0-3.1,0.8-3.4,2.2c-0.3,1.6,0.6,2.7,2,3.3c2.1,0.9,4.2,1.6,6.4,2.4c4,1.5,7.8,3.3,11.3,5.9
			c0.4,0.3,0.8,0.8,1.3,0.4c0.8-0.5,0.2-1.2,0-1.9c-1.6-5-5.7-7.4-10.1-9.3C41.2,1.8,38.5,0.8,36.4,0z"/>
		<path fill="#19499A" d="M26.4,61.3c2-0.7,5.1-0.1,5.7-2.2c0.6-2-2.4-2.7-4-3.7c-3.2-2.1-6.8-3.1-10.3-4.4c-1.6-0.6-3-0.4-3.7,1.3
			c-0.7,1.7,0.1,3,1.6,3.6c3.3,1.3,6.6,2.7,9.3,5C25.3,61.2,25.9,61.1,26.4,61.3z"/>
	</g>
</g>
</svg>
