<svg width="120" height="119" viewBox="0 0 120 119" fill="none" xmlns="http://www.w3.org/2000/svg">
<path d="M60.02 99.7058C56.528 99.7058 53.028 99.6816 49.5361 99.722C48.5373 99.73 47.8064 99.3907 47.1242 98.6717C44.5825 95.9732 42.9989 92.9112 42.739 89.122C42.536 86.1569 41.1799 83.5231 39.442 81.1316C38.1996 79.4269 36.8759 77.7787 35.5197 76.1629C30.8503 70.6044 29.6322 64.0844 30.2006 57.104C31.2401 44.4519 41.1068 33.4399 54.8227 31.1211C71.259 28.3419 86.7047 38.9418 89.4576 54.6802C90.8787 62.7998 89.5875 70.4186 83.9111 76.882C82.8879 78.0454 81.9378 79.2653 81.0039 80.5015C78.7301 83.515 77.3252 86.8517 77.041 90.6571C76.7811 94.1715 74.7022 96.765 72.3553 99.1403C71.9737 99.5281 71.2022 99.6735 70.6094 99.6816C67.0769 99.73 63.5525 99.7058 60.02 99.7058Z" fill="#6AB3FA"/>
<path d="M59.9143 109.183C56.8122 109.183 53.7101 109.183 50.6079 109.183C49.3167 109.183 48.5615 108.593 48.529 107.591C48.4965 106.565 49.3005 105.895 50.6242 105.895C56.9015 105.895 63.1707 105.895 69.448 105.895C70.7149 105.895 71.4701 106.541 71.4701 107.551C71.4701 108.561 70.7149 109.167 69.4318 109.183C69.2206 109.183 69.0095 109.183 68.7984 109.183C65.8343 109.183 62.8784 109.183 59.9143 109.183Z" fill="#CDCDCD"/>
<path d="M60.0362 101.184C63.1708 101.184 66.3054 101.184 69.44 101.184C70.7393 101.184 71.4701 101.782 71.4701 102.8C71.4701 103.81 70.7393 104.416 69.44 104.416C63.1302 104.424 56.8285 104.424 50.5187 104.416C49.2518 104.416 48.4966 103.745 48.5372 102.744C48.5778 101.766 49.2924 101.192 50.5187 101.184C53.6857 101.184 56.861 101.184 60.028 101.184H60.0362Z" fill="#CDCDCD"/>
<path d="M60.0121 113.893C57.3647 113.893 54.7255 113.893 52.0781 113.893C50.8438 113.893 50.2104 113.311 50.2266 112.253C50.2429 111.195 50.86 110.669 52.1269 110.669C57.381 110.669 62.6351 110.669 67.8892 110.669C69.1398 110.669 69.7895 111.211 69.8057 112.253C69.8219 113.327 69.156 113.893 67.8405 113.901C65.2337 113.901 62.6189 113.901 60.0121 113.901V113.893Z" fill="#CDCDCD"/>
<path d="M59.9879 118.644C58.786 118.644 57.5842 118.652 56.3904 118.644C55.0992 118.627 54.3927 118.03 54.409 116.979C54.4252 115.969 55.1073 115.363 56.3336 115.355C58.8023 115.339 61.271 115.339 63.7478 115.355C64.9334 115.363 65.6562 116.026 65.6481 117.02C65.6318 118.005 64.9091 118.627 63.7072 118.636C62.4728 118.652 61.2385 118.636 60.0041 118.636L59.9879 118.644Z" fill="#CDCDCD"/>
<path d="M33.9687 88.0395C33.7089 88.4919 33.4409 89.2272 32.9537 89.7765C29.4293 93.7515 25.8805 97.7104 22.2993 101.637C20.8294 103.253 19.0835 103.406 17.7679 102.146C16.3955 100.829 16.5335 99.0434 18.2145 97.5326C22.1368 94.0101 26.0592 90.4956 30.0383 87.0377C30.6068 86.5368 31.4351 86.1813 32.1903 86.0763C33.3028 85.9228 33.7901 86.7226 33.9687 88.0314V88.0395Z" fill="#FBF2D3"/>
<path d="M88.2319 86.0278C88.5648 86.2136 89.2957 86.4883 89.8398 86.965C93.8352 90.4713 97.8143 94.002 101.769 97.5488C103.393 99.0111 103.548 100.748 102.273 102.065C100.965 103.414 99.1462 103.269 97.6357 101.613C94.0626 97.678 90.5138 93.7192 86.9894 89.7442C86.5915 89.2918 86.2667 88.7101 86.1124 88.1364C85.8038 86.9811 86.6077 86.052 88.2238 86.0278H88.2319Z" fill="#FBF2D3"/>
<path d="M88.3698 33.4804C86.7781 33.44 85.9417 32.3493 86.3315 31.1616C86.5345 30.5476 86.9405 29.9659 87.3709 29.4731C90.7735 25.6435 94.1761 21.8139 97.6599 18.0571C98.3014 17.3623 99.2922 16.6109 100.145 16.5867C101.03 16.5624 102.248 17.1765 102.743 17.9036C103.206 18.5742 103.028 19.778 102.882 20.7071C102.808 21.1918 102.248 21.6362 101.826 22.0159C97.9766 25.4658 94.1193 28.9156 90.2213 32.325C89.596 32.8663 88.8002 33.2138 88.3698 33.4723V33.4804Z" fill="#FBF2D3"/>
<path d="M19.7822 16.724C20.2695 17.031 21.2115 17.3784 21.8205 18.0409C25.483 22.0159 29.0723 26.0636 32.6779 30.0952C32.8403 30.2729 33.0758 30.4749 33.084 30.6688C33.1164 31.5171 33.3844 32.5432 33.0028 33.1653C32.4262 34.1105 31.273 33.957 30.4528 33.3107C29.0236 32.1877 27.6674 30.9677 26.3113 29.7639C23.4041 27.1947 20.505 24.6255 17.6302 22.0159C16.6476 21.1272 16.1441 20.0204 16.6882 18.6711C17.1673 17.4835 18.0931 16.9099 19.7822 16.724Z" fill="#FBF2D3"/>
<path d="M112.642 62.6464C108.712 62.4202 104.781 62.1859 100.851 61.9758C98.9263 61.8708 97.8381 61.1921 97.7894 60.0207C97.7406 58.7926 98.8613 58.0655 100.875 57.9524C106.097 57.6696 111.327 57.3545 116.548 57.096C118.302 57.0071 119.439 57.7423 119.853 59.0511C120.438 60.8932 119.22 62.711 117.247 62.8161C115.72 62.8969 114.177 62.8322 112.642 62.8322C112.642 62.7757 112.642 62.711 112.642 62.6545V62.6464Z" fill="#FBF2D3"/>
<path d="M57.3648 4.97682C57.3648 4.30624 57.3486 3.63566 57.3648 2.97316C57.4135 1.17957 58.5098 0.024243 60.1746 5.32577e-06C61.9205 -0.0242324 63.1955 1.13918 63.1224 2.97316C62.9519 7.55409 62.6595 12.135 62.4159 16.7079C62.3672 17.6612 62.3266 18.6146 62.2535 19.5679C62.1398 21.0141 61.3602 22.0078 60.3208 22.0563C59.2163 22.1048 58.3637 21.1111 58.2662 19.5679C57.9576 14.7042 57.6815 9.84052 57.3973 4.97682C57.3811 4.97682 57.3729 4.97682 57.3567 4.97682H57.3648Z" fill="#FBF2D3"/>
<path d="M7.04883 62.8403C5.75764 62.8403 4.45832 62.8484 3.16712 62.8403C1.19379 62.8161 -0.00807984 61.7011 4.08927e-05 59.9156C0.00816162 58.2028 1.20191 57.0071 3.09404 57.096C8.70546 57.3464 14.3169 57.6615 19.9202 58.0009C21.2682 58.0817 22.194 59.0027 22.1777 59.9964C22.1534 61.0386 21.1627 61.8547 19.709 61.9354C15.4944 62.1859 11.2716 62.4121 7.05695 62.6545V62.8322L7.04883 62.8403Z" fill="#FBF2D3"/>
<path d="M58.615 94.7613H56.9016C56.7473 92.2729 56.6011 89.8249 56.4549 87.385C56.1138 81.7457 55.7647 76.1063 55.4561 70.467C55.4155 69.7965 55.1312 69.5783 54.5709 69.2794C53.2147 68.5684 51.818 67.8413 50.6892 66.8395C49.3736 65.668 48.9026 64.0036 49.195 62.2262C49.5036 60.3518 50.9491 59.1884 52.9143 59.1723C54.8064 59.1561 56.3493 60.2953 56.6092 62.1131C56.8609 63.8421 56.934 65.6033 57.0152 67.3565C57.0477 68.0029 57.2183 68.3341 57.9085 68.326C59.2809 68.3099 60.6452 68.3099 62.0176 68.3422C62.781 68.3584 63.0246 68.0594 63.0489 67.2838C63.0977 65.6033 63.2114 63.9148 63.4144 62.2505C63.593 60.7558 64.5269 59.7378 65.9643 59.3258C67.4017 58.9218 68.7903 59.148 69.8785 60.2549C71.1372 61.5314 71.1616 63.0826 70.6662 64.6742C69.9028 67.1142 67.9863 68.3988 65.7288 69.2148C64.9086 69.5137 64.6081 69.8934 64.5675 70.7498C64.2021 77.4798 63.7961 84.2017 63.3981 90.9317C63.3251 92.184 63.2357 93.4444 63.1464 94.7613H61.441C61.912 86.5609 62.3912 78.3605 62.8703 70.1196H57.1939C57.6649 78.2716 58.1359 86.472 58.6231 94.7775L58.615 94.7613ZM64.7705 67.5908C67.3692 67.0657 69.2613 64.9812 69.1801 62.8483C69.1395 61.7738 68.4249 60.9901 67.3773 60.877C66.281 60.7558 65.2578 61.4021 65.136 62.4767C64.9411 64.1652 64.8923 65.8619 64.7705 67.5989V67.5908ZM55.2937 67.6393C55.18 65.9023 55.115 64.2622 54.9526 62.6383C54.8308 61.4748 53.8806 60.772 52.7437 60.8689C51.6068 60.9659 50.8841 61.798 50.8841 63.0018C50.8841 65.0459 52.5651 66.8637 55.3018 67.6393H55.2937Z" fill="white"/>
</svg>
