<?xml version="1.0" encoding="utf-8"?>
<!-- Generator: Adobe Illustrator 15.1.0, SVG Export Plug-In  -->
<!DOCTYPE svg PUBLIC "-//W3C//DTD SVG 1.1//EN" "http://www.w3.org/Graphics/SVG/1.1/DTD/svg11.dtd" [
	<!ENTITY ns_flows "http://ns.adobe.com/Flows/1.0/">
]>
<svg version="1.1"
	 xmlns="http://www.w3.org/2000/svg" xmlns:xlink="http://www.w3.org/1999/xlink" xmlns:a="http://ns.adobe.com/AdobeSVGViewerExtensions/3.0/"
	 x="0px" y="0px" width="171px" height="43px" viewBox="-0.5 -0.7 171 43" enable-background="new -0.5 -0.7 171 43"
	 xml:space="preserve">
<defs>
</defs>
<path fill="#202E59" d="M54.1,24.9v6.5h-5.4V12.9H62v4.5h-7.9v3h6.9v4.5H54.1z"/>
<path fill="#202E59" d="M73.8,20.2c4.8,1.3,6.1,3.1,6.1,5.9c0,4.3-3.7,5.7-8.6,5.7c-3.2,0-6-0.7-8.2-2.1l1.9-4.1
	c1.8,1,3.8,1.7,6.1,1.7c2.4,0,3.2-0.3,3.2-1c0-0.9-0.7-1.3-4.6-2.4c-4.1-1.1-5.6-3-5.6-5.7c0-3.5,2.7-5.6,8-5.6c2.7,0,5,0.5,7.3,2
	l-2.1,3.8c-1.7-0.9-3.1-1.3-5-1.3c-2,0-2.6,0.3-2.6,1.2C69.7,18.9,70.6,19.3,73.8,20.2z"/>
<path fill="#202E59" d="M103.3,12.9v18.5h-5.3V20.7l-4,5.8h-2.3l-3.9-5.8v10.8h-5.3V12.9h5.1l5.3,7.6l5.4-7.6H103.3z"/>
<path fill="#202E59" d="M130.5,31.5h-6.8l-4.7-5.4v5.4h-5.4V12.9h7.9c4.1,0,7.3,2.7,7.3,6.2c0,3-1.5,4.7-4.3,5.9L130.5,31.5z
	 M123.2,19.6c0-1.5-0.8-2.3-2.3-2.3H119v4.8h1.7C122.5,22.1,123.2,21.5,123.2,19.6z"/>
<path fill="#202E59" d="M137.7,17.4v2.4h7.9v4.4h-7.9V27h8.2v4.5h-13.7V12.9h13.6v4.5H137.7z"/>
<path fill="#202E59" d="M169.9,22.2c0,5.4-5.1,9.6-10.8,9.6c-5.7,0-10.8-4.2-10.8-9.6c0-5.4,5.1-9.6,10.8-9.6
	C164.8,12.6,169.9,16.8,169.9,22.2z M164.1,22.2c0-2.8-2.2-4.8-5-4.8c-2.8,0-5,2.1-5,4.8c0,2.8,2.2,4.8,5,4.8
	C161.9,27,164.1,25,164.1,22.2z"/>
<path fill="#EFA231" d="M3.1,30.7c-4.8-5.9-4-14.4,1.9-19.2l10.1-8.2c3.8-3.1,9.1-4,13.8-2.4h0c4.4,1.5,7.7,5,8.9,9.4
	c2.1,7.9,2.6,20.5-11.6,29.3c-6,3.7-14,2.4-18.5-3.1"/>
<path fill="#EFA231" d="M7.9,36.4l-4.7-5.7"/>
<path fill-rule="evenodd" clip-rule="evenodd" fill="#FFFFFF" d="M30.4,28.8H11V16l9.7-6.1l9.7,6.1V28.8z M27.5,17.6l-6.8-4.3
	l-6.8,4.3V26h13.6V17.6z"/>
</svg>
