<svg id="Group_3106" data-name="Group 3106" xmlns="http://www.w3.org/2000/svg" xmlns:xlink="http://www.w3.org/1999/xlink" width="563" height="118.528" viewBox="0 0 563 118.528">
  <defs>
    <clipPath id="clip-path">
      <rect id="Rectangle_867" data-name="Rectangle 867" width="563" height="118.528" fill="none"/>
    </clipPath>
  </defs>
  <g id="Group_3105" data-name="Group 3105" transform="translate(0 0)" clip-path="url(#clip-path)">
    <path id="Path_12779" data-name="Path 12779" d="M21.795,103.764,8.649,87.512a39.522,39.522,0,0,1,5.5-54.97L42.35,9.121A40.019,40.019,0,0,1,80.827,2.19a39.287,39.287,0,0,1,24.858,26.768c5.975,22.465,7.169,58.554-32.027,83.65a39.806,39.806,0,0,1-51.864-8.843" transform="translate(-0.001 0.001)" fill="#e20067"/>
    <path id="Path_12780" data-name="Path 12780" d="M71.249,48.895v18.1H56.591v-51.3H92.576v12.46H71.249v8.28H89.79v12.46Z" transform="translate(85.061 23.589)" fill="#fff"/>
    <path id="Path_12781" data-name="Path 12781" d="M100.864,36.275c12.826,3.589,16.563,8.573,16.563,16.343,0,11.8-9.967,15.9-23.086,15.9-8.646,0-16.122-2.053-22.057-5.79l4.981-11.286A32.191,32.191,0,0,0,93.61,56.061c6.448,0,8.646-.733,8.646-2.858,0-2.418-1.832-3.592-12.385-6.6C78.732,43.456,74.7,38.4,74.7,30.705c0-9.82,7.4-15.391,21.471-15.391a35.407,35.407,0,0,1,19.787,5.424l-5.569,10.408a26.68,26.68,0,0,0-13.557-3.667c-5.276,0-6.964.954-6.964,3.3,0,2.125,2.273,3,10.993,5.5" transform="translate(108.648 23.018)" fill="#fff"/>
    <path id="Path_12782" data-name="Path 12782" d="M149.218,15.694v51.3H134.856V37.1l-10.7,16.05h-6.3L107.227,37.1v29.9H92.864v-51.3h13.849l14.365,20.888,14.435-20.888Z" transform="translate(139.581 23.59)" fill="#fff"/>
    <rect id="Rectangle_866" data-name="Rectangle 866" width="14.655" height="51.3" transform="translate(316.641 39.283)" fill="#fff"/>
    <path id="Path_12783" data-name="Path 12783" d="M174.929,38.89V58.9H161.593V38.89c0-5.059-1.174-6.816-5.5-6.816-3.882,0-6.448,2.783-7.179,7.181V58.9H135.576V22.034h12.973V26.5a14.835,14.835,0,0,1,11.577-5.422c10.408,0,14.8,6.448,14.8,17.807" transform="translate(203.78 31.689)" fill="#fff"/>
    <path id="Path_12784" data-name="Path 12784" d="M175.391,36.471c6.741,2.273,11.432,4.909,11.432,11.579,0,9.306-7.4,11.8-16.931,11.8-7.109,0-12.092-1.467-16.781-4.105l4.03-9.306a27.15,27.15,0,0,0,11.437,3.444c3.662,0,4.686-.513,4.686-1.539,0-1.612-1.9-2.418-8.057-4.618-5.5-1.977-10.408-4.761-10.408-11.066,0-8.793,7.915-11.577,17-11.577,6.3,0,10.7,1.244,14.948,3.81l-4.323,8.721a18.947,18.947,0,0,0-9.747-2.638c-3.519,0-4.323.513-4.323,1.612,0,1.392,1.171,1.9,7.036,3.885" transform="translate(230.136 31.688)" fill="#fff"/>
    <path id="Path_12785" data-name="Path 12785" d="M183.7,20.725c0,4.105-3.079,7.109-7.694,7.109s-7.7-3-7.7-7.109c0-4.178,3.079-7.109,7.7-7.109s7.694,2.931,7.694,7.109m-1.026,49.393H169.33V33.255h13.339Z" transform="translate(252.972 20.466)" fill="#fff"/>
    <path id="Path_12786" data-name="Path 12786" d="M220.65,79.4l-12.385,3.519c-1.76-5.2-5.2-8.355-11.872-8.355a27.758,27.758,0,0,0-13.411,3.3L175.214,70.1l9.011-17.809c-3.3-2.931-5.86-7.109-5.86-11.577,0-10.26,10.112-16.856,20.37-16.856a23.431,23.431,0,0,1,7.184,1.1l2.783-5.715,11.654,3.224-4.47,8.941a15.06,15.06,0,0,1,3.224,9.309c0,9.965-10.112,16.415-20.375,16.415a19.253,19.253,0,0,1-3.514-.3L190.9,65.406a23.222,23.222,0,0,1,9.089-1.467c9.672,0,17.369,5.279,20.665,15.464M191.922,40.415a6.816,6.816,0,0,0,13.632,0c0-3.957-2.786-6.448-6.818-6.448s-6.813,2.491-6.813,6.448" transform="translate(263.359 28.915)" fill="#fff"/>
    <path id="Path_12787" data-name="Path 12787" d="M234.62,53.195V73.2H221.284V53.195c0-5.059-1.174-6.816-5.569-6.816-3.812,0-6.378,2.783-7.109,7.181V73.2H195.267V11.566h13.339v29.1a14.658,14.658,0,0,1,11.211-5.274c10.408,0,14.8,6.448,14.8,17.807" transform="translate(293.5 17.385)" fill="#fff"/>
    <path id="Path_12788" data-name="Path 12788" d="M232.558,66.995H219.222V40.758h-6.448V30.132h6.448V15.694h13.336V30.132h10.628V40.758H232.558Z" transform="translate(319.814 23.59)" fill="#fff"/>
    <path id="Path_12789" data-name="Path 12789" d="M33.026,22.283a2.678,2.678,0,0,0,1.8-.693l5.054-4.556a2.706,2.706,0,0,0,.2-3.812,2.7,2.7,0,0,0-3.81-.2l-5.051,4.556a2.7,2.7,0,0,0,1.807,4.7" transform="translate(45.585 18.537)" fill="#fff"/>
    <path id="Path_12790" data-name="Path 12790" d="M33.026,22.283a2.678,2.678,0,0,0,1.8-.693l5.054-4.556a2.706,2.706,0,0,0,.2-3.812,2.7,2.7,0,0,0-3.81-.2l-5.051,4.556a2.7,2.7,0,0,0,1.807,4.7Z" transform="translate(45.585 18.537)" fill="none" stroke="#fff" stroke-width="0.5"/>
    <path id="Path_12791" data-name="Path 12791" d="M24.405,19.793a2.7,2.7,0,0,0,2.7-2.7V10.284a2.7,2.7,0,1,0-5.4,0V17.1a2.7,2.7,0,0,0,2.7,2.7" transform="translate(32.627 11.402)" fill="#fff"/>
    <path id="Path_12792" data-name="Path 12792" d="M24.405,19.793a2.7,2.7,0,0,0,2.7-2.7V10.284a2.7,2.7,0,1,0-5.4,0V17.1A2.7,2.7,0,0,0,24.405,19.793Z" transform="translate(32.627 11.402)" fill="none" stroke="#fff" stroke-width="0.5"/>
    <path id="Path_12793" data-name="Path 12793" d="M17.009,21.589a2.673,2.673,0,0,0,1.8.7c.05,0,.1,0,.148-.005a2.7,2.7,0,0,0,1.662-4.7L15.57,13.026a2.7,2.7,0,0,0-3.614,4.007Z" transform="translate(16.635 18.537)" fill="#fff"/>
    <path id="Path_12794" data-name="Path 12794" d="M17.009,21.589a2.673,2.673,0,0,0,1.8.7c.05,0,.1,0,.148-.005a2.7,2.7,0,0,0,1.662-4.7L15.57,13.026a2.7,2.7,0,0,0-3.614,4.007Z" transform="translate(16.635 18.537)" fill="none" stroke="#fff" stroke-width="0.5"/>
    <path id="Path_12795" data-name="Path 12795" d="M61.387,38.843a24.12,24.12,0,1,0-36.2,20.868V70.063a7.354,7.354,0,0,0,7.347,7.346H42a7.354,7.354,0,0,0,7.347-7.346V59.711a24.126,24.126,0,0,0,12.04-20.868M44.451,70.063A2.452,2.452,0,0,1,42,72.511H32.534a2.452,2.452,0,0,1-2.451-2.448V61.871a24.183,24.183,0,0,0,14.368,0Zm-3.68-12.32,3.634-10.9a2.451,2.451,0,0,0-2.323-3.224H35.848L39.59,32.392a2.449,2.449,0,0,0-4.646-1.549L30.129,45.29a2.451,2.451,0,0,0,2.323,3.224h6.235l-3.159,9.472a19.219,19.219,0,1,1,5.244-.243" transform="translate(19.762 22.13)" fill="#fff"/>
    <path id="Path_12796" data-name="Path 12796" d="M61.387,38.843a24.12,24.12,0,1,0-36.2,20.868V70.063a7.354,7.354,0,0,0,7.347,7.346H42a7.354,7.354,0,0,0,7.347-7.346V59.711A24.126,24.126,0,0,0,61.387,38.843ZM44.451,70.063A2.452,2.452,0,0,1,42,72.511H32.534a2.452,2.452,0,0,1-2.451-2.448V61.871a24.183,24.183,0,0,0,14.368,0Zm-3.68-12.32,3.634-10.9a2.451,2.451,0,0,0-2.323-3.224H35.848L39.59,32.392a2.449,2.449,0,0,0-4.646-1.549L30.129,45.29a2.451,2.451,0,0,0,2.323,3.224h6.235l-3.159,9.472a19.219,19.219,0,1,1,5.244-.243Z" transform="translate(19.762 22.13)" fill="none" stroke="#fff" stroke-width="0.5"/>
  </g>
</svg>
