<?xml version="1.0" encoding="utf-8"?>
<!-- Generator: Adobe Illustrator 25.2.3, SVG Export Plug-In . SVG Version: 6.00 Build 0)  -->
<svg version="1.1" id="Layer_1" xmlns="http://www.w3.org/2000/svg" xmlns:xlink="http://www.w3.org/1999/xlink" x="0px" y="0px"
	 viewBox="0 0 323.9 85" style="enable-background:new 0 0 323.9 85;" xml:space="preserve">
<style type="text/css">
	.st0{fill:#FFFFFF;}
	.st1{fill:#0254A5;}
</style>
<g>
	<path class="st0" d="M102.3,50.4v12.5H92.3V27.5H117v8.5h-14.7v5.7h12.8v8.6H102.3z"/>
	<path class="st0" d="M139,41.3c8.8,2.5,11.4,5.9,11.4,11.3c0,8.1-6.9,10.9-15.9,10.9c-5.3,0.1-10.6-1.3-15.2-4l3.4-7.8
		c3.4,2,7.3,3.1,11.3,3.2c4.4,0,5.9-0.5,5.9-2c0-1.7-1.3-2.5-8.5-4.5c-7.7-2.2-10.4-5.7-10.4-10.9c0-6.8,5.1-10.6,14.8-10.6
		c4.8-0.1,9.5,1.2,13.6,3.7l-3.9,7.2c-2.8-1.7-6.1-2.5-9.3-2.5c-3.6,0-4.8,0.7-4.8,2.3C131.4,39.1,133,39.6,139,41.3z"/>
	<path class="st0" d="M193.5,27.5v35.3h-9.9V42.3l-7.4,11H172l-7.3-11v20.6h-9.9V27.5h9.5l9.9,14.4l9.9-14.4H193.5z"/>
	<path class="st0" d="M240.7,46.8h8v16.1h-8.1v-4.4c-1.4,2.8-4.8,5.1-10.2,5.1c-9.9,0-18.7-8-18.7-18.3c0-11.3,9-18.3,20.4-18.3
		c5.7,0.1,11.1,2.4,15,6.5l-6.3,6.4c-2.2-2.4-5.4-3.8-8.7-3.8c-5.9,0-9.6,3.6-9.6,9.2s3.9,9.2,9.4,9.2
		C236.4,54.6,240.3,51.3,240.7,46.8z"/>
	<path class="st0" d="M275.4,38.4l-4,8c-1.1-0.5-2.2-0.8-3.4-0.8c-3,0-5,2.3-5,7.8v9.5h-9.2V37.5h9v3.7c1.6-2.5,4.3-4.1,7.3-4.3
		C272,36.8,273.8,37.3,275.4,38.4z"/>
	<path class="st0" d="M287.6,28.9c0,2.8-2.1,4.9-5.3,4.9s-5.3-2.1-5.3-4.9s2.1-4.9,5.3-4.9S287.6,26,287.6,28.9z M286.8,37.5v25.4
		h-9.2V37.5H286.8z"/>
	<path class="st0" d="M303.5,36.8c3,0,5.9,1.4,7.8,3.7V20.4h9.2v42.4h-9.2v-5.4c-1.9,2.3-4.8,3.7-7.8,3.6c-7.5,0-12.6-4.9-12.6-12.2
		S296,36.8,303.5,36.8z M305.9,53.8c2.8,0,5.4-1.5,5.8-4.1v-1.5c-0.5-2.6-3-4.1-5.8-4.1c-3.2,0-5.5,1.8-5.5,4.8
		S302.7,53.8,305.9,53.8L305.9,53.8z"/>
	<path class="st1" d="M18,72.2L9.2,61.3c-9-11.1-7.4-27.4,3.6-36.6L31.5,9.1c7.1-6,16.9-7.7,25.6-4.6l0,0
		c8.1,2.8,14.3,9.5,16.6,17.8c3.9,15,4.8,39.1-21.4,55.7C41,85.1,26.3,82.6,18,72.2z"/>
	<path class="st0" d="M36.3,23.8H25.8c-1.8,0-3.2,1.4-3.2,3.2v10.5c0,1.8,1.4,3.2,3.2,3.2h10.5c1.7,0,3.2-1.5,3.2-3.2V27
		C39.5,25.2,38.1,23.8,36.3,23.8z"/>
	<path class="st0" d="M56.8,23.8H46.3c-1.8,0-3.2,1.4-3.2,3.2v10.5c0,1.8,1.4,3.2,3.2,3.2h10.5c1.8,0,3.2-1.4,3.2-3.2V27
		C60,25.2,58.6,23.8,56.8,23.8C56.8,23.8,56.8,23.8,56.8,23.8z"/>
	<path class="st0" d="M36.3,44.3H25.8c-1.8,0-3.2,1.4-3.2,3.2V58c0,1.8,1.4,3.2,3.2,3.2l0,0h10.5c1.7,0,3.2-1.4,3.2-3.2V47.5
		C39.5,45.7,38.1,44.3,36.3,44.3z"/>
	<path class="st0" d="M56.8,44.3H46.3c-1.8,0-3.2,1.4-3.2,3.2V58c0,1.8,1.4,3.2,3.2,3.2h10.5c1.8,0,3.2-1.4,3.2-3.2c0,0,0,0,0,0
		V47.5C60,45.7,58.6,44.3,56.8,44.3z"/>
</g>
</svg>
