<?xml version="1.0" encoding="utf-8"?>
<!-- Generator: Adobe Illustrator 15.1.0, SVG Export Plug-In  -->
<!DOCTYPE svg PUBLIC "-//W3C//DTD SVG 1.1//EN" "http://www.w3.org/Graphics/SVG/1.1/DTD/svg11.dtd" [
	<!ENTITY ns_flows "http://ns.adobe.com/Flows/1.0/">
]>
<svg version="1.1"
	 xmlns="http://www.w3.org/2000/svg" xmlns:xlink="http://www.w3.org/1999/xlink" xmlns:a="http://ns.adobe.com/AdobeSVGViewerExtensions/3.0/"
	 x="0px" y="0px" width="227px" height="43px" viewBox="-1.333 -0.285 227 43" enable-background="new -1.333 -0.285 227 43"
	 xml:space="preserve">
<defs>
</defs>
<g>
	<g>
		<path fill="#1E2C5A" d="M54.912,25.185v6.614h-5.356V13.054h13.149v4.553h-7.793v3.026h6.775v4.552H54.912z"/>
		<path fill="#1E2C5A" d="M74.352,20.365c4.686,1.312,6.052,3.133,6.052,5.971c0,4.313-3.642,5.812-8.436,5.812
			c-3.16,0-5.892-0.751-8.061-2.116l1.821-4.123c1.794,1.017,3.696,1.687,5.972,1.687c2.357,0,3.16-0.268,3.16-1.045
			c0-0.883-0.669-1.312-4.526-2.409c-4.07-1.152-5.543-3-5.543-5.812c0-3.588,2.705-5.624,7.846-5.624c2.651,0,4.9,0.536,7.23,1.982
			l-2.035,3.802c-1.634-0.883-3.08-1.339-4.954-1.339c-1.928,0-2.544,0.348-2.544,1.205C70.335,19.133,71.165,19.455,74.352,20.365z
			"/>
		<path fill="#1E2C5A" d="M103.326,13.054v18.745h-5.249V20.874l-3.91,5.865h-2.303l-3.883-5.865v10.926h-5.249V13.054h5.061
			l5.249,7.632l5.275-7.632H103.326z"/>
		<path fill="#1E2C5A" d="M118.722,22.427c0,3.079,2.142,4.9,4.9,4.9c2.223,0,3.615-0.375,5.463-1.151v4.954
			c-1.688,0.723-3.856,1.018-5.463,1.018c-5.918,0-10.658-4.204-10.658-9.721c0-5.49,4.392-9.721,10.471-9.721
			c1.874,0,3.937,0.348,5.65,1.152v4.954c-1.66-0.75-3.508-1.258-5.65-1.285C120.516,17.526,118.722,19.374,118.722,22.427z"/>
		<path fill="#1E2C5A" d="M147.427,25.051c0,4.124-3.963,7.097-8.168,7.097c-4.203,0-8.167-2.973-8.167-7.097
			c0-4.097,3.964-7.07,8.167-7.07C143.464,17.981,147.427,20.954,147.427,25.051z M142.393,25.051c0-1.875-1.259-3.053-3.134-3.053
			c-1.874,0-3.133,1.178-3.133,3.053c0,1.874,1.259,3.079,3.133,3.079C141.134,28.13,142.393,26.925,142.393,25.051z"/>
		<path fill="#1E2C5A" d="M163.949,24.489v7.311h-4.873v-7.311c0-1.848-0.429-2.49-2.008-2.49c-1.42,0-2.357,1.018-2.625,2.624
			v7.177h-4.874V18.33h4.74v1.634c0.884-1.071,2.329-1.982,4.231-1.982C162.342,17.981,163.949,20.338,163.949,24.489z"/>
		<path fill="#1E2C5A" d="M180.9,24.489v7.311h-4.875v-7.311c0-1.848-0.428-2.49-2.008-2.49c-1.42,0-2.357,1.018-2.625,2.624v7.177
			h-4.873V18.33h4.74v1.634c0.883-1.071,2.329-1.982,4.23-1.982C179.292,17.981,180.9,20.338,180.9,24.489z"/>
		<path fill="#1E2C5A" d="M197.555,26.604h-9.507c0.375,1.474,1.445,1.955,3.213,1.955c1.285,0,2.598-0.188,3.776-0.615l1.018,3.374
			c-1.554,0.616-3.374,0.83-5.249,0.83c-4.258,0-7.873-2.731-7.873-7.097c0-4.285,3.294-7.07,7.633-7.07
			c4.472,0,7.444,2.678,7.444,6.24C198.01,25.024,197.796,25.989,197.555,26.604z M187.941,23.659h5.249
			c-0.321-1.365-1.125-2.196-2.624-2.196C189.146,21.462,188.316,22.293,187.941,23.659z"/>
		<path fill="#1E2C5A" d="M211.238,27.489v4.097c-1.098,0.375-2.383,0.563-3.695,0.563c-4.205,0-7.928-2.946-7.928-7.124
			c0-4.257,3.75-7.042,7.928-7.042c1.473,0,2.463,0.241,3.695,0.696v4.071c-1.205-0.509-2.545-0.75-3.695-0.75
			c-1.875,0-2.865,1.018-2.893,3.025c0,1.929,1.313,3.106,3.08,3.106C208.748,28.13,209.792,28.024,211.238,27.489z"/>
		<path fill="#1E2C5A" d="M219.806,31.799h-4.874v-9.586h-2.356V18.33h2.356v-5.275h4.874v5.275h3.883v3.884h-3.883V31.799z"/>
	</g>
</g>
<path fill="#7F4E9C" d="M7.894,37.415l-4.752-5.891c-4.854-6.017-3.99-14.813,1.942-19.771l10.117-8.455
	c3.852-3.218,9.118-4.16,13.845-2.475l0,0c4.373,1.559,7.743,5.15,8.92,9.641c2.125,8.11,2.588,21.096-11.565,30.09
	C20.364,44.391,12.386,42.983,7.894,37.415z"/>
<path fill="#FFFFFF" d="M8.746,19.703c-2.284,2.285-1.76,6.526,1.168,9.454c1.655,1.656,3.762,2.605,5.781,2.605h0
	c1.463,0,2.733-0.497,3.672-1.437l7.012-7.013c0.099-0.099,0.191-0.2,0.279-0.305l0.72-0.859l-2.328-2.329l-8.004,8.004
	c-0.471,0.471-1.104,0.569-1.553,0.569c-1.123,0-2.383-0.59-3.37-1.577c-0.828-0.828-1.388-1.867-1.537-2.854
	c-0.076-0.499-0.107-1.432,0.53-2.069l19.961-19.96c-0.822-0.5-1.697-0.924-2.62-1.253l0,0c-0.171-0.061-0.344-0.111-0.516-0.165
	C22.91,5.539,15.867,12.582,15.758,12.69L8.746,19.703z"/>
<path fill="#FFFFFF" d="M31.417,25.952c2.284-2.285,1.759-6.526-1.169-9.455c-1.655-1.656-3.763-2.604-5.781-2.604
	c-1.463,0-2.733,0.497-3.673,1.436l-7.01,7.01c-0.111,0.111-0.215,0.226-0.313,0.346l-0.703,0.857l2.317,2.319l8.03-8.03
	c0.471-0.471,1.105-0.57,1.554-0.57c1.123,0,2.382,0.59,3.37,1.577c0.827,0.828,1.388,1.868,1.536,2.854
	c0.076,0.499,0.108,1.433-0.529,2.069L11.832,40.975c1.058,0.548,2.176,0.957,3.324,1.225c1.604-1.6,4.231-4.223,8.562-8.549
	L31.417,25.952z"/>
</svg>
