<?xml version="1.0" encoding="utf-8"?>
<!-- Generator: Adobe Illustrator 15.1.0, SVG Export Plug-In  -->
<!DOCTYPE svg PUBLIC "-//W3C//DTD SVG 1.1//EN" "http://www.w3.org/Graphics/SVG/1.1/DTD/svg11.dtd" [
	<!ENTITY ns_flows "http://ns.adobe.com/Flows/1.0/">
]>
<svg version="1.1"
	 xmlns="http://www.w3.org/2000/svg" xmlns:xlink="http://www.w3.org/1999/xlink" xmlns:a="http://ns.adobe.com/AdobeSVGViewerExtensions/3.0/"
	 x="0px" y="0px" width="171px" height="43px" viewBox="-3.4 -1 171 43" enable-background="new -3.4 -1 171 43"
	 xml:space="preserve">
<defs>
</defs>
<path fill="#202E59" d="M51.2,24.6V31H46V12.7h12.8v4.4h-7.6v2.9h6.6v4.4H51.2z"/>
<path fill="#202E59" d="M70.2,19.9c4.6,1.3,5.9,3.1,5.9,5.8c0,4.2-3.5,5.7-8.2,5.7c-3.1,0-5.7-0.7-7.9-2.1l1.8-4
	c1.7,1,3.6,1.6,5.8,1.6c2.3,0,3.1-0.3,3.1-1c0-0.9-0.7-1.3-4.4-2.3c-4-1.1-5.4-2.9-5.4-5.7c0-3.5,2.6-5.5,7.6-5.5
	c2.6,0,4.8,0.5,7,1.9l-2,3.7c-1.6-0.9-3-1.3-4.8-1.3c-1.9,0-2.5,0.3-2.5,1.2C66.3,18.7,67.1,19,70.2,19.9z"/>
<path fill="#202E59" d="M98.4,12.7V31h-5.1V20.4l-3.8,5.7h-2.2l-3.8-5.7V31h-5.1V12.7h4.9l5.1,7.4l5.1-7.4H98.4z"/>
<path fill="#202E59" d="M122.9,22.7h4.1V31h-4.2v-2.3c-0.7,1.5-2.5,2.6-5.3,2.6c-5.1,0-9.7-4.1-9.7-9.5c0-5.8,4.7-9.5,10.6-9.5
	c3,0,5.8,1.3,7.8,3.4l-3.3,3.3c-1.3-1.3-2.7-2-4.5-2c-3.1,0-5,1.9-5,4.8c0,3,2,4.8,4.9,4.8C120.5,26.6,122.5,25.3,122.9,22.7z"/>
<path fill="#202E59" d="M140.8,18.3l-2.1,4.1c-0.5-0.2-1.1-0.4-1.8-0.4c-1.5,0-2.6,1.2-2.6,4V31h-4.8V17.9h4.6v1.9
	c0.7-1.2,2.4-2.2,3.8-2.2C139.1,17.5,139.9,17.8,140.8,18.3z"/>
<path fill="#202E59" d="M147.1,13.4c0,1.5-1.1,2.5-2.7,2.5c-1.6,0-2.7-1.1-2.7-2.5c0-1.5,1.1-2.5,2.7-2.5
	C146,10.9,147.1,11.9,147.1,13.4z M146.7,17.9V31H142V17.9H146.7z"/>
<path fill="#202E59" d="M155.3,17.5c1.7,0,3.3,0.9,4,1.9V9h4.8v22h-4.8v-2.8c-0.7,1-2.3,1.9-4,1.9c-3.9,0-6.6-2.5-6.6-6.3
	C148.8,20.1,151.5,17.5,155.3,17.5z M156.6,26.3c1.5,0,2.8-0.8,3-2.1v-0.8c-0.2-1.4-1.5-2.1-3-2.1c-1.6,0-2.9,0.9-2.9,2.5
	C153.7,25.4,154.9,26.3,156.6,26.3z"/>
<path fill="#0F56A3" d="M7.6,35.8L3,30.2C-1.6,24.4-0.8,16,4.9,11.3l9.7-8.1c3.7-3.1,8.7-4,13.3-2.4h0c4.2,1.5,7.4,4.9,8.5,9.2
	c2,7.8,2.5,20.2-11.1,28.8C19.5,42.5,11.9,41.2,7.6,35.8"/>
<path fill="#FFFFFF" d="M17.1,10.8h-5.4c-0.9,0-1.7,0.7-1.7,1.7v5.4c0,0.9,0.7,1.7,1.7,1.7h5.4c0.9,0,1.7-0.7,1.7-1.7v-5.4
	C18.7,11.5,18,10.8,17.1,10.8"/>
<path fill="#FFFFFF" d="M27.7,10.8h-5.4c-0.9,0-1.7,0.7-1.7,1.7v5.4c0,0.9,0.7,1.7,1.7,1.7h5.4c0.9,0,1.7-0.7,1.7-1.7v-5.4
	C29.3,11.5,28.6,10.8,27.7,10.8"/>
<path fill="#FFFFFF" d="M17.1,21.4h-5.4c-0.9,0-1.7,0.7-1.7,1.7v5.4c0,0.9,0.7,1.7,1.7,1.7h5.4c0.9,0,1.7-0.7,1.7-1.7v-5.4
	C18.7,22.1,18,21.4,17.1,21.4"/>
<path fill="#FFFFFF" d="M27.7,21.4h-5.4c-0.9,0-1.7,0.7-1.7,1.7v5.4c0,0.9,0.7,1.7,1.7,1.7h5.4c0.9,0,1.7-0.7,1.7-1.7v-5.4
	C29.3,22.1,28.6,21.4,27.7,21.4"/>
</svg>
