<svg width="181" height="35" viewBox="0 0 181 35" fill="none" xmlns="http://www.w3.org/2000/svg">
<g clip-path="url(#clip0_206_49)">
<path d="M6.45186 30.6607L2.56932 25.8646C-1.37032 20.8972 -0.685167 13.7031 4.16801 9.59218L12.5041 2.68353C15.7015 0.057102 19.9837 -0.685149 23.8662 0.628065C27.4633 1.88418 30.2039 4.85319 31.2316 8.50735C33.0016 15.1305 33.3442 25.8075 21.7537 33.23C16.6721 36.3132 10.106 35.2284 6.45186 30.6036V30.6607Z" fill="#00A99D"/>
<path d="M46.1909 21.4111V26.7781H41.8516V11.5905H52.4715V15.2447H46.1909V17.6998H51.6721V21.354H46.1909V21.4111Z" fill="#242A56"/>
<path d="M61.8923 17.5285C65.6606 18.6134 66.8026 20.0408 66.8026 22.3817C66.8026 25.8646 63.8336 27.0636 60.0081 27.0636C56.1827 27.0636 55.2691 26.4356 53.4991 25.3507L54.9837 22.0392C56.4111 22.8385 57.9527 23.4095 59.8368 23.4095C61.721 23.4095 62.4062 23.1811 62.4062 22.553C62.4062 21.925 61.8923 21.4682 58.752 20.6117C55.4404 19.6982 54.2985 18.2137 54.2985 15.9299C54.2985 13.646 56.4682 11.3622 60.6362 11.3622C64.8042 11.3622 64.5758 11.8189 66.46 12.9608L64.8042 16.044C63.491 15.3018 62.292 14.9592 60.8075 14.9592C59.323 14.9592 58.752 15.2447 58.752 15.9299C58.752 16.615 59.4372 16.8434 62.0065 17.5285H61.8923Z" fill="#242A56"/>
<path d="M85.3018 11.5905V26.721H81.0767V17.8711L77.9364 22.6101H76.0522L72.9119 17.8711V26.721H68.6868V11.5905H72.7977L77.0228 17.7569L81.305 11.5905H85.3589H85.3018Z" fill="#242A56"/>
<path d="M107.512 11.5905L102.145 26.721H97.6918L92.3247 11.5905H97.0066L99.9756 21.0114L102.945 11.5905H107.512Z" fill="#242A56"/>
<path d="M112.936 12.1615C112.936 13.3605 112.023 14.2741 110.653 14.2741C109.282 14.2741 108.369 13.3605 108.369 12.1615C108.369 10.9625 109.282 10.0489 110.653 10.0489C112.023 10.0489 112.936 10.9054 112.936 12.1615ZM112.651 15.8728V26.7781H108.711V15.8728H112.651Z" fill="#242A56"/>
<path d="M120.644 20.155C122.643 20.8401 124.013 21.5824 124.013 23.5807C124.013 25.5791 121.843 27.0636 118.989 27.0636C116.134 27.0636 115.392 26.6068 114.021 25.8646L115.22 23.124C116.248 23.6949 117.732 24.1517 118.589 24.1517C119.445 24.1517 119.959 23.9804 119.959 23.6949C119.959 23.2382 119.388 22.9527 117.561 22.3246C115.963 21.7537 114.478 20.8972 114.478 19.0701C114.478 17.2431 116.819 15.6444 119.502 15.6444C122.186 15.6444 122.643 15.9869 123.899 16.7863L122.643 19.3556C121.729 18.8418 120.759 18.5563 119.788 18.5563C118.817 18.5563 118.532 18.7276 118.532 19.013C118.532 19.2985 118.874 19.584 120.587 20.155H120.644Z" fill="#242A56"/>
<path d="M129.837 12.1615C129.837 13.3605 128.923 14.2741 127.553 14.2741C126.183 14.2741 125.269 13.3605 125.269 12.1615C125.269 10.9625 126.183 10.0489 127.553 10.0489C128.923 10.0489 129.837 10.9054 129.837 12.1615ZM129.551 15.8728V26.7781H125.612V15.8728H129.551Z" fill="#242A56"/>
<path d="M144.511 21.2969C144.511 24.6085 141.313 27.0065 137.887 27.0065C134.462 27.0065 131.264 24.6085 131.264 21.2969C131.264 17.9853 134.462 15.5873 137.887 15.5873C141.313 15.5873 144.511 17.9853 144.511 21.2969ZM140.457 21.2969C140.457 19.7553 139.429 18.8418 137.945 18.8418C136.46 18.8418 135.432 19.8124 135.432 21.2969C135.432 22.7814 136.46 23.8091 137.945 23.8091C139.429 23.8091 140.457 22.8385 140.457 21.2969Z" fill="#242A56"/>
<path d="M157.871 20.8401V26.7781H153.932V20.8401C153.932 19.3556 153.589 18.8418 152.333 18.8418C151.077 18.8418 150.449 19.6411 150.22 20.9543V26.7781H146.281V15.8727H150.106V17.186C150.848 16.3295 151.99 15.5873 153.532 15.5873C156.615 15.5873 157.928 17.4714 157.928 20.8401H157.871Z" fill="#242A56"/>
<path d="M175 26.7781H170.261L169.462 24.2659H164.494L163.695 26.7781H159.013L164.666 11.5334H169.29L175 26.7781ZM167.007 15.8727L165.408 20.9543H168.605L167.007 15.8727Z" fill="#242A56"/>
<path d="M180.767 11.5905V26.721H176.427V11.5905H180.767Z" fill="#242A56"/>
<path d="M24.7798 15.1305C25.0081 15.1305 25.2365 15.0734 25.4078 14.9021L27.2349 13.2463C27.6346 12.9038 27.6917 12.2757 27.292 11.876C27.1207 11.7047 26.8923 11.5905 26.6068 11.5334C26.3214 11.5334 26.093 11.5905 25.9217 11.7618L24.0946 13.4176C23.6949 13.7602 23.6378 14.3883 24.0375 14.7879C24.2088 15.0163 24.4943 15.1305 24.7798 15.1305Z" fill="white"/>
<path d="M17.0147 11.6476C17.5286 11.6476 17.9853 11.1909 17.9853 10.677V8.22186C17.9853 7.70799 17.5286 7.25122 17.0147 7.25122C16.5008 7.25122 16.0441 7.70799 16.0441 8.22186V10.677C16.0441 11.1909 16.5008 11.6476 17.0147 11.6476Z" fill="white"/>
<path d="M8.6215 14.845C8.79279 15.0163 9.02118 15.0734 9.24956 15.0734C9.47795 15.0734 9.24956 15.0734 9.24956 15.0734C9.53504 15.0734 9.76343 14.9592 9.93471 14.7308C10.106 14.5595 10.2202 14.2741 10.1631 14.0457C10.1631 13.7602 10.0489 13.5318 9.82052 13.3605L7.99344 11.7047C7.59377 11.3621 6.96571 11.3621 6.62313 11.7618C6.28056 12.1615 6.28056 12.7896 6.68023 13.1321L8.50731 14.7879L8.6215 14.845Z" fill="white"/>
<path d="M27.5204 20.6688C26.3213 18.2708 22.553 13.7602 17.0146 13.7602C11.4763 13.7602 8.27892 17.2431 6.50894 20.6688C6.28056 21.1256 6.50894 21.7537 6.90862 21.9821C7.36539 22.2104 7.99344 21.9821 8.22183 21.5824C9.64923 18.7847 13.0179 15.7586 16.9576 15.7586C20.8972 15.7586 24.6655 19.584 25.6933 21.5824C25.8646 21.925 26.2071 22.0962 26.5497 22.0962C26.8923 22.0962 26.8352 22.0962 27.0065 21.9821C27.2349 21.8679 27.4062 21.6395 27.4633 21.4111C27.5204 21.1827 27.5204 20.8972 27.4062 20.6688H27.5204Z" fill="white"/>
<path d="M17.0147 17.5285C14.7309 17.5285 12.8467 19.4127 12.8467 21.6966C12.8467 23.9804 14.7309 25.8646 17.0147 25.8646C19.2986 25.8646 21.1827 23.9804 21.1827 21.6966C21.1827 19.4127 19.2986 17.5285 17.0147 17.5285ZM19.2415 21.6966C19.2415 22.8956 18.2708 23.9233 17.0147 23.9233C15.7586 23.9233 14.788 22.9527 14.788 21.6966C14.788 20.4405 15.7586 19.4698 17.0147 19.4698C18.2708 19.4698 19.2415 20.4405 19.2415 21.6966Z" fill="white"/>
</g>
<defs>
<clipPath id="clip0_206_49">
<rect width="180.767" height="35" fill="white"/>
</clipPath>
</defs>
</svg>
