<svg width="157" height="35" viewBox="0 0 157 35" fill="none" xmlns="http://www.w3.org/2000/svg">
<path d="M6.43956 30.6846L2.55486 25.8858C-1.38696 20.9157 -0.701425 13.7176 4.15444 9.60437L12.4951 2.6919C15.6943 0.0640192 19.9789 -0.678643 23.8636 0.635298C27.4626 1.89211 30.2047 4.86276 31.2331 8.51894C33.004 15.1458 33.3468 25.8287 21.7498 33.2553C16.6654 36.3402 10.0957 35.2548 6.43956 30.6274V30.6846Z" fill="#39B54A"/>
<path d="M46.2005 21.4298V26.7999H41.8588V11.6039H52.4845V15.26H46.2005V17.7165H51.6848V21.3727H46.2005V21.4298Z" fill="#242A56"/>
<path d="M61.9106 17.5452C65.6811 18.6306 66.8236 20.0588 66.8236 22.401C66.8236 25.8858 63.853 27.0855 60.0254 27.0855C56.1978 27.0855 55.2838 26.4571 53.5128 25.3717L54.9981 22.0583C56.4263 22.8581 57.9688 23.4293 59.854 23.4293C61.7392 23.4293 62.4248 23.2008 62.4248 22.5724C62.4248 21.944 61.9106 21.487 58.7686 20.6301C55.4552 19.716 54.3126 18.2307 54.3126 15.9456C54.3126 13.6605 56.4835 11.3754 60.6538 11.3754C64.8241 11.3754 64.5956 11.8324 66.4808 12.9749L64.8241 16.0599C63.5102 15.3172 62.3105 14.9744 60.8252 14.9744C59.3399 14.9744 58.7686 15.2601 58.7686 15.9456C58.7686 16.6311 59.4541 16.8596 62.0249 17.5452H61.9106Z" fill="#242A56"/>
<path d="M85.3332 11.6039V26.7427H81.1057V17.8879L77.9637 22.6295H76.0785L72.9364 17.8879V26.7427H68.709V11.6039H72.8222L77.0496 17.7737L81.3342 11.6039H85.3903H85.3332Z" fill="#242A56"/>
<path d="M108.413 26.7999H103.671L102.871 24.2863H97.9013L97.1015 26.7999H92.417L98.0726 11.5468H102.7L108.413 26.7999ZM100.415 15.8885L98.8153 20.9729H102.014L100.415 15.8885Z" fill="#242A56"/>
<path d="M115.497 20.1732C117.496 20.8587 118.867 21.6014 118.867 23.6008C118.867 25.6003 116.696 27.0856 113.84 27.0856C110.983 27.0856 110.241 26.6286 108.87 25.886L110.069 23.1438C111.098 23.7151 112.583 24.1721 113.44 24.1721C114.297 24.1721 114.811 24.0007 114.811 23.7151C114.811 23.2581 114.24 22.9724 112.412 22.344C110.812 21.7727 109.327 20.9158 109.327 19.0877C109.327 17.2596 111.669 15.6601 114.354 15.6601C117.039 15.6601 117.496 16.0028 118.753 16.8026L117.496 19.3734C116.582 18.8592 115.611 18.5736 114.64 18.5736C113.668 18.5736 113.383 18.745 113.383 19.0306C113.383 19.3162 113.726 19.6019 115.439 20.1732H115.497Z" fill="#242A56"/>
<path d="M126.294 20.1732C128.293 20.8587 129.664 21.6014 129.664 23.6008C129.664 25.6003 127.494 27.0856 124.637 27.0856C121.781 27.0856 121.038 26.6286 119.667 25.886L120.867 23.1438C121.895 23.7151 123.38 24.1721 124.237 24.1721C125.094 24.1721 125.608 24.0007 125.608 23.7151C125.608 23.2581 125.037 22.9724 123.209 22.344C121.609 21.7727 120.124 20.9158 120.124 19.0877C120.124 17.2596 122.466 15.6601 125.151 15.6601C127.836 15.6601 128.293 16.0028 129.55 16.8026L128.293 19.3734C127.379 18.8592 126.408 18.5736 125.437 18.5736C124.466 18.5736 124.18 18.745 124.18 19.0306C124.18 19.3162 124.523 19.6019 126.237 20.1732H126.294Z" fill="#242A56"/>
<path d="M135.491 12.1752C135.491 13.3749 134.577 14.289 133.206 14.289C131.835 14.289 130.921 13.3749 130.921 12.1752C130.921 10.9755 131.835 10.0615 133.206 10.0615C134.577 10.0615 135.491 10.9184 135.491 12.1752ZM135.206 15.8885V26.8H131.264V15.8885H135.206Z" fill="#242A56"/>
<path d="M143.204 20.1732C145.203 20.8587 146.574 21.6014 146.574 23.6008C146.574 25.6003 144.403 27.0856 141.547 27.0856C138.691 27.0856 137.948 26.6286 136.577 25.886L137.776 23.1438C138.805 23.7151 140.29 24.1721 141.147 24.1721C142.004 24.1721 142.518 24.0007 142.518 23.7151C142.518 23.2581 141.947 22.9724 140.119 22.344C138.519 21.7727 137.034 20.9158 137.034 19.0877C137.034 17.2596 139.376 15.6601 142.061 15.6601C144.746 15.6601 145.203 16.0028 146.46 16.8026L145.203 19.3734C144.289 18.8592 143.318 18.5736 142.347 18.5736C141.376 18.5736 141.09 18.745 141.09 19.0306C141.09 19.3162 141.433 19.6019 143.146 20.1732H143.204Z" fill="#242A56"/>
<path d="M153.372 26.7999H149.431V19.0305H147.545V15.8884H149.431V11.6039H153.372V15.8884H156.514V19.0305H153.372V26.7999Z" fill="#242A56"/>
<path d="M27.2341 18.8591V18.6877C27.2341 18.5163 27.2341 18.4021 27.2341 18.2307C27.2341 17.0882 27.0056 15.9456 26.6628 14.803C26.4343 14.1175 26.0916 13.432 25.6917 12.8036C23.7493 9.71866 20.493 7.89056 16.894 7.89056C13.2949 7.89056 9.18171 10.2899 7.46787 13.9461C7.1251 14.6317 6.89659 15.3743 6.78234 16.0598C6.61095 16.8025 6.55382 17.5452 6.55382 18.2307C6.55382 18.4021 6.55382 18.5163 6.55382 18.6877V18.9734C6.21106 19.4875 6.0968 20.0017 6.0968 20.5158V20.7443C6.0968 22.4582 7.525 23.8864 9.23883 23.8864H9.81011C10.2671 23.8864 10.667 23.4865 10.667 23.0294V18.2878C10.667 18.2307 10.667 18.1736 10.667 18.0593C10.5528 17.6594 10.21 17.3738 9.81011 17.3738H9.23883C9.12458 17.3738 9.06745 17.3738 9.06745 17.3738H8.38192L8.49617 16.7454C8.66756 15.8885 8.95319 15.0315 9.35309 14.2318C10.8384 11.3754 13.7519 9.6044 16.9511 9.6044C20.1503 9.6044 22.8353 11.2611 24.3777 13.889C24.8919 14.7459 25.2346 15.7171 25.406 16.6883L25.5203 17.3738H24.8347H24.7205H24.0921C23.9778 17.3738 23.9207 17.3738 23.8064 17.3738C23.4637 17.488 23.2352 17.8308 23.2352 18.1736V22.9152C23.2352 23.4293 23.6351 23.7721 24.0921 23.7721H24.6634C26.3772 23.7721 27.8054 22.3439 27.8054 20.6301V20.4016C27.8054 19.8874 27.6911 19.3733 27.4055 18.8591V18.7449L27.2341 18.8591Z" fill="white"/>
<path d="M20.493 18.5735C20.493 18.4021 20.493 18.2307 20.493 18.0593C20.493 17.8879 20.493 17.7166 20.493 17.6023V17.3167L21.7498 16.3455L20.7215 14.6888L19.2933 15.3743L19.0648 15.2029C18.7792 15.0315 18.5507 14.8602 18.2079 14.7459L17.9794 14.6317L17.808 12.9749H15.8657L15.7514 14.6317L15.5229 14.7459C15.2372 14.8602 14.9516 15.0315 14.666 15.2601L14.4375 15.4314L12.9521 14.7459L12.0381 16.4597L13.352 17.3738V17.6594C13.352 17.8308 13.2949 18.0022 13.2949 18.1736C13.2949 18.345 13.2949 18.5163 13.2949 18.6306V18.9162L12.0381 19.8874L13.0664 21.5441L14.4946 20.8586L14.7231 21.03C14.9516 21.2014 15.2372 21.3727 15.58 21.487L15.8085 21.6013L15.9799 23.258H17.9223L18.0365 21.6013L18.265 21.487C18.5507 21.3727 18.8363 21.2014 19.1219 20.9728L19.3505 20.8015L20.8358 21.487L21.7498 19.8303L20.4359 18.9162V18.6306L20.493 18.5735ZM18.5507 19.716C18.1508 20.1731 17.5795 20.4016 16.9511 20.4016C16.8368 20.4016 16.7797 20.4016 16.6654 20.4016C15.5229 20.2873 14.666 19.3161 14.666 18.1736C14.666 16.9168 15.6943 15.8885 16.894 15.8885C17.4652 15.8885 18.0936 16.117 18.4935 16.5169C18.9506 16.9168 19.1791 17.488 19.1791 18.1165C19.1791 18.7449 18.9506 19.3161 18.5507 19.716Z" fill="white"/>
</svg>
