<svg xmlns="http://www.w3.org/2000/svg" xmlns:xlink="http://www.w3.org/1999/xlink" width="611.877" height="118.528" viewBox="0 0 611.877 118.528">
  <defs>
    <clipPath id="clip-path">
      <rect id="Rectangle_645" data-name="Rectangle 645" width="611.877" height="118.528" fill="none"/>
    </clipPath>
  </defs>
  <g id="Group_2550" data-name="Group 2550" transform="translate(0 0)">
    <g id="Group_2549" data-name="Group 2549" transform="translate(0 0)" clip-path="url(#clip-path)">
      <path id="Path_11981" data-name="Path 11981" d="M21.794,103.764,8.65,87.513a39.526,39.526,0,0,1,5.5-54.972l28.2-23.421A40.029,40.029,0,0,1,80.829,2.19a39.285,39.285,0,0,1,24.856,26.766c5.975,22.466,7.17,58.557-32.029,83.651a39.8,39.8,0,0,1-51.862-8.842" transform="translate(0.001 0)" fill="#1b9b8b"/>
      <path id="Path_11982" data-name="Path 11982" d="M67.173,47.764v18.1H52.516v-51.3H88.5V27.024H67.173V35.3H85.715V47.764Z" transform="translate(89.139 24.721)" fill="#fff"/>
      <path id="Path_11983" data-name="Path 11983" d="M95.658,35.172c12.823,3.59,16.562,8.572,16.562,16.343,0,11.8-9.967,15.9-23.084,15.9-8.648,0-16.122-2.053-22.059-5.789l4.982-11.286A32.214,32.214,0,0,0,88.4,54.96c6.449,0,8.648-.734,8.648-2.859,0-2.42-1.832-3.593-12.384-6.6C73.526,42.353,69.494,37.3,69.494,29.6c0-9.818,7.4-15.391,21.474-15.391a35.417,35.417,0,0,1,19.788,5.424l-5.57,10.406a26.689,26.689,0,0,0-13.557-3.666c-5.276,0-6.962.952-6.962,3.3,0,2.126,2.271,3,10.992,5.5" transform="translate(113.854 24.121)" fill="#fff"/>
      <path id="Path_11984" data-name="Path 11984" d="M142.531,14.565v51.3H128.167v-29.9l-10.7,16.049h-6.3L100.538,35.966v29.9H86.175v-51.3h13.851l14.363,20.888,14.439-20.888Z" transform="translate(146.27 24.721)" fill="#fff"/>
      <path id="Path_11985" data-name="Path 11985" d="M167.269,14.565l-18.248,51.3H134l-18.1-51.3h15.758l10.04,31.953,10.04-31.953Z" transform="translate(196.716 24.721)" fill="#fff"/>
      <path id="Path_11986" data-name="Path 11986" d="M151.443,19.745c0,4.105-3.08,7.108-7.7,7.108s-7.7-3-7.7-7.108c0-4.178,3.078-7.11,7.7-7.11s7.7,2.932,7.7,7.11m-1.028,49.394H137.077V32.277h13.338Z" transform="translate(230.931 21.446)" fill="#fff"/>
      <path id="Path_11987" data-name="Path 11987" d="M165.449,34.953c6.743,2.271,11.434,4.909,11.434,11.58,0,9.306-7.4,11.8-16.929,11.8-7.11,0-12.1-1.467-16.786-4.1L147.2,44.92a27.13,27.13,0,0,0,11.434,3.445c3.663,0,4.688-.515,4.688-1.537,0-1.613-1.9-2.42-8.06-4.621-5.5-1.977-10.406-4.761-10.406-11.065,0-8.793,7.914-11.577,17-11.577,6.3,0,10.7,1.243,14.949,3.809l-4.324,8.721a18.944,18.944,0,0,0-9.746-2.635c-3.52,0-4.324.51-4.324,1.61,0,1.392,1.173,1.9,7.035,3.884" transform="translate(243.011 33.209)" fill="#fff"/>
      <path id="Path_11988" data-name="Path 11988" d="M172.66,19.745c0,4.105-3.08,7.108-7.7,7.108s-7.7-3-7.7-7.108c0-4.178,3.078-7.11,7.7-7.11s7.7,2.932,7.7,7.11m-1.028,49.394H158.294V32.277h13.338Z" transform="translate(266.944 21.446)" fill="#fff"/>
      <path id="Path_11989" data-name="Path 11989" d="M209.47,38.91c0,11.286-10.846,19.421-22.35,19.421S164.767,50.2,164.767,38.91c0-11.213,10.846-19.346,22.353-19.346S209.47,27.7,209.47,38.91m-13.778,0c0-5.13-3.442-8.354-8.572-8.354s-8.575,3.223-8.575,8.354,3.445,8.427,8.575,8.427,8.572-3.3,8.572-8.427" transform="translate(279.67 33.207)" fill="#fff"/>
      <path id="Path_11990" data-name="Path 11990" d="M222.867,37.372V57.378H209.531V37.372c0-5.058-1.173-6.816-5.5-6.816-3.882,0-6.447,2.784-7.18,7.183v19.64H183.512V20.516h12.974v4.47a14.844,14.844,0,0,1,11.577-5.422c10.406,0,14.8,6.449,14.8,17.808" transform="translate(311.488 33.207)" fill="#fff"/>
      <path id="Path_11991" data-name="Path 11991" d="M253.624,66.094H237.647l-2.784-8.572H218.081l-2.786,8.572H199.539l19.2-51.665h15.612ZM226.507,29.232l-5.422,17.3h10.846Z" transform="translate(338.691 24.491)" fill="#fff"/>
      <rect id="Rectangle_644" data-name="Rectangle 644" width="14.655" height="51.301" transform="translate(597.222 39.284)" fill="#fff"/>
      <path id="Path_11992" data-name="Path 11992" d="M33.151,26.579a3.263,3.263,0,0,0,2.2-.844l6.147-5.543a3.286,3.286,0,0,0,.237-4.637,3.28,3.28,0,0,0-4.634-.237L30.95,20.861a3.281,3.281,0,0,0,2.2,5.718" transform="translate(50.697 24.563)" fill="#fff"/>
      <path id="Path_11993" data-name="Path 11993" d="M23.417,23.965A3.287,3.287,0,0,0,26.7,20.682V12.4a3.283,3.283,0,1,0-6.565,0v8.286a3.285,3.285,0,0,0,3.283,3.283" transform="translate(34.175 15.468)" fill="#fff"/>
      <path id="Path_11994" data-name="Path 11994" d="M15.351,25.734a3.243,3.243,0,0,0,2.19.844c.062,0,.121,0,.183,0a3.281,3.281,0,0,0,2.023-5.716L13.6,15.314a3.283,3.283,0,0,0-4.4,4.877Z" transform="translate(13.786 24.566)" fill="#fff"/>
      <path id="Path_11995" data-name="Path 11995" d="M79.391,40.667c-4.135-8.079-16.875-23.354-35.484-23.354-16.249,0-29.531,11.728-35.487,23.354a3.284,3.284,0,0,0,5.845,2.994c4.888-9.527,16.249-19.78,29.641-19.78,15.418,0,26.129,12.939,29.641,19.78a3.283,3.283,0,0,0,5.842-2.994" transform="translate(13.685 29.386)" fill="#fff"/>
      <path id="Path_11996" data-name="Path 11996" d="M30.21,21.972a14.1,14.1,0,1,0,14.08,14.1,14.107,14.107,0,0,0-14.08-14.1m7.515,14.1a7.514,7.514,0,1,1-7.515-7.534,7.533,7.533,0,0,1,7.515,7.534" transform="translate(27.379 37.294)" fill="#fff"/>
    </g>
  </g>
</svg>
