<svg width="201" height="50" viewBox="0 0 201 50" fill="none" xmlns="http://www.w3.org/2000/svg">
<g clip-path="url(#clip0_206_178)">
<path d="M62.6427 30.0163V37.9282H56.2806V15.5791H71.9413V20.9625H62.6427V24.5514H70.7178V29.9348H62.6427V30.0163Z" fill="white"/>
<path d="M85.8075 24.3067C91.354 25.8565 92.9853 28.0587 92.9853 31.4029C92.9853 36.5416 88.6623 38.3361 82.9527 38.3361C77.243 38.3361 75.938 37.4388 73.3279 35.8075L75.5302 30.9136C77.6509 32.137 79.9347 32.9527 82.6264 32.9527C85.3181 32.9527 86.3785 32.6264 86.3785 31.7292C86.3785 30.832 85.5628 30.1795 80.9951 28.8744C76.1827 27.4878 74.3882 25.2855 74.3882 21.9413C74.3882 18.5971 77.6509 15.2529 83.7683 15.2529C89.8858 15.2529 89.6411 15.9054 92.4143 17.6183L89.9674 22.186C88.0098 21.1256 86.2969 20.5547 84.0946 20.5547C81.8923 20.5547 81.0767 20.9625 81.0767 22.0229C81.0767 23.0832 82.0555 23.3279 85.8891 24.3883L85.8075 24.3067Z" fill="white"/>
<path d="M120.31 15.5791V37.9282H114.029V24.8777L109.38 31.8923H106.607L101.958 24.8777V37.9282H95.677V15.5791H101.713L107.993 24.633L114.274 15.5791H120.228H120.31Z" fill="white"/>
<path d="M150.163 27.7325H155.22V37.9282H150.082V35.155C149.184 36.9494 147.064 38.4176 143.638 38.4176C137.357 38.4176 131.811 33.3605 131.811 26.8353C131.811 20.31 137.52 15.2529 144.698 15.2529C151.876 15.2529 151.713 16.8842 154.241 19.3312L150.245 23.3279C148.695 21.7782 146.982 20.9625 144.698 20.9625C140.946 20.9625 138.662 23.2463 138.662 26.8353C138.662 30.4242 141.109 32.708 144.617 32.708C148.124 32.708 149.755 31.0767 150.163 27.8956V27.7325Z" fill="white"/>
<path d="M172.023 22.4307L169.494 27.4878C168.842 27.1615 168.189 26.9984 167.292 26.9984C165.416 26.9984 164.193 28.4666 164.193 31.8923V37.9282H158.401V21.8597H164.111V24.2251C165.008 22.7569 167.047 21.4519 168.679 21.4519C170.31 21.4519 171.044 21.7781 172.023 22.4307Z" fill="white"/>
<path d="M179.772 16.3948C179.772 18.1892 178.467 19.4943 176.427 19.4943C174.388 19.4943 173.083 18.1892 173.083 16.3948C173.083 14.6003 174.388 13.2953 176.427 13.2953C178.467 13.2953 179.772 14.6003 179.772 16.3948ZM179.364 21.8597V37.9282H173.573V21.8597H179.364Z" fill="white"/>
<path d="M189.886 21.4519C191.925 21.4519 193.883 22.5122 194.78 23.8173V11.093H200.571V37.8467H194.78V34.4209C193.883 35.7259 191.925 36.7863 189.886 36.7863C185.155 36.7863 181.892 33.6868 181.892 29.1191C181.892 24.5514 185.155 21.4519 189.886 21.4519ZM191.354 32.2186C193.148 32.2186 194.698 31.2398 195.024 29.6085V28.7113C194.698 27.0799 193.148 26.1011 191.354 26.1011C189.56 26.1011 187.847 27.2431 187.847 29.2007C187.847 31.1582 189.315 32.3002 191.354 32.3002V32.2186Z" fill="white"/>
<path d="M9.21698 43.8009L3.67048 36.8678C-2.03914 29.8531 -0.978781 19.5758 5.95433 13.7846L17.7814 3.83357C22.3491 0.0815301 28.4666 -0.978829 34.0131 0.978757C39.1517 2.77321 43.0669 7.01465 44.4535 12.2349C46.9821 21.6965 47.4715 36.9494 30.9136 47.4714C23.8173 51.9576 14.5188 50.3262 9.21698 43.8009Z" fill="#0254A5"/>
<path d="M20.8809 13.2137H14.1925C13.0505 13.2137 12.1533 14.1109 12.1533 15.2529V21.9413C12.1533 23.0832 13.0505 23.9804 14.1925 23.9804H20.8809C22.0228 23.9804 22.92 23.0832 22.92 21.9413V15.2529C22.92 14.1109 22.0228 13.2137 20.8809 13.2137Z" fill="white"/>
<path d="M33.8499 13.2137H27.1615C26.0195 13.2137 25.1223 14.1109 25.1223 15.2529V21.9413C25.1223 23.0832 26.0195 23.9804 27.1615 23.9804H33.8499C34.9918 23.9804 35.889 23.0832 35.889 21.9413V15.2529C35.889 14.1109 34.9918 13.2137 33.8499 13.2137Z" fill="white"/>
<path d="M20.8809 26.1827H14.1925C13.0505 26.1827 12.1533 27.0799 12.1533 28.2219V34.9103C12.1533 36.0522 13.0505 36.9494 14.1925 36.9494H20.8809C22.0228 36.9494 22.92 36.0522 22.92 34.9103V28.2219C22.92 27.0799 22.0228 26.1827 20.8809 26.1827Z" fill="white"/>
<path d="M33.8499 26.1827H27.1615C26.0195 26.1827 25.1223 27.0799 25.1223 28.2219V34.9103C25.1223 36.0522 26.0195 36.9494 27.1615 36.9494H33.8499C34.9918 36.9494 35.889 36.0522 35.889 34.9103V28.2219C35.889 27.0799 34.9918 26.1827 33.8499 26.1827Z" fill="white"/>
</g>
<defs>
<clipPath id="clip0_206_178">
<rect width="200.571" height="50" fill="white"/>
</clipPath>
</defs>
</svg>
