<svg width="167" height="35" viewBox="0 0 167 35" fill="none" xmlns="http://www.w3.org/2000/svg">
<g clip-path="url(#clip0_206_30)">
<path d="M6.45186 30.6607L2.56932 25.8646C-1.37032 20.8972 -0.685167 13.7031 4.16801 9.59217L12.5041 2.68352C15.7015 0.0570944 19.9837 -0.685157 23.8662 0.628057C27.4633 1.88417 30.2039 4.85318 31.2316 8.50734C33.0016 15.1305 33.3442 25.8075 21.7537 33.23C16.6721 36.3132 10.106 35.2284 6.45186 30.6036V30.6607Z" fill="#ED1E79"/>
<path d="M46.1909 21.4111V26.7781H41.8516V11.5905H52.4715V15.2447H46.1909V17.6998H51.6721V21.354H46.1909V21.4111Z" fill="#242A56"/>
<path d="M61.8924 17.5285C65.6607 18.6134 66.8026 20.0408 66.8026 22.3817C66.8026 25.8646 63.8336 27.0636 60.0082 27.0636C56.1827 27.0636 55.2692 26.4356 53.4992 25.3507L54.9837 22.0392C56.4111 22.8385 57.9527 23.4095 59.8369 23.4095C61.7211 23.4095 62.4062 23.1811 62.4062 22.553C62.4062 21.925 61.8924 21.4682 58.7521 20.6117C55.4405 19.6982 54.2986 18.2137 54.2986 15.9299C54.2986 13.646 56.4682 11.3622 60.6362 11.3622C64.8043 11.3622 64.5759 11.8189 66.4601 12.9608L64.8043 16.044C63.4911 15.3018 62.292 14.9592 60.8075 14.9592C59.323 14.9592 58.7521 15.2447 58.7521 15.9299C58.7521 16.615 59.4372 16.8434 62.0065 17.5285H61.8924Z" fill="#242A56"/>
<path d="M85.3018 11.5905V26.721H81.0767V17.8711L77.9364 22.6101H76.0522L72.9119 17.8711V26.721H68.6868V11.5905H72.7977L77.0228 17.7569L81.305 11.5905H85.3589H85.3018Z" fill="#242A56"/>
<path d="M97.863 11.5905V26.721H93.5237V11.5905H97.863Z" fill="#242A56"/>
<path d="M111.852 20.8401V26.7781H107.912V20.8401C107.912 19.3556 107.569 18.8418 106.313 18.8418C105.057 18.8418 104.429 19.6411 104.201 20.9543V26.7781H100.261V15.8728H104.086V17.186C104.829 16.3295 105.971 15.5873 107.512 15.5873C110.595 15.5873 111.909 17.4714 111.909 20.8401H111.852Z" fill="#242A56"/>
<path d="M119.788 20.155C121.786 20.8401 123.157 21.5824 123.157 23.5807C123.157 25.5791 120.987 27.0636 118.132 27.0636C115.277 27.0636 114.535 26.6069 113.165 25.8646L114.364 23.124C115.392 23.6949 116.876 24.1517 117.732 24.1517C118.589 24.1517 119.103 23.9804 119.103 23.6949C119.103 23.2382 118.532 22.9527 116.705 22.3246C115.106 21.7537 113.622 20.8972 113.622 19.0701C113.622 17.2431 115.963 15.6444 118.646 15.6444C121.33 15.6444 121.786 15.9869 123.042 16.7863L121.786 19.3556C120.873 18.8418 119.902 18.5563 118.932 18.5563C117.961 18.5563 117.675 18.7276 117.675 19.013C117.675 19.2985 118.018 19.584 119.731 20.155H119.788Z" fill="#242A56"/>
<path d="M128.98 12.1615C128.98 13.3605 128.067 14.2741 126.697 14.2741C125.326 14.2741 124.413 13.3605 124.413 12.1615C124.413 10.9625 125.326 10.0489 126.697 10.0489C128.067 10.0489 128.98 10.9054 128.98 12.1615ZM128.695 15.8728V26.7781H124.755V15.8728H128.695Z" fill="#242A56"/>
<path d="M142.969 31.9739L139.315 33.0016C138.801 31.46 137.773 30.5465 135.832 30.5465C133.891 30.5465 133.206 30.8891 131.892 31.5171L129.608 29.2333L132.292 23.9804C131.321 23.124 130.579 21.8679 130.579 20.5546C130.579 17.5285 133.548 15.5873 136.574 15.5873C139.6 15.5873 138.002 15.7015 138.687 15.9299L139.486 14.217L142.912 15.1876L141.599 17.814C142.17 18.5563 142.569 19.5269 142.569 20.5546C142.569 23.5237 139.6 25.4078 136.574 25.4078C133.548 25.4078 135.889 25.4078 135.546 25.2936L134.29 27.8059C135.033 27.5204 135.775 27.3491 136.974 27.3491C139.829 27.3491 142.113 28.8907 143.083 31.9168L142.969 31.9739ZM134.462 20.4405C134.462 21.6395 135.261 22.4388 136.46 22.4388C137.659 22.4388 138.458 21.6395 138.458 20.4405C138.458 19.2414 137.659 18.5563 136.46 18.5563C135.261 18.5563 134.462 19.2985 134.462 20.4405Z" fill="#242A56"/>
<path d="M155.987 20.8401V26.7781H152.047V20.8401C152.047 19.3556 151.705 18.8418 150.392 18.8418C149.078 18.8418 148.507 19.6411 148.279 20.9543V26.7781H144.339V8.56444H148.279V17.186C148.964 16.3866 150.106 15.6444 151.591 15.6444C154.674 15.6444 155.987 17.5285 155.987 20.8972V20.8401Z" fill="#242A56"/>
<path d="M163.181 26.7781H159.241V19.0131H157.357V15.8728H159.241V11.5905H163.181V15.8728H166.321V19.0131H163.181V26.7781Z" fill="#242A56"/>
<path d="M23.2382 12.0473C23.4095 12.0473 23.6378 11.9902 23.752 11.8189L25.2365 10.4486C25.5791 10.1631 25.5791 9.64927 25.2936 9.30669C25.1794 9.1354 24.9511 9.07831 24.7227 9.02121C24.4943 9.02121 24.323 9.07831 24.1517 9.2496L22.6672 10.6199C22.3246 10.9054 22.3246 11.4193 22.6101 11.7618C22.7814 11.9331 23.0098 12.0473 23.1811 12.0473H23.2382Z" fill="white" stroke="white" stroke-width="0.5" stroke-miterlimit="10"/>
<path d="M16.8434 9.1925C17.3002 9.1925 17.6428 8.84992 17.6428 8.39315V6.39478C17.6428 5.93801 17.3002 5.59543 16.8434 5.59543C16.3866 5.59543 16.0441 5.93801 16.0441 6.39478V8.39315C16.0441 8.84992 16.3866 9.1925 16.8434 9.1925Z" fill="white" stroke="white" stroke-width="0.5" stroke-miterlimit="10"/>
<path d="M9.93476 11.876C10.106 11.9902 10.2773 12.1044 10.4486 12.1044C10.6199 12.1044 10.4486 12.1044 10.4486 12.1044C10.677 12.1044 10.8483 11.9902 11.0196 11.8189C11.1909 11.6476 11.248 11.4763 11.248 11.248C11.248 11.0196 11.1338 10.8483 10.9625 10.677L9.47799 9.30669C9.13541 9.02121 8.62154 9.02121 8.33606 9.36379C8.05058 9.70636 8.05058 10.2202 8.39316 10.5057L9.87766 11.876H9.93476Z" fill="white" stroke="white" stroke-width="0.5" stroke-miterlimit="10"/>
<path d="M23.9804 17.9853C23.9804 14.0457 20.783 10.8483 16.8434 10.8483C12.9037 10.8483 9.70636 14.0457 9.70636 17.9853C9.70636 21.925 11.1338 22.8956 13.2463 24.1517V27.2349C13.2463 28.4339 14.217 29.4046 15.416 29.4046H18.2137C19.4127 29.4046 20.3834 28.4339 20.3834 27.2349V24.1517C22.4959 22.8956 23.9233 20.6117 23.9233 17.9853H23.9804ZM18.956 27.2349C18.956 27.6346 18.6134 27.9772 18.2137 27.9772H15.416C15.0163 27.9772 14.6737 27.6346 14.6737 27.2349V24.8369C16.044 25.2936 17.5285 25.2936 18.8989 24.8369V27.2349H18.956ZM17.8711 23.5808L18.956 20.3834C19.1272 19.9266 18.7847 19.4127 18.2708 19.4127H16.4437L17.5285 16.1011C17.6427 15.7015 17.4714 15.3018 17.0718 15.1876C16.6721 15.0734 16.2724 15.2447 16.1582 15.6444L14.7308 19.9266C14.5595 20.3834 14.9021 20.8972 15.416 20.8972H17.2431L16.3295 23.6949C13.4176 23.4095 11.1909 21.0114 11.1909 18.0424C11.1909 15.0734 13.7602 12.3899 16.8434 12.3899C19.9266 12.3899 22.4959 14.9592 22.4959 18.0424C22.4959 21.1256 20.4975 23.124 17.8711 23.6378V23.5808Z" fill="white" stroke="white" stroke-width="0.5" stroke-miterlimit="10"/>
</g>
<defs>
<clipPath id="clip0_206_30">
<rect width="166.321" height="35" fill="white"/>
</clipPath>
</defs>
</svg>
