<svg xmlns="http://www.w3.org/2000/svg" xmlns:xlink="http://www.w3.org/1999/xlink" width="529.591" height="118.528" viewBox="0 0 529.591 118.528">
  <defs>
    <clipPath id="clip-path">
      <rect id="Rectangle_9" data-name="Rectangle 9" width="529.591" height="118.528" fill="none"/>
    </clipPath>
  </defs>
  <g id="Group_2" data-name="Group 2" transform="translate(0 0)">
    <g id="Group_1" data-name="Group 1" transform="translate(0 0)" clip-path="url(#clip-path)">
      <path id="Path_1" data-name="Path 1" d="M21.795,103.765,8.65,87.512a39.521,39.521,0,0,1,5.5-54.969l28.2-23.424a40.027,40.027,0,0,1,38.48-6.93,39.285,39.285,0,0,1,24.856,26.768c5.976,22.465,7.171,58.554-32.027,83.652a39.8,39.8,0,0,1-51.863-8.844" transform="translate(0.001 -0.001)" fill="#47a836"/>
      <path id="Path_2" data-name="Path 2" d="M68.153,48.036v18.1H53.5v-51.3H89.479V27.295H68.153v8.283H86.694V48.036Z" transform="translate(88.16 24.448)" fill="#fff"/>
      <path id="Path_3" data-name="Path 3" d="M96.911,35.437c12.824,3.591,16.563,8.574,16.563,16.343,0,11.8-9.967,15.9-23.085,15.9-8.648,0-16.123-2.052-22.06-5.788L73.312,50.6a32.19,32.19,0,0,0,16.343,4.621c6.448,0,8.648-.733,8.648-2.86,0-2.418-1.832-3.591-12.384-6.6-11.14-3.151-15.173-8.209-15.173-15.9,0-9.821,7.4-15.393,21.475-15.393A35.406,35.406,0,0,1,112.01,19.9l-5.571,10.406a26.683,26.683,0,0,0-13.558-3.667c-5.277,0-6.961.953-6.961,3.3,0,2.126,2.269,3.005,10.992,5.5" transform="translate(112.603 23.855)" fill="#fff"/>
      <path id="Path_4" data-name="Path 4" d="M144.14,14.836v51.3H129.777v-29.9l-10.7,16.049h-6.3L102.148,36.237v29.9H87.783v-51.3h13.851L116,35.723l14.437-20.887Z" transform="translate(144.663 24.448)" fill="#fff"/>
      <path id="Path_5" data-name="Path 5" d="M172.2,66.365H156.222l-2.783-8.577H136.654l-2.783,8.577H118.113l19.2-51.667h15.61ZM145.082,29.5,139.659,46.8h10.846Z" transform="translate(194.645 24.221)" fill="#fff"/>
      <path id="Path_6" data-name="Path 6" d="M161.452,35.319c6.742,2.272,11.434,4.909,11.434,11.58,0,9.3-7.4,11.8-16.931,11.8-7.107,0-12.093-1.467-16.783-4.1l4.033-9.308a27.111,27.111,0,0,0,11.431,3.442c3.665,0,4.692-.511,4.692-1.536,0-1.613-1.907-2.42-8.063-4.618-5.5-1.978-10.406-4.764-10.406-11.066,0-8.794,7.915-11.58,17-11.58,6.3,0,10.7,1.245,14.95,3.81l-4.324,8.722a18.95,18.95,0,0,0-9.747-2.64c-3.519,0-4.324.511-4.324,1.613,0,1.393,1.173,1.907,7.036,3.885" transform="translate(229.349 32.841)" fill="#fff"/>
      <path id="Path_7" data-name="Path 7" d="M175.259,35.319c6.744,2.272,11.434,4.909,11.434,11.58,0,9.3-7.4,11.8-16.931,11.8-7.107,0-12.091-1.467-16.78-4.1l4.03-9.308a27.111,27.111,0,0,0,11.431,3.442c3.665,0,4.692-.511,4.692-1.536,0-1.613-1.907-2.42-8.063-4.618-5.5-1.978-10.406-4.764-10.406-11.066,0-8.794,7.915-11.58,17-11.58,6.3,0,10.7,1.245,14.95,3.81l-4.324,8.722a18.95,18.95,0,0,0-9.747-2.64c-3.519,0-4.324.511-4.324,1.613,0,1.393,1.173,1.907,7.036,3.885" transform="translate(252.108 32.841)" fill="#fff"/>
      <path id="Path_8" data-name="Path 8" d="M182.737,19.978c0,4.107-3.08,7.11-7.7,7.11s-7.695-3-7.695-7.11c0-4.176,3.08-7.107,7.695-7.107s7.7,2.931,7.7,7.107m-1.027,49.395H168.371V32.511h13.338Z" transform="translate(275.776 21.21)" fill="#fff"/>
      <path id="Path_9" data-name="Path 9" d="M196.874,35.319c6.744,2.272,11.434,4.909,11.434,11.58,0,9.3-7.4,11.8-16.931,11.8-7.107,0-12.093-1.467-16.783-4.1l4.033-9.308a27.111,27.111,0,0,0,11.431,3.442c3.665,0,4.692-.511,4.692-1.536,0-1.613-1.907-2.42-8.063-4.618-5.5-1.978-10.406-4.764-10.406-11.066,0-8.794,7.915-11.58,17-11.58,6.3,0,10.7,1.245,14.95,3.81l-4.324,8.722a18.95,18.95,0,0,0-9.747-2.64c-3.519,0-4.324.511-4.324,1.613,0,1.393,1.173,1.907,7.036,3.885" transform="translate(287.723 32.841)" fill="#fff"/>
      <path id="Path_10" data-name="Path 10" d="M208.3,66.137H194.962V39.9h-6.448V29.275h6.448V14.836H208.3V29.275h10.629V39.9H208.3Z" transform="translate(310.664 24.448)" fill="#fff"/>
      <path id="Path_11" data-name="Path 11" d="M79.486,47.166l.024-.527c.021-.485.029-.977.029-1.488a35.061,35.061,0,0,0-66.98-14.535,34.68,34.68,0,0,0-2.4,7.157,35.251,35.251,0,0,0-.794,7.375c0,.511.005,1,.026,1.48l.024.527-.257.461a10.375,10.375,0,0,0-1.406,5.15v.821A10.605,10.605,0,0,0,18.35,64.182h2.018A2.982,2.982,0,0,0,23.347,61.2V45.151a3.033,3.033,0,0,0-.114-.749,2.971,2.971,0,0,0-2.865-2.23H18.35c-.328.042-.485.064-.643.071l-2.322.14.405-2.293A29.276,29.276,0,0,1,44.449,16.018,29.172,29.172,0,0,1,73.113,40.091l.405,2.293-2.325-.14c-.156-.008-.312-.029-.469-.05l-2.193-.021a2.9,2.9,0,0,0-1.017.2,2.986,2.986,0,0,0-1.962,2.783V61.2a2.982,2.982,0,0,0,2.979,2.979h2.015A10.605,10.605,0,0,0,81.141,53.587v-.821a10.4,10.4,0,0,0-1.4-5.142Z" transform="translate(12.782 16.582)" fill="#fff"/>
      <path id="Path_12" data-name="Path 12" d="M44.06,35.417a12.193,12.193,0,0,0-.016-3.286l-.13-.929,4.472-3.281-3.432-5.608-4.878,2.349-.747-.572a12.153,12.153,0,0,0-2.839-1.623l-.871-.35-.606-5.521-6.572.167-.405,5.391-.866.36a12.238,12.238,0,0,0-2.823,1.655l-.739.58-5.092-2.238-3.14,5.778,4.459,3.043-.119.929a12.676,12.676,0,0,0-.1,1.647,12.056,12.056,0,0,0,.119,1.636l.13.929L15.4,39.757l3.426,5.606,4.88-2.349.744.572a12.193,12.193,0,0,0,2.841,1.626l.869.355.606,5.516,6.572-.164.405-5.391.869-.363a12.116,12.116,0,0,0,2.817-1.652l.741-.58,5.089,2.238,3.082-5.661-4.4-3.162Zm-6.721,3.816a7.629,7.629,0,0,1-5.412,2.277,6.922,6.922,0,0,1-.882-.048,7.677,7.677,0,1,1,6.294-2.23" transform="translate(25.341 27.347)" fill="#fff"/>
    </g>
  </g>
</svg>
