<?xml version="1.0" encoding="utf-8"?>
<!-- Generator: Adobe Illustrator 25.2.3, SVG Export Plug-In . SVG Version: 6.00 Build 0)  -->
<svg version="1.1" id="Layer_1" xmlns="http://www.w3.org/2000/svg" xmlns:xlink="http://www.w3.org/1999/xlink" x="0px" y="0px"
	 viewBox="0 0 394.5 79.1" style="enable-background:new 0 0 394.5 79.1;" xml:space="preserve">
<style type="text/css">
	.st0{fill:#FFFFFF;}
	.st1{fill:#7F4E9C;}
</style>
<g>
	<path class="st0" d="M99.8,46.1v11.3h-9.2V25.3h22.5v7.8H99.8v5.2h11.6v7.8H99.8z"/>
	<path class="st0" d="M133.1,37.8c8,2.2,10.4,5.4,10.4,10.2c0,7.4-6.2,9.9-14.4,9.9c-4.8,0.1-9.6-1.1-13.8-3.6l3.1-7.1
		c3.1,1.9,6.6,2.9,10.2,2.9c4,0,5.4-0.5,5.4-1.8c0-1.5-1.1-2.2-7.7-4.1c-7-2-9.5-5.1-9.5-9.9c0-6.1,4.6-9.6,13.4-9.6
		c4.4-0.1,8.7,1.1,12.4,3.4l-3.5,6.5c-2.6-1.5-5.5-2.3-8.5-2.3c-3.3,0-4.4,0.6-4.4,2.1C126.2,35.8,127.6,36.3,133.1,37.8z"/>
	<path class="st0" d="M182.7,25.3v32.1h-9V38.7l-6.7,10H163l-6.6-10v18.7h-9V25.3h8.7l9,13l9-13H182.7z"/>
	<path class="st0" d="M209,41.4c0,5.3,3.7,8.4,8.4,8.4c3.2,0.1,6.4-0.6,9.4-2v8.5c-3,1.2-6.1,1.8-9.3,1.7
		c-10.2,0-18.2-7.2-18.2-16.6s7.5-16.6,17.9-16.6c3.3,0,6.6,0.7,9.7,2v8.5c-3-1.4-6.4-2.2-9.7-2.2C212.1,33,209,36.2,209,41.4z"/>
	<path class="st0" d="M258.1,45.9c0,7.1-6.8,12.1-14,12.1s-14-5.1-14-12.1s6.8-12.1,14-12.1C251.3,33.8,258.1,38.8,258.1,45.9z
		 M249.5,45.9c0-3.2-2.2-5.2-5.4-5.2c-3.2,0-5.4,2-5.4,5.2c0,3,2.4,5.4,5.4,5.4C247.1,51.2,249.5,48.8,249.5,45.9L249.5,45.9z"/>
	<path class="st0" d="M286.4,44.9v12.5h-8.3V44.9c0-3.2-0.7-4.3-3.4-4.3c-2.4,0-4,1.7-4.5,4.5v12.3h-8.3v-23h8.1v2.8
		c1.8-2.2,4.4-3.4,7.2-3.4C283.6,33.8,286.4,37.8,286.4,44.9z"/>
	<path class="st0" d="M315.4,44.9v12.5h-8.3V44.9c0-3.2-0.7-4.3-3.4-4.3c-2.4,0-4,1.7-4.5,4.5v12.3h-8.3v-23h8.1v2.8
		c1.8-2.2,4.4-3.4,7.2-3.4C312.6,33.8,315.4,37.8,315.4,44.9z"/>
	<path class="st0" d="M343.9,48.5h-16.3c0.6,2.5,2.5,3.3,5.5,3.3c2.2,0,4.4-0.3,6.5-1.1l1.8,5.8c-2.9,1-5.9,1.5-9,1.4
		c-7.3,0-13.5-4.6-13.5-12.1s5.6-12.1,13.1-12.1c7.7,0,12.7,4.6,12.7,10.7C344.7,45.8,344.4,47.2,343.9,48.5z M327.4,43.5h9
		c-0.5-2.3-1.9-3.8-4.5-3.8C329.5,39.7,328.1,41.1,327.4,43.5L327.4,43.5z"/>
	<path class="st0" d="M367.3,50v7c-2,0.6-4.2,1-6.3,0.9c-7.2,0-13.6-5-13.6-12.2c0-7.3,6.4-12,13.6-12c2.2,0,4.3,0.4,6.3,1.2v7
		c-2-0.8-4.2-1.3-6.3-1.3c-3.2,0-4.9,1.7-4.9,5.2c-0.2,2.8,1.9,5.1,4.7,5.3c0.2,0,0.4,0,0.6,0C363.3,51.1,365.4,50.8,367.3,50z"/>
	<path class="st0" d="M381.9,57.4h-8.3V41h-4v-6.6h4v-9h8.3v9h6.6V41h-6.6V57.4z"/>
	<path class="st1" d="M19.4,67l-8.1-10.1C3,46.6,4.4,31.6,14.6,23.1L31.9,8.6c6.6-5.5,15.6-7.1,23.7-4.2l0,0
		c7.5,2.6,13.2,8.8,15.3,16.5c3.6,13.9,4.4,36.1-19.8,51.5C40.7,78.9,27,76.6,19.4,67z"/>
	<path class="st0" d="M20.8,36.7c-3.9,3.9-3,11.2,2,16.2c2.6,2.7,6.1,4.3,9.9,4.5l0,0c2.3,0.1,4.6-0.8,6.3-2.5l12-12
		c0.2-0.2,0.3-0.3,0.5-0.5l1.2-1.5l-4-4L35,50.6c-0.7,0.7-1.7,1-2.7,1c-2.2-0.1-4.3-1.1-5.8-2.7c-1.4-1.3-2.3-3-2.6-4.9
		c-0.3-1.3,0.1-2.6,0.9-3.5L59.1,6.3c-1.4-0.9-2.9-1.6-4.5-2.1l0,0l-0.9-0.3C45.1,12.4,33,24.5,32.9,24.7L20.8,36.7z"/>
	<path class="st0" d="M59.6,47.4c3.9-3.9,3-11.2-2-16.2c-2.6-2.7-6.1-4.3-9.9-4.5c-2.3-0.1-4.6,0.8-6.3,2.5l-12,12
		c-0.2,0.2-0.4,0.4-0.5,0.6l-1.2,1.5l4,4l13.8-13.8c0.7-0.7,1.7-1,2.7-1c2.2,0.1,4.3,1.1,5.8,2.7c1.4,1.3,2.3,3,2.6,4.9
		c0.3,1.3-0.1,2.6-0.9,3.5L26.1,73.1c1.8,0.9,3.7,1.6,5.7,2.1l14.7-14.6L59.6,47.4z"/>
</g>
</svg>
