<svg width="195" height="60" viewBox="0 0 195 60" fill="none" xmlns="http://www.w3.org/2000/svg">
<g clip-path="url(#clip0_209_18)">
<path d="M61.9842 29.3651V37.0635H55.7144V15.2381H71.0318V20.5556H61.9842V24.0476H69.9207V29.3651H61.9842Z" fill="#1F2C5A"/>
<path d="M84.6826 23.7302C90.1588 25.2381 91.7461 27.381 91.7461 30.7143C91.7461 35.7143 87.5398 37.4603 81.9049 37.4603C76.27 37.4603 75.0001 36.5873 72.5398 35L74.6826 30.1588C76.7461 31.3492 78.9684 32.1429 81.6668 32.1429C84.3652 32.1429 85.3176 31.8254 85.3176 30.9524C85.3176 30.0794 84.5239 29.4445 80.0795 28.1746C75.3176 26.8254 73.6509 24.6826 73.6509 21.4286C73.6509 18.1746 76.8255 14.8413 82.7779 14.8413C88.7303 14.8413 88.4922 15.4762 91.1906 17.1429L88.8096 21.5873C86.9049 20.5556 85.2382 20 83.016 20C80.7938 20 80.0795 20.3968 80.0795 21.4286C80.0795 22.4603 81.0319 22.6984 84.762 23.8095L84.6826 23.7302Z" fill="#1F2C5A"/>
<path d="M118.492 15.2381V37.0635H112.381V24.3651L107.857 31.1905H105.159L100.635 24.3651V37.0635H94.5239V15.2381H100.397L106.508 24.127L112.619 15.2381H118.492Z" fill="#1F2C5A"/>
<path d="M145 31.5873V37.1429H130.318V15.2381H136.587V31.5873H145.079H145Z" fill="#1F2C5A"/>
<path d="M153.333 16.0318C153.333 17.7778 151.984 19.0476 150.079 19.0476C148.175 19.0476 146.825 17.7778 146.825 16.0318C146.825 14.2857 148.175 13.0159 150.079 13.0159C151.984 13.0159 153.333 14.2857 153.333 16.0318ZM152.857 21.3492V37.0635H147.143V21.3492H152.857Z" fill="#1F2C5A"/>
<path d="M163.333 37.0635H157.619V25.873H154.841V21.3492H157.619V15.1588H163.333V21.3492H167.857V25.873H163.333V37.0635Z" fill="#1F2C5A"/>
<path d="M186.191 31.0318H175.079C175.556 32.7778 176.746 33.3334 178.81 33.3334C180.873 33.3334 181.826 33.0953 183.175 32.6191L184.365 36.5873C182.54 37.3016 180.397 37.5397 178.254 37.5397C173.254 37.5397 169.048 34.3651 169.048 29.2857C169.048 24.2064 172.857 21.0318 177.937 21.0318C183.016 21.0318 186.587 24.127 186.587 28.3334C186.587 32.5397 186.349 30.3968 186.032 31.1111L186.191 31.0318ZM175 27.6191H181.111C180.714 26.0318 179.762 25.0794 178.016 25.0794C176.27 25.0794 175.397 26.0318 174.921 27.6191H175Z" fill="#1F2C5A"/>
<path d="M9.05874 42.8397L3.58255 36.0937C-1.97301 29.1889 -0.941261 19.1095 5.80477 13.4746L17.4714 3.79207C21.8365 0.0619124 27.8683 -0.969834 33.2651 0.934928C38.2651 2.76032 42.154 6.80794 43.5032 11.9667C45.9635 21.2524 46.4397 36.173 30.2492 46.4111C23.3445 50.7762 14.2175 49.1889 9.05874 42.8397Z" fill="#ED3435"/>
<path d="M59.3651 57.2222C58.8889 57.2222 58.4921 57.2222 58.0159 57.0635C57.6191 56.9841 57.2223 56.8254 56.8254 56.6667C56.4286 56.5079 56.1111 56.3492 55.873 56.1111L56.4286 54.9206C56.9048 55.2381 57.381 55.4762 57.8572 55.6349C58.3334 55.7936 58.8889 55.873 59.4445 55.873C60 55.873 60.5556 55.7937 60.873 55.5556C61.1905 55.3175 61.3492 55 61.3492 54.6032C61.3492 54.2064 61.3492 54.2063 61.1111 54.0476C60.9524 53.8889 60.7143 53.7302 60.3969 53.6508C60.0794 53.5714 59.6826 53.4127 59.2857 53.3333C58.7302 53.254 58.254 53.0952 57.8572 52.9365C57.4603 52.7778 57.1429 52.619 56.8254 52.381C56.5873 52.1429 56.3492 51.9048 56.1905 51.6667C56.0318 51.3492 55.9524 51.0317 55.9524 50.6349C55.9524 50.2381 56.1111 49.6032 56.3492 49.2063C56.6667 48.8095 57.0635 48.4921 57.5397 48.254C58.0953 48.0159 58.6508 47.9365 59.3651 47.9365C60.0794 47.9365 60.2381 47.9365 60.635 48.0952C61.0318 48.1746 61.4286 48.3333 61.7461 48.4921C62.0635 48.6508 62.381 48.8095 62.6191 49.0476L62.0635 50.2381C61.6667 49.9206 61.2699 49.6825 60.7937 49.5238C60.3175 49.3651 59.9207 49.2857 59.4445 49.2857C58.9683 49.2857 58.4127 49.3651 58.0953 49.6032C57.7778 49.8413 57.6191 50.1587 57.6191 50.5556C57.6191 50.9524 57.6191 51.0317 57.8572 51.1905C58.0159 51.3492 58.1746 51.5079 58.4921 51.5873C58.8096 51.6667 59.127 51.8254 59.6032 51.9048C60.1588 51.9841 60.635 52.1429 61.0318 52.3016C61.4286 52.4603 61.8254 52.619 62.0635 52.7778C62.381 53.0159 62.5397 53.1746 62.6984 53.4921C62.8572 53.7302 62.9365 54.127 62.9365 54.4444C62.9365 55 62.7778 55.4762 62.5397 55.873C62.2223 56.2698 61.8254 56.5873 61.2699 56.8254C60.7143 57.0635 60.0794 57.1429 59.3651 57.1429V57.2222Z" fill="#333333"/>
<path d="M64.2858 47.7778H66.0318V49.3651H64.2858V47.7778ZM64.2858 57.0635V50.6349H65.8731V57.0635H64.2858Z" fill="#333333"/>
<path d="M67.619 57.0635V52.4603C67.619 52.1428 67.619 51.8254 67.619 51.5873C67.619 51.2698 67.619 50.9524 67.5397 50.7143H69.0476L69.2063 51.9841H69.0476C69.2063 51.5079 69.5238 51.1905 69.8413 50.9524C70.2381 50.7143 70.6349 50.5555 71.1905 50.5555C71.746 50.5555 72.3016 50.7143 72.619 51.0317C72.9365 51.3492 73.1746 51.8254 73.254 52.3809L72.9365 52.0635C73.0952 51.5873 73.4127 51.1905 73.8095 50.9524C74.2063 50.6349 74.6825 50.5555 75.2381 50.5555C75.7936 50.5555 76.5079 50.7936 76.8254 51.1905C77.1429 51.5873 77.3809 52.3016 77.3809 53.1746V57.1428H75.7936V53.254C75.7936 52.7778 75.7143 52.3809 75.5555 52.1428C75.3968 51.9047 75.0794 51.8254 74.7619 51.8254C74.4444 51.8254 73.9682 51.9841 73.7302 52.3016C73.4921 52.619 73.3333 53.0159 73.3333 53.5714V57.1428H71.746V53.254C71.746 52.7778 71.6667 52.3809 71.5079 52.1428C71.3492 51.9047 71.0317 51.8254 70.7143 51.8254C70.3968 51.8254 69.9206 51.9841 69.6825 52.3016C69.4444 52.619 69.2857 53.0159 69.2857 53.5714V57.1428H67.6984L67.619 57.0635Z" fill="#333333"/>
<path d="M79.0476 59.8413V52.5397C79.0476 52.2222 79.0476 51.9048 79.0476 51.6667C79.0476 51.3492 79.0476 51.0317 78.9683 50.7936H80.4762L80.6349 52.0635H80.5556C80.7143 51.6667 80.9524 51.2698 81.3492 51.0317C81.746 50.7937 82.2222 50.6349 82.7778 50.6349C83.3333 50.6349 83.8095 50.7937 84.2857 51.0317C84.6825 51.3492 85.0794 51.746 85.3175 52.2222C85.5556 52.6984 85.7143 53.3333 85.7143 53.9683C85.7143 54.6032 85.5556 55.2381 85.3175 55.7143C85.0794 56.1905 84.7619 56.5873 84.2857 56.8254C83.8889 57.0635 83.3333 57.2222 82.7778 57.2222C82.2222 57.2222 81.746 57.0635 81.3492 56.8254C80.9524 56.5873 80.7143 56.1905 80.5556 55.7143L80.7143 55.4762V59.8413H79.127H79.0476ZM82.3016 55.9524C82.8571 55.9524 83.254 55.7937 83.4921 55.3968C83.8095 55 83.8889 54.5238 83.8889 53.8889C83.8889 53.254 83.7302 52.6984 83.4921 52.3016C83.1746 51.9048 82.7778 51.746 82.3016 51.746C81.8254 51.746 81.3492 51.9048 81.0318 52.3016C80.7143 52.6984 80.6349 53.1746 80.6349 53.8889C80.6349 54.6032 80.7937 55.0794 81.0318 55.4762C81.2698 55.873 81.746 56.0317 82.3016 56.0317V55.9524Z" fill="#333333"/>
<path d="M86.9048 57.0635V47.6984H88.4921V57.0635H86.9048Z" fill="#333333"/>
<path d="M92.3016 57.5397L89.3651 50.7143H91.0318L93.0159 55.7143L92.3016 57.5397ZM90.0794 60L89.7619 58.8095C90.1588 58.7302 90.4762 58.6508 90.7143 58.4921C90.9524 58.4127 91.1905 58.254 91.3492 58.0159C91.508 57.8571 91.6667 57.6191 91.8254 57.3016L92.3016 56.2699L92.6984 55.7143L94.7619 50.7143H96.3492L93.4127 57.5397C93.1746 58.0952 92.8572 58.5714 92.5397 58.8889C92.2223 59.2064 91.8254 59.4444 91.4286 59.6825C91.0318 59.8413 90.5556 60 90.0794 60Z" fill="#333333"/>
<path d="M100.714 57.0635V48.0159H104.603C105.556 48.0159 106.349 48.254 106.905 48.7302C107.46 49.2063 107.698 49.8413 107.698 50.6349C107.698 51.4286 107.46 52.0635 106.905 52.5397C106.349 53.0159 105.635 53.254 104.603 53.254H102.302V57.0635H100.635H100.714ZM102.381 51.9841H104.445C105 51.9841 105.476 51.9048 105.714 51.6667C106.032 51.4286 106.111 51.1111 106.111 50.6349C106.111 50.1587 105.952 49.8413 105.714 49.6032C105.397 49.3651 105 49.2857 104.445 49.2857H102.381V51.9841Z" fill="#333333"/>
<path d="M111.746 57.2222C111.111 57.2222 110.476 57.0635 110 56.8254C109.524 56.5873 109.127 56.1905 108.889 55.7143C108.651 55.2381 108.492 54.6032 108.492 53.9683C108.492 53.3333 108.651 52.6984 108.889 52.2222C109.127 51.746 109.524 51.3492 110 51.0317C110.476 50.7143 111.032 50.6349 111.746 50.6349C112.46 50.6349 112.937 50.7937 113.492 51.0317C114.048 51.2698 114.365 51.6667 114.603 52.2222C114.841 52.6984 115 53.3333 115 53.9683C115 54.6032 114.841 55.2381 114.603 55.7143C114.365 56.1905 113.968 56.5873 113.492 56.8254C113.016 57.0635 112.46 57.2222 111.746 57.2222ZM111.746 56.0317C112.302 56.0317 112.698 55.873 112.937 55.4762C113.254 55.1587 113.333 54.6032 113.333 53.8889C113.333 53.1746 113.175 52.6984 112.937 52.3016C112.619 51.9841 112.222 51.746 111.746 51.746C111.27 51.746 110.794 51.9048 110.476 52.3016C110.159 52.619 110 53.1746 110 53.8889C110 54.6032 110.159 55.0794 110.397 55.4762C110.714 55.7937 111.111 56.0317 111.667 56.0317H111.746Z" fill="#333333"/>
<path d="M118.016 57.0635L115.476 50.6349H117.143L118.968 55.6349H118.651L120.476 50.6349H121.667L123.492 55.6349H123.175L125 50.6349H126.508L123.968 57.0635H122.619L120.635 51.9048H121.349L119.444 57.0635H118.095H118.016Z" fill="#333333"/>
<path d="M132.857 56.3492C132.54 56.5873 132.143 56.8254 131.746 56.9047C131.27 57.0635 130.873 57.1428 130.397 57.1428C129.683 57.1428 129.127 56.9841 128.571 56.746C128.016 56.5079 127.698 56.1111 127.381 55.6349C127.143 55.1587 126.984 54.5238 126.984 53.8889C126.984 53.254 127.143 52.619 127.381 52.1428C127.619 51.6667 128.016 51.2698 128.492 50.9524C128.968 50.6349 129.524 50.5555 130.079 50.5555C130.635 50.5555 131.19 50.7143 131.587 50.9524C131.984 51.1905 132.302 51.5873 132.54 52.0635C132.778 52.5397 132.857 53.0952 132.857 53.8095V54.0476H128.333V53.1746H131.984L131.587 53.5714C131.587 52.9365 131.508 52.4603 131.19 52.1428C130.952 51.8254 130.556 51.6667 130.079 51.6667C129.603 51.6667 129.206 51.8254 128.889 52.2222C128.571 52.619 128.492 53.0952 128.492 53.7301C128.492 54.3651 128.651 55.0794 128.968 55.3968C129.286 55.7936 129.762 55.9524 130.397 55.9524C131.032 55.9524 131.111 55.9524 131.429 55.7936C131.746 55.7143 132.063 55.4762 132.381 55.3174L132.857 56.4286V56.3492Z" fill="#333333"/>
<path d="M134.286 57.0635V52.4603C134.286 52.1429 134.286 51.8254 134.286 51.5873C134.286 51.2698 134.286 50.9524 134.206 50.7143H135.714L135.873 52.381H135.714C135.794 51.746 136.111 51.2698 136.429 51.0317C136.825 50.7143 137.222 50.6349 137.778 50.6349C138.333 50.6349 138.016 50.6349 138.095 50.6349C138.175 50.6349 138.333 50.6349 138.413 50.6349V52.0635C138.095 51.9841 137.857 51.9048 137.54 51.9048C137.222 51.9048 136.825 51.9048 136.587 52.1429C136.349 52.3016 136.191 52.5397 136.032 52.7778C135.873 53.0159 135.873 53.3333 135.873 53.6508V57.1429H134.286V57.0635Z" fill="#333333"/>
<path d="M139.048 51.9048V50.7143H143.254V51.9048H139.048ZM143.492 49.127C143.254 49.127 143.016 49.0476 142.857 49.0476C142.698 49.0476 142.46 49.0476 142.381 49.127C142.222 49.127 142.063 49.2857 141.984 49.4444C141.905 49.6032 141.825 49.8413 141.825 50.0794V57.0635H140.238V50C140.238 49.2064 140.397 48.6508 140.794 48.254C141.19 47.8571 141.746 47.619 142.46 47.619C143.175 47.619 142.778 47.619 143.016 47.619C143.175 47.619 143.333 47.619 143.492 47.6984V48.9683V49.127Z" fill="#333333"/>
<path d="M146.825 57.2222C146.032 57.2222 145.476 56.9841 145.079 56.5873C144.683 56.1905 144.524 55.4762 144.524 54.6032V50.7143H146.111V54.6032C146.111 55.0794 146.19 55.3968 146.429 55.6349C146.587 55.873 146.905 55.9524 147.302 55.9524C147.698 55.9524 148.175 55.7937 148.413 55.4762C148.73 55.1587 148.81 54.7619 148.81 54.2857V50.7143H150.397V57.1429H148.81V55.7937H148.968C148.81 56.2699 148.492 56.5873 148.095 56.8254C147.698 57.0635 147.302 57.2222 146.825 57.2222Z" fill="#333333"/>
<path d="M152.063 57.0635V47.6984H153.651V57.0635H152.063Z" fill="#333333"/>
<path d="M158.968 57.0635V48.0159H164.921V49.2857H160.635V51.746H164.683V53.0159H160.635V56.9841H159.048L158.968 57.0635Z" fill="#333333"/>
<path d="M168.889 57.2222C168.254 57.2222 167.619 57.0635 167.143 56.8254C166.667 56.5873 166.27 56.1905 166.032 55.7143C165.794 55.2381 165.635 54.6032 165.635 53.9683C165.635 53.3333 165.794 52.6984 166.032 52.2222C166.27 51.746 166.667 51.3492 167.143 51.0317C167.619 50.7937 168.175 50.6349 168.889 50.6349C169.603 50.6349 170.079 50.7937 170.635 51.0317C171.19 51.2698 171.508 51.6667 171.746 52.2222C171.984 52.6984 172.143 53.3333 172.143 53.9683C172.143 54.6032 171.984 55.2381 171.746 55.7143C171.508 56.1905 171.111 56.5873 170.635 56.8254C170.159 57.0635 169.603 57.2222 168.889 57.2222ZM168.889 56.0317C169.444 56.0317 169.841 55.873 170.079 55.4762C170.397 55.1587 170.476 54.6032 170.476 53.8889C170.476 53.1746 170.317 52.6984 170.079 52.3016C169.762 51.9841 169.365 51.746 168.889 51.746C168.413 51.746 167.936 51.9048 167.619 52.3016C167.302 52.619 167.143 53.1746 167.143 53.8889C167.143 54.6032 167.302 55.0794 167.54 55.4762C167.857 55.7937 168.254 56.0317 168.809 56.0317H168.889Z" fill="#333333"/>
<path d="M173.492 57.0635V52.4603C173.492 52.1429 173.492 51.8254 173.492 51.5873C173.492 51.2698 173.492 50.9524 173.413 50.7143H174.921L175.079 52.381H174.921C175 51.746 175.317 51.2698 175.635 51.0317C176.032 50.7143 176.429 50.6349 176.984 50.6349C177.54 50.6349 177.222 50.6349 177.302 50.6349C177.381 50.6349 177.54 50.6349 177.619 50.6349V52.0635C177.302 51.9841 177.064 51.9048 176.746 51.9048C176.429 51.9048 176.032 51.9048 175.794 52.1429C175.556 52.3016 175.397 52.5397 175.238 52.7778C175.079 53.0159 175.079 53.3333 175.079 53.6508V57.1429H173.492V57.0635Z" fill="#333333"/>
<path d="M178.492 57.0635V52.4603C178.492 52.1428 178.492 51.8254 178.492 51.5873C178.492 51.2698 178.492 50.9524 178.413 50.7143H179.921L180.079 51.9841H179.921C180.079 51.5079 180.397 51.1905 180.714 50.9524C181.111 50.7143 181.508 50.5555 182.064 50.5555C182.619 50.5555 183.175 50.7143 183.492 51.0317C183.81 51.3492 184.048 51.8254 184.127 52.3809L183.81 52.0635C183.968 51.5873 184.286 51.1905 184.683 50.9524C185.079 50.6349 185.556 50.5555 186.111 50.5555C186.667 50.5555 187.381 50.7936 187.698 51.1905C188.016 51.5873 188.254 52.3016 188.254 53.1746V57.1428H186.667V53.254C186.667 52.7778 186.587 52.3809 186.429 52.1428C186.27 51.9047 185.952 51.8254 185.635 51.8254C185.317 51.8254 184.841 51.9841 184.603 52.3016C184.365 52.619 184.206 53.0159 184.206 53.5714V57.1428H182.619V53.254C182.619 52.7778 182.54 52.3809 182.381 52.1428C182.222 51.9047 181.905 51.8254 181.587 51.8254C181.27 51.8254 180.794 51.9841 180.556 52.3016C180.317 52.619 180.159 53.0159 180.159 53.5714V57.1428H178.571L178.492 57.0635Z" fill="#333333"/>
<path d="M192.302 57.2222C191.111 57.2222 190.238 56.9841 189.524 56.4286L190 55.3174C190.317 55.5555 190.714 55.7936 191.111 55.873C191.508 56.0317 191.905 56.0317 192.381 56.0317C192.857 56.0317 193.095 56.0317 193.254 55.873C193.492 55.7143 193.571 55.5555 193.571 55.3174C193.571 55.0793 193.571 55 193.333 54.8413C193.175 54.7619 192.936 54.6032 192.619 54.5238L191.587 54.2857C191.032 54.127 190.556 53.9682 190.238 53.6508C189.921 53.3333 189.762 52.9365 189.762 52.5397C189.762 52.1428 189.841 51.8254 190.079 51.5079C190.317 51.1905 190.635 50.9524 191.032 50.7936C191.429 50.6349 191.905 50.5555 192.381 50.5555C192.857 50.5555 193.254 50.5555 193.73 50.7936C194.127 50.9524 194.524 51.1111 194.841 51.4286L194.365 52.5397C194.048 52.3016 193.73 52.1428 193.413 51.9841C193.095 51.9047 192.778 51.8254 192.381 51.8254C191.984 51.8254 191.746 51.8254 191.508 52.0635C191.27 52.2222 191.19 52.3809 191.19 52.619C191.19 52.8571 191.19 52.9365 191.349 53.0952C191.508 53.1746 191.667 53.3333 191.984 53.3333L193.095 53.5714C193.73 53.7301 194.206 53.8889 194.524 54.2063C194.841 54.5238 195 54.9206 195 55.3968C195 55.873 194.762 56.4286 194.286 56.8254C193.81 57.1428 193.175 57.3016 192.381 57.3016L192.302 57.2222Z" fill="#333333"/>
<path d="M32.4868 9.91008C30.9284 12.2068 28.9598 13.6012 26.9092 15.0776L25.8429 20.9833L24.1204 17.1282C20.2652 20.0811 17.5584 24.2643 18.1326 33.369C16.5741 35.0915 14.9337 36.814 13.2112 38.4545C12.9651 38.7005 12.8831 39.1927 13.2112 39.4388C13.4572 39.6848 13.9494 39.7669 14.1954 39.4388C16.082 37.6342 17.8865 35.8297 19.527 33.8611C29.5339 31.9746 32.4048 23.8542 32.4048 9.74603L32.4868 9.91008Z" fill="white"/>
</g>
<defs>
<clipPath id="clip0_209_18">
<rect width="194.921" height="60" fill="white"/>
</clipPath>
</defs>
</svg>
