<?xml version="1.0" encoding="utf-8"?>
<!-- Generator: Adobe Illustrator 15.1.0, SVG Export Plug-In  -->
<!DOCTYPE svg PUBLIC "-//W3C//DTD SVG 1.1//EN" "http://www.w3.org/Graphics/SVG/1.1/DTD/svg11.dtd" [
	<!ENTITY ns_flows "http://ns.adobe.com/Flows/1.0/">
]>
<svg version="1.1"
	 xmlns="http://www.w3.org/2000/svg" xmlns:xlink="http://www.w3.org/1999/xlink" xmlns:a="http://ns.adobe.com/AdobeSVGViewerExtensions/3.0/"
	 x="0px" y="0px" width="175px" height="50px" viewBox="-2 -3 175 50" enable-background="new -2 -3 175 50" xml:space="preserve">
<defs>
</defs>
<path fill="#ED3937" d="M8.301,39.353l-4.997-6.195C-1.8,26.829-0.893,17.577,5.347,12.361L15.99,3.468
	c4.05-3.385,9.589-4.375,14.562-2.604c4.598,1.639,8.144,5.417,9.382,10.141c2.235,8.529,2.723,22.188-12.164,31.648
	C21.417,46.691,13.026,45.208,8.301,39.353"/>
<path fill="#FFFFFF" d="M30.865,8.271c-1.378,2.023-3.112,3.31-4.932,4.624l-0.924,5.24l-1.542-3.391
	c-3.406,2.617-5.8,6.323-5.288,14.438c-1.366,1.562-2.825,3.065-4.383,4.526c-0.248,0.233-0.261,0.624-0.028,0.871
	c0.233,0.25,0.623,0.262,0.872,0.028c0.001,0,0.002-0.002,0.003-0.004c1.693-1.588,3.277-3.231,4.75-4.94
	C28.308,28.006,30.865,20.75,30.865,8.271"/>
<path fill="#212E5A" d="M56.353,26.52v7.078h-5.731v-20.06h14.07v4.872h-8.339v3.238h7.25v4.871H56.353z"/>
<path fill="#212E5A" d="M77.155,21.362c5.015,1.404,6.476,3.353,6.476,6.391c0,4.613-3.897,6.218-9.026,6.218
	c-3.381,0-6.305-0.802-8.625-2.264l1.948-4.413c1.92,1.089,3.955,1.806,6.391,1.806c2.521,0,3.381-0.286,3.381-1.117
	c0-0.946-0.716-1.404-4.843-2.579c-4.356-1.232-5.932-3.21-5.932-6.219c0-3.84,2.895-6.018,8.396-6.018
	c2.837,0,5.244,0.573,7.737,2.12l-2.178,4.069c-1.748-0.945-3.295-1.433-5.301-1.433c-2.063,0-2.722,0.372-2.722,1.289
	C72.856,20.043,73.745,20.388,77.155,21.362z"/>
<path fill="#212E5A" d="M108.159,13.539v20.06h-5.616V21.907l-4.184,6.275h-2.465l-4.155-6.275v11.691h-5.616v-20.06h5.416
	l5.616,8.167l5.646-8.167H108.159z"/>
<path fill="#212E5A" d="M132.542,28.526v5.072h-13.497v-20.06h5.731v14.987H132.542z"/>
<path fill="#212E5A" d="M140.163,14.284c0,1.605-1.203,2.78-3.009,2.78c-1.805,0-3.009-1.175-3.009-2.78
	c0-1.633,1.204-2.779,3.009-2.779C138.959,11.504,140.163,12.651,140.163,14.284z M139.761,19.184v14.414h-5.215V19.184H139.761z"/>
<path fill="#212E5A" d="M149.361,33.598h-5.215V23.339h-2.521v-4.155h2.521v-5.646h5.215v5.646h4.156v4.155h-4.156V33.598z"/>
<path fill="#212E5A" d="M170.335,28.039h-10.174c0.402,1.576,1.548,2.092,3.439,2.092c1.375,0,2.779-0.2,4.04-0.659l1.089,3.611
	c-1.662,0.659-3.61,0.888-5.616,0.888c-4.557,0-8.425-2.923-8.425-7.594c0-4.585,3.524-7.564,8.167-7.564
	c4.785,0,7.966,2.865,7.966,6.677C170.822,26.348,170.593,27.379,170.335,28.039z M160.047,24.887h5.616
	c-0.344-1.462-1.203-2.351-2.808-2.351C161.337,22.537,160.449,23.425,160.047,24.887z"/>
</svg>
