<?xml version="1.0" encoding="utf-8"?>
<!-- Generator: Adobe Illustrator 25.2.3, SVG Export Plug-In . SVG Version: 6.00 Build 0)  -->
<svg version="1.1" id="Layer_1" xmlns="http://www.w3.org/2000/svg" xmlns:xlink="http://www.w3.org/1999/xlink" x="0px" y="0px"
	 viewBox="0 0 324 87" style="enable-background:new 0 0 324 87;" xml:space="preserve">
<style type="text/css">
	.st0{fill:#FFFFFF;}
	.st1{fill:#EEA031;}
	.st2{fill-rule:evenodd;clip-rule:evenodd;fill:#FFFFFF;}
</style>
<g>
	<path class="st0" d="M104.7,51.4v12.4H94.6V28.6h24.8v8.6h-14.7v5.7h12.8v8.6L104.7,51.4z"/>
	<path class="st0" d="M141.3,42.3c8.8,2.5,11.4,5.9,11.4,11.2c0,8.1-6.9,11-15.9,11c-5.3,0.1-10.6-1.3-15.2-4l3.4-7.8
		c3.4,2,7.3,3.1,11.2,3.2c4.4,0,5.9-0.5,5.9-2c0-1.7-1.3-2.5-8.5-4.5c-7.7-2.2-10.4-5.7-10.4-11c0-6.8,5.1-10.6,14.8-10.6
		c4.8-0.1,9.5,1.2,13.6,3.7l-3.8,7.2c-2.8-1.7-6.1-2.5-9.3-2.5c-3.6,0-4.8,0.7-4.8,2.3S135.3,40.6,141.3,42.3z"/>
	<path class="st0" d="M195.9,28.6v35.3H186V43.3l-7.4,11h-4.3l-7.3-11v20.6h-9.9V28.6h9.5l9.9,14.4l9.9-14.4L195.9,28.6z"/>
	<path class="st0" d="M246.4,63.8h-12.6l-8.7-10.2v10.2h-10.1V28.6h14.6c7.6,0,13.6,5.1,13.6,11.8c0,5.8-2.8,9-7.9,11.2L246.4,63.8z
		 M232.9,41.2c0-2.8-1.4-4.3-4.2-4.3h-3.5v9.2h3.2C231.5,46.1,232.9,45,232.9,41.2z"/>
	<path class="st0" d="M259.8,37.1v4.5h14.7V50h-14.7v5.3H275v8.6h-25.4V28.6h25.2v8.6H259.8z"/>
	<path class="st0" d="M319.5,46.2c0,10.3-9.5,18.3-20.1,18.3s-20.1-8-20.1-18.3s9.5-18.3,20.1-18.3S319.5,35.8,319.5,46.2z
		 M308.6,46.2c0-5.1-4.1-9.2-9.2-9.2c-5.1,0-9.2,4.1-9.2,9.2s4.1,9.2,9.2,9.2c0,0,0,0,0,0c5,0.1,9.1-3.8,9.2-8.8
		C308.6,46.5,308.6,46.4,308.6,46.2L308.6,46.2z"/>
	<path class="st1" d="M19.1,73.2l-8.8-10.9c-9-11.1-7.4-27.4,3.6-36.6l18.7-15.6c7.1-6,16.9-7.7,25.6-4.6l0,0
		c8.1,2.9,14.3,9.5,16.6,17.9c3.9,15,4.8,39.1-21.4,55.7C42.2,86.1,27.4,83.6,19.1,73.2z"/>
	<path class="st2" d="M60.9,58.8h-36V34.5l18-11.6l18,11.7L60.9,58.8z M55.5,37.4l-12.6-8.1l-12.6,8.1v16h25.2V37.4z"/>
</g>
</svg>
