<?xml version="1.0" encoding="utf-8"?>
<!-- Generator: Adobe Illustrator 15.1.0, SVG Export Plug-In  -->
<!DOCTYPE svg PUBLIC "-//W3C//DTD SVG 1.1//EN" "http://www.w3.org/Graphics/SVG/1.1/DTD/svg11.dtd" [
	<!ENTITY ns_flows "http://ns.adobe.com/Flows/1.0/">
]>
<svg version="1.1"
	 xmlns="http://www.w3.org/2000/svg" xmlns:xlink="http://www.w3.org/1999/xlink" xmlns:a="http://ns.adobe.com/AdobeSVGViewerExtensions/3.0/"
	 x="0px" y="0px" width="19px" height="18px" viewBox="-1 -0.375 19 18" enable-background="new -1 -0.375 19 18"
	 xml:space="preserve">
<defs>
</defs>
<path fill="#010101" d="M2.012,11.212h4.385v1.007H2.012V11.212z"/>
<path fill="#010101" d="M14.231,3.45h1.006v1.653h-1.006V3.45z"/>
<path fill="#010101" d="M17.25,4.313c0-0.934-0.216-1.653-0.719-2.156c-0.862-0.934-2.731-0.934-3.594,0
	c-1.509,1.581-0.503,5.535,1.294,6.253v6.181c-0.072,2.229-3.307,2.229-3.378,0V6.109c0-1.509-1.223-2.731-2.731-2.731H5.966
	C5.822,2.803,5.319,2.3,4.744,2.156v-1.15h0.862V0H2.875v1.006h0.862v1.15C2.444,2.516,1.941,4.025,2.731,5.031
	C1.15,5.678,0,7.188,0,8.984v8.266h8.41V8.984c0-1.797-1.15-3.306-2.731-3.953c0.144-0.144,0.215-0.359,0.288-0.575h2.156
	c0.934,0,1.653,0.79,1.653,1.653v8.409c0.144,3.594,5.246,3.594,5.391,0V8.337C16.46,7.978,17.25,5.822,17.25,4.313z M1.006,10.206
	h6.396v3.02H1.006V10.206z M1.006,16.244v-2.013h6.396v2.013H1.006z M7.403,8.984v0.144H1.006V8.984
	C1.15,4.744,7.259,4.744,7.403,8.984z M3.378,3.953c0-0.431,0.359-0.863,0.862-0.863c1.15,0.072,1.15,1.653,0,1.653
	C3.737,4.815,3.378,4.384,3.378,3.953z M14.734,7.475c-1.222,0-2.659-5.104,0-5.031C17.394,2.372,15.956,7.475,14.734,7.475z"/>
</svg>
