<?xml version="1.0" encoding="utf-8"?>
<!-- Generator: Adobe Illustrator 15.1.0, SVG Export Plug-In  -->
<!DOCTYPE svg PUBLIC "-//W3C//DTD SVG 1.1//EN" "http://www.w3.org/Graphics/SVG/1.1/DTD/svg11.dtd" [
	<!ENTITY ns_flows "http://ns.adobe.com/Flows/1.0/">
]>
<svg version="1.1"
	 xmlns="http://www.w3.org/2000/svg" xmlns:xlink="http://www.w3.org/1999/xlink" xmlns:a="http://ns.adobe.com/AdobeSVGViewerExtensions/3.0/"
	 x="0px" y="0px" width="33px" height="21px" viewBox="-0.1 0 33 21" enable-background="new -0.1 0 33 21" xml:space="preserve">
<defs>
</defs>
<g>
	<g>
		<path fill="#19499A" d="M7.4,21.1c4.2,0,7.5-3.4,7.5-7.6c0-4.2-3.4-7.6-7.6-7.6c0,0-0.1,0-0.1,0c1.7-1.3,3.7-2.1,6-2.1
			c1,0,1.9-0.9,1.9-1.9c0-1-0.7-1.9-1.7-1.9C5.9,0,0,6.1,0,13.5c0,0,0,0,0,0C0,17.7,3.2,21.1,7.4,21.1z"/>
		<path fill="#19499A" d="M25.2,21.1c4.2,0,7.5-3.4,7.5-7.6c0-4.2-3.4-7.6-7.6-7.6c0,0-0.1,0-0.1,0c1.7-1.3,3.7-2.1,6-2.1
			c1,0,1.9-0.9,1.9-1.9c0-1-0.7-1.9-1.7-1.9c-7.4,0-13.3,6.1-13.3,13.5c0,0,0,0,0,0C17.8,17.7,21,21.1,25.2,21.1z"/>
	</g>
</g>
</svg>
