<svg width="27" height="26" viewBox="0 0 27 26" fill="none" xmlns="http://www.w3.org/2000/svg">
<path d="M25.1522 17.7272C24.8387 17.7272 24.5381 17.8517 24.3165 18.0734C24.0949 18.295 23.9703 18.5956 23.9703 18.9091V23.6363H2.69762V18.9091C2.69762 18.5956 2.57311 18.295 2.35147 18.0734C2.12984 17.8517 1.82924 17.7272 1.5158 17.7272C1.20236 17.7272 0.901765 17.8517 0.680131 18.0734C0.458497 18.295 0.333984 18.5956 0.333984 18.9091V24.8181C0.333984 25.1316 0.458497 25.4322 0.680131 25.6538C0.901765 25.8755 1.20236 26 1.5158 26H25.1522C25.4656 26 25.7662 25.8755 25.9878 25.6538C26.2095 25.4322 26.334 25.1316 26.334 24.8181V18.9091C26.334 18.5956 26.2095 18.295 25.9878 18.0734C25.7662 17.8517 25.4656 17.7272 25.1522 17.7272Z" fill="white"/>
<path d="M12.4979 19.7446C12.7195 19.9662 13.02 20.0907 13.3334 20.0907C13.6468 20.0907 13.9473 19.9662 14.1689 19.7446L21.2599 12.6537C21.4751 12.4308 21.5943 12.1323 21.5916 11.8224C21.5889 11.5126 21.4646 11.2162 21.2455 10.997C21.0263 10.7779 20.7299 10.6536 20.4201 10.6509C20.1102 10.6482 19.8117 10.7674 19.5888 10.9826L14.5152 16.0562V1.18182C14.5152 0.868381 14.3907 0.56778 14.1691 0.346146C13.9474 0.124513 13.6468 0 13.3334 0C13.02 0 12.7194 0.124513 12.4977 0.346146C12.2761 0.56778 12.1516 0.868381 12.1516 1.18182V16.0562L7.07804 10.9826C6.85514 10.7674 6.55661 10.6482 6.24674 10.6509C5.93688 10.6536 5.64046 10.7779 5.42134 10.997C5.20222 11.2162 5.07793 11.5126 5.07524 11.8224C5.07255 12.1323 5.19167 12.4308 5.40695 12.6537L12.4979 19.7446Z" fill="white"/>
</svg>
