<svg width="154" height="114" viewBox="0 0 154 114" fill="none" xmlns="http://www.w3.org/2000/svg">
<path d="M95.2561 6.60555C95.2561 4.97147 95.09 3.76668 95.09 3.08813C95.09 1.71716 91.1447 0 76.9279 0C62.711 0 56.8969 1.89719 56.7031 3.08813C56.537 4.11289 56.537 5.48385 56.4678 7.20101L95.27 6.60555H95.2561Z" fill="#CDCDCD"/>
<path d="M100.614 106.99C100.614 106.99 100.614 109.178 100.267 110.702C99.9213 112.239 98.3848 113.097 97.1804 113.097H75.5437C72.6366 113.097 57.9629 113.125 56.5786 113.125C55.3189 113.125 54.3637 112.294 54.0869 111.38C53.8239 110.536 53.547 107.904 53.5747 106.99H100.614Z" fill="#CDCDCD"/>
<path d="M76.9981 5.83026C82.6599 5.83026 91.3949 5.83026 95.6725 6.68884C99.3686 7.42279 102.179 9.26459 102.705 15.2608C103.217 21.2571 106.512 94.7628 106.65 99.0419C106.816 104.526 103.743 107.448 97.7351 108.126C92.627 108.708 81.4556 108.639 77.0812 108.639C72.7068 108.639 61.3693 108.708 56.2612 108.126C50.2671 107.434 47.1801 104.526 47.3462 99.0419C47.4846 94.7628 50.7793 21.2571 51.2915 15.2608C51.8037 9.26459 54.6138 7.42279 58.3238 6.68884C62.6013 5.83026 71.3501 5.83026 76.9981 5.83026Z" fill="#6AB3FA"/>
<path d="M51.1265 47.5128C51.5971 47.5128 52.1785 47.9006 52.1785 48.5514C52.1785 49.2577 51.7217 49.5485 51.168 49.5485C50.6143 49.5485 50.0605 49.2161 50.0605 48.6068C50.0605 47.9975 50.642 47.5128 51.1126 47.5128H51.1265Z" fill="white"/>
<path d="M55.2271 48.5375C55.2271 48.0805 55.6147 47.5127 56.2376 47.5127C56.9298 47.5127 57.3174 47.9974 57.3174 48.5375C57.3174 49.0776 56.8882 49.5623 56.293 49.5623C55.6977 49.5623 55.2271 49.0914 55.2271 48.5375Z" fill="white"/>
<path d="M61.397 47.5127C61.8676 47.5127 62.449 47.9005 62.449 48.5513C62.449 49.2576 61.9922 49.5484 61.4385 49.5484C60.8848 49.5484 60.3311 49.2161 60.3311 48.6067C60.3311 47.9974 60.9125 47.5127 61.3831 47.5127H61.397Z" fill="white"/>
<path d="M65.5098 48.5375C65.5098 48.0805 65.8974 47.5127 66.5203 47.5127C67.2125 47.5127 67.6001 47.9974 67.6001 48.5375C67.6001 49.0776 67.1709 49.5623 66.5757 49.5623C65.9804 49.5623 65.5098 49.0914 65.5098 48.5375Z" fill="white"/>
<path d="M71.6831 47.5127C72.1538 47.5127 72.7352 47.9005 72.7352 48.5513C72.7352 49.2576 72.2784 49.5484 71.7246 49.5484C71.1709 49.5484 70.6172 49.2161 70.6172 48.6067C70.6172 47.9974 71.1986 47.5127 71.6693 47.5127H71.6831Z" fill="white"/>
<path d="M75.7812 48.5375C75.7812 48.0805 76.1689 47.5127 76.7918 47.5127C77.484 47.5127 77.8716 47.9974 77.8716 48.5375C77.8716 49.0776 77.4424 49.5623 76.8472 49.5623C76.2519 49.5623 75.7812 49.0914 75.7812 48.5375Z" fill="white"/>
<path d="M81.9678 47.5127C82.4384 47.5127 83.0199 47.9005 83.0199 48.5513C83.0199 49.2576 82.563 49.5484 82.0093 49.5484C81.4556 49.5484 80.9019 49.2161 80.9019 48.6067C80.9019 47.9974 81.4833 47.5127 81.9539 47.5127H81.9678Z" fill="white"/>
<path d="M86.0664 48.5375C86.0664 48.0805 86.454 47.5127 87.0769 47.5127C87.7691 47.5127 88.1567 47.9974 88.1567 48.5375C88.1567 49.0776 87.7276 49.5623 87.1323 49.5623C86.5371 49.5623 86.0664 49.0914 86.0664 48.5375Z" fill="white"/>
<path d="M92.2539 47.5127C92.7246 47.5127 93.306 47.9005 93.306 48.5513C93.306 49.2576 92.8492 49.5484 92.2954 49.5484C91.7417 49.5484 91.188 49.2161 91.188 48.6067C91.188 47.9974 91.7694 47.5127 92.2401 47.5127H92.2539Z" fill="white"/>
<path d="M96.3516 48.5375C96.3516 48.0805 96.7392 47.5127 97.3621 47.5127C98.0543 47.5127 98.4419 47.9974 98.4419 48.5375C98.4419 49.0776 98.0127 49.5623 97.4175 49.5623C96.8222 49.5623 96.3516 49.0914 96.3516 48.5375Z" fill="white"/>
<path d="M102.524 47.5127C102.995 47.5127 103.576 47.9005 103.576 48.5513C103.576 49.2576 103.12 49.5484 102.566 49.5484C102.012 49.5484 101.458 49.2161 101.458 48.6067C101.458 47.9974 102.04 47.5127 102.511 47.5127H102.524Z" fill="white"/>
<path d="M52.3027 52.9837C52.3027 52.5267 52.6903 51.9589 53.3133 51.9589C54.0054 51.9589 54.393 52.4436 54.393 52.9837C54.393 53.5238 53.9639 54.0085 53.3687 54.0085C52.7734 54.0085 52.3027 53.5376 52.3027 52.9837Z" fill="white"/>
<path d="M58.4912 51.972C58.9619 51.972 59.5433 52.3597 59.5433 53.0106C59.5433 53.7168 59.0865 54.0077 58.5327 54.0077C57.979 54.0077 57.4253 53.6753 57.4253 53.066C57.4253 52.4567 58.0067 51.972 58.4774 51.972H58.4912Z" fill="white"/>
<path d="M62.5879 52.9837C62.5879 52.5267 62.9755 51.9589 63.5984 51.9589C64.2906 51.9589 64.6782 52.4436 64.6782 52.9837C64.6782 53.5238 64.2491 54.0085 63.6538 54.0085C63.0586 54.0085 62.5879 53.5376 62.5879 52.9837Z" fill="white"/>
<path d="M68.7764 51.9717C69.247 51.9717 69.8284 52.3595 69.8284 53.0103C69.8284 53.7166 69.3716 54.0074 68.8179 54.0074C68.2642 54.0074 67.7104 53.675 67.7104 53.0657C67.7104 52.4564 68.2919 51.9717 68.7625 51.9717H68.7764Z" fill="white"/>
<path d="M72.873 52.9837C72.873 52.5267 73.2607 51.9589 73.8836 51.9589C74.5758 51.9589 74.9634 52.4436 74.9634 52.9837C74.9634 53.5238 74.5342 54.0085 73.939 54.0085C73.3437 54.0085 72.873 53.5376 72.873 52.9837Z" fill="white"/>
<path d="M79.0479 51.972C79.5185 51.972 80.0999 52.3597 80.0999 53.0106C80.0999 53.7168 79.6431 54.0077 79.0894 54.0077C78.5357 54.0077 77.9819 53.6753 77.9819 53.066C77.9819 52.4567 78.5633 51.972 79.034 51.972H79.0479Z" fill="white"/>
<path d="M83.1592 52.9837C83.1592 52.5267 83.5468 51.9589 84.1697 51.9589C84.8619 51.9589 85.2495 52.4436 85.2495 52.9837C85.2495 53.5238 84.8203 54.0085 84.2251 54.0085C83.6298 54.0085 83.1592 53.5376 83.1592 52.9837Z" fill="white"/>
<path d="M89.335 51.972C89.8056 51.972 90.387 52.3597 90.387 53.0106C90.387 53.7168 89.9302 54.0077 89.3765 54.0077C88.8228 54.0077 88.269 53.6753 88.269 53.066C88.269 52.4567 88.8504 51.972 89.3211 51.972H89.335Z" fill="white"/>
<path d="M93.4292 52.9837C93.4292 52.5267 93.8168 51.9589 94.4398 51.9589C95.1319 51.9589 95.5195 52.4436 95.5195 52.9837C95.5195 53.5238 95.0904 54.0085 94.4951 54.0085C93.8999 54.0085 93.4292 53.5376 93.4292 52.9837Z" fill="white"/>
<path d="M99.6211 51.972C100.092 51.972 100.673 52.3597 100.673 53.0106C100.673 53.7168 100.216 54.0077 99.6626 54.0077C99.1089 54.0077 98.5552 53.6753 98.5552 53.066C98.5552 52.4567 99.1366 51.972 99.6072 51.972H99.6211Z" fill="white"/>
<path d="M51.1265 56.0848C51.5971 56.0848 52.1785 56.4725 52.1785 57.1234C52.1785 57.8296 51.7217 58.1204 51.168 58.1204C50.6143 58.1204 50.0605 57.7881 50.0605 57.1788C50.0605 56.5694 50.642 56.0848 51.1126 56.0848H51.1265Z" fill="white"/>
<path d="M55.2271 57.1095C55.2271 56.6525 55.6147 56.0848 56.2376 56.0848C56.9298 56.0848 57.3174 56.5694 57.3174 57.1095C57.3174 57.6496 56.8882 58.1343 56.293 58.1343C55.6977 58.1343 55.2271 57.6634 55.2271 57.1095Z" fill="white"/>
<path d="M61.397 56.0848C61.8676 56.0848 62.449 56.4725 62.449 57.1234C62.449 57.8296 61.9922 58.1204 61.4385 58.1204C60.8848 58.1204 60.3311 57.7881 60.3311 57.1788C60.3311 56.5694 60.9125 56.0848 61.3831 56.0848H61.397Z" fill="white"/>
<path d="M65.5098 57.1095C65.5098 56.6525 65.8974 56.0848 66.5203 56.0848C67.2125 56.0848 67.6001 56.5694 67.6001 57.1095C67.6001 57.6496 67.1709 58.1343 66.5757 58.1343C65.9804 58.1343 65.5098 57.6634 65.5098 57.1095Z" fill="white"/>
<path d="M71.6831 56.0848C72.1538 56.0848 72.7352 56.4725 72.7352 57.1234C72.7352 57.8296 72.2784 58.1204 71.7246 58.1204C71.1709 58.1204 70.6172 57.7881 70.6172 57.1788C70.6172 56.5694 71.1986 56.0848 71.6693 56.0848H71.6831Z" fill="white"/>
<path d="M75.7812 57.1095C75.7812 56.6525 76.1689 56.0848 76.7918 56.0848C77.484 56.0848 77.8716 56.5694 77.8716 57.1095C77.8716 57.6496 77.4424 58.1343 76.8472 58.1343C76.2519 58.1343 75.7812 57.6634 75.7812 57.1095Z" fill="white"/>
<path d="M81.9678 56.0848C82.4384 56.0848 83.0199 56.4725 83.0199 57.1234C83.0199 57.8296 82.563 58.1204 82.0093 58.1204C81.4556 58.1204 80.9019 57.7881 80.9019 57.1788C80.9019 56.5694 81.4833 56.0848 81.9539 56.0848H81.9678Z" fill="white"/>
<path d="M86.0664 57.1095C86.0664 56.6525 86.454 56.0848 87.0769 56.0848C87.7691 56.0848 88.1567 56.5694 88.1567 57.1095C88.1567 57.6496 87.7276 58.1343 87.1323 58.1343C86.5371 58.1343 86.0664 57.6634 86.0664 57.1095Z" fill="white"/>
<path d="M92.2539 56.0848C92.7246 56.0848 93.306 56.4725 93.306 57.1234C93.306 57.8296 92.8492 58.1204 92.2954 58.1204C91.7417 58.1204 91.188 57.7881 91.188 57.1788C91.188 56.5694 91.7694 56.0848 92.2401 56.0848H92.2539Z" fill="white"/>
<path d="M96.3516 57.1095C96.3516 56.6525 96.7392 56.0848 97.3621 56.0848C98.0543 56.0848 98.4419 56.5694 98.4419 57.1095C98.4419 57.6496 98.0127 58.1343 97.4175 58.1343C96.8222 58.1343 96.3516 57.6634 96.3516 57.1095Z" fill="white"/>
<path d="M102.524 56.0848C102.995 56.0848 103.576 56.4725 103.576 57.1234C103.576 57.8296 103.12 58.1204 102.566 58.1204C102.012 58.1204 101.458 57.7881 101.458 57.1788C101.458 56.5694 102.04 56.0848 102.511 56.0848H102.524Z" fill="white"/>
<path d="M52.3027 61.5549C52.3027 61.098 52.6903 60.5302 53.3133 60.5302C54.0054 60.5302 54.393 61.0149 54.393 61.5549C54.393 62.095 53.9639 62.5797 53.3687 62.5797C52.7734 62.5797 52.3027 62.1089 52.3027 61.5549Z" fill="white"/>
<path d="M58.4912 60.544C58.9619 60.544 59.5433 60.9318 59.5433 61.5826C59.5433 62.2889 59.0865 62.5797 58.5327 62.5797C57.979 62.5797 57.4253 62.2473 57.4253 61.638C57.4253 61.0287 58.0067 60.544 58.4774 60.544H58.4912Z" fill="white"/>
<path d="M62.5879 61.5549C62.5879 61.098 62.9755 60.5302 63.5984 60.5302C64.2906 60.5302 64.6782 61.0149 64.6782 61.5549C64.6782 62.095 64.2491 62.5797 63.6538 62.5797C63.0586 62.5797 62.5879 62.1089 62.5879 61.5549Z" fill="white"/>
<path d="M68.7764 60.544C69.247 60.544 69.8284 60.9318 69.8284 61.5826C69.8284 62.2889 69.3716 62.5797 68.8179 62.5797C68.2642 62.5797 67.7104 62.2473 67.7104 61.638C67.7104 61.0287 68.2919 60.544 68.7625 60.544H68.7764Z" fill="white"/>
<path d="M72.873 61.5549C72.873 61.098 73.2607 60.5302 73.8836 60.5302C74.5758 60.5302 74.9634 61.0149 74.9634 61.5549C74.9634 62.095 74.5342 62.5797 73.939 62.5797C73.3437 62.5797 72.873 62.1089 72.873 61.5549Z" fill="white"/>
<path d="M79.0479 60.544C79.5185 60.544 80.0999 60.9318 80.0999 61.5826C80.0999 62.2889 79.6431 62.5797 79.0894 62.5797C78.5357 62.5797 77.9819 62.2473 77.9819 61.638C77.9819 61.0287 78.5633 60.544 79.034 60.544H79.0479Z" fill="white"/>
<path d="M83.1592 61.5547C83.1592 61.0977 83.5468 60.5299 84.1697 60.5299C84.8619 60.5299 85.2495 61.0146 85.2495 61.5547C85.2495 62.0948 84.8203 62.5794 84.2251 62.5794C83.6298 62.5794 83.1592 62.1086 83.1592 61.5547Z" fill="white"/>
<path d="M89.335 60.544C89.8056 60.544 90.387 60.9318 90.387 61.5826C90.387 62.2889 89.9302 62.5797 89.3765 62.5797C88.8228 62.5797 88.269 62.2473 88.269 61.638C88.269 61.0287 88.8504 60.544 89.3211 60.544H89.335Z" fill="white"/>
<path d="M93.4292 61.5549C93.4292 61.098 93.8168 60.5302 94.4398 60.5302C95.1319 60.5302 95.5195 61.0149 95.5195 61.5549C95.5195 62.095 95.0904 62.5797 94.4951 62.5797C93.8999 62.5797 93.4292 62.1089 93.4292 61.5549Z" fill="white"/>
<path d="M99.6211 60.544C100.092 60.544 100.673 60.9318 100.673 61.5826C100.673 62.2889 100.216 62.5797 99.6626 62.5797C99.1089 62.5797 98.5552 62.2473 98.5552 61.638C98.5552 61.0287 99.1366 60.544 99.6072 60.544H99.6211Z" fill="white"/>
<path d="M51.1265 64.6568C51.5971 64.6568 52.1785 65.0445 52.1785 65.6954C52.1785 66.4017 51.7217 66.6925 51.168 66.6925C50.6143 66.6925 50.0605 66.3601 50.0605 65.7508C50.0605 65.1415 50.642 64.6568 51.1126 64.6568H51.1265Z" fill="white"/>
<path d="M55.2271 65.6816C55.2271 65.2246 55.6147 64.6568 56.2376 64.6568C56.9298 64.6568 57.3174 65.1415 57.3174 65.6816C57.3174 66.2216 56.8882 66.7063 56.293 66.7063C55.6977 66.7063 55.2271 66.2355 55.2271 65.6816Z" fill="white"/>
<path d="M61.397 64.6568C61.8676 64.6568 62.449 65.0445 62.449 65.6954C62.449 66.4017 61.9922 66.6925 61.4385 66.6925C60.8848 66.6925 60.3311 66.3601 60.3311 65.7508C60.3311 65.1415 60.9125 64.6568 61.3831 64.6568H61.397Z" fill="white"/>
<path d="M65.5098 65.6816C65.5098 65.2246 65.8974 64.6568 66.5203 64.6568C67.2125 64.6568 67.6001 65.1415 67.6001 65.6816C67.6001 66.2216 67.1709 66.7063 66.5757 66.7063C65.9804 66.7063 65.5098 66.2355 65.5098 65.6816Z" fill="white"/>
<path d="M71.6831 64.6568C72.1538 64.6568 72.7352 65.0445 72.7352 65.6954C72.7352 66.4017 72.2784 66.6925 71.7246 66.6925C71.1709 66.6925 70.6172 66.3601 70.6172 65.7508C70.6172 65.1415 71.1986 64.6568 71.6693 64.6568H71.6831Z" fill="white"/>
<path d="M75.7812 65.6816C75.7812 65.2246 76.1689 64.6568 76.7918 64.6568C77.484 64.6568 77.8716 65.1415 77.8716 65.6816C77.8716 66.2216 77.4424 66.7063 76.8472 66.7063C76.2519 66.7063 75.7812 66.2355 75.7812 65.6816Z" fill="white"/>
<path d="M81.9678 64.6568C82.4384 64.6568 83.0199 65.0445 83.0199 65.6954C83.0199 66.4017 82.563 66.6925 82.0093 66.6925C81.4556 66.6925 80.9019 66.3601 80.9019 65.7508C80.9019 65.1415 81.4833 64.6568 81.9539 64.6568H81.9678Z" fill="white"/>
<path d="M86.0664 65.6816C86.0664 65.2246 86.454 64.6568 87.0769 64.6568C87.7691 64.6568 88.1567 65.1415 88.1567 65.6816C88.1567 66.2216 87.7276 66.7063 87.1323 66.7063C86.5371 66.7063 86.0664 66.2355 86.0664 65.6816Z" fill="white"/>
<path d="M92.2539 64.6568C92.7246 64.6568 93.306 65.0445 93.306 65.6954C93.306 66.4017 92.8492 66.6925 92.2954 66.6925C91.7417 66.6925 91.188 66.3601 91.188 65.7508C91.188 65.1415 91.7694 64.6568 92.2401 64.6568H92.2539Z" fill="white"/>
<path d="M96.3516 65.6816C96.3516 65.2246 96.7392 64.6568 97.3621 64.6568C98.0543 64.6568 98.4419 65.1415 98.4419 65.6816C98.4419 66.2216 98.0127 66.7063 97.4175 66.7063C96.8222 66.7063 96.3516 66.2355 96.3516 65.6816Z" fill="white"/>
<path d="M102.524 64.6568C102.995 64.6568 103.576 65.0445 103.576 65.6954C103.576 66.4017 103.12 66.6925 102.566 66.6925C102.012 66.6925 101.458 66.3601 101.458 65.7508C101.458 65.1415 102.04 64.6568 102.511 64.6568H102.524Z" fill="white"/>
<path d="M52.3027 70.1272C52.3027 69.6702 52.6903 69.1025 53.3133 69.1025C54.0054 69.1025 54.393 69.5872 54.393 70.1272C54.393 70.6673 53.9639 71.152 53.3687 71.152C52.7734 71.152 52.3027 70.6812 52.3027 70.1272Z" fill="white"/>
<path d="M58.4912 69.1158C58.9619 69.1158 59.5433 69.5035 59.5433 70.1544C59.5433 70.8606 59.0865 71.1515 58.5327 71.1515C57.979 71.1515 57.4253 70.8191 57.4253 70.2098C57.4253 69.6005 58.0067 69.1158 58.4774 69.1158H58.4912Z" fill="white"/>
<path d="M62.5879 70.1272C62.5879 69.6702 62.9755 69.1025 63.5984 69.1025C64.2906 69.1025 64.6782 69.5872 64.6782 70.1272C64.6782 70.6673 64.2491 71.152 63.6538 71.152C63.0586 71.152 62.5879 70.6812 62.5879 70.1272Z" fill="white"/>
<path d="M68.7764 69.1158C69.247 69.1158 69.8284 69.5035 69.8284 70.1544C69.8284 70.8606 69.3716 71.1515 68.8179 71.1515C68.2642 71.1515 67.7104 70.8191 67.7104 70.2098C67.7104 69.6005 68.2919 69.1158 68.7625 69.1158H68.7764Z" fill="white"/>
<path d="M72.873 70.1272C72.873 69.6702 73.2607 69.1025 73.8836 69.1025C74.5758 69.1025 74.9634 69.5872 74.9634 70.1272C74.9634 70.6673 74.5342 71.152 73.939 71.152C73.3437 71.152 72.873 70.6812 72.873 70.1272Z" fill="white"/>
<path d="M79.0479 69.1158C79.5185 69.1158 80.0999 69.5035 80.0999 70.1544C80.0999 70.8606 79.6431 71.1515 79.0894 71.1515C78.5357 71.1515 77.9819 70.8191 77.9819 70.2098C77.9819 69.6005 78.5633 69.1158 79.034 69.1158H79.0479Z" fill="white"/>
<path d="M83.1592 70.1272C83.1592 69.6702 83.5468 69.1025 84.1697 69.1025C84.8619 69.1025 85.2495 69.5872 85.2495 70.1272C85.2495 70.6673 84.8203 71.152 84.2251 71.152C83.6298 71.152 83.1592 70.6812 83.1592 70.1272Z" fill="white"/>
<path d="M89.335 69.1158C89.8056 69.1158 90.387 69.5035 90.387 70.1544C90.387 70.8606 89.9302 71.1515 89.3765 71.1515C88.8228 71.1515 88.269 70.8191 88.269 70.2098C88.269 69.6005 88.8504 69.1158 89.3211 69.1158H89.335Z" fill="white"/>
<path d="M93.4292 70.1272C93.4292 69.6702 93.8168 69.1025 94.4398 69.1025C95.1319 69.1025 95.5195 69.5872 95.5195 70.1272C95.5195 70.6673 95.0904 71.152 94.4951 71.152C93.8999 71.152 93.4292 70.6812 93.4292 70.1272Z" fill="white"/>
<path d="M99.6211 69.1158C100.092 69.1158 100.673 69.5035 100.673 70.1544C100.673 70.8606 100.216 71.1515 99.6626 71.1515C99.1089 71.1515 98.5552 70.8191 98.5552 70.2098C98.5552 69.6005 99.1366 69.1158 99.6072 69.1158H99.6211Z" fill="white"/>
<path d="M51.1265 73.2291C51.5971 73.2291 52.1785 73.6168 52.1785 74.2677C52.1785 74.9739 51.7217 75.2648 51.168 75.2648C50.6143 75.2648 50.0605 74.9324 50.0605 74.3231C50.0605 73.7138 50.642 73.2291 51.1126 73.2291H51.1265Z" fill="white"/>
<path d="M55.2271 74.2539C55.2271 73.7969 55.6147 73.2291 56.2376 73.2291C56.9298 73.2291 57.3174 73.7138 57.3174 74.2539C57.3174 74.7939 56.8882 75.2786 56.293 75.2786C55.6977 75.2786 55.2271 74.8078 55.2271 74.2539Z" fill="white"/>
<path d="M61.397 73.2291C61.8676 73.2291 62.449 73.6168 62.449 74.2677C62.449 74.9739 61.9922 75.2648 61.4385 75.2648C60.8848 75.2648 60.3311 74.9324 60.3311 74.3231C60.3311 73.7138 60.9125 73.2291 61.3831 73.2291H61.397Z" fill="white"/>
<path d="M65.5098 74.2539C65.5098 73.7969 65.8974 73.2291 66.5203 73.2291C67.2125 73.2291 67.6001 73.7138 67.6001 74.2539C67.6001 74.7939 67.1709 75.2786 66.5757 75.2786C65.9804 75.2786 65.5098 74.8078 65.5098 74.2539Z" fill="white"/>
<path d="M71.6831 73.2291C72.1538 73.2291 72.7352 73.6168 72.7352 74.2677C72.7352 74.9739 72.2784 75.2648 71.7246 75.2648C71.1709 75.2648 70.6172 74.9324 70.6172 74.3231C70.6172 73.7138 71.1986 73.2291 71.6693 73.2291H71.6831Z" fill="white"/>
<path d="M75.7812 74.2539C75.7812 73.7969 76.1689 73.2291 76.7918 73.2291C77.484 73.2291 77.8716 73.7138 77.8716 74.2539C77.8716 74.7939 77.4424 75.2786 76.8472 75.2786C76.2519 75.2786 75.7812 74.8078 75.7812 74.2539Z" fill="white"/>
<path d="M81.9678 73.2291C82.4384 73.2291 83.0199 73.6168 83.0199 74.2677C83.0199 74.9739 82.563 75.2648 82.0093 75.2648C81.4556 75.2648 80.9019 74.9324 80.9019 74.3231C80.9019 73.7138 81.4833 73.2291 81.9539 73.2291H81.9678Z" fill="white"/>
<path d="M86.0664 74.2539C86.0664 73.7969 86.454 73.2291 87.0769 73.2291C87.7691 73.2291 88.1567 73.7138 88.1567 74.2539C88.1567 74.7939 87.7276 75.2786 87.1323 75.2786C86.5371 75.2786 86.0664 74.8078 86.0664 74.2539Z" fill="white"/>
<path d="M92.2539 73.2291C92.7246 73.2291 93.306 73.6168 93.306 74.2677C93.306 74.9739 92.8492 75.2648 92.2954 75.2648C91.7417 75.2648 91.188 74.9324 91.188 74.3231C91.188 73.7138 91.7694 73.2291 92.2401 73.2291H92.2539Z" fill="white"/>
<path d="M96.3516 74.2539C96.3516 73.7969 96.7392 73.2291 97.3621 73.2291C98.0543 73.2291 98.4419 73.7138 98.4419 74.2539C98.4419 74.7939 98.0127 75.2786 97.4175 75.2786C96.8222 75.2786 96.3516 74.8078 96.3516 74.2539Z" fill="white"/>
<path d="M102.524 73.2291C102.995 73.2291 103.576 73.6168 103.576 74.2677C103.576 74.9739 103.12 75.2648 102.566 75.2648C102.012 75.2648 101.458 74.9324 101.458 74.3231C101.458 73.7138 102.04 73.2291 102.511 73.2291H102.524Z" fill="white"/>
<path d="M52.3027 78.6993C52.3027 78.2423 52.6903 77.6745 53.3133 77.6745C54.0054 77.6745 54.393 78.1592 54.393 78.6993C54.393 79.2393 53.9639 79.724 53.3687 79.724C52.7734 79.724 52.3027 79.2532 52.3027 78.6993Z" fill="white"/>
<path d="M58.4912 77.6881C58.9619 77.6881 59.5433 78.0758 59.5433 78.7267C59.5433 79.4329 59.0865 79.7238 58.5327 79.7238C57.979 79.7238 57.4253 79.3914 57.4253 78.7821C57.4253 78.1728 58.0067 77.6881 58.4774 77.6881H58.4912Z" fill="white"/>
<path d="M62.5879 78.6993C62.5879 78.2423 62.9755 77.6745 63.5984 77.6745C64.2906 77.6745 64.6782 78.1592 64.6782 78.6993C64.6782 79.2393 64.2491 79.724 63.6538 79.724C63.0586 79.724 62.5879 79.2532 62.5879 78.6993Z" fill="white"/>
<path d="M68.7764 77.6881C69.247 77.6881 69.8284 78.0758 69.8284 78.7267C69.8284 79.4329 69.3716 79.7238 68.8179 79.7238C68.2642 79.7238 67.7104 79.3914 67.7104 78.7821C67.7104 78.1728 68.2919 77.6881 68.7625 77.6881H68.7764Z" fill="white"/>
<path d="M72.873 78.6993C72.873 78.2423 73.2607 77.6745 73.8836 77.6745C74.5758 77.6745 74.9634 78.1592 74.9634 78.6993C74.9634 79.2393 74.5342 79.724 73.939 79.724C73.3437 79.724 72.873 79.2532 72.873 78.6993Z" fill="white"/>
<path d="M79.0479 77.6881C79.5185 77.6881 80.0999 78.0758 80.0999 78.7267C80.0999 79.4329 79.6431 79.7238 79.0894 79.7238C78.5357 79.7238 77.9819 79.3914 77.9819 78.7821C77.9819 78.1728 78.5633 77.6881 79.034 77.6881H79.0479Z" fill="white"/>
<path d="M83.1592 78.6993C83.1592 78.2423 83.5468 77.6745 84.1697 77.6745C84.8619 77.6745 85.2495 78.1592 85.2495 78.6993C85.2495 79.2393 84.8203 79.724 84.2251 79.724C83.6298 79.724 83.1592 79.2532 83.1592 78.6993Z" fill="white"/>
<path d="M89.335 77.6881C89.8056 77.6881 90.387 78.0758 90.387 78.7267C90.387 79.4329 89.9302 79.7238 89.3765 79.7238C88.8228 79.7238 88.269 79.3914 88.269 78.7821C88.269 78.1728 88.8504 77.6881 89.3211 77.6881H89.335Z" fill="white"/>
<path d="M93.4292 78.6993C93.4292 78.2423 93.8168 77.6745 94.4398 77.6745C95.1319 77.6745 95.5195 78.1592 95.5195 78.6993C95.5195 79.2393 95.0904 79.724 94.4951 79.724C93.8999 79.724 93.4292 79.2532 93.4292 78.6993Z" fill="white"/>
<path d="M99.6211 77.6881C100.092 77.6881 100.673 78.0758 100.673 78.7267C100.673 79.4329 100.216 79.7238 99.6626 79.7238C99.1089 79.7238 98.5552 79.3914 98.5552 78.7821C98.5552 78.1728 99.1366 77.6881 99.6072 77.6881H99.6211Z" fill="white"/>
<path d="M51.1265 81.8009C51.5971 81.8009 52.1785 82.1886 52.1785 82.8395C52.1785 83.5457 51.7217 83.8365 51.168 83.8365C50.6143 83.8365 50.0605 83.5042 50.0605 82.8949C50.0605 82.2855 50.642 81.8009 51.1126 81.8009H51.1265Z" fill="white"/>
<path d="M55.2271 82.8256C55.2271 82.3686 55.6147 81.8009 56.2376 81.8009C56.9298 81.8009 57.3174 82.2855 57.3174 82.8256C57.3174 83.3657 56.8882 83.8504 56.293 83.8504C55.6977 83.8504 55.2271 83.3795 55.2271 82.8256Z" fill="white"/>
<path d="M61.397 81.8009C61.8676 81.8009 62.449 82.1886 62.449 82.8395C62.449 83.5457 61.9922 83.8365 61.4385 83.8365C60.8848 83.8365 60.3311 83.5042 60.3311 82.8949C60.3311 82.2855 60.9125 81.8009 61.3831 81.8009H61.397Z" fill="white"/>
<path d="M65.5098 82.8256C65.5098 82.3686 65.8974 81.8009 66.5203 81.8009C67.2125 81.8009 67.6001 82.2855 67.6001 82.8256C67.6001 83.3657 67.1709 83.8504 66.5757 83.8504C65.9804 83.8504 65.5098 83.3795 65.5098 82.8256Z" fill="white"/>
<path d="M71.6831 81.8011C72.1538 81.8011 72.7352 82.1889 72.7352 82.8397C72.7352 83.546 72.2784 83.8368 71.7246 83.8368C71.1709 83.8368 70.6172 83.5044 70.6172 82.8951C70.6172 82.2858 71.1986 81.8011 71.6693 81.8011H71.6831Z" fill="white"/>
<path d="M75.7812 82.8256C75.7812 82.3686 76.1689 81.8009 76.7918 81.8009C77.484 81.8009 77.8716 82.2855 77.8716 82.8256C77.8716 83.3657 77.4424 83.8504 76.8472 83.8504C76.2519 83.8504 75.7812 83.3795 75.7812 82.8256Z" fill="white"/>
<path d="M81.9678 81.8009C82.4384 81.8009 83.0199 82.1886 83.0199 82.8395C83.0199 83.5457 82.563 83.8365 82.0093 83.8365C81.4556 83.8365 80.9019 83.5042 80.9019 82.8949C80.9019 82.2855 81.4833 81.8009 81.9539 81.8009H81.9678Z" fill="white"/>
<path d="M86.0664 82.8256C86.0664 82.3686 86.454 81.8009 87.0769 81.8009C87.7691 81.8009 88.1567 82.2855 88.1567 82.8256C88.1567 83.3657 87.7276 83.8504 87.1323 83.8504C86.5371 83.8504 86.0664 83.3795 86.0664 82.8256Z" fill="white"/>
<path d="M92.2539 81.8009C92.7246 81.8009 93.306 82.1886 93.306 82.8395C93.306 83.5457 92.8492 83.8365 92.2954 83.8365C91.7417 83.8365 91.188 83.5042 91.188 82.8949C91.188 82.2855 91.7694 81.8009 92.2401 81.8009H92.2539Z" fill="white"/>
<path d="M96.3516 82.8256C96.3516 82.3686 96.7392 81.8009 97.3621 81.8009C98.0543 81.8009 98.4419 82.2855 98.4419 82.8256C98.4419 83.3657 98.0127 83.8504 97.4175 83.8504C96.8222 83.8504 96.3516 83.3795 96.3516 82.8256Z" fill="white"/>
<path d="M102.524 81.8009C102.995 81.8009 103.576 82.1886 103.576 82.8395C103.576 83.5457 103.12 83.8365 102.566 83.8365C102.012 83.8365 101.458 83.5042 101.458 82.8949C101.458 82.2855 102.04 81.8009 102.511 81.8009H102.524Z" fill="white"/>
<path d="M52.3027 87.2713C52.3027 86.8143 52.6903 86.2465 53.3133 86.2465C54.0054 86.2465 54.393 86.7312 54.393 87.2713C54.393 87.8114 53.9639 88.296 53.3687 88.296C52.7734 88.296 52.3027 87.8252 52.3027 87.2713Z" fill="white"/>
<path d="M58.4912 86.2601C58.9619 86.2601 59.5433 86.6478 59.5433 87.2987C59.5433 88.005 59.0865 88.2958 58.5327 88.2958C57.979 88.2958 57.4253 87.9634 57.4253 87.3541C57.4253 86.7448 58.0067 86.2601 58.4774 86.2601H58.4912Z" fill="white"/>
<path d="M62.5879 87.2713C62.5879 86.8143 62.9755 86.2465 63.5984 86.2465C64.2906 86.2465 64.6782 86.7312 64.6782 87.2713C64.6782 87.8114 64.2491 88.296 63.6538 88.296C63.0586 88.296 62.5879 87.8252 62.5879 87.2713Z" fill="white"/>
<path d="M68.7764 86.2601C69.247 86.2601 69.8284 86.6478 69.8284 87.2987C69.8284 88.005 69.3716 88.2958 68.8179 88.2958C68.2642 88.2958 67.7104 87.9634 67.7104 87.3541C67.7104 86.7448 68.2919 86.2601 68.7625 86.2601H68.7764Z" fill="white"/>
<path d="M72.873 87.2713C72.873 86.8143 73.2607 86.2465 73.8836 86.2465C74.5758 86.2465 74.9634 86.7312 74.9634 87.2713C74.9634 87.8114 74.5342 88.296 73.939 88.296C73.3437 88.296 72.873 87.8252 72.873 87.2713Z" fill="white"/>
<path d="M79.0479 86.2601C79.5185 86.2601 80.0999 86.6478 80.0999 87.2987C80.0999 88.005 79.6431 88.2958 79.0894 88.2958C78.5357 88.2958 77.9819 87.9634 77.9819 87.3541C77.9819 86.7448 78.5633 86.2601 79.034 86.2601H79.0479Z" fill="white"/>
<path d="M83.1592 87.271C83.1592 86.814 83.5468 86.2463 84.1697 86.2463C84.8619 86.2463 85.2495 86.7309 85.2495 87.271C85.2495 87.8111 84.8203 88.2958 84.2251 88.2958C83.6298 88.2958 83.1592 87.8249 83.1592 87.271Z" fill="white"/>
<path d="M89.335 86.2601C89.8056 86.2601 90.387 86.6478 90.387 87.2987C90.387 88.005 89.9302 88.2958 89.3765 88.2958C88.8228 88.2958 88.269 87.9634 88.269 87.3541C88.269 86.7448 88.8504 86.2601 89.3211 86.2601H89.335Z" fill="white"/>
<path d="M93.4292 87.2713C93.4292 86.8143 93.8168 86.2465 94.4398 86.2465C95.1319 86.2465 95.5195 86.7312 95.5195 87.2713C95.5195 87.8114 95.0904 88.296 94.4951 88.296C93.8999 88.296 93.4292 87.8252 93.4292 87.2713Z" fill="white"/>
<path d="M99.6211 86.2601C100.092 86.2601 100.673 86.6478 100.673 87.2987C100.673 88.005 100.216 88.2958 99.6626 88.2958C99.1089 88.2958 98.5552 87.9634 98.5552 87.3541C98.5552 86.7448 99.1366 86.2601 99.6072 86.2601H99.6211Z" fill="white"/>
<path d="M51.1265 90.3729C51.5971 90.3729 52.1785 90.7606 52.1785 91.4115C52.1785 92.1177 51.7217 92.4086 51.168 92.4086C50.6143 92.4086 50.0605 92.0762 50.0605 91.4669C50.0605 90.8576 50.642 90.3729 51.1126 90.3729H51.1265Z" fill="white"/>
<path d="M55.2271 91.3838C55.2271 90.9268 55.6147 90.359 56.2376 90.359C56.9298 90.359 57.3174 90.8437 57.3174 91.3838C57.3174 91.9239 56.8882 92.4086 56.293 92.4086C55.6977 92.4086 55.2271 91.9377 55.2271 91.3838Z" fill="white"/>
<path d="M61.397 90.3729C61.8676 90.3729 62.449 90.7606 62.449 91.4115C62.449 92.1177 61.9922 92.4086 61.4385 92.4086C60.8848 92.4086 60.3311 92.0762 60.3311 91.4669C60.3311 90.8576 60.9125 90.3729 61.3831 90.3729H61.397Z" fill="white"/>
<path d="M65.5098 91.3838C65.5098 90.9268 65.8974 90.359 66.5203 90.359C67.2125 90.359 67.6001 90.8437 67.6001 91.3838C67.6001 91.9239 67.1709 92.4086 66.5757 92.4086C65.9804 92.4086 65.5098 91.9377 65.5098 91.3838Z" fill="white"/>
<path d="M71.6831 90.3729C72.1538 90.3729 72.7352 90.7606 72.7352 91.4115C72.7352 92.1177 72.2784 92.4086 71.7246 92.4086C71.1709 92.4086 70.6172 92.0762 70.6172 91.4669C70.6172 90.8576 71.1986 90.3729 71.6693 90.3729H71.6831Z" fill="white"/>
<path d="M75.7812 91.3838C75.7812 90.9268 76.1689 90.359 76.7918 90.359C77.484 90.359 77.8716 90.8437 77.8716 91.3838C77.8716 91.9239 77.4424 92.4086 76.8472 92.4086C76.2519 92.4086 75.7812 91.9377 75.7812 91.3838Z" fill="white"/>
<path d="M81.9678 90.3729C82.4384 90.3729 83.0199 90.7606 83.0199 91.4115C83.0199 92.1177 82.563 92.4086 82.0093 92.4086C81.4556 92.4086 80.9019 92.0762 80.9019 91.4669C80.9019 90.8576 81.4833 90.3729 81.9539 90.3729H81.9678Z" fill="white"/>
<path d="M86.0664 91.3838C86.0664 90.9268 86.454 90.359 87.0769 90.359C87.7691 90.359 88.1567 90.8437 88.1567 91.3838C88.1567 91.9239 87.7276 92.4086 87.1323 92.4086C86.5371 92.4086 86.0664 91.9377 86.0664 91.3838Z" fill="white"/>
<path d="M92.2539 90.3729C92.7246 90.3729 93.306 90.7606 93.306 91.4115C93.306 92.1177 92.8492 92.4086 92.2954 92.4086C91.7417 92.4086 91.188 92.0762 91.188 91.4669C91.188 90.8576 91.7694 90.3729 92.2401 90.3729H92.2539Z" fill="white"/>
<path d="M96.3516 91.3838C96.3516 90.9268 96.7392 90.359 97.3621 90.359C98.0543 90.359 98.4419 90.8437 98.4419 91.3838C98.4419 91.9239 98.0127 92.4086 97.4175 92.4086C96.8222 92.4086 96.3516 91.9377 96.3516 91.3838Z" fill="white"/>
<path d="M102.524 90.3729C102.995 90.3729 103.576 90.7606 103.576 91.4115C103.576 92.1177 103.12 92.4086 102.566 92.4086C102.012 92.4086 101.458 92.0762 101.458 91.4669C101.458 90.8576 102.04 90.3729 102.511 90.3729H102.524Z" fill="white"/>
<path d="M104.755 77.6881C105.226 77.6881 105.807 78.0758 105.807 78.7267C105.807 79.4329 105.351 79.7238 104.797 79.7238C104.243 79.7238 103.689 79.3914 103.689 78.7821C103.689 78.1728 104.271 77.6881 104.742 77.6881H104.755Z" fill="white"/>
<path d="M104.755 86.2601C105.226 86.2601 105.807 86.6478 105.807 87.2987C105.807 88.005 105.351 88.2958 104.797 88.2958C104.243 88.2958 103.689 87.9634 103.689 87.3541C103.689 86.7448 104.271 86.2601 104.742 86.2601H104.755Z" fill="white"/>
<path d="M71.4069 18.7371C71.4069 17.9754 71.5592 17.2415 71.8499 16.5629C72.1267 15.8843 72.5282 15.2612 73.0404 14.7073C73.5526 14.1672 74.1755 13.7102 74.8815 13.4194C75.2276 13.2809 75.6014 13.1701 75.9751 13.1009L76.252 13.0593L76.5288 13.0316C76.7227 13.0316 76.9026 13.0178 77.0826 13.0316C77.2625 13.0316 77.4425 13.0316 77.6225 13.0593L78.1623 13.1424C78.3423 13.184 78.5223 13.2255 78.7022 13.2671C78.7853 13.2809 78.8822 13.3224 78.9652 13.3501L79.2283 13.4471C79.9204 13.7102 80.571 14.1256 81.1109 14.6657C81.6508 15.2058 82.0522 15.8566 82.3153 16.5491C82.5783 17.2415 82.7029 17.9754 82.689 18.7094C82.689 19.4433 82.5367 20.1773 82.246 20.8558C81.9553 21.5344 81.54 22.1437 81.0279 22.6561C80.5157 23.1684 79.8789 23.5839 79.2006 23.847C78.5223 24.124 77.7886 24.2348 77.0687 24.2348C75.6291 24.2348 74.1894 23.667 73.1373 22.6561C72.6113 22.1575 72.1683 21.5482 71.8637 20.8835C71.5592 20.205 71.4069 19.471 71.3931 18.7371H71.4069ZM72.9573 18.7371C72.9296 19.8034 73.3588 20.8697 74.134 21.6452C74.5216 22.0329 74.9784 22.3514 75.4906 22.5591L75.8782 22.6976L76.2797 22.7945L76.695 22.8499C76.8334 22.8499 76.9718 22.8499 77.1103 22.8776C77.664 22.8776 78.2039 22.7807 78.7161 22.573C79.2144 22.3653 79.6712 22.0468 80.045 21.659C80.4188 21.2713 80.7095 20.8004 80.9033 20.288C81.0971 19.7757 81.194 19.2356 81.1801 18.6955C81.1801 18.1416 81.0555 17.6154 80.8479 17.1168C80.6402 16.6321 80.3357 16.189 79.9619 15.8428C79.5882 15.4828 79.1314 15.2196 78.633 15.0396L78.4392 14.9704C78.37 14.9427 78.3146 14.9288 78.2454 14.915C78.1208 14.8873 77.9824 14.8596 77.8578 14.8319L77.4563 14.7765C77.3179 14.7627 77.1795 14.7765 77.041 14.7626C76.9026 14.7626 76.778 14.7626 76.6396 14.7626H76.4458L76.252 14.8042C76.0028 14.8457 75.7536 14.915 75.5183 15.0119C75.0476 15.2058 74.6047 15.4966 74.2309 15.8705C73.8571 16.2444 73.5387 16.6875 73.3173 17.1861C73.0958 17.6707 72.9573 18.2108 72.9435 18.7232L72.9573 18.7371Z" fill="white"/>
<path d="M37.1301 55.9321C35.3444 57.7047 33.8909 59.8234 32.8526 62.0945C31.8144 64.3656 31.1776 66.8167 31.1638 69.2401C31.1361 71.6774 31.7037 74.1147 32.7696 76.3442C33.8355 78.5737 35.3998 80.5679 37.3239 82.1881C37.7392 82.5343 37.7946 83.1436 37.4485 83.5591C37.144 83.933 36.6041 84.0161 36.2027 83.7668C33.7663 82.285 31.7452 80.1109 30.3609 77.5767C29.6687 76.3165 29.1288 74.9455 28.7828 73.5469C28.6028 72.8406 28.4782 72.1205 28.3813 71.4004L28.3259 70.8604L28.2982 70.5834C28.2982 70.4865 28.2982 70.4034 28.2982 70.3064V69.7663C28.2706 69.5863 28.2567 69.4063 28.2706 69.2263C28.2844 67.7584 28.4921 66.3043 28.8797 64.9195C29.2534 63.5209 29.7933 62.1914 30.4578 60.9313C31.1222 59.6711 31.9113 58.4801 32.8249 57.3861C33.7386 56.306 34.763 55.2951 35.9119 54.4642C36.3411 54.1457 36.9502 54.2565 37.2547 54.6858C37.5316 55.0735 37.4901 55.6136 37.144 55.9321H37.1301Z" fill="#FBF2D3"/>
<path d="M28.5597 45.9615C26.9539 47.4986 25.5004 49.1881 24.2268 51.0022C22.9394 52.8024 21.8458 54.7412 20.9183 56.7353C19.9909 58.7294 19.2433 60.8066 18.7311 62.9254C18.4681 63.9917 18.2605 65.058 18.122 66.1382C17.9836 67.2183 17.9005 68.2985 17.9005 69.3786C17.9005 70.4588 17.9421 71.5389 18.0667 72.6191C18.1774 73.6992 18.3574 74.7655 18.6065 75.818C19.091 77.9367 19.8247 80.0001 20.7799 81.9527C22.6903 85.8856 25.4866 89.3891 28.9473 92.1864C29.3626 92.5188 29.4318 93.1281 29.0996 93.5436C28.7951 93.9313 28.2552 94.0144 27.8399 93.7651C25.8049 92.5188 23.9638 90.954 22.3165 89.1953C20.683 87.4365 19.271 85.4563 18.122 83.3237C16.9731 81.2049 16.0871 78.92 15.4918 76.5658C15.2011 75.3887 14.9797 74.1839 14.8274 72.9791C14.6889 71.7743 14.6197 70.5557 14.6336 69.3371C14.6613 66.8998 15.0073 64.4764 15.6441 62.1361C16.2671 59.7957 17.153 57.5523 18.2605 55.4197C19.3679 53.2871 20.683 51.293 22.1919 49.4373C23.7146 47.5955 25.4173 45.9061 27.3415 44.4797C27.7707 44.1612 28.3798 44.2582 28.6843 44.6874C28.975 45.089 28.9196 45.6291 28.5736 45.9615H28.5597Z" fill="#FBF2D3"/>
<path d="M20.1998 33.3327C17.6804 35.6592 15.3963 38.2488 13.4029 41.0323C11.3956 43.8157 9.65138 46.7792 8.19786 49.8674C6.74433 52.9555 5.58152 56.1683 4.76477 59.4641C3.94803 62.76 3.49121 66.125 3.46352 69.4901C3.43584 72.8552 3.8096 76.2342 4.57097 79.53C5.33234 82.8259 6.49516 86.0248 7.99021 89.0575C10.9942 95.1368 15.3824 100.565 20.8089 104.789C21.2242 105.121 21.3073 105.731 20.975 106.146C20.6705 106.534 20.1168 106.631 19.7015 106.368C16.656 104.443 13.9012 102.061 11.451 99.3882C10.2328 98.0449 9.09766 96.6324 8.04558 95.1507C6.99351 93.6689 6.03834 92.1179 5.18007 90.5115C3.46352 87.2988 2.13458 83.8783 1.26247 80.3193C0.390354 76.7742 -0.0387786 73.1045 0.00275066 69.4486C0.0304369 67.6206 0.155025 65.7927 0.418043 63.9786C0.487259 63.5216 0.556474 63.0785 0.62569 62.6215L0.874864 61.2782L1.16557 59.9488L1.4978 58.6194C1.60855 58.1762 1.74698 57.7469 1.87157 57.3038C1.99616 56.8607 2.13459 56.4314 2.27302 56.0021C2.56372 55.1435 2.85443 54.2849 3.18666 53.4402C3.83729 51.7507 4.58481 50.0889 5.40156 48.4826C7.04889 45.2559 9.02845 42.2232 11.2849 39.412L11.714 38.8858L12.157 38.3734L12.6 37.8611L13.0568 37.3625C13.2091 37.1964 13.3613 37.0302 13.5136 36.864L13.9704 36.3655C14.275 36.0331 14.5934 35.7146 14.9118 35.3961C15.2302 35.0776 15.5624 34.7729 15.8808 34.4544L16.13 34.219L16.3791 33.9974L16.8775 33.5543C17.0436 33.402 17.2236 33.2635 17.3897 33.1112L17.9019 32.6819C18.2479 32.3911 18.6079 32.128 18.9678 31.8371C19.3831 31.5048 19.9922 31.574 20.3244 32.0033C20.6428 32.4049 20.5874 32.9727 20.2275 33.305H20.2137L20.1998 33.3327Z" fill="#FBF2D3"/>
<path d="M118.113 54.4507C119.276 55.2816 120.286 56.2925 121.2 57.3726C122.113 58.4666 122.903 59.6576 123.567 60.9177C124.231 62.1779 124.758 63.5212 125.145 64.906C125.519 66.3047 125.727 67.7449 125.754 69.2128C125.754 69.3928 125.754 69.5728 125.754 69.7528V70.2929C125.727 70.3898 125.727 70.4729 125.727 70.5699L125.699 70.8468L125.643 71.3869C125.56 72.107 125.422 72.8271 125.242 73.5334C124.882 74.9459 124.356 76.303 123.664 77.5632C122.28 80.0974 120.259 82.2715 117.822 83.7533C117.365 84.0302 116.77 83.8779 116.493 83.4209C116.244 83.0055 116.341 82.4792 116.701 82.1746C118.639 80.5544 120.203 78.5464 121.255 76.3168C122.321 74.0873 122.875 71.65 122.861 69.2128C122.847 66.7893 122.21 64.3382 121.172 62.0671C120.134 59.796 118.68 57.6773 116.895 55.9047C116.521 55.517 116.507 54.9077 116.895 54.5338C117.227 54.1876 117.767 54.1599 118.141 54.423L118.113 54.4507Z" fill="#FBF2D3"/>
<path d="M126.683 44.48C128.607 45.9063 130.296 47.5958 131.819 49.4376C132.58 50.3654 133.272 51.3209 133.936 52.318C134.601 53.3151 135.196 54.3537 135.75 55.4061C136.844 57.5387 137.743 59.7821 138.366 62.1225L138.588 62.9949L138.782 63.8812L138.948 64.7813L139.086 65.6814C139.266 66.8862 139.349 68.1048 139.363 69.3235C139.391 71.7607 139.1 74.198 138.519 76.5522C138.228 77.7293 137.854 78.8925 137.411 80.0142C136.968 81.1497 136.47 82.2437 135.888 83.3101C134.739 85.4427 133.327 87.4091 131.694 89.1817C130.047 90.9404 128.205 92.5052 126.171 93.7377C125.714 94.0146 125.118 93.8762 124.842 93.4192C124.592 93.0037 124.689 92.4636 125.063 92.1728C128.51 89.3755 131.306 85.8581 133.217 81.9391C134.172 79.9727 134.906 77.9231 135.39 75.8044C135.639 74.7519 135.819 73.6718 135.93 72.6055C136.054 71.5253 136.096 70.4452 136.096 69.365C136.096 68.2849 136.013 67.2047 135.875 66.1246C135.736 65.0444 135.528 63.9781 135.279 62.9118C134.753 60.793 134.02 58.7158 133.092 56.7217C132.165 54.7276 131.057 52.8027 129.77 50.9886C128.496 49.1745 127.043 47.485 125.437 45.9617C125.049 45.5878 125.035 44.9785 125.409 44.5908C125.755 44.2307 126.295 44.1892 126.683 44.48Z" fill="#FBF2D3"/>
<path d="M135.042 31.8509C135.402 32.1278 135.748 32.4048 136.094 32.6956L136.607 33.1249C136.773 33.2634 136.953 33.4157 137.119 33.568L137.617 34.0112L137.866 34.2327L138.116 34.4681C138.448 34.7728 138.78 35.0775 139.085 35.4098C139.403 35.7283 139.721 36.0468 140.026 36.3792L140.483 36.8777C140.635 37.0439 140.787 37.2101 140.94 37.3762L141.396 37.8748L141.839 38.3872L142.282 38.8995L142.711 39.4258C143.847 40.8244 144.899 42.2923 145.882 43.8156C146.864 45.3251 147.764 46.8899 148.595 48.5101C150.242 51.7367 151.571 55.1295 152.499 58.6469L152.831 59.9763L153.121 61.3058L153.371 62.649C153.44 63.106 153.509 63.5492 153.578 64.0062C153.647 64.4631 153.689 64.9063 153.744 65.3633C153.772 65.5848 153.786 65.8203 153.814 66.0418L153.869 66.7204C153.938 67.6343 153.98 68.5483 153.994 69.4623C154.007 69.9193 153.994 70.3763 153.994 70.8333C153.994 71.2903 153.966 71.7472 153.952 72.2042C153.952 72.4258 153.938 72.6612 153.911 72.8828L153.855 73.5613C153.841 73.7829 153.814 74.0183 153.8 74.2399L153.717 74.9185C153.509 76.7326 153.177 78.5328 152.748 80.3054C152.319 82.0779 151.751 83.8228 151.1 85.5261C150.436 87.2294 149.688 88.8912 148.83 90.4976C147.972 92.104 147.017 93.6549 145.965 95.1367C144.912 96.6184 143.777 98.0309 142.559 99.3742C140.109 102.047 137.354 104.429 134.309 106.354C133.852 106.644 133.257 106.506 132.98 106.049C132.717 105.634 132.814 105.08 133.201 104.775C135.901 102.642 138.365 100.247 140.51 97.5878C141.59 96.2722 142.587 94.8874 143.501 93.4611C144.428 92.0347 145.259 90.553 146.006 89.0297C146.754 87.5064 147.418 85.9554 147.986 84.3629C148.567 82.7703 149.038 81.1501 149.425 79.5022C149.813 77.8543 150.09 76.1925 150.284 74.5169L150.353 73.8937C150.367 73.686 150.381 73.4783 150.408 73.2567L150.464 72.6197C150.477 72.412 150.491 72.2042 150.491 71.9827C150.505 71.5672 150.533 71.1379 150.533 70.7225C150.533 70.307 150.56 69.8777 150.533 69.4623C150.533 68.6176 150.491 67.7728 150.436 66.942L150.381 66.3049C150.367 66.0972 150.353 65.8895 150.325 65.6818C150.27 65.2663 150.242 64.837 150.187 64.4216C149.965 62.746 149.647 61.0842 149.245 59.4363C148.429 56.1404 147.266 52.9277 145.812 49.8395C145.092 48.2886 144.29 46.7791 143.417 45.3112C142.559 43.8295 141.604 42.4031 140.607 41.0183C138.6 38.2348 136.33 35.6452 133.796 33.3187H133.783C133.395 32.9448 133.367 32.3355 133.727 31.9478C134.073 31.5739 134.641 31.5323 135.029 31.837L135.042 31.8509Z" fill="#FBF2D3"/>
</svg>
