<?xml version="1.0" encoding="utf-8"?>
<!-- Generator: Adobe Illustrator 15.1.0, SVG Export Plug-In  -->
<!DOCTYPE svg PUBLIC "-//W3C//DTD SVG 1.1//EN" "http://www.w3.org/Graphics/SVG/1.1/DTD/svg11.dtd" [
	<!ENTITY ns_flows "http://ns.adobe.com/Flows/1.0/">
]>
<svg version="1.1"
	 xmlns="http://www.w3.org/2000/svg" xmlns:xlink="http://www.w3.org/1999/xlink" xmlns:a="http://ns.adobe.com/AdobeSVGViewerExtensions/3.0/"
	 x="0px" y="0px" width="46px" height="47px" viewBox="-0.38 -0.582 46 47" enable-background="new -0.38 -0.582 46 47"
	 xml:space="preserve">
<defs>
</defs>
<path fill="#124A9D" d="M45.276,24.328c-0.461-0.797-1.301-1.302-2.215-1.351l0.008-0.006h-0.045
	c-0.005-0.001-0.009-0.002-0.014-0.002l-0.002,0.001l-0.229-0.002l-0.012-0.15c0-3.199-0.784-6.389-2.268-9.224
	c-1.481-2.834-3.654-5.298-6.281-7.125l-0.064-0.046V6.308c-0.001-0.918-0.359-1.783-1.008-2.432
	c-0.649-0.648-1.514-1.006-2.432-1.008H26.94l-0.037-0.096c-0.432-1.09-1.299-1.977-2.381-2.432s-2.323-0.455-3.405,0
	c-1.082,0.453-1.949,1.342-2.381,2.432l-0.038,0.096h-3.775c-0.918,0.002-1.782,0.359-2.431,1.008
	c-0.649,0.648-1.007,1.514-1.008,2.432v0.078l-0.064,0.078c-2.627,1.828-4.8,4.293-6.281,7.127
	c-1.483,2.837-2.267,6.025-2.268,9.227v0.15H2.72c-0.969,0-1.872,0.52-2.357,1.359c-0.484,0.84-0.484,1.883,0,2.723
	c0.485,0.84,1.388,1.359,2.357,1.359h1.585v2.561c0,0.15,0.061,0.297,0.167,0.4c0.106,0.107,0.252,0.168,0.402,0.168h2.632
	l0.032,0.107c0.315,1.066,0.746,2.105,1.278,3.088l0.053,0.098l-1.861,1.861c-0.107,0.108-0.167,0.25-0.167,0.402
	c0,0.15,0.059,0.293,0.167,0.4l5.44,5.438c0.214,0.215,0.589,0.215,0.802,0.002l1.862-1.863l0.099,0.055
	c0.978,0.531,2.017,0.963,3.087,1.279l0.107,0.031v2.633c0,0.152,0.059,0.295,0.167,0.402c0.106,0.107,0.25,0.166,0.401,0.166h7.691
	c0.152,0,0.295-0.059,0.402-0.166s0.166-0.25,0.166-0.402v-2.633l0.107-0.031c1.07-0.316,2.109-0.748,3.088-1.279l0.098-0.055
	l1.861,1.861c0.215,0.215,0.59,0.215,0.803,0.002l5.44-5.439c0.107-0.107,0.167-0.25,0.167-0.4c0-0.152-0.06-0.294-0.167-0.402
	l-1.86-1.861l0.053-0.098c0.532-0.982,0.963-2.021,1.277-3.088l0.033-0.107h2.632c0.149,0,0.296-0.061,0.401-0.168
	c0.105-0.104,0.166-0.25,0.166-0.4V28.41h1.586c0.969,0,1.872-0.52,2.357-1.359C45.76,26.21,45.76,25.167,45.276,24.328z
	 M4.006,22.818c0.004-2.836,0.665-5.682,1.911-8.229c1.246-2.547,3.087-4.814,5.325-6.559l0.242-0.188v5.643
	c0,0.314,0.255,0.568,0.568,0.568s0.568-0.254,0.568-0.568V6.308c0.001-0.615,0.241-1.193,0.675-1.629
	c0.436-0.436,1.014-0.676,1.628-0.676h3.492l-0.012,0.162l-1.176,16.459c-0.01,0.148,0.04,0.299,0.138,0.412
	c0.099,0.115,0.238,0.184,0.39,0.195c0.302-0.002,0.574-0.225,0.607-0.533l1.18-16.516c0.08-1.119,0.717-2.109,1.703-2.648
	c0.985-0.539,2.163-0.537,3.149,0c0.986,0.539,1.622,1.529,1.702,2.648l1.181,16.521c0.021,0.295,0.271,0.527,0.566,0.527h0.043
	c0.147-0.012,0.29-0.082,0.388-0.195s0.147-0.264,0.137-0.412L27.223,4.003h3.492c0.614,0,1.193,0.24,1.629,0.676
	c0.434,0.436,0.674,1.014,0.675,1.629v7.178c0,0.314,0.255,0.568,0.567,0.568c0.313,0,0.568-0.254,0.568-0.568V7.841l0.242,0.188
	c2.238,1.744,4.08,4.012,5.325,6.559c1.247,2.548,1.907,5.393,1.911,8.23v0.15H4.005L4.006,22.818z M37.698,30.404
	c-0.26,0-0.486,0.174-0.551,0.426c-0.344,1.336-0.875,2.619-1.576,3.811c-0.131,0.223-0.096,0.506,0.088,0.688l1.768,1.768
	L32.79,41.73l-1.767-1.766c-0.183-0.186-0.466-0.223-0.688-0.088c-1.191,0.701-2.474,1.232-3.811,1.576
	c-0.252,0.064-0.427,0.291-0.427,0.551v2.5h-6.556v-2.5c0-0.26-0.175-0.486-0.426-0.551c-1.337-0.344-2.619-0.875-3.81-1.576
	c-0.223-0.131-0.506-0.096-0.689,0.088L12.85,41.73l-4.637-4.635l1.768-1.768c0.183-0.182,0.219-0.465,0.087-0.689
	c-0.702-1.191-1.232-2.473-1.576-3.811c-0.065-0.25-0.292-0.424-0.551-0.424h-2.5V28.41h8.249l0.015,0.133
	c0.348,3.011,2.155,5.65,4.834,7.064c2.681,1.414,5.879,1.414,8.559,0s4.487-4.054,4.835-7.064l0.015-0.133h8.249l0.001,1.994
	H37.698z M14.862,28.41h15.914l-0.022,0.17c-0.344,2.584-1.929,4.846-4.241,6.047c-1.156,0.602-2.425,0.902-3.693,0.902
	c-1.268,0-2.537-0.301-3.693-0.902c-2.312-1.201-3.897-3.463-4.241-6.047L14.862,28.41z M44.292,26.482
	c-0.281,0.49-0.809,0.793-1.373,0.793H2.72c-0.565,0-1.091-0.303-1.374-0.793c-0.282-0.488-0.282-1.096,0-1.586
	c0.282-0.488,0.809-0.793,1.374-0.793h40.198c0.564,0,1.092,0.305,1.373,0.793C44.575,25.386,44.575,25.994,44.292,26.482z"/>
</svg>
