<?xml version="1.0" encoding="utf-8"?>
<!-- Generator: Adobe Illustrator 15.1.0, SVG Export Plug-In  -->
<!DOCTYPE svg PUBLIC "-//W3C//DTD SVG 1.1//EN" "http://www.w3.org/Graphics/SVG/1.1/DTD/svg11.dtd" [
	<!ENTITY ns_flows "http://ns.adobe.com/Flows/1.0/">
]>
<svg version="1.1"
	 xmlns="http://www.w3.org/2000/svg" xmlns:xlink="http://www.w3.org/1999/xlink" xmlns:a="http://ns.adobe.com/AdobeSVGViewerExtensions/3.0/"
	 x="0px" y="0px" width="46px" height="45px" viewBox="-0.563 -0.398 46 45" enable-background="new -0.563 -0.398 46 45"
	 xml:space="preserve">
<defs>
</defs>
<path fill="#124A9D" d="M22.397,35.957c-7.457,0-13.528-6.067-13.533-13.524c-0.002-3.615,1.403-7.015,3.958-9.573
	c2.555-2.558,5.952-3.967,9.567-3.97c7.467,0,13.538,6.067,13.543,13.524c0.004,5.458-3.244,10.355-8.271,12.479
	c-1.668,0.706-3.433,1.064-5.244,1.064H22.397z M22.402,9.698c-7.008,0-12.712,5.702-12.715,12.711
	c-0.001,3.396,1.32,6.59,3.721,8.992s5.593,3.727,8.99,3.728c7.013,0,12.717-5.701,12.72-12.711
	c-0.008-7.01-5.71-12.712-12.71-12.72H22.402z"/>
<path fill="#124A9D" d="M18.215,44.801c-0.231,0-0.419-0.188-0.419-0.419v-3.604l-0.235-0.062c-1.638-0.428-3.211-1.074-4.676-1.923
	l-0.209-0.121l-2.545,2.546c-0.08,0.081-0.186,0.125-0.298,0.125c-0.111,0-0.216-0.043-0.295-0.121l-5.926-5.94
	c-0.165-0.164-0.166-0.431-0.003-0.595l2.548-2.548l-0.12-0.208c-0.848-1.469-1.495-3.044-1.923-4.683l-0.062-0.234H0.419
	C0.188,27.015,0,26.827,0,26.596v-8.375c0-0.231,0.188-0.419,0.419-0.419h3.604l0.061-0.235c0.428-1.639,1.076-3.215,1.923-4.682
	l0.121-0.208l-2.545-2.545c-0.165-0.164-0.166-0.43-0.004-0.594l5.955-5.925C9.614,3.531,9.72,3.487,9.833,3.487
	c0.111,0,0.216,0.043,0.295,0.121l2.549,2.549l0.208-0.121c1.464-0.848,3.038-1.495,4.676-1.922l0.234-0.062V0.419
	C17.796,0.188,17.984,0,18.215,0h8.385c0.23,0,0.419,0.188,0.419,0.419v3.604l0.234,0.062c1.639,0.427,3.212,1.073,4.677,1.922
	l0.208,0.121l2.546-2.545c0.08-0.081,0.186-0.125,0.298-0.125c0.111,0,0.216,0.043,0.296,0.121l5.924,5.954
	c0.166,0.164,0.167,0.431,0.005,0.595l-2.549,2.548l0.12,0.209c0.848,1.467,1.494,3.042,1.923,4.682l0.062,0.234h3.634
	c0.231,0,0.419,0.188,0.419,0.42v8.375c0,0.23-0.188,0.419-0.419,0.419h-3.619l-0.062,0.234c-0.428,1.639-1.074,3.214-1.923,4.682
	l-0.12,0.208l2.545,2.546c0.165,0.163,0.166,0.429,0.004,0.593l-0.023,0.025l-5.917,5.9c-0.081,0.081-0.187,0.125-0.299,0.125
	c-0.111,0-0.216-0.043-0.295-0.121l-0.019-0.017l-2.53-2.532l-0.208,0.121c-1.465,0.849-3.038,1.495-4.677,1.922l-0.234,0.062v3.634
	c-0.005,0.221-0.192,0.404-0.419,0.404H18.215z M12.617,37.697c0.077,0,0.152,0.021,0.218,0.063c1.689,1.058,3.53,1.82,5.471,2.268
	c0.188,0.044,0.321,0.213,0.323,0.409l0.005,3.526h7.546v-3.519c0.002-0.194,0.136-0.362,0.326-0.408
	c1.939-0.446,3.78-1.21,5.469-2.267c0.065-0.041,0.141-0.063,0.219-0.063c0.111,0,0.216,0.044,0.295,0.123l2.491,2.486l5.329-5.329
	l-2.479-2.49c-0.14-0.137-0.165-0.353-0.063-0.516c1.056-1.689,1.818-3.53,2.268-5.471c0.045-0.191,0.216-0.327,0.414-0.328h3.513
	v-7.542h-3.515c-0.196-0.002-0.367-0.137-0.412-0.33c-0.449-1.938-1.212-3.779-2.268-5.469c-0.104-0.166-0.078-0.377,0.062-0.514
	l2.486-2.486l-5.33-5.33l-2.489,2.474c-0.081,0.082-0.186,0.126-0.298,0.126c-0.077,0-0.152-0.021-0.219-0.063
	c-1.688-1.058-3.528-1.82-5.471-2.268c-0.188-0.045-0.322-0.213-0.322-0.409V0.854h-7.553v3.52
	c-0.001,0.194-0.135,0.362-0.325,0.408c-1.939,0.446-3.78,1.209-5.469,2.267c-0.065,0.041-0.141,0.063-0.218,0.063
	c-0.112,0-0.217-0.044-0.295-0.124L9.835,4.502l-5.33,5.33l2.484,2.484c0.141,0.139,0.166,0.35,0.063,0.516
	c-1.055,1.688-1.818,3.529-2.268,5.47c-0.045,0.192-0.216,0.327-0.415,0.329H0.853v7.547h3.515c0.197,0.001,0.367,0.137,0.413,0.33
	c0.449,1.938,1.212,3.779,2.268,5.469c0.103,0.165,0.078,0.377-0.062,0.514L4.5,34.977l5.33,5.33l2.489-2.484
	C12.4,37.74,12.505,37.697,12.617,37.697z"/>
<path fill="#124A9D" d="M31.941,17H26.73v1.088h3.458l-2.932,3.501l-5.545-0.081l-2.303,5.214l-4.075-0.883l-3.08,5.284l0.941,0.547
	l2.68-4.6l4.17,0.902l2.371-5.367l5.345,0.076l3.094-3.697v3.23h1.087V17z"/>
</svg>
