<?xml version="1.0" encoding="utf-8"?>
<!-- Generator: Adobe Illustrator 15.1.0, SVG Export Plug-In  -->
<!DOCTYPE svg PUBLIC "-//W3C//DTD SVG 1.1//EN" "http://www.w3.org/Graphics/SVG/1.1/DTD/svg11.dtd" [
	<!ENTITY ns_flows "http://ns.adobe.com/Flows/1.0/">
]>
<svg version="1.1"
	 xmlns="http://www.w3.org/2000/svg" xmlns:xlink="http://www.w3.org/1999/xlink" xmlns:a="http://ns.adobe.com/AdobeSVGViewerExtensions/3.0/"
	 x="0px" y="0px" width="53px" height="53px" viewBox="-1.931 -1.6 53 53" enable-background="new -1.931 -1.6 53 53"
	 xml:space="preserve">
<defs>
</defs>
<path fill="#1F5F8C" d="M5.506,22.648c-0.077,0-0.154-0.019-0.222-0.052c-0.167-0.084-0.271-0.253-0.271-0.438l-0.031-4.631H2.348
	C1.054,17.526,0,16.473,0,15.177V2.347C0,1.054,1.054,0,2.348,0H47.23c1.295,0,2.349,1.054,2.349,2.347v12.83
	c0,1.296-1.053,2.349-2.349,2.349h-2.633l-0.033,4.631c-0.001,0.186-0.105,0.354-0.272,0.438c-0.066,0.033-0.146,0.052-0.221,0.052
	c-0.106,0-0.207-0.033-0.292-0.097l-6.866-5.025h-8.348l-3.37,4.907c-0.092,0.133-0.245,0.215-0.407,0.215
	c-0.161,0-0.314-0.082-0.406-0.215l-3.37-4.907h-8.347l-6.867,5.025C5.711,22.615,5.611,22.648,5.506,22.648z M21.271,16.54
	c0.164,0,0.315,0.08,0.407,0.214l3.109,4.528l3.108-4.528c0.094-0.134,0.245-0.214,0.408-0.214h8.771
	c0.105,0,0.206,0.033,0.291,0.095l6.219,4.55l0.027-4.156c0.003-0.27,0.225-0.49,0.495-0.49h3.123c0.75,0,1.36-0.612,1.36-1.362
	V2.347c0-0.749-0.61-1.359-1.36-1.359H2.348c-0.75,0-1.359,0.61-1.359,1.359v12.83c0,0.752,0.609,1.362,1.359,1.362h3.125
	c0.27,0,0.492,0.22,0.494,0.491l0.027,4.155l6.219-4.55c0.085-0.062,0.186-0.095,0.291-0.095H21.271z"/>
<path fill="#1F5F8C" d="M0.494,49.58C0.222,49.58,0,49.357,0,49.085v-3.199c0-2.08,1.232-3.99,3.14-4.867l0.501-0.23l-0.285-0.474
	c-0.46-0.764-0.705-1.639-0.705-2.531c0-2.713,2.208-4.921,4.921-4.921c2.71,0,4.917,2.208,4.917,4.921
	c0,0.893-0.244,1.77-0.704,2.531l-0.285,0.474L12,41.019c0.652,0.299,1.232,0.725,1.723,1.26l0.561,0.613l0.271-0.785
	c0.715-2.075,2.361-3.784,4.401-4.571l0.588-0.227l-0.362-0.517c-0.804-1.153-1.23-2.502-1.23-3.905
	c0-3.769,3.066-6.836,6.834-6.836c3.77,0,6.834,3.067,6.834,6.836c0,1.403-0.425,2.752-1.229,3.904l-0.362,0.518l0.589,0.226
	c2.04,0.786,3.687,2.496,4.401,4.572l0.271,0.784l0.56-0.612c0.493-0.536,1.073-0.961,1.725-1.26l0.503-0.231l-0.287-0.475
	c-0.459-0.762-0.703-1.637-0.703-2.529c0-2.713,2.207-4.921,4.92-4.921c2.71,0,4.916,2.208,4.916,4.921
	c0,0.893-0.242,1.768-0.703,2.529l-0.285,0.475l0.502,0.23c1.907,0.878,3.142,2.788,3.141,4.868v3.199
	c0,0.271-0.221,0.494-0.494,0.494H0.494z M38.681,41.667c-1.919,0.505-3.258,2.241-3.258,4.22v2.705H48.59v-2.705
	c0-1.979-1.341-3.715-3.26-4.219l-0.228-0.062l-0.19,0.14c-0.849,0.624-1.854,0.954-2.905,0.954c-1.054,0-2.06-0.33-2.908-0.954
	l-0.189-0.14L38.681,41.667z M20.188,38.191c-2.926,0.662-5.048,3.315-5.048,6.309v4.092h19.295V44.5
	c0-2.994-2.122-5.647-5.047-6.31l-0.229-0.052l-0.185,0.144c-1.211,0.942-2.658,1.44-4.188,1.44s-2.977-0.498-4.188-1.439
	l-0.184-0.144L20.188,38.191z M4.246,41.667c-1.918,0.505-3.257,2.241-3.257,4.22v2.705h13.163v-2.705
	c0-1.979-1.339-3.714-3.256-4.219l-0.229-0.062l-0.19,0.14C9.628,42.37,8.624,42.7,7.572,42.7c-1.053,0-2.059-0.33-2.907-0.954
	l-0.191-0.14L4.246,41.667z M42.007,33.851c-2.168,0-3.933,1.765-3.933,3.933c0,2.167,1.765,3.929,3.933,3.929
	c2.166,0,3.928-1.762,3.928-3.929C45.935,35.616,44.173,33.851,42.007,33.851z M7.572,33.851c-2.168,0-3.932,1.765-3.932,3.933
	c0,2.167,1.764,3.929,3.932,3.929c2.167,0,3.93-1.762,3.93-3.929C11.501,35.616,9.739,33.851,7.572,33.851z M24.788,27.04
	c-3.224,0-5.847,2.623-5.847,5.848s2.623,5.848,5.847,5.848c3.224,0,5.847-2.623,5.847-5.848S28.011,27.04,24.788,27.04z"/>
<path fill="#1F5F8C" d="M18.215,6.5c-0.273,0-0.493-0.222-0.493-0.494c0-0.271,0.22-0.494,0.493-0.494h25.719
	c0.271,0,0.491,0.222,0.491,0.494c0,0.272-0.221,0.494-0.491,0.494H18.215z"/>
<path fill="#1F5F8C" d="M5.643,6.5c-0.272,0-0.494-0.222-0.494-0.494c0-0.271,0.222-0.494,0.494-0.494h7.343
	c0.272,0,0.494,0.222,0.494,0.494c0,0.272-0.221,0.494-0.494,0.494H5.643z"/>
<path fill="#1F5F8C" d="M36.594,12.013c-0.272,0-0.495-0.222-0.495-0.494s0.223-0.494,0.495-0.494h7.34
	c0.271,0,0.491,0.222,0.491,0.494s-0.221,0.494-0.491,0.494H36.594z"/>
<path fill="#1F5F8C" d="M5.643,12.013c-0.272,0-0.494-0.222-0.494-0.494s0.222-0.494,0.494-0.494h25.719
	c0.271,0,0.492,0.222,0.492,0.494s-0.222,0.494-0.492,0.494H5.643z"/>
</svg>
