<?xml version="1.0" encoding="utf-8"?>
<!-- Generator: Adobe Illustrator 15.1.0, SVG Export Plug-In  -->
<!DOCTYPE svg PUBLIC "-//W3C//DTD SVG 1.1//EN" "http://www.w3.org/Graphics/SVG/1.1/DTD/svg11.dtd" [
	<!ENTITY ns_flows "http://ns.adobe.com/Flows/1.0/">
]>
<svg version="1.1"
	 xmlns="http://www.w3.org/2000/svg" xmlns:xlink="http://www.w3.org/1999/xlink" xmlns:a="http://ns.adobe.com/AdobeSVGViewerExtensions/3.0/"
	 x="0px" y="0px" width="53px" height="53px" viewBox="0 0 53 53" enable-background="new 0 0 53 53" xml:space="preserve">
<defs>
</defs>
<path fill="#1F5F8C" d="M41.644,52.779c-2.646,0-4.884-1.894-5.324-4.501l-0.079-0.474H17.202l-0.08,0.474
	c-0.44,2.607-2.68,4.501-5.324,4.501c-2.645,0-4.884-1.894-5.324-4.501l-0.08-0.474H3.269c-1.8-0.003-3.267-1.469-3.269-3.27V11.599
	c0.002-1.8,1.469-3.267,3.27-3.269H5.96l0.07-0.488c0.285-1.974,1.216-3.84,2.624-5.255C10.317,0.919,12.53,0,14.886,0
	c2.355,0,4.569,0.919,6.233,2.587c1.406,1.415,2.337,3.281,2.623,5.256l0.071,0.487h2.691c1.799,0.002,3.266,1.469,3.269,3.27V22.48
	h13.824c0.912,0.001,1.79,0.387,2.409,1.06l7.313,7.97c0.007,0.009,0.036,0.044,0.036,0.044l0.018,0.025l0.018,0.03
	c0.004,0.008,0.008,0.016,0.012,0.023l0.018,0.049l0.008,0.027l0.004,0.016l0.005,0.04l0.001,0.016v0.019l0.002,0.022v12.714
	c-0.002,1.801-1.469,3.267-3.27,3.27h-3.122l-0.08,0.474C46.528,50.886,44.289,52.779,41.644,52.779z M41.643,42.83
	c-2.508,0-4.548,2.04-4.548,4.548s2.04,4.548,4.548,4.548c2.506-0.003,4.545-2.043,4.549-4.547
	C46.192,44.87,44.151,42.83,41.643,42.83z M11.796,42.83c-2.508,0-4.548,2.04-4.548,4.548s2.04,4.548,4.548,4.548
	c2.505-0.003,4.545-2.043,4.548-4.547C16.345,44.87,14.304,42.83,11.796,42.83z M41.643,41.978c2.645,0,4.883,1.893,5.323,4.5
	l0.08,0.474h3.125c1.331-0.002,2.414-1.085,2.416-2.415V32.232H29.773v14.719h6.466l0.08-0.474
	C36.758,43.87,38.998,41.978,41.643,41.978z M11.796,41.978c2.645,0,4.884,1.893,5.324,4.5l0.08,0.474h11.719V11.599
	c-0.001-1.33-1.085-2.414-2.415-2.416h-2.651l-0.036,0.53c-0.057,0.851-0.234,1.689-0.529,2.492
	c-0.453,1.208-1.138,2.297-2.035,3.232l-6.056,6.451c-0.081,0.086-0.194,0.135-0.311,0.135s-0.23-0.049-0.311-0.134l-6.053-6.447
	c-0.901-0.939-1.586-2.028-2.041-3.241c-0.292-0.799-0.471-1.637-0.528-2.488l-0.036-0.53H3.269
	c-1.331,0.001-2.415,1.085-2.416,2.415v32.938c0.001,1.331,1.085,2.414,2.415,2.416h3.124l0.08-0.474
	C6.913,43.87,9.152,41.978,11.796,41.978z M29.772,31.379h22.271l-6.666-7.263c-0.457-0.497-1.105-0.782-1.779-0.782H29.772V31.379z
	 M14.886,0.853c-2.127,0-4.126,0.829-5.628,2.336C7.809,4.647,6.937,6.579,6.802,8.63c-0.071,1.124,0.091,2.229,0.484,3.286
	c0.418,1.107,1.045,2.099,1.864,2.948l5.736,6.11l5.741-6.116c0.813-0.844,1.44-1.835,1.857-2.938
	c0.394-1.059,0.557-2.164,0.486-3.288c-0.134-2.053-1.006-3.984-2.456-5.442C19.034,1.704,16.983,0.853,14.886,0.853z"/>
</svg>
