<?xml version="1.0" encoding="utf-8"?>
<!-- Generator: Adobe Illustrator 15.1.0, SVG Export Plug-In  -->
<!DOCTYPE svg PUBLIC "-//W3C//DTD SVG 1.1//EN" "http://www.w3.org/Graphics/SVG/1.1/DTD/svg11.dtd" [
	<!ENTITY ns_flows "http://ns.adobe.com/Flows/1.0/">
]>
<svg version="1.1"
	 xmlns="http://www.w3.org/2000/svg" xmlns:xlink="http://www.w3.org/1999/xlink" xmlns:a="http://ns.adobe.com/AdobeSVGViewerExtensions/3.0/"
	 x="0px" y="0px" width="38px" height="40px" viewBox="-3.2 -0.2 38 40" enable-background="new -3.2 -0.2 38 40"
	 xml:space="preserve">
<defs>
</defs>
<path fill="#19499A" d="M31.5,20.6l-2.5-7C26.7,6.9,23.1,0,14.3,0C6.4,0,0,6.5,0,14.5c0,4.4,1.9,8.5,5.3,11.2l2.1,11.8
	c0,0.2,0.2,0.4,0.4,0.5c0.1,0.1,3.1,1.6,6.4,1.6c3.3,0,6.3-1.6,6.4-1.6c0.2-0.1,0.3-0.3,0.3-0.5L23,25.9c0-0.1,0-0.2,0-0.2
	c1.2-1.1,2.3-2.5,3.2-4.1h4.7c0.2,0,0.4-0.1,0.6-0.3C31.6,21,31.6,20.8,31.5,20.6z M25.8,20.1c-0.3,0-0.5,0.1-0.6,0.4
	c-2.2,4.3-5.8,6.8-10.1,7v-3.1v-3.6v-2.5l2.8-4.9c0.1-0.2,0.1-0.5,0-0.7c-0.1-0.2-0.3-0.3-0.6-0.3h-5.8c-0.2,0-0.5,0.1-0.6,0.3
	c-0.1,0.2-0.1,0.5,0,0.7l2.8,4.9v2.5v3.6v3.8c0,0.4,0.3,0.7,0.7,0.7c2.6,0,5-0.7,7.1-2.1l-1.1,6.3c-1.7,0.8-3.5,1.2-5.5,1.2
	c-1.2,0-2.4-0.2-3.5-0.5c-0.4-0.1-0.7,0.1-0.8,0.5s0.1,0.7,0.5,0.8c1.3,0.4,2.6,0.5,3.9,0.5c1.8,0,3.5-0.3,5.2-1L19.6,37
	c-0.8,0.4-3,1.3-5.5,1.3c-2.4,0-4.7-1-5.5-1.3l-1.1-6.4c2.1,1.1,4.4,1.7,6.8,1.7c1.3,0,2.6-0.2,3.9-0.5c0.4-0.1,0.6-0.5,0.5-0.8
	c-0.1-0.4-0.5-0.6-0.8-0.5c-1.1,0.3-2.3,0.5-3.5,0.5c-2.5,0-5-0.7-7.1-2.1l-0.6-3.6c0-0.2-0.1-0.3-0.3-0.4c-3.2-2.5-5-6.3-5-10.3
	c0-7.2,5.8-13.1,13-13.1c7.9,0,11.1,6.1,13.4,12.7l2.2,6.1H25.8z M14.3,16.8l-1.7-3H16L14.3,16.8z"/>
<path fill="#19499A" d="M9.5,17.3C9.3,17,8.9,16.8,8.6,17l-3.1,1.8c-0.3,0.2-0.4,0.6-0.2,0.9c0.1,0.2,0.4,0.3,0.6,0.3
	c0.1,0,0.2,0,0.3-0.1l3.1-1.8C9.6,18,9.7,17.6,9.5,17.3z"/>
<path fill="#19499A" d="M23.2,18.9L20.1,17c-0.3-0.2-0.7-0.1-0.9,0.3c-0.2,0.3-0.1,0.8,0.3,0.9l3.1,1.8c0.1,0.1,0.2,0.1,0.3,0.1
	c0.2,0,0.5-0.1,0.6-0.3C23.7,19.5,23.6,19.1,23.2,18.9z"/>
<path fill="#19499A" d="M23.5,13.8h-2.9c-0.4,0-0.7,0.3-0.7,0.7c0,0.4,0.3,0.7,0.7,0.7h2.9c0.4,0,0.7-0.3,0.7-0.7
	C24.2,14.1,23.9,13.8,23.5,13.8z"/>
<path fill="#19499A" d="M18.1,9.3l1.5-2.6c0.2-0.3,0.1-0.8-0.3-0.9c-0.3-0.2-0.7-0.1-0.9,0.3l-1.5,2.6c-0.2,0.3-0.1,0.8,0.3,0.9
	c0.1,0.1,0.2,0.1,0.3,0.1C17.7,9.7,17.9,9.5,18.1,9.3z"/>
<path fill="#19499A" d="M10.3,6.1c-0.2-0.3-0.6-0.4-0.9-0.3C9.1,6,8.9,6.4,9.1,6.8l1.5,2.6c0.1,0.2,0.4,0.3,0.6,0.3
	c0.1,0,0.2,0,0.3-0.1C11.9,9.4,12,9,11.8,8.6L10.3,6.1z"/>
<path fill="#19499A" d="M8.1,15.2c0.4,0,0.7-0.3,0.7-0.7c0-0.4-0.3-0.7-0.7-0.7H5.1c-0.4,0-0.7,0.3-0.7,0.7c0,0.4,0.3,0.7,0.7,0.7
	H8.1z"/>
<path fill="#19499A" d="M9.1,22.2c-0.2,0.3-0.1,0.8,0.2,0.9c0.1,0.1,0.2,0.1,0.3,0.1c0.2,0,0.5-0.1,0.6-0.3l1.5-2.6
	c0.2-0.3,0.1-0.8-0.3-0.9c-0.3-0.2-0.7-0.1-0.9,0.3L9.1,22.2z"/>
<path fill="#19499A" d="M18.1,19.6c-0.2-0.3-0.6-0.4-0.9-0.3c-0.3,0.2-0.4,0.6-0.3,0.9l1.5,2.6c0.1,0.2,0.4,0.3,0.6,0.3
	c0.1,0,0.2,0,0.3-0.1c0.3-0.2,0.4-0.6,0.3-0.9L18.1,19.6z"/>
<path fill="#19499A" d="M19.2,11.6c0.1,0.2,0.4,0.3,0.6,0.3c0.1,0,0.2,0,0.3-0.1l3.1-1.8c0.3-0.2,0.4-0.6,0.3-0.9
	c-0.2-0.3-0.6-0.4-0.9-0.3l-3.1,1.8C19.1,10.9,19,11.3,19.2,11.6z"/>
<path fill="#19499A" d="M14.3,3.8c-0.4,0-0.7,0.3-0.7,0.7v3.6c0,0.4,0.3,0.7,0.7,0.7c0.4,0,0.7-0.3,0.7-0.7V4.5
	C15,4.1,14.7,3.8,14.3,3.8z"/>
<path fill="#19499A" d="M5.4,10.1l3.1,1.8C8.7,12,8.8,12,8.9,12c0.2,0,0.5-0.1,0.6-0.3c0.2-0.3,0.1-0.8-0.3-0.9L6.1,8.9
	C5.8,8.7,5.4,8.8,5.2,9.1C5,9.5,5.1,9.9,5.4,10.1z"/>
</svg>
