<?xml version="1.0" encoding="utf-8"?>
<!-- Generator: Adobe Illustrator 15.1.0, SVG Export Plug-In  -->
<!DOCTYPE svg PUBLIC "-//W3C//DTD SVG 1.1//EN" "http://www.w3.org/Graphics/SVG/1.1/DTD/svg11.dtd" [
	<!ENTITY ns_flows "http://ns.adobe.com/Flows/1.0/">
]>
<svg version="1.1"
	 xmlns="http://www.w3.org/2000/svg" xmlns:xlink="http://www.w3.org/1999/xlink" xmlns:a="http://ns.adobe.com/AdobeSVGViewerExtensions/3.0/"
	 x="0px" y="0px" width="43px" height="40px" viewBox="-0.8 -0.5 43 40" enable-background="new -0.8 -0.5 43 40"
	 xml:space="preserve">
<defs>
</defs>
<path fill="#19499A" d="M39.3,0H26.7c-1.2,0-2.2,1-2.2,2.2V5h-1.6c-1.4,0-2.6,0.8-3.2,2.1c-0.6,1.4-0.2,2.9,1,4.2
	c0.4,0.4,1,0.6,1.5,0.6h2.2v2.8c0,1.2,1,2.2,2.2,2.2h2.5c1.2,0,2.2-1,2.2-2.2v-1.9c0-0.1,0-0.2,0.1-0.2c0.7-0.7,1.4-0.9,2.1-0.6
	c0.6,0.3,1,0.8,1,1.5v1.3c0,1.2,1,2.2,2.2,2.2h2.5c1.2,0,2.2-1,2.2-2.2V2.2C41.5,1,40.5,0,39.3,0z M39.6,14.8c0,0.2-0.1,0.3-0.3,0.3
	h-2.5c-0.2,0-0.3-0.1-0.3-0.3v-1.3c0-1.4-0.8-2.6-2.1-3.2c-0.4-0.2-0.9-0.3-1.3-0.3c-1,0-2,0.4-2.8,1.2c-0.4,0.4-0.6,1-0.6,1.6v1.9
	c0,0.2-0.1,0.3-0.3,0.3h-2.5c-0.2,0-0.3-0.1-0.3-0.3V11c0-0.5-0.4-0.9-0.9-0.9h-3.2c-0.1,0-0.2,0-0.2-0.1c-0.7-0.7-0.9-1.4-0.6-2.1
	c0.3-0.6,0.8-1,1.4-1h2.5c0.5,0,0.9-0.4,0.9-0.9V2.2c0-0.2,0.1-0.3,0.3-0.3h12.6c0.2,0,0.3,0.1,0.3,0.3V14.8z"/>
<path fill="#19499A" d="M29.8,22H27v-1.6c0-1.4-0.8-2.6-2.1-3.2c-1.4-0.6-2.9-0.2-4.2,1c-0.4,0.4-0.6,1-0.6,1.5V22h-2.8
	c-0.1,0-0.2,0-0.3,0c0-0.1,0-0.2,0-0.3v-2.5c0-1.2-1-2.2-2.2-2.2h-1.9c-0.1,0-0.2,0-0.2-0.1c-0.7-0.7-0.9-1.4-0.6-2.1
	c0.3-0.6,0.8-1,1.4-1h1.3c1.2,0,2.2-1,2.2-2.2V9.1c0-1.2-1-2.2-2.2-2.2H2.2C1,6.9,0,7.9,0,9.1v12.6c0,0.5,0.2,0.9,0.4,1.3
	C0.2,23.3,0,23.7,0,24.2v12.6c0,1.2,1,2.2,2.2,2.2h12.6c0.5,0,0.9-0.2,1.3-0.4c0.4,0.3,0.8,0.4,1.3,0.4h12.6c1.2,0,2.2-1,2.2-2.2
	V24.2C32,23,31.1,22,29.8,22z M1.9,9.1c0-0.2,0.1-0.3,0.3-0.3h12.6c0.2,0,0.3,0.1,0.3,0.3v2.5c0,0.2-0.1,0.3-0.3,0.3h-1.3
	c-1.4,0-2.6,0.8-3.2,2.1c-0.6,1.4-0.2,2.9,1,4.2c0.4,0.4,1,0.6,1.5,0.6h1.9c0.2,0,0.3,0.1,0.3,0.3v2.5c0,0.2-0.1,0.3-0.3,0.3H11
	c-0.5,0-0.9,0.4-0.9,0.9v3.2c0,0.1,0,0.2-0.1,0.2c-0.7,0.7-1.4,0.9-2.1,0.6c-0.6-0.2-1-0.8-1-1.4v-2.5C6.9,22.4,6.5,22,6,22H2.2
	c-0.2,0-0.3-0.1-0.3-0.3V9.1z M15.1,33v3.8c0,0.2-0.1,0.3-0.3,0.3H2.2c-0.2,0-0.3-0.1-0.3-0.3V24.2c0-0.2,0.1-0.3,0.3-0.3h2.5
	C4.9,23.9,5,24,5,24.2v1.3c0,1.4,0.8,2.6,2.1,3.2c0.2,0.1,0.4,0.2,0.6,0.2l0.2,0c0.2,0,0.3,0,0.4,0h0.2c0.2,0,0.4,0,0.7-0.1
	c0.2,0,0.4-0.1,0.7-0.2L9.7,28l0,0l0.4,0.5c0.2-0.1,0.3-0.2,0.5-0.3l0.2-0.1c0.2-0.1,0.4-0.3,0.6-0.5c0.4-0.4,0.6-1,0.6-1.6v-1.9
	c0-0.2,0.1-0.3,0.3-0.3h2.5c0.2,0,0.3,0.1,0.3,0.3v3.8c0,0.5,0.4,0.9,0.9,0.9h3.2c0.1,0,0.2,0,0.2,0.1c0.7,0.7,0.9,1.4,0.6,2.1
	c-0.3,0.6-0.8,1-1.4,1H16C15.5,32,15.1,32.4,15.1,33z M30.2,36.7c0,0.2-0.1,0.3-0.3,0.3H17.3c-0.2,0-0.3-0.1-0.3-0.3v-2.5
	c0-0.2,0.1-0.3,0.3-0.3h1.3c1.4,0,2.6-0.8,3.2-2.1c0.6-1.4,0.2-2.9-1-4.2c-0.4-0.4-1-0.6-1.5-0.6h-1.9c-0.2,0-0.3-0.1-0.3-0.3v-2.5
	c0-0.2,0.1-0.3,0.3-0.3h3.8c0.5,0,0.9-0.4,0.9-0.9v-3.2c0-0.1,0-0.2,0.1-0.2c0.7-0.7,1.4-0.9,2.1-0.6c0.6,0.3,1,0.8,1,1.4v2.5
	c0,0.5,0.4,0.9,0.9,0.9h3.8c0.2,0,0.3,0.1,0.3,0.3L30.2,36.7L30.2,36.7z"/>
</svg>
