<?xml version="1.0" encoding="utf-8"?>
<!-- Generator: Adobe Illustrator 15.1.0, SVG Export Plug-In  -->
<!DOCTYPE svg PUBLIC "-//W3C//DTD SVG 1.1//EN" "http://www.w3.org/Graphics/SVG/1.1/DTD/svg11.dtd" [
	<!ENTITY ns_flows "http://ns.adobe.com/Flows/1.0/">
]>
<svg version="1.1"
	 xmlns="http://www.w3.org/2000/svg" xmlns:xlink="http://www.w3.org/1999/xlink" xmlns:a="http://ns.adobe.com/AdobeSVGViewerExtensions/3.0/"
	 x="0px" y="0px" width="124px" height="28px" viewBox="0 0 124 28" enable-background="new 0 0 124 28" xml:space="preserve">
<defs>
</defs>
<path fill="#002F65" d="M123.768,9.191l-0.358,4.3h-1.756c-2.804,0-4.262,2.247-4.262,4.401v9.712h-4.969V9.191h4.706l0.107,2.298
	c0.987-1.576,2.716-2.298,4.847-2.298H123.768z"/>
<path fill="#002F65" d="M89.316,27.604h-4.974V17.87c0-2.039-0.176-4.604-3.043-4.604c-2.761,0-3.861,1.993-3.861,4.313v10.025
	h-4.972V9.191h4.61l0.105,2.354c0.989-1.575,2.829-2.803,5.543-2.803c5.011,0,6.593,3.577,6.593,7.301V27.604z"/>
<path fill="#002F65" d="M70.297,23.303l-0.348,4.189c-1.193,0.32-2.252,0.435-3.533,0.435c-4.687,0-6.045-2.148-6.045-6.468V3.999
	h4.973v5.192h4.948l-0.343,4.3h-4.605v7.595c0,1.732,0.475,2.669,2.253,2.669C68.371,23.755,69.23,23.662,70.297,23.303z"/>
<path fill="#002F65" d="M58.739,9.191l-0.385,4.3h-1.351c-2.798,0-4.19,2.244-4.19,4.401v9.712h-4.974V9.191h4.709l0.098,2.298
	c0.993-1.576,2.721-2.298,4.855-2.298H58.739z"/>
<path fill="#002F65" d="M25.396,25.564c-3.374,1.804-6.743,2.846-11.193,2.716C5.952,28.028,0,22.905,0,14.252
	C0,5.637,6.01,0.132,14.207,0.003c4.155-0.063,7.873,0.99,10.779,3.555L21.485,7.1c-1.798-1.533-4.444-2.43-7.606-2.286
	c-5.159,0.24-8.267,3.989-8.335,9.144c-0.067,5.584,3.357,9.433,8.71,9.573c2.519,0.063,4.324-0.275,5.885-0.977v-5.708h-5.564
	l0.375-4.682h10.446V25.564z"/>
<path fill="#002F65" d="M110.202,20.147H96.567c0.389,2.353,2.238,3.769,4.542,3.832c2.239,0.061,3.492-0.615,5.13-2.274
	l3.245,2.475c-2.307,2.841-5.074,3.874-8.227,3.874c-5.545,0-9.699-3.876-9.699-9.656c0-5.774,4.134-9.655,9.492-9.655
	c5.906,0,9.152,3.577,9.152,9.928V20.147z M105.22,16.298c-0.152-2.326-1.896-3.797-4.296-3.703
	c-2.416,0.091-4.023,1.665-4.357,3.703H105.22z"/>
<path fill="#002F65" d="M44.708,15.547v12.058h-4.385l-0.109-1.816c-1.345,1.667-3.529,2.266-5.777,2.266
	c-3.386,0-6.585-1.669-6.652-5.558c-0.101-6.112,6.879-6.547,11.262-6.547h0.876v-0.241c0-2.021-1.337-3.113-3.856-3.113
	c-1.808,0-3.592,0.725-4.912,1.962l-2.869-2.914c2.605-2.112,5.316-2.9,8.203-2.9C42.193,8.742,44.708,11.378,44.708,15.547z
	 M39.923,19.574h-0.691c-2.354,0.005-6.49,0.121-6.474,2.583c0.022,3.468,7.166,2.366,7.166-1.816V19.574z"/>
<path fill="#002F65" d="M119.888,25.462c0-1.172,0.885-2.055,2.019-2.055c1.12,0,2.006,0.883,2.006,2.055
	c0,1.192-0.886,2.073-2.006,2.073C120.772,27.535,119.888,26.654,119.888,25.462z M121.906,27.947c1.351,0,2.502-1.049,2.502-2.485
	c0-1.422-1.151-2.468-2.502-2.468c-1.362,0-2.516,1.046-2.516,2.468C119.391,26.898,120.544,27.947,121.906,27.947z M121.382,25.66
	h0.499l0.752,1.238h0.485l-0.812-1.258c0.42-0.052,0.74-0.276,0.74-0.788c0-0.563-0.334-0.813-1.01-0.813h-1.086v2.858h0.431V25.66z
	 M121.382,25.292v-0.883h0.589c0.303,0,0.623,0.065,0.623,0.419c0,0.438-0.327,0.464-0.693,0.464H121.382z"/>
</svg>
