<?xml version="1.0" encoding="utf-8"?>
<!-- Generator: Adobe Illustrator 15.1.0, SVG Export Plug-In  -->
<!DOCTYPE svg PUBLIC "-//W3C//DTD SVG 1.1//EN" "http://www.w3.org/Graphics/SVG/1.1/DTD/svg11.dtd" [
	<!ENTITY ns_flows "http://ns.adobe.com/Flows/1.0/">
]>
<svg version="1.1"
	 xmlns="http://www.w3.org/2000/svg" xmlns:xlink="http://www.w3.org/1999/xlink" xmlns:a="http://ns.adobe.com/AdobeSVGViewerExtensions/3.0/"
	 x="0px" y="0px" width="57px" height="65px" viewBox="0 0 57 65" enable-background="new 0 0 57 65" xml:space="preserve">
<defs>
</defs>
<path fill="#1F5F8C" d="M39.009,65.298c-0.391,0-0.652-0.244-0.767-0.474L29.98,48.301l-0.72,0.025
	c-0.329,0.011-0.598,0.017-0.849,0.017s-0.52-0.006-0.849-0.017l-0.72-0.025L18.58,64.824c-0.115,0.229-0.376,0.474-0.767,0.474
	c-0.268,0-0.524-0.128-0.686-0.343l-6.101-8.135H0.858c-0.299,0-0.572-0.152-0.729-0.407c-0.157-0.254-0.171-0.565-0.037-0.833
	L8.76,38.244l-0.369-0.543c-2.716-4.006-4.151-8.684-4.151-13.53C4.24,10.843,15.083,0,28.411,0s24.171,10.843,24.171,24.171
	c0,4.846-1.436,9.523-4.151,13.528l-0.369,0.544L56.73,55.58c0.134,0.268,0.12,0.579-0.037,0.833
	c-0.155,0.252-0.435,0.407-0.729,0.407H45.795l-6.102,8.135C39.533,65.17,39.277,65.298,39.009,65.298z M45.815,40.926
	c-3.422,3.554-7.767,5.95-12.563,6.93l-1.433,0.292l7.335,14.67l5.526-7.368c0.161-0.215,0.417-0.343,0.686-0.343h1.122l0,0h8.089
	l-7.661-15.324L45.815,40.926z M2.244,55.106h9.211c0.268,0,0.524,0.128,0.686,0.343l5.527,7.368l7.334-14.67l-1.433-0.292
	c-4.794-0.979-9.138-3.375-12.561-6.929l-1.102-1.144L2.244,55.106z M28.411,1.714c-12.383,0-22.458,10.074-22.458,22.457
	c0,12.384,10.074,22.458,22.458,22.458s22.458-10.074,22.458-22.458C50.869,11.788,40.794,1.714,28.411,1.714z"/>
<path fill="#1F5F8C" d="M37.131,37.03c-0.11,0-0.218-0.021-0.32-0.062l-8.4-3.386l-8.4,3.385c-0.025,0.011-0.164,0.063-0.337,0.063
	c-0.176,0-0.335-0.054-0.487-0.163c-0.24-0.175-0.372-0.456-0.351-0.753l0.626-9.034l-5.816-6.943
	c-0.191-0.228-0.25-0.532-0.158-0.816c0.092-0.281,0.319-0.493,0.607-0.564l8.786-2.198l4.805-7.678
	c0.158-0.252,0.429-0.402,0.727-0.402s0.568,0.15,0.726,0.402l4.806,7.678l8.786,2.198c0.289,0.071,0.515,0.283,0.607,0.566
	c0.092,0.282,0.033,0.587-0.158,0.814l-5.817,6.942l0.625,9.035c0.02,0.297-0.111,0.578-0.352,0.753
	C37.488,36.975,37.313,37.03,37.131,37.03z M24.149,17.76c-0.118,0.189-0.302,0.323-0.518,0.377l-7.793,1.949l5.159,6.157
	c0.143,0.171,0.213,0.388,0.198,0.611l-0.555,8.013l7.451-3.004c0.059-0.023,0.177-0.063,0.325-0.063
	c0.108,0,0.211,0.021,0.315,0.063l7.451,3.004l-0.554-8.015c-0.016-0.222,0.055-0.438,0.198-0.609l5.16-6.157l-7.793-1.949
	c-0.216-0.054-0.4-0.188-0.519-0.377l-4.263-6.81L24.149,17.76z"/>
</svg>
