<?xml version="1.0" encoding="utf-8"?>
<!-- Generator: Adobe Illustrator 15.1.0, SVG Export Plug-In  -->
<!DOCTYPE svg PUBLIC "-//W3C//DTD SVG 1.1//EN" "http://www.w3.org/Graphics/SVG/1.1/DTD/svg11.dtd" [
	<!ENTITY ns_flows "http://ns.adobe.com/Flows/1.0/">
]>
<svg version="1.1"
	 xmlns="http://www.w3.org/2000/svg" xmlns:xlink="http://www.w3.org/1999/xlink" xmlns:a="http://ns.adobe.com/AdobeSVGViewerExtensions/3.0/"
	 x="0px" y="0px" width="78px" height="78px" viewBox="0 0 78 78" enable-background="new 0 0 78 78" xml:space="preserve">
<defs>
</defs>
<path fill="#1F5F8C" d="M38.885,27.179c-4.028,0-7.305-3.276-7.305-7.305s3.277-7.305,7.305-7.305s7.305,3.276,7.305,7.305
	S42.913,27.179,38.885,27.179z M38.885,14.61c-2.902,0-5.264,2.361-5.264,5.264s2.361,5.264,5.264,5.264
	c2.903,0,5.264-2.361,5.264-5.264S41.788,14.61,38.885,14.61z"/>
<path fill="#1F5F8C" d="M72.036,77.77c-3.162,0-5.734-2.572-5.734-5.734c0-2.422,1.537-4.594,3.824-5.405l0.889-0.315V52.632h-9.833
	l-0.315,0.889c-0.811,2.287-2.984,3.824-5.406,3.824s-4.594-1.537-5.405-3.824l-0.315-0.889h-9.834v13.683l0.89,0.315
	c2.287,0.812,3.824,2.983,3.824,5.405c0,3.162-2.572,5.734-5.734,5.734s-5.734-2.572-5.734-5.734c0-2.422,1.537-4.594,3.824-5.405
	l0.89-0.315V52.632H28.03l-0.315,0.889c-0.811,2.287-2.983,3.824-5.405,3.824c-2.422,0-4.595-1.537-5.406-3.824l-0.315-0.889H6.755
	v13.683l0.889,0.315c2.287,0.812,3.824,2.983,3.824,5.405c0,3.162-2.572,5.734-5.734,5.734C2.572,77.77,0,75.197,0,72.035
	c0-2.422,1.537-4.594,3.824-5.405l0.89-0.315V51.61c0-0.563,0.458-1.021,1.021-1.021h10.855l0.315-0.889
	c0.811-2.288,2.983-3.824,5.405-3.824s4.594,1.536,5.405,3.824l0.316,0.889h9.833V39.748h-3.693c-0.563,0-1.021-0.458-1.021-1.021
	v-3.956l-0.789-0.354c-0.983-0.441-1.926-0.988-2.803-1.624l-0.702-0.509l-3.434,1.982c-0.158,0.091-0.329,0.138-0.508,0.138
	c-0.365,0-0.704-0.196-0.886-0.511l-4.713-8.164c-0.137-0.236-0.173-0.512-0.102-0.774c0.069-0.26,0.243-0.485,0.476-0.62
	l3.418-1.974l-0.087-0.86c-0.055-0.537-0.083-1.085-0.083-1.627c0-0.541,0.028-1.089,0.083-1.627l0.087-0.86l-3.418-1.974
	c-0.236-0.137-0.405-0.356-0.476-0.62c-0.069-0.259-0.032-0.541,0.102-0.774l4.713-8.163c0.182-0.315,0.521-0.511,0.886-0.511
	c0.179,0,0.35,0.046,0.508,0.137l3.434,1.982l0.702-0.509c0.877-0.636,1.82-1.183,2.803-1.624l0.789-0.354V1.021
	C33.151,0.458,33.608,0,34.171,0h9.427c0.563,0,1.021,0.458,1.021,1.021v3.956l0.789,0.354c0.982,0.441,1.925,0.987,2.802,1.624
	l0.702,0.509l3.434-1.982c0.158-0.091,0.329-0.137,0.508-0.137c0.365,0,0.704,0.195,0.886,0.511l4.713,8.163
	c0.134,0.233,0.171,0.516,0.102,0.774c-0.071,0.264-0.24,0.483-0.476,0.62l-3.419,1.974l0.088,0.86
	c0.055,0.538,0.083,1.086,0.083,1.627s-0.028,1.089-0.083,1.627l-0.088,0.86l3.419,1.974c0.236,0.137,0.405,0.356,0.476,0.62
	c0.07,0.263,0.034,0.538-0.102,0.774l-4.713,8.163c-0.182,0.315-0.521,0.511-0.886,0.511c-0.18,0-0.351-0.046-0.508-0.137
	l-3.434-1.982l-0.702,0.509c-0.877,0.637-1.82,1.183-2.802,1.624l-0.789,0.354v3.956c0,0.563-0.458,1.021-1.021,1.021h-3.693V50.59
	h9.834l0.315-0.889c0.811-2.288,2.983-3.824,5.405-3.824s4.595,1.536,5.406,3.824l0.315,0.889h10.854
	c0.563,0,1.021,0.458,1.021,1.021v14.704l0.89,0.315c2.287,0.812,3.824,2.983,3.824,5.405C77.77,75.197,75.197,77.77,72.036,77.77z
	 M72.036,68.343c-2.037,0-3.693,1.656-3.693,3.692s1.656,3.693,3.693,3.693c2.036,0,3.692-1.657,3.692-3.693
	S74.072,68.343,72.036,68.343z M38.885,68.343c-2.036,0-3.693,1.656-3.693,3.692s1.657,3.693,3.693,3.693s3.693-1.657,3.693-3.693
	S40.921,68.343,38.885,68.343z M5.734,68.343c-2.036,0-3.692,1.656-3.692,3.692s1.656,3.693,3.692,3.693s3.693-1.657,3.693-3.693
	S7.77,68.343,5.734,68.343z M55.46,47.918c-2.036,0-3.692,1.657-3.692,3.692c0,2.037,1.656,3.693,3.692,3.693
	s3.693-1.656,3.693-3.693C59.153,49.575,57.496,47.918,55.46,47.918z M22.31,47.918c-2.036,0-3.693,1.657-3.693,3.692
	c0,2.037,1.657,3.693,3.693,3.693s3.692-1.656,3.692-3.693C26.002,49.575,24.346,47.918,22.31,47.918z M28.991,30.008
	c0.25,0,0.491,0.092,0.677,0.257c1.421,1.262,3.045,2.202,4.825,2.795c0.418,0.14,0.698,0.528,0.698,0.969v3.679h7.386v-3.679
	c0-0.44,0.281-0.83,0.698-0.969c1.78-0.593,3.404-1.533,4.825-2.795c0.187-0.165,0.427-0.257,0.678-0.257
	c0.179,0,0.355,0.048,0.51,0.137l3.193,1.844l3.693-6.396l-3.177-1.834c-0.381-0.221-0.578-0.657-0.49-1.089
	c0.187-0.914,0.282-1.855,0.282-2.796c0-0.941-0.095-1.882-0.282-2.797c-0.088-0.431,0.109-0.867,0.49-1.088l3.177-1.834
	L52.482,7.76l-3.193,1.844c-0.155,0.089-0.332,0.137-0.51,0.137c-0.25,0-0.491-0.092-0.678-0.258
	c-1.422-1.261-3.045-2.201-4.825-2.794c-0.418-0.14-0.698-0.528-0.698-0.969V2.041h-7.386V5.72c0,0.44-0.28,0.83-0.698,0.969
	c-1.78,0.593-3.404,1.533-4.825,2.794c-0.187,0.166-0.428,0.258-0.678,0.258c-0.178,0-0.354-0.048-0.51-0.137L25.288,7.76
	l-3.693,6.396l3.177,1.834c0.381,0.221,0.578,0.657,0.49,1.089c-0.187,0.914-0.282,1.855-0.282,2.796s0.095,1.881,0.282,2.796
	c0.088,0.432-0.109,0.868-0.49,1.089l-3.177,1.834l3.692,6.396l3.194-1.844C28.636,30.056,28.813,30.008,28.991,30.008z"/>
</svg>
