<?xml version="1.0" encoding="utf-8"?>
<!-- Generator: Adobe Illustrator 15.1.0, SVG Export Plug-In  -->
<!DOCTYPE svg PUBLIC "-//W3C//DTD SVG 1.1//EN" "http://www.w3.org/Graphics/SVG/1.1/DTD/svg11.dtd" [
	<!ENTITY ns_flows "http://ns.adobe.com/Flows/1.0/">
]>
<svg version="1.1"
	 xmlns="http://www.w3.org/2000/svg" xmlns:xlink="http://www.w3.org/1999/xlink" xmlns:a="http://ns.adobe.com/AdobeSVGViewerExtensions/3.0/"
	 x="0px" y="0px" width="67px" height="73px" viewBox="0 0 67 73" enable-background="new 0 0 67 73" xml:space="preserve">
<defs>
</defs>
<path fill="#1F5F8C" d="M41.15,47.307c-1.351,0-2.45-1.099-2.45-2.449V43.47l-0.603-0.171c-1.507-0.428-2.969-1.033-4.344-1.801
	l-0.547-0.306l-0.982,0.982c-0.46,0.464-1.075,0.718-1.731,0.718c-0.657,0-1.272-0.255-1.732-0.719l-3.593-3.593
	c-0.46-0.461-0.714-1.075-0.714-1.731c0-0.655,0.253-1.271,0.714-1.73l0.983-0.983l-0.306-0.547c-0.767-1.374-1.372-2.834-1.8-4.34
	l-0.171-0.603h-1.389c-1.351,0-2.449-1.099-2.449-2.449V21.11c0-1.351,1.099-2.45,2.449-2.45h1.389l0.171-0.603
	c0.428-1.506,1.033-2.966,1.8-4.34l0.306-0.547l-0.982-0.982c-0.461-0.461-0.714-1.076-0.714-1.731c0-0.656,0.253-1.271,0.714-1.731
	l3.594-3.594c0.46-0.463,1.074-0.718,1.731-0.718s1.271,0.256,1.732,0.719l0.981,0.981l0.547-0.306
	c1.374-0.767,2.836-1.373,4.345-1.803l0.602-0.172V2.449C38.701,1.099,39.8,0,41.15,0h5.083c0.653,0,1.268,0.255,1.731,0.719
	c0.463,0.463,0.718,1.077,0.718,1.73v1.385l0.602,0.172c1.509,0.43,2.97,1.036,4.341,1.802l0.547,0.306l0.982-0.981
	c0.46-0.464,1.074-0.718,1.731-0.718c0.656,0,1.271,0.255,1.732,0.719l3.597,3.593c0.46,0.46,0.714,1.075,0.714,1.731
	s-0.253,1.271-0.714,1.73l-0.982,0.983l0.305,0.547c0.764,1.37,1.369,2.83,1.799,4.341l0.171,0.602h1.385
	c0.653,0,1.268,0.256,1.731,0.719c0.463,0.464,0.718,1.078,0.718,1.73v5.088c0,1.351-1.099,2.449-2.449,2.449h-1.385l-0.172,0.602
	c-0.43,1.511-1.036,2.972-1.799,4.341l-0.305,0.547l0.982,0.983c0.46,0.46,0.714,1.075,0.714,1.73c0,0.656-0.254,1.271-0.714,1.731
	l-3.599,3.595c-0.46,0.463-1.074,0.717-1.731,0.717c-0.656,0-1.271-0.255-1.732-0.719l-0.981-0.98l-0.547,0.306
	c-1.372,0.767-2.833,1.372-4.34,1.8l-0.603,0.171v1.388c0,1.351-1.099,2.449-2.449,2.449H41.15z M37.583,13.741
	c-0.121,0.071-0.247,0.151-0.375,0.238c-2.984,2.04-4.765,5.395-4.765,8.976c0,4.517,2.858,8.612,7.111,10.189
	c0.247,0.092,0.413,0.33,0.413,0.594v11.119c0,0.652,0.531,1.183,1.183,1.183h5.083c0.652,0,1.183-0.53,1.183-1.183V33.738
	c0-0.264,0.166-0.502,0.413-0.594c4.251-1.578,7.107-5.673,7.107-10.189c0-3.581-1.781-6.937-4.765-8.976
	c-0.127-0.087-0.252-0.168-0.372-0.238l-1.292-0.766l0.04,1.5c0.005,0.208,0.02,0.399,0.027,0.503
	c0.01,0.14,0.018,0.237,0.018,0.323v6.902c0,2.733-2.133,5.016-4.857,5.197c-0.013,0-0.027,0.001-0.042,0.001
	c-0.014,0-0.028-0.001-0.042-0.001c-2.726-0.182-4.861-2.464-4.861-5.197v-6.902c0-0.084,0.007-0.18,0.017-0.313
	c0.007-0.094,0.022-0.297,0.028-0.512l0.042-1.502L37.583,13.741z M33.121,39.751c0.12,0,0.236,0.034,0.338,0.098
	c1.295,0.819,2.692,1.481,4.15,1.969l1.092,0.365v-8l-0.479-0.223c-4.28-1.99-7.045-6.311-7.045-11.005
	c0-3.999,1.988-7.746,5.317-10.021c0.331-0.226,1.21-0.826,2.042-0.826c0.27,0,0.507,0.063,0.729,0.189
	c0.855,0.493,0.887,1.681,0.805,2.778l-0.003,0.048c-0.005,0.065-0.009,0.121-0.01,0.165v6.916c0,2.039,1.529,3.725,3.556,3.923
	l0.081,0.008l0.081-0.008c2.025-0.198,3.552-1.884,3.552-3.923v-6.918l0-0.017c-0.001-0.029-0.004-0.075-0.009-0.132l-0.004-0.061
	c-0.081-1.1-0.048-2.288,0.807-2.78c0.221-0.127,0.459-0.189,0.728-0.189c0.832,0,1.71,0.601,2.04,0.826
	c3.33,2.275,5.317,6.022,5.317,10.021c0,4.695-2.764,9.015-7.041,11.005l-0.479,0.224v8l1.092-0.365
	c1.459-0.488,2.854-1.15,4.146-1.969c0.101-0.064,0.218-0.098,0.338-0.098c0.169,0,0.329,0.065,0.449,0.186l1.343,1.343
	c0.221,0.223,0.519,0.347,0.835,0.347c0.316,0,0.613-0.123,0.833-0.345l3.601-3.597c0.221-0.22,0.343-0.517,0.343-0.835
	c0-0.317-0.122-0.614-0.344-0.836l-1.343-1.343c-0.211-0.211-0.247-0.534-0.087-0.786c1.169-1.85,2.008-3.872,2.492-6.012
	c0.066-0.291,0.32-0.493,0.618-0.493h1.895c0.641,0,1.183-0.542,1.183-1.183l0-5.087c0-0.652-0.531-1.183-1.183-1.183h-1.895
	c-0.298,0-0.552-0.203-0.618-0.493c-0.484-2.139-1.323-4.162-2.492-6.013c-0.16-0.252-0.124-0.575,0.087-0.786l1.343-1.344
	c0.221-0.221,0.343-0.518,0.343-0.835s-0.122-0.614-0.343-0.835l-3.598-3.595c-0.222-0.223-0.52-0.347-0.836-0.347
	c-0.316,0-0.612,0.123-0.833,0.345l-1.345,1.346c-0.12,0.119-0.279,0.185-0.448,0.185c-0.12,0-0.237-0.033-0.339-0.098
	c-1.852-1.174-3.875-2.014-6.011-2.496c-0.291-0.066-0.494-0.32-0.494-0.618V2.449c0-0.652-0.53-1.183-1.182-1.183H41.15
	c-0.652,0-1.182,0.53-1.182,1.183v1.895c0,0.298-0.203,0.552-0.494,0.618c-2.134,0.481-4.158,1.321-6.016,2.496
	c-0.102,0.063-0.218,0.098-0.338,0.098c-0.169,0-0.329-0.066-0.449-0.186l-1.343-1.344c-0.221-0.223-0.519-0.346-0.835-0.346
	c-0.316,0-0.613,0.122-0.833,0.345l-3.596,3.596c-0.221,0.222-0.343,0.519-0.343,0.836s0.122,0.614,0.343,0.835l1.343,1.344
	c0.211,0.211,0.247,0.534,0.087,0.786c-1.175,1.859-2.014,3.882-2.492,6.011c-0.065,0.291-0.319,0.494-0.618,0.494h-1.898
	c-0.652,0-1.183,0.531-1.183,1.183v5.087c0,0.642,0.542,1.184,1.183,1.184h1.898c0.299,0,0.553,0.203,0.618,0.494
	c0.478,2.129,1.316,4.15,2.492,6.011c0.16,0.252,0.124,0.575-0.087,0.786l-1.343,1.344c-0.221,0.221-0.343,0.518-0.343,0.835
	c0,0.318,0.123,0.615,0.344,0.836l3.594,3.594c0.221,0.223,0.519,0.347,0.835,0.347c0.317,0,0.613-0.123,0.834-0.345l1.344-1.345
	C32.792,39.816,32.951,39.751,33.121,39.751z"/>
<path fill="#1F5F8C" d="M39.248,73.227c-1.581,0-3.105-0.442-5.035-1.001l-0.027-0.008c-0.588-0.171-1.195-0.347-1.861-0.526
	l-15.138-4.05c-0.182-0.049-0.326-0.09-0.444-0.123c-0.409-0.115-0.482-0.129-0.865-0.129h-3.889L11.8,67.957
	c-0.416,1.253-1.581,2.094-2.899,2.094h-5.85C1.369,70.051,0,68.683,0,67.001V51.648c0-1.685,1.369-3.055,3.051-3.055H8.9
	c1.318,0,2.484,0.843,2.899,2.097l0.188,0.568l2.416-0.001l0.018-0.001c1.108-0.047,1.216-0.07,2.293-0.496
	c2.773-1.094,5.023-1.604,7.083-1.604c3.506,0,6.715,1.484,10.101,4.671l0.073,0.069c0.325,0.306,0.463,0.429,0.613,0.509
	l0.06,0.031l0.064,0.021c0.112,0.037,0.307,0.08,0.824,0.08h7.956c1.25,0,2.419,0.498,3.292,1.402l0.428,0.442l12.159-6.244
	c0.73-0.375,1.533-0.573,2.321-0.573c1.562,0,2.965,0.763,3.752,2.04c1.246,2.015,0.641,4.634-1.407,6.093l-5.07,3.611
	c-0.108,0.077-0.235,0.118-0.366,0.118c-0.208,0-0.396-0.098-0.517-0.267c-0.098-0.138-0.137-0.306-0.109-0.473
	c0.028-0.166,0.12-0.313,0.257-0.41l5.07-3.611c1.497-1.067,1.954-2.957,1.064-4.396c-0.563-0.914-1.53-1.439-2.65-1.439
	c-0.603,0-1.214,0.15-1.767,0.434l-12.129,6.229l0.14,0.625c0.074,0.33,0.111,0.667,0.111,0.999c0,2.523-2.054,4.576-4.58,4.576
	H30.595c-0.349,0-0.633-0.284-0.633-0.634c0-0.349,0.284-0.634,0.633-0.634h12.894c1.827,0,3.313-1.484,3.313-3.309
	c0-0.548-0.138-1.092-0.397-1.572l-0.023-0.04c-0.592-1.053-1.697-1.702-2.893-1.702h-7.956c-1.313,0-1.65-0.253-2.429-0.985
	l-0.073-0.068c-3.13-2.946-6.079-4.319-9.28-4.319c-1.904,0-3.931,0.465-6.572,1.507c-1.328,0.524-1.592,0.536-2.704,0.583
	l-0.111,0.004h-2.41v13.597h3.922c0.581,0,0.711,0.037,1.197,0.174c0.125,0.035,0.265,0.074,0.44,0.122l15.139,4.05
	c0.684,0.185,1.302,0.363,1.9,0.537c1.912,0.554,3.288,0.952,4.696,0.952c1.692,0,3.253-0.579,5.386-1.997l13.893-10.063
	c0.108-0.077,0.235-0.118,0.367-0.118c0.208,0,0.396,0.098,0.517,0.267c0.203,0.284,0.136,0.681-0.148,0.883L45.357,71.002
	C43.049,72.54,41.165,73.227,39.248,73.227z M3.051,49.86c-0.984,0-1.784,0.803-1.784,1.788v15.353c0,0.983,0.8,1.783,1.784,1.783
	H8.9c0.986,0,1.788-0.8,1.788-1.783V51.648c0-0.985-0.802-1.788-1.788-1.788H3.051z"/>
</svg>
