<?xml version="1.0" encoding="utf-8"?>
<!-- Generator: Adobe Illustrator 15.1.0, SVG Export Plug-In  -->
<!DOCTYPE svg PUBLIC "-//W3C//DTD SVG 1.1//EN" "http://www.w3.org/Graphics/SVG/1.1/DTD/svg11.dtd" [
	<!ENTITY ns_flows "http://ns.adobe.com/Flows/1.0/">
]>
<svg version="1.1"
	 xmlns="http://www.w3.org/2000/svg" xmlns:xlink="http://www.w3.org/1999/xlink" xmlns:a="http://ns.adobe.com/AdobeSVGViewerExtensions/3.0/"
	 x="0px" y="0px" width="38px" height="50px" viewBox="-1.1 -1.4 38 50" enable-background="new -1.1 -1.4 38 50"
	 xml:space="preserve">
<defs>
</defs>
<path fill="none" stroke="#19499A" stroke-miterlimit="10" d="M5.1,46.7c-2.5,0-4.6-2.1-4.6-4.6V5.1c0-2.5,2.1-4.6,4.6-4.6H23
	c0.1,0,0.2,0,0.3,0.1l11.9,12.2c0.1,0.1,0.1,0.2,0.1,0.3v29c0,2.5-2.1,4.6-4.6,4.6H5.1z M5.1,1.3C3,1.3,1.4,3,1.4,5.1v37.1
	c0,2.1,1.7,3.7,3.7,3.7h25.7c2.1,0,3.7-1.7,3.7-3.7V14h-9c-1.7,0-3-1.4-3-3V1.3H5.1z M23.4,11c0,1.2,1,2.2,2.2,2.2h8.9L23.4,1.9V11z
	"/>
<path fill="none" stroke="#19499A" stroke-miterlimit="10" d="M14.1,24.2c-0.2,0-0.4-0.2-0.4-0.4c0-0.2,0.2-0.4,0.4-0.4h14
	c0.2,0,0.4,0.2,0.4,0.4c0,0.2-0.2,0.4-0.4,0.4H14.1z"/>
<path fill="none" stroke="#19499A" stroke-miterlimit="10" d="M7.8,24.7c-0.5,0-0.9-0.4-0.9-0.9c0-0.5,0.4-0.9,0.9-0.9h0
	c0.5,0,0.9,0.4,0.9,0.9C8.8,24.3,8.4,24.7,7.8,24.7L7.8,24.7z"/>
<path fill="none" stroke="#19499A" stroke-miterlimit="10" d="M14.1,30.9c-0.2,0-0.4-0.2-0.4-0.4c0-0.1,0-0.2,0.1-0.3
	c0.1-0.1,0.2-0.1,0.3-0.1h14c0.2,0,0.4,0.2,0.4,0.4s-0.2,0.4-0.4,0.4H14.1z"/>
<path fill="none" stroke="#19499A" stroke-miterlimit="10" d="M7.8,31.5c-0.5,0-0.9-0.4-0.9-0.9c0-0.3,0.1-0.5,0.3-0.7
	c0.2-0.2,0.4-0.3,0.7-0.3h0c0.5,0,0.9,0.4,0.9,0.9C8.8,31,8.4,31.5,7.8,31.5L7.8,31.5z"/>
<path fill="none" stroke="#19499A" stroke-miterlimit="10" d="M14.1,37.7c-0.2,0-0.4-0.2-0.4-0.4c0-0.2,0.2-0.4,0.4-0.4h14
	c0.2,0,0.4,0.2,0.4,0.4c0,0.2-0.2,0.4-0.4,0.4H14.1z"/>
<path fill="none" stroke="#19499A" stroke-miterlimit="10" d="M7.8,38.2c-0.5,0-0.9-0.4-0.9-0.9c0-0.5,0.4-0.9,0.9-0.9h0
	c0.5,0,0.9,0.4,0.9,0.9C8.8,37.8,8.4,38.2,7.8,38.2L7.8,38.2z"/>
</svg>
