<?xml version="1.0" encoding="utf-8"?>
<!-- Generator: Adobe Illustrator 15.1.0, SVG Export Plug-In  -->
<!DOCTYPE svg PUBLIC "-//W3C//DTD SVG 1.1//EN" "http://www.w3.org/Graphics/SVG/1.1/DTD/svg11.dtd" [
	<!ENTITY ns_flows "http://ns.adobe.com/Flows/1.0/">
]>
<svg version="1.1"
	 xmlns="http://www.w3.org/2000/svg" xmlns:xlink="http://www.w3.org/1999/xlink" xmlns:a="http://ns.adobe.com/AdobeSVGViewerExtensions/3.0/"
	 x="0px" y="0px" width="53px" height="50px" viewBox="-1.3 -0.7 53 50" enable-background="new -1.3 -0.7 53 50"
	 xml:space="preserve">
<defs>
</defs>
<path fill="none" stroke="#19499A" stroke-miterlimit="10" d="M0.7,48.2c-0.1,0-0.2-0.1-0.2-0.2s0.1-0.2,0.2-0.2h5.5V11.5
	c0-0.1,0.1-0.2,0.2-0.2h14.1V0.7c0-0.1,0-0.1,0.1-0.2c0,0,0.1,0,0.1,0c0,0,0,0,0,0l23.2,5.4c0.1,0,0.2,0.1,0.2,0.2v41.7h5.5
	c0.1,0,0.2,0.1,0.2,0.2s-0.1,0.2-0.2,0.2H0.7z M21,11.3h8.7c0.1,0,0.2,0.1,0.2,0.2v36.3h13.9V6.2L21,1V11.3z M6.6,47.8h22.8V11.7
	H6.6V47.8z M36.3,42.6c-0.1,0-0.2-0.1-0.2-0.2h0c0-0.1,0.1-0.2,0.2-0.2h2.3c0.1,0,0.2,0.1,0.2,0.2c0,0.1-0.1,0.2-0.2,0.2H36.3z
	 M22,42.6c-0.1,0-0.2-0.1-0.2-0.2c0-0.1,0.1-0.2,0.2-0.2h2.3c0.1,0,0.2,0.1,0.2,0.2c0,0.1-0.1,0.2-0.2,0.2H22z M11.8,42.6
	c-0.1,0-0.2-0.1-0.2-0.2c0-0.1,0.1-0.2,0.2-0.2h2.3c0.1,0,0.2,0.1,0.2,0.2c0,0.1-0.1,0.2-0.2,0.2H11.8z M22,36.4
	c-0.1,0-0.2-0.1-0.2-0.2S21.9,36,22,36h2.3c0.1,0,0.2,0.1,0.2,0.2c0,0.1-0.1,0.2-0.2,0.2H22z M11.8,36.4c-0.1,0-0.2-0.1-0.2-0.2
	c0-0.1,0.1-0.2,0.2-0.2h2.3c0.1,0,0.2,0.1,0.2,0.2c0,0.1-0.1,0.2-0.2,0.2H11.8z M36.3,36.4c-0.1,0-0.2-0.1-0.2-0.2
	c0-0.1,0.1-0.2,0.2-0.2h2.3c0.1,0,0.2,0.1,0.2,0.2c0,0.1-0.1,0.2-0.2,0.2H36.3z M22,30.2c-0.1,0-0.2-0.1-0.2-0.2
	c0-0.1,0.1-0.2,0.2-0.2h2.3c0.1,0,0.2,0.1,0.2,0.2c0,0.1-0.1,0.2-0.2,0.2H22z M11.8,30.2c-0.1,0-0.2-0.1-0.2-0.2
	c0-0.1,0.1-0.2,0.2-0.2h2.3c0.1,0,0.2,0.1,0.2,0.2l0,0c0,0.1-0.1,0.2-0.2,0.2H11.8z M36.3,30.2c-0.1,0-0.2-0.1-0.2-0.2l0,0
	c0-0.1,0.1-0.2,0.2-0.2h2.3c0.1,0,0.2,0.1,0.2,0.2s-0.1,0.2-0.2,0.2H36.3z M22,24c-0.1,0-0.2-0.1-0.2-0.2c0-0.1,0.1-0.2,0.2-0.2h2.3
	c0.1,0,0.2,0.1,0.2,0.2c0,0.1-0.1,0.2-0.2,0.2H22z M11.8,24c-0.1,0-0.2-0.1-0.2-0.2c0-0.1,0.1-0.2,0.2-0.2h2.3
	c0.1,0,0.2,0.1,0.2,0.2c0,0.1-0.1,0.2-0.2,0.2H11.8z M36.3,24c-0.1,0-0.2-0.1-0.2-0.2c0-0.1,0.1-0.2,0.2-0.2h2.3
	c0.1,0,0.2,0.1,0.2,0.2S38.8,24,38.7,24H36.3z M22,17.8c-0.1,0-0.2-0.1-0.2-0.2c0-0.1,0.1-0.2,0.2-0.2h2.3c0.1,0,0.2,0.1,0.2,0.2
	c0,0.1-0.1,0.2-0.2,0.2H22z M11.8,17.8c-0.1,0-0.2-0.1-0.2-0.2s0.1-0.2,0.2-0.2h2.3c0.1,0,0.2,0.1,0.2,0.2s-0.1,0.2-0.2,0.2H11.8z
	 M36.3,17.8c-0.1,0-0.2-0.1-0.2-0.2c0-0.1,0.1-0.2,0.2-0.2h2.3c0.1,0,0.2,0.1,0.2,0.2c0,0.1-0.1,0.2-0.2,0.2H36.3z M38.7,11.6h-2.3
	c-0.1,0-0.2-0.1-0.2-0.2c0-0.1,0.1-0.2,0.2-0.2h2.3c0.1,0,0.2,0.1,0.2,0.2C38.9,11.5,38.8,11.6,38.7,11.6L38.7,11.6z"/>
</svg>
