<?xml version="1.0" encoding="utf-8"?>
<!-- Generator: Adobe Illustrator 15.1.0, SVG Export Plug-In  -->
<!DOCTYPE svg PUBLIC "-//W3C//DTD SVG 1.1//EN" "http://www.w3.org/Graphics/SVG/1.1/DTD/svg11.dtd" [
	<!ENTITY ns_flows "http://ns.adobe.com/Flows/1.0/">
]>
<svg version="1.1"
	 xmlns="http://www.w3.org/2000/svg" xmlns:xlink="http://www.w3.org/1999/xlink" xmlns:a="http://ns.adobe.com/AdobeSVGViewerExtensions/3.0/"
	 x="0px" y="0px" width="43px" height="50px" viewBox="-0.6 -0.9 43 50" enable-background="new -0.6 -0.9 43 50"
	 xml:space="preserve">
<defs>
</defs>
<path fill="none" stroke="#19499A" stroke-miterlimit="10" d="M30.8,40.8c-0.2,0-0.4-0.2-0.4-0.4s0.2-0.4,0.4-0.4h9.7V1.3H1.3V40
	h10.1c0.2,0,0.4,0.2,0.4,0.4s-0.2,0.4-0.4,0.4H0.9c-0.2,0-0.4-0.2-0.4-0.4V0.9c0-0.2,0.2-0.4,0.4-0.4h40c0.2,0,0.4,0.2,0.4,0.4v39.5
	c0,0.2-0.2,0.4-0.4,0.4H30.8z"/>
<path fill="none" stroke="#19499A" stroke-miterlimit="10" d="M20.9,47.6c-0.2,0-0.4-0.2-0.4-0.4V17.6l-7,7
	c-0.1,0.1-0.2,0.1-0.3,0.1c-0.1,0-0.2,0-0.3-0.1c-0.2-0.2-0.2-0.4,0-0.6l7.8-7.6c0,0,0.1-0.1,0.2-0.1l0,0c0,0,0,0,0.1,0
	c0,0,0.1,0,0.1,0l0.1,0.1h0c0,0,7.7,7.6,7.7,7.6c0.2,0.2,0.2,0.5,0.1,0.6c-0.1,0.1-0.2,0.1-0.3,0.1c-0.2,0-0.3,0-0.3-0.1l-7-7v29.6
	C21.3,47.4,21.1,47.6,20.9,47.6z"/>
</svg>
