<?xml version="1.0" encoding="utf-8"?>
<!-- Generator: Adobe Illustrator 15.1.0, SVG Export Plug-In  -->
<!DOCTYPE svg PUBLIC "-//W3C//DTD SVG 1.1//EN" "http://www.w3.org/Graphics/SVG/1.1/DTD/svg11.dtd" [
	<!ENTITY ns_flows "http://ns.adobe.com/Flows/1.0/">
]>
<svg version="1.1"
	 xmlns="http://www.w3.org/2000/svg" xmlns:xlink="http://www.w3.org/1999/xlink" xmlns:a="http://ns.adobe.com/AdobeSVGViewerExtensions/3.0/"
	 x="0px" y="0px" width="42px" height="50px" viewBox="-1 -1.4 42 50" enable-background="new -1 -1.4 42 50" xml:space="preserve">
<defs>
</defs>
<path fill="none" stroke="#19499A" stroke-miterlimit="10" d="M0.5,46.8V0.5h39.1v46.3H0.5z M1.2,46.1h37.8v-45H1.2V46.1z"/>
<polygon fill="none" stroke="#19499A" stroke-miterlimit="10" points="8.6,10.8 9.1,10.4 11.3,12.7 15.3,8.6 15.8,9.1 11.3,13.6 "/>
<rect x="25" y="11" fill="none" stroke="#19499A" stroke-miterlimit="10" width="7.6" height="0.7"/>
<polygon fill="none" stroke="#19499A" stroke-miterlimit="10" points="8.6,23.1 9.1,22.7 11.3,25 15.3,20.9 15.8,21.4 11.3,25.9 "/>
<rect x="25" y="23.3" fill="none" stroke="#19499A" stroke-miterlimit="10" width="7.6" height="0.7"/>
<polygon fill="none" stroke="#19499A" stroke-miterlimit="10" points="8.6,35.4 9.1,35 11.3,37.2 15.3,33.2 15.8,33.7 11.3,38.1 "/>
<rect x="25" y="35.6" fill="none" stroke="#19499A" stroke-miterlimit="10" width="7.6" height="0.7"/>
</svg>
