<?xml version="1.0" encoding="utf-8"?>
<!-- Generator: Adobe Illustrator 15.1.0, SVG Export Plug-In  -->
<!DOCTYPE svg PUBLIC "-//W3C//DTD SVG 1.1//EN" "http://www.w3.org/Graphics/SVG/1.1/DTD/svg11.dtd" [
	<!ENTITY ns_flows "http://ns.adobe.com/Flows/1.0/">
]>
<svg version="1.1"
	 xmlns="http://www.w3.org/2000/svg" xmlns:xlink="http://www.w3.org/1999/xlink" xmlns:a="http://ns.adobe.com/AdobeSVGViewerExtensions/3.0/"
	 x="0px" y="0px" width="49px" height="50px" viewBox="-1.2 -1.2 49 50" enable-background="new -1.2 -1.2 49 50"
	 xml:space="preserve">
<defs>
</defs>
<path fill="#19499A" d="M9.3,47.5c-0.3,0-0.5-0.2-0.5-0.5v-8.9H6.1C2.8,38.2,0,35.4,0,32V17.3c0-3.4,2.8-6.1,6.1-6.1h3.4V3.6
	c0-2,1.6-3.5,3.6-3.6h20.4c2,0,3.5,1.6,3.6,3.6v7.6h3.4c3.4,0,6.1,2.8,6.1,6.1V32c0,3.4-2.8,6.1-6.1,6.1h-2.6v8.9
	c0,0.3-0.2,0.5-0.5,0.5H9.3z M9.7,46.6h27.2V23.8H9.7V46.6z M37.4,22.8c0.1,0,0.2,0.1,0.3,0.1s0.1,0.2,0.1,0.3v13.9h2.6
	c2.9,0,5.2-2.3,5.2-5.2V17.3c0-2.9-2.3-5.2-5.2-5.2h-3.8l0,0c0,0-0.1,0-0.1,0H10.1c0,0-0.1,0-0.1,0l0,0H6.1c-2.9,0-5.2,2.3-5.2,5.2
	V32c0,2.9,2.3,5.2,5.2,5.2h2.6V23.3c0-0.3,0.2-0.5,0.5-0.5H37.4z M13.1,1c-1.4,0-2.6,1.2-2.6,2.6v7.6h25.6V3.6C36.1,2.1,35,1,33.5,1
	H13.1z"/>
</svg>
