<?xml version="1.0" encoding="utf-8"?>
<!-- Generator: Adobe Illustrator 15.1.0, SVG Export Plug-In  -->
<!DOCTYPE svg PUBLIC "-//W3C//DTD SVG 1.1//EN" "http://www.w3.org/Graphics/SVG/1.1/DTD/svg11.dtd" [
	<!ENTITY ns_flows "http://ns.adobe.com/Flows/1.0/">
]>
<svg version="1.1"
	 xmlns="http://www.w3.org/2000/svg" xmlns:xlink="http://www.w3.org/1999/xlink" xmlns:a="http://ns.adobe.com/AdobeSVGViewerExtensions/3.0/"
	 x="0px" y="0px" width="53px" height="50px" viewBox="-2.5 -1 53 50" enable-background="new -2.5 -1 53 50" xml:space="preserve">
<defs>
</defs>
<path fill="none" stroke="#19499A" stroke-miterlimit="10" d="M18.5,47.5c-0.1,0-0.2-0.1-0.2-0.1l-0.7-5.1l-3.3-1.4l-4.1,3.1
	c0,0,0,0,0,0c0,0,0,0-0.1,0c-0.1,0-0.1,0-0.1,0L4.1,38C4,37.9,4,37.8,4,37.8l0,0l3.1-4.2l-1.4-3.2l-5.1-0.7c0,0-0.1,0-0.1,0l0,0l0,0
	c0,0,0-0.1,0-0.1V21c0-0.1,0.1-0.2,0.1-0.2l5-0.7l1.4-3.3l-3-4.1C4,12.6,4,12.5,4,12.5l5.9-5.9c0.1-0.1,0.2-0.1,0.2-0.1l0,0l0,0
	l4.1,3.1l3.3-1.4l0.7-5.1c0-0.1,0.1-0.2,0.2-0.2h8.5c0.1,0,0.2,0.1,0.2,0.1l0.3,2.2l-0.3,0.3l-0.3-2.3h-8.2l-0.7,5.1l0,0
	c0,0,0,0-0.1,0.1l-3.4,1.4c0,0-0.1,0-0.1,0c-0.1,0-0.1,0-0.1,0l-4.1-3.1l-5.8,5.8l3.1,4.1c0,0,0,0.1,0,0.1L6,20.3
	c0,0.1-0.1,0.1-0.1,0.1l-0.1,0l-5,0.7v8.2l5,0.7C5.9,30,6,30,6,30.1l1.4,3.4l0,0c0,0,0,0.1,0,0.1l-3.1,4.1l5.8,5.8l4.1-3.1
	c0,0,0,0,0.1,0c0,0,0,0,0,0l3.5,1.4c0.1,0,0.1,0.1,0.1,0.1l0.7,5.1h8.1l0.7-5c0-0.1,0.1-0.1,0.2-0.2l3.4-1.4c0,0,0,0,0,0
	c0,0,0,0,0.1,0l4.1,3.1l5.8-5.8L38,33.7c0,0,0-0.1,0-0.1l1.4-3.5c0-0.1,0.1-0.1,0.2-0.1l5-0.7v-8.2l-2.3-0.3l0.3-0.3l2.1,0.3
	c0.1,0,0.2,0.2,0.3,0.4v8.3c0,0-0.1,0.1-0.1,0.1l-5.1,0.7l-1.4,3.2l3,4.1c0.1,0.1,0.1,0.2,0,0.3l-6,6c0,0-0.1,0.1-0.1,0.1
	c0,0-0.1,0-0.1,0l-4.1-3.1l-3.3,1.4l-0.7,5.1c0,0.1-0.1,0.1-0.2,0.1H18.5z"/>
<path fill="none" stroke="#19499A" stroke-miterlimit="10" d="M19,30.3c-0.2,0-0.3,0-0.5-0.1l9.4-3.5l-0.6,0.6c0,0,0,0,0,0l-7.8,2.8
	C19.3,30.3,19.2,30.3,19,30.3z M17.7,29.4c-0.1-0.3-0.1-0.7,0-1l2.8-7.7c0-0.1,0.1-0.1,0.1-0.2l0.5-0.5L17.7,29.4z M21.6,19.6
	L39.8,1.4c0.6-0.6,1.4-0.9,2.3-0.9c0.9,0,1.7,0.3,2.3,0.9l2.2,2.2c0.6,0.6,0.9,1.4,0.9,2.3c0,0.8-0.3,1.7-0.9,2.2L28.3,26.4
	L21.6,19.6z M42,0.8c-0.8,0-1.5,0.3-2,0.8l-18,18l6.2,6.2l18-18c0.5-0.5,0.8-1.3,0.8-2c0-0.8-0.3-1.5-0.9-2.1L44,1.6
	C43.5,1.1,42.8,0.8,42,0.8z"/>
</svg>
