<?xml version="1.0" encoding="utf-8"?>
<!-- Generator: Adobe Illustrator 15.1.0, SVG Export Plug-In  -->
<!DOCTYPE svg PUBLIC "-//W3C//DTD SVG 1.1//EN" "http://www.w3.org/Graphics/SVG/1.1/DTD/svg11.dtd" [
	<!ENTITY ns_flows "http://ns.adobe.com/Flows/1.0/">
]>
<svg version="1.1"
	 xmlns="http://www.w3.org/2000/svg" xmlns:xlink="http://www.w3.org/1999/xlink" xmlns:a="http://ns.adobe.com/AdobeSVGViewerExtensions/3.0/"
	 x="0px" y="0px" width="30px" height="50px" viewBox="-0.5 -3.3 30 50" enable-background="new -0.5 -3.3 30 50"
	 xml:space="preserve">
<defs>
</defs>
<path fill="#1E5F8C" d="M2.4,43.3C1.1,43.3,0,42.3,0,41V2.3C0,1.1,1.1,0,2.4,0h24.4c1.3,0,2.3,1.1,2.3,2.3V41c0,1.3-1.1,2.3-2.3,2.3
	H2.4z M0.6,41c0,1,0.8,1.7,1.7,1.7h24.4c1,0,1.7-0.8,1.7-1.7v-4.9H0.6V41z M0.6,35.5h27.9V8.3H0.6V35.5z M2.4,0.6
	c-1,0-1.7,0.8-1.7,1.7v5.4h27.9V2.3c0-1-0.8-1.7-1.7-1.7H2.4z"/>
<path fill="#1E5F8C" d="M11,4.5c-0.2,0-0.3-0.1-0.3-0.3c0-0.2,0.1-0.3,0.3-0.3h7.1c0.2,0,0.3,0.1,0.3,0.3c0,0.2-0.1,0.3-0.3,0.3H11z
	"/>
<path fill="#1E5F8C" d="M5.8,20c-0.2,0-0.3-0.1-0.3-0.3v-6c0-0.2,0.1-0.3,0.3-0.3h6c0.2,0,0.3,0.1,0.3,0.3v6c0,0.2-0.1,0.3-0.3,0.3
	H5.8z M6.1,19.4h5.4V14H6.1V19.4z"/>
<path fill="#1E5F8C" d="M16.2,20c-0.2,0-0.3-0.1-0.3-0.3v-6c0-0.2,0.1-0.3,0.3-0.3h6c0.2,0,0.3,0.1,0.3,0.3v6c0,0.2-0.1,0.3-0.3,0.3
	H16.2z M16.5,19.4h5.4V14h-5.4V19.4z"/>
<path fill="#1E5F8C" d="M5.8,30.4c-0.2,0-0.3-0.1-0.3-0.3v-6c0-0.2,0.1-0.3,0.3-0.3h6c0.2,0,0.3,0.1,0.3,0.3v6
	c0,0.2-0.1,0.3-0.3,0.3H5.8z M6.1,29.8h5.4v-5.4H6.1V29.8z"/>
<path fill="#1E5F8C" d="M16.2,30.4c-0.2,0-0.3-0.1-0.3-0.3v-6c0-0.2,0.1-0.3,0.3-0.3h6c0.2,0,0.3,0.1,0.3,0.3v6
	c0,0.2-0.1,0.3-0.3,0.3H16.2z M16.5,29.8h5.4v-5.4h-5.4V29.8z"/>
</svg>
