<?xml version="1.0" encoding="utf-8"?>
<!-- Generator: Adobe Illustrator 15.1.0, SVG Export Plug-In  -->
<!DOCTYPE svg PUBLIC "-//W3C//DTD SVG 1.1//EN" "http://www.w3.org/Graphics/SVG/1.1/DTD/svg11.dtd" [
	<!ENTITY ns_flows "http://ns.adobe.com/Flows/1.0/">
]>
<svg version="1.1"
	 xmlns="http://www.w3.org/2000/svg" xmlns:xlink="http://www.w3.org/1999/xlink" xmlns:a="http://ns.adobe.com/AdobeSVGViewerExtensions/3.0/"
	 x="0px" y="0px" width="55px" height="50px" viewBox="-1.4 -1.8 55 50" enable-background="new -1.4 -1.8 55 50"
	 xml:space="preserve">
<defs>
</defs>
<path fill="#19499A" d="M38.6,46.4c-0.1,0-0.2-0.1-0.3-0.2L38,43.5l-0.5-0.2c-0.3-0.1-0.6-0.2-1-0.4L36,42.7l-2.1,1.7
	c-0.1,0-0.1,0.1-0.2,0.1c-0.1,0-0.1,0-0.2-0.1l-2.7-2.7c-0.1-0.1-0.1-0.3,0-0.4l1.7-2.1l-0.2-0.5c-0.2-0.4-0.3-0.7-0.4-1l-0.2-0.5
	L29,36.9c-0.1,0-0.2-0.1-0.2-0.2v-3.8c0-0.1,0.1-0.3,0.2-0.3l2.7-0.3l0.2-0.5c0.1-0.3,0.2-0.6,0.4-1l0.2-0.5l-1.7-2.1
	c-0.1-0.1-0.1-0.3,0-0.4l2.7-2.7c0,0,0.1-0.1,0.2-0.1c0.1,0,0.1,0,0.2,0.1l2.1,1.7l0.5-0.2c0.4-0.2,0.7-0.3,1-0.4l0.5-0.2l0.3-2.7
	c0-0.1,0.1-0.2,0.2-0.2c0,0,0,0,0,0l0,0h3.8c0.1,0,0.2,0.1,0.2,0.2l0.3,2.7l0.5,0.2c0.3,0.1,0.6,0.2,1,0.4l0.5,0.2l2.1-1.7
	c0.1,0,0.1-0.1,0.2-0.1c0.1,0,0.1,0,0.2,0.1l2.7,2.7c0.1,0.1,0.1,0.2,0,0.4l-1.7,2.1l0.2,0.5c0.2,0.4,0.3,0.7,0.4,1l0.2,0.5l2.7,0.3
	c0.1,0,0.2,0.1,0.2,0.3v3.8c0,0.1-0.1,0.2-0.2,0.2l-2.7,0.3l-0.2,0.5c-0.1,0.3-0.2,0.6-0.4,1l-0.2,0.5l1.7,2.1
	c0.1,0.1,0.1,0.3,0,0.4l-2.7,2.7c0,0-0.1,0.1-0.2,0.1c-0.1,0-0.1,0-0.2-0.1l-2.1-1.7l-0.5,0.2c-0.4,0.2-0.7,0.3-1,0.4L43,43.5
	l-0.3,2.7c0,0.1-0.1,0.2-0.2,0.2H38.6z M36,42.1c0,0,0.1,0,0.1,0c0.7,0.4,1.4,0.7,2.2,0.9c0.1,0,0.2,0.1,0.2,0.2l0.3,2.6h3.3
	l0.3-2.6c0-0.1,0.1-0.2,0.2-0.2c0.8-0.2,1.5-0.5,2.2-0.9c0,0,0.1,0,0.1,0c0.1,0,0.1,0,0.2,0.1l2,1.7l2.4-2.4l-1.7-2
	c-0.1-0.1-0.1-0.2,0-0.3c0.4-0.7,0.7-1.4,0.9-2.2c0-0.1,0.1-0.2,0.2-0.2l2.5-0.3v-3.3L49,32.8c-0.1,0-0.2-0.2-0.2-0.2
	c-0.2-0.8-0.5-1.5-0.9-2.2c-0.1-0.1-0.1-0.2,0-0.3l1.7-2l-2.4-2.3l-2,1.6c0,0-0.1,0.1-0.2,0.1c0,0-0.1,0-0.1,0
	c-0.7-0.4-1.4-0.7-2.2-0.9c-0.1,0-0.2-0.1-0.2-0.2l-0.3-2.5h-3.3l-0.3,2.6c0,0.1-0.2,0.2-0.2,0.2c-0.8,0.2-1.5,0.5-2.2,0.9
	c0,0-0.1,0-0.1,0c-0.1,0-0.1,0-0.2-0.1l-2-1.6L31.4,28l1.7,2c0.1,0.1,0.1,0.2,0,0.3c-0.4,0.7-0.7,1.4-0.9,2.2c0,0.1-0.1,0.2-0.2,0.2
	l-2.6,0.3v3.3l2.6,0.3c0.1,0,0.2,0.1,0.2,0.2c0.2,0.8,0.5,1.5,0.9,2.2c0.1,0.1,0.1,0.2,0,0.3l-1.7,2l2.4,2.4l2-1.6
	C35.8,42.1,35.9,42.1,36,42.1z"/>
<path fill="#19499A" d="M40.5,40.3c-3.1,0-5.6-2.5-5.6-5.6c0-3.1,2.5-5.6,5.6-5.6c3.1,0,5.6,2.5,5.6,5.6
	C46.1,37.8,43.6,40.3,40.5,40.3z M40.5,29.7c-2.8,0-5.1,2.3-5.1,5.1c0,2.8,2.3,5.1,5.1,5.1c1.4,0,2.6-0.5,3.6-1.5
	c1-1,1.5-2.2,1.5-3.6c0-1.4-0.5-2.6-1.5-3.6C43.1,30.2,41.8,29.7,40.5,29.7z"/>
<path fill="#19499A" d="M3.7,42.7c-2,0-3.7-1.6-3.7-3.7V10.3c0-2.1,1.6-3.6,3.7-3.6h11.2V1.2C14.9,0.6,15.4,0,16,0h15.6
	c0.6,0,1.1,0.6,1.1,1.2v5.5H44c2.1,0,3.7,1.6,3.7,3.6v9.8h-0.8v-9.8c0-1.6-1.3-2.8-2.8-2.8H3.7c-1.6,0-2.8,1.3-2.8,2.8V39
	c0,1.5,1.2,2.7,2.8,2.7h22.4v1.1H3.7z M15.9,6.7h15.8V1.1H15.9V6.7z"/>
</svg>
