<?xml version="1.0" encoding="utf-8"?>
<!-- Generator: Adobe Illustrator 15.1.0, SVG Export Plug-In  -->
<!DOCTYPE svg PUBLIC "-//W3C//DTD SVG 1.1//EN" "http://www.w3.org/Graphics/SVG/1.1/DTD/svg11.dtd" [
	<!ENTITY ns_flows "http://ns.adobe.com/Flows/1.0/">
]>
<svg version="1.1"
	 xmlns="http://www.w3.org/2000/svg" xmlns:xlink="http://www.w3.org/1999/xlink" xmlns:a="http://ns.adobe.com/AdobeSVGViewerExtensions/3.0/"
	 x="0px" y="0px" width="43px" height="50px" viewBox="-0.3 -2.3 43 50" enable-background="new -0.3 -2.3 43 50"
	 xml:space="preserve">
<defs>
</defs>
<path fill="#19499A" d="M41.7,45.4c-0.2,0-0.4-0.2-0.4-0.4V30.5c0-1.8-1.5-3.3-3.3-3.3s-3.3,1.5-3.3,3.3V33c0,0.2-0.2,0.4-0.4,0.4
	c-0.2,0-0.4-0.2-0.4-0.4v-4.7c0-1.8-1.5-3.3-3.3-3.3s-3.3,1.5-3.3,3.3v2.4c0,0.2-0.2,0.4-0.4,0.4c-0.2,0-0.4-0.2-0.4-0.4v-4.7
	c0-1.8-1.5-3.3-3.3-3.3c-1.8,0-3.3,1.5-3.3,3.3v2.4c0,0.2-0.2,0.4-0.4,0.4c-0.2,0-0.4-0.2-0.4-0.4v-18c0-0.9-0.3-1.7-0.9-2.3l0,0
	l0,0c-0.7-0.6-1.4-0.9-2.2-0.9c-0.1,0-0.1,0-0.2,0c-1.8,0-3.3,1.5-3.3,3.3v26.2c0,0.5-0.3,1-0.8,1.2c-0.2,0.1-0.3,0.1-0.5,0.1
	c-0.3,0-0.7-0.1-0.9-0.4l-4.1-4c-0.6-0.6-1.5-1-2.3-1c-0.7,0-1.3,0.2-1.9,0.6l0,0c-0.8,0.5-1.3,1.4-1.5,2.3C0.7,36.4,1,37.3,1.6,38
	l0,0l5.7,6.7c0.1,0.1,0.1,0.2,0.1,0.3c0,0.1,0,0.2-0.1,0.3l0,0l0,0c0,0-0.1,0-0.2,0c-0.2,0-0.3-0.1-0.3-0.1L1,38.6l0,0
	c-0.4-0.4-0.7-1-0.8-1.5C0,36.5,0,35.9,0.1,35.3l0,0l0,0c0.2-1.2,0.8-2.2,1.8-2.8l0,0c0.7-0.5,1.5-0.7,2.3-0.7
	c0.5,0,1.1,0.1,1.6,0.3c0.5,0.2,1,0.5,1.4,0.9l4.8,4.8V15.4h-0.9c-1,0-2-0.2-3-0.6c-0.9-0.4-1.7-0.9-2.4-1.6S4.4,11.6,4,10.7
	c-0.4-0.9-0.6-2-0.6-3c0-1,0.2-2,0.6-3C4.4,3.8,4.9,3,5.6,2.2S7.2,1,8.1,0.6C9,0.2,10,0,11.1,0h18.6c1,0,2,0.2,3,0.6
	c0.9,0.4,1.7,0.9,2.4,1.6s1.3,1.5,1.6,2.4c0.4,0.9,0.6,2,0.6,3c0,1-0.2,2-0.6,3c-0.4,0.9-0.9,1.7-1.6,2.4s-1.5,1.3-2.4,1.6
	c-0.9,0.4-2,0.6-3,0.6h-9.5v7.8l1.3-0.7c0.6-0.3,1.3-0.5,2-0.5c1.7,0,3.2,1,3.8,2.5l0.4,1l0.9-0.6c0.7-0.5,1.4-0.7,2.3-0.7
	c1.7,0,3.2,1,3.8,2.5l0.4,1l0.9-0.6c0.7-0.5,1.4-0.7,2.3-0.7c1.1,0,2.1,0.4,2.9,1.2c0.8,0.8,1.2,1.8,1.2,2.9L42.1,45v0
	C42.1,45.3,42,45.4,41.7,45.4z M11.1,0.8c-3.8,0-6.9,3.1-6.9,6.9c0,3.8,3.1,6.9,6.9,6.9h0.9v-4.1c0-1.1,0.4-2.1,1.2-2.9
	c0.8-0.8,1.8-1.2,2.9-1.2c0.6,0,1.1,0.1,1.6,0.3c0.5,0.2,0.9,0.5,1.3,0.9c0.4,0.4,0.7,0.8,0.9,1.3c0.2,0.5,0.3,1,0.3,1.5v4.1h9.5
	c3.8,0,6.9-3.1,6.9-6.9c0-3.8-3.1-6.9-6.9-6.9H11.1z"/>
<circle fill="#19499A" cx="29.6" cy="7.7" r="2.7"/>
</svg>
