<?xml version="1.0" encoding="utf-8"?>
<!-- Generator: Adobe Illustrator 25.2.3, SVG Export Plug-In . SVG Version: 6.00 Build 0)  -->
<svg version="1.1" id="Layer_1" xmlns="http://www.w3.org/2000/svg" xmlns:xlink="http://www.w3.org/1999/xlink" x="0px" y="0px"
	 viewBox="0 0 51 50" style="enable-background:new 0 0 51 50;" xml:space="preserve">
<style type="text/css">
	.st0{display:none;}
	.st1{display:inline;}
	.st2{fill:#1D5E8B;}
	.st3{display:inline;fill:#1D5E8B;}
</style>
<g class="st0">
	<g class="st1">
		<path class="st2" d="M43.63,6.47h-5.27c-0.35,0-0.63,0.28-0.63,0.63s0.28,0.63,0.63,0.63h5.27c0.82,0,1.48,0.66,1.48,1.48v23.6
			H-2.09V9.2c0-0.82,0.66-1.48,1.48-1.48h5.27c0.35,0,0.63-0.28,0.63-0.63S5,6.47,4.66,6.47h-5.27c-1.51,0-2.73,1.23-2.73,2.73v29.5
			c0,1.51,1.23,2.73,2.73,2.73h13.07v3.59c0.1,1.87-1.35,3.49-3.24,3.59c-0.12,0.01-0.25,0.01-0.37,0c-0.32,0-0.6,0.28-0.6,0.63
			s0.28,0.63,0.62,0.63h25.28c0.34,0,0.62-0.28,0.62-0.63s-0.28-0.62-0.62-0.62c-1.87,0.09-3.49-1.35-3.59-3.24
			c-0.01-0.12-0.01-0.25,0-0.37l0-3.57h13.07c1.51,0,2.73-1.23,2.73-2.73V9.2C46.36,7.69,45.14,6.47,43.63,6.47z M30.62,48.61H12.39
			l0.43-0.66c0.57-0.87,0.88-1.89,0.89-2.93v-3.58h15.6v2.96h-6.75c-0.35,0-0.63,0.28-0.63,0.62s0.28,0.63,0.63,0.63h6.78l0.05,0.37
			c0.1,0.69,0.36,1.35,0.76,1.92L30.62,48.61z M45.11,38.7c0,0.82-0.66,1.48-1.48,1.48H-0.61c-0.82,0-1.48-0.66-1.48-1.48v-4.64
			h47.21V38.7z"/>
		<path class="st2" d="M34.15,50H8.87c-0.42,0-0.77-0.34-0.77-0.77c0-0.41,0.34-0.77,0.74-0.77c0.13,0.01,0.24,0.01,0.36,0
			c0.87-0.05,1.68-0.43,2.27-1.09c0.59-0.65,0.88-1.49,0.84-2.35v-3.45H-0.61c-1.59,0-2.87-1.29-2.87-2.87V9.2
			c0-1.59,1.29-2.87,2.87-2.87h5.27c0.42,0,0.77,0.34,0.77,0.77S5.08,7.86,4.66,7.86h-5.27c-0.74,0-1.34,0.6-1.34,1.34v23.46h46.92
			V9.2c0-0.74-0.6-1.34-1.34-1.34h-5.27c-0.42,0-0.77-0.34-0.77-0.77s0.34-0.77,0.77-0.77h5.27c1.59,0,2.88,1.29,2.88,2.87v29.5
			c0,1.59-1.29,2.87-2.88,2.87H30.71l0,3.42c-0.01,0.12-0.01,0.25,0,0.36c0.1,1.8,1.64,3.21,3.44,3.1c0,0,0,0,0,0
			c0.43,0,0.77,0.34,0.77,0.77C34.92,49.66,34.57,50,34.15,50z M8.84,48.75c-0.24,0-0.45,0.22-0.45,0.48c0,0.27,0.22,0.48,0.48,0.48
			h25.28c0.27,0,0.48-0.22,0.48-0.48c0-0.27-0.22-0.48-0.48-0.48c-1.95,0.11-3.62-1.41-3.73-3.38c-0.01-0.13-0.01-0.26,0-0.39l0-3.7
			h13.21c1.43,0,2.59-1.16,2.59-2.59V9.2c0-1.43-1.16-2.59-2.59-2.59h-5.27c-0.27,0-0.48,0.22-0.48,0.48c0,0.27,0.22,0.48,0.48,0.48
			h5.27c0.9,0,1.62,0.73,1.62,1.62v23.75H-2.24V9.2c0-0.9,0.73-1.62,1.62-1.62h5.27c0.27,0,0.48-0.22,0.48-0.48
			c0-0.27-0.22-0.48-0.48-0.48h-5.27c-1.43,0-2.59,1.16-2.59,2.59v29.5c0,1.43,1.16,2.59,2.59,2.59H12.6v3.73
			c0.05,0.93-0.27,1.84-0.91,2.55c-0.64,0.71-1.51,1.13-2.46,1.18C9.09,48.76,8.97,48.76,8.84,48.75z M30.9,48.75H12.12l0.58-0.88
			c0.56-0.85,0.86-1.84,0.87-2.85v-3.73h15.89v3.25h-6.89c-0.27,0-0.48,0.22-0.48,0.48c0,0.27,0.22,0.48,0.48,0.48h6.9l0.07,0.49
			c0.1,0.67,0.35,1.31,0.74,1.86L30.9,48.75z M12.65,48.46h17.7l-0.31-0.45c-0.41-0.59-0.68-1.27-0.78-1.98l-0.04-0.24h-6.65
			c-0.42,0-0.77-0.34-0.77-0.77c0-0.42,0.34-0.77,0.77-0.77h6.61v-2.68H13.85v3.44c-0.01,1.07-0.33,2.11-0.91,3.01L12.65,48.46z
			 M43.63,40.32H-0.61c-0.9,0-1.62-0.73-1.62-1.62v-4.78h47.49v4.78C45.26,39.59,44.53,40.32,43.63,40.32z M-1.95,34.2v4.5
			c0,0.74,0.6,1.34,1.34,1.34h44.24c0.74,0,1.34-0.6,1.34-1.34v-4.5H-1.95z"/>
	</g>
	<g class="st1">
		<path class="st2" d="M6.76,29.84h29.5c0.34,0,0.62-0.28,0.62-0.63c0-0.34-0.28-0.63-0.62-0.63h-1.48V0.77
			c0-0.17-0.06-0.33-0.18-0.44c-0.12-0.12-0.28-0.18-0.44-0.19c-0.17,0-0.33,0.07-0.44,0.19l-2.72,2.73l-2.72-2.73
			c-0.24-0.24-0.64-0.24-0.88,0l-2.73,2.73l-2.72-2.73c-0.24-0.24-0.64-0.24-0.88,0l-2.73,2.73l-2.72-2.73
			c-0.24-0.24-0.64-0.24-0.88,0l-2.73,2.73L9.31,0.33C9.2,0.21,9.06,0.15,8.87,0.14c-0.17,0-0.32,0.06-0.44,0.18
			C8.31,0.44,8.24,0.6,8.24,0.77v27.82H6.76c-0.34,0-0.62,0.28-0.62,0.63C6.14,29.56,6.42,29.84,6.76,29.84z M9.49,2.28l2.09,2.09
			c0.24,0.24,0.64,0.24,0.88,0l2.73-2.72l2.71,2.72c0.24,0.24,0.64,0.24,0.88,0l2.72-2.72l2.71,2.72c0.24,0.24,0.64,0.24,0.88,0
			l2.73-2.72l2.71,2.72c0.24,0.24,0.64,0.24,0.88,0l2.1-2.08v26.31H9.49V2.28z"/>
		<path class="st2" d="M36.26,29.99H6.76c-0.42,0-0.77-0.34-0.77-0.77s0.34-0.77,0.77-0.77H8.1V0.77c0-0.2,0.08-0.4,0.23-0.55
			C8.47,0.08,8.66,0,8.87,0c0.24,0.01,0.4,0.08,0.55,0.23l2.61,2.63l2.62-2.62c0.3-0.3,0.78-0.3,1.08,0l2.61,2.63l2.62-2.62
			c0.3-0.3,0.78-0.3,1.08,0l2.61,2.63l2.62-2.62c0.3-0.3,0.78-0.3,1.08,0l2.62,2.63l2.62-2.63C33.75,0.08,33.95,0,34.15,0
			c0.23,0.01,0.41,0.09,0.55,0.23c0.14,0.14,0.22,0.34,0.22,0.55v27.67h1.34c0.42,0,0.77,0.34,0.77,0.77S36.68,29.99,36.26,29.99z
			 M6.76,28.73c-0.27,0-0.48,0.22-0.48,0.48c0,0.27,0.22,0.48,0.48,0.48h29.5c0.27,0,0.48-0.22,0.48-0.48
			c0-0.27-0.22-0.48-0.48-0.48h-1.62V0.77c0-0.13-0.05-0.25-0.14-0.34c-0.08-0.09-0.2-0.13-0.35-0.14c-0.12,0-0.24,0.05-0.33,0.14
			l-2.82,2.83l-2.82-2.83c-0.19-0.19-0.49-0.18-0.68,0l-2.83,2.83l-2.82-2.83c-0.19-0.19-0.49-0.18-0.68,0l-2.83,2.83l-2.82-2.83
			c-0.19-0.19-0.49-0.18-0.68,0l-2.83,2.83L9.21,0.43C9.12,0.33,9.02,0.29,8.86,0.29c-0.12,0-0.24,0.05-0.33,0.14
			C8.44,0.52,8.39,0.64,8.39,0.77v27.96H6.76z M33.67,28.73H9.35V1.93l2.33,2.33c0.19,0.18,0.49,0.19,0.68,0l2.83-2.82l2.82,2.82
			c0.19,0.18,0.49,0.18,0.68,0l2.82-2.82l2.82,2.82c0.19,0.18,0.49,0.18,0.68,0l2.83-2.82l2.82,2.82c0.19,0.18,0.49,0.18,0.68,0
			l2.34-2.32V28.73z M9.64,28.45h23.75V2.63l-1.86,1.84c-0.3,0.29-0.78,0.3-1.08,0l-2.61-2.62l-2.62,2.61c-0.3,0.29-0.78,0.3-1.08,0
			l-2.61-2.62l-2.62,2.61c-0.3,0.29-0.78,0.3-1.08,0l-2.61-2.62l-2.62,2.61c-0.3,0.29-0.78,0.3-1.08,0L9.64,2.62V28.45z"/>
	</g>
	<g class="st1">
		<path class="st2" d="M28.88,19.11H14.14c-0.35,0-0.63,0.28-0.63,0.63s0.28,0.63,0.63,0.63h14.75c0.35,0,0.63-0.28,0.63-0.63
			S29.23,19.11,28.88,19.11z"/>
		<path class="st2" d="M28.88,20.5H14.14c-0.42,0-0.77-0.34-0.77-0.77s0.34-0.77,0.77-0.77h14.75c0.42,0,0.77,0.34,0.77,0.77
			S29.31,20.5,28.88,20.5z M14.14,19.25c-0.27,0-0.48,0.22-0.48,0.48s0.22,0.48,0.48,0.48h14.75c0.27,0,0.48-0.22,0.48-0.48
			s-0.22-0.48-0.48-0.48H14.14z"/>
	</g>
	<g class="st1">
		<path class="st2" d="M28.88,23.32H14.14c-0.35,0-0.63,0.28-0.63,0.63c0,0.34,0.28,0.63,0.63,0.63h14.75
			c0.35,0,0.63-0.28,0.63-0.63C29.51,23.61,29.23,23.32,28.88,23.32z"/>
		<path class="st2" d="M28.88,24.72H14.14c-0.42,0-0.77-0.34-0.77-0.77s0.34-0.77,0.77-0.77h14.75c0.42,0,0.77,0.34,0.77,0.77
			S29.31,24.72,28.88,24.72z M14.14,23.47c-0.27,0-0.48,0.22-0.48,0.48s0.22,0.48,0.48,0.48h14.75c0.27,0,0.48-0.22,0.48-0.48
			s-0.22-0.48-0.48-0.48H14.14z"/>
	</g>
	<g class="st1">
		<path class="st2" d="M21.51,15.09c2.09,0,3.79-1.7,3.79-3.79s-1.7-3.79-3.79-3.79c-2.09,0-3.79,1.7-3.79,3.79
			S19.42,15.09,21.51,15.09z M21.51,8.77c1.4,0,2.54,1.14,2.54,2.54c0,1.4-1.14,2.53-2.54,2.53c-1.4,0-2.54-1.14-2.54-2.53
			C18.97,9.91,20.11,8.77,21.51,8.77z"/>
		<path class="st2" d="M21.51,15.24c-2.17,0-3.93-1.76-3.93-3.93s1.76-3.93,3.93-3.93c2.17,0,3.93,1.76,3.93,3.93
			S23.68,15.24,21.51,15.24z M21.51,7.67c-2.01,0-3.64,1.63-3.64,3.64s1.63,3.64,3.64,3.64s3.64-1.63,3.64-3.64
			S23.52,7.67,21.51,7.67z M21.51,13.99c-1.48,0-2.68-1.2-2.68-2.68s1.2-2.68,2.68-2.68c1.48,0,2.68,1.2,2.68,2.68
			S22.99,13.99,21.51,13.99z M21.51,8.92c-1.32,0-2.39,1.07-2.39,2.39s1.07,2.39,2.39,2.39c1.32,0,2.39-1.07,2.39-2.39
			S22.83,8.92,21.51,8.92z"/>
	</g>
</g>
<g class="st0">
	<path class="st3" d="M43.6,39.56c-0.7-0.73-1.64-1.39-2.89-2c-2.4-1.18-5.74-2.11-9.64-2.69c-0.19-0.03-0.39,0.02-0.54,0.14
		c-0.16,0.12-0.26,0.29-0.29,0.48c-0.06,0.4,0.22,0.77,0.62,0.83c3.72,0.55,7,1.46,9.23,2.55c1.05,0.52,1.91,1.1,2.47,1.7
		c0.52,0.54,0.77,1.06,0.77,1.58c0,0.72-0.5,1.45-1.47,2.18c-1.05,0.79-2.65,1.54-4.62,2.16c-4.14,1.31-9.86,2.06-15.72,2.06
		S9.92,47.79,5.78,46.48c-1.97-0.63-3.57-1.37-4.62-2.16c-0.98-0.73-1.47-1.47-1.47-2.18c0-0.52,0.25-1.03,0.77-1.58
		c0.56-0.59,1.42-1.18,2.47-1.7c2.22-1.09,5.5-2,9.23-2.55c0.42-0.04,0.72-0.4,0.68-0.8c-0.04-0.38-0.35-0.66-0.73-0.66
		c-0.01,0-0.03,0-0.04,0l-0.01,0c-0.03,0-0.07,0-0.1,0.01c-3.92,0.58-7.26,1.51-9.66,2.69c-1.25,0.61-2.2,1.27-2.89,2
		c-0.53,0.56-1.17,1.46-1.17,2.58c0,1.5,1.12,2.65,2.07,3.36c1.21,0.91,2.86,1.68,5.04,2.37C9.67,49.24,15.41,50,21.5,50
		s11.83-0.76,16.16-2.13c2.18-0.69,3.83-1.47,5.04-2.37c0.94-0.71,2.07-1.86,2.07-3.36C44.77,41.03,44.13,40.12,43.6,39.56z"/>
	<path class="st3" d="M16.26,35.33c2.04,3.35,3.8,6.24,4.55,8.46c0.12,0.39,0.53,0.61,0.92,0.48c0.22-0.07,0.4-0.25,0.47-0.47
		c0.75-2.23,2.51-5.12,4.55-8.47c0.91-1.49,1.87-3.06,2.8-4.69c2.86-4.96,5.78-10.87,5.78-17.05C35.32,6.09,29.12,0,21.5,0
		S7.68,6.09,7.68,13.59c0,6.18,2.92,12.09,5.78,17.05C14.39,32.27,15.35,33.84,16.26,35.33z M21.5,1.45
		c6.82,0,12.37,5.44,12.37,12.13c0,5.89-2.98,11.83-5.58,16.34c-0.89,1.55-1.81,3.04-2.69,4.48c-1.4,2.29-2.73,4.45-3.71,6.44
		l-0.39,0.78l-0.39-0.78c-0.97-1.99-2.3-4.15-3.71-6.44c-0.88-1.44-1.8-2.93-2.69-4.48c-2.6-4.52-5.58-10.45-5.58-16.34
		C9.13,6.9,14.68,1.45,21.5,1.45z"/>
	<path class="st3" d="M21.5,20.72c4.01,0,7.26-3.2,7.26-7.14c0-3.95-3.26-7.16-7.26-7.16c-4.01,0-7.27,3.21-7.27,7.16
		C14.24,17.52,17.49,20.72,21.5,20.72z M21.5,7.88c3.2,0,5.81,2.56,5.81,5.7c0,3.13-2.61,5.68-5.81,5.68c-3.2,0-5.81-2.55-5.81-5.68
		C15.69,10.44,18.3,7.88,21.5,7.88z"/>
</g>
<g class="st0">
	<path class="st3" d="M11.02,4.67c0,0-0.01,0-0.01,0c-3.64,0-6.88,1.72-8.88,4.7c-2.02,3-2.39,6.68-1,10.1
		c2.12,5.24,5.76,9.45,9.37,13.22c0.13,0.14,0.32,0.3,0.51,0.3c0,0,0,0,0,0c0.18,0,0.41-0.14,0.65-0.39
		c1.26-1.32,2.34-2.53,3.31-3.7c2.24-2.69,4.72-5.98,6.13-9.92c1.2-3.34,0.72-6.91-1.3-9.79C17.76,6.32,14.57,4.67,11.02,4.67z
		 M19.92,18.03c-1.11,3.54-3.23,6.4-5.68,9.51c-0.52,0.66-1.08,1.3-1.66,1.98c-0.26,0.31-0.53,0.62-0.81,0.94l-0.73,0.86l-0.74-0.84
		c-2.83-3.21-5.72-6.77-7.67-10.97c-1.45-3.13-1.24-6.48,0.58-9.2c1.82-2.73,4.95-4.35,8.18-4.22c2.92,0.11,5.57,1.55,7.27,3.96
		C20.31,12.4,20.78,15.31,19.92,18.03z"/>
	<path class="st3" d="M11.01,11.4c-0.02,0-0.03,0-0.05,0c-2.21,0.03-4.01,1.85-4,4.07c0,1.08,0.43,2.1,1.2,2.86
		c0.78,0.77,1.83,1.22,2.92,1.19c2.18-0.02,4.01-1.88,3.99-4.07c-0.01-1.09-0.44-2.12-1.22-2.89C13.09,11.81,12.08,11.4,11.01,11.4z
		 M11.03,18.1C11.03,18.1,11.02,18.1,11.03,18.1c-0.72,0-1.41-0.3-1.91-0.82c-0.5-0.52-0.77-1.23-0.74-1.94
		c0.06-1.41,1.24-2.54,2.64-2.54c0.02,0,0.05,0,0.07,0c1.44,0.04,2.59,1.24,2.57,2.68C13.65,16.92,12.46,18.09,11.03,18.1z"/>
	<path class="st3" d="M53.35,28.19c-3.8-3.79-7.6-7.58-11.38-11.39c-0.63-0.64-1.35-0.93-2.26-0.93c-0.01,0-0.01,0-0.02,0
		c-3.78,0.01-7.56,0.01-11.34,0.01l-4.33,0v1.12h4.75V31.3h1.11V17.12l0.31-0.08c0.13-0.04,0.21-0.06,0.3-0.06l1.09,0
		c2.79,0,5.58-0.01,8.36,0.01c0.34,0,0.7,0.13,0.92,0.33c0.4,0.36,0.79,0.74,1.21,1.17l1.24,1.22l-5.14,0
		c-1.21,0-1.77,0.57-1.77,1.78c0,2.67,0,5.35,0,8.02c0,1.29,0.55,1.84,1.82,1.84l14.45,0l0,7.98c0,0.8-0.45,1.35-1.18,1.41
		c-0.52,0.05-1.03,0.04-1.53,0.03c-0.21,0-0.42-0.01-0.62-0.01h-0.33l-0.07-0.32c-0.7-3.21-2.97-5.29-5.93-5.4
		c-1.47-0.06-2.8,0.33-3.97,1.17c-1.4,1-2.26,2.41-2.58,4.2l-0.06,0.33h-14.2l-0.07-0.32c-0.8-3.96-3.84-5.38-6.2-5.39
		c-0.01,0-0.02,0-0.04,0c-3.11,0-5.34,1.91-6.28,5.39L9.6,40.6l-0.18,0.08c-0.05,0.03-0.14,0.08-0.27,0.08l-0.12,0
		c-0.48,0.01-0.95,0.01-1.43,0.01c-1.17,0-1.66-0.5-1.66-1.66l0-5.62l0-2.27H4.82l0,2.44c0,1.87,0,3.74,0,5.61
		c0,1.57,1.03,2.6,2.6,2.61c0.42,0,0.84,0,1.26,0l0.93,0l0.05,0.34c0.2,1.33,0.78,2.48,1.81,3.62l0.61,0.68h-14.9v1.11l8.43,0
		c12.34,0,24.69,0,37.03-0.02c0.81,0,1.71-0.18,2.51-0.52c2.07-0.85,3.31-2.44,3.8-4.88l0.06-0.33h2.06c1.72,0,2.71-1,2.72-2.74
		l0-3.15c0-2.24,0-4.48,0.01-6.73C53.81,28.83,53.68,28.51,53.35,28.19z M15.94,46.52c-0.01,0-0.01,0-0.02,0
		c-1.39,0-2.7-0.54-3.68-1.52c-0.99-0.99-1.53-2.31-1.53-3.71c0.01-2.84,2.33-5.15,5.18-5.15c0,0,0,0,0,0
		c1.39,0,2.69,0.54,3.68,1.52c0.98,0.98,1.52,2.29,1.52,3.68C21.09,44.19,18.78,46.51,15.94,46.52z M19.7,46.48l0.65-0.68
		c0.97-1.02,1.56-2.18,1.79-3.55l0.06-0.34h14.23l0.06,0.34c0.23,1.36,0.82,2.52,1.79,3.55l0.65,0.68H19.7z M46.38,45
		c-0.98,0.98-2.29,1.52-3.68,1.52c-0.01,0-0.01,0-0.02,0c-2.84-0.01-5.15-2.34-5.15-5.18c0-1.39,0.54-2.69,1.52-3.68
		c0.98-0.98,2.29-1.52,3.67-1.52c2.85,0,5.18,2.31,5.19,5.15C47.91,42.69,47.37,44.01,46.38,45z M37.55,30.21v-9.34l0.53-0.04
		c0.13-0.01,0.26-0.02,0.39-0.02l1.08,0c1.4,0,2.79-0.01,4.19,0.02c0.39,0.01,0.84,0.19,1.1,0.45c2.29,2.26,4.71,4.68,7.41,7.41
		c0.18,0.18,0.28,0.4,0.39,0.63c0.04,0.1,0.09,0.2,0.15,0.31l0.32,0.6H37.55z"/>
	<rect x="33.58" y="34.1" class="st3" width="2.95" height="1.04"/>
	<path class="st3" d="M15.91,40.34c-0.54,0-0.98,0.44-0.98,0.98c0,0.6,0.44,1.04,0.98,1.04c0.54,0,0.98-0.44,0.98-0.98
		C16.89,40.78,16.45,40.34,15.91,40.34z"/>
	<path class="st3" d="M42.62,40.34c-0.54,0-0.98,0.44-0.98,0.98c0,0.6,0.44,1.04,0.98,1.04c0.54,0,0.98-0.44,0.98-0.98
		C43.6,40.78,43.16,40.34,42.62,40.34z"/>
</g>
<g>
	<path class="st2" d="M1.76,22.58c-0.88,0-1.12-0.25-1.12-1.14c0-6.77,0-13.54,0-20.31C0.64,0.24,0.88,0,1.77,0l15.55,0l4.65,0
		c0.88,0,1.12,0.25,1.12,1.14c0,6.77,0,13.54,0,20.31c0,0.89-0.24,1.13-1.14,1.13l-10.11,0L1.76,22.58z M2.28,20.93l19.18,0l0-19.31
		l-4.77,0l0,0.58l0,1.83c0,1.51,0,3.01,0,4.52c0,0.73-0.25,1.1-0.74,1.1c-0.18,0-0.39-0.05-0.63-0.15C15,9.39,14.68,9.26,14.37,9.13
		c-0.69-0.28-1.41-0.57-2.13-0.84c-0.11-0.04-0.23-0.06-0.37-0.06c-0.14,0-0.27,0.02-0.38,0.06C10.8,8.55,10.1,8.84,9.42,9.11
		c-0.35,0.14-0.7,0.28-1.05,0.42C8.16,9.62,7.97,9.66,7.8,9.66c-0.49,0-0.75-0.36-0.75-1.05c0-1.53,0-3.06,0-4.59l0-2.38l-4.78,0
		V20.93z M8.68,7.67C8.94,7.56,9.2,7.46,9.46,7.36c0.64-0.25,1.24-0.48,1.84-0.75c0.2-0.09,0.38-0.13,0.57-0.13
		c0.19,0,0.38,0.04,0.58,0.13c0.59,0.25,1.18,0.49,1.81,0.73c0.26,0.1,0.52,0.2,0.78,0.31l0-6l-6.36,0V7.67z"/>
	<path class="st2" d="M11.9,0c3.36,0,6.72,0,10.07,0c0.88,0,1.12,0.24,1.12,1.14c0,6.77,0,13.54,0,20.31c0,0.89-0.24,1.13-1.14,1.13
		c-6.73,0-13.47,0-20.2,0c-0.88,0-1.12-0.24-1.12-1.14c0-6.77,0-13.54,0-20.31C0.64,0.24,0.88,0,1.77,0C5.15,0,8.52,0,11.9,0z
		 M16.68,1.62c0,0.22,0,0.4,0,0.59c0,2.12,0,4.23,0,6.35c0,1-0.46,1.32-1.37,0.95c-1.02-0.41-2.04-0.84-3.07-1.22
		c-0.22-0.08-0.53-0.08-0.75,0c-1.05,0.39-2.08,0.83-3.12,1.24C7.53,9.87,7.06,9.54,7.06,8.61c0-2.15,0-4.3,0-6.45
		c0-0.18,0-0.35,0-0.52c-1.64,0-3.21,0-4.78,0c0,6.45,0,12.87,0,19.29c6.42,0,12.8,0,19.18,0c0-6.46,0-12.88,0-19.31
		C19.86,1.62,18.31,1.62,16.68,1.62z M15.04,7.66c0-2.04,0-4.03,0-6c-2.14,0-4.25,0-6.36,0c0,2.01,0,3.99,0,6.02
		c0.9-0.36,1.77-0.69,2.62-1.05c0.4-0.17,0.75-0.17,1.15,0C13.29,6.98,14.15,7.3,15.04,7.66z"/>
	<path class="st2" d="M29.01,22.58c-0.86,0-1.1-0.25-1.1-1.11c0-2.49,0-4.97,0-7.46V8.57c0-2.49,0-4.97,0-7.46
		c0-0.86,0.25-1.11,1.1-1.11l10.4,0l9.85,0c0.86,0,1.11,0.25,1.11,1.11c0,6.79,0,13.57,0,20.36c0,0.86-0.25,1.11-1.1,1.11l-10.12,0
		L29.01,22.58z M29.54,20.95l19.18,0l0-19.31l-4.77,0l0,0.56l0,1.85c0,1.52,0,3.03,0,4.55c0,0.7-0.25,1.05-0.74,1.05
		c-0.18,0-0.38-0.05-0.62-0.14c-0.32-0.13-0.64-0.26-0.96-0.39c-0.69-0.28-1.4-0.57-2.11-0.83c-0.11-0.04-0.24-0.06-0.38-0.06
		c-0.14,0-0.26,0.02-0.37,0.06c-0.7,0.26-1.41,0.55-2.09,0.82c-0.34,0.14-0.68,0.28-1.03,0.41c-0.22,0.09-0.41,0.13-0.58,0.13
		c-0.49,0-0.75-0.36-0.75-1.04c0-1.54,0-3.07,0-4.61l0-2.37l-4.78,0V20.95z M35.96,7.67c0.26-0.11,0.52-0.21,0.77-0.31
		c0.61-0.24,1.19-0.47,1.77-0.72c0.22-0.1,0.43-0.15,0.64-0.15c0.21,0,0.42,0.05,0.66,0.15c0.58,0.25,1.15,0.48,1.76,0.72
		c0.25,0.1,0.5,0.2,0.76,0.3l0-6.02l-6.35,0V7.67z"/>
	<path class="st2" d="M27.91,11.29c0-3.39,0-6.79,0-10.18c0-0.86,0.25-1.11,1.1-1.11c6.75,0,13.5,0,20.25,0
		c0.85,0,1.1,0.25,1.1,1.11c0,6.79,0,13.57,0,20.36c0,0.86-0.25,1.11-1.1,1.11c-6.75,0-13.5,0-20.25,0c-0.85,0-1.1-0.25-1.1-1.11
		C27.91,18.08,27.91,14.68,27.91,11.29z M48.72,20.95c0-6.47,0-12.89,0-19.31c-1.6,0-3.16,0-4.78,0c0,0.2,0,0.38,0,0.56
		c0,2.13,0,4.27,0,6.4c0,0.95-0.47,1.27-1.36,0.91c-1.02-0.41-2.04-0.84-3.07-1.22c-0.22-0.08-0.53-0.08-0.75,0
		c-1.05,0.39-2.08,0.82-3.12,1.24c-0.85,0.34-1.33,0.01-1.33-0.91c0-2.15,0-4.3,0-6.45c0-0.18,0-0.35,0-0.53c-1.64,0-3.2,0-4.78,0
		c0,6.45,0,12.87,0,19.31C35.94,20.95,42.31,20.95,48.72,20.95z M35.96,1.64c0,2.02,0,4,0,6.03C36.84,7.31,37.68,7,38.5,6.64
		c0.45-0.2,0.85-0.19,1.29,0.01c0.82,0.36,1.66,0.67,2.52,1.02c0-2.03,0-4.02,0-6.02C40.19,1.64,38.09,1.64,35.96,1.64z"/>
	<path class="st2" d="M1.74,50c-0.86,0-1.1-0.25-1.1-1.11c0-6.79,0-13.57,0-20.36c0-0.86,0.25-1.11,1.1-1.11l10.12,0l10.12,0
		c0.86,0,1.11,0.25,1.11,1.11c0,6.79,0,13.57,0,20.36c0,0.86-0.25,1.11-1.1,1.11l-4.74,0L1.74,50z M2.27,48.36l19.18,0l0-19.29
		l-4.78,0l0,2.02c0,1.67,0,3.32,0,4.97c0,0.65-0.27,1.02-0.75,1.02c-0.16,0-0.35-0.04-0.56-0.12c-0.35-0.14-0.7-0.28-1.06-0.43
		c-0.66-0.27-1.34-0.55-2.01-0.8c-0.13-0.05-0.28-0.07-0.43-0.07c-0.15,0-0.29,0.02-0.41,0.07c-0.7,0.26-1.4,0.54-2.08,0.82
		c-0.33,0.13-0.66,0.27-0.99,0.4c-0.22,0.09-0.41,0.13-0.58,0.13c-0.49,0-0.75-0.36-0.75-1.04c0-1.53,0-3.06,0-4.6l0-2.37l-4.78,0
		V48.36z M8.68,35.09c0.26-0.11,0.52-0.21,0.78-0.31c0.64-0.25,1.24-0.48,1.84-0.75c0.2-0.09,0.38-0.13,0.57-0.13
		c0.19,0,0.38,0.04,0.58,0.13c0.59,0.25,1.19,0.49,1.81,0.73c0.26,0.1,0.52,0.2,0.78,0.31l0-6l-6.36,0V35.09z"/>
	<path class="st2" d="M11.82,50c-3.36,0-6.72,0-10.07,0c-0.85,0-1.1-0.25-1.1-1.11c0-6.79,0-13.57,0-20.36
		c0-0.86,0.25-1.11,1.1-1.11c6.75,0,13.5,0,20.25,0c0.85,0,1.1,0.25,1.1,1.11c0,6.79,0,13.57,0,20.36c0,0.86-0.25,1.11-1.1,1.11
		C18.6,50,15.21,50,11.82,50z M21.46,48.36c0-6.46,0-12.88,0-19.29c-1.61,0-3.19,0-4.78,0c0,2.36,0,4.67,0,6.99
		c0,0.89-0.49,1.22-1.31,0.89c-1.02-0.41-2.04-0.84-3.07-1.22c-0.25-0.09-0.59-0.1-0.84-0.01c-1.03,0.38-2.05,0.81-3.07,1.22
		c-0.85,0.34-1.33,0.01-1.33-0.9c0-2.15,0-4.3,0-6.45c0-0.18,0-0.35,0-0.52c-1.65,0-3.22,0-4.78,0c0,6.45,0,12.86,0,19.29
		C8.67,48.36,15.04,48.36,21.46,48.36z M15.04,35.08c0-2.04,0-4.03,0-6.01c-2.14,0-4.25,0-6.36,0c0,2.01,0,3.99,0,6.02
		c0.9-0.36,1.77-0.68,2.62-1.05c0.4-0.17,0.75-0.17,1.15,0C13.29,34.39,14.14,34.72,15.04,35.08z"/>
	<path class="st2" d="M29.01,50c-0.86,0-1.1-0.25-1.1-1.11c0-2.49,0-4.97,0-7.46v-5.44c0-2.49,0-4.97,0-7.46
		c0-0.86,0.25-1.11,1.1-1.11l10.12,0l10.12,0c0.86,0,1.11,0.25,1.11,1.11c0,6.79,0,13.57,0,20.36c0,0.86-0.25,1.11-1.1,1.11
		l-10.12,0L29.01,50z M29.55,48.35l19.19,0l0-19.29l-4.79,0l0,0.58l0,1.84c0,1.54,0,3.07,0,4.61c0,0.63-0.28,0.99-0.76,0.99
		c-0.16,0-0.33-0.04-0.52-0.11c-0.36-0.14-0.72-0.29-1.08-0.44c-0.65-0.27-1.32-0.54-1.99-0.78c-0.13-0.05-0.3-0.08-0.46-0.08
		c-0.16,0-0.3,0.02-0.43,0.07c-0.69,0.25-1.38,0.53-2.05,0.81c-0.34,0.14-0.68,0.28-1.02,0.41c-0.21,0.08-0.39,0.12-0.56,0.12
		c-0.49,0-0.75-0.36-0.75-1.01c0-1.54,0-3.08,0-4.62l0-2.38l-4.77,0V48.35z M35.96,35.09c0.25-0.1,0.51-0.2,0.75-0.3
		c0.59-0.23,1.14-0.45,1.69-0.7c0.25-0.11,0.49-0.17,0.72-0.17c0.24,0,0.49,0.06,0.76,0.18c0.55,0.25,1.1,0.46,1.69,0.69
		c0.25,0.1,0.49,0.19,0.74,0.29l0-6.03l-6.35,0V35.09z"/>
	<path class="st2" d="M27.91,38.71c0-3.39,0-6.79,0-10.18c0-0.86,0.25-1.11,1.1-1.11c6.75,0,13.5,0,20.25,0
		c0.85,0,1.1,0.25,1.1,1.11c0,6.79,0,13.57,0,20.36c0,0.86-0.25,1.11-1.1,1.11c-6.75,0-13.5,0-20.25,0c-0.85,0-1.1-0.25-1.1-1.11
		C27.91,45.5,27.91,42.1,27.91,38.71z M43.94,29.06c0,0.22,0,0.4,0,0.58c0,2.15,0,4.3,0,6.45c0,0.85-0.5,1.19-1.28,0.88
		c-1.02-0.41-2.04-0.84-3.07-1.22c-0.27-0.1-0.62-0.1-0.89-0.01c-1.03,0.37-2.05,0.81-3.07,1.22c-0.82,0.33-1.31,0-1.31-0.89
		c0-2.15,0-4.3,0-6.45c0-0.18,0-0.36,0-0.55c-1.63,0-3.2,0-4.78,0c0,6.45,0,12.87,0,19.28c6.42,0,12.81,0,19.19,0
		c0-6.45,0-12.86,0-19.29C47.14,29.06,45.58,29.06,43.94,29.06z M35.96,29.05c0,2.03,0,4.01,0,6.03c0.85-0.34,1.66-0.64,2.45-1
		c0.51-0.23,0.97-0.22,1.48,0.01c0.79,0.35,1.6,0.65,2.43,0.98c0-2.04,0-4.02,0-6.03C40.19,29.05,38.09,29.05,35.96,29.05z"/>
</g>
</svg>
