<?xml version="1.0" encoding="utf-8"?>
<!-- Generator: Adobe Illustrator 15.1.0, SVG Export Plug-In . SVG Version: 6.00 Build 0)  -->
<!DOCTYPE svg PUBLIC "-//W3C//DTD SVG 1.1//EN" "http://www.w3.org/Graphics/SVG/1.1/DTD/svg11.dtd">
<svg version="1.1" id="Layer_1" xmlns="http://www.w3.org/2000/svg" xmlns:xlink="http://www.w3.org/1999/xlink" x="0px" y="0px"
	 width="65.839px" height="50px" viewBox="663.43 975 65.839 50" enable-background="new 663.43 975 65.839 50"
	 xml:space="preserve">
<g display="none">
	<g display="inline">
		<path fill="#1D5E8B" d="M1416.604,424.728h-163.61c-10.865,0-19.559,8.693-19.559,19.559c0,10.866,8.693,19.559,19.559,19.559
			h163.61c25.457,0,45.947,20.49,45.947,45.947v732.673H-2.794V509.481c0-25.457,20.49-45.947,45.947-45.947h163.609
			c10.866,0,19.559-8.692,19.559-19.559c0-10.865-9.003-19.248-19.559-19.248H43.153c-46.879,0-84.754,38.187-84.754,84.754v915.841
			c0,46.879,38.186,84.755,84.754,84.755h405.764v111.453c3.104,58.055-41.911,108.349-100.587,111.453
			c-3.726,0.311-7.762,0.311-11.487,0c-9.935,0-18.627,8.692-18.627,19.559s8.692,19.559,19.248,19.559h784.829
			c10.556,0,19.248-8.692,19.248-19.559s-8.692-19.248-19.248-19.248c-58.055,2.794-108.349-41.911-111.453-100.588
			c-0.311-3.725-0.311-7.761,0-11.486v-110.832h405.765c46.878,0,84.754-38.187,84.754-84.755V509.481
			C1501.358,462.604,1463.482,424.728,1416.604,424.728z M1012.703,1732.983H446.744l13.35-20.49
			c17.695-27.01,27.32-58.676,27.631-90.963v-111.143h484.309v91.895H762.477c-10.866,0-19.559,8.692-19.559,19.248
			s8.692,19.559,19.559,19.559h210.488l1.552,11.486c3.104,21.422,11.177,41.911,23.595,59.607L1012.703,1732.983z
			 M1462.552,1425.322c0,25.458-20.49,45.947-45.947,45.947H43.153c-25.458,0-45.947-20.489-45.947-45.947v-144.051h1465.655
			v144.051H1462.552z"/>
		<path fill="#1D5E8B" d="M1122.293,1776.137H337.464c-13.039,0-23.905-10.556-23.905-23.905c0-12.729,10.556-23.905,22.975-23.905
			c4.035,0.311,7.45,0.311,11.176,0c27.01-1.552,52.156-13.35,70.474-33.84c18.316-20.179,27.319-46.258,26.078-72.956v-107.107
			H43.153c-49.362,0-89.101-40.049-89.101-89.101V509.481c0-49.362,40.049-89.1,89.101-89.1h163.609
			c13.039,0,23.905,10.555,23.905,23.905s-10.866,23.595-23.905,23.595H43.153c-22.974,0-41.601,18.627-41.601,41.601v728.327
			h1456.653V509.481c0-22.974-18.627-41.601-41.602-41.601h-163.609c-13.039,0-23.904-10.556-23.904-23.905
			s10.555-23.905,23.904-23.905h163.609c49.363,0,89.411,40.048,89.411,89.1v915.842c0,49.361-40.048,89.1-89.411,89.1h-401.106
			v106.176c-0.311,3.726-0.311,7.762,0,11.177c3.104,55.882,50.914,99.655,106.796,96.24l0,0c13.35,0,23.905,10.556,23.905,23.905
			C1146.198,1765.581,1135.332,1776.137,1122.293,1776.137z M336.533,1737.329c-7.451,0-13.971,6.83-13.971,14.902
			c0,8.382,6.83,14.901,14.901,14.901h784.829c8.383,0,14.902-6.83,14.902-14.901c0-8.383-6.83-14.902-14.902-14.902
			c-60.538,3.415-112.385-43.773-115.799-104.934c-0.311-4.035-0.311-8.071,0-12.107V1505.42h410.11
			c44.395,0,80.407-36.013,80.407-80.407V509.481c0-44.395-36.013-80.407-80.407-80.407h-163.61c-8.382,0-14.901,6.83-14.901,14.901
			c0,8.383,6.83,14.902,14.901,14.902h163.61c27.94,0,50.293,22.663,50.293,50.293v737.33H-7.451v-737.02
			c0-27.94,22.663-50.293,50.293-50.293h163.609c8.382,0,14.902-6.83,14.902-14.902c0-8.382-6.83-14.901-14.902-14.901H43.153
			c-44.395,0-80.408,36.013-80.408,80.407v915.841c0,44.396,36.013,80.408,80.408,80.408h410.11v115.8
			c1.553,28.872-8.383,57.123-28.251,79.165c-19.869,22.043-46.879,35.082-76.372,36.634
			C344.294,1737.64,340.568,1737.64,336.533,1737.329z M1021.396,1737.329H438.361l18.007-27.319
			c17.386-26.389,26.699-57.124,27.01-88.479v-115.8h493.312v100.897H762.787c-8.383,0-14.902,6.83-14.902,14.902
			c0,8.382,6.83,14.901,14.902,14.901H977l2.174,15.213c3.104,20.8,10.865,40.669,22.974,57.744L1021.396,1737.329z
			 M454.816,1728.326h549.504l-9.624-13.971c-12.729-18.316-21.111-39.428-24.216-61.47l-1.241-7.451H762.787
			c-13.039,0-23.905-10.555-23.905-23.904c0-13.039,10.556-23.905,23.905-23.905h205.21v-83.202H492.07v106.797
			c-0.311,33.219-10.245,65.506-28.251,93.446L454.816,1728.326z M1416.604,1475.616H43.153c-27.941,0-50.294-22.663-50.294-50.294
			v-148.396h1474.349v148.396C1467.208,1452.953,1444.545,1475.616,1416.604,1475.616z M1.552,1285.618v139.704
			c0,22.975,18.627,41.602,41.601,41.602h1373.451c22.974,0,41.601-18.627,41.601-41.602v-139.704H1.552z"/>
	</g>
	<g display="inline">
		<path fill="#1D5E8B" d="M271.958,1150.26h915.841c10.556,0,19.248-8.692,19.248-19.559c0-10.556-8.692-19.559-19.248-19.559
			h-45.947V247.769c0-5.277-1.862-10.245-5.588-13.66c-3.726-3.725-8.692-5.588-13.66-5.898c-5.277,0-10.245,2.173-13.66,5.898
			l-84.443,84.754l-84.443-84.754c-7.451-7.451-19.869-7.451-27.32,0l-84.754,84.754l-84.443-84.754
			c-7.451-7.451-19.869-7.451-27.32,0l-84.754,84.754l-84.443-84.754c-7.451-7.451-19.869-7.451-27.32,0l-84.754,84.754
			l-84.443-84.754c-3.726-3.725-7.762-5.588-13.66-5.898c-5.278,0-9.935,1.863-13.66,5.588c-3.726,3.725-5.898,8.693-5.898,13.97
			v863.685h-45.327c-10.555,0-19.248,8.692-19.248,19.559C252.71,1141.567,261.403,1150.26,271.958,1150.26z M356.712,294.647
			l64.886,64.885c7.45,7.451,19.869,7.451,27.319,0l84.755-84.443l84.133,84.443c7.451,7.451,19.869,7.451,27.32,0l84.443-84.443
			l84.133,84.443c7.451,7.451,19.869,7.451,27.32,0l84.754-84.443l84.133,84.443c7.451,7.451,19.869,7.451,27.32,0l65.195-64.574
			v816.806H356.712V294.647z"/>
		<path fill="#1D5E8B" d="M1187.799,1154.917H271.958c-13.039,0-23.905-10.556-23.905-23.905s10.555-23.905,23.905-23.905h41.601
			V247.769c0-6.209,2.484-12.418,7.141-17.075c4.347-4.346,10.245-6.83,16.765-6.83c7.451,0.31,12.418,2.483,17.075,7.14
			l81.028,81.65l81.34-81.339c9.313-9.313,24.215-9.313,33.528,0l81.029,81.649l81.339-81.339c9.313-9.313,24.216-9.313,33.529,0
			l81.028,81.649l81.339-81.339c9.313-9.313,24.216-9.313,33.529,0l81.339,81.649l81.34-81.649
			c4.967-5.588,11.176-8.072,17.385-8.072c7.141,0.31,12.729,2.794,17.075,7.14c4.347,4.347,6.83,10.556,6.83,17.075v859.027h41.601
			c13.039,0,23.905,10.556,23.905,23.905S1200.838,1154.917,1187.799,1154.917z M271.958,1115.8c-8.382,0-14.901,6.83-14.901,14.901
			c0,8.383,6.83,14.902,14.901,14.902h915.841c8.383,0,14.902-6.83,14.902-14.902c0-8.382-6.83-14.901-14.902-14.901h-50.293
			V247.769c0-4.036-1.553-7.761-4.347-10.556c-2.483-2.794-6.209-4.036-10.866-4.346c-3.725,0-7.45,1.552-10.245,4.346
			l-87.548,87.859l-87.548-87.859c-5.899-5.898-15.213-5.588-21.111,0l-87.858,87.859l-87.548-87.859
			c-5.899-5.898-15.213-5.588-21.111,0l-87.858,87.859l-87.549-87.859c-5.898-5.898-15.212-5.588-21.11,0l-87.858,87.859
			l-87.549-87.859c-2.794-2.794-5.898-4.036-10.865-4.346c-3.726,0-7.451,1.552-10.245,4.346c-2.794,2.794-4.347,6.83-4.347,10.556
			V1115.8H271.958z M1107.392,1115.8H352.366V283.781l72.336,72.336c5.898,5.588,15.212,5.898,21.11,0l87.859-87.548l87.548,87.548
			c5.898,5.588,15.212,5.588,21.11,0l87.549-87.548l87.548,87.548c5.898,5.588,15.212,5.588,21.111,0l87.858-87.548l87.548,87.548
			c5.898,5.588,15.213,5.588,21.111,0l72.646-72.025V1115.8H1107.392z M361.369,1107.106h737.329V305.513l-57.744,57.124
			c-9.313,9.003-24.216,9.313-33.529,0l-81.028-81.339l-81.34,81.028c-9.313,9.003-24.215,9.314-33.528,0l-81.029-81.339
			l-81.339,81.028c-9.313,9.003-24.215,9.314-33.529,0l-81.028-81.339l-81.339,81.029c-9.313,9.003-24.216,9.313-33.529,0
			l-57.434-57.434v802.835H361.369z"/>
	</g>
	<g display="inline">
		<path fill="#1D5E8B" d="M958.684,817.143h-457.61c-10.865,0-19.559,8.692-19.559,19.559c0,10.865,8.693,19.559,19.559,19.559
			h457.921c10.866,0,19.559-8.693,19.559-19.559C978.553,825.835,969.55,817.143,958.684,817.143z"/>
		<path fill="#1D5E8B" d="M958.684,860.296h-457.61c-13.039,0-23.904-10.556-23.904-23.905s10.555-23.905,23.904-23.905h457.921
			c13.039,0,23.905,10.556,23.905,23.905S972.033,860.296,958.684,860.296z M501.073,821.488c-8.382,0-14.901,6.83-14.901,14.902
			c0,8.071,6.83,14.901,14.901,14.901h457.921c8.382,0,14.901-6.83,14.901-14.901c0-8.072-6.829-14.902-14.901-14.902H501.073z"/>
	</g>
	<g display="inline">
		<path fill="#1D5E8B" d="M958.684,947.844h-457.61c-10.865,0-19.559,8.692-19.559,19.559c0,10.556,8.693,19.559,19.559,19.559
			h457.921c10.866,0,19.559-8.692,19.559-19.559C978.242,956.847,969.55,947.844,958.684,947.844z"/>
		<path fill="#1D5E8B" d="M958.684,991.308h-457.61c-13.039,0-23.904-10.556-23.904-23.905s10.555-23.905,23.904-23.905h457.921
			c13.039,0,23.905,10.556,23.905,23.905S972.033,991.308,958.684,991.308z M501.073,952.5c-8.382,0-14.901,6.83-14.901,14.902
			c0,8.071,6.83,14.901,14.901,14.901h457.921c8.382,0,14.901-6.83,14.901-14.901c0-8.072-6.829-14.902-14.901-14.902H501.073z"/>
	</g>
	<g display="inline">
		<path fill="#1D5E8B" d="M729.879,692.34c64.885,0,117.662-52.777,117.662-117.662c0-64.886-52.777-117.663-117.662-117.663
			c-64.886,0-117.663,52.777-117.663,117.663C612.216,639.563,664.994,692.34,729.879,692.34z M729.879,496.132
			c43.463,0,78.855,35.393,78.855,78.855c0,43.464-35.393,78.545-78.855,78.545c-43.464,0-78.855-35.392-78.855-78.545
			C651.023,531.524,686.415,496.132,729.879,496.132z"/>
		<path fill="#1D5E8B" d="M729.879,696.996c-67.369,0-122.009-54.64-122.009-122.009c0-67.368,54.64-122.008,122.009-122.008
			c67.368,0,122.009,54.64,122.009,122.008C851.888,642.356,797.247,696.996,729.879,696.996z M729.879,461.982
			c-62.401,0-113.006,50.604-113.006,113.005s50.604,113.006,113.006,113.006s113.005-50.604,113.005-113.006
			S792.28,461.982,729.879,461.982z M729.879,658.189c-45.947,0-83.202-37.255-83.202-83.202s37.255-83.201,83.202-83.201
			s83.201,37.254,83.201,83.201S775.826,658.189,729.879,658.189z M729.879,500.789c-40.98,0-74.199,33.219-74.199,74.198
			c0,40.98,33.219,74.199,74.199,74.199c40.979,0,74.198-33.219,74.198-74.199C804.077,534.008,770.858,500.789,729.879,500.789z"/>
	</g>
</g>
<g display="none">
	<path display="inline" fill="#1D5E8B" d="M1415.673,1452.021c-21.732-22.663-50.915-43.152-89.722-62.091
		c-74.509-36.634-178.201-65.506-299.278-83.512c-5.898-0.932-12.107,0.621-16.765,4.346c-4.967,3.726-8.071,9.004-9.003,14.902
		c-1.862,12.418,6.83,23.905,19.248,25.768c115.489,17.075,217.318,45.326,286.55,79.166c32.598,16.144,59.297,34.149,76.683,52.777
		c16.144,16.765,23.904,32.908,23.904,49.052c0,22.353-15.522,45.016-45.637,67.679c-32.598,24.526-82.271,47.811-143.43,67.059
		c-128.528,40.67-306.108,63.954-488.034,63.954c-181.927,0-359.507-23.284-488.035-63.954
		c-61.159-19.559-110.832-42.532-143.43-67.059c-30.425-22.663-45.637-45.637-45.637-67.679c0-16.144,7.762-31.977,23.905-49.052
		c17.385-18.317,44.084-36.634,76.682-52.777c68.921-33.84,170.75-62.091,286.55-79.166c13.039-1.242,22.353-12.418,21.11-24.836
		c-1.241-11.798-10.865-20.49-22.663-20.49c-0.311,0-0.931,0-1.241,0h-0.311c-0.932,0-2.174,0-3.104,0.311
		c-121.698,18.006-225.39,46.878-299.899,83.512c-38.807,18.938-68.3,39.428-89.721,62.091
		c-16.454,17.386-36.323,45.327-36.323,80.098c0,46.568,34.771,82.271,64.264,104.313c37.565,28.252,88.79,52.156,156.469,73.578
		c133.496,42.532,311.696,66.127,500.764,66.127c189.066,0,367.268-23.595,501.694-66.127
		c67.679-21.422,118.904-45.637,156.469-73.578c29.183-22.042,64.265-57.744,64.265-104.313
		C1451.996,1497.658,1432.127,1469.407,1415.673,1452.021z"/>
	<path display="inline" fill="#1D5E8B" d="M566.89,1320.699c63.333,104.003,117.973,193.724,141.257,262.645
		c3.726,12.108,16.454,18.938,28.563,14.902c6.83-2.174,12.418-7.762,14.591-14.592c23.284-69.231,77.925-158.952,141.257-262.955
		c28.252-46.258,58.055-94.999,86.928-145.603c88.79-153.986,179.442-337.465,179.442-529.325
		c-0.311-232.841-192.792-421.908-429.358-421.908S300.52,412.931,300.52,645.771c0,191.86,90.653,375.34,179.443,529.325
		C508.835,1225.7,538.639,1274.441,566.89,1320.699z M729.568,268.879c211.729,0,384.032,168.887,384.032,376.582
		c0,182.857-92.516,367.268-173.233,507.282c-27.631,48.121-56.192,94.379-83.513,139.084
		c-43.464,71.095-84.754,138.152-115.179,199.933l-12.107,24.216l-12.107-24.216c-30.114-61.78-71.405-128.839-115.179-199.933
		c-27.32-44.705-55.882-90.963-83.513-139.083c-80.718-140.326-173.233-324.426-173.233-507.283
		C345.536,438.077,517.838,268.879,729.568,268.879z"/>
	<path display="inline" fill="#1D5E8B" d="M729.568,867.125c124.492,0,225.39-99.345,225.39-221.664
		c0-122.63-101.208-222.285-225.39-222.285c-124.492,0-225.701,99.655-225.701,222.285
		C504.178,767.78,605.076,867.125,729.568,867.125z M729.568,468.502c99.346,0,180.374,79.477,180.374,176.959
		c0,97.172-81.028,176.338-180.374,176.338s-180.374-79.166-180.374-176.338C549.194,547.979,630.223,468.502,729.568,468.502z"/>
</g>
<g display="none">
	<path display="inline" fill="#1D5E8B" d="M569.053,976.364c-1.032-0.1-2.074-0.17-3.106-0.301
		c-3.177-0.381-6.303-0.972-9.159-2.505c-0.871-0.471-1.713-1.082-2.415-1.784c-1.622-1.633-1.553-3.616,0.071-5.271
		c1.143-1.161,2.545-1.912,4.059-2.435c1.332-0.461,2.705-0.791,4.067-1.172c0.171-0.05,0.341-0.08,0.572-0.131
		c-0.111-0.149-0.19-0.26-0.281-0.37c-1.894-2.254-3.828-4.478-5.681-6.763c-8.538-10.501-2.716-26.413,10.59-28.928
		c0.682-0.131,1.383-0.21,2.064-0.311c0.882,0,1.753,0,2.635,0c1.053,0.19,2.105,0.381,3.157,0.582c0.211,0.04,0.41,0.101,0.61,0.17
		c0.461,0.161,0.7,0.561,0.602,0.981c-0.111,0.451-0.501,0.712-1.012,0.611c-0.603-0.12-1.204-0.3-1.804-0.411
		c-8.929-1.613-17.515,4.379-18.988,13.306c-0.792,4.82,0.37,9.188,3.467,12.965c3.266,3.989,6.633,7.896,9.959,11.834
		c0.281,0.342,0.561,0.672,0.853,1.002c1.042,1.212,2.584,1.232,3.616,0.011c2.015-2.365,4.007-4.75,6.013-7.125
		c1.622-1.923,3.276-3.837,4.859-5.791c2.344-2.896,3.506-6.222,3.596-9.939c0-0.081,0-0.161,0-0.241
		c0.029-0.542,0.362-0.892,0.842-0.882c0.482,0,0.813,0.36,0.823,0.902c0.009,1.603-0.21,3.176-0.642,4.719
		c-0.711,2.595-1.964,4.91-3.697,6.964c-3.477,4.108-6.945,8.226-10.411,12.344c-1.853,2.195-4.56,2.185-6.413-0.021
		c-1.001-1.191-2.034-2.375-3.017-3.587c-0.32-0.4-0.61-0.551-1.132-0.44c-2.304,0.472-4.568,1.021-6.623,2.204
		c-0.601,0.341-1.163,0.791-1.644,1.283c-0.842,0.871-0.871,1.863-0.009,2.725c0.621,0.622,1.362,1.163,2.145,1.573
		c2.193,1.163,4.588,1.703,7.023,2.085c3.095,0.48,6.212,0.601,9.339,0.39c3.517-0.239,6.982-0.761,10.219-2.273
		c0.842-0.392,1.654-0.933,2.345-1.553c1.103-0.983,1.063-2.085,0.031-3.137c-0.893-0.902-2.006-1.434-3.146-1.914
		c-0.211-0.09-0.432-0.15-0.632-0.26c-0.381-0.201-0.532-0.611-0.392-0.992c0.142-0.401,0.512-0.672,0.922-0.532
		c2.054,0.712,3.988,1.634,5.2,3.558c0.802,1.272,0.642,2.686-0.36,3.938c-1.081,1.354-2.555,2.135-4.118,2.776
		c-2.504,1.021-5.131,1.542-7.794,1.843c-1.005,0.11-2.006,0.201-3.008,0.291C571.849,976.364,570.456,976.364,569.053,976.364z"/>
	<path display="inline" fill="#1D5E8B" d="M571.118,952.586c-4.59-0.01-8.307-3.737-8.297-8.326
		c0.009-4.549,3.747-8.266,8.306-8.266c4.58,0,8.296,3.737,8.285,8.327C579.404,948.889,575.675,952.597,571.118,952.586z
		 M571.107,937.667c-3.667,0.011-6.643,2.996-6.623,6.654c0.01,3.657,3.005,6.623,6.673,6.603c3.675-0.021,6.603-2.986,6.592-6.674
		C577.731,940.613,574.753,937.657,571.107,937.667z"/>
	<path display="inline" fill="#1D5E8B" d="M585.186,929.962c2.604,0.02,4.858,0.912,6.742,2.705c0.221,0.21,0.381,0.581,0.381,0.872
		c0,0.221-0.29,0.571-0.512,0.611c-0.279,0.06-0.7-0.041-0.911-0.23c-0.9-0.802-1.862-1.483-3.016-1.844
		c-3.026-0.962-5.772-0.411-8.176,1.684c-0.071,0.06-0.141,0.14-0.21,0.2c-0.402,0.351-0.893,0.36-1.223,0.02
		c-0.33-0.341-0.341-0.872,0.08-1.203c0.802-0.631,1.604-1.283,2.485-1.773C582.17,930.263,583.65,929.952,585.186,929.962z"/>
	<path display="inline" fill="#1D5E8B" d="M585.124,934.331c1.454,0.02,2.735,0.491,3.799,1.503
		c0.399,0.381,0.439,0.852,0.141,1.213c-0.322,0.37-0.853,0.41-1.254,0.01c-1.412-1.393-3.797-1.413-5.24,0
		c-0.389,0.38-0.893,0.351-1.212,0.01c-0.331-0.351-0.28-0.861,0.119-1.252C582.42,934.902,583.741,934.361,585.124,934.331z"/>
	<path display="inline" fill="#1D5E8B" d="M585.204,938.188c0.863,0,1.545,0.691,1.545,1.553c0,0.852-0.692,1.563-1.534,1.563
		c-0.851,0.01-1.594-0.741-1.572-1.593C583.65,938.87,584.344,938.188,585.204,938.188z"/>
</g>
<g>
	<path fill="#1D5E8B" d="M679.513,975.056h-0.011c-4.229,0-7.999,2-10.324,5.465c-2.345,3.486-2.774,7.769-1.162,11.737
		c2.46,6.094,6.701,10.983,10.889,15.371c0.147,0.167,0.377,0.345,0.596,0.345l0,0c0.21,0,0.482-0.167,0.754-0.45
		c1.466-1.538,2.722-2.941,3.854-4.303c2.607-3.131,5.485-6.953,7.13-11.528c1.393-3.884,0.838-8.031-1.509-11.381
		C687.345,976.972,683.639,975.056,679.513,975.056z M689.858,990.583c-1.288,4.115-3.759,7.445-6.606,11.057
		c-0.607,0.765-1.257,1.507-1.928,2.304c-0.304,0.355-0.618,0.722-0.942,1.089l-0.848,0.994l-0.858-0.974
		c-3.288-3.728-6.649-7.874-8.921-12.753c-1.686-3.633-1.445-7.528,0.669-10.69c2.116-3.172,5.759-5.057,9.508-4.911
		c3.392,0.125,6.471,1.801,8.45,4.607C690.308,984.04,690.853,987.421,689.858,990.583z"/>
	<path fill="#1D5E8B" d="M679.492,982.877c-0.021,0-0.031,0-0.063,0c-2.565,0.031-4.659,2.146-4.648,4.732
		c0,1.257,0.503,2.44,1.393,3.33c0.911,0.89,2.125,1.414,3.393,1.382c2.534-0.021,4.659-2.188,4.639-4.733
		c-0.011-1.267-0.514-2.46-1.415-3.361C681.911,983.359,680.738,982.877,679.492,982.877z M679.523,990.667
		C679.523,990.667,679.513,990.667,679.523,990.667c-0.838,0-1.644-0.346-2.219-0.953c-0.587-0.607-0.891-1.435-0.859-2.252
		c0.073-1.644,1.445-2.952,3.068-2.952c0.021,0,0.063,0,0.083,0c1.675,0.042,3.015,1.445,2.983,3.12
		C682.571,989.296,681.178,990.657,679.523,990.667z"/>
	<path fill="#1D5E8B" d="M728.725,1002.405c-4.418-4.408-8.838-8.817-13.235-13.246c-0.732-0.744-1.57-1.079-2.627-1.079
		c-0.012,0-0.012,0-0.022,0c-4.396,0.01-8.784,0.01-13.183,0.01h-5.036v1.299h5.519v16.627h1.288v-16.491l0.356-0.095
		c0.146-0.042,0.24-0.073,0.345-0.073h1.268c3.246,0,6.491-0.01,9.717,0.011c0.398,0,0.816,0.146,1.067,0.387
		c0.461,0.419,0.921,0.859,1.404,1.361l1.466,1.424h-5.979c-1.403,0-2.063,0.66-2.063,2.073c0,3.1,0,6.219,0,9.319
		c0,1.498,0.639,2.136,2.115,2.136h16.805v9.277c0,0.932-0.523,1.57-1.371,1.644c-0.607,0.063-1.194,0.042-1.781,0.031
		c-0.24,0-0.491-0.01-0.721-0.01h-0.39l-0.082-0.377c-0.816-3.729-3.455-6.146-6.89-6.283c-1.708-0.073-3.257,0.389-4.618,1.361
		c-1.623,1.162-2.629,2.807-2.994,4.88l-0.073,0.387h-16.501l-0.084-0.377c-0.933-4.606-4.461-6.251-7.205-6.261
		c-0.01,0-0.021,0-0.041,0c-3.612,0-6.209,2.22-7.298,6.261l-0.01,0.21l-0.209,0.094c-0.063,0.032-0.168,0.095-0.315,0.095h-0.136
		c-0.555,0.011-1.1,0.011-1.665,0.011c-1.361,0-1.927-0.587-1.927-1.928v-6.522v-2.639h-1.319v2.837c0,2.178,0,4.346,0,6.523
		c0,1.822,1.194,3.026,3.026,3.037c0.493,0,0.974,0,1.466,0h1.079l0.063,0.397c0.23,1.55,0.911,2.88,2.104,4.209l0.713,0.796H663.43
		V1025h9.8c14.346,0,28.7,0,43.055-0.021c0.943,0,1.989-0.21,2.921-0.606c2.409-0.984,3.853-2.839,4.42-5.676l0.073-0.388h2.398
		c2,0,3.149-1.162,3.161-3.183v-3.665c0-2.607,0-5.204,0.011-7.821C729.259,1003.147,729.101,1002.771,728.725,1002.405z
		 M685.229,1023.712c-0.011,0-0.011,0-0.021,0c-1.612,0-3.141-0.627-4.282-1.77c-1.152-1.151-1.781-2.68-1.781-4.313
		c0.011-3.298,2.713-5.989,6.021-5.989l0,0c1.613,0,3.13,0.629,4.282,1.77c1.142,1.142,1.771,2.659,1.771,4.282
		C691.22,1021,688.528,1023.702,685.229,1023.712z M689.596,1023.66l0.755-0.796c1.13-1.184,1.811-2.533,2.084-4.125l0.073-0.398
		h16.543l0.072,0.398c0.273,1.58,0.954,2.932,2.084,4.125l0.754,0.796H689.596z M720.621,1021.942
		c-1.142,1.143-2.66,1.77-4.282,1.77c-0.012,0-0.012,0-0.022,0c-3.299-0.01-5.988-2.722-5.988-6.021c0-1.611,0.628-3.13,1.769-4.282
		c1.142-1.141,2.66-1.77,4.262-1.77c3.309,0,6.021,2.681,6.031,5.989C722.4,1019.252,721.773,1020.791,720.621,1021.942z
		 M710.349,1004.75v-10.858l0.618-0.041c0.146-0.011,0.303-0.021,0.449-0.021h1.257c1.624,0,3.245-0.01,4.869,0.021
		c0.449,0.01,0.975,0.22,1.277,0.523c2.66,2.628,5.477,5.445,8.617,8.618c0.209,0.209,0.325,0.46,0.449,0.732
		c0.043,0.116,0.104,0.23,0.179,0.356l0.378,0.701h-18.094V1004.75z"/>
	<rect x="705.741" y="1009.273" fill="#1D5E8B" width="3.435" height="1.204"/>
	<path fill="#1D5E8B" d="M685.198,1016.529c-0.627,0-1.141,0.514-1.141,1.142c0,0.701,0.514,1.204,1.141,1.204
		c0.628,0,1.142-0.513,1.142-1.142C686.328,1017.032,685.826,1016.529,685.198,1016.529z"/>
	<path fill="#1D5E8B" d="M716.243,1016.529c-0.628,0-1.142,0.514-1.142,1.142c0,0.701,0.514,1.204,1.142,1.204
		c0.629,0,1.142-0.513,1.142-1.142C717.385,1017.032,716.872,1016.529,716.243,1016.529z"/>
</g>
</svg>
