<?xml version="1.0" encoding="utf-8"?>
<!-- Generator: Adobe Illustrator 15.1.0, SVG Export Plug-In  -->
<!DOCTYPE svg PUBLIC "-//W3C//DTD SVG 1.1//EN" "http://www.w3.org/Graphics/SVG/1.1/DTD/svg11.dtd" [
	<!ENTITY ns_flows "http://ns.adobe.com/Flows/1.0/">
]>
<svg version="1.1"
	 xmlns="http://www.w3.org/2000/svg" xmlns:xlink="http://www.w3.org/1999/xlink" xmlns:a="http://ns.adobe.com/AdobeSVGViewerExtensions/3.0/"
	 x="0px" y="0px" width="63px" height="53px" viewBox="0 0 63 53" enable-background="new 0 0 63 53" xml:space="preserve">
<defs>
</defs>
<path fill="#1F5F8C" d="M23.14,11.465c-0.611,0-1.187,0.269-1.581,0.737l-4.489,5.337c-0.297,0.351-0.466,0.778-0.487,1.235
	l-0.003,20.79c0,1.139,0.927,2.065,2.065,2.065h20.689c0.027-0.006,0.429,0.004,0.916-0.214c0.141-0.063,0.447-0.304,0.61-0.446
	l5.039-4.521c0.437-0.391,0.687-0.951,0.687-1.537V13.53c0-1.139-0.928-2.065-2.066-2.065H23.14z M39.834,40.064H18.146V18.376
	h5.524v12.003c0,0.789,0.46,1.521,1.171,1.861c0.711,0.345,1.568,0.244,2.186-0.248l1.963-1.571l1.964,1.571
	c0.617,0.494,1.475,0.592,2.186,0.249c0.711-0.342,1.17-1.072,1.17-1.862V18.376h5.525V40.064z M25.236,31.419V18.376h7.509v13.043
	l-3.755-3.002L25.236,31.419z M40.268,16.789l-20.54,0.021l3.178-3.78h21.008L40.268,16.789z M45.02,35.135l-3.619,3.246
	l-0.017-20.493l3.636-3.748V35.135z"/>
<path fill="#1F5F8C" d="M57.844,25.993c-0.297-0.295-0.812-0.295-1.107,0l-5.094,5.093c-0.147,0.147-0.229,0.345-0.229,0.554
	c0,0.21,0.081,0.406,0.229,0.554c0.296,0.295,0.811,0.295,1.107,0l3.789-3.789l-0.194,1.464
	c-1.644,12.347-12.288,21.659-24.763,21.66c-10.979,0-20.559-7.036-23.84-17.51c-0.095-0.31-0.358-0.523-0.671-0.555l-0.081,0.001
	c-0.246,0-0.481,0.118-0.628,0.316c-0.146,0.197-0.192,0.457-0.121,0.693c3.482,11.134,13.667,18.618,25.341,18.618
	c13.561,0,24.903-10.15,26.387-23.611l0.114-1.035l3.747,3.747c0.147,0.147,0.344,0.229,0.553,0.229c0.21,0,0.406-0.082,0.555-0.229
	c0.146-0.147,0.229-0.344,0.229-0.554c0-0.209-0.082-0.406-0.229-0.554L57.844,25.993z"/>
<path fill="#1F5F8C" d="M11.523,20.9c-0.295-0.294-0.811-0.295-1.107,0l-3.79,3.79l0.195-1.464
	c1.643-12.348,12.288-21.66,24.762-21.66c10.98,0,20.561,7.036,23.841,17.508c0.095,0.31,0.358,0.523,0.671,0.555l0.08-0.001
	c0.247,0,0.481-0.118,0.629-0.315c0.146-0.198,0.192-0.457,0.121-0.693C53.442,7.484,43.258,0,31.583,0
	C18.024,0,6.681,10.151,5.197,23.612l-0.114,1.035L1.335,20.9c-0.147-0.147-0.344-0.229-0.554-0.229
	c-0.209,0-0.405,0.082-0.553,0.229c-0.305,0.306-0.305,0.802,0,1.107l5.093,5.093c0.297,0.296,0.812,0.295,1.107,0l5.094-5.093
	C11.828,21.702,11.828,21.206,11.523,20.9z"/>
</svg>
