<?xml version="1.0" encoding="utf-8"?>
<!-- Generator: Adobe Illustrator 15.1.0, SVG Export Plug-In  -->
<!DOCTYPE svg PUBLIC "-//W3C//DTD SVG 1.1//EN" "http://www.w3.org/Graphics/SVG/1.1/DTD/svg11.dtd" [
	<!ENTITY ns_flows "http://ns.adobe.com/Flows/1.0/">
]>
<svg version="1.1"
	 xmlns="http://www.w3.org/2000/svg" xmlns:xlink="http://www.w3.org/1999/xlink" xmlns:a="http://ns.adobe.com/AdobeSVGViewerExtensions/3.0/"
	 x="0px" y="0px" width="52px" height="53px" viewBox="0 0 52 53" enable-background="new 0 0 52 53" xml:space="preserve">
<defs>
</defs>
<path fill="#1F5F8C" d="M51.795,47.883c-0.108-1.36-0.799-2.608-1.893-3.423l-7.947-5.926l0.139-0.354
	c0.936-2.404,0.88-5.03-0.158-7.394c-1.039-2.362-2.936-4.18-5.34-5.116c-2.406-0.938-5.031-0.88-7.395,0.157
	c-2.362,1.039-4.18,2.936-5.116,5.341c-0.937,2.404-0.88,5.03,0.157,7.394c1.039,2.363,2.936,4.18,5.34,5.116
	c2.355,0.916,4.935,0.881,7.264-0.102l0.35-0.147l6.158,7.774c0.848,1.069,2.114,1.723,3.477,1.792L47.07,53
	c2.613,0,4.74-2.127,4.74-4.741C51.811,48.134,51.805,48.008,51.795,47.883L51.795,47.883z M33.088,42.769c-0.001,0-0.002,0-0.004,0
	c-2.113,0-4.113-0.812-5.631-2.285l0.348-0.358l-0.348,0.357c-1.551-1.504-2.422-3.521-2.454-5.682
	c-0.032-2.159,0.778-4.202,2.282-5.753c1.506-1.552,3.525-2.423,5.688-2.453h0.121c2.16,0.001,4.19,0.842,5.717,2.37
	c1.527,1.527,2.368,3.559,2.367,5.719c0,2.16-0.842,4.191-2.37,5.719C37.276,41.928,35.247,42.769,33.088,42.769z M49.609,50.153
	c-0.082,0.109-0.17,0.214-0.266,0.312c-0.592,0.618-1.404,0.964-2.252,0.964c-0.063,0-0.125-0.002-0.188-0.006
	c-0.906-0.046-1.752-0.483-2.318-1.2l-6.018-7.596l0.408-0.308c0.369-0.279,0.72-0.587,1.043-0.914
	c0.313-0.326,0.609-0.686,0.881-1.063l0.297-0.414l7.766,5.793C50.363,46.766,50.652,48.754,49.609,50.153z"/>
<path fill="#1F5F8C" d="M32.375,18.814l-2.686-0.002l-5.552-8.042c-0.149-0.217-0.395-0.342-0.659-0.34
	c-0.256,0-0.486,0.122-0.628,0.329l-6.288,8.96l-3.641-4.418c-0.144-0.175-0.356-0.279-0.583-0.286
	c-0.238-0.029-0.445,0.082-0.598,0.247L7.101,20.23H4.527c-0.434,0-0.787,0.353-0.787,0.786s0.353,0.786,0.787,0.786h2.916
	c0,0,0.001,0,0.002,0c0.219,0,0.428-0.091,0.576-0.249l4.256-4.56l3.729,4.524c0.134,0.163,0.322,0.264,0.531,0.283
	c0.213,0.021,0.413-0.042,0.576-0.176c0.055-0.045,0.103-0.097,0.144-0.155l6.229-8.875l5.145,7.451
	c0.146,0.213,0.389,0.34,0.648,0.34h3.098c0.434,0,0.787-0.353,0.787-0.786S32.809,18.814,32.375,18.814z"/>
<path fill="#1F5F8C" d="M3.172,37.625c-0.881-0.001-1.599-0.72-1.599-1.602V3.173c0-0.882,0.719-1.6,1.6-1.6H33.73
	c0.881,0,1.599,0.718,1.599,1.6v18.919c0.532,0.094,1.058,0.221,1.573,0.381v-19.3C36.9,1.425,35.478,0.002,33.729,0H3.173
	C1.425,0.002,0.001,1.425,0,3.173v32.851c0.001,1.748,1.425,3.172,3.174,3.174h17.933c-0.193-0.513-0.353-1.039-0.478-1.572H3.172z"
	/>
</svg>
