<?xml version="1.0" encoding="utf-8"?>
<!-- Generator: Adobe Illustrator 15.1.0, SVG Export Plug-In  -->
<!DOCTYPE svg PUBLIC "-//W3C//DTD SVG 1.1//EN" "http://www.w3.org/Graphics/SVG/1.1/DTD/svg11.dtd" [
	<!ENTITY ns_flows "http://ns.adobe.com/Flows/1.0/">
]>
<svg version="1.1"
	 xmlns="http://www.w3.org/2000/svg" xmlns:xlink="http://www.w3.org/1999/xlink" xmlns:a="http://ns.adobe.com/AdobeSVGViewerExtensions/3.0/"
	 x="0px" y="0px" width="48px" height="40px" viewBox="-3 -0.3 48 40" enable-background="new -3 -0.3 48 40" xml:space="preserve">
<defs>
</defs>
<path fill="#19499A" d="M38.1,8c-2.1,0-3.9,1.7-3.9,3.9c0,0.4,0,0.8,0.2,1.1l-4.8,2.3c-0.9-1.6-2.4-3-4.1-3.8l3-7.8h0
	c1,0,1.8-0.8,1.8-1.8S29.6,0,28.6,0c-1,0-1.8,0.8-1.8,1.8c0,0.5,0.2,1,0.6,1.3l-3,7.8c-0.8-0.3-1.8-0.4-2.7-0.4
	c-1.4,0-2.8,0.3-4.1,0.9l-1.7-2.9c0.6-0.6,0.9-1.3,0.9-2.1c0-1.6-1.3-2.9-2.9-2.9c-1.6,0-2.9,1.3-2.9,2.9c0,1.6,1.3,2.9,2.9,2.9
	c0.3,0,0.6,0,0.9-0.1l1.7,2.9c-1.3,0.9-2.4,2.1-3.1,3.6l-2.2-0.9c0-0.2,0-0.3,0-0.5c-0.1-1.1-1.2-1.9-2.3-1.7
	c-0.5,0.1-1,0.4-1.3,0.8c-0.3,0.4-0.5,1-0.4,1.5c0.1,0.5,0.4,1,0.8,1.3c0.4,0.3,0.7,0.4,1.2,0.4c0.1,0,0.2,0,0.3,0
	c0.5,0,0.8-0.3,1.1-0.6l2.2,0.9c-0.3,0.9-0.5,1.9-0.5,2.8c0,1.2,0.2,2.3,0.7,3.4l-4.6,2.1c-0.8-1.3-2.2-2.1-3.9-2.1
	c-2.5,0-4.6,2.1-4.6,4.7c0,2.6,2.1,4.6,4.6,4.6c2.6,0,4.6-2.1,4.6-4.6c0-0.5-0.1-0.9-0.2-1.4l4.6-2.2c0.9,1.6,2.4,3,4.1,3.8l-3,7.7
	c-0.8,0-1.6,0.7-1.7,1.6c0,0.5,0.1,0.9,0.4,1.3c0.3,0.4,0.7,0.6,1.2,0.7c0,0,0.1,0,0.2,0c0.9,0,1.7-0.7,1.8-1.6
	c0.1-0.7-0.2-1.2-0.7-1.6l3-7.6c0.8,0.3,1.8,0.4,2.7,0.4c1.4,0,2.8-0.3,4.1-0.9l2.1,3.6c-0.6,0.6-0.9,1.3-0.9,2.1
	c0,1.6,1.3,2.9,2.9,2.9c1.6,0,2.9-1.3,2.9-2.9c0-1.6-1.3-2.9-2.9-2.9c-0.3,0-0.6,0-0.9,0.1l-2-3.5c1.3-0.9,2.3-2.1,3-3.4l2.9,1.2
	c0,0.1,0,0.2,0,0.3c0.1,0.5,0.4,1,0.8,1.3c0.4,0.3,0.7,0.4,1.2,0.4c0.1,0,0.2,0,0.3,0c1.1-0.1,1.9-1.2,1.7-2.3
	c-0.1-0.5-0.4-1-0.8-1.3c-0.4-0.3-1-0.5-1.5-0.4c-0.5,0.1-1,0.3-1.3,0.7l-2.8-1.2c0.3-0.9,0.5-2,0.5-3c0-1.2-0.2-2.3-0.7-3.4
	l4.8-2.4c0.7,0.9,1.8,1.6,3.1,1.6c2.1,0,3.9-1.7,3.9-3.9C41.9,9.7,40.2,8,38.1,8z M29.1,1.8c0,0.3-0.2,0.5-0.5,0.5
	c-0.3,0-0.5-0.2-0.5-0.5s0.2-0.5,0.5-0.5C28.9,1.3,29.1,1.5,29.1,1.8z M15.5,6.4c0,0.9-0.7,1.6-1.6,1.6c-0.9,0-1.6-0.7-1.6-1.6
	c0-0.9,0.7-1.6,1.6-1.6C14.8,4.7,15.5,5.4,15.5,6.4z M9.9,14.4c0,0.4-0.2,0.7-0.6,0.8c-0.4,0-0.7-0.2-0.8-0.6c0-0.4,0.2-0.7,0.6-0.8
	c0,0,0,0,0.1,0C9.5,13.8,9.8,14.1,9.9,14.4z M8,27.9c0,1.8-1.5,3.4-3.4,3.4c-1.8,0-3.4-1.5-3.4-3.4c0-1.8,1.5-3.4,3.4-3.4
	C6.5,24.5,8,26,8,27.9z M14.3,37.5c0-0.3,0.2-0.5,0.5-0.5h0c0.1,0,0.2,0.1,0.3,0.2c0.1,0.1,0.1,0.2,0.1,0.4l0,0
	c0,0.3-0.3,0.5-0.6,0.5c-0.1,0-0.2-0.1-0.3-0.2C14.3,37.8,14.3,37.7,14.3,37.5z M31.4,33.7c0,0.9-0.7,1.6-1.6,1.6
	c-0.9,0-1.6-0.7-1.6-1.6c0-0.9,0.7-1.6,1.6-1.6S31.4,32.8,31.4,33.7z M34.2,24.7c0.1-0.1,0.3-0.2,0.5-0.3c0,0,0,0,0.1,0
	c0.1,0,0.3,0,0.4,0.1c0.1,0.1,0.2,0.3,0.3,0.5c0,0.4-0.2,0.7-0.6,0.8c-0.4,0-0.7-0.2-0.8-0.6C34,25.1,34.1,24.9,34.2,24.7z
	 M29.5,19.7c0,4.4-3.5,7.9-7.9,7.9c-4.4,0-7.9-3.5-7.9-7.9c0-4.4,3.5-7.9,7.9-7.9C26,11.8,29.5,15.4,29.5,19.7z M38.1,14.3
	c-1.4,0-2.6-1.2-2.6-2.6s1.2-2.6,2.6-2.6s2.6,1.2,2.6,2.6C40.6,13.2,39.5,14.3,38.1,14.3z"/>
</svg>
