<?xml version="1.0" encoding="utf-8"?>
<!-- Generator: Adobe Illustrator 15.1.0, SVG Export Plug-In  -->
<!DOCTYPE svg PUBLIC "-//W3C//DTD SVG 1.1//EN" "http://www.w3.org/Graphics/SVG/1.1/DTD/svg11.dtd" [
	<!ENTITY ns_flows "http://ns.adobe.com/Flows/1.0/">
]>
<svg version="1.1"
	 xmlns="http://www.w3.org/2000/svg" xmlns:xlink="http://www.w3.org/1999/xlink" xmlns:a="http://ns.adobe.com/AdobeSVGViewerExtensions/3.0/"
	 x="0px" y="0px" width="41px" height="44px" viewBox="0 0 41 44" enable-background="new 0 0 41 44" xml:space="preserve">
<defs>
</defs>
<path fill="#1F5F8C" d="M39.69,34.611c-0.608-0.643-1.437-1.217-2.531-1.754c-2.102-1.031-5.019-1.844-8.438-2.352
	c-0.168-0.024-0.338,0.017-0.476,0.118s-0.228,0.251-0.252,0.42c-0.052,0.349,0.189,0.675,0.538,0.727
	c3.259,0.484,6.126,1.276,8.072,2.23c0.922,0.452,1.668,0.965,2.161,1.485c0.452,0.477,0.672,0.928,0.672,1.38
	c0,0.628-0.433,1.271-1.288,1.911c-0.92,0.689-2.318,1.344-4.046,1.891c-3.618,1.146-8.63,1.803-13.748,1.803
	s-10.13-0.657-13.749-1.803c-1.726-0.547-3.125-1.2-4.045-1.891c-0.855-0.64-1.289-1.283-1.289-1.911c0-0.452,0.22-0.903,0.672-1.38
	c0.493-0.521,1.24-1.034,2.161-1.485c1.947-0.954,4.814-1.746,8.073-2.23c0.37-0.036,0.627-0.35,0.594-0.701
	c-0.032-0.33-0.308-0.577-0.635-0.577c-0.013,0-0.026,0.001-0.039,0.001l-0.007,0.001c-0.03,0.001-0.06,0.004-0.089,0.01
	c-3.432,0.51-6.35,1.322-8.451,2.354c-1.094,0.537-1.922,1.111-2.531,1.754C0.554,35.103,0,35.892,0,36.866
	c0,1.31,0.984,2.32,1.809,2.938c1.058,0.792,2.5,1.472,4.407,2.076c3.792,1.201,8.813,1.862,14.139,1.862s10.347-0.661,14.138-1.862
	c1.908-0.604,3.35-1.284,4.408-2.076c0.825-0.618,1.809-1.629,1.809-2.938C40.709,35.892,40.155,35.103,39.69,34.611z"/>
<path fill="#1F5F8C" d="M15.77,30.906c1.785,2.928,3.326,5.456,3.977,7.404c0.107,0.34,0.467,0.529,0.801,0.42
	c0.197-0.063,0.352-0.217,0.414-0.414c0.652-1.954,2.193-4.482,3.979-7.41c0.795-1.303,1.633-2.679,2.453-4.103
	c2.498-4.342,5.053-9.51,5.053-14.918C32.446,5.332,27.022,0,20.355,0S8.264,5.332,8.264,11.886c0,5.408,2.554,10.576,5.053,14.918
	C14.136,28.228,14.975,29.604,15.77,30.906z M20.355,1.272c5.966,0,10.819,4.761,10.819,10.613c0,5.15-2.611,10.346-4.885,14.297
	c-0.782,1.357-1.582,2.66-2.355,3.92c-1.229,2.003-2.39,3.894-3.242,5.633l-0.337,0.687l-0.337-0.687
	c-0.853-1.738-2.014-3.629-3.242-5.631c-0.773-1.261-1.574-2.563-2.355-3.922c-2.274-3.95-4.884-9.146-4.884-14.297
	C9.536,6.033,14.389,1.272,20.355,1.272z"/>
<path fill="#1F5F8C" d="M20.355,18.131c3.505,0,6.355-2.802,6.355-6.245c0-3.452-2.851-6.261-6.355-6.261s-6.356,2.809-6.356,6.261
	C13.999,15.329,16.85,18.131,20.355,18.131z M20.355,6.897c2.803,0,5.083,2.237,5.083,4.988c0,2.742-2.28,4.973-5.083,4.973
	c-2.804,0-5.084-2.23-5.084-4.973C15.271,9.135,17.551,6.897,20.355,6.897z"/>
</svg>
