<?xml version="1.0" encoding="utf-8"?>
<!-- Generator: Adobe Illustrator 25.2.3, SVG Export Plug-In . SVG Version: 6.00 Build 0)  -->
<svg version="1.1" id="Layer_1" xmlns="http://www.w3.org/2000/svg" xmlns:xlink="http://www.w3.org/1999/xlink" x="0px" y="0px"
	 viewBox="0 0 44 50" style="enable-background:new 0 0 44 50;" xml:space="preserve">
<style type="text/css">
	.st0{display:none;}
	.st1{display:inline;}
	.st2{fill:#1D5E8B;}
	.st3{display:inline;fill:#1D5E8B;}
</style>
<g class="st0">
	<g class="st1">
		<path class="st2" d="M45.63,6.47h-5.27c-0.35,0-0.63,0.28-0.63,0.63s0.28,0.63,0.63,0.63h5.27c0.82,0,1.48,0.66,1.48,1.48v23.6
			H-0.09V9.2c0-0.82,0.66-1.48,1.48-1.48h5.27c0.35,0,0.63-0.28,0.63-0.63S7,6.47,6.66,6.47H1.39c-1.51,0-2.73,1.23-2.73,2.73v29.5
			c0,1.51,1.23,2.73,2.73,2.73h13.07v3.59c0.1,1.87-1.35,3.49-3.24,3.59c-0.12,0.01-0.25,0.01-0.37,0c-0.32,0-0.6,0.28-0.6,0.63
			s0.28,0.63,0.62,0.63h25.28c0.34,0,0.62-0.28,0.62-0.63s-0.28-0.62-0.62-0.62c-1.87,0.09-3.49-1.35-3.59-3.24
			c-0.01-0.12-0.01-0.25,0-0.37l0-3.57h13.07c1.51,0,2.73-1.23,2.73-2.73V9.2C48.36,7.69,47.14,6.47,45.63,6.47z M32.62,48.61H14.39
			l0.43-0.66c0.57-0.87,0.88-1.89,0.89-2.93v-3.58h15.6v2.96h-6.75c-0.35,0-0.63,0.28-0.63,0.62s0.28,0.63,0.63,0.63h6.78l0.05,0.37
			c0.1,0.69,0.36,1.35,0.76,1.92L32.62,48.61z M47.11,38.7c0,0.82-0.66,1.48-1.48,1.48H1.39c-0.82,0-1.48-0.66-1.48-1.48v-4.64
			h47.21V38.7z"/>
		<path class="st2" d="M36.15,50H10.87c-0.42,0-0.77-0.34-0.77-0.77c0-0.41,0.34-0.77,0.74-0.77c0.13,0.01,0.24,0.01,0.36,0
			c0.87-0.05,1.68-0.43,2.27-1.09c0.59-0.65,0.88-1.49,0.84-2.35v-3.45H1.39c-1.59,0-2.87-1.29-2.87-2.87V9.2
			c0-1.59,1.29-2.87,2.87-2.87h5.27c0.42,0,0.77,0.34,0.77,0.77S7.08,7.86,6.66,7.86H1.39c-0.74,0-1.34,0.6-1.34,1.34v23.46h46.92
			V9.2c0-0.74-0.6-1.34-1.34-1.34h-5.27c-0.42,0-0.77-0.34-0.77-0.77s0.34-0.77,0.77-0.77h5.27c1.59,0,2.88,1.29,2.88,2.87v29.5
			c0,1.59-1.29,2.87-2.88,2.87H32.71l0,3.42c-0.01,0.12-0.01,0.25,0,0.36c0.1,1.8,1.64,3.21,3.44,3.1c0,0,0,0,0,0
			c0.43,0,0.77,0.34,0.77,0.77C36.92,49.66,36.57,50,36.15,50z M10.84,48.75c-0.24,0-0.45,0.22-0.45,0.48
			c0,0.27,0.22,0.48,0.48,0.48h25.28c0.27,0,0.48-0.22,0.48-0.48c0-0.27-0.22-0.48-0.48-0.48c-1.95,0.11-3.62-1.41-3.73-3.38
			c-0.01-0.13-0.01-0.26,0-0.39l0-3.7h13.21c1.43,0,2.59-1.16,2.59-2.59V9.2c0-1.43-1.16-2.59-2.59-2.59h-5.27
			c-0.27,0-0.48,0.22-0.48,0.48c0,0.27,0.22,0.48,0.48,0.48h5.27c0.9,0,1.62,0.73,1.62,1.62v23.75H-0.24V9.2
			c0-0.9,0.73-1.62,1.62-1.62h5.27c0.27,0,0.48-0.22,0.48-0.48c0-0.27-0.22-0.48-0.48-0.48H1.39c-1.43,0-2.59,1.16-2.59,2.59v29.5
			c0,1.43,1.16,2.59,2.59,2.59H14.6v3.73c0.05,0.93-0.27,1.84-0.91,2.55c-0.64,0.71-1.51,1.13-2.46,1.18
			C11.09,48.76,10.97,48.76,10.84,48.75z M32.9,48.75H14.12l0.58-0.88c0.56-0.85,0.86-1.84,0.87-2.85v-3.73h15.89v3.25h-6.89
			c-0.27,0-0.48,0.22-0.48,0.48c0,0.27,0.22,0.48,0.48,0.48h6.9l0.07,0.49c0.1,0.67,0.35,1.31,0.74,1.86L32.9,48.75z M14.65,48.46
			h17.7l-0.31-0.45c-0.41-0.59-0.68-1.27-0.78-1.98l-0.04-0.24h-6.65c-0.42,0-0.77-0.34-0.77-0.77c0-0.42,0.34-0.77,0.77-0.77h6.61
			v-2.68H15.85v3.44c-0.01,1.07-0.33,2.11-0.91,3.01L14.65,48.46z M45.63,40.32H1.39c-0.9,0-1.62-0.73-1.62-1.62v-4.78h47.49v4.78
			C47.26,39.59,46.53,40.32,45.63,40.32z M0.05,34.2v4.5c0,0.74,0.6,1.34,1.34,1.34h44.24c0.74,0,1.34-0.6,1.34-1.34v-4.5H0.05z"/>
	</g>
	<g class="st1">
		<path class="st2" d="M8.76,29.84h29.5c0.34,0,0.62-0.28,0.62-0.63c0-0.34-0.28-0.63-0.62-0.63h-1.48V0.77
			c0-0.17-0.06-0.33-0.18-0.44c-0.12-0.12-0.28-0.18-0.44-0.19c-0.17,0-0.33,0.07-0.44,0.19l-2.72,2.73l-2.72-2.73
			c-0.24-0.24-0.64-0.24-0.88,0l-2.73,2.73l-2.72-2.73c-0.24-0.24-0.64-0.24-0.88,0l-2.73,2.73l-2.72-2.73
			c-0.24-0.24-0.64-0.24-0.88,0l-2.73,2.73l-2.72-2.73c-0.12-0.12-0.25-0.18-0.44-0.19c-0.17,0-0.32,0.06-0.44,0.18
			c-0.12,0.12-0.19,0.28-0.19,0.45v27.82H8.76c-0.34,0-0.62,0.28-0.62,0.63C8.14,29.56,8.42,29.84,8.76,29.84z M11.49,2.28
			l2.09,2.09c0.24,0.24,0.64,0.24,0.88,0l2.73-2.72l2.71,2.72c0.24,0.24,0.64,0.24,0.88,0l2.72-2.72l2.71,2.72
			c0.24,0.24,0.64,0.24,0.88,0l2.73-2.72l2.71,2.72c0.24,0.24,0.64,0.24,0.88,0l2.1-2.08v26.31H11.49V2.28z"/>
		<path class="st2" d="M38.26,29.99H8.76c-0.42,0-0.77-0.34-0.77-0.77s0.34-0.77,0.77-0.77h1.34V0.77c0-0.2,0.08-0.4,0.23-0.55
			C10.47,0.08,10.66,0,10.87,0c0.24,0.01,0.4,0.08,0.55,0.23l2.61,2.63l2.62-2.62c0.3-0.3,0.78-0.3,1.08,0l2.61,2.63l2.62-2.62
			c0.3-0.3,0.78-0.3,1.08,0l2.61,2.63l2.62-2.62c0.3-0.3,0.78-0.3,1.08,0l2.62,2.63l2.62-2.63C35.75,0.08,35.95,0,36.15,0
			c0.23,0.01,0.41,0.09,0.55,0.23c0.14,0.14,0.22,0.34,0.22,0.55v27.67h1.34c0.42,0,0.77,0.34,0.77,0.77S38.68,29.99,38.26,29.99z
			 M8.76,28.73c-0.27,0-0.48,0.22-0.48,0.48c0,0.27,0.22,0.48,0.48,0.48h29.5c0.27,0,0.48-0.22,0.48-0.48
			c0-0.27-0.22-0.48-0.48-0.48h-1.62V0.77c0-0.13-0.05-0.25-0.14-0.34c-0.08-0.09-0.2-0.13-0.35-0.14c-0.12,0-0.24,0.05-0.33,0.14
			l-2.82,2.83l-2.82-2.83c-0.19-0.19-0.49-0.18-0.68,0l-2.83,2.83l-2.82-2.83c-0.19-0.19-0.49-0.18-0.68,0l-2.83,2.83l-2.82-2.83
			c-0.19-0.19-0.49-0.18-0.68,0l-2.83,2.83l-2.82-2.83c-0.09-0.09-0.19-0.13-0.35-0.14c-0.12,0-0.24,0.05-0.33,0.14
			c-0.09,0.09-0.14,0.22-0.14,0.34v27.96H8.76z M35.67,28.73H11.35V1.93l2.33,2.33c0.19,0.18,0.49,0.19,0.68,0l2.83-2.82l2.82,2.82
			c0.19,0.18,0.49,0.18,0.68,0l2.82-2.82l2.82,2.82c0.19,0.18,0.49,0.18,0.68,0l2.83-2.82l2.82,2.82c0.19,0.18,0.49,0.18,0.68,0
			l2.34-2.32V28.73z M11.64,28.45h23.75V2.63l-1.86,1.84c-0.3,0.29-0.78,0.3-1.08,0l-2.61-2.62l-2.62,2.61
			c-0.3,0.29-0.78,0.3-1.08,0l-2.61-2.62l-2.62,2.61c-0.3,0.29-0.78,0.3-1.08,0l-2.61-2.62l-2.62,2.61c-0.3,0.29-0.78,0.3-1.08,0
			l-1.85-1.85V28.45z"/>
	</g>
	<g class="st1">
		<path class="st2" d="M30.88,19.11H16.14c-0.35,0-0.63,0.28-0.63,0.63s0.28,0.63,0.63,0.63h14.75c0.35,0,0.63-0.28,0.63-0.63
			S31.23,19.11,30.88,19.11z"/>
		<path class="st2" d="M30.88,20.5H16.14c-0.42,0-0.77-0.34-0.77-0.77s0.34-0.77,0.77-0.77h14.75c0.42,0,0.77,0.34,0.77,0.77
			S31.31,20.5,30.88,20.5z M16.14,19.25c-0.27,0-0.48,0.22-0.48,0.48s0.22,0.48,0.48,0.48h14.75c0.27,0,0.48-0.22,0.48-0.48
			s-0.22-0.48-0.48-0.48H16.14z"/>
	</g>
	<g class="st1">
		<path class="st2" d="M30.88,23.32H16.14c-0.35,0-0.63,0.28-0.63,0.63c0,0.34,0.28,0.63,0.63,0.63h14.75
			c0.35,0,0.63-0.28,0.63-0.63C31.51,23.61,31.23,23.32,30.88,23.32z"/>
		<path class="st2" d="M30.88,24.72H16.14c-0.42,0-0.77-0.34-0.77-0.77s0.34-0.77,0.77-0.77h14.75c0.42,0,0.77,0.34,0.77,0.77
			S31.31,24.72,30.88,24.72z M16.14,23.47c-0.27,0-0.48,0.22-0.48,0.48s0.22,0.48,0.48,0.48h14.75c0.27,0,0.48-0.22,0.48-0.48
			s-0.22-0.48-0.48-0.48H16.14z"/>
	</g>
	<g class="st1">
		<path class="st2" d="M23.51,15.09c2.09,0,3.79-1.7,3.79-3.79s-1.7-3.79-3.79-3.79c-2.09,0-3.79,1.7-3.79,3.79
			S21.42,15.09,23.51,15.09z M23.51,8.77c1.4,0,2.54,1.14,2.54,2.54c0,1.4-1.14,2.53-2.54,2.53c-1.4,0-2.54-1.14-2.54-2.53
			C20.97,9.91,22.11,8.77,23.51,8.77z"/>
		<path class="st2" d="M23.51,15.24c-2.17,0-3.93-1.76-3.93-3.93s1.76-3.93,3.93-3.93c2.17,0,3.93,1.76,3.93,3.93
			S25.68,15.24,23.51,15.24z M23.51,7.67c-2.01,0-3.64,1.63-3.64,3.64s1.63,3.64,3.64,3.64s3.64-1.63,3.64-3.64
			S25.52,7.67,23.51,7.67z M23.51,13.99c-1.48,0-2.68-1.2-2.68-2.68s1.2-2.68,2.68-2.68c1.48,0,2.68,1.2,2.68,2.68
			S24.99,13.99,23.51,13.99z M23.51,8.92c-1.32,0-2.39,1.07-2.39,2.39s1.07,2.39,2.39,2.39c1.32,0,2.39-1.07,2.39-2.39
			S24.83,8.92,23.51,8.92z"/>
	</g>
</g>
<g class="st0">
	<path class="st3" d="M45.6,39.56c-0.7-0.73-1.64-1.39-2.89-2c-2.4-1.18-5.74-2.11-9.64-2.69c-0.19-0.03-0.39,0.02-0.54,0.14
		c-0.16,0.12-0.26,0.29-0.29,0.48c-0.06,0.4,0.22,0.77,0.62,0.83c3.72,0.55,7,1.46,9.23,2.55c1.05,0.52,1.91,1.1,2.47,1.7
		c0.52,0.54,0.77,1.06,0.77,1.58c0,0.72-0.5,1.45-1.47,2.18c-1.05,0.79-2.65,1.54-4.62,2.16c-4.14,1.31-9.86,2.06-15.72,2.06
		s-11.58-0.75-15.72-2.06c-1.97-0.63-3.57-1.37-4.62-2.16c-0.98-0.73-1.47-1.47-1.47-2.18c0-0.52,0.25-1.03,0.77-1.58
		c0.56-0.59,1.42-1.18,2.47-1.7c2.22-1.09,5.5-2,9.23-2.55c0.42-0.04,0.72-0.4,0.68-0.8c-0.04-0.38-0.35-0.66-0.73-0.66
		c-0.01,0-0.03,0-0.04,0l-0.01,0c-0.03,0-0.07,0-0.1,0.01c-3.92,0.58-7.26,1.51-9.66,2.69c-1.25,0.61-2.2,1.27-2.89,2
		c-0.53,0.56-1.17,1.46-1.17,2.58c0,1.5,1.12,2.65,2.07,3.36c1.21,0.91,2.86,1.68,5.04,2.37C11.67,49.24,17.41,50,23.5,50
		s11.83-0.76,16.16-2.13c2.18-0.69,3.83-1.47,5.04-2.37c0.94-0.71,2.07-1.86,2.07-3.36C46.77,41.03,46.13,40.12,45.6,39.56z"/>
	<path class="st3" d="M18.26,35.33c2.04,3.35,3.8,6.24,4.55,8.46c0.12,0.39,0.53,0.61,0.92,0.48c0.22-0.07,0.4-0.25,0.47-0.47
		c0.75-2.23,2.51-5.12,4.55-8.47c0.91-1.49,1.87-3.06,2.8-4.69c2.86-4.96,5.78-10.87,5.78-17.05C37.32,6.09,31.12,0,23.5,0
		S9.68,6.09,9.68,13.59c0,6.18,2.92,12.09,5.78,17.05C16.39,32.27,17.35,33.84,18.26,35.33z M23.5,1.45
		c6.82,0,12.37,5.44,12.37,12.13c0,5.89-2.98,11.83-5.58,16.34c-0.89,1.55-1.81,3.04-2.69,4.48c-1.4,2.29-2.73,4.45-3.71,6.44
		l-0.39,0.78l-0.39-0.78c-0.97-1.99-2.3-4.15-3.71-6.44c-0.88-1.44-1.8-2.93-2.69-4.48c-2.6-4.52-5.58-10.45-5.58-16.34
		C11.13,6.9,16.68,1.45,23.5,1.45z"/>
	<path class="st3" d="M23.5,20.72c4.01,0,7.26-3.2,7.26-7.14c0-3.95-3.26-7.16-7.26-7.16c-4.01,0-7.27,3.21-7.27,7.16
		C16.24,17.52,19.49,20.72,23.5,20.72z M23.5,7.88c3.2,0,5.81,2.56,5.81,5.7c0,3.13-2.61,5.68-5.81,5.68c-3.2,0-5.81-2.55-5.81-5.68
		C17.69,10.44,20.3,7.88,23.5,7.88z"/>
</g>
<g>
	<path class="st2" d="M18.32,49.94c-1.03-0.1-2.07-0.17-3.1-0.3c-3.17-0.38-6.29-0.97-9.14-2.5c-0.87-0.47-1.71-1.08-2.41-1.78
		c-1.62-1.63-1.55-3.61,0.07-5.26c1.14-1.16,2.54-1.91,4.05-2.43c1.33-0.46,2.7-0.79,4.06-1.17c0.17-0.05,0.34-0.08,0.57-0.13
		c-0.11-0.15-0.19-0.26-0.28-0.37c-1.89-2.25-3.82-4.47-5.67-6.75C-2.05,18.77,3.76,2.89,17.04,0.38c0.68-0.13,1.38-0.21,2.06-0.31
		c0.88,0,1.75,0,2.63,0c1.05,0.19,2.1,0.38,3.15,0.58c0.21,0.04,0.41,0.1,0.61,0.17c0.46,0.16,0.7,0.56,0.6,0.98
		c-0.11,0.45-0.5,0.71-1.01,0.61c-0.6-0.12-1.2-0.3-1.8-0.41C14.37,0.39,5.8,6.37,4.33,15.28c-0.79,4.81,0.37,9.17,3.46,12.94
		c3.26,3.98,6.62,7.88,9.94,11.81c0.28,0.34,0.56,0.67,0.85,1c1.04,1.21,2.58,1.23,3.61,0.01c2.01-2.36,4-4.74,6-7.11
		c1.62-1.92,3.27-3.83,4.85-5.78c2.34-2.89,3.5-6.21,3.59-9.92c0-0.08,0-0.16,0-0.24c0.03-0.54,0.36-0.89,0.84-0.88
		c0.48,0,0.81,0.36,0.82,0.9c0.01,1.6-0.21,3.17-0.64,4.71c-0.71,2.59-1.96,4.9-3.69,6.95c-3.47,4.1-6.93,8.21-10.39,12.32
		c-1.85,2.19-4.55,2.18-6.4-0.02c-1-1.19-2.03-2.37-3.01-3.58c-0.32-0.4-0.61-0.55-1.13-0.44c-2.3,0.47-4.56,1.02-6.61,2.2
		c-0.6,0.34-1.16,0.79-1.64,1.28c-0.84,0.87-0.87,1.86-0.01,2.72c0.62,0.62,1.36,1.16,2.14,1.57c2.19,1.16,4.58,1.7,7.01,2.08
		c3.09,0.48,6.2,0.6,9.32,0.39c3.51-0.24,6.97-0.76,10.2-2.27c0.84-0.39,1.65-0.93,2.34-1.55c1.1-0.98,1.06-2.08,0.03-3.13
		c-0.89-0.9-2-1.43-3.14-1.91c-0.21-0.09-0.43-0.15-0.63-0.26c-0.38-0.2-0.53-0.61-0.39-0.99c0.14-0.4,0.51-0.67,0.92-0.53
		c2.05,0.71,3.98,1.63,5.19,3.55c0.8,1.27,0.64,2.68-0.36,3.93c-1.08,1.35-2.55,2.13-4.11,2.77c-2.5,1.02-5.12,1.54-7.78,1.84
		c-1,0.11-2,0.2-3,0.29C21.11,49.94,19.72,49.94,18.32,49.94z"/>
	<path class="st2" d="M20.38,26.21c-4.58-0.01-8.29-3.73-8.28-8.31c0.01-4.54,3.74-8.25,8.29-8.25c4.57,0,8.28,3.73,8.27,8.31
		C28.65,22.52,24.93,26.22,20.38,26.21z M20.37,11.32c-3.66,0.01-6.63,2.99-6.61,6.64c0.01,3.65,3,6.61,6.66,6.59
		c3.67-0.02,6.59-2.98,6.58-6.66C26.98,14.26,24.01,11.31,20.37,11.32z"/>
	<path class="st2" d="M34.42,3.63c2.6,0.02,4.85,0.91,6.73,2.7c0.22,0.21,0.38,0.58,0.38,0.87c0,0.22-0.29,0.57-0.51,0.61
		c-0.28,0.06-0.7-0.04-0.91-0.23c-0.9-0.8-1.86-1.48-3.01-1.84c-3.02-0.96-5.76-0.41-8.16,1.68c-0.07,0.06-0.14,0.14-0.21,0.2
		c-0.4,0.35-0.89,0.36-1.22,0.02c-0.33-0.34-0.34-0.87,0.08-1.2c0.8-0.63,1.6-1.28,2.48-1.77C31.41,3.93,32.89,3.62,34.42,3.63z"/>
	<path class="st2" d="M34.36,7.99c1.45,0.02,2.73,0.49,3.79,1.5c0.4,0.38,0.44,0.85,0.14,1.21c-0.32,0.37-0.85,0.41-1.25,0.01
		c-1.41-1.39-3.79-1.41-5.23,0c-0.39,0.38-0.89,0.35-1.21,0.01c-0.33-0.35-0.28-0.86,0.12-1.25C31.66,8.56,32.98,8.02,34.36,7.99z"
		/>
	<path class="st2" d="M34.44,11.84c0.86,0,1.54,0.69,1.54,1.55c0,0.85-0.69,1.56-1.53,1.56c-0.85,0.01-1.59-0.74-1.57-1.59
		C32.89,12.52,33.58,11.84,34.44,11.84z"/>
</g>
</svg>
