<?xml version="1.0" encoding="utf-8"?>
<!-- Generator: Adobe Illustrator 15.1.0, SVG Export Plug-In . SVG Version: 6.00 Build 0)  -->
<!DOCTYPE svg PUBLIC "-//W3C//DTD SVG 1.1//EN" "http://www.w3.org/Graphics/SVG/1.1/DTD/svg11.dtd">
<svg version="1.1" id="Layer_1" xmlns="http://www.w3.org/2000/svg" xmlns:xlink="http://www.w3.org/1999/xlink" x="0px" y="0px"
	 width="30px" height="31px" viewBox="0 0 30 31" enable-background="new 0 0 30 31" xml:space="preserve">
<path fill="#1D5E8B" d="M11.974,29.539c-0.142,0-0.256-0.115-0.256-0.257v-5.75c0-0.142,0.114-0.257,0.256-0.257H14.8v-4.74H3.386
	v4.74h2.622c0.141,0,0.256,0.115,0.256,0.257v5.75c0,0.142-0.115,0.257-0.256,0.257H0.257C0.115,29.539,0,29.424,0,29.282v-5.75
	c0-0.142,0.115-0.257,0.257-0.257h2.616v-4.998c0-0.142,0.115-0.256,0.256-0.256H14.8v-3.318H4.432
	c-0.841,0-1.525-0.685-1.525-1.525V1.525C2.906,0.684,3.591,0,4.432,0h20.835c0.84,0,1.524,0.684,1.524,1.525v11.652
	c0,0.841-0.685,1.525-1.524,1.525h-9.955v3.319h11.255c0.143,0,0.258,0.113,0.258,0.256v4.921h2.615
	c0.143,0,0.258,0.114,0.258,0.256v5.752c0,0.142-0.115,0.256-0.258,0.256h-5.752c-0.141,0-0.256-0.114-0.256-0.256v-5.752
	c0-0.142,0.115-0.256,0.256-0.256h2.623v-4.664h-11v4.739h2.413c0.142,0,0.256,0.115,0.256,0.258v5.75
	c0,0.142-0.114,0.257-0.256,0.257L11.974,29.539L11.974,29.539z M12.229,29.025h5.239v-4.859l-0.379,0.378l0.001-0.756h-4.861
	V29.025z M0.513,29.025h5.238v-4.859l-0.378,0.378l0.004-0.756H0.513V29.025z M23.947,28.95h5.238v-5.238h-5.238V28.95z
	 M4.432,0.513c-0.559,0-1.013,0.454-1.013,1.013v11.652c0,0.559,0.454,1.013,1.013,1.013h20.835c0.559,0,1.012-0.454,1.012-1.013
	V1.525c0-0.559-0.453-1.013-1.012-1.013L4.432,0.513L4.432,0.513z"/>
<path fill="#1D5E8B" d="M11.318,3.92c-0.141,0-0.256-0.114-0.256-0.256s0.115-0.257,0.256-0.257h7.062
	c0.142,0,0.257,0.115,0.257,0.257S18.521,3.92,18.38,3.92H11.318z"/>
<path fill="#1D5E8B" d="M7.788,6.379c-0.141,0-0.256-0.115-0.256-0.257c0-0.141,0.115-0.256,0.256-0.256H21.91
	c0.141,0,0.256,0.115,0.256,0.256c0,0.142-0.115,0.257-0.256,0.257H7.788z"/>
<path fill="#1D5E8B" d="M7.788,8.837c-0.141,0-0.256-0.114-0.256-0.256s0.115-0.257,0.256-0.257H21.91
	c0.141,0,0.256,0.115,0.256,0.257s-0.115,0.256-0.256,0.256H7.788z"/>
<path fill="#1D5E8B" d="M11.318,11.296c-0.141,0-0.256-0.115-0.256-0.257c0-0.141,0.115-0.256,0.256-0.256h7.062
	c0.142,0,0.257,0.115,0.257,0.256c0,0.142-0.115,0.257-0.257,0.257H11.318z"/>
</svg>
