<?xml version="1.0" encoding="utf-8"?>
<!-- Generator: Adobe Illustrator 15.1.0, SVG Export Plug-In . SVG Version: 6.00 Build 0)  -->
<!DOCTYPE svg PUBLIC "-//W3C//DTD SVG 1.1//EN" "http://www.w3.org/Graphics/SVG/1.1/DTD/svg11.dtd">
<svg version="1.1" id="Layer_1" xmlns="http://www.w3.org/2000/svg" xmlns:xlink="http://www.w3.org/1999/xlink" x="0px" y="0px"
	 width="28px" height="31px" viewBox="0 0 28 31" enable-background="new 0 0 28 31" xml:space="preserve">
<circle fill="#1D5E8B" cx="4.16" cy="22.696" r="0.273"/>
<path fill="#1D5E8B" d="M23.298,28.855c-0.752,0-1.471-0.319-1.974-0.877l-6.239-6.957c-0.098-0.106-0.092-0.271,0.012-0.375
	l1.582-1.582l-1.645-1.645l-8.67,10.557c-0.442,0.56-1.105,0.879-1.819,0.879c-0.618,0-1.199-0.239-1.637-0.678l-2.23-2.229
	c-0.467-0.468-0.712-1.113-0.674-1.773c0.039-0.659,0.357-1.272,0.875-1.682l10.556-8.671L5.253,7.639l-1.352,1.35
	c-0.065,0.066-0.141,0.08-0.192,0.08c-0.084,0-0.162-0.038-0.214-0.104l-2.94-3.712c-0.087-0.108-0.078-0.264,0.02-0.361
	l2.316-2.317c0.051-0.052,0.12-0.08,0.193-0.08c0.043,0,0.108,0.011,0.169,0.06l3.712,2.94C7.048,5.56,7.066,5.647,7.068,5.693
	c0.002,0.045-0.004,0.134-0.08,0.209L5.639,7.253l6.221,6.221l3.147-2.585l-0.146-0.371c-0.404-1.011-0.532-2.12-0.373-3.208
	c0.195-1.329,0.803-2.535,1.756-3.487c0.906-0.907,2.051-1.504,3.31-1.727C19.913,2.032,20.28,2,20.646,2
	c0.873,0,1.723,0.181,2.523,0.537c0.113,0.051,0.146,0.147,0.156,0.2c0.01,0.053,0.014,0.154-0.074,0.242l-3.355,3.354
	c-0.351,0.352-0.351,0.923,0,1.273l1.354,1.353c0.17,0.17,0.396,0.264,0.638,0.264c0.239,0,0.467-0.094,0.637-0.264l3.354-3.354
	c0.064-0.065,0.141-0.079,0.189-0.079c0.088,0,0.199,0.042,0.252,0.161c0.507,1.137,0.658,2.388,0.441,3.617
	c-0.223,1.259-0.818,2.403-1.727,3.311c-0.952,0.953-2.158,1.56-3.487,1.755c-0.306,0.045-0.614,0.067-0.921,0.067l0,0
	c-0.787,0-1.557-0.147-2.287-0.439l-0.371-0.147l-2.585,3.148l1.683,1.681l1.537-1.537c0.053-0.054,0.121-0.08,0.193-0.08
	c0.047,0,0.117,0.012,0.182,0.067l6.977,6.175l0.018,0.016l0.012,0.008c0.541,0.49,0.851,1.162,0.871,1.893
	c0.021,0.74-0.254,1.434-0.774,1.955l-0.904,0.904C24.672,28.581,24.006,28.855,23.298,28.855z M1.224,22.917
	c-0.398,0.313-0.645,0.781-0.675,1.287c-0.03,0.504,0.158,1,0.517,1.356l2.23,2.23c0.335,0.336,0.78,0.52,1.251,0.52
	c0.547,0,1.055-0.246,1.394-0.678l8.856-10.781l0.004-0.006l0.007-0.006l2.887-3.514c0.052-0.063,0.129-0.1,0.211-0.1
	c0.044,0,0.086,0.01,0.125,0.03c0.808,0.419,1.711,0.64,2.611,0.64c1.51,0,2.934-0.592,4.008-1.667
	c1.299-1.298,1.889-3.16,1.578-4.981l-0.179-1.041l-3.14,3.139c-0.271,0.273-0.637,0.423-1.021,0.423
	c-0.387,0-0.75-0.149-1.023-0.423l-1.354-1.353c-0.563-0.563-0.563-1.481,0-2.045l3.141-3.14L21.61,2.631
	c-0.314-0.054-0.637-0.081-0.955-0.081c-1.506,0-2.973,0.604-4.026,1.657c-1.757,1.757-2.169,4.417-1.028,6.619
	c0.061,0.114,0.03,0.256-0.067,0.337l-3.51,2.884l-0.011,0.008l-0.011,0.008L1.224,22.917z M15.665,20.85l6.066,6.765
	c0.391,0.434,0.928,0.682,1.512,0.694c0.02,0.002,0.037,0.002,0.058,0.002c0.562,0,1.091-0.221,1.488-0.619l0.903-0.901
	c0.416-0.416,0.635-0.967,0.617-1.556c-0.018-0.586-0.268-1.123-0.705-1.514l-6.797-6.014L15.665,20.85z M1.133,5.105l2.6,3.281
	l2.654-2.654l-3.282-2.6L1.133,5.105z"/>
</svg>
