<?xml version="1.0" encoding="utf-8"?>
<!-- Generator: Adobe Illustrator 15.1.0, SVG Export Plug-In . SVG Version: 6.00 Build 0)  -->
<!DOCTYPE svg PUBLIC "-//W3C//DTD SVG 1.1//EN" "http://www.w3.org/Graphics/SVG/1.1/DTD/svg11.dtd">
<svg version="1.1" id="Layer_1" xmlns="http://www.w3.org/2000/svg" xmlns:xlink="http://www.w3.org/1999/xlink" x="0px" y="0px"
	 width="27px" height="27px" viewBox="0 0 27 27" enable-background="new 0 0 27 27" xml:space="preserve">
<path fill="#1D5E8B" d="M13.555,27.107c-3.624,0-7.028-1.408-9.587-3.967C1.409,20.583,0,17.178,0,13.555
	c0-3.624,1.409-7.028,3.968-9.587C6.527,1.409,9.931,0,13.555,0c3.623,0,7.027,1.409,9.585,3.968
	c2.56,2.559,3.969,5.963,3.969,9.587c0,3.623-1.409,7.027-3.967,9.585C20.582,25.699,17.178,27.107,13.555,27.107z M13.555,0.781
	c-7.043,0-12.773,5.729-12.773,12.773s5.73,12.773,12.773,12.773c7.042,0,12.772-5.729,12.772-12.773S20.598,0.781,13.555,0.781z"/>
<path fill="#1D5E8B" d="M13.555,19.623c-0.216,0-0.391-0.176-0.391-0.391v-7.186c0-0.215,0.175-0.39,0.391-0.39
	c0.215,0,0.39,0.175,0.39,0.39v7.186C13.945,19.447,13.77,19.623,13.555,19.623z"/>
<circle fill="#1D5E8B" cx="13.555" cy="8.688" r="0.781"/>
</svg>
