<?xml version="1.0" encoding="utf-8"?>
<!-- Generator: Adobe Illustrator 15.1.0, SVG Export Plug-In . SVG Version: 6.00 Build 0)  -->
<!DOCTYPE svg PUBLIC "-//W3C//DTD SVG 1.1//EN" "http://www.w3.org/Graphics/SVG/1.1/DTD/svg11.dtd">
<svg version="1.1" id="Layer_1" xmlns="http://www.w3.org/2000/svg" xmlns:xlink="http://www.w3.org/1999/xlink" x="0px" y="0px"
	 width="28px" height="31px" viewBox="0 0 28 31" enable-background="new 0 0 28 31" xml:space="preserve">
<path fill="#1D5E8B" d="M1.417,8.321C0.636,8.321,0,7.686,0,6.904V3.417C0,2.636,0.636,2,1.417,2h24.412
	c0.78,0,1.417,0.636,1.417,1.417v3.487c0,0.781-0.637,1.417-1.417,1.417H1.417z M1.417,2.509c-0.501,0-0.908,0.407-0.908,0.908
	v3.487c0,0.501,0.407,0.908,0.908,0.908h24.412c0.501,0,0.907-0.407,0.907-0.908V3.417c0-0.501-0.406-0.908-0.907-0.908H1.417z"/>
<path fill="#1D5E8B" d="M0.255,11.809C0.114,11.809,0,11.694,0,11.554c0-0.14,0.114-0.254,0.255-0.254h11.624
	c0.141,0,0.255,0.114,0.255,0.254c0,0.141-0.114,0.255-0.255,0.255H0.255z"/>
<path fill="#1D5E8B" d="M0.255,15.296C0.114,15.296,0,15.182,0,15.042c0-0.141,0.114-0.255,0.255-0.255h11.624
	c0.141,0,0.255,0.114,0.255,0.255c0,0.14-0.114,0.254-0.255,0.254H0.255z"/>
<path fill="#1D5E8B" d="M0.255,18.783C0.114,18.783,0,18.669,0,18.529c0-0.141,0.114-0.254,0.255-0.254h11.624
	c0.141,0,0.255,0.113,0.255,0.254s-0.114,0.254-0.255,0.254H0.255z"/>
<path fill="#1D5E8B" d="M0.255,22.271C0.114,22.271,0,22.156,0,22.018c0-0.142,0.114-0.254,0.255-0.254h11.624
	c0.141,0,0.255,0.112,0.255,0.254c0,0.139-0.114,0.254-0.255,0.254H0.255z"/>
<path fill="#1D5E8B" d="M0.255,25.757C0.114,25.757,0,25.645,0,25.503s0.114-0.254,0.255-0.254h11.624
	c0.141,0,0.255,0.112,0.255,0.254s-0.114,0.254-0.255,0.254H0.255z"/>
<path fill="#1D5E8B" d="M16.529,18.783c-0.781,0-1.418-0.635-1.418-1.416v-4.65c0-0.781,0.637-1.417,1.418-1.417h9.3
	c0.78,0,1.417,0.636,1.417,1.417v4.65c0,0.781-0.637,1.416-1.417,1.416H16.529z M16.529,11.809c-0.502,0-0.908,0.407-0.908,0.908
	v4.65c0,0.5,0.406,0.908,0.908,0.908h9.3c0.501,0,0.907-0.408,0.907-0.908v-4.65c0-0.501-0.406-0.908-0.907-0.908H16.529z"/>
<path fill="#1D5E8B" d="M16.529,29.246c-0.781,0-1.418-0.635-1.418-1.416v-4.65c0-0.781,0.637-1.416,1.418-1.416h9.3
	c0.78,0,1.417,0.635,1.417,1.416v4.65c0,0.781-0.637,1.416-1.417,1.416H16.529z M16.529,22.271c-0.502,0-0.908,0.408-0.908,0.908
	v4.649c0,0.5,0.406,0.907,0.908,0.907h9.3c0.501,0,0.907-0.407,0.907-0.907V23.18c0-0.5-0.406-0.908-0.907-0.908H16.529z"/>
<path fill="#1D5E8B" d="M0.255,29.246C0.114,29.246,0,29.132,0,28.992c0-0.141,0.114-0.254,0.255-0.254h11.624
	c0.141,0,0.255,0.113,0.255,0.254s-0.114,0.254-0.255,0.254H0.255z"/>
</svg>
