<?xml version="1.0" encoding="utf-8"?>
<!-- Generator: Adobe Illustrator 15.1.0, SVG Export Plug-In . SVG Version: 6.00 Build 0)  -->
<!DOCTYPE svg PUBLIC "-//W3C//DTD SVG 1.1//EN" "http://www.w3.org/Graphics/SVG/1.1/DTD/svg11.dtd">
<svg version="1.1" id="Layer_1" xmlns="http://www.w3.org/2000/svg" xmlns:xlink="http://www.w3.org/1999/xlink" x="0px" y="0px"
	 width="28px" height="29px" viewBox="0 0 28 29" enable-background="new 0 0 28 29" xml:space="preserve">
<path fill="#1D5E8B" d="M3.989,7.979C1.789,7.979,0,6.189,0,3.99C0,1.79,1.789,0,3.989,0c2.2,0,3.99,1.79,3.99,3.99
	C7.979,6.189,6.189,7.979,3.989,7.979z M3.989,0.513c-1.917,0-3.476,1.56-3.476,3.477s1.559,3.477,3.476,3.477
	c1.917,0,3.477-1.56,3.477-3.477S5.906,0.513,3.989,0.513z"/>
<path fill="#1D5E8B" d="M12.049,1.708c-0.149,0-0.271-0.121-0.271-0.27s0.121-0.271,0.271-0.271h15.473
	c0.149,0,0.271,0.122,0.271,0.271c0,0.148-0.121,0.27-0.271,0.27H12.049z"/>
<path fill="#1D5E8B" d="M12.049,6.431c-0.149,0-0.271-0.122-0.271-0.271c0-0.15,0.121-0.27,0.271-0.27h15.473
	c0.149,0,0.271,0.12,0.271,0.27c0,0.148-0.121,0.271-0.271,0.271H12.049z"/>
<path fill="#1D5E8B" d="M3.989,20.189c-2.2,0-3.989-1.791-3.989-3.99s1.789-3.989,3.989-3.989c2.2,0,3.99,1.789,3.99,3.988
	C7.979,18.398,6.189,20.189,3.989,20.189z M3.989,12.723c-1.917,0-3.476,1.561-3.476,3.476c0,1.918,1.559,3.477,3.476,3.477
	c1.917,0,3.477-1.559,3.477-3.477C7.466,14.284,5.906,12.723,3.989,12.723z"/>
<path fill="#1D5E8B" d="M12.049,13.919c-0.149,0-0.271-0.124-0.271-0.271c0-0.149,0.121-0.271,0.271-0.271h15.473
	c0.149,0,0.271,0.121,0.271,0.271c0,0.147-0.121,0.271-0.271,0.271H12.049z"/>
<path fill="#1D5E8B" d="M12.049,18.641c-0.149,0-0.271-0.121-0.271-0.271s0.121-0.271,0.271-0.271h15.473
	c0.149,0,0.271,0.121,0.271,0.271s-0.121,0.271-0.271,0.271H12.049z"/>
</svg>
