<?xml version="1.0" encoding="utf-8"?>
<!-- Generator: Adobe Illustrator 15.1.0, SVG Export Plug-In . SVG Version: 6.00 Build 0)  -->
<!DOCTYPE svg PUBLIC "-//W3C//DTD SVG 1.1//EN" "http://www.w3.org/Graphics/SVG/1.1/DTD/svg11.dtd">
<svg version="1.1" id="Layer_1" xmlns="http://www.w3.org/2000/svg" xmlns:xlink="http://www.w3.org/1999/xlink" x="0px" y="0px"
	 width="33px" height="31px" viewBox="0 0 33 31" enable-background="new 0 0 33 31" xml:space="preserve">
<path fill="#1D5E8B" d="M23.577,29.188c-0.196,0-0.39-0.024-0.576-0.073l-20.33-5.445c-1.194-0.328-1.912-1.571-1.597-2.771
	l2.564-9.56c0.034-0.125,0.149-0.213,0.281-0.213c0.025,0,0.05,0.003,0.075,0.01c0.07,0.019,0.132,0.065,0.17,0.133
	c0.039,0.066,0.049,0.144,0.029,0.218L1.63,21.045c-0.235,0.895,0.3,1.821,1.192,2.068l20.327,5.441
	c0.143,0.038,0.287,0.057,0.432,0.057c0.764,0,1.432-0.512,1.622-1.244l1.026-3.803c0.033-0.127,0.146-0.215,0.274-0.215
	c0.024,0,0.052,0.004,0.076,0.01c0.153,0.043,0.245,0.201,0.204,0.354l-1.025,3.8C25.498,28.5,24.602,29.188,23.577,29.188z"/>
<path fill="#1D5E8B" d="M8.518,21.298c-1.246,0-2.26-1.014-2.26-2.26V3.26C6.258,2.014,7.272,1,8.518,1h21.039
	c1.245,0,2.26,1.014,2.26,2.26v15.778c0,1.246-1.015,2.26-2.26,2.26H8.518z M8.518,1.575c-0.929,0-1.685,0.756-1.685,1.685v15.778
	c0,0.93,0.756,1.687,1.685,1.687h21.039c0.928,0,1.685-0.757,1.685-1.687V3.26c0-0.929-0.757-1.685-1.685-1.685H8.518z"/>
<path fill="#1D5E8B" d="M12.463,9.465c-1.246,0-2.26-1.014-2.26-2.26c0-1.247,1.014-2.261,2.26-2.261s2.26,1.014,2.26,2.261
	C14.723,8.451,13.709,9.465,12.463,9.465z M12.463,5.521c-0.929,0-1.685,0.755-1.685,1.685c0,0.929,0.755,1.685,1.685,1.685
	c0.93,0,1.685-0.756,1.685-1.685C14.148,6.275,13.392,5.521,12.463,5.521z"/>
<path fill="#1D5E8B" d="M6.638,19.893c-0.077,0-0.15-0.031-0.206-0.086c-0.111-0.111-0.111-0.293,0.001-0.404l6.21-6.21
	c0.286-0.286,0.699-0.45,1.133-0.45c0.435,0,0.847,0.164,1.133,0.45l2.135,2.135l5.376-6.451c0.303-0.362,0.748-0.573,1.223-0.577
	h0.01c0.469,0,0.912,0.203,1.218,0.559l6.877,8.023c0.05,0.059,0.073,0.133,0.067,0.208c-0.006,0.077-0.041,0.147-0.1,0.197
	c-0.066,0.058-0.139,0.069-0.188,0.069c-0.086,0-0.162-0.035-0.219-0.102L24.434,9.23c-0.197-0.228-0.469-0.354-0.767-0.357
	c-0.013-0.001-0.024-0.001-0.038-0.001c-0.266,0-0.587,0.156-0.766,0.371l-5.577,6.693c-0.052,0.062-0.127,0.1-0.208,0.103
	l-0.01,0.001c-0.006,0-0.012,0-0.018,0c-0.069,0-0.136-0.029-0.189-0.084l-2.359-2.358c-0.188-0.187-0.452-0.294-0.727-0.294
	c-0.273,0-0.538,0.107-0.726,0.293l-6.21,6.211C6.787,19.861,6.715,19.893,6.638,19.893z"/>
</svg>
