<?xml version="1.0" encoding="utf-8"?>
<!-- Generator: Adobe Illustrator 15.1.0, SVG Export Plug-In . SVG Version: 6.00 Build 0)  -->
<!DOCTYPE svg PUBLIC "-//W3C//DTD SVG 1.1//EN" "http://www.w3.org/Graphics/SVG/1.1/DTD/svg11.dtd">
<svg version="1.1" id="Layer_1" xmlns="http://www.w3.org/2000/svg" xmlns:xlink="http://www.w3.org/1999/xlink" x="0px" y="0px"
	 width="28px" height="34px" viewBox="0 0 28 34" enable-background="new 0 0 28 34" xml:space="preserve">
<path fill="#1D5E8B" d="M12.168,31.96c-0.146,0-0.265-0.119-0.265-0.267v-2.739l-0.302-0.082c-0.812-0.224-1.591-0.548-2.316-0.968
	l-0.272-0.157l-1.94,1.94c-0.049,0.049-0.116,0.076-0.186,0.076c-0.07,0-0.137-0.027-0.187-0.078l-2.872-2.871
	c-0.102-0.104-0.102-0.271,0.001-0.373l1.938-1.938L5.609,24.23c-0.42-0.729-0.745-1.512-0.967-2.323L4.56,21.604H1.82
	c-0.146,0-0.265-0.117-0.265-0.265v-1.763H0.266C0.119,19.577,0,19.458,0,19.313v-3.548c0-0.106,0.063-0.202,0.162-0.243
	l1.542-0.654v-1.171c-0.018-5.298,3.33-10.03,8.329-11.778l0.275-0.097V0.266C10.308,0.119,10.427,0,10.573,0h7.231
	c0.146,0,0.266,0.119,0.266,0.266v1.549l0.275,0.096c5,1.748,8.346,6.48,8.327,11.777v1.164l1.562,0.67
	c0.1,0.041,0.164,0.137,0.164,0.244v3.546c0,0.146-0.119,0.266-0.267,0.266h-1.289v1.763c0,0.146-0.118,0.265-0.266,0.265h-2.74
	l-0.082,0.304c-0.221,0.813-0.547,1.594-0.967,2.323l-0.158,0.271l1.94,1.939c0.103,0.103,0.103,0.27-0.002,0.373l-2.87,2.871
	c-0.05,0.049-0.115,0.076-0.187,0.076c-0.072,0-0.137-0.027-0.188-0.076l-1.939-1.939l-0.273,0.158
	c-0.727,0.419-1.508,0.744-2.321,0.967l-0.304,0.082v2.74c0,0.146-0.118,0.266-0.264,0.266L12.168,31.96L12.168,31.96z M8.969,27.13
	c0.051,0,0.101,0.015,0.144,0.043c0.952,0.619,1.999,1.056,3.111,1.294c0.124,0.026,0.212,0.139,0.209,0.266v2.718h3.526v-2.697
	c-0.004-0.127,0.084-0.237,0.209-0.267c1.111-0.237,2.158-0.674,3.111-1.293c0.043-0.027,0.094-0.043,0.145-0.043
	c0.07,0,0.137,0.027,0.188,0.078l1.904,1.903l2.517-2.499l-1.906-1.906c-0.088-0.088-0.103-0.228-0.035-0.33
	c0.619-0.953,1.056-2,1.296-3.111c0.024-0.121,0.135-0.21,0.258-0.21h2.682l-0.016-1.497h-6.955l-0.043,0.361
	c-0.287,2.361-2.138,4.213-4.5,4.498c-0.209,0.025-0.421,0.039-0.629,0.039c-2.601,0-4.799-1.951-5.113-4.537l-0.044-0.361H2.071
	v1.497h2.678c0.124,0,0.232,0.089,0.259,0.21c0.248,1.111,0.69,2.152,1.315,3.101c0.066,0.101,0.051,0.24-0.036,0.328l-1.905,1.905
	l2.494,2.494l1.906-1.906C8.831,27.157,8.897,27.13,8.969,27.13z M9.626,20.055c0.319,1.971,1.858,3.512,3.831,3.829
	c0.246,0.04,0.496,0.06,0.744,0.06c2.279,0,4.199-1.635,4.564-3.889l0.075-0.478H9.55L9.626,20.055z M9.745,2.58
	C5.171,4.398,2.225,8.754,2.24,13.676v1.351c0,0.107-0.063,0.202-0.161,0.244L0.523,15.94v3.107h27.351v-3.095l-1.554-0.667
	c-0.102-0.043-0.163-0.139-0.163-0.245v-1.352c0.02-4.929-2.931-9.29-7.513-11.108l-0.563-0.223v10.561
	c0,0.146-0.119,0.265-0.266,0.265h-7.246c-0.146,0-0.265-0.118-0.265-0.265V2.356L9.745,2.58z M10.838,12.653h6.702V0.537h-6.716
	L10.838,12.653z"/>
</svg>
