<?xml version="1.0" encoding="utf-8"?>
<!-- Generator: Adobe Illustrator 15.1.0, SVG Export Plug-In . SVG Version: 6.00 Build 0)  -->
<!DOCTYPE svg PUBLIC "-//W3C//DTD SVG 1.1//EN" "http://www.w3.org/Graphics/SVG/1.1/DTD/svg11.dtd">
<svg version="1.1" id="Layer_1" xmlns="http://www.w3.org/2000/svg" xmlns:xlink="http://www.w3.org/1999/xlink" x="0px" y="0px"
	 width="30px" height="31px" viewBox="0 0 30 31" enable-background="new 0 0 30 31" xml:space="preserve">
<path fill="#1D5E8B" d="M2.872,25.682C1.291,25.68,0.002,24.393,0,22.811V7.856c0.002-1.582,1.291-2.87,2.873-2.872h7.096V2.872
	C9.971,1.29,11.26,0.002,12.842,0h3.322c1.581,0.002,2.87,1.29,2.872,2.872v2.112h7.097c1.581,0.002,2.87,1.29,2.872,2.872v14.955
	c-0.002,1.582-1.291,2.869-2.873,2.871h0.001H2.872z M0.76,22.811c0.001,1.164,0.948,2.11,2.112,2.111h23.261
	c1.164-0.001,2.111-0.947,2.112-2.111v-8.76h-10.87v0.961H11.63v-0.961H0.76V22.811z M17.375,13.291h10.87V7.856
	c-0.001-1.164-0.948-2.111-2.111-2.112H2.872C1.708,5.745,0.761,6.692,0.76,7.855v5.436h10.87V12.33h5.745V13.291z M12.841,0.76
	c-1.164,0.001-2.111,0.948-2.112,2.111v2.113h7.548V2.872c-0.002-1.164-0.948-2.111-2.112-2.112H12.841z"/>
</svg>
