<?xml version="1.0" encoding="utf-8"?>
<!-- Generator: Adobe Illustrator 15.1.0, SVG Export Plug-In . SVG Version: 6.00 Build 0)  -->
<!DOCTYPE svg PUBLIC "-//W3C//DTD SVG 1.1//EN" "http://www.w3.org/Graphics/SVG/1.1/DTD/svg11.dtd">
<svg version="1.1" id="Layer_1" xmlns="http://www.w3.org/2000/svg" xmlns:xlink="http://www.w3.org/1999/xlink" x="0px" y="0px"
	 width="33px" height="33px" viewBox="0 0 33 33" enable-background="new 0 0 33 33" xml:space="preserve">
<g>
	<g>
		<path fill="#1D5E8B" d="M14.819,31.699c-1.35,0-2.447-1.098-2.447-2.445v-1.121l-0.401-0.127c-0.677-0.217-1.339-0.492-1.97-0.818
			l-0.376-0.192l-0.793,0.793c-0.461,0.461-1.074,0.717-1.726,0.717c-0.657,0-1.273-0.256-1.735-0.717l-1.457-1.459
			c-0.463-0.461-0.717-1.076-0.717-1.733c0-0.65,0.254-1.265,0.717-1.728l0.793-0.793L4.513,21.7
			c-0.326-0.632-0.602-1.293-0.817-1.97l-0.129-0.401h-1.12C1.098,19.328,0,18.23,0,16.881v-2.062c0-1.349,1.098-2.446,2.447-2.446
			h1.119l0.129-0.402c0.216-0.676,0.491-1.339,0.817-1.97l0.194-0.375L3.914,8.833C3.451,8.371,3.197,7.758,3.197,7.106
			c0-0.657,0.255-1.272,0.717-1.734l1.458-1.458c0.462-0.462,1.077-0.717,1.733-0.717c0.651,0,1.266,0.255,1.728,0.717l0.792,0.793
			l0.376-0.194c0.631-0.326,1.294-0.602,1.97-0.817l0.401-0.129v-1.12C12.372,1.099,13.47,0,14.819,0h2.063
			c1.349,0,2.446,1.099,2.446,2.447v1.119l0.4,0.129c0.678,0.216,1.34,0.491,1.972,0.817l0.375,0.194l0.793-0.793
			c0.462-0.462,1.073-0.717,1.728-0.717c0.655,0,1.271,0.255,1.733,0.717l1.457,1.458c0.463,0.462,0.717,1.077,0.717,1.733
			c0,0.652-0.254,1.266-0.717,1.728l-0.793,0.793L27.188,10c0.326,0.631,0.602,1.294,0.817,1.97l0.128,0.402h1.119
			c1.35,0,2.447,1.098,2.447,2.446v2.062c0,1.351-1.098,2.447-2.447,2.447h-1.119l-0.128,0.401c-0.217,0.676-0.491,1.338-0.817,1.97
			l-0.194,0.375l0.793,0.793c0.463,0.463,0.717,1.075,0.717,1.727c0,0.658-0.254,1.273-0.717,1.734l-1.457,1.459
			c-0.462,0.461-1.077,0.717-1.733,0.717c-0.652,0-1.266-0.256-1.728-0.717l-0.793-0.793L21.7,27.188
			c-0.632,0.326-1.294,0.603-1.972,0.818l-0.4,0.129v1.119c0,1.348-1.098,2.445-2.447,2.445H14.819z M9.575,26.121
			c0.064,0,0.125,0.018,0.188,0.055c0.967,0.572,2.006,1.004,3.091,1.283c0.17,0.043,0.289,0.197,0.289,0.373v1.422
			c0,0.924,0.752,1.676,1.677,1.676h2.063c0.924,0,1.678-0.752,1.678-1.676v-1.422c0-0.176,0.117-0.33,0.287-0.373
			c1.086-0.279,2.125-0.711,3.092-1.283c0.06-0.035,0.127-0.053,0.195-0.053c0.104,0,0.199,0.039,0.272,0.111l1.007,1.008
			c0.316,0.316,0.736,0.492,1.186,0.492c0.448,0,0.869-0.176,1.187-0.492l1.458-1.457c0.316-0.316,0.49-0.738,0.49-1.189
			c0-0.445-0.174-0.867-0.49-1.184l-1.008-1.006c-0.123-0.125-0.147-0.316-0.059-0.469c0.571-0.965,1.002-2.006,1.282-3.09
			c0.044-0.171,0.197-0.289,0.373-0.289h1.421c0.926,0,1.678-0.752,1.678-1.679v-2.062c0-0.925-0.752-1.677-1.678-1.677h-1.421
			c-0.176,0-0.329-0.119-0.373-0.289c-0.278-1.084-0.711-2.124-1.282-3.09c-0.09-0.151-0.064-0.345,0.059-0.469l1.008-1.007
			c0.316-0.316,0.49-0.737,0.49-1.185c0-0.449-0.174-0.87-0.49-1.187l-1.458-1.458c-0.315-0.317-0.738-0.491-1.188-0.491
			c-0.447,0-0.867,0.174-1.184,0.491l-1.007,1.007c-0.073,0.072-0.171,0.112-0.272,0.112c-0.068,0-0.137-0.019-0.195-0.054
			c-0.967-0.571-2.006-1.003-3.092-1.282c-0.17-0.044-0.287-0.197-0.287-0.373V2.447c0-0.925-0.754-1.677-1.678-1.677H14.82
			c-0.925,0-1.677,0.752-1.677,1.677v1.422c0,0.176-0.119,0.328-0.289,0.373c-1.085,0.279-2.124,0.711-3.091,1.282
			C9.704,5.56,9.636,5.578,9.567,5.578c-0.104,0-0.2-0.04-0.272-0.113L8.288,4.459C7.972,4.142,7.551,3.967,7.104,3.967
			c-0.449,0-0.871,0.175-1.188,0.492L4.458,5.916C4.142,6.232,3.967,6.654,3.967,7.104c0,0.446,0.175,0.867,0.491,1.184l1.007,1.007
			c0.125,0.124,0.149,0.316,0.06,0.469c-0.571,0.966-1.003,2.005-1.283,3.09c-0.044,0.17-0.197,0.289-0.372,0.289H2.447
			c-0.925,0-1.677,0.752-1.677,1.677v2.062c0,0.927,0.752,1.679,1.677,1.679h1.421c0.176,0,0.329,0.119,0.373,0.289
			c0.28,1.084,0.712,2.123,1.283,3.09c0.09,0.149,0.065,0.344-0.06,0.469l-1.007,1.006C4.141,23.73,3.966,24.152,3.966,24.6
			c0,0.449,0.175,0.869,0.491,1.187l1.458,1.459c0.316,0.315,0.738,0.489,1.188,0.489l0,0c0.447,0,0.868-0.174,1.185-0.489
			l1.007-1.009C9.35,26.18,9.461,26.121,9.575,26.121z"/>
		<path fill="#1D5E8B" d="M15.851,22.422c-3.623,0-6.571-2.949-6.571-6.571c0-3.623,2.948-6.571,6.571-6.571
			c3.624,0,6.57,2.948,6.57,6.571C22.421,19.473,19.475,22.422,15.851,22.422z M15.851,10.05c-3.199,0-5.801,2.603-5.801,5.801
			c0,3.198,2.602,5.799,5.801,5.799c3.198,0,5.801-2.602,5.801-5.799C21.652,12.653,19.049,10.05,15.851,10.05z"/>
		<path fill="#1D5E8B" d="M14.819,31.699c-1.35,0-2.447-1.098-2.447-2.445v-1.121l-0.401-0.127c-0.677-0.217-1.339-0.492-1.97-0.818
			l-0.376-0.192l-0.793,0.793c-0.461,0.461-1.074,0.717-1.726,0.717c-0.657,0-1.273-0.256-1.735-0.717l-1.457-1.459
			c-0.463-0.461-0.717-1.076-0.717-1.733c0-0.65,0.254-1.265,0.717-1.728l0.793-0.793L4.513,21.7
			c-0.326-0.632-0.602-1.293-0.817-1.97l-0.129-0.401h-1.12C1.098,19.328,0,18.23,0,16.881v-2.062c0-1.349,1.098-2.446,2.447-2.446
			h1.119l0.129-0.402c0.216-0.676,0.491-1.339,0.817-1.97l0.194-0.375L3.914,8.833C3.451,8.371,3.197,7.758,3.197,7.106
			c0-0.657,0.255-1.272,0.717-1.734l1.458-1.458c0.462-0.462,1.077-0.717,1.733-0.717c0.651,0,1.266,0.255,1.728,0.717l0.792,0.793
			l0.376-0.194c0.631-0.326,1.294-0.602,1.97-0.817l0.401-0.129v-1.12C12.372,1.099,13.47,0,14.819,0h2.063
			c1.349,0,2.446,1.099,2.446,2.447v1.119l0.4,0.129c0.678,0.216,1.34,0.491,1.972,0.817l0.375,0.194l0.793-0.793
			c0.462-0.462,1.073-0.717,1.728-0.717c0.655,0,1.271,0.255,1.733,0.717l1.457,1.458c0.463,0.462,0.717,1.077,0.717,1.733
			c0,0.652-0.254,1.266-0.717,1.728l-0.793,0.793L27.188,10c0.326,0.631,0.602,1.294,0.817,1.97l0.128,0.402h1.119
			c1.35,0,2.447,1.098,2.447,2.446v2.062c0,1.351-1.098,2.447-2.447,2.447h-1.119l-0.128,0.401c-0.217,0.676-0.491,1.338-0.817,1.97
			l-0.194,0.375l0.793,0.793c0.463,0.463,0.717,1.075,0.717,1.727c0,0.658-0.254,1.273-0.717,1.734l-1.457,1.459
			c-0.462,0.461-1.077,0.717-1.733,0.717c-0.652,0-1.266-0.256-1.728-0.717l-0.793-0.793L21.7,27.188
			c-0.632,0.326-1.294,0.603-1.972,0.818l-0.4,0.129v1.119c0,1.348-1.098,2.445-2.447,2.445H14.819z M9.575,26.121
			c0.064,0,0.125,0.018,0.188,0.055c0.967,0.572,2.006,1.004,3.091,1.283c0.17,0.043,0.289,0.197,0.289,0.373v1.422
			c0,0.924,0.752,1.676,1.677,1.676h2.063c0.924,0,1.678-0.752,1.678-1.676v-1.422c0-0.176,0.117-0.33,0.287-0.373
			c1.086-0.279,2.125-0.711,3.092-1.283c0.06-0.035,0.127-0.053,0.195-0.053c0.104,0,0.199,0.039,0.272,0.111l1.007,1.008
			c0.316,0.316,0.736,0.492,1.186,0.492c0.448,0,0.869-0.176,1.187-0.492l1.458-1.457c0.316-0.316,0.49-0.738,0.49-1.189
			c0-0.445-0.174-0.867-0.49-1.184l-1.008-1.006c-0.123-0.125-0.147-0.316-0.059-0.469c0.571-0.965,1.002-2.006,1.282-3.09
			c0.044-0.171,0.197-0.289,0.373-0.289h1.421c0.926,0,1.678-0.752,1.678-1.679v-2.062c0-0.925-0.752-1.677-1.678-1.677h-1.421
			c-0.176,0-0.329-0.119-0.373-0.289c-0.278-1.084-0.711-2.124-1.282-3.09c-0.09-0.151-0.064-0.345,0.059-0.469l1.008-1.007
			c0.316-0.316,0.49-0.737,0.49-1.185c0-0.449-0.174-0.87-0.49-1.187l-1.458-1.458c-0.315-0.317-0.738-0.491-1.188-0.491
			c-0.447,0-0.867,0.174-1.184,0.491l-1.007,1.007c-0.073,0.072-0.171,0.112-0.272,0.112c-0.068,0-0.137-0.019-0.195-0.054
			c-0.967-0.571-2.006-1.003-3.092-1.282c-0.17-0.044-0.287-0.197-0.287-0.373V2.447c0-0.925-0.754-1.677-1.678-1.677H14.82
			c-0.925,0-1.677,0.752-1.677,1.677v1.422c0,0.176-0.119,0.328-0.289,0.373c-1.085,0.279-2.124,0.711-3.091,1.282
			C9.704,5.56,9.636,5.578,9.567,5.578c-0.104,0-0.2-0.04-0.272-0.113L8.288,4.459C7.972,4.142,7.551,3.967,7.104,3.967
			c-0.449,0-0.871,0.175-1.188,0.492L4.458,5.916C4.142,6.232,3.967,6.654,3.967,7.104c0,0.446,0.175,0.867,0.491,1.184l1.007,1.007
			c0.125,0.124,0.149,0.316,0.06,0.469c-0.571,0.966-1.003,2.005-1.283,3.09c-0.044,0.17-0.197,0.289-0.372,0.289H2.447
			c-0.925,0-1.677,0.752-1.677,1.677v2.062c0,0.927,0.752,1.679,1.677,1.679h1.421c0.176,0,0.329,0.119,0.373,0.289
			c0.28,1.084,0.712,2.123,1.283,3.09c0.09,0.149,0.065,0.344-0.06,0.469l-1.007,1.006C4.141,23.73,3.966,24.152,3.966,24.6
			c0,0.449,0.175,0.869,0.491,1.187l1.458,1.459c0.316,0.315,0.738,0.489,1.188,0.489l0,0c0.447,0,0.868-0.174,1.185-0.489
			l1.007-1.009C9.35,26.18,9.461,26.121,9.575,26.121z"/>
		<path fill="#1D5E8B" d="M15.851,22.422c-3.623,0-6.571-2.949-6.571-6.571c0-3.623,2.948-6.571,6.571-6.571
			c3.624,0,6.57,2.948,6.57,6.571C22.421,19.473,19.475,22.422,15.851,22.422z M15.851,10.05c-3.199,0-5.801,2.603-5.801,5.801
			c0,3.198,2.602,5.799,5.801,5.799c3.198,0,5.801-2.602,5.801-5.799C21.652,12.653,19.049,10.05,15.851,10.05z"/>
	</g>
</g>
</svg>
