<?xml version="1.0" encoding="utf-8"?>
<!-- Generator: Adobe Illustrator 15.1.0, SVG Export Plug-In . SVG Version: 6.00 Build 0)  -->
<!DOCTYPE svg PUBLIC "-//W3C//DTD SVG 1.1//EN" "http://www.w3.org/Graphics/SVG/1.1/DTD/svg11.dtd">
<svg version="1.1" id="Layer_1" xmlns="http://www.w3.org/2000/svg" xmlns:xlink="http://www.w3.org/1999/xlink" x="0px" y="0px"
	 width="28px" height="29px" viewBox="0 0 28 29" enable-background="new 0 0 28 29" xml:space="preserve">
<path fill="#1D5E8B" d="M20.673,28.141c-4.116,0-7.466-3.35-7.466-7.467s3.35-7.467,7.466-7.467c4.117,0,7.468,3.35,7.468,7.467
	S24.791,28.141,20.673,28.141z M20.673,13.732c-3.827,0-6.941,3.114-6.941,6.942c0,3.826,3.114,6.941,6.941,6.941
	c3.828,0,6.94-3.115,6.94-6.941C27.615,16.846,24.501,13.732,20.673,13.732z"/>
<path fill="#1D5E8B" d="M19.473,23.338c-0.068,0-0.138-0.029-0.188-0.078l-2.397-2.4c-0.052-0.049-0.078-0.114-0.078-0.186
	c0-0.07,0.026-0.137,0.078-0.186c0.049-0.049,0.114-0.076,0.186-0.076c0.07,0,0.135,0.027,0.186,0.076l2.201,2.203l4.018-4.592
	c0.051-0.06,0.121-0.091,0.197-0.091c0.064,0,0.127,0.023,0.174,0.064c0.109,0.096,0.121,0.262,0.025,0.37l-4.203,4.804
	c-0.045,0.053-0.113,0.086-0.186,0.09L19.473,23.338L19.473,23.338z"/>
<path fill="#1D5E8B" d="M2.664,24.538C1.195,24.538,0,23.344,0,21.874V6.266c0-1.469,1.195-2.663,2.664-2.663h2.401
	c0.145,0,0.263,0.117,0.263,0.263c0,0.145-0.118,0.262-0.263,0.262H2.664c-1.18,0-2.139,0.96-2.139,2.139v15.608
	c0,1.18,0.959,2.139,2.139,2.139h8.404c0.145,0,0.263,0.119,0.263,0.264c0,0.146-0.118,0.263-0.263,0.263H2.664V24.538z"/>
<path fill="#1D5E8B" d="M19.473,10.131c-0.146,0-0.263-0.118-0.263-0.263V6.266c0-1.179-0.959-2.139-2.14-2.139h-2.4
	c-0.145,0-0.263-0.117-0.263-0.262c0-0.146,0.118-0.263,0.263-0.263h2.4c1.47,0,2.664,1.194,2.664,2.663v3.603
	C19.736,10.013,19.619,10.131,19.473,10.131z"/>
<path fill="#1D5E8B" d="M6.266,6.528c-0.807,0-1.463-0.656-1.463-1.463V2.664c0-0.145,0.118-0.263,0.262-0.263h2.137l0.055-0.27
	C7.51,0.896,8.607,0,9.868,0c1.261,0,2.358,0.896,2.611,2.132l0.055,0.27h2.137c0.146,0,0.263,0.118,0.263,0.263v2.401
	c0,0.807-0.657,1.463-1.463,1.463L6.266,6.528L6.266,6.528z M5.328,5.065c0,0.518,0.421,0.938,0.938,0.938h7.204
	c0.517,0,0.938-0.421,0.938-0.938V2.927h-2.139c-0.145,0-0.263-0.118-0.263-0.263c0-1.179-0.959-2.139-2.139-2.139
	c-1.18,0-2.139,0.96-2.139,2.139c0,0.145-0.118,0.263-0.262,0.263H5.328V5.065z"/>
<path fill="#1D5E8B" d="M3.864,10.131c-0.145,0-0.262-0.118-0.262-0.263S3.72,9.605,3.864,9.605H15.87
	c0.146,0,0.264,0.118,0.264,0.263s-0.118,0.263-0.264,0.263H3.864z"/>
<path fill="#1D5E8B" d="M3.864,13.732c-0.145,0-0.262-0.117-0.262-0.263c0-0.145,0.118-0.263,0.262-0.263h8.405
	c0.145,0,0.263,0.118,0.263,0.263c0,0.146-0.118,0.263-0.263,0.263H3.864z"/>
<path fill="#1D5E8B" d="M3.864,17.334c-0.145,0-0.262-0.117-0.262-0.262c0-0.146,0.118-0.264,0.262-0.264h6.003
	c0.145,0,0.263,0.116,0.263,0.264c0,0.145-0.118,0.262-0.263,0.262H3.864z"/>
</svg>
