<?xml version="1.0" encoding="utf-8"?>
<!-- Generator: Adobe Illustrator 15.1.0, SVG Export Plug-In . SVG Version: 6.00 Build 0)  -->
<!DOCTYPE svg PUBLIC "-//W3C//DTD SVG 1.1//EN" "http://www.w3.org/Graphics/SVG/1.1/DTD/svg11.dtd">
<svg version="1.1" id="Layer_1" xmlns="http://www.w3.org/2000/svg" xmlns:xlink="http://www.w3.org/1999/xlink" x="0px" y="0px"
	 width="28px" height="31px" viewBox="0 0 28 31" enable-background="new 0 0 28 31" xml:space="preserve">
<path fill="#1D5E8B" d="M14,30C7.933,30,2.996,25.063,2.996,18.995v-7.092h2.873V8.052c0-4.484,3.648-8.131,8.131-8.131
	c4.482,0,8.131,3.647,8.131,8.131v3.852h2.873v7.092C25.004,25.063,20.066,30,14,30z M3.607,18.995
	c0,5.73,4.662,10.394,10.393,10.394c5.73,0,10.393-4.663,10.393-10.394v-6.48H3.607V18.995z M14,0.532
	c-4.146,0-7.52,3.374-7.52,7.52v3.852h15.04V8.052C21.52,3.906,18.146,0.532,14,0.532z"/>
<path fill="#1D5E8B" d="M13.694,24.416v-2.709l-0.444-0.126c-1.179-0.334-2.001-1.424-2.001-2.646c0-1.518,1.234-2.75,2.751-2.75
	c1.518,0,2.751,1.232,2.751,2.75c0,1.225-0.823,2.313-2.001,2.646l-0.444,0.126v2.709H13.694z M14,16.795
	c-1.18,0-2.14,0.959-2.14,2.14c0,1.18,0.96,2.141,2.14,2.141s2.141-0.961,2.141-2.141C16.141,17.754,15.18,16.795,14,16.795z"/>
</svg>
