<?xml version="1.0" encoding="utf-8"?>
<!-- Generator: Adobe Illustrator 15.1.0, SVG Export Plug-In . SVG Version: 6.00 Build 0)  -->
<!DOCTYPE svg PUBLIC "-//W3C//DTD SVG 1.1//EN" "http://www.w3.org/Graphics/SVG/1.1/DTD/svg11.dtd">
<svg version="1.1" id="Layer_1" xmlns="http://www.w3.org/2000/svg" xmlns:xlink="http://www.w3.org/1999/xlink" x="0px" y="0px"
	 width="28px" height="29px" viewBox="0 0 28 29" enable-background="new 0 0 28 29" xml:space="preserve">
<path fill="#1D5E8B" d="M16.382,28.298c-1.296,0-2.351-1.055-2.351-2.35v-5.615l-1.425,1.301l-0.471-0.516l7.948-7.252l7.949,7.252
	l-0.47,0.516l-1.426-1.301v5.615c0,1.295-1.056,2.35-2.352,2.35H16.382z M14.729,19.697v6.252c0,0.912,0.74,1.652,1.652,1.652h7.405
	c0.911,0,1.653-0.74,1.653-1.652v-6.252l-5.356-4.886L14.729,19.697z M10.347,27.365c-0.952-0.822-2.892-2.576-4.853-4.826
	C1.848,18.352,0,14.638,0,11.499v-0.332C0,5.009,5.01,0,11.167,0c5.938,0,10.81,4.659,11.147,10.514l-0.767-0.699
	c-0.672-5.22-5.08-9.117-10.382-9.117c-5.773,0-10.47,4.697-10.47,10.469v0.332c0,2.608,1.384,5.681,4.113,9.132
	c1.989,2.516,4.225,4.635,5.536,5.803v0.932H10.347z M19.182,23.563v-1.867h1.865v1.867H19.182z M11.167,15.316
	c-2.288,0-4.149-1.86-4.149-4.149c0-2.288,1.861-4.149,4.149-4.149s4.149,1.861,4.149,4.149
	C15.316,13.456,13.455,15.316,11.167,15.316z M11.167,7.715c-1.904,0-3.452,1.549-3.452,3.452c0,1.904,1.548,3.453,3.452,3.453
	c1.903,0,3.452-1.549,3.452-3.453C14.619,9.264,13.07,7.715,11.167,7.715z"/>
</svg>
