<?xml version="1.0" encoding="utf-8"?>
<!-- Generator: Adobe Illustrator 15.1.0, SVG Export Plug-In . SVG Version: 6.00 Build 0)  -->
<!DOCTYPE svg PUBLIC "-//W3C//DTD SVG 1.1//EN" "http://www.w3.org/Graphics/SVG/1.1/DTD/svg11.dtd">
<svg version="1.1" id="Layer_1" xmlns="http://www.w3.org/2000/svg" xmlns:xlink="http://www.w3.org/1999/xlink" x="0px" y="0px"
	 width="28px" height="29px" viewBox="0 0 28 29" enable-background="new 0 0 28 29" xml:space="preserve">
<path fill="#1D5E8B" d="M24.529,21.445c-0.065,0-0.129-0.025-0.176-0.071l-2.401-2.403c-0.082-0.08-0.097-0.207-0.035-0.306
	c0.547-0.892,0.946-1.856,1.188-2.874c0.026-0.111,0.127-0.189,0.242-0.189h3.149v-4.212h-3.149c-0.115,0-0.216-0.079-0.242-0.191
	c-0.24-1.017-0.642-1.983-1.188-2.874C21.855,8.226,21.87,8.1,21.952,8.018l2.228-2.227L21.2,2.813L18.973,5.04
	c-0.047,0.047-0.109,0.072-0.176,0.072c-0.047,0-0.092-0.012-0.131-0.036c-0.889-0.548-1.855-0.947-2.873-1.188
	c-0.113-0.026-0.191-0.126-0.191-0.242V0.495h-4.21v3.149c0,0.116-0.078,0.215-0.19,0.242c-1.017,0.241-1.983,0.641-2.874,1.188
	C8.287,5.1,8.242,5.112,8.196,5.112c-0.066,0-0.129-0.026-0.176-0.073L5.794,2.813L2.815,5.791l2.227,2.227
	C5.123,8.1,5.138,8.226,5.078,8.323C4.53,9.214,4.13,10.181,3.889,11.197c-0.026,0.112-0.125,0.191-0.241,0.191h-3.15v4.209h3.15
	c0.116,0,0.215,0.078,0.241,0.19c0.242,1.019,0.642,1.983,1.189,2.874c0.061,0.099,0.045,0.225-0.036,0.307L2.64,21.371
	c-0.047,0.047-0.109,0.072-0.176,0.072c-0.067,0-0.128-0.025-0.175-0.072s-0.073-0.109-0.073-0.176c0-0.067,0.026-0.129,0.073-0.176
	l2.263-2.265L4.45,18.574c-0.404-0.719-0.722-1.485-0.943-2.279L3.45,16.098H0.249C0.111,16.098,0,15.986,0,15.85V11.14
	c0-0.137,0.111-0.248,0.249-0.248H3.45l0.056-0.2c0.222-0.794,0.539-1.561,0.943-2.279l0.102-0.18L2.288,5.969
	c-0.097-0.098-0.098-0.255,0-0.352l3.33-3.33C5.665,2.24,5.727,2.215,5.793,2.215S5.922,2.24,5.969,2.287l2.264,2.264l0.181-0.102
	c0.718-0.404,1.485-0.722,2.279-0.943l0.199-0.055V0.248C10.892,0.111,11.003,0,11.14,0h4.709c0.137,0,0.248,0.111,0.248,0.248
	v3.203l0.199,0.055c0.795,0.222,1.561,0.539,2.279,0.943l0.18,0.102l2.264-2.264c0.047-0.047,0.109-0.072,0.176-0.072
	c0.068,0,0.13,0.025,0.177,0.072l3.33,3.33c0.047,0.047,0.073,0.109,0.071,0.176c0,0.066-0.024,0.129-0.071,0.176l-2.265,2.264
	l0.103,0.18c0.403,0.719,0.724,1.486,0.942,2.279l0.058,0.2h3.201c0.141,0,0.252,0.111,0.252,0.248v4.711
	c0,0.137-0.111,0.248-0.248,0.248h-3.201l-0.058,0.199c-0.221,0.794-0.538,1.561-0.942,2.279l-0.103,0.181l2.265,2.265
	c0.099,0.097,0.099,0.254,0,0.352C24.659,21.42,24.596,21.445,24.529,21.445z"/>
<path fill="#1D5E8B" d="M21.293,28.909c-0.137,0-0.248-0.111-0.248-0.249v-4.73c-0.004-2.518-2.053-4.565-4.568-4.568h-5.962
	c-2.516,0.003-4.565,2.052-4.568,4.566v4.732c0,0.138-0.111,0.249-0.248,0.249c-0.137,0-0.249-0.111-0.249-0.249v-4.73
	c0.004-2.63,2.062-4.846,4.683-5.046l0.794-0.061l-0.665-0.438c-0.664-0.439-1.222-0.998-1.661-1.66
	c-0.863-1.308-1.167-2.873-0.853-4.408c0.313-1.535,1.206-2.856,2.513-3.721c0.963-0.636,2.079-0.973,3.228-0.973
	c1.978,0,3.81,0.984,4.901,2.633c0.862,1.308,1.168,2.873,0.854,4.408s-1.207,2.855-2.514,3.721l-0.664,0.438l0.793,0.061
	c2.623,0.2,4.68,2.416,4.684,5.046v4.73C21.542,28.798,21.43,28.909,21.293,28.909z M13.494,8.125L13.494,8.125
	c-1.434,0-2.782,0.559-3.796,1.573c-1.014,1.014-1.572,2.362-1.572,3.796c0.003,2.958,2.412,5.365,5.369,5.369
	c1.437,0,2.782-0.559,3.797-1.572c1.015-1.016,1.571-2.363,1.571-3.797c0-1.435-0.559-2.783-1.571-3.797
	C16.279,8.683,14.928,8.125,13.494,8.125C13.495,8.125,13.495,8.125,13.494,8.125z"/>
</svg>
