<?xml version="1.0" encoding="utf-8"?>
<!-- Generator: Adobe Illustrator 15.1.0, SVG Export Plug-In  -->
<!DOCTYPE svg PUBLIC "-//W3C//DTD SVG 1.1//EN" "http://www.w3.org/Graphics/SVG/1.1/DTD/svg11.dtd" [
	<!ENTITY ns_flows "http://ns.adobe.com/Flows/1.0/">
]>
<svg version="1.1"
	 xmlns="http://www.w3.org/2000/svg" xmlns:xlink="http://www.w3.org/1999/xlink" xmlns:a="http://ns.adobe.com/AdobeSVGViewerExtensions/3.0/"
	 x="0px" y="0px" width="40px" height="54px" viewBox="-0.9 -0.4 40 54" enable-background="new -0.9 -0.4 40 54"
	 xml:space="preserve">
<defs>
</defs>
<g>
	<g>
		<g>
			<path fill="#19499A" d="M2.4,53.2c-1.3,0-2.4-1.1-2.4-2.5V2.5C0,1.1,1.1,0,2.4,0h21.7c0.1,0,0.2,0,0.3,0.1c0.1,0,0.2,0.1,0.2,0.2
				L38,14c0.1,0.1,0.1,0.2,0.2,0.2c0,0.1,0.1,0.2,0.1,0.3v36.2c0,1.4-1.1,2.5-2.4,2.5H2.4z M1.5,51.7h35.3V15.3h-11
				c-1.3,0-2.4-1.1-2.4-2.5V1.5H1.5V51.7z M24.8,13.8h10.9L24.8,2.6V13.8z"/>
		</g>
		<g>
			<path fill="#19499A" d="M10.7,46.3c-0.4,0-0.7-0.3-0.7-0.8V35.2c0-0.4,0.3-0.8,0.7-0.8c0.4,0,0.7,0.3,0.7,0.8v10.3
				C11.5,46,11.1,46.3,10.7,46.3z"/>
		</g>
		<g>
			<path fill="#19499A" d="M27.4,46.3c-0.4,0-0.7-0.3-0.7-0.8V21.4c0-0.4,0.3-0.8,0.7-0.8c0.4,0,0.7,0.3,0.7,0.8v24.1
				C28.2,46,27.8,46.3,27.4,46.3z"/>
		</g>
		<g>
			<path fill="#19499A" d="M19.1,46.3c-0.4,0-0.7-0.3-0.7-0.8V28.3c0-0.4,0.3-0.8,0.7-0.8c0.4,0,0.7,0.3,0.7,0.8v17.2
				C19.8,46,19.5,46.3,19.1,46.3z"/>
		</g>
	</g>
</g>
</svg>
