<?xml version="1.0" encoding="utf-8"?>
<!-- Generator: Adobe Illustrator 15.1.0, SVG Export Plug-In  -->
<!DOCTYPE svg PUBLIC "-//W3C//DTD SVG 1.1//EN" "http://www.w3.org/Graphics/SVG/1.1/DTD/svg11.dtd" [
	<!ENTITY ns_flows "http://ns.adobe.com/Flows/1.0/">
]>
<svg version="1.1"
	 xmlns="http://www.w3.org/2000/svg" xmlns:xlink="http://www.w3.org/1999/xlink" xmlns:a="http://ns.adobe.com/AdobeSVGViewerExtensions/3.0/"
	 x="0px" y="0px" width="57px" height="57px" viewBox="-1 -1.2 57 57" enable-background="new -1 -1.2 57 57" xml:space="preserve">
<defs>
</defs>
<g>
	<g>
		<path fill="#19499A" d="M48.2,24.3c-0.1,0-0.2,0-0.3-0.1L42,21.9c-0.4-0.2-0.6-0.6-0.4-1c0.1-0.2,0.2-0.3,0.4-0.4
			c0.6-0.3,1-0.7,1.3-1.3c0.5-1.3-0.1-2.7-1.4-3.2c0,0,0,0,0,0c-1.3-0.5-2.7,0.1-3.2,1.4c-0.2,0.6-0.2,1.3,0,1.8
			c0.2,0.4,0,0.9-0.4,1c-0.2,0.1-0.4,0.1-0.6,0l-5.9-2.4c-0.4-0.2-0.6-0.6-0.4-1l0,0l1.8-4.6c-0.5,0-1-0.1-1.5-0.3
			c-2.1-0.8-3.1-3.2-2.3-5.3c0.8-2.1,3.2-3.1,5.3-2.3c0.5,0.2,0.9,0.5,1.3,0.8l1.8-4.6c0.2-0.4,0.6-0.6,1-0.4c0,0,0,0,0,0L53.5,6
			c1.2,0.5,1.8,1.8,1.3,3L49,23.8C48.8,24.1,48.5,24.3,48.2,24.3z M43.9,21l3.9,1.5l5.6-14.1c0.1-0.4,0-0.8-0.4-1L38.8,1.8L36.8,7
			c-0.2,0.4-0.6,0.6-1,0.4c-0.2-0.1-0.3-0.2-0.4-0.4c-0.6-1.3-2.1-1.8-3.3-1.2c-1.3,0.6-1.8,2.1-1.2,3.3c0.6,1.2,2,1.8,3.2,1.3
			c0.4-0.2,0.9,0,1,0.4c0.1,0.2,0.1,0.4,0,0.6L33,16.6l3.9,1.5c0-2.3,1.8-4.1,4.1-4.1c2.3,0,4.1,1.8,4.1,4.1
			C45,19.2,44.6,20.2,43.9,21L43.9,21z"/>
		<path fill="#19499A" d="M45.5,32.2c-0.4,0-0.8-0.3-0.8-0.8s0.3-0.8,0.8-0.8h0c0.4,0,0.8,0.4,0.8,0.8
			C46.3,31.9,45.9,32.2,45.5,32.2z"/>
		<path fill="#19499A" d="M37.4,32.2c-0.4,0-0.8-0.3-0.8-0.8c0-0.4,0.3-0.8,0.8-0.8h0c0.4,0,0.8,0.4,0.8,0.8
			C38.1,31.9,37.8,32.2,37.4,32.2z"/>
		<path fill="#19499A" d="M37.3,32.2c-0.4,0-0.8-0.3-0.8-0.8c0-0.4,0.3-0.8,0.8-0.8c0.4,0,0.8,0.3,0.8,0.8c0,0.3-0.2,0.6-0.5,0.7
			C37.6,32.2,37.5,32.2,37.3,32.2z"/>
		<path fill="#19499A" d="M43.5,54.6H2.8c-1.5,0-2.8-1.2-2.8-2.8V11.1c0-1.5,1.2-2.8,2.8-2.8h20.4c0.4,0,0.8,0.4,0.8,0.8v8.1
			c0,0.4-0.3,0.8-0.8,0.8c-0.2,0-0.4-0.1-0.6-0.2c-0.6-0.6-1.5-1-2.4-0.9c-1.9,0-3.4,1.5-3.4,3.4c0,1.9,1.5,3.4,3.4,3.4
			c0.9,0,1.7-0.3,2.4-0.9c0.3-0.3,0.8-0.3,1.1,0c0.1,0.1,0.2,0.3,0.2,0.6v7.4h5.9c-1.2-2.5-0.1-5.5,2.4-6.6c2.5-1.2,5.5-0.1,6.6,2.4
			c0.6,1.3,0.6,2.9,0,4.2h6.7c0.4,0,0.8,0.4,0.8,0.8v20.4C46.3,53.4,45,54.6,43.5,54.6L43.5,54.6z M2.8,9.9c-0.7,0-1.2,0.5-1.2,1.2
			v40.7c0,0.7,0.5,1.2,1.2,1.2h40.7c0.7,0,1.2-0.5,1.2-1.2V32.2h-7.3c-0.4,0-0.8-0.4-0.8-0.8c0-0.2,0.1-0.4,0.2-0.5
			c1.3-1.4,1.2-3.5-0.1-4.8c-1.4-1.3-3.5-1.2-4.8,0.1c-0.6,0.6-0.9,1.5-0.9,2.3c0,0.9,0.3,1.7,0.9,2.3c0.3,0.3,0.3,0.8,0,1.1
			c-0.1,0.1-0.3,0.2-0.5,0.2h-8.2c-0.4,0-0.8-0.4-0.8-0.8v-6.7c-2.5,1.2-5.4,0.1-6.6-2.4s-0.1-5.4,2.4-6.6c1.3-0.6,2.9-0.6,4.2,0
			V9.9H2.8z"/>
		<path fill="#19499A" d="M23.1,40.4c-0.4,0-0.8-0.4-0.8-0.8v-8.2c0-0.4,0.3-0.8,0.8-0.8c0.4,0,0.8,0.3,0.8,0.8v8.2
			C23.9,40,23.6,40.4,23.1,40.4C23.1,40.4,23.1,40.4,23.1,40.4L23.1,40.4z"/>
		<path fill="#19499A" d="M23.1,54.6c-0.4,0-0.8-0.4-0.8-0.8v-8.2c0-0.4,0.4-0.8,0.8-0.8s0.8,0.4,0.8,0.8v8.2
			C23.9,54.2,23.6,54.6,23.1,54.6L23.1,54.6z"/>
		<path fill="#19499A" d="M23.1,32.2H15c-0.4,0-0.8-0.4-0.8-0.8c0-0.4,0.4-0.8,0.8-0.8h8.1c0.4,0,0.8,0.4,0.8,0.8
			C23.9,31.9,23.6,32.2,23.1,32.2z"/>
		<path fill="#19499A" d="M9,32.2H0.8c-0.4,0-0.8-0.4-0.8-0.8c0-0.4,0.4-0.8,0.8-0.8H9c0.4,0,0.8,0.4,0.8,0.8
			C9.8,31.9,9.4,32.2,9,32.2z"/>
		<path fill="#19499A" d="M12,39.3c-2.7,0-5-2.2-5-5c0-1.3,0.5-2.5,1.4-3.5c0.3-0.3,0.8-0.3,1.1,0c0.3,0.3,0.3,0.8,0,1.1
			c-1.3,1.3-1.3,3.5,0.1,4.8c0.6,0.6,1.5,1,2.4,1c1.9,0,3.4-1.5,3.4-3.4c0-0.9-0.3-1.7-1-2.4c-0.3-0.3-0.3-0.8,0-1.1
			c0.3-0.3,0.8-0.3,1.1,0c0,0,0,0,0,0c0.9,0.9,1.4,2.2,1.4,3.5C16.9,37.1,14.7,39.3,12,39.3L12,39.3z"/>
		<path fill="#19499A" d="M26.1,47.6c-1.3,0-2.5-0.5-3.5-1.4c-0.3-0.3-0.3-0.8,0-1.1s0.8-0.3,1.1,0c0,0,0,0,0,0
			c1.4,1.3,3.5,1.3,4.8-0.1c1.3-1.4,1.3-3.5-0.1-4.8c-1.3-1.3-3.4-1.3-4.7,0c-0.3,0.3-0.8,0.3-1.1,0c-0.2-0.1-0.2-0.4-0.2-0.6v0
			c0-0.2,0.1-0.4,0.2-0.6c2-1.9,5.1-1.8,7,0.1c1.9,2,1.8,5.1-0.1,7C28.6,47.1,27.3,47.6,26.1,47.6z"/>
	</g>
</g>
</svg>
