<?xml version="1.0" encoding="utf-8"?>
<!-- Generator: Adobe Illustrator 15.1.0, SVG Export Plug-In  -->
<!DOCTYPE svg PUBLIC "-//W3C//DTD SVG 1.1//EN" "http://www.w3.org/Graphics/SVG/1.1/DTD/svg11.dtd" [
	<!ENTITY ns_flows "http://ns.adobe.com/Flows/1.0/">
]>
<svg version="1.1"
	 xmlns="http://www.w3.org/2000/svg" xmlns:xlink="http://www.w3.org/1999/xlink" xmlns:a="http://ns.adobe.com/AdobeSVGViewerExtensions/3.0/"
	 x="0px" y="0px" width="56px" height="40px" viewBox="-0.3 -0.8 56 40" enable-background="new -0.3 -0.8 56 40"
	 xml:space="preserve">
<defs>
</defs>
<path fill="#19499A" d="M47.6,21l-0.8-0.3l0.6-0.5c1.8-1.5,2.9-4,2.9-6.6c0-4.4-3.1-8.1-6.8-8.1c-2.3,0-4.4,1.4-5.7,3.6l-0.7,1.2
	L37,9c-0.9-5.2-4.8-9-9.3-9c-4.5,0-8.4,3.8-9.3,9l-0.2,1.4l-0.7-1.2c-1.3-2.3-3.4-3.6-5.7-3.6C8,5.5,5,9.1,5,13.6
	c0,2.6,1.1,5.1,2.9,6.6l0.6,0.5L7.7,21C3.1,22.7,0,27.2,0,32.1c0,0.4,0.3,0.7,0.7,0.7h11.1l-0.2,0.6c-0.4,1.4-0.5,2.8-0.5,4.2
	c0,0.4,0.3,0.7,0.7,0.7h31.8c0.4,0,0.7-0.3,0.7-0.7c0-1.4-0.2-2.9-0.5-4.2l-0.2-0.6h11.1c0.4,0,0.7-0.3,0.7-0.7
	C55.4,27.2,52.3,22.7,47.6,21z M43.6,6.9c3,0,5.4,3,5.4,6.7c0,3.7-2.4,6.7-5.4,6.7s-5.4-3-5.4-6.7C38.1,9.9,40.6,6.9,43.6,6.9z
	 M36.7,14.8l0.4,1.4c0.5,1.6,1.4,3,2.5,4l0.7,0.5L39.5,21c-1.2,0.4-2.4,1.1-3.4,2l-0.3,0.2L35.5,23c-0.9-0.5-1.9-0.9-3-1.2l-1-0.3
	l0.8-0.6c1.6-1.1,2.9-2.8,3.8-4.8L36.7,14.8z M27.7,1.4c4.5,0,8.1,4.4,8.1,9.8c0,5.4-3.6,9.8-8.1,9.8c-4.5,0-8.1-4.4-8.1-9.8
	C19.6,5.8,23.2,1.4,27.7,1.4z M18.3,16.2l0.4-1.3l0.5,1.3c0.8,2,2.1,3.7,3.8,4.8l0.8,0.6l-1,0.3c-1,0.3-2,0.7-3,1.2l-0.3,0.2
	L19.3,23c-1-0.8-2.2-1.5-3.4-2l-0.8-0.3l0.6-0.5C16.9,19.2,17.8,17.8,18.3,16.2z M6.4,13.6c0-3.7,2.4-6.7,5.5-6.7c3,0,5.4,3,5.4,6.7
	c0,3.7-2.4,6.7-5.4,6.7C8.8,20.3,6.4,17.3,6.4,13.6z M12.3,31.4H1.4l0.1-0.5c0.6-5.2,5.1-9.2,10.4-9.2c2.2,0,4.2,0.7,6,1.9l0.5,0.4
	l-0.5,0.4c-2.3,1.8-4.2,4.1-5.3,6.8L12.3,31.4z M12.5,36.9l0-0.5c0.6-7.8,7.3-14,15.1-14s14.5,6.1,15.1,14l0,0.5H12.5z M54,31.4H43
	l-0.1-0.3c-1.2-2.7-3-5-5.3-6.8L37,23.9l0.6-0.4c1.8-1.2,3.8-1.9,6-1.9c5.3,0,9.7,4,10.4,9.2L54,31.4z"/>
</svg>
