<?xml version="1.0" encoding="utf-8"?>
<!-- Generator: Adobe Illustrator 15.1.0, SVG Export Plug-In  -->
<!DOCTYPE svg PUBLIC "-//W3C//DTD SVG 1.1//EN" "http://www.w3.org/Graphics/SVG/1.1/DTD/svg11.dtd" [
	<!ENTITY ns_flows "http://ns.adobe.com/Flows/1.0/">
]>
<svg version="1.1"
	 xmlns="http://www.w3.org/2000/svg" xmlns:xlink="http://www.w3.org/1999/xlink" xmlns:a="http://ns.adobe.com/AdobeSVGViewerExtensions/3.0/"
	 x="0px" y="0px" width="44px" height="44px" viewBox="0 0 44 44" enable-background="new 0 0 44 44" xml:space="preserve">
<defs>
</defs>
<path fill="#1F5F8C" d="M41.268,5.666h-4.613c-0.303,0-0.548,0.246-0.548,0.548s0.245,0.548,0.548,0.548h4.613
	c0.715,0,1.297,0.582,1.297,1.297v20.673H1.22V8.059c0-0.715,0.582-1.297,1.297-1.297h4.613c0.302,0,0.548-0.246,0.548-0.548
	S7.433,5.666,7.131,5.666H2.518c-1.319,0-2.393,1.073-2.393,2.393v25.834c0,1.319,1.073,2.393,2.393,2.393h11.447v3.143
	c0.089,1.634-1.184,3.053-2.838,3.143c-0.109,0.006-0.217,0.006-0.325,0c-0.282,0.001-0.528,0.246-0.528,0.548
	s0.246,0.548,0.547,0.548h22.143c0.302,0,0.548-0.246,0.548-0.548s-0.246-0.547-0.548-0.547c-1.638,0.083-3.053-1.185-3.143-2.838
	c-0.005-0.108-0.005-0.218,0-0.325l-0.001-3.123h11.447c1.318,0,2.393-1.073,2.393-2.393V8.059
	C43.661,6.739,42.586,5.666,41.268,5.666z M29.874,42.571H13.902l0.379-0.58c0.5-0.766,0.77-1.653,0.779-2.567v-3.139h13.667v2.596
	h-5.911c-0.302,0-0.547,0.245-0.547,0.547s0.245,0.548,0.547,0.548h5.935l0.046,0.321c0.088,0.604,0.317,1.186,0.666,1.685
	L29.874,42.571z M42.565,33.893c0,0.716-0.582,1.298-1.297,1.298H2.518c-0.715,0-1.297-0.582-1.297-1.298v-4.065h41.345V33.893z"/>
<path fill="#1F5F8C" d="M32.964,43.791H10.821c-0.371,0-0.672-0.302-0.672-0.673c0-0.363,0.299-0.672,0.652-0.673
	c0.111,0.006,0.214,0.007,0.318,0c0.766-0.041,1.471-0.379,1.987-0.951c0.514-0.57,0.774-1.302,0.733-2.06V36.41H2.518
	C1.129,36.41,0,35.281,0,33.893V8.059C0,6.67,1.129,5.541,2.518,5.541h4.613c0.371,0,0.673,0.302,0.673,0.673
	S7.502,6.887,7.131,6.887H2.518c-0.646,0-1.172,0.525-1.172,1.172v20.548H42.44V8.059c0-0.646-0.525-1.172-1.172-1.172h-4.613
	c-0.371,0-0.673-0.302-0.673-0.673s0.302-0.673,0.673-0.673h4.613c1.389,0,2.518,1.129,2.518,2.518v25.834
	c0,1.389-1.129,2.518-2.518,2.518H29.946l0.001,2.998c-0.005,0.109-0.005,0.215,0,0.319c0.085,1.578,1.438,2.812,3.011,2.719
	c0,0,0,0,0.001,0c0.377,0,0.679,0.302,0.679,0.672C33.637,43.489,33.334,43.791,32.964,43.791z M10.795,42.695
	c-0.211,0.001-0.396,0.194-0.396,0.423c0,0.233,0.189,0.423,0.422,0.423h22.143c0.233,0,0.423-0.189,0.423-0.423
	c0-0.232-0.189-0.422-0.423-0.422c-1.704,0.095-3.174-1.239-3.268-2.956c-0.005-0.113-0.005-0.227,0-0.338l-0.001-3.242h11.572
	c1.25,0,2.268-1.018,2.268-2.268V8.059c0-1.25-1.018-2.268-2.268-2.268h-4.613c-0.233,0-0.423,0.189-0.423,0.423
	s0.189,0.423,0.423,0.423h4.613c0.784,0,1.422,0.638,1.422,1.422v20.798H1.095V8.059c0-0.784,0.638-1.422,1.422-1.422h4.613
	c0.233,0,0.423-0.189,0.423-0.423S7.364,5.791,7.131,5.791H2.518c-1.25,0-2.268,1.018-2.268,2.268v25.834
	c0,1.25,1.017,2.268,2.268,2.268h11.572v3.268c0.044,0.818-0.238,1.613-0.797,2.234c-0.56,0.621-1.327,0.988-2.159,1.033
	C11.019,42.701,10.907,42.701,10.795,42.695z M30.113,42.696H13.671l0.505-0.773c0.487-0.746,0.75-1.61,0.758-2.5V36.16h13.917
	v2.846h-6.036c-0.232,0-0.422,0.189-0.422,0.422c0,0.233,0.189,0.423,0.422,0.423h6.043l0.062,0.429
	c0.085,0.584,0.308,1.147,0.645,1.631L30.113,42.696z M14.133,42.446h15.5l-0.274-0.394c-0.359-0.515-0.597-1.115-0.687-1.738
	l-0.031-0.214h-5.826c-0.371,0-0.672-0.302-0.672-0.673c0-0.37,0.301-0.672,0.672-0.672h5.786V36.41H15.185v3.014
	c-0.01,0.938-0.286,1.85-0.799,2.636L14.133,42.446z M41.268,35.315H2.518c-0.784,0-1.422-0.639-1.422-1.423v-4.19H42.69v4.19
	C42.69,34.677,42.052,35.315,41.268,35.315z M1.345,29.952v3.94c0,0.646,0.526,1.173,1.172,1.173h38.75
	c0.646,0,1.172-0.526,1.172-1.173v-3.94H1.345z"/>
<path fill="#1F5F8C" d="M8.976,26.137h25.833c0.303,0,0.548-0.246,0.548-0.548s-0.245-0.548-0.548-0.548h-1.297V0.678
	c0-0.148-0.056-0.286-0.158-0.39c-0.104-0.105-0.242-0.153-0.389-0.163c-0.147,0-0.286,0.058-0.39,0.162l-2.38,2.39l-2.378-2.389
	c-0.212-0.211-0.558-0.212-0.771,0.001l-2.387,2.388l-2.379-2.389c-0.212-0.211-0.558-0.212-0.77,0.001l-2.388,2.388l-2.378-2.389
	c-0.213-0.211-0.559-0.212-0.771,0.001l-2.387,2.388l-2.378-2.389c-0.104-0.105-0.219-0.153-0.39-0.163
	c-0.146,0-0.282,0.057-0.385,0.159c-0.104,0.103-0.163,0.245-0.162,0.392v24.365H8.976c-0.302,0-0.547,0.246-0.547,0.548
	S8.674,26.137,8.976,26.137z M11.369,1.996l1.83,1.831c0.212,0.209,0.559,0.21,0.771-0.001l2.387-2.378l2.377,2.379
	c0.212,0.209,0.559,0.21,0.771-0.001l2.387-2.378l2.377,2.379c0.213,0.209,0.559,0.21,0.772-0.001l2.387-2.378l2.378,2.379
	c0.211,0.209,0.559,0.21,0.771-0.001l1.838-1.825v23.04H11.369V1.996z"/>
<path fill="#1F5F8C" d="M34.809,26.262H8.976c-0.371,0-0.672-0.302-0.672-0.673s0.302-0.673,0.672-0.673h1.173V0.676
	c-0.001-0.179,0.071-0.354,0.199-0.48C10.475,0.069,10.643,0,10.821,0c0.208,0.012,0.354,0.073,0.479,0.2l2.289,2.3l2.299-2.299
	c0.26-0.262,0.685-0.263,0.947-0.002l2.29,2.301l2.299-2.299c0.261-0.262,0.686-0.263,0.946-0.002L24.661,2.5l2.299-2.299
	c0.26-0.262,0.686-0.263,0.946-0.002l2.29,2.301l2.291-2.301C32.614,0.07,32.784,0,32.965,0c0.199,0.013,0.361,0.082,0.478,0.2
	c0.126,0.127,0.194,0.297,0.194,0.479v24.237h1.172c0.371,0,0.673,0.302,0.673,0.673S35.18,26.262,34.809,26.262z M8.976,25.166
	c-0.233,0-0.422,0.189-0.422,0.423s0.189,0.423,0.422,0.423h25.833c0.233,0,0.423-0.189,0.423-0.423s-0.189-0.423-0.423-0.423
	h-1.422V0.678c0-0.115-0.043-0.222-0.122-0.302c-0.074-0.075-0.178-0.117-0.308-0.126c-0.106,0-0.213,0.044-0.293,0.125
	l-2.469,2.479l-2.467-2.478c-0.164-0.162-0.43-0.161-0.594,0.001l-2.475,2.477l-2.467-2.478c-0.165-0.162-0.431-0.161-0.594,0.001
	l-2.476,2.477l-2.466-2.478c-0.165-0.162-0.431-0.161-0.594,0.001l-2.476,2.477l-2.466-2.478c-0.082-0.083-0.168-0.118-0.309-0.126
	c-0.104,0-0.21,0.044-0.29,0.123c-0.081,0.079-0.126,0.189-0.125,0.302v24.491H8.976z M32.542,25.166H11.244V1.694l2.043,2.045
	c0.165,0.16,0.432,0.162,0.595-0.002l2.475-2.466l2.465,2.468c0.164,0.16,0.432,0.159,0.596-0.002l2.475-2.466l2.466,2.468
	c0.163,0.16,0.431,0.159,0.596-0.002l2.475-2.466l2.466,2.468c0.164,0.16,0.431,0.161,0.596-0.002l2.051-2.036V25.166z
	 M11.494,24.916h20.797V2.301l-1.625,1.614c-0.261,0.257-0.687,0.259-0.947,0.001l-2.29-2.291l-2.298,2.29
	c-0.264,0.257-0.688,0.259-0.949,0.001l-2.289-2.291l-2.298,2.29c-0.263,0.257-0.688,0.259-0.948,0.001l-2.289-2.291l-2.299,2.29
	c-0.262,0.257-0.686,0.259-0.948,0.001l-1.617-1.618V24.916z"/>
<path fill="#1F5F8C" d="M28.351,16.737H15.435c-0.302,0-0.548,0.246-0.548,0.548s0.246,0.548,0.548,0.548h12.917
	c0.302,0,0.548-0.246,0.548-0.548S28.653,16.737,28.351,16.737z"/>
<path fill="#1F5F8C" d="M28.351,17.958H15.435c-0.371,0-0.673-0.302-0.673-0.673s0.302-0.673,0.673-0.673h12.917
	c0.371,0,0.673,0.302,0.673,0.673S28.722,17.958,28.351,17.958z M15.435,16.862c-0.233,0-0.423,0.189-0.423,0.423
	s0.189,0.423,0.423,0.423h12.917c0.233,0,0.423-0.189,0.423-0.423s-0.189-0.423-0.423-0.423H15.435z"/>
<path fill="#1F5F8C" d="M28.351,20.428H15.435c-0.302,0-0.548,0.246-0.548,0.548s0.246,0.548,0.548,0.548h12.917
	c0.302,0,0.548-0.246,0.548-0.548S28.653,20.428,28.351,20.428z"/>
<path fill="#1F5F8C" d="M28.351,21.648H15.435c-0.371,0-0.673-0.302-0.673-0.673s0.302-0.673,0.673-0.673h12.917
	c0.371,0,0.673,0.302,0.673,0.673S28.722,21.648,28.351,21.648z M15.435,20.553c-0.233,0-0.423,0.189-0.423,0.423
	s0.189,0.423,0.423,0.423h12.917c0.233,0,0.423-0.189,0.423-0.423s-0.189-0.423-0.423-0.423H15.435z"/>
<path fill="#1F5F8C" d="M21.893,13.22c1.828,0,3.315-1.487,3.315-3.315s-1.487-3.315-3.315-3.315s-3.316,1.487-3.316,3.315
	S20.065,13.22,21.893,13.22z M21.893,7.684c1.224,0,2.22,0.996,2.22,2.221c0,1.224-0.996,2.22-2.22,2.22
	c-1.225,0-2.221-0.996-2.221-2.22C19.672,8.68,20.668,7.684,21.893,7.684z"/>
<path fill="#1F5F8C" d="M21.893,13.345c-1.897,0-3.441-1.543-3.441-3.44s1.544-3.44,3.441-3.44c1.896,0,3.44,1.543,3.44,3.44
	S23.79,13.345,21.893,13.345z M21.893,6.714c-1.76,0-3.191,1.432-3.191,3.19s1.432,3.19,3.191,3.19c1.759,0,3.19-1.432,3.19-3.19
	S23.652,6.714,21.893,6.714z M21.893,12.249c-1.293,0-2.346-1.052-2.346-2.345s1.053-2.346,2.346-2.346s2.345,1.053,2.345,2.346
	S23.186,12.249,21.893,12.249z M21.893,7.809c-1.156,0-2.096,0.94-2.096,2.096s0.939,2.095,2.096,2.095
	c1.154,0,2.095-0.939,2.095-2.095S23.047,7.809,21.893,7.809z"/>
</svg>
