<?xml version="1.0" encoding="utf-8"?>
<!-- Generator: Adobe Illustrator 15.1.0, SVG Export Plug-In  -->
<!DOCTYPE svg PUBLIC "-//W3C//DTD SVG 1.1//EN" "http://www.w3.org/Graphics/SVG/1.1/DTD/svg11.dtd" [
	<!ENTITY ns_flows "http://ns.adobe.com/Flows/1.0/">
]>
<svg version="1.1"
	 xmlns="http://www.w3.org/2000/svg" xmlns:xlink="http://www.w3.org/1999/xlink" xmlns:a="http://ns.adobe.com/AdobeSVGViewerExtensions/3.0/"
	 x="0px" y="0px" width="56px" height="56px" viewBox="0 0 56 56" enable-background="new 0 0 56 56" xml:space="preserve">
<defs>
</defs>
<path fill="#154A9F" d="M27.964,32.04c-5.993,0-10.869-4.876-10.869-10.869s4.875-10.868,10.869-10.868s10.869,4.875,10.869,10.868
	S33.957,32.04,27.964,32.04z M27.964,11.661c-5.244,0-9.51,4.267-9.51,9.51c0,5.244,4.266,9.511,9.51,9.511s9.51-4.267,9.51-9.511
	C37.474,15.928,33.208,11.661,27.964,11.661z"/>
<path fill="#154A9F" d="M20.492,55.928v-3.396H0v-1.358h20.492v-3.396h6.792v-5.547h-3.396v-3.854l-0.741-0.211
	c-1.309-0.371-2.581-0.902-3.783-1.578l-0.673-0.378l-2.735,2.735l-5.765-5.764l2.736-2.736l-0.378-0.674
	c-0.676-1.201-1.206-2.474-1.578-3.782l-0.21-0.741H6.906v-8.15h3.854l0.21-0.741c0.372-1.309,0.902-2.581,1.578-3.782l0.378-0.674
	l-2.736-2.735l5.765-5.765l2.735,2.736l0.673-0.379c1.202-0.676,2.474-1.206,3.783-1.578l0.741-0.21V0h8.152v3.967l0.74,0.211
	c1.309,0.372,2.581,0.902,3.783,1.578l0.673,0.379l2.735-2.736l5.765,5.765l-2.735,2.735l0.378,0.674
	c0.676,1.201,1.206,2.475,1.578,3.783l0.21,0.74h3.854v8.151h-3.854l-0.21,0.74c-0.372,1.309-0.902,2.581-1.578,3.783l-0.378,0.673
	l2.735,2.736l-5.765,5.764l-2.735-2.735l-0.673,0.378c-1.201,0.676-2.475,1.207-3.783,1.578l-0.74,0.211v3.854h-3.396v5.547h6.793
	v3.396h20.491v1.358H35.437v3.396H20.492z M21.851,54.569h12.227v-5.435H21.851V54.569z M25.247,40.871h5.434v-3.615l0.545-0.11
	c3.031-0.616,5.104-1.958,6.18-2.69l2.566,2.566l3.844-3.842l-2.566-2.566c0.734-1.08,2.074-3.15,2.689-6.181l0.11-0.544h3.614
	v-5.435h-3.614l-0.11-0.544c-0.615-3.031-1.958-5.104-2.69-6.181l2.567-2.566L39.972,5.32l-2.565,2.566
	c-1.079-0.734-3.149-2.074-6.181-2.689l-0.545-0.111V1.358h-5.434v3.728l-0.544,0.111c-3.032,0.615-5.104,1.957-6.18,2.689
	L15.956,5.32l-3.843,3.843l2.566,2.566c-0.734,1.079-2.074,3.149-2.69,6.181l-0.11,0.544H8.265v5.435h3.614l0.11,0.544
	c0.616,3.031,1.958,5.104,2.69,6.181l-2.566,2.566l3.843,3.843l2.566-2.566c1.079,0.733,3.15,2.074,6.181,2.689l0.544,0.11V40.871z"
	/>
</svg>
