<?xml version="1.0" encoding="utf-8"?>
<!-- Generator: Adobe Illustrator 15.1.0, SVG Export Plug-In  -->
<!DOCTYPE svg PUBLIC "-//W3C//DTD SVG 1.1//EN" "http://www.w3.org/Graphics/SVG/1.1/DTD/svg11.dtd" [
	<!ENTITY ns_flows "http://ns.adobe.com/Flows/1.0/">
]>
<svg version="1.1"
	 xmlns="http://www.w3.org/2000/svg" xmlns:xlink="http://www.w3.org/1999/xlink" xmlns:a="http://ns.adobe.com/AdobeSVGViewerExtensions/3.0/"
	 x="0px" y="0px" width="56px" height="56px" viewBox="-0.608 -0.608 56 56" enable-background="new -0.608 -0.608 56 56"
	 xml:space="preserve">
<defs>
</defs>
<path fill="#154A9F" d="M27.355,38.671c-3.21,0-5.822-2.611-5.822-5.822s2.612-5.822,5.822-5.822c3.211,0,5.823,2.611,5.823,5.822
	S30.567,38.671,27.355,38.671z M27.355,27.685c-2.847,0-5.163,2.316-5.163,5.164s2.316,5.164,5.163,5.164
	c2.848,0,5.165-2.316,5.165-5.164S30.204,27.685,27.355,27.685z"/>
<path fill="#154A9F" d="M9.338,38.671c-3.21,0-5.823-2.611-5.823-5.822s2.612-5.822,5.823-5.822s5.823,2.611,5.823,5.822
	S12.549,38.671,9.338,38.671z M9.338,27.685c-2.847,0-5.164,2.316-5.164,5.164s2.316,5.164,5.164,5.164s5.164-2.316,5.164-5.164
	S12.186,27.685,9.338,27.685z"/>
<path fill="#154A9F" d="M45.374,38.671c-3.211,0-5.822-2.611-5.822-5.822s2.611-5.822,5.822-5.822s5.822,2.611,5.822,5.822
	S48.584,38.671,45.374,38.671z M45.374,27.685c-2.848,0-5.164,2.316-5.164,5.164s2.316,5.164,5.164,5.164s5.164-2.316,5.164-5.164
	S48.221,27.685,45.374,27.685z"/>
<path fill="#154A9F" d="M0.33,54.712c-0.182,0-0.33-0.148-0.33-0.33V49.33c0-2.42,0.982-4.705,2.767-6.439
	c1.779-1.729,4.113-2.68,6.572-2.68c3.456,0,6.725,1.973,8.328,5.023l0.681,1.297l0.681-1.297c1.603-3.051,4.872-5.023,8.328-5.023
	s6.725,1.973,8.329,5.023l0.68,1.297l0.682-1.297c1.604-3.051,4.873-5.023,8.328-5.023c2.459,0,4.793,0.951,6.572,2.68
	c1.783,1.734,2.766,4.02,2.766,6.439v5.053c0,0.182-0.146,0.33-0.33,0.33H0.33z M45.374,40.869c-4.705,0-8.68,3.875-8.68,8.461
	v4.723h17.359V49.33C54.053,44.744,50.079,40.869,45.374,40.869z M27.355,40.869c-4.704,0-8.679,3.875-8.679,8.461v4.723h17.359
	V49.33C36.036,44.744,32.061,40.869,27.355,40.869z M9.338,40.869c-4.705,0-8.679,3.875-8.679,8.461v4.723h17.358V49.33
	C18.018,44.744,14.043,40.869,9.338,40.869z"/>
<path fill="#154A9F" d="M27.355,11.646c-1.393,0-2.526-1.133-2.526-2.526s1.134-2.527,2.526-2.527c1.393,0,2.528,1.134,2.528,2.527
	S28.749,11.646,27.355,11.646z M27.355,7.251c-1.029,0-1.867,0.838-1.867,1.868c0,1.029,0.838,1.867,1.867,1.867
	c1.03,0,1.868-0.838,1.868-1.867C29.223,8.089,28.385,7.251,27.355,7.251z"/>
<path fill="#154A9F" d="M18.567,11.646c-1.393,0-2.527-1.133-2.527-2.526s1.134-2.527,2.527-2.527s2.527,1.134,2.527,2.527
	S19.96,11.646,18.567,11.646z M18.567,7.251c-1.03,0-1.868,0.838-1.868,1.868c0,1.029,0.838,1.867,1.868,1.867
	s1.868-0.838,1.868-1.867C20.435,8.089,19.597,7.251,18.567,7.251z"/>
<path fill="#154A9F" d="M36.145,11.646c-1.393,0-2.527-1.133-2.527-2.526s1.135-2.527,2.527-2.527s2.527,1.134,2.527,2.527
	S37.538,11.646,36.145,11.646z M36.145,7.251c-1.029,0-1.867,0.838-1.867,1.868c0,1.029,0.838,1.867,1.867,1.867
	s1.867-0.838,1.867-1.867C38.012,8.089,37.174,7.251,36.145,7.251z"/>
<path fill="#154A9F" d="M27.355,23.291c-0.131,0-0.25-0.077-0.302-0.198l-2.111-4.855h-10.77c-5.028,0-9.119-4.09-9.119-9.118
	S9.145,0,14.172,0H40.54c5.027,0,9.119,4.091,9.119,9.119s-4.092,9.118-9.119,9.118H29.77l-2.112,4.855
	C27.605,23.214,27.487,23.291,27.355,23.291z M14.172,0.659c-4.665,0-8.459,3.795-8.459,8.46c0,4.664,3.795,8.459,8.459,8.459
	h10.986c0.131,0,0.25,0.078,0.302,0.198l1.895,4.358l1.895-4.358c0.053-0.12,0.172-0.198,0.303-0.198H40.54
	c4.664,0,8.459-3.795,8.459-8.459c0-4.665-3.795-8.46-8.459-8.46H14.172z"/>
</svg>
