<?xml version="1.0" encoding="utf-8"?>
<!-- Generator: Adobe Illustrator 15.1.0, SVG Export Plug-In  -->
<!DOCTYPE svg PUBLIC "-//W3C//DTD SVG 1.1//EN" "http://www.w3.org/Graphics/SVG/1.1/DTD/svg11.dtd" [
	<!ENTITY ns_flows "http://ns.adobe.com/Flows/1.0/">
]>
<svg version="1.1"
	 xmlns="http://www.w3.org/2000/svg" xmlns:xlink="http://www.w3.org/1999/xlink" xmlns:a="http://ns.adobe.com/AdobeSVGViewerExtensions/3.0/"
	 x="0px" y="0px" width="40px" height="40px" viewBox="-0.2 -0.2 40 40" enable-background="new -0.2 -0.2 40 40"
	 xml:space="preserve">
<defs>
</defs>
<circle fill="#19499A" cx="30.2" cy="16.1" r="0.9"/>
<path fill="#19499A" d="M33.9,3.2h-2.8V0.9c0-0.5-0.4-0.9-0.9-0.9c-0.5,0-0.9,0.4-0.9,0.9v2.3h-8.8V0.9c0-0.5-0.4-0.9-0.9-0.9
	s-0.9,0.4-0.9,0.9v2.3h-8.7V0.9C10.2,0.4,9.8,0,9.3,0S8.4,0.4,8.4,0.9v2.3H5.7C2.6,3.2,0,5.8,0,8.9v25c0,3.1,2.6,5.7,5.7,5.7H18
	c0.5,0,0.9-0.4,0.9-0.9c0-0.5-0.4-0.9-0.9-0.9H5.7c-2.2,0-3.9-1.8-3.9-3.9v-25C1.7,6.7,3.5,5,5.7,5h2.7v2.3c0,0.5,0.4,0.9,0.9,0.9
	s0.9-0.4,0.9-0.9V5h8.7v2.3c0,0.5,0.4,0.9,0.9,0.9s0.9-0.4,0.9-0.9V5h8.8v2.3c0,0.5,0.4,0.9,0.9,0.9c0.5,0,0.9-0.4,0.9-0.9V5h2.8
	c2.2,0,3.9,1.8,3.9,3.9V18c0,0.5,0.4,0.9,0.9,0.9c0.5,0,0.9-0.4,0.9-0.9V8.9C39.6,5.8,37.1,3.2,33.9,3.2z"/>
<path fill="#19499A" d="M30.6,21.7c-5,0-9,4-9,9c0,4.9,4,9,9,9s9-4,9-9C39.6,25.7,35.6,21.7,30.6,21.7z M30.6,37.9
	c-4,0-7.2-3.2-7.2-7.2c0-4,3.2-7.2,7.2-7.2s7.2,3.2,7.2,7.2C37.9,34.6,34.6,37.9,30.6,37.9z"/>
<path fill="#19499A" d="M33,29.8h-1.5v-2.4c0-0.5-0.4-0.9-0.9-0.9s-0.9,0.4-0.9,0.9v3.3c0,0.5,0.4,0.9,0.9,0.9H33
	c0.5,0,0.9-0.4,0.9-0.9C33.8,30.2,33.5,29.8,33,29.8z"/>
<circle fill="#19499A" cx="23.3" cy="16.1" r="0.9"/>
<circle fill="#19499A" cx="16.3" cy="23.1" r="0.9"/>
<circle fill="#19499A" cx="9.3" cy="16.1" r="0.9"/>
<circle fill="#19499A" cx="9.3" cy="23.1" r="0.9"/>
<circle fill="#19499A" cx="9.3" cy="30.1" r="0.9"/>
<circle fill="#19499A" cx="16.3" cy="30.1" r="0.9"/>
<circle fill="#19499A" cx="16.3" cy="16.1" r="0.9"/>
</svg>
