<?xml version="1.0" encoding="utf-8"?>
<!-- Generator: Adobe Illustrator 15.1.0, SVG Export Plug-In  -->
<!DOCTYPE svg PUBLIC "-//W3C//DTD SVG 1.1//EN" "http://www.w3.org/Graphics/SVG/1.1/DTD/svg11.dtd" [
	<!ENTITY ns_flows "http://ns.adobe.com/Flows/1.0/">
]>
<svg version="1.1"
	 xmlns="http://www.w3.org/2000/svg" xmlns:xlink="http://www.w3.org/1999/xlink" xmlns:a="http://ns.adobe.com/AdobeSVGViewerExtensions/3.0/"
	 x="0px" y="0px" width="60px" height="59px" viewBox="-0.9 -1.1 60 59" enable-background="new -0.9 -1.1 60 59"
	 xml:space="preserve">
<defs>
</defs>
<path fill="#19499A" d="M29.1,56.8c-4.6,0-8.1-0.8-11.3-2.6c-1.7-1-3.2-2.1-4.7-3.2c-0.4-0.3-0.8-0.6-1.1-0.8l-1.1-0.8v5.5
	c0,0.4-0.3,0.7-0.7,0.7H0.7c-0.4,0-0.7-0.3-0.7-0.7V30.4c0-0.4,0.3-0.6,0.6-0.7l9.5,0c0.4,0,0.7,0.3,0.7,0.7v2l0.7,0
	c8,0.1,14.1,0.7,17.6,3.9l0.2,0.2H42c1.7,0,3.1,1,3.7,2.6l0.3,0.7l0.9-0.5c0.3-0.2,0.6-0.4,1.3-0.7c1.4-0.7,3-1.4,4.6-1.4H53
	c1,0,1.8,0.1,2.6,0.3c0.7,0.2,1.3,0.5,1.7,1c0.5,0.5,0.9,1.3,0.9,2.1c0,1.1-0.2,2-0.7,2.7c-0.5,0.7-1.2,1.2-2.2,1.9l-0.1,0l0,0
	c0,0-3.9,2.9-9,5.7C39,54.9,33.5,56.8,29.1,56.8z M10.8,47.7l0.3,0.2c1.1,0.7,2,1.5,3,2.2c1.5,1.1,2.9,2.2,4.4,3
	c3.1,1.7,6.3,2.5,10.7,2.5c5.4,0,12.5-3.6,16.3-5.7c5.1-2.8,8.9-5.7,9-5.7l0,0l0,0c1-0.7,1.6-1.2,1.9-1.6c0.4-0.5,0.5-0.9,0.5-1.9
	c0-0.5-0.1-0.8-0.4-1.1c-0.3-0.3-0.8-0.5-1.2-0.6c-0.9-0.3-1.9-0.3-2.4-0.3c-0.9,0-2.7,0.7-4,1.3c-1.3,0.7-2.4,1.3-2.4,1.3
	c-0.1,0-0.1,0.1-0.2,0.1l-0.3,0.1l-0.1,0.3c-0.5,1.8-2.1,3-3.8,3H22.3c-0.2,0-0.4-0.1-0.5-0.2c-0.1-0.1-0.2-0.3-0.2-0.5
	c0-0.4,0.3-0.7,0.7-0.7H42c1.5,0,2.7-1.2,2.7-2.7s-1.2-2.7-2.7-2.7H29.1c-0.2,0-0.3-0.1-0.5-0.2c-2.5-2.5-7.9-3.7-17.1-3.8l-0.7,0
	V47.7z M1.4,54.1h8.1v-23H1.4V54.1z M35.2,27.1c-7.5,0-13.5-6.1-13.5-13.5C21.7,6.1,27.7,0,35.2,0s13.5,6.1,13.5,13.5
	C48.7,21,42.6,27.1,35.2,27.1z M35.2,1.4C28.5,1.4,23,6.8,23,13.5c0,6.7,5.5,12.2,12.2,12.2s12.2-5.5,12.2-12.2
	C47.4,6.8,41.9,1.4,35.2,1.4z M35.2,21.7c-0.2,0-0.3-0.1-0.5-0.2c-0.1-0.1-0.2-0.3-0.2-0.5v-1.4h-2.7c-0.4,0-0.7-0.3-0.7-0.7
	c0-0.4,0.3-0.7,0.7-0.7h4.1c1.3,0,2-0.7,2-2c0-1-0.7-2-2.7-2c-2.2,0-4.1-1.5-4.1-3.4c0-1.6,1.2-3.1,2.8-3.3l0.6-0.1V6.1
	c0-0.4,0.3-0.7,0.6-0.7c0,0,0,0,0.1,0c0.4,0,0.7,0.3,0.7,0.7v1.4h2.7c0.2,0,0.4,0.1,0.5,0.2c0.1,0.1,0.2,0.3,0.2,0.5
	c0,0.4-0.3,0.7-0.7,0.7h-4.1c-1.3,0-2,0.7-2,2c0,1,0.7,2,2.7,2c2.2,0,4.1,1.5,4.1,3.4c0,1.6-1.2,3.1-2.8,3.3l-0.6,0.1V21
	C35.9,21.4,35.6,21.7,35.2,21.7L35.2,21.7z"/>
</svg>
