<?xml version="1.0" encoding="utf-8"?>
<!-- Generator: Adobe Illustrator 15.1.0, SVG Export Plug-In  -->
<!DOCTYPE svg PUBLIC "-//W3C//DTD SVG 1.1//EN" "http://www.w3.org/Graphics/SVG/1.1/DTD/svg11.dtd" [
	<!ENTITY ns_flows "http://ns.adobe.com/Flows/1.0/">
]>
<svg version="1.1"
	 xmlns="http://www.w3.org/2000/svg" xmlns:xlink="http://www.w3.org/1999/xlink" xmlns:a="http://ns.adobe.com/AdobeSVGViewerExtensions/3.0/"
	 x="0px" y="0px" width="60px" height="59px" viewBox="-0.4 -7.5 60 59" enable-background="new -0.4 -7.5 60 59"
	 xml:space="preserve">
<defs>
</defs>
<path fill="#19499A" d="M58.5,44.7c-0.2,0-0.4-0.1-0.6-0.2l-0.8-0.6c-0.4-0.4-0.6-1-0.2-1.5c0.4-0.4,1-0.6,1.5-0.2l0.8,0.6
	c0.4,0.4,0.6,1,0.2,1.5C59.2,44.6,58.8,44.7,58.5,44.7z M22.3,42.3c-0.4,0-0.9-0.3-1-0.8c-0.1-0.6,0.2-1.1,0.8-1.3
	c0.8-0.2,1.5-0.6,2.2-1c0.4-0.3,1.1-0.3,1.5,0.3c0.3,0.4,0.3,1.1-0.3,1.5c-0.9,0.6-1.9,1.1-2.9,1.4C22.5,42.3,22.5,42.3,22.3,42.3z
	 M16.9,41.7c-0.1,0-0.3-0.1-0.4-0.1c-0.5-0.3-1-0.6-1.5-0.9l-1-0.8c-0.4-0.4-0.6-1-0.2-1.5c0.4-0.4,1-0.6,1.5-0.2l1,0.8
	c0.3,0.3,0.7,0.5,1.1,0.7c0.5,0.3,0.8,0.9,0.5,1.4C17.6,41.6,17.2,41.7,16.9,41.7z M53.2,40.6c-0.2,0-0.4-0.1-0.6-0.2l-2.2-1.7
	c-0.4-0.4-0.6-1-0.2-1.5c0.4-0.4,1-0.6,1.5-0.2l2.2,1.7c0.4,0.4,0.6,1,0.2,1.5C53.8,40.5,53.5,40.6,53.2,40.6z M29.4,37.7
	c-0.3,0-0.6-0.1-0.8-0.4c-0.4-0.4-0.3-1.1,0.2-1.5l2.2-1.7c0.4-0.4,1.1-0.3,1.5,0.2c0.4,0.4,0.3,1.1-0.2,1.5L30,37.5
	C29.8,37.5,29.6,37.7,29.4,37.7z M10,36.8c-0.2,0-0.4-0.1-0.6-0.2l-2.2-1.7c-0.4-0.4-0.6-1-0.2-1.5c0.4-0.4,1-0.6,1.5-0.2l2.2,1.7
	c0.4,0.4,0.6,1,0.2,1.5C10.7,36.6,10.3,36.8,10,36.8z M46.5,35.5c-0.2,0-0.4-0.1-0.6-0.2l-2.2-1.7c-0.4-0.4-0.6-1-0.2-1.5
	c0.4-0.4,1-0.6,1.5-0.2l2.2,1.7c0.4,0.4,0.6,1,0.2,1.5C47.1,35.4,46.8,35.5,46.5,35.5z M3.3,31.7c-0.2,0-0.4-0.1-0.6-0.2l-2.2-1.7
	c-0.5-0.4-0.6-1-0.3-1.5c0.4-0.5,1-0.6,1.5-0.2l2.2,1.7c0.4,0.4,0.6,1,0.2,1.5C3.9,31.5,3.6,31.7,3.3,31.7z"/>
<path fill="#19499A" d="M49.4,11.1C49.3,4.9,44.2-0.1,38,0c-6.1,0.1-11,5-11.1,11.1c0,5.5,8.2,15.3,10.1,17.4v2.4h-1
	c-0.6,0-1.1,0.5-1.1,1.1c0,0.6,0.5,1.1,1.1,1.1h4.1c0.6,0,1.1-0.5,1.1-1.1c0-0.6-0.5-1.1-1.1-1.1h-1v-2.4
	C41.2,26.4,49.4,16.6,49.4,11.1z M38.2,2c5,0,9.1,4,9.1,9.1c0,3.9-5.9,11.6-9.1,15.3C35,22.8,29.1,15,29.1,11.1
	C29.2,6.1,33.2,2.1,38.2,2L38.2,2z"/>
<path fill="#19499A" d="M43.4,11.4c0-2.9-2.4-5.2-5.2-5.2s-5.2,2.4-5.2,5.2c0,2.9,2.4,5.2,5.2,5.2S43.4,14.2,43.4,11.4L43.4,11.4z
	 M35.1,11.4c0-1.7,1.3-3.1,3.1-3.1c1.7,0,3.1,1.3,3.1,3.1c0,1.7-1.3,3.1-3.1,3.1C36.5,14.4,35.1,13,35.1,11.4L35.1,11.4z"/>
</svg>
