<?xml version="1.0" encoding="utf-8"?>
<!-- Generator: Adobe Illustrator 15.1.0, SVG Export Plug-In  -->
<!DOCTYPE svg PUBLIC "-//W3C//DTD SVG 1.1//EN" "http://www.w3.org/Graphics/SVG/1.1/DTD/svg11.dtd" [
	<!ENTITY ns_flows "http://ns.adobe.com/Flows/1.0/">
]>
<svg version="1.1"
	 xmlns="http://www.w3.org/2000/svg" xmlns:xlink="http://www.w3.org/1999/xlink" xmlns:a="http://ns.adobe.com/AdobeSVGViewerExtensions/3.0/"
	 x="0px" y="0px" width="60px" height="59px" viewBox="-0.7 -0.2 60 59" enable-background="new -0.7 -0.2 60 59"
	 xml:space="preserve">
<defs>
</defs>
<path fill="#19499A" d="M23.3,58.6c-0.6,0-1-0.5-1-1v-4H10.9l-0.2,0.7C9.9,56.5,7.8,58,5.5,58c-3,0-5.5-2.4-5.5-5.4s2.5-5.4,5.5-5.4
	c2.3,0,4.4,1.5,5.2,3.7l0.2,0.7h11.4v-4c0-0.6,0.5-1,1-1h4.9v-9.7H14.7C8,36.8,2.5,31.2,2.5,24.2c0-3.3,1.2-6.4,3.5-8.8
	c2.2-2.4,5.2-3.7,8.3-3.8l0.7,0l0.3-0.6C18,4.6,23.9,0.4,30.6,0c0.3,0,0.6,0,0.9,0c8.8,0,16.6,7.1,17.7,16.1l0.1,0.6l0.6,0.2
	c3.8,1.6,6.2,5.3,6.2,9.5c0,5.7-4.5,10.3-10,10.3H30.3v9.7h4.9c0.6,0,1,0.5,1,1v4h11.4l0.2-0.7c0.8-2.2,2.8-3.7,5.2-3.7
	c3,0,5.5,2.4,5.5,5.4S56.1,58,53.1,58c-2.3,0-4.4-1.5-5.2-3.7l-0.2-0.7H36.3v4c0,0.6-0.5,1-1,1H23.3z M24.3,56.5h9.9v-7.9h-9.9V56.5
	z M53.1,49.2c-1.9,0-3.4,1.5-3.4,3.4s1.5,3.4,3.4,3.4s3.4-1.5,3.4-3.4S55,49.2,53.1,49.2z M5.5,49.2c-1.9,0-3.4,1.5-3.4,3.4
	s1.5,3.4,3.4,3.4c1.9,0,3.4-1.5,3.4-3.4S7.4,49.2,5.5,49.2z M14.7,13.6c-5.6,0-10.1,4.7-10.1,10.6c0,5.8,4.5,10.6,10.1,10.6l31.3,0
	c4.4,0,7.9-3.7,7.9-8.2c0-3.8-2.4-7-6-8l0,0l0,0c-0.6-0.1-2.6-0.2-4-0.2v-2.1c0.5,0,1.2,0,1.9,0.1l1.3,0.1l-0.3-1.3
	c-1.5-7.4-8.1-13-15.4-13c-0.3,0-0.5,0-0.8,0c-5.5,0.3-10.4,3.5-13,8.6l-0.6,1.1l1.2,0.4c1,0.3,2,0.8,2.9,1.4L20,15.2
	C18.4,14.2,16.6,13.6,14.7,13.6L14.7,13.6z"/>
</svg>
