<?xml version="1.0" encoding="utf-8"?>
<!-- Generator: Adobe Illustrator 15.1.0, SVG Export Plug-In  -->
<!DOCTYPE svg PUBLIC "-//W3C//DTD SVG 1.1//EN" "http://www.w3.org/Graphics/SVG/1.1/DTD/svg11.dtd" [
	<!ENTITY ns_flows "http://ns.adobe.com/Flows/1.0/">
]>
<svg version="1.1"
	 xmlns="http://www.w3.org/2000/svg" xmlns:xlink="http://www.w3.org/1999/xlink" xmlns:a="http://ns.adobe.com/AdobeSVGViewerExtensions/3.0/"
	 x="0px" y="0px" width="50px" height="43px" viewBox="-5.2 -1.7 50 43" enable-background="new -5.2 -1.7 50 43"
	 xml:space="preserve">
<defs>
</defs>
<path fill="#1E5F8C" d="M16.4,39.5c-0.2,0-0.4-0.2-0.4-0.4v-5.3l-0.7-0.2c-0.7-0.2-1.5-0.6-2.2-0.9l-0.7-0.4l-3.8,3.8
	c-0.1,0.1-0.2,0.1-0.3,0.1s-0.2,0-0.3-0.1l-4.7-4.7c-0.1-0.1-0.1-0.4,0-0.5l3.8-3.8l-0.4-0.7C6.5,25.7,6.2,25,6,24.2l-0.2-0.7H0.4
	c-0.2,0-0.4-0.2-0.4-0.4v-6.6c0-0.2,0.2-0.4,0.4-0.4h5.3l0.2-0.7c0.3-0.8,0.6-1.5,0.9-2.2l0.4-0.7L3.4,8.6c-0.1-0.1-0.1-0.4,0-0.5
	l4.7-4.7c0.1-0.1,0.2-0.1,0.3-0.1c0.1,0,0.2,0,0.3,0.1l3.8,3.8l0.7-0.4c0.7-0.4,1.5-0.7,2.2-0.9l0.7-0.2V0.4c0-0.2,0.1-0.3,0.3-0.4
	l0,0h6.6c0.2,0,0.4,0.2,0.4,0.4v5.3l0.7,0.2c0.7,0.2,1.5,0.6,2.2,0.9l0.7,0.4l3.8-3.8c0.1-0.1,0.2-0.1,0.3-0.1c0.1,0,0.2,0,0.3,0.1
	l4.7,4.7c0.1,0.1,0.1,0.4,0,0.5l-3.8,3.8l0.3,0.7c0.4,0.7,0.7,1.5,0.9,2.2l0.2,0.7h5.3c0.2,0,0.4,0.2,0.4,0.4v6.6
	c0,0.2-0.2,0.4-0.4,0.4h-5.3l-0.2,0.7c-0.3,0.8-0.6,1.6-0.9,2.3l-0.3,0.7l3.7,3.7c0.1,0.1,0.1,0.4,0,0.5l-4.7,4.7
	c-0.1,0.1-0.2,0.1-0.3,0.1c-0.1,0-0.2,0-0.3-0.1l-8-8l-0.6,0.2c-0.7,0.2-1.6,0.4-2.5,0.4c-4.9,0-8.9-4-8.9-8.9c0-1,0.2-2,0.5-2.9
	c0-0.1,0-0.1,0.1-0.1c0.1-0.1,0.2-0.1,0.3-0.1c0.1,0,0.2,0,0.3,0.1l4.8,4.8l4-0.7l0.7-4.1L16.7,12c0,0-0.1-0.1-0.1-0.1
	c-0.1-0.2,0-0.4,0.2-0.5c0.9-0.3,1.9-0.5,2.9-0.5c4.9,0,8.9,4,8.9,8.9c0,0.8-0.1,1.5-0.4,2.5L28,22.8l3.8,3.8l0.6-1.4
	c0.3-0.7,0.6-1.5,0.8-2.2c0-0.2,0.2-0.3,0.4-0.3h5.2v-5.9h-5.2c-0.2,0-0.3-0.1-0.4-0.3c-0.3-1.4-0.9-2.8-1.7-4
	c-0.1-0.1-0.1-0.3,0.1-0.5l3.7-3.7l-4.2-4.2l-3.7,3.7C27.4,8,27.3,8,27.2,8C27.1,8,27,8,27,8c-1.2-0.8-2.6-1.3-4-1.6
	c-0.2,0-0.3-0.2-0.3-0.4V0.7h-5.9V6c0,0.2-0.1,0.3-0.3,0.4c-1.4,0.3-2.8,0.9-4,1.6C12.5,8,12.4,8,12.3,8c-0.1,0-0.2,0-0.3-0.1
	L8.4,4.2L4.2,8.4l3.7,3.7c0.1,0.1,0.1,0.3,0.1,0.5c-0.8,1.2-1.3,2.6-1.7,4c0,0.2-0.2,0.3-0.4,0.3H0.7v5.9H6c0.2,0,0.3,0.1,0.4,0.3
	c0.3,1.4,0.9,2.7,1.7,4c0.1,0.2,0.1,0.3-0.1,0.5l-3.7,3.7l4.2,4.2l3.7-3.7c0.1-0.1,0.2-0.1,0.3-0.1c0.1,0,0.1,0,0.2,0.1
	c1.2,0.7,2.6,1.3,4,1.6c0.2,0,0.3,0.2,0.3,0.4v5.2h5.9v-3.9c0-0.2,0.2-0.4,0.4-0.4c0.1,0,0.2,0.1,0.3,0.1c0,0,0.1,0.1,0.1,0.3v4.3
	c0,0.2-0.2,0.4-0.4,0.4H16.4z M23,27.3c0.1,0,0.2,0,0.3,0.1l7.9,7.9l4.2-4.2l-7.9-7.9c-0.1-0.1-0.1-0.3-0.1-0.4c0.4-1,0.6-2,0.6-3.1
	c0-4.4-3.5-8-7.9-8.1l-2.6-0.1l4.9,4.9c0.1,0.1,0.1,0.2,0.1,0.3l-0.8,4.5c0,0.1-0.1,0.3-0.3,0.3l-4.5,0.8c0,0,0,0-0.1,0
	c-0.1,0-0.2,0-0.3-0.1l-4.8-4.8l0.1,2.6c0.1,4.4,3.7,7.9,8.1,7.9c1,0,2.1-0.2,3.1-0.6C22.9,27.3,22.9,27.3,23,27.3z"/>
</svg>
