<?xml version="1.0" encoding="utf-8"?>
<!-- Generator: Adobe Illustrator 15.1.0, SVG Export Plug-In  -->
<!DOCTYPE svg PUBLIC "-//W3C//DTD SVG 1.1//EN" "http://www.w3.org/Graphics/SVG/1.1/DTD/svg11.dtd" [
	<!ENTITY ns_flows "http://ns.adobe.com/Flows/1.0/">
]>
<svg version="1.1"
	 xmlns="http://www.w3.org/2000/svg" xmlns:xlink="http://www.w3.org/1999/xlink" xmlns:a="http://ns.adobe.com/AdobeSVGViewerExtensions/3.0/"
	 x="0px" y="0px" width="50px" height="50px" viewBox="0.1 -7.4 50 50" enable-background="new 0.1 -7.4 50 50"
	 xml:space="preserve">
<defs>
</defs>
<path fill="none" stroke="#1E5F8C" stroke-miterlimit="10" d="M26.8,34.8c-0.1,0-0.1-0.1-0.1-0.1v-6.1c0-3.8-3.1-6.8-6.8-6.8H7.6
	c-3.8,0-6.8,3.1-6.8,6.8v6.1c0,0.1-0.1,0.1-0.1,0.1s-0.1-0.1-0.1-0.1v-6.1c0-3.9,3.2-7.1,7.1-7.1h12.2c3.9,0,7.1,3.2,7.1,7.1v6.1
	C26.9,34.7,26.9,34.8,26.8,34.8z"/>
<path fill="none" stroke="#1E5F8C" stroke-miterlimit="10" d="M13.7,16.5c-4.4,0-8-3.6-8-8s3.6-8,8-8s8,3.6,8,8S18.1,16.5,13.7,16.5
	z M13.7,0.8C9.5,0.8,6,4.2,6,8.5c0,4.2,3.5,7.7,7.7,7.7c4.2,0,7.7-3.5,7.7-7.7C21.4,4.2,18,0.8,13.7,0.8z"/>
<path fill="none" stroke="#1E5F8C" stroke-miterlimit="10" d="M37.3,2.5c-0.1,0-0.1-0.1-0.1-0.1s0.1-0.1,0.1-0.1h12.2
	c0.1,0,0.1,0.1,0.1,0.1s-0.1,0.1-0.1,0.1H37.3z"/>
<path fill="none" stroke="#1E5F8C" stroke-miterlimit="10" d="M37.3,10.4c-0.1,0-0.1-0.1-0.1-0.1c0-0.1,0.1-0.1,0.1-0.1h12.2
	c0.1,0,0.1,0.1,0.1,0.1c0,0.1-0.1,0.1-0.1,0.1H37.3z"/>
<path fill="none" stroke="#1E5F8C" stroke-miterlimit="10" d="M37.3,18.2c-0.1,0-0.1-0.1-0.1-0.1s0.1-0.1,0.1-0.1h12.2
	c0.1,0,0.1,0.1,0.1,0.1s-0.1,0.1-0.1,0.1H37.3z"/>
<circle fill="none" stroke="#1E5F8C" stroke-miterlimit="10" cx="31.2" cy="2.4" r="1"/>
<circle fill="none" stroke="#1E5F8C" stroke-miterlimit="10" cx="31.2" cy="10.2" r="1"/>
<circle fill="none" stroke="#1E5F8C" stroke-miterlimit="10" cx="31.2" cy="18.1" r="1"/>
</svg>
