<?xml version="1.0" encoding="utf-8"?>
<!-- Generator: Adobe Illustrator 15.1.0, SVG Export Plug-In  -->
<!DOCTYPE svg PUBLIC "-//W3C//DTD SVG 1.1//EN" "http://www.w3.org/Graphics/SVG/1.1/DTD/svg11.dtd" [
	<!ENTITY ns_flows "http://ns.adobe.com/Flows/1.0/">
]>
<svg version="1.1"
	 xmlns="http://www.w3.org/2000/svg" xmlns:xlink="http://www.w3.org/1999/xlink" xmlns:a="http://ns.adobe.com/AdobeSVGViewerExtensions/3.0/"
	 x="0px" y="0px" width="50px" height="50px" viewBox="-3.9 -2.3 50 50" enable-background="new -3.9 -2.3 50 50"
	 xml:space="preserve">
<defs>
</defs>
<path fill="none" stroke="#1E5F8C" stroke-width="0.5" stroke-miterlimit="10" d="M33,44.3c-4.9,0-8.9-4-8.9-8.9s4-8.9,8.9-8.9
	c4.9,0,8.9,4,8.9,8.9S37.9,44.3,33,44.3z M33,26.8c-4.7,0-8.6,3.8-8.6,8.6s3.8,8.6,8.6,8.6c4.7,0,8.6-3.8,8.6-8.6S37.7,26.8,33,26.8
	z"/>
<path fill="none" stroke="#1E5F8C" stroke-width="0.5" stroke-miterlimit="10" d="M33,35.5c-0.1,0-0.2-0.1-0.2-0.2v-4.8
	c0-0.1,0.1-0.2,0.2-0.2s0.2,0.1,0.2,0.2v4.6h4.6c0.1,0,0.2,0.1,0.2,0.2c0,0.1-0.1,0.2-0.2,0.2H33z"/>
<path fill="none" stroke="#1E5F8C" stroke-width="0.5" stroke-miterlimit="10" d="M5.1,38.6c-0.1,0-0.2-0.1-0.2-0.2
	c0-0.1,0.1-0.2,0.2-0.2h11.2c0.1,0,0.2,0.1,0.2,0.2c0,0.1-0.1,0.2-0.2,0.2H5.1z"/>
<path fill="none" stroke="#1E5F8C" stroke-width="0.5" stroke-miterlimit="10" d="M5.1,14.6c-0.1,0-0.2-0.1-0.2-0.2s0.1-0.2,0.2-0.2
	h23c0.1,0,0.2,0.1,0.2,0.2c0,0.1-0.1,0.2-0.2,0.2H5.1z"/>
<path fill="none" stroke="#1E5F8C" stroke-width="0.5" stroke-miterlimit="10" d="M5.1,26.5c-0.1,0-0.2-0.1-0.2-0.2
	c0-0.1,0.1-0.2,0.2-0.2h16c0.1,0,0.2,0.1,0.2,0.2c0,0.1-0.1,0.2-0.2,0.2H5.1z"/>
<path fill="none" stroke="#1E5F8C" stroke-width="0.5" stroke-miterlimit="10" d="M5.1,32.4c-0.1,0-0.2-0.1-0.2-0.2S5,32,5.1,32
	h13.6c0.1,0,0.2,0.1,0.2,0.2s-0.1,0.2-0.2,0.2H5.1z"/>
<path fill="none" stroke="#1E5F8C" stroke-width="0.5" stroke-miterlimit="10" d="M5.1,20.4c-0.1,0-0.2-0.1-0.2-0.2s0.1-0.2,0.2-0.2
	h11.1c0.1,0,0.2,0.1,0.2,0.2s-0.1,0.2-0.2,0.2H5.1z"/>
<path fill="none" stroke="#1E5F8C" stroke-width="0.5" stroke-miterlimit="10" d="M0.4,45.1c-0.1,0-0.2-0.1-0.2-0.2V5.2
	C0.3,5.1,0.3,5,0.4,5h7V2.8c0-0.1,0.1-0.2,0.2-0.2H13V0.4c0-0.1,0.1-0.2,0.2-0.2h7.1c0.1,0,0.2,0.1,0.2,0.2v2.2h5.4
	c0.1,0,0.2,0.1,0.2,0.2V5h7c0.1,0,0.2,0.1,0.2,0.2v15.9c0,0.1-0.1,0.2-0.2,0.2s-0.2-0.1-0.2-0.2V5.4H26v2.2c0,0.1-0.1,0.2-0.2,0.2
	H7.6c-0.1,0-0.2-0.1-0.2-0.2V5.4H0.6v39.4h22.9c0.1,0,0.2,0.1,0.2,0.2s-0.1,0.2-0.2,0.2H0.4z M7.7,7.4h17.9V3h-5.2v2.2
	c0,0.1-0.1,0.2-0.2,0.2h-7.1C13,5.4,13,5.3,13,5.2V3H7.7V7.4z M13.3,5h6.8V0.6h-6.8V5z"/>
</svg>
