<?xml version="1.0" encoding="utf-8"?>
<!-- Generator: Adobe Illustrator 15.1.0, SVG Export Plug-In  -->
<!DOCTYPE svg PUBLIC "-//W3C//DTD SVG 1.1//EN" "http://www.w3.org/Graphics/SVG/1.1/DTD/svg11.dtd" [
	<!ENTITY ns_flows "http://ns.adobe.com/Flows/1.0/">
]>
<svg version="1.1"
	 xmlns="http://www.w3.org/2000/svg" xmlns:xlink="http://www.w3.org/1999/xlink" xmlns:a="http://ns.adobe.com/AdobeSVGViewerExtensions/3.0/"
	 x="0px" y="0px" width="50px" height="50px" viewBox="-0.1 -3.4 50 50" enable-background="new -0.1 -3.4 50 50"
	 xml:space="preserve">
<defs>
</defs>
<path fill="none" stroke="#1E5F8C" stroke-width="0.5" stroke-miterlimit="10" d="M32.5,21.8c-0.1,0-0.2-0.1-0.2-0.1l-0.4-2.9
	l-0.3-0.1c-0.3-0.1-0.6-0.2-1-0.4l-0.3-0.1L28,19.8c0,0-0.1,0-0.1,0l0,0c0,0-0.1,0-0.1,0c-0.8-0.7-1.6-1.5-2.3-2.4
	c0-0.1,0-0.1,0-0.2c0.1-0.2,0.3-0.4,0.5-0.6l0.2-0.3c0.3-0.4,0.6-0.7,0.7-0.9l0.2-0.3l-0.2-0.4c-0.2-0.4-0.4-0.7-0.5-1.1l-0.1-0.3
	l-2.8-0.4c-0.1,0-0.1-0.1-0.1-0.2l-0.1-3.2c0-0.1,0.1-0.2,0.1-0.2l3-0.5l0.1-0.3c0.1-0.4,0.3-0.7,0.4-1l0.2-0.3l-0.2-0.3
	c-0.4-0.5-0.8-1.1-1.3-1.7l-0.2-0.2c0-0.1,0-0.1,0-0.2c0.4-0.5,0.9-1,1.4-1.5c0.6-0.6,1-0.9,1.1-0.9c0,0,0.1,0,0.1,0c0,0,0,0,0,0
	l0,0L30.2,4l0.3-0.2c0.3-0.2,0.7-0.3,1-0.4L32,3.3l0-0.4c0.1-0.8,0.2-1.7,0.4-2.5c0-0.1,0.1-0.1,0.2-0.1l3.2,0
	c0.1,0,0.2,0.1,0.2,0.1l0.4,2.9l0.3,0.1c0.3,0.1,0.7,0.3,1,0.4L38,4l2.3-1.7c0,0,0.1,0,0.1,0s0.1,0,0.1,0l0,0
	c0.8,0.7,1.6,1.5,2.3,2.4c0,0.1,0,0.1,0,0.2c-0.1,0.2-0.3,0.4-0.5,0.6l-0.2,0.3c-0.2,0.2-0.3,0.4-0.5,0.6l0,0
	c-0.1,0.1-0.2,0.2-0.3,0.3l-0.2,0.3l0.2,0.3c0.2,0.4,0.3,0.7,0.5,1.1l0.1,0.4l2.8,0.4c0.1,0,0.1,0.1,0.1,0.2l0.1,3.2
	c0,0.1-0.1,0.2-0.1,0.2l-2.9,0.4l-0.1,0.3c-0.1,0.4-0.3,0.7-0.4,1l-0.2,0.3l0.2,0.3c0.3,0.4,0.8,1,1.5,1.9c0,0.1,0,0.1,0,0.2
	c-0.4,0.5-0.9,1-1.4,1.5l0,0c-0.8,0.8-1,0.9-1.1,0.9c0,0,0,0,0,0c0,0-0.1,0-0.1,0L38,18l-0.3,0.2c-0.3,0.2-0.7,0.3-1,0.4l-0.4,0.1
	l0,0.4c-0.1,1.1-0.3,2-0.3,2.4l0,0.1c0,0.1-0.1,0.1-0.2,0.1L32.5,21.8L32.5,21.8z M30.2,17.8C30.2,17.8,30.2,17.8,30.2,17.8l0.3,0.1
	c0,0,0,0,0,0c0.4,0.2,0.8,0.3,1.2,0.5l0.3,0.1c0.1,0,0.1,0.1,0.1,0.1l0.4,2.9l2.9,0l0.1-0.5c0.1-0.7,0.2-1.3,0.3-2l0-0.4
	c0-0.1,0.1-0.1,0.1-0.1l0.4-0.1c0.4-0.1,0.8-0.3,1.2-0.5l0.3-0.2c0,0,0.1,0,0.1,0c0,0,0.1,0,0.1,0l2.2,1.8l0.4-0.3
	c0.1-0.1,0.3-0.3,0.5-0.5c0.3-0.3,0.7-0.7,1-1l0.3-0.4l-0.3-0.4c-0.6-0.7-0.9-1.2-1.2-1.6L40.8,15c0-0.1,0-0.1,0-0.2l0.2-0.3l0,0
	c0.2-0.4,0.4-0.8,0.5-1.2l0.1-0.3c0-0.1,0.1-0.1,0.1-0.1l2.9-0.4l-0.1-2.9l-2.8-0.4c-0.1,0-0.1-0.1-0.1-0.1l-0.1-0.3
	c-0.1-0.4-0.3-0.9-0.5-1.3l-0.2-0.3c0-0.1,0-0.1,0-0.2L41,6.7c0.1-0.1,0.2-0.3,0.4-0.5l0,0c0.1-0.2,0.3-0.3,0.4-0.5l0.4-0.5l0.3-0.4
	l-0.3-0.4c-0.3-0.3-0.8-0.8-1.4-1.5l-0.4-0.4l-2.2,1.7c0,0-0.1,0-0.1,0s0,0-0.1,0l-0.3-0.1c-0.4-0.2-0.8-0.3-1.2-0.5l-0.3-0.1
	c-0.1,0-0.1-0.1-0.1-0.1l-0.4-2.9l-2.9,0l-0.1,0.5c-0.1,0.5-0.2,1.2-0.3,2l0,0.4c0,0.1-0.1,0.1-0.1,0.1l-0.4,0.1
	C31.4,3.8,31,4,30.6,4.2l-0.3,0.2c0,0-0.1,0-0.1,0c0,0-0.1,0-0.1,0l-2.2-1.7L27.5,3c-0.1,0.1-0.3,0.3-0.5,0.5
	c-0.4,0.4-0.7,0.7-0.9,1l-0.3,0.4l0.3,0.4c0.4,0.6,0.9,1.1,1.2,1.6L27.5,7c0,0.1,0,0.1,0,0.2l-0.2,0.3c-0.2,0.4-0.4,0.8-0.5,1.2
	L26.7,9c0,0.1-0.1,0.1-0.1,0.1l-2.9,0.5l0.1,2.9l2.8,0.4c0.1,0,0.1,0.1,0.1,0.1l0.1,0.4c0.2,0.5,0.3,0.9,0.6,1.3l0.2,0.3
	c0,0.1,0,0.1,0,0.2l-0.2,0.3c-0.2,0.2-0.4,0.5-0.8,1l-0.4,0.5l-0.3,0.4l0.3,0.4c0.3,0.4,0.8,0.9,1.4,1.4l0.4,0.3l2.2-1.7
	C30.1,17.8,30.2,17.8,30.2,17.8z"/>
<path fill="none" stroke="#1E5F8C" stroke-width="0.5" stroke-miterlimit="10" d="M29.9,42.9c-1.6,0-3-0.5-4.3-1.4
	c-3-2.2-8-5.2-9.5-6.1l-0.3-0.2l-8.7,5.2c0,0,0,0-0.1,0l-0.3,0.2v0.9c0,0.1-0.1,0.2-0.2,0.2H0.4c-0.1,0-0.2-0.1-0.2-0.2V26.9
	c0-0.1,0.1-0.2,0.2-0.2h6.1c0.1,0,0.1,0,0.1,0c0,0,0,0.1,0,0.1v2.4l7-4.4c2.7-1.7,5.1-2.5,7.3-2.5c2.2,0,3.4,0.9,3.6,1.1l0,0
	l8.2,5.3c0.7,0.5,1.2,1.2,1.4,2l0.2,0.7l10.8-4.8l0,0c0.5-0.2,1-0.4,1.5-0.4c0.3,0,0.5,0,0.8,0.1c0.8,0.2,1.4,0.7,1.8,1.4
	c0.4,0.7,0.4,1.5,0.1,2.2c-0.3,0.8-0.8,1.4-1.5,1.8l0,0l-12.4,8.7l-3,1.9C31.7,42.7,30.8,42.9,29.9,42.9L29.9,42.9z M25.8,41.1
	c1.1,0.9,2.6,1.4,4,1.4c0.9,0,1.7-0.2,2.5-0.5l0,0l3-1.9l12.4-8.7c0.7-0.3,1.2-0.9,1.4-1.6c0-0.1,0.1-0.2,0.1-0.3
	c0.1-0.6,0-1.3-0.3-1.8c-0.3-0.5-0.9-0.9-1.5-1c-0.2-0.1-0.5-0.1-0.7-0.1c-0.5,0-1,0.1-1.4,0.3l-11,4.9l-0.1,0.3
	c-0.1,0.5-0.2,0.9-0.5,1.3c-0.6,1-1.7,1.6-2.8,1.6c-0.6,0-1.3-0.2-1.8-0.5l-5.1-3.2c0,0-0.1-0.1-0.1-0.1c0,0,0-0.1,0-0.1
	c0-0.1,0.1-0.1,0.1-0.1c0,0,0.1,0,0.1,0l5.1,3.2c0.5,0.3,1,0.5,1.6,0.5c1,0,2-0.5,2.6-1.4c0.9-1.4,0.5-3.3-0.9-4.2l-8.2-5.3
	c0,0,0,0,0,0c-0.1-0.1-1.3-1-3.5-1c-2.1,0-4.5,0.8-7.1,2.5l-6.8,4.3l-0.3,0.1l0,0.4v10.1l9-5.3c0,0,0.1,0,0.1,0c0,0,0.1,0,0.1,0
	C16.6,35.2,22.4,38.7,25.8,41.1z M0.6,41.2h5.8V27.1H0.6V41.2z"/>
<path fill="none" stroke="#1E5F8C" stroke-width="0.5" stroke-miterlimit="10" d="M34.3,13.9c-1.7,0-3.1-1.4-3.1-3.1
	c0-1.7,1.4-3.1,3.1-3.1c1.7,0,3.1,1.4,3.1,3.1C37.5,12.5,36.1,13.9,34.3,13.9L34.3,13.9z M34.3,8c-1.5,0-2.8,1.2-2.8,2.8
	c0,1.5,1.2,2.8,2.8,2.8c1.5,0,2.8-1.2,2.8-2.8C37.1,9.3,35.9,8,34.3,8L34.3,8L34.3,8z"/>
</svg>
