<?xml version="1.0" encoding="utf-8"?>
<!-- Generator: Adobe Illustrator 15.1.0, SVG Export Plug-In  -->
<!DOCTYPE svg PUBLIC "-//W3C//DTD SVG 1.1//EN" "http://www.w3.org/Graphics/SVG/1.1/DTD/svg11.dtd" [
	<!ENTITY ns_flows "http://ns.adobe.com/Flows/1.0/">
]>
<svg version="1.1"
	 xmlns="http://www.w3.org/2000/svg" xmlns:xlink="http://www.w3.org/1999/xlink" xmlns:a="http://ns.adobe.com/AdobeSVGViewerExtensions/3.0/"
	 x="0px" y="0px" width="59px" height="59px" viewBox="-0.8 -0.8 59 59" enable-background="new -0.8 -0.8 59 59"
	 xml:space="preserve">
<defs>
</defs>
<path fill="#19499A" d="M3.2,47.7c-1.8,0-3.2-1.4-3.2-3.2V12.9c0-1.8,1.4-3.2,3.2-3.2H8c0.4,0,0.8,0.3,0.8,0.8
	c0,0.4-0.3,0.8-0.8,0.8H3.2c-0.9,0-1.7,0.7-1.7,1.7v31.6c0,0.9,0.7,1.7,1.7,1.7h51c0.9,0,1.7-0.7,1.7-1.7V12.9
	c0-0.9-0.7-1.7-1.7-1.7h-4.9c-0.4,0-0.8-0.3-0.8-0.8c0-0.4,0.3-0.8,0.8-0.8h4.9c1.8,0,3.2,1.4,3.2,3.2v31.6c0,1.8-1.4,3.2-3.2,3.2
	H3.2z"/>
<path fill="#19499A" d="M17.8,57.4c-0.4,0-0.8-0.3-0.8-0.8c0-0.4,0.3-0.8,0.8-0.8h21.9c0.4,0,0.8,0.3,0.8,0.8c0,0.4-0.3,0.8-0.8,0.8
	H17.8z"/>
<path fill="#19499A" d="M25,57.4c-0.4,0-0.8-0.3-0.8-0.8v-9.7c0-0.4,0.3-0.8,0.8-0.8c0.4,0,0.8,0.3,0.8,0.8v9.7
	C25.8,57,25.5,57.4,25,57.4z"/>
<path fill="#19499A" d="M32.3,57.4c-0.4,0-0.8-0.3-0.8-0.8v-9.7c0-0.4,0.3-0.8,0.8-0.8c0.4,0,0.8,0.3,0.8,0.8v9.7
	C33.1,57,32.8,57.4,32.3,57.4z"/>
<path fill="#19499A" d="M28.7,20.9c-3.1,0-5.6-2.5-5.6-5.6c0-3.1,2.5-5.6,5.6-5.6c3.1,0,5.6,2.5,5.6,5.6
	C34.3,18.4,31.8,20.9,28.7,20.9z M28.7,11.2c-2.3,0-4.1,1.8-4.1,4.1c0,2.3,1.8,4.1,4.1,4.1c2.3,0,4.1-1.8,4.1-4.1
	C32.8,13.1,31,11.2,28.7,11.2z"/>
<path fill="#19499A" d="M26.8,30.7c-1,0-1.9-0.8-2-1.8l-0.3-3.3l-0.2-0.1c-0.7-0.3-1.4-0.7-2-1.2L22,24.1l-3.1,1.4
	c-0.3,0.1-0.5,0.2-0.8,0.2c-0.7,0-1.4-0.4-1.7-1l-1.9-3.4c-0.5-0.9-0.3-2,0.6-2.6l2.7-2l0-0.3c-0.1-0.4-0.1-0.8-0.1-1.2
	c0-0.4,0-0.7,0.1-1.2l0-0.3l-2.7-2c-0.8-0.6-1.1-1.7-0.6-2.6L16.4,6c0.4-0.6,1-1,1.7-1c0.3,0,0.6,0.1,0.8,0.2L22,6.6l0.2-0.2
	c0.6-0.5,1.3-0.9,2-1.2l0.2-0.1l0.3-3.4c0.1-1,0.9-1.8,2-1.8h3.9c1,0,1.9,0.8,2,1.8l0.3,3.3l0.2,0.1c0.7,0.3,1.4,0.7,2,1.2l0.2,0.2
	l3.1-1.4C38.7,5.1,39,5,39.3,5C40,5,40.6,5.4,41,6l1.9,3.4c0.5,0.9,0.3,2-0.6,2.6l-2.7,2l0,0.3c0.1,0.4,0.1,0.8,0.1,1.2
	s0,0.7-0.1,1.2l0,0.3l2.7,2c0.8,0.6,1.1,1.7,0.6,2.6L41,24.7c-0.4,0.6-1,1-1.7,1c-0.3,0-0.6-0.1-0.8-0.2l-3.1-1.4l-0.2,0.2
	c-0.6,0.5-1.3,0.9-2,1.2l-0.2,0.1l-0.3,3.4c-0.1,1-0.9,1.8-2,1.8H26.8z M22.1,22.5c0.2,0,0.4,0.1,0.5,0.2c0.9,0.7,1.8,1.3,2.8,1.6
	c0.3,0.1,0.5,0.3,0.5,0.6l0.4,4.2H31l0.4-4.2c0-0.3,0.2-0.5,0.5-0.6c1-0.4,2-0.9,2.8-1.6c0.1-0.1,0.3-0.2,0.5-0.2
	c0.1,0,0.2,0,0.3,0.1l3.9,1.8l2.4-4.1l-3.4-2.5c-0.2-0.2-0.4-0.5-0.3-0.7c0.1-0.4,0.2-1,0.2-1.7c0-0.6-0.1-1.2-0.2-1.7
	c0-0.3,0.1-0.6,0.3-0.8l3.4-2.5l-2.3-4.1l-3.9,1.8c-0.1,0-0.2,0.1-0.3,0.1c-0.2,0-0.4-0.1-0.5-0.2C33.9,7.3,33,6.8,32,6.4
	c-0.3-0.1-0.5-0.3-0.5-0.6L31,1.5h-4.7l-0.4,4.2c0,0.3-0.2,0.5-0.5,0.6c-1,0.4-2,0.9-2.8,1.7c-0.1,0.1-0.3,0.2-0.5,0.2
	c-0.1,0-0.2,0-0.3-0.1l-3.9-1.8l-2.4,4.1l3.4,2.5c0.2,0.2,0.4,0.5,0.3,0.7c-0.1,0.5-0.2,1-0.2,1.7c0,0.6,0.1,1.2,0.2,1.7
	c0.1,0.3-0.1,0.6-0.3,0.8l-3.4,2.5l2.3,4.1l3.9-1.8C21.9,22.5,22,22.5,22.1,22.5z"/>
</svg>
