<?xml version="1.0" encoding="utf-8"?>
<!-- Generator: Adobe Illustrator 15.1.0, SVG Export Plug-In  -->
<!DOCTYPE svg PUBLIC "-//W3C//DTD SVG 1.1//EN" "http://www.w3.org/Graphics/SVG/1.1/DTD/svg11.dtd" [
	<!ENTITY ns_flows "http://ns.adobe.com/Flows/1.0/">
]>
<svg version="1.1"
	 xmlns="http://www.w3.org/2000/svg" xmlns:xlink="http://www.w3.org/1999/xlink" xmlns:a="http://ns.adobe.com/AdobeSVGViewerExtensions/3.0/"
	 x="0px" y="0px" width="64px" height="59px" viewBox="-1.3 -1 64 59" enable-background="new -1.3 -1 64 59" xml:space="preserve">
<defs>
</defs>
<path fill="#19499A" d="M28.9,57c-1.3,0-2.5-0.3-3.6-0.8l-12.6-5.7c-0.3-0.1-0.4-0.4-0.3-0.7c0.1-0.2,0.3-0.3,0.5-0.3
	c0.1,0,0.1,0,0.2,0l12.6,5.8c1,0.5,2.1,0.7,3.2,0.7c1.6,0,3.2-0.5,4.5-1.4l25.9-18.4c0.6-0.4,1-1.1,1.1-1.8c0.1-0.7-0.1-1.4-0.5-2
	c-0.5-0.7-1.3-1.1-2.2-1.1c-0.3,0-0.6,0-0.9,0.1l-18.8,6.5c-0.1,0-0.1,0-0.2,0c-0.2,0-0.4-0.1-0.5-0.3c-0.1-0.3,0-0.6,0.3-0.6
	l18.8-6.5c0.4-0.1,0.8-0.2,1.2-0.2c1.6,0,3,1,3.5,2.5c0.5,1.6,0,3.3-1.4,4.2L34,55.4C32.5,56.5,30.8,57,28.9,57L28.9,57z"/>
<path fill="#19499A" d="M25.7,41.2c-0.3,0-0.5-0.2-0.5-0.5c0-0.2,0.2-0.4,0.4-0.5l10.9-2.7c1.5-0.4,2.4-2,2-3.6
	c-0.4-1.2-1.5-2.1-2.8-2.1l-10,0.2c-0.1,0-0.2,0-0.2-0.1l-3.6-1.9c-2.4-1.3-5.1-1.9-7.9-1.9c-0.3,0-0.6,0-0.9,0c0,0-0.3,0-0.3,0
	c-0.3,0-0.5-0.2-0.5-0.5l0,0c0-0.3,0.2-0.5,0.5-0.5l0.3,0c0.3,0,0.6,0,1,0c2.9,0,5.8,0.7,8.3,2l3.5,1.8l9.9-0.2
	c2.1,0,3.9,1.7,3.9,3.9c0,1.8-1.2,3.3-2.9,3.8l-10.9,2.7C25.8,41.2,25.8,41.2,25.7,41.2L25.7,41.2z"/>
<path fill="#19499A" d="M2.8,52.7c-1.5,0-2.8-1.2-2.8-2.8V26.6c0-1.5,1.2-2.8,2.8-2.8h7.8c1.5,0,2.8,1.2,2.8,2.8v23.3
	c0,1.5-1.2,2.8-2.8,2.8H2.8z M2.8,24.9c-1,0-1.7,0.8-1.8,1.7v23.3c0,1,0.8,1.8,1.8,1.8h7.8c1,0,1.7-0.8,1.8-1.8V26.6
	c0-1-0.8-1.7-1.8-1.7H2.8z"/>
<path fill="#19499A" d="M52.7,32.8c-0.3,0-0.5-0.2-0.5-0.5c0-0.1,0-0.1,0-0.2c2.2-5-6.3-16.6-8.9-20l-0.1-0.1h-8.9l-0.1,0.1
	c-3,3.8-9.8,13.4-9.2,18.7c0,0.3-0.2,0.5-0.5,0.5c0,0,0,0,0,0c-0.3,0-0.5-0.2-0.5-0.4C23.3,25,30.5,15,33.6,11
	c0.1-0.1,0.2-0.2,0.4-0.2c0.1,0,0.1,0,0.2,0c0.1,0,0.2,0,0.2,0h8.5c0.1,0,0.2,0,0.3,0c0.1,0,0.1,0,0.2,0c0.2,0,0.3,0.1,0.4,0.2
	c2,2.6,4.8,6.5,7,10.5c2.6,4.9,3.4,8.6,2.4,11C53.1,32.7,52.9,32.8,52.7,32.8L52.7,32.8z"/>
<path fill="#19499A" d="M43.4,8.9c-0.1,0-0.1,0-0.2,0c-0.1,0-0.2,0-0.3,0l-8.5,0c-0.1,0-0.1,0-0.2,0l0,0c0,0-0.1,0-0.1,0
	c-0.2,0-0.3-0.1-0.4-0.3l-2.8-4.9C30.5,3,30.5,2,31,1.3c0.4-0.6,1.1-0.9,1.8-0.9c0.1,0,0.3,0,0.4,0l0.5,0.1c0.3,0.1,0.5,0.1,0.8,0.1
	c0.3,0,0.5,0,0.7-0.1l2.2-0.5C37.8,0,38.1,0,38.5,0c0.6,0,1.1,0.1,1.6,0.3l1.5,0.6C42,1,42.4,1.1,42.8,1.1c0.4,0,0.7-0.1,1.1-0.2
	c0.2-0.1,0.4-0.1,0.6-0.1c1,0,1.8,0.7,2.1,1.6c0.2,0.6,0.1,1.1-0.1,1.6c0,0,0,0,0,0l-2.7,4.6C43.7,8.8,43.6,8.9,43.4,8.9z M32.8,1.5
	c-0.6,0-1.1,0.4-1.2,1c0,0.3,0,0.5,0.1,0.8l0,0l2.6,4.6h8.8l2.5-4.2l0,0c0.2-0.4,0.2-0.8-0.1-1.2c-0.2-0.4-0.6-0.6-1-0.6
	c-0.1,0-0.2,0-0.3,0l0,0c-0.5,0.1-0.9,0.2-1.4,0.2c-0.6,0-1.1-0.1-1.6-0.3l-1.5-0.6C39.3,1.1,38.9,1,38.5,1c-0.2,0-0.5,0-0.7,0.1
	l-2.2,0.5c-0.3,0.1-0.6,0.1-1,0.1c-0.3,0-0.7,0-1-0.1l-0.5-0.1C33,1.5,32.9,1.5,32.8,1.5z"/>
<path fill="#19499A" d="M38.6,26.3c-0.4,0-0.8-0.1-1.2-0.3l0,0C37.8,26.2,38.2,26.3,38.6,26.3z M39.2,26.3c0.8-0.1,1.4-0.7,1.4-1.5
	c0-1-0.8-1.4-1.5-1.7c-1.2-0.5-1.6-0.9-1.6-1.6c0-0.7,0.5-1.3,1.1-1.4c-0.6,0.2-0.9,0.8-0.9,1.3c0,0.9,0.7,1.3,1.6,1.6
	c1.2,0.5,1.5,1,1.5,1.7c0,0.8-0.6,1.5-1.4,1.5L39.2,26.3z M40.4,20.3c-0.2-0.1-0.5-0.2-0.7-0.2C39.9,20.1,40.2,20.2,40.4,20.3
	L40.4,20.3z"/>
<path fill="#19499A" d="M39.4,27.6h-0.7c-0.2,0-0.3-0.1-0.3-0.3V27c-0.6,0-1.1-0.2-1.6-0.5c-0.1-0.1-0.1-0.2-0.1-0.3l0.3-0.8
	c0-0.1,0.1-0.1,0.2-0.2c0.1,0,0.2,0,0.2,0c0.4,0.3,0.9,0.4,1.5,0.4c0.6,0,1-0.3,1-0.8c0-0.3-0.1-0.7-1.1-1.1c-1-0.4-2-1-2-2.2
	c0-1,0.7-1.9,1.7-2v-0.4c0-0.2,0.1-0.3,0.3-0.3c0,0,0,0,0,0h0.7c0.2,0,0.3,0.1,0.3,0.3v0v0.3c0.5,0,0.9,0.2,1.3,0.4
	c0.1,0.1,0.2,0.2,0.1,0.3l-0.3,0.7c0,0.1-0.1,0.1-0.2,0.2c-0.1,0-0.2,0-0.2,0c-0.4-0.2-0.8-0.3-1.3-0.3c-0.7,0-0.9,0.4-0.9,0.7
	c0,0.4,0.2,0.6,1.2,1c1.1,0.3,1.9,1.2,1.9,2.3c0,1-0.7,1.9-1.8,2.1v0.4C39.7,27.4,39.5,27.6,39.4,27.6
	C39.4,27.6,39.4,27.6,39.4,27.6L39.4,27.6z M38.9,27h0.1v-0.3c0-0.1,0.1-0.3,0.2-0.3c0.9-0.1,1.5-0.8,1.5-1.6c0-0.8-0.5-1.3-1.6-1.8
	c-0.9-0.4-1.6-0.7-1.6-1.5c0-0.7,0.6-1.3,1.3-1.3c0,0,0.1,0,0.1,0c0.4,0,0.9,0.1,1.3,0.3l0.1-0.2c-0.4-0.2-0.7-0.2-1.1-0.2
	c-0.2,0-0.3-0.1-0.3-0.3v-0.3H39v0.3c0,0.1-0.1,0.3-0.2,0.3c-0.8,0-1.4,0.7-1.5,1.5c0,0.7,0.5,1.2,1.7,1.7c0.7,0.3,1.4,0.7,1.4,1.6
	c0,0.8-0.7,1.4-1.5,1.4c0,0-0.1,0-0.1,0c-0.5,0-1-0.1-1.5-0.4l-0.1,0.2c0.4,0.2,0.9,0.3,1.4,0.3c0.2,0,0.3,0.1,0.3,0.3V27z"/>
<path fill="#19499A" d="M34.5,11.9c-0.2,0-0.4,0-0.6-0.1c-0.9-0.3-1.4-1.1-1.4-1.9c0-0.9,0.6-1.7,1.5-2c0.2,0,0.3-0.1,0.5-0.1h8.5
	c0.2,0,0.4,0,0.6,0.1c0.5,0.2,0.9,0.5,1.2,1c0.2,0.5,0.3,1,0.1,1.5c-0.1,0.3-0.3,0.6-0.5,0.8c-0.2,0.2-0.5,0.4-0.8,0.5l0,0
	c-0.2,0.1-0.4,0.1-0.5,0.1H34.5z M34.2,10.8c0.1,0,0.2,0,0.3,0h8.5c0.1,0,0.2,0,0.3,0c0.2,0,0.3-0.1,0.5-0.3c0.4-0.4,0.4-1,0-1.4
	C43.6,9,43.4,9,43.2,8.9c-0.1,0-0.2-0.1-0.3-0.1l-8.5,0c-0.1,0-0.1,0-0.2,0c-0.2,0-0.4,0.1-0.5,0.3l0,0l0,0
	c-0.2,0.2-0.3,0.4-0.3,0.7C33.4,10.3,33.7,10.7,34.2,10.8z"/>
</svg>
