<?xml version="1.0" encoding="utf-8"?>
<!-- Generator: Adobe Illustrator 15.1.0, SVG Export Plug-In  -->
<!DOCTYPE svg PUBLIC "-//W3C//DTD SVG 1.1//EN" "http://www.w3.org/Graphics/SVG/1.1/DTD/svg11.dtd" [
	<!ENTITY ns_flows "http://ns.adobe.com/Flows/1.0/">
]>
<svg version="1.1"
	 xmlns="http://www.w3.org/2000/svg" xmlns:xlink="http://www.w3.org/1999/xlink" xmlns:a="http://ns.adobe.com/AdobeSVGViewerExtensions/3.0/"
	 x="0px" y="0px" width="35px" height="40px" viewBox="-0.5 -0.2 35 40" enable-background="new -0.5 -0.2 35 40"
	 xml:space="preserve">
<defs>
</defs>
<path fill="#19499A" d="M33.9,4.5c0-2.5-2-4.5-4.5-4.5h-25C2,0,0,2,0,4.5v30.7c0,2.5,2,4.5,4.5,4.5h25c2.5,0,4.5-2,4.5-4.5V4.5z
	 M10,1.6h13.9v3.9c0,1.1-0.8,2-1.9,2H11.9c-1.1,0-1.9-0.9-1.9-2V1.6z M1.6,35.2V4.5c0-1.6,1.2-2.9,2.8-2.9h3.9v3.9
	c0,2,1.6,3.6,3.6,3.6H22c2,0,3.5-1.6,3.5-3.6V1.6h3.9c1.6,0,2.8,1.3,2.8,2.9v30.7c0,1.6-1.2,2.9-2.8,2.9h-25
	C2.9,38.1,1.6,36.8,1.6,35.2z"/>
<path fill="#19499A" d="M8.1,18.1h7.6c0.5,0,0.8-0.4,0.8-0.8c0-0.5-0.4-0.8-0.8-0.8H8.1c-0.5,0-0.8,0.4-0.8,0.8
	C7.3,17.8,7.7,18.1,8.1,18.1z"/>
<path fill="#19499A" d="M8.1,24.5h17.6c0.5,0,0.8-0.4,0.8-0.8c0-0.5-0.4-0.8-0.8-0.8H8.1c-0.5,0-0.8,0.4-0.8,0.8
	C7.3,24.2,7.7,24.5,8.1,24.5z"/>
<path fill="#19499A" d="M8.1,30.9h17.6c0.5,0,0.8-0.4,0.8-0.8s-0.4-0.8-0.8-0.8H8.1c-0.5,0-0.8,0.4-0.8,0.8S7.7,30.9,8.1,30.9z"/>
</svg>
