<?xml version="1.0" encoding="utf-8"?>
<!-- Generator: Adobe Illustrator 15.1.0, SVG Export Plug-In . SVG Version: 6.00 Build 0)  -->
<!DOCTYPE svg PUBLIC "-//W3C//DTD SVG 1.1//EN" "http://www.w3.org/Graphics/SVG/1.1/DTD/svg11.dtd">
<svg version="1.1" id="Layer_1" xmlns="http://www.w3.org/2000/svg" xmlns:xlink="http://www.w3.org/1999/xlink" x="0px" y="0px"
	 width="50px" height="44px" viewBox="0 0 50 44" enable-background="new 0 0 50 44" xml:space="preserve">
<path fill="#FFFFFF" d="M0.764,43.674c-0.197,0-0.395-0.195-0.395-0.492v-9.654c0-0.197,0.197-0.395,0.395-0.395
	c0.196,0,0.395,0.197,0.395,0.395v4.434h9.753c1.379,0,2.659-0.787,3.251-1.971l6.896-13.201L9.531,19.636
	c-2.365-0.688-3.844-3.153-3.153-5.616L9.234,3.675c0.492-1.97,2.365-3.349,4.336-3.349c0.394,0,0.789,0.098,1.183,0.197
	l28.866,7.881l-1.279,3.055l7.291,1.97l-5.617,12.118l-6.6-1.871l-1.281,3.25l-14.188-3.939l-6.896,13.398
	c-0.789,1.479-2.266,2.463-4.04,2.463H1.255v4.334C1.256,43.479,1.059,43.674,0.764,43.674z M13.57,1.211
	c-1.674,0-3.053,1.084-3.547,2.66L7.167,14.314c-0.493,1.971,0.591,3.941,2.562,4.434l25.813,7.092L42.34,8.994L14.557,1.408
	C14.261,1.311,13.867,1.211,13.57,1.211L13.57,1.211z M37.711,23.084l5.813,1.576l4.826-10.542l-6.402-1.772L37.711,23.084z"/>
</svg>
