<?xml version="1.0" encoding="utf-8"?>
<!-- Generator: Adobe Illustrator 15.1.0, SVG Export Plug-In . SVG Version: 6.00 Build 0)  -->
<!DOCTYPE svg PUBLIC "-//W3C//DTD SVG 1.1//EN" "http://www.w3.org/Graphics/SVG/1.1/DTD/svg11.dtd">
<svg version="1.1" id="Layer_1" xmlns="http://www.w3.org/2000/svg" xmlns:xlink="http://www.w3.org/1999/xlink" x="0px" y="0px"
	 width="27px" height="53px" viewBox="0 0 27 53" enable-background="new 0 0 27 53" xml:space="preserve">
<g>
	<path fill="#242956" d="M0.831,52.639c-0.104,0-0.208,0-0.313-0.104c-0.312-0.207-0.416-0.52-0.312-0.83l9.128-24.479H0.83
		c-0.208,0-0.415-0.104-0.519-0.311c-0.104-0.208-0.209-0.415-0.104-0.623L6.534,0.881c0-0.311,0.312-0.52,0.623-0.52h18.98
		c0.207,0,0.519,0.104,0.622,0.313c0.104,0.207,0.104,0.52,0,0.727l-8.92,14.936h8.298c0.207,0,0.519,0.104,0.622,0.416
		c0.104,0.207,0.104,0.518-0.104,0.727L1.348,52.328C1.245,52.533,1.038,52.639,0.831,52.639L0.831,52.639z M1.66,25.774h8.608
		c0.207,0,0.416,0.104,0.52,0.312c0.104,0.207,0.208,0.415,0.104,0.622L5.499,41.229l1.66,0.83l17.632-24.375h-8.193
		c-0.209,0-0.519-0.104-0.624-0.312c-0.103-0.207-0.103-0.519,0-0.726l8.92-14.832H7.678L1.66,25.774z"/>
</g>
</svg>
