<?xml version="1.0" encoding="utf-8"?>
<!-- Generator: Adobe Illustrator 15.1.0, SVG Export Plug-In . SVG Version: 6.00 Build 0)  -->
<!DOCTYPE svg PUBLIC "-//W3C//DTD SVG 1.1//EN" "http://www.w3.org/Graphics/SVG/1.1/DTD/svg11.dtd">
<svg version="1.1" id="Layer_1" xmlns="http://www.w3.org/2000/svg" xmlns:xlink="http://www.w3.org/1999/xlink" x="0px" y="0px"
	 width="48px" height="45px" viewBox="0 0 48 45" enable-background="new 0 0 48 45" xml:space="preserve">
<g>
	<path fill="#FFFFFF" d="M37.875,44.14l-2.813-2.813H12.936l-2.813,2.813H0.71V6.294h2.813V1.831H0.71V0.666h15.429v1.262h-2.813
		v4.465h33.962v37.941h-9.412V44.14H37.875z M38.361,42.975h7.664v-7.276H1.971v7.276h7.666l2.813-2.813h23.095L38.361,42.975z
		 M1.971,34.532h44.152V7.459H1.971V34.532z M4.785,6.294h7.375V1.831H4.785V6.294z"/>
	<path fill="#FFFFFF" d="M23.999,30.068c-5.046,0-9.122-4.075-9.122-9.121c0-5.047,4.076-9.122,9.122-9.122
		c5.046,0,9.121,4.075,9.121,9.122C33.119,25.993,29.045,30.068,23.999,30.068z M23.999,13.087c-4.366,0-7.859,3.493-7.859,7.86
		c0,4.365,3.493,7.859,7.859,7.859c4.367,0,7.861-3.494,7.861-7.859C31.859,16.678,28.365,13.087,23.999,13.087z"/>
</g>
</svg>
