<?xml version="1.0" encoding="utf-8"?>
<!-- Generator: Adobe Illustrator 15.1.0, SVG Export Plug-In . SVG Version: 6.00 Build 0)  -->
<!DOCTYPE svg PUBLIC "-//W3C//DTD SVG 1.1//EN" "http://www.w3.org/Graphics/SVG/1.1/DTD/svg11.dtd">
<svg version="1.1" id="Layer_1" xmlns="http://www.w3.org/2000/svg" xmlns:xlink="http://www.w3.org/1999/xlink" x="0px" y="0px"
	 width="48px" height="36px" viewBox="0 0 48 36" enable-background="new 0 0 48 36" xml:space="preserve">
<g>
	<g>
		<path fill="#FFFFFF" d="M5.717,24.738c-2.974,0-5.351-2.377-5.351-5.352V5.514c0-2.973,2.377-5.352,5.351-5.352h36.566
			c2.972,0,5.351,2.379,5.351,5.352v13.873c0,2.975-2.379,5.352-5.351,5.352H5.717z M34.257,16.911c2.872,0,5.251,2.376,5.251,5.251
			v1.287h2.675c2.279,0,4.064-1.783,4.064-4.063V5.514c0-2.279-1.785-4.063-4.064-4.063H5.718c-2.278,0-4.063,1.781-4.063,4.063
			v13.873c0,2.279,1.785,4.063,4.063,4.063h2.675v-1.287c0-2.875,2.377-5.251,5.252-5.251H34.257z M13.645,18.199
			c-2.181,0-4.063,1.784-4.063,4.063v1.287h28.738v-1.287c0-2.18-1.783-4.063-4.063-4.063H13.645z"/>
	</g>
	<g>
		<path fill="#FFFFFF" d="M38.615,6.903c-0.396,0-0.594-0.299-0.594-0.596c0-0.396,0.298-0.595,0.594-0.595h1.883
			c0.199,0,0.298,0.099,0.496,0.198c0.099,0.099,0.199,0.297,0.199,0.494c0,0.396-0.3,0.595-0.596,0.595h-1.982V6.903z"/>
	</g>
	<g>
		<path fill="#FFFFFF" d="M31.778,6.903c-0.396,0-0.596-0.299-0.596-0.596c0-0.396,0.299-0.595,0.596-0.595h1.883
			c0.396,0,0.596,0.297,0.596,0.595c0,0.396-0.298,0.596-0.596,0.596H31.778z"/>
	</g>
	<g>
		<path fill="#FFFFFF" d="M23.95,35.838c-0.396,0-0.593-0.297-0.593-0.596v-6.738c0-0.395,0.295-0.596,0.593-0.596
			c0.396,0,0.596,0.299,0.596,0.596v6.738C24.546,35.541,24.346,35.838,23.95,35.838z"/>
	</g>
	<g>
		<path fill="#FFFFFF" d="M32.274,35.838c-2.479,0-4.46-1.98-4.46-4.461v-2.873c0-0.395,0.298-0.596,0.595-0.596
			c0.298,0,0.595,0.299,0.595,0.596v2.873c0,1.785,1.486,3.271,3.271,3.271c0.396,0,0.595,0.299,0.595,0.596
			C32.967,35.541,32.67,35.838,32.274,35.838z"/>
	</g>
	<g>
		<path fill="#FFFFFF" d="M15.625,35.838c-0.396,0-0.594-0.297-0.594-0.596c0-0.297,0.298-0.594,0.594-0.594
			c1.784,0,3.271-1.486,3.271-3.271v-2.875c0-0.395,0.297-0.594,0.592-0.594c0.397,0,0.596,0.297,0.596,0.594v2.875
			C20.085,33.855,18.104,35.838,15.625,35.838z"/>
	</g>
</g>
</svg>
