<?xml version="1.0" encoding="utf-8"?>
<!-- Generator: Adobe Illustrator 15.1.0, SVG Export Plug-In . SVG Version: 6.00 Build 0)  -->
<!DOCTYPE svg PUBLIC "-//W3C//DTD SVG 1.1//EN" "http://www.w3.org/Graphics/SVG/1.1/DTD/svg11.dtd">
<svg version="1.1" id="Layer_1" xmlns="http://www.w3.org/2000/svg" xmlns:xlink="http://www.w3.org/1999/xlink" x="0px" y="0px"
	 width="48px" height="40px" viewBox="0 0 48 40" enable-background="new 0 0 48 40" xml:space="preserve">
<g>
	<g>
		<path fill="#FFFFFF" d="M4.262,39.887c-1.289,0-2.479-0.693-3.076-1.785c-0.595-1.092-0.595-2.479,0.101-3.57L21.024,1.799
			C21.62,0.807,22.809,0.113,24,0.113c1.191,0,2.38,0.693,2.975,1.686l19.739,32.732c0.693,1.092,0.693,2.479,0.1,3.57
			c-0.596,1.092-1.785,1.785-3.074,1.785H4.262z M24,1.6c-0.693,0-1.389,0.397-1.686,0.992L2.576,35.324
			c-0.396,0.596-0.396,1.389,0,1.982c0.397,0.596,0.991,0.992,1.687,0.992H43.74c0.692,0,1.389-0.396,1.686-0.992
			c0.397-0.596,0.298-1.387,0-1.982L25.688,2.592C25.39,1.997,24.694,1.6,24,1.6z"/>
	</g>
	<g>
		<path fill="#FFFFFF" d="M24,26.299c-0.297,0-0.596-0.1-0.793-0.197C23.108,26,23.008,26,23.008,25.803
			c0-1.787-0.099-3.869-0.197-5.951c-0.1-2.082-0.199-4.166-0.199-5.853c0-0.892,0.992-0.992,1.289-0.992c0.1,0,1.292,0,1.292,0.992
			c0,1.687-0.102,3.868-0.2,5.853c-0.1,2.082-0.197,4.264-0.197,5.951C24.893,26.199,24.298,26.299,24,26.299z"/>
	</g>
	<g>
		<path fill="#FFFFFF" d="M24,32.744c-0.793,0-1.389-0.693-1.389-1.387c0-0.793,0.596-1.389,1.389-1.389
			c0.793,0,1.389,0.693,1.389,1.389C25.487,32.15,24.794,32.744,24,32.744z"/>
	</g>
</g>
</svg>
