<?xml version="1.0" encoding="utf-8"?>
<!-- Generator: Adobe Illustrator 15.1.0, SVG Export Plug-In  -->
<!DOCTYPE svg PUBLIC "-//W3C//DTD SVG 1.1//EN" "http://www.w3.org/Graphics/SVG/1.1/DTD/svg11.dtd" [
	<!ENTITY ns_flows "http://ns.adobe.com/Flows/1.0/">
]>
<svg version="1.1"
	 xmlns="http://www.w3.org/2000/svg" xmlns:xlink="http://www.w3.org/1999/xlink" xmlns:a="http://ns.adobe.com/AdobeSVGViewerExtensions/3.0/"
	 x="0px" y="0px" width="45px" height="45px" viewBox="-0.092 -0.1 45 45" enable-background="new -0.092 -0.1 45 45"
	 xml:space="preserve">
<defs>
</defs>
<path fill="#0D47A1" d="M22.408,25.547c-1.732,0-3.141-1.408-3.141-3.141s1.409-3.141,3.141-3.141c1.732,0,3.141,1.408,3.141,3.141
	S24.14,25.547,22.408,25.547z M22.446,19.915c-1.374,0-2.491,1.118-2.491,2.491c0,1.396,1.094,2.491,2.491,2.491
	c1.374,0,2.491-1.117,2.491-2.491C24.937,21.033,23.82,19.915,22.446,19.915z"/>
<path fill="#0D47A1" d="M22.408,35.602c-0.696,0-1.346-0.379-1.738-1.013c-4.736-8.237-5.732-11.748-5.732-13.24
	c0-4.119,3.351-7.471,7.471-7.471c4.119,0,7.47,3.352,7.47,7.471c0,1.492-0.996,5.003-5.742,13.258
	C23.781,35.229,23.134,35.602,22.408,35.602z M22.408,14.528c-3.761,0-6.821,3.06-6.821,6.82c0,2.024,2.069,6.745,5.677,12.952
	c0.378,0.604,0.971,0.65,1.144,0.65c0.646,0,0.982-0.359,1.15-0.661c2.113-3.661,5.67-10.224,5.67-12.941
	C29.228,17.588,26.169,14.528,22.408,14.528z"/>
<path fill="#0D47A1" d="M22.397,35.957c-7.457,0-13.528-6.067-13.533-13.524c-0.002-3.615,1.403-7.015,3.958-9.573
	c2.555-2.558,5.952-3.967,9.567-3.97c7.468,0,13.538,6.067,13.544,13.524c0.004,5.458-3.244,10.355-8.271,12.479
	c-1.668,0.706-3.434,1.064-5.245,1.064H22.397z M22.402,9.698c-7.008,0-12.712,5.702-12.715,12.711
	c-0.001,3.396,1.32,6.59,3.721,8.992s5.593,3.727,8.99,3.728c7.014,0,12.717-5.701,12.721-12.711
	c-0.008-7.01-5.711-12.712-12.71-12.72H22.402z"/>
<path fill="#0D47A1" d="M18.215,44.801c-0.231,0-0.419-0.188-0.419-0.419v-3.604l-0.235-0.061c-1.638-0.428-3.211-1.074-4.676-1.923
	l-0.209-0.121l-2.545,2.546c-0.08,0.08-0.186,0.125-0.298,0.125c-0.111,0-0.216-0.043-0.295-0.121l-5.926-5.94
	c-0.165-0.164-0.166-0.431-0.003-0.595l2.548-2.548l-0.12-0.208c-0.848-1.469-1.495-3.043-1.923-4.683l-0.062-0.234H0.419
	C0.188,27.015,0,26.827,0,26.596v-8.375c0-0.231,0.188-0.419,0.419-0.419h3.604l0.061-0.235c0.428-1.639,1.076-3.215,1.923-4.682
	l0.121-0.208l-2.545-2.545c-0.165-0.164-0.166-0.43-0.004-0.594l5.955-5.925C9.614,3.531,9.72,3.487,9.833,3.487
	c0.111,0,0.216,0.043,0.295,0.122l2.549,2.548l0.208-0.12c1.464-0.849,3.038-1.496,4.676-1.923l0.234-0.062V0.419
	C17.796,0.188,17.984,0,18.215,0h8.386c0.23,0,0.418,0.188,0.418,0.419v3.604l0.234,0.062c1.639,0.427,3.213,1.073,4.678,1.922
	l0.207,0.121l2.547-2.545c0.08-0.081,0.186-0.125,0.297-0.125s0.217,0.043,0.297,0.121l5.924,5.954
	c0.166,0.164,0.166,0.431,0.004,0.595l-2.549,2.548l0.121,0.209c0.848,1.467,1.494,3.042,1.922,4.682l0.063,0.234h3.633
	c0.232,0,0.42,0.188,0.42,0.42v8.375c0,0.23-0.188,0.419-0.42,0.419h-3.619l-0.061,0.234c-0.428,1.639-1.074,3.214-1.924,4.682
	l-0.119,0.208l2.545,2.546c0.164,0.163,0.166,0.429,0.004,0.593l-0.023,0.025l-5.918,5.9c-0.08,0.081-0.186,0.125-0.299,0.125
	c-0.111,0-0.215-0.043-0.295-0.121l-0.018-0.017l-2.531-2.532l-0.207,0.121c-1.465,0.849-3.039,1.495-4.678,1.922l-0.234,0.062
	v3.634c-0.004,0.221-0.191,0.404-0.418,0.404H18.215z M12.617,37.697c0.077,0,0.152,0.021,0.218,0.063
	c1.689,1.058,3.53,1.82,5.471,2.268c0.188,0.044,0.321,0.213,0.323,0.408l0.005,3.527h7.546v-3.519
	c0.002-0.194,0.135-0.362,0.326-0.408c1.939-0.446,3.779-1.21,5.469-2.267c0.064-0.041,0.141-0.063,0.219-0.063
	c0.111,0,0.215,0.044,0.295,0.123l2.49,2.486l5.33-5.33l-2.479-2.489c-0.141-0.137-0.166-0.353-0.064-0.516
	c1.057-1.689,1.818-3.53,2.268-5.471c0.045-0.191,0.217-0.327,0.414-0.328h3.514v-7.542h-3.516c-0.195-0.002-0.367-0.137-0.412-0.33
	c-0.449-1.939-1.211-3.779-2.268-5.469c-0.104-0.166-0.078-0.377,0.063-0.514l2.486-2.486l-5.33-5.33l-2.49,2.474
	c-0.08,0.082-0.186,0.126-0.297,0.126c-0.078,0-0.152-0.021-0.219-0.063c-1.688-1.058-3.529-1.82-5.471-2.268
	c-0.188-0.045-0.322-0.213-0.322-0.409V0.854h-7.553v3.52c-0.001,0.194-0.135,0.362-0.325,0.407c-1.939,0.447-3.78,1.21-5.469,2.268
	c-0.065,0.041-0.141,0.063-0.218,0.063c-0.112,0-0.217-0.044-0.295-0.123L9.835,4.502l-5.33,5.33l2.484,2.484
	c0.141,0.139,0.166,0.35,0.063,0.516c-1.055,1.688-1.818,3.529-2.268,5.47c-0.045,0.192-0.216,0.327-0.415,0.329H0.853v7.547h3.515
	c0.197,0.001,0.367,0.137,0.413,0.33c0.449,1.938,1.212,3.779,2.268,5.469c0.103,0.165,0.078,0.377-0.062,0.514L4.5,34.977
	l5.33,5.33l2.489-2.484C12.4,37.74,12.505,37.697,12.617,37.697z"/>
</svg>
