<?xml version="1.0" encoding="utf-8"?>
<!-- Generator: Adobe Illustrator 15.1.0, SVG Export Plug-In  -->
<!DOCTYPE svg PUBLIC "-//W3C//DTD SVG 1.1//EN" "http://www.w3.org/Graphics/SVG/1.1/DTD/svg11.dtd" [
	<!ENTITY ns_flows "http://ns.adobe.com/Flows/1.0/">
]>
<svg version="1.1"
	 xmlns="http://www.w3.org/2000/svg" xmlns:xlink="http://www.w3.org/1999/xlink" xmlns:a="http://ns.adobe.com/AdobeSVGViewerExtensions/3.0/"
	 x="0px" y="0px" width="46px" height="46px" viewBox="-0.241 -0.249 46 46" enable-background="new -0.241 -0.249 46 46"
	 xml:space="preserve">
<defs>
</defs>
<path fill="#0D47A1" d="M22.749,36.521c-7.574,0-13.74-6.162-13.745-13.738c-0.003-3.671,1.425-7.124,4.02-9.722
	c2.594-2.599,6.045-4.03,9.717-4.033c7.584,0,13.75,6.162,13.755,13.736c0.004,5.543-3.294,10.518-8.401,12.674
	c-1.693,0.717-3.485,1.082-5.325,1.082H22.749z M22.754,9.851c-7.118,0-12.911,5.791-12.915,12.909
	c-0.001,3.451,1.341,6.693,3.779,9.134c2.438,2.439,5.681,3.783,9.131,3.785c7.123,0,12.917-5.791,12.92-12.91
	c-0.009-7.12-5.8-12.911-12.91-12.919H22.754z"/>
<path fill="#0D47A1" d="M18.501,45.503c-0.234,0-0.426-0.191-0.426-0.426v-3.66l-0.238-0.063c-1.664-0.434-3.262-1.092-4.749-1.953
	l-0.212-0.123l-2.585,2.586c-0.081,0.082-0.188,0.127-0.303,0.127c-0.113,0-0.22-0.045-0.3-0.123l-6.019-6.033
	c-0.167-0.168-0.169-0.438-0.003-0.604l2.588-2.59l-0.123-0.211c-0.861-1.49-1.518-3.09-1.953-4.756l-0.063-0.238h-3.69
	C0.191,27.437,0,27.248,0,27.013v-8.507c0-0.235,0.191-0.426,0.426-0.426h3.661l0.062-0.238c0.436-1.665,1.092-3.265,1.953-4.755
	l0.122-0.212L3.639,10.29c-0.167-0.166-0.168-0.437-0.003-0.604l6.047-6.018c0.082-0.082,0.189-0.127,0.304-0.127
	c0.113,0,0.219,0.044,0.299,0.123l2.589,2.589l0.212-0.123c1.487-0.862,3.085-1.519,4.75-1.952l0.238-0.063v-3.69
	C18.075,0.19,18.266,0,18.501,0h8.516c0.235,0,0.426,0.19,0.426,0.426v3.661l0.239,0.062c1.663,0.434,3.261,1.091,4.749,1.952
	l0.212,0.123l2.585-2.585c0.081-0.082,0.188-0.127,0.304-0.127c0.113,0,0.219,0.044,0.299,0.123l6.019,6.048
	c0.168,0.167,0.169,0.438,0.004,0.604l-2.589,2.588l0.123,0.213c0.86,1.489,1.518,3.089,1.952,4.755l0.063,0.238h3.69
	c0.235,0,0.426,0.19,0.426,0.426v8.505c0,0.236-0.19,0.426-0.426,0.426h-3.676l-0.062,0.238c-0.435,1.664-1.092,3.264-1.953,4.756
	l-0.122,0.211l2.584,2.586c0.168,0.166,0.169,0.436,0.004,0.602l-0.023,0.025l-6.01,5.994c-0.082,0.082-0.189,0.127-0.304,0.127
	c-0.112,0-0.22-0.043-0.3-0.123l-0.018-0.018l-2.57-2.572l-0.212,0.123c-1.487,0.863-3.085,1.52-4.749,1.953l-0.239,0.063v3.691
	c-0.005,0.223-0.195,0.41-0.426,0.41H18.501z M12.814,38.287c0.078,0,0.155,0.023,0.222,0.064c1.715,1.074,3.584,1.85,5.557,2.303
	c0.191,0.045,0.327,0.217,0.328,0.416l0.006,3.582h7.665v-3.574c0.001-0.197,0.137-0.367,0.33-0.414
	c1.971-0.453,3.84-1.229,5.555-2.303c0.066-0.041,0.143-0.063,0.222-0.063c0.114,0,0.22,0.043,0.3,0.125l2.53,2.523l5.413-5.412
	l-2.518-2.527c-0.142-0.141-0.168-0.359-0.064-0.525c1.072-1.715,1.847-3.584,2.303-5.555c0.046-0.195,0.22-0.334,0.421-0.334h3.567
	v-7.661h-3.569c-0.199-0.002-0.373-0.14-0.419-0.336c-0.456-1.969-1.23-3.838-2.303-5.555c-0.104-0.168-0.079-0.383,0.063-0.521
	l2.524-2.525l-5.413-5.412l-2.528,2.512c-0.082,0.083-0.188,0.128-0.302,0.128c-0.079,0-0.156-0.022-0.223-0.063
	c-1.714-1.074-3.584-1.85-5.556-2.303c-0.191-0.046-0.327-0.217-0.329-0.416V0.868h-7.67v3.574c-0.001,0.197-0.137,0.368-0.33,0.414
	c-1.97,0.453-3.84,1.229-5.555,2.303c-0.066,0.041-0.143,0.063-0.222,0.063c-0.114,0-0.22-0.045-0.3-0.126l-2.53-2.524L4.576,9.985
	l2.523,2.523c0.144,0.141,0.169,0.355,0.064,0.523c-1.072,1.716-1.847,3.585-2.303,5.557c-0.046,0.194-0.219,0.332-0.421,0.334
	H0.866v7.665h3.57c0.2,0.002,0.373,0.139,0.419,0.336c0.456,1.969,1.23,3.838,2.303,5.555C7.263,32.646,7.237,32.861,7.096,33
	l-2.524,2.525l5.413,5.412l2.528-2.521C12.595,38.332,12.701,38.287,12.814,38.287z"/>
<path fill="#0D47A1" d="M29.336,34.435c-0.208,0-0.378-0.17-0.378-0.379c0-3.174-2.583-5.758-5.758-5.758h-1.136
	c-3.174,0-5.757,2.584-5.757,5.758c0,0.209-0.17,0.379-0.378,0.379c-0.209,0-0.379-0.17-0.379-0.379c0-3.59,2.924-6.514,6.515-6.514
	h1.136c3.59,0,6.514,2.924,6.514,6.514C29.715,34.265,29.545,34.435,29.336,34.435z"/>
<path fill="#0D47A1" d="M22.557,25.269c-2.609,0-4.734-2.125-4.734-4.735s2.125-4.734,4.734-4.734s4.734,2.125,4.734,4.734
	C27.291,23.145,25.166,25.269,22.557,25.269z M22.557,16.558c-2.193,0-3.977,1.784-3.977,3.977c0,2.193,1.784,3.977,3.977,3.977
	s3.977-1.784,3.977-3.977C26.533,18.342,24.75,16.558,22.557,16.558z"/>
</svg>
