<?xml version="1.0" encoding="utf-8"?>
<!-- Generator: Adobe Illustrator 15.1.0, SVG Export Plug-In  -->
<!DOCTYPE svg PUBLIC "-//W3C//DTD SVG 1.1//EN" "http://www.w3.org/Graphics/SVG/1.1/DTD/svg11.dtd" [
	<!ENTITY ns_flows "http://ns.adobe.com/Flows/1.0/">
]>
<svg version="1.1"
	 xmlns="http://www.w3.org/2000/svg" xmlns:xlink="http://www.w3.org/1999/xlink" xmlns:a="http://ns.adobe.com/AdobeSVGViewerExtensions/3.0/"
	 x="0px" y="0px" width="41px" height="41px" viewBox="-0.053 -0.053 41 41" enable-background="new -0.053 -0.053 41 41"
	 xml:space="preserve">
<defs>
</defs>
<path fill="#15499D" d="M20.447,40.894c-5.255,0-10.457-0.779-14.27-2.139C3.87,37.933,0,36.13,0,33.289
	c0-3.561,5.997-5.879,11.608-6.863l1.45-0.254l-0.821-1.221c-3.338-4.965-5.103-8.99-5.103-11.638C7.135,5.973,13.106,0,20.447,0
	c7.341,0,13.312,5.973,13.312,13.313c0,2.648-1.764,6.673-5.102,11.638l-0.82,1.221l1.449,0.254
	c5.611,0.984,11.607,3.303,11.607,6.863c0,2.842-3.871,4.645-6.178,5.467C30.904,40.115,25.703,40.894,20.447,40.894z
	 M13.179,27.134c-7.319,1.039-12.237,3.512-12.237,6.154c0,3.219,7.838,6.664,19.505,6.664c11.542,0,19.462-3.422,19.619-6.617
	l0.002-0.047c0-2.643-4.918-5.115-12.238-6.154l-0.568-0.082l-0.338,0.465c-2.641,3.617-5.178,6.516-5.891,7.318l-0.023,0.027
	l-0.021,0.027c-0.02,0.025-0.041,0.047-0.063,0.068l-0.037,0.031l-0.033,0.035c-0.012,0.014-0.024,0.025-0.037,0.037
	c-0.108,0.1-0.231,0.121-0.313,0.121c-0.078,0-0.227-0.02-0.349-0.154l-0.034-0.037l-0.038-0.035
	c-0.022-0.02-0.043-0.041-0.062-0.066L20,34.863l-0.023-0.027c-0.714-0.801-3.25-3.699-5.892-7.318l-0.338-0.465L13.179,27.134z
	 M20.447,0.941c-6.821,0-12.371,5.55-12.371,12.371c0,2.986,2.372,7.718,7.05,14.066c1.767,2.375,3.473,4.441,4.593,5.76
	l0.725,0.852l0.728-0.848c0.898-1.041,2.688-3.176,4.598-5.764c4.678-6.348,7.049-11.08,7.049-14.066
	C32.818,6.491,27.269,0.941,20.447,0.941z"/>
<path fill="#15499D" d="M20.447,19.49c-3.406,0-6.178-2.771-6.178-6.178s2.771-6.178,6.178-6.178c3.408,0,6.179,2.771,6.179,6.178
	S23.855,19.49,20.447,19.49z M20.447,8.076c-2.888,0-5.237,2.349-5.237,5.236s2.349,5.237,5.237,5.237
	c2.888,0,5.238-2.35,5.238-5.237S23.335,8.076,20.447,8.076z"/>
</svg>
