<?xml version="1.0" encoding="utf-8"?>
<!-- Generator: Adobe Illustrator 15.1.0, SVG Export Plug-In  -->
<!DOCTYPE svg PUBLIC "-//W3C//DTD SVG 1.1//EN" "http://www.w3.org/Graphics/SVG/1.1/DTD/svg11.dtd" [
	<!ENTITY ns_flows "http://ns.adobe.com/Flows/1.0/">
]>
<svg version="1.1"
	 xmlns="http://www.w3.org/2000/svg" xmlns:xlink="http://www.w3.org/1999/xlink" xmlns:a="http://ns.adobe.com/AdobeSVGViewerExtensions/3.0/"
	 x="0px" y="0px" width="49px" height="45px" viewBox="-0.437 -0.07 49 45" enable-background="new -0.437 -0.07 49 45"
	 xml:space="preserve">
<defs>
</defs>
<rect x="15.253" y="44.126" fill="#15499D" width="17.621" height="0.733"/>
<path fill="#15499D" d="M0.366,33.157C0.165,33.157,0,32.993,0,32.791V2.596C0,1.168,1.161,0.004,2.589,0h42.95
	c1.427,0.004,2.588,1.168,2.588,2.596v30.195c0,0.202-0.164,0.366-0.366,0.366H0.366z M2.586,0.734
	c-1.023,0.004-1.854,0.84-1.853,1.862v29.827h46.66V2.596c0.002-1.021-0.829-1.857-1.853-1.861H2.586L2.586,0.734z"/>
<path fill="#15499D" d="M2.587,37.572C1.16,37.568-0.001,36.403,0,34.976v-2.185c0-0.202,0.164-0.367,0.366-0.367H47.76
	c0.202,0,0.367,0.165,0.367,0.367v2.172c0,1.436-1.168,2.605-2.603,2.609h0.001H2.587z M0.733,34.976
	c-0.002,1.022,0.829,1.858,1.852,1.863h42.94c1.033-0.004,1.87-0.847,1.868-1.877v-1.805H0.733V34.976z"/>
<rect x="23.697" y="37.656" fill="#15499D" width="0.733" height="6.386"/>
<path fill="#15499D" d="M32.066,26.303c-0.202,0-0.367-0.165-0.367-0.367V14.74c0-0.141,0.082-0.271,0.21-0.332l3.462-1.647
	c0.05-0.024,0.103-0.036,0.157-0.036c0.142,0,0.271,0.082,0.332,0.209c0.023,0.051,0.036,0.104,0.036,0.158v12.844
	c0,0.202-0.165,0.366-0.367,0.366l-0.188,0.001H32.066z M32.433,14.972v10.597h2.729V13.672L32.433,14.972z"/>
<path fill="#15499D" d="M24.679,26.303c-0.202,0-0.366-0.165-0.366-0.367v-8.064c0-0.142,0.082-0.271,0.209-0.332l3.463-1.647
	c0.05-0.024,0.103-0.036,0.157-0.036c0.141,0,0.271,0.082,0.331,0.209c0.023,0.05,0.036,0.104,0.036,0.158v9.713
	c0,0.202-0.164,0.367-0.366,0.367H24.679z M25.045,18.103v7.466h2.73v-8.766L25.045,18.103z"/>
<path fill="#15499D" d="M39.453,26.303c-0.202,0-0.366-0.165-0.366-0.367V11.362c0-0.141,0.081-0.271,0.209-0.332l3.463-1.646
	c0.05-0.024,0.103-0.036,0.157-0.036c0.141,0,0.271,0.082,0.332,0.21c0.023,0.049,0.035,0.103,0.035,0.157v16.221
	c0,0.202-0.164,0.367-0.366,0.367H39.453z M39.819,11.594v13.975h2.729V10.295L39.819,11.594z"/>
<path fill="#15499D" d="M11.781,26.613c-2.006-0.007-3.889-0.795-5.302-2.218c-1.414-1.423-2.189-3.312-2.183-5.318
	c0.014-4.113,3.372-7.472,7.485-7.485c0.201,0,0.365,0.164,0.365,0.366v6.778h6.751c0.202,0,0.366,0.164,0.366,0.366
	C19.268,23.232,15.91,26.602,11.781,26.613z M10.907,12.382c-1.795,0.227-3.396,1.14-4.504,2.569
	c-1.109,1.43-1.596,3.206-1.369,5.002c0.427,3.379,3.313,5.927,6.715,5.928l0,0c0.284,0,0.572-0.019,0.856-0.055
	c3.059-0.386,5.473-2.791,5.87-5.848l0.066-0.509h-6.761c-0.202,0-0.367-0.164-0.367-0.366v-6.785L10.907,12.382z"/>
<path fill="#15499D" d="M15.091,16.126c-0.202,0-0.366-0.165-0.366-0.366V8.614c0-0.202,0.164-0.366,0.366-0.366
	c4.129,0.012,7.486,3.381,7.484,7.511c0,0.202-0.164,0.367-0.366,0.367H15.091z M15.458,15.393h6.394l-0.066-0.509
	C21.393,11.851,19,9.447,15.968,9.038l-0.51-0.069V15.393z"/>
</svg>
