<?xml version="1.0" encoding="utf-8"?>
<!-- Generator: Adobe Illustrator 15.1.0, SVG Export Plug-In  -->
<!DOCTYPE svg PUBLIC "-//W3C//DTD SVG 1.1//EN" "http://www.w3.org/Graphics/SVG/1.1/DTD/svg11.dtd" [
	<!ENTITY ns_flows "http://ns.adobe.com/Flows/1.0/">
]>
<svg version="1.1"
	 xmlns="http://www.w3.org/2000/svg" xmlns:xlink="http://www.w3.org/1999/xlink" xmlns:a="http://ns.adobe.com/AdobeSVGViewerExtensions/3.0/"
	 x="0px" y="0px" width="36px" height="46px" viewBox="-0.315 0 36 46" enable-background="new -0.315 0 36 46"
	 xml:space="preserve">
<defs>
</defs>
<path fill="#15499D" d="M0.487,46C0.219,46,0,45.781,0,45.512V0.489c0-0.198,0.118-0.375,0.301-0.45C0.363,0.013,0.425,0,0.488,0
	C0.617,0,0.74,0.052,0.833,0.145l3.091,3.1l3.1-3.1c0.092-0.093,0.215-0.144,0.345-0.144c0.131,0,0.253,0.051,0.345,0.144
	l3.09,3.099l3.09-3.099c0.084-0.084,0.21-0.132,0.346-0.132s0.262,0.048,0.346,0.132l3.091,3.099l3.1-3.1
	c0.092-0.092,0.215-0.143,0.345-0.143c0.131,0,0.253,0.051,0.345,0.143l3.091,3.1l3.101-3.1C27.747,0.052,27.87,0.001,28,0.001
	c0.132,0,0.253,0.051,0.345,0.144l3.091,3.099l3.101-3.1C34.629,0.052,34.751,0,34.881,0c0.063,0,0.127,0.013,0.186,0.037
	c0.185,0.076,0.303,0.254,0.303,0.452v45.022c0,0.27-0.22,0.488-0.488,0.488H0.487L0.487,46z M0.976,45.024h33.418V1.667
	L31.78,4.279c-0.092,0.092-0.215,0.143-0.345,0.143c-0.132,0-0.253-0.051-0.345-0.143l-3.092-3.1l-3.1,3.1
	c-0.092,0.092-0.215,0.143-0.346,0.143s-0.253-0.051-0.345-0.143l-3.091-3.1l-3.1,3.1c-0.092,0.092-0.214,0.143-0.345,0.143
	c-0.129,0-0.255-0.053-0.345-0.144L14.238,1.18l-3.09,3.099c-0.083,0.085-0.209,0.133-0.346,0.133c-0.136,0-0.261-0.048-0.345-0.132
	l-3.09-3.1l-3.1,3.1C4.177,4.371,4.054,4.422,3.924,4.422c-0.132,0-0.254-0.051-0.346-0.143L0.976,1.67V45.024L0.976,45.024z"/>
<path fill="#15499D" d="M8.88,23.115c-0.269,0-0.487-0.219-0.487-0.488v-1.03L8.026,21.5c-1.488-0.392-2.527-1.73-2.527-3.256
	c0-0.269,0.219-0.488,0.488-0.488c0.269,0,0.487,0.22,0.487,0.488c0,1.326,1.079,2.404,2.405,2.404c1.327,0,2.406-1.078,2.406-2.404
	s-1.079-2.405-2.406-2.405c-1.864,0-3.381-1.517-3.381-3.381c0-1.526,1.039-2.865,2.527-3.257l0.366-0.096v-1.03
	c0-0.269,0.219-0.488,0.487-0.488c0.27,0,0.488,0.22,0.488,0.488v1.03l0.366,0.096c1.487,0.392,2.527,1.73,2.527,3.257
	c0,0.269-0.219,0.487-0.488,0.487c-0.269,0-0.487-0.219-0.487-0.487c0-1.326-1.079-2.405-2.406-2.405
	c-1.326,0-2.405,1.078-2.405,2.405c0,1.326,1.079,2.405,2.405,2.405c1.864,0,3.382,1.517,3.382,3.381
	c0,1.525-1.04,2.864-2.527,3.256l-0.366,0.097v1.03C9.368,22.896,9.149,23.115,8.88,23.115z"/>
<path fill="#15499D" d="M15.903,13.697c-0.269,0-0.488-0.219-0.488-0.488c0-0.269,0.22-0.488,0.488-0.488h13.555
	c0.269,0,0.488,0.219,0.488,0.488s-0.22,0.488-0.488,0.488H15.903z"/>
<path fill="#15499D" d="M15.903,18.873c-0.269,0-0.488-0.219-0.488-0.488s0.22-0.488,0.488-0.488h13.555
	c0.269,0,0.488,0.219,0.488,0.488s-0.22,0.488-0.488,0.488H15.903z"/>
<path fill="#15499D" d="M15.903,24.049c-0.269,0-0.488-0.219-0.488-0.488s0.22-0.488,0.488-0.488h13.555
	c0.269,0,0.488,0.219,0.488,0.488s-0.22,0.488-0.488,0.488H15.903z"/>
<path fill="#15499D" d="M15.903,29.225c-0.269,0-0.488-0.219-0.488-0.488s0.22-0.488,0.488-0.488h13.555
	c0.269,0,0.488,0.219,0.488,0.488s-0.22,0.488-0.488,0.488H15.903z"/>
<path fill="#15499D" d="M15.903,34.4c-0.269,0-0.488-0.219-0.488-0.488s0.22-0.488,0.488-0.488h13.555
	c0.269,0,0.488,0.219,0.488,0.488s-0.22,0.488-0.488,0.488H15.903z"/>
<path fill="#15499D" d="M26.704,39.576c-0.27,0-0.488-0.22-0.488-0.488c0-0.27,0.219-0.488,0.488-0.488h3.615
	c0.269,0,0.487,0.219,0.487,0.488c0,0.269-0.219,0.488-0.487,0.488H26.704z"/>
<path fill="#15499D" d="M19.485,39.576c-0.269,0-0.487-0.22-0.487-0.488c0-0.27,0.219-0.488,0.487-0.488h3.615
	c0.27,0,0.488,0.219,0.488,0.488c0,0.269-0.219,0.488-0.488,0.488H19.485z"/>
<path fill="#15499D" d="M12.268,39.576c-0.27,0-0.488-0.22-0.488-0.488c0-0.27,0.219-0.488,0.488-0.488h3.614
	c0.27,0,0.488,0.219,0.488,0.488c0,0.269-0.219,0.488-0.488,0.488H12.268z"/>
<path fill="#15499D" d="M5.049,39.576c-0.269,0-0.487-0.22-0.487-0.488c0-0.27,0.219-0.488,0.487-0.488h3.615
	c0.269,0,0.488,0.219,0.488,0.488c0,0.269-0.22,0.488-0.488,0.488H5.049z"/>
</svg>
