<?xml version="1.0" encoding="utf-8"?>
<!-- Generator: Adobe Illustrator 15.1.0, SVG Export Plug-In  -->
<!DOCTYPE svg PUBLIC "-//W3C//DTD SVG 1.1//EN" "http://www.w3.org/Graphics/SVG/1.1/DTD/svg11.dtd" [
	<!ENTITY ns_flows "http://ns.adobe.com/Flows/1.0/">
]>
<svg version="1.1"
	 xmlns="http://www.w3.org/2000/svg" xmlns:xlink="http://www.w3.org/1999/xlink" xmlns:a="http://ns.adobe.com/AdobeSVGViewerExtensions/3.0/"
	 x="0px" y="0px" width="41px" height="41px" viewBox="-0.027 -0.027 41 41" enable-background="new -0.027 -0.027 41 41"
	 xml:space="preserve">
<defs>
</defs>
<path fill="#0D47A1" d="M14.963,40.946c-3.834,0-7.667,0-11.5-0.002c-1.706,0-2.992-0.949-3.357-2.479
	c-0.067-0.281-0.1-0.607-0.101-0.994C0,27.864-0.001,17.702,0.001,7.27c0.001-2.096,1.365-3.45,3.475-3.452
	c0.448-0.001,3.677-0.001,3.677-0.001h0.477L7.628,2.925c0-0.276-0.001-0.535,0.001-0.793C7.64,0.804,8.434,0.009,9.752,0.004
	C10.777,0.001,11.801,0,12.824,0c0.737,0,3.684,0.002,4.42,0.002l3.694-0.001c0.835,0,1.67,0,2.506,0.001
	c1.476,0.001,2.257,0.785,2.258,2.266v1.549l3.082-0.001c0.37,0,0.74,0.001,1.11,0.002c2.069,0.004,3.408,1.344,3.412,3.414
	c0.005,2.54,0.004,5.122,0.003,7.619c0,1.074-0.001,2.147-0.001,3.221c0,0.36,0.001,0.721,0.001,1.08
	c0.001,0.99,0.003,2.015-0.007,3.021c-0.005,0.508,0.222,0.809,0.714,0.947c3.854,1.084,6.146,3.611,6.816,7.514
	c0.378,2.201-0.201,4.574-1.59,6.51c-1.407,1.963-3.506,3.293-5.757,3.648c-0.626,0.098-1.182,0.146-1.7,0.146
	C26.748,40.944,21.402,40.946,14.963,40.946z M4.175,4.759c-0.25,0-0.5,0.001-0.749,0.002C1.889,4.767,0.97,5.689,0.966,7.229
	c-0.003,1.158-0.002,2.316-0.001,3.474l0,1.391v4.221c-0.001,6.922-0.001,14.079,0.011,21.12c0.001,0.533,0.119,1.051,0.333,1.453
	c0.583,1.1,1.768,1.1,2.158,1.1c4.247-0.006,8.424-0.008,13.391-0.008h8.739c0.109,0,0.214-0.006,0.324-0.014
	c0.049-0.004,0.102-0.008,0.158-0.01l1.151-0.061l-0.858-0.771c-3.363-3.014-4.346-6.506-2.92-10.379
	c1.344-3.646,4.188-5.643,8.451-5.938l0.405-0.027l0.037-0.404c0.002-0.021,0.005-0.043,0.007-0.061
	c0.005-0.053,0.012-0.109,0.012-0.174l0.001-3.351c0.001-3.845,0.003-7.82-0.003-11.729c-0.002-1.312-0.978-2.276-2.319-2.296
	c-0.366-0.006-0.755-0.008-1.26-0.008c-0.228,0-1.134,0.002-1.359,0.002c-0.332,0-0.663-0.002-0.995-0.005h-0.015
	c-0.421,0-0.698,0.197-0.85,0.604c-0.327,0.879-0.94,1.309-1.874,1.313c-2.258,0.008-4.607,0.012-6.984,0.012
	c-2.271,0-4.647-0.004-7.063-0.012c-0.937-0.002-1.553-0.43-1.883-1.305C7.606,4.954,7.316,4.755,6.875,4.755H6.858
	C6.399,4.759,5.94,4.761,5.48,4.761L4.175,4.759z M31.947,23.813c-4.557,0.002-8.131,3.561-8.137,8.102
	c-0.007,4.436,3.622,8.053,8.089,8.064h0.02c4.427,0,8.039-3.605,8.052-8.035c0.006-2.186-0.836-4.236-2.373-5.777
	c-1.513-1.518-3.519-2.354-5.646-2.354H31.947z M12.944,0.967c-1.059,0-2.117,0-3.175,0.002C8.957,0.97,8.577,1.348,8.573,2.159
	c-0.004,0.813-0.004,1.609,0,2.368c0.004,0.808,0.387,1.184,1.204,1.185c2.283,0.001,4.566,0.001,6.849,0.001
	c2.31,0,4.619,0,6.929-0.001c0.813-0.001,1.196-0.379,1.204-1.189c0.006-0.614,0.004-1.237,0.003-1.84l-0.002-0.396
	c-0.002-0.962-0.354-1.319-1.302-1.319c-0.966-0.001-1.931-0.001-2.896-0.001H12.944z"/>
<path fill="#0D47A1" d="M18.517,12.628c-1.446,0-2.892,0-4.338-0.002c-0.193,0-0.366-0.003-0.525-0.037
	c-0.342-0.074-0.551-0.34-0.547-0.694c0.005-0.344,0.204-0.593,0.534-0.667c0.167-0.037,0.35-0.04,0.523-0.04
	c3.149-0.001,6.299-0.002,9.448-0.002l5.05,0.001c0.431,0,0.75,0.092,0.922,0.268c0.112,0.115,0.165,0.266,0.161,0.463
	c-0.003,0.176-0.013,0.711-1.068,0.711H18.517z"/>
<path fill="#0D47A1" d="M25.175,16.421h-7.831c-1.123,0-2.244,0-3.367-0.002c-0.558-0.001-0.85-0.225-0.87-0.665
	c-0.017-0.388,0.239-0.694,0.622-0.746c0.046-0.006,0.098-0.007,0.147-0.007h7.834c2.384,0,4.769,0,7.153,0.001
	c0.549,0,0.879,0.265,0.883,0.706c0.002,0.198-0.068,0.371-0.205,0.499c-0.141,0.133-0.346,0.207-0.578,0.209
	c-0.562,0.005-1.123,0.006-1.686,0.006C26.937,16.422,25.175,16.421,25.175,16.421z"/>
<path fill="#0D47A1" d="M6.201,35.481c-0.173,0-0.346-0.076-0.499-0.223c-0.658-0.629-1.303-1.273-1.915-1.916
	C3.5,33.042,3.5,32.643,3.786,32.352c0.143-0.145,0.313-0.221,0.494-0.221c0.186,0,0.367,0.08,0.527,0.232
	c0.266,0.252,0.515,0.518,0.803,0.824c0.134,0.143,0.274,0.291,0.424,0.447l0.175,0.184l0.172-0.186
	c0.126-0.135,0.245-0.266,0.36-0.391c0.238-0.26,0.461-0.504,0.691-0.736l0.054-0.055c0.658-0.668,1.339-1.359,2.027-2.018
	c0.136-0.129,0.31-0.201,0.49-0.201c0.188,0,0.366,0.076,0.501,0.213c0.238,0.24,0.313,0.664,0.027,0.957
	c-1.274,1.303-2.578,2.607-3.874,3.875C6.522,35.411,6.364,35.481,6.201,35.481z"/>
<path fill="#0D47A1" d="M6.194,25.954c-0.194,0-0.408-0.119-0.656-0.365l-0.051-0.051c-0.532-0.529-1.082-1.074-1.615-1.619
	c-0.357-0.363-0.391-0.779-0.089-1.088c0.139-0.143,0.305-0.217,0.478-0.217c0.204,0,0.414,0.1,0.606,0.289
	c0.258,0.254,0.506,0.516,0.769,0.791c0.12,0.127,0.242,0.256,0.368,0.387l0.168,0.174l3.104-3.113
	c0.082-0.084,0.159-0.162,0.241-0.231c0.153-0.129,0.325-0.197,0.498-0.197s0.337,0.069,0.473,0.199
	c0.278,0.266,0.29,0.696,0.029,0.999c-0.124,0.145-0.261,0.277-0.406,0.418c-0.059,0.059-0.117,0.115-0.175,0.174l-0.709,0.709
	c-0.792,0.793-1.583,1.586-2.377,2.377C6.602,25.834,6.388,25.954,6.194,25.954z"/>
<path fill="#0D47A1" d="M6.196,16.433c-0.187,0-0.382-0.098-0.58-0.292c-0.626-0.614-1.203-1.191-1.762-1.763
	c-0.344-0.353-0.372-0.748-0.075-1.057c0.137-0.143,0.306-0.219,0.488-0.219c0.206,0,0.417,0.098,0.596,0.274
	c0.256,0.253,0.504,0.517,0.766,0.796c0.12,0.128,0.244,0.26,0.372,0.395l0.169,0.177l1.091-1.098
	c0.75-0.755,1.458-1.469,2.177-2.185c0.18-0.18,0.368-0.271,0.558-0.271c0.109,0,0.223,0.031,0.337,0.092
	c0.289,0.153,0.427,0.446,0.352,0.743c-0.04,0.157-0.141,0.332-0.263,0.456c-1.135,1.153-2.331,2.351-3.653,3.66
	C6.575,16.335,6.382,16.433,6.196,16.433z"/>
<path fill="#0D47A1" d="M15.383,22.133c-0.603,0-1.096-0.002-1.552-0.01c-0.27-0.004-0.5-0.121-0.632-0.324
	c-0.122-0.188-0.139-0.42-0.046-0.637c0.128-0.302,0.354-0.449,0.692-0.449l1.03-0.001c0.989-0.001,1.979-0.002,2.97-0.002
	c1.177,0,2.354,0.001,3.531,0.005c0.447,0.002,0.739,0.275,0.744,0.699c0.003,0.205-0.06,0.379-0.18,0.502
	c-0.134,0.135-0.335,0.209-0.583,0.211c-0.519,0.004-1.037,0.006-1.556,0.006c-0.364,0-0.728,0-1.092-0.002
	c-0.285,0-0.854-0.002-0.854-0.002h-0.239c-0.373,0-0.745,0-1.118,0.002C16.127,22.133,15.755,22.133,15.383,22.133z"/>
<path fill="#0D47A1" d="M17.311,25.948c-1.126,0-2.251-0.002-3.376-0.004c-0.481,0-0.79-0.236-0.824-0.633
	c-0.02-0.225,0.035-0.414,0.159-0.551c0.134-0.148,0.343-0.227,0.604-0.229c0.519-0.006,1.038-0.006,1.558-0.006
	c0.371,0,0.742,0,1.113,0c0.292,0.002,0.877,0.002,0.877,0.002l0.238,0.004c0.365,0,0.729,0,1.094-0.002
	c0.364,0,0.728-0.002,1.093-0.002c0.623,0,1.13,0.004,1.598,0.01c0.393,0.006,0.663,0.275,0.674,0.67
	c0.011,0.402-0.261,0.697-0.675,0.734c-0.034,0.004-0.068,0.004-0.103,0.004L17.311,25.948z"/>
<path fill="#0D47A1" d="M18.329,35.475c-0.284,0-0.568,0-0.853-0.002c-0.271,0-0.541-0.002-0.812-0.002h-0.063
	c-0.26,0-0.521,0-0.781,0.002c-0.26,0-0.52,0-0.78,0c-0.393,0-0.786-0.002-1.179-0.006c-0.38-0.004-0.625-0.172-0.724-0.5
	c-0.069-0.229-0.086-0.547,0.233-0.76c0.151-0.1,0.36-0.166,0.532-0.166c0.968-0.01,1.982-0.014,3.017-0.014
	c0.834,0,1.668,0.002,2.503,0.008c0.479,0.002,0.794,0.277,0.805,0.697c0.005,0.195-0.058,0.367-0.181,0.496
	c-0.144,0.15-0.365,0.234-0.624,0.238C19.098,35.473,18.75,35.475,18.329,35.475z"/>
<path fill="#0D47A1" d="M16.629,31.657l-1.61,0.002c-0.354,0-0.707,0-1.06-0.002c-0.294-0.002-0.526-0.082-0.674-0.23
	c-0.12-0.121-0.181-0.287-0.179-0.49c0.005-0.604,0.521-0.695,0.828-0.695c0.904-0.004,1.809-0.004,2.713-0.004
	c0.921,0,1.842,0,2.763,0.004c0.265,0.002,0.49,0.084,0.636,0.23c0.121,0.125,0.184,0.291,0.182,0.48
	c-0.006,0.426-0.335,0.701-0.839,0.705c-0.368,0.002-0.735,0.002-1.103,0.002L16.629,31.657z"/>
<path fill="#0D47A1" d="M33.832,34.512c-0.217,0-0.451-0.119-0.679-0.342c-0.228-0.225-0.452-0.451-0.677-0.678
	c-0.314-0.316-0.639-0.645-0.967-0.961c-0.245-0.236-0.351-0.502-0.344-0.859c0.009-0.396,0.007-0.797,0.005-1.186
	c-0.001-0.17-0.001-0.342-0.001-0.512c0-0.174-0.001-0.348-0.001-0.521c-0.001-0.391-0.002-0.779,0.002-1.17
	c0.003-0.334,0.101-0.895,0.718-0.895H31.9c0.61,0.006,0.706,0.553,0.709,0.877c0.002,0.365,0.002,0.73,0.001,1.096
	c-0.002,0.592-0.003,1.203,0.012,1.805c0.006,0.248,0.123,0.535,0.297,0.729c0.261,0.289,0.54,0.564,0.812,0.832
	c0.149,0.146,0.299,0.295,0.446,0.443c0.228,0.232,0.546,0.688,0.124,1.123C34.159,34.438,34.001,34.512,33.832,34.512z"/>
</svg>
