<?xml version="1.0" encoding="utf-8"?>
<!-- Generator: Adobe Illustrator 15.1.0, SVG Export Plug-In  -->
<!DOCTYPE svg PUBLIC "-//W3C//DTD SVG 1.1//EN" "http://www.w3.org/Graphics/SVG/1.1/DTD/svg11.dtd" [
	<!ENTITY ns_flows "http://ns.adobe.com/Flows/1.0/">
]>
<svg version="1.1"
	 xmlns="http://www.w3.org/2000/svg" xmlns:xlink="http://www.w3.org/1999/xlink" xmlns:a="http://ns.adobe.com/AdobeSVGViewerExtensions/3.0/"
	 x="0px" y="0px" width="41px" height="41px" viewBox="-0.323 -0.548 41 41" enable-background="new -0.323 -0.548 41 41"
	 xml:space="preserve">
<defs>
</defs>
<g>
	<g>
		<g>
			<g>
				<g>
					<path fill="#0D47A1" d="M24.63,29.615c-0.26,0-0.472-0.213-0.472-0.472c0-3.95-3.215-7.165-7.165-7.165H15.58
						c-3.95,0-7.165,3.215-7.165,7.165c0,0.259-0.212,0.472-0.472,0.472c-0.259,0-0.471-0.213-0.471-0.472
						c0-4.469,3.639-8.107,8.107-8.107h1.414c4.468,0,8.107,3.639,8.107,8.107C25.101,29.402,24.89,29.615,24.63,29.615z"/>
				</g>
			</g>
			<g>
				<g>
					<path fill="#0D47A1" d="M16.192,18.208c-3.248,0-5.892-2.645-5.892-5.892c0-3.248,2.644-5.893,5.892-5.893
						c3.248,0,5.893,2.645,5.893,5.893C22.085,15.563,19.44,18.208,16.192,18.208z M16.192,7.366c-2.729,0-4.949,2.221-4.949,4.95
						c0,2.729,2.22,4.949,4.949,4.949c2.729,0,4.949-2.221,4.949-4.949C21.142,9.587,18.922,7.366,16.192,7.366z"/>
				</g>
			</g>
		</g>
		<g>
			<g>
				<g>
					<path fill="#0D47A1" d="M39.062,39.904c-0.219,0-0.422-0.08-0.576-0.234l-7.25-7.251c-0.316-0.316-0.316-0.827,0-1.144
						c0.154-0.154,0.356-0.235,0.575-0.235s0.422,0.081,0.576,0.235l7.251,7.251c0.316,0.316,0.316,0.827,0,1.144
						C39.483,39.823,39.28,39.904,39.062,39.904z"/>
				</g>
			</g>
			<g>
				<g>
					<path fill="#0D47A1" d="M16.287,32.581C7.308,32.581,0,25.273,0,16.295C0,7.308,7.308,0,16.287,0
						c8.979,0,16.286,7.308,16.286,16.286C32.581,25.273,25.273,32.581,16.287,32.581z M16.287,1.622
						C8.2,1.622,1.614,8.2,1.614,16.295c0,8.086,6.578,14.672,14.673,14.672s14.672-6.578,14.672-14.672
						C30.959,8.199,24.382,1.622,16.287,1.622z"/>
				</g>
			</g>
		</g>
	</g>
</g>
</svg>
