<?xml version="1.0" encoding="utf-8"?>
<!-- Generator: Adobe Illustrator 15.1.0, SVG Export Plug-In  -->
<!DOCTYPE svg PUBLIC "-//W3C//DTD SVG 1.1//EN" "http://www.w3.org/Graphics/SVG/1.1/DTD/svg11.dtd" [
	<!ENTITY ns_flows "http://ns.adobe.com/Flows/1.0/">
]>
<svg version="1.1"
	 xmlns="http://www.w3.org/2000/svg" xmlns:xlink="http://www.w3.org/1999/xlink" xmlns:a="http://ns.adobe.com/AdobeSVGViewerExtensions/3.0/"
	 x="0px" y="0px" width="39px" height="48px" viewBox="-0.493 -0.335 39 48" enable-background="new -0.493 -0.335 39 48"
	 xml:space="preserve">
<defs>
</defs>
<path fill="#1D5E8B" d="M37.966,24.583l-2.981-8.354C32.122,8.204,27.777,0,17.261,0C7.743,0,0,7.744,0,17.261
	c0,5.242,2.323,10.109,6.386,13.405l2.54,14.133c0.045,0.247,0.2,0.461,0.421,0.579c0.149,0.079,3.696,1.952,7.708,1.952
	c4.013,0,7.56-1.873,7.708-1.952c0.222-0.118,0.377-0.332,0.422-0.579l2.504-13.934c0.018-0.098,0.018-0.193,0.001-0.286
	c1.47-1.322,2.755-2.962,3.822-4.897h5.681c0.268,0,0.518-0.131,0.672-0.349S38.056,24.834,37.966,24.583z M31.02,24.037
	c-0.306,0-0.587,0.17-0.729,0.441c-2.688,5.148-7.001,8.098-12.209,8.378V29.18v-4.354v-2.962l3.37-5.836
	c0.146-0.255,0.146-0.567,0-0.822s-0.418-0.411-0.712-0.411h-6.96c-0.294,0-0.565,0.156-0.712,0.411
	c-0.147,0.255-0.147,0.567,0,0.822l3.37,5.837v2.961v4.354v4.52c0,0.455,0.368,0.822,0.822,0.822c3.17,0,6.062-0.857,8.548-2.49
	l-1.355,7.545c-2.065,0.961-4.275,1.453-6.577,1.453c-1.438,0-2.862-0.196-4.235-0.582c-0.436-0.121-0.891,0.133-1.014,0.57
	c-0.123,0.438,0.132,0.891,0.569,1.014c1.518,0.426,3.092,0.642,4.68,0.642c2.162,0,4.25-0.396,6.229-1.165L23.64,44.1
	c-0.94,0.441-3.66,1.586-6.585,1.586c-2.913,0-5.641-1.145-6.585-1.587l-1.364-7.592c2.499,1.343,5.282,2.057,8.155,2.057
	c1.587,0,3.162-0.216,4.68-0.643c0.437-0.122,0.691-0.576,0.568-1.014s-0.574-0.69-1.014-0.569
	c-1.372,0.386-2.797,0.582-4.235,0.582c-3.054,0-5.999-0.885-8.539-2.549l-0.773-4.299c-0.035-0.199-0.143-0.379-0.303-0.504
	c-3.814-2.983-6.003-7.47-6.003-12.308c0-8.61,7.006-15.616,15.617-15.616c9.47,0,13.372,7.275,16.176,15.138l2.59,7.255H31.02z
	 M17.261,20l-2.057-3.561h4.112L17.261,20z"/>
<path fill="#1D5E8B" d="M11.422,20.632c-0.228-0.394-0.731-0.527-1.123-0.301l-3.771,2.177C6.135,22.735,6,23.237,6.227,23.631
	c0.153,0.265,0.429,0.411,0.713,0.411c0.139,0,0.281-0.035,0.41-0.11l3.771-2.177C11.514,21.528,11.649,21.025,11.422,20.632z"/>
<path fill="#1D5E8B" d="M27.994,22.508l-3.771-2.177c-0.393-0.227-0.896-0.092-1.123,0.301c-0.227,0.394-0.092,0.896,0.302,1.123
	l3.771,2.177c0.129,0.075,0.271,0.11,0.41,0.11c0.284,0,0.561-0.147,0.713-0.411C28.522,23.237,28.386,22.735,27.994,22.508z"/>
<path fill="#1D5E8B" d="M28.357,16.439h-3.531c-0.455,0-0.822,0.367-0.822,0.821s0.367,0.822,0.822,0.822h3.531
	c0.455,0,0.822-0.368,0.822-0.822S28.812,16.439,28.357,16.439z"/>
<path fill="#1D5E8B" d="M21.755,11.121l1.766-3.059c0.228-0.394,0.092-0.896-0.301-1.123s-0.896-0.092-1.123,0.301l-1.766,3.06
	c-0.228,0.393-0.093,0.896,0.301,1.122c0.129,0.075,0.271,0.11,0.41,0.11C21.327,11.532,21.603,11.385,21.755,11.121z"/>
<path fill="#1D5E8B" d="M12.424,7.24c-0.227-0.393-0.731-0.528-1.123-0.301C10.908,7.167,10.773,7.669,11,8.063l1.766,3.059
	c0.152,0.264,0.428,0.411,0.713,0.411c0.139,0,0.28-0.035,0.41-0.11c0.394-0.227,0.528-0.729,0.301-1.122L12.424,7.24z"/>
<path fill="#1D5E8B" d="M9.696,18.083c0.454,0,0.822-0.368,0.822-0.822s-0.368-0.821-0.822-0.821H6.165
	c-0.455,0-0.822,0.367-0.822,0.821s0.367,0.822,0.822,0.822H9.696z"/>
<path fill="#1D5E8B" d="M11,26.46c-0.227,0.394-0.092,0.896,0.301,1.123c0.129,0.074,0.271,0.11,0.41,0.11
	c0.284,0,0.56-0.148,0.712-0.412l1.766-3.059c0.227-0.394,0.092-0.896-0.301-1.123c-0.392-0.228-0.896-0.093-1.123,0.301L11,26.46z"
	/>
<path fill="#1D5E8B" d="M21.755,23.4c-0.229-0.394-0.731-0.528-1.123-0.301c-0.394,0.228-0.528,0.729-0.301,1.123l1.766,3.059
	c0.152,0.264,0.429,0.412,0.713,0.412c0.14,0,0.281-0.036,0.41-0.11c0.393-0.228,0.528-0.729,0.301-1.123L21.755,23.4z"/>
<path fill="#1D5E8B" d="M23.099,13.89c0.153,0.265,0.43,0.411,0.713,0.411c0.141,0,0.281-0.035,0.41-0.11l3.771-2.177
	c0.393-0.227,0.528-0.729,0.301-1.123s-0.731-0.528-1.123-0.301l-3.771,2.177C23.007,12.994,22.873,13.496,23.099,13.89z"/>
<path fill="#1D5E8B" d="M17.261,4.521c-0.455,0-0.822,0.367-0.822,0.821v4.354c0,0.455,0.368,0.822,0.822,0.822
	c0.454,0,0.822-0.367,0.822-0.822V5.343C18.083,4.889,17.715,4.521,17.261,4.521z"/>
<path fill="#1D5E8B" d="M6.528,12.014l3.771,2.177c0.129,0.075,0.271,0.11,0.41,0.11c0.284,0,0.561-0.147,0.713-0.411
	c0.228-0.394,0.092-0.896-0.301-1.123L7.35,10.59c-0.393-0.228-0.896-0.092-1.123,0.301C6,11.284,6.135,11.787,6.528,12.014z"/>
</svg>
