<?xml version="1.0" encoding="utf-8"?>
<!-- Generator: Adobe Illustrator 15.1.0, SVG Export Plug-In  -->
<!DOCTYPE svg PUBLIC "-//W3C//DTD SVG 1.1//EN" "http://www.w3.org/Graphics/SVG/1.1/DTD/svg11.dtd" [
	<!ENTITY ns_flows "http://ns.adobe.com/Flows/1.0/">
]>
<svg version="1.1"
	 xmlns="http://www.w3.org/2000/svg" xmlns:xlink="http://www.w3.org/1999/xlink" xmlns:a="http://ns.adobe.com/AdobeSVGViewerExtensions/3.0/"
	 x="0px" y="0px" width="50px" height="52px" viewBox="0.202 0.279 50 52" enable-background="new 0.202 0.279 50 52"
	 xml:space="preserve">
<defs>
</defs>
<circle fill="none" stroke="#1D5E8B" stroke-miterlimit="10" cx="19.665" cy="5.209" r="0.894"/>
<path fill="none" stroke="#1D5E8B" stroke-miterlimit="10" d="M2.612,52.059c-1.159-0.005-2.108-0.953-2.112-2.115V9.196
	c0.004-1.159,0.953-2.108,2.115-2.113h7.799l0.125-0.614c0.282-1.387,1.514-2.399,2.929-2.408h1.554l0.188-0.493
	c0.483-1.265,1.486-2.268,2.75-2.75C18.51,0.606,19.083,0.5,19.664,0.5c1.964,0,3.755,1.233,4.456,3.067l0.188,0.493h1.558
	c1.411,0.009,2.642,1.021,2.924,2.408l0.125,0.614h7.803c1.158,0.005,2.107,0.954,2.112,2.116v14.835
	c0,0.188-0.153,0.341-0.341,0.341s-0.34-0.153-0.34-0.341V9.196c0-0.79-0.643-1.433-1.432-1.433h-7.854v2.074
	c0,0.681-0.554,1.24-1.234,1.248H11.692c-0.673-0.008-1.227-0.567-1.227-1.248V7.764H2.612c-0.79,0-1.432,0.643-1.432,1.433v40.75
	c0,0.79,0.642,1.432,1.432,1.432h23.509c0.188,0,0.341,0.153,0.341,0.341s-0.153,0.34-0.341,0.34H2.612z M13.447,4.741
	c-1.295,0.027-2.328,1.104-2.3,2.399l0,3.266h17.037V7.125c0.027-1.28-1.005-2.356-2.301-2.384h-2.154l-0.055-0.278
	c-0.329-1.617-1.582-2.871-3.195-3.198c-0.269-0.055-0.544-0.082-0.817-0.082c-1.935,0-3.619,1.378-4.004,3.276l-0.056,0.282h-2.146
	H13.447z"/>
<rect x="13.788" y="19.265" fill="none" stroke="#1D5E8B" stroke-miterlimit="10" width="16.184" height="0.681"/>
<path fill="none" stroke="#1D5E8B" stroke-miterlimit="10" d="M8.038,16.837c-1.529,0-2.769,1.239-2.769,2.768
	c0,1.529,1.239,2.769,2.769,2.769c1.529,0,2.769-1.239,2.769-2.769C10.807,18.076,9.567,16.837,8.038,16.837z M8.038,21.266
	c-0.917,0-1.661-0.743-1.661-1.661c0-0.917,0.744-1.661,1.661-1.661c0.917,0,1.661,0.744,1.661,1.661
	C9.699,20.522,8.955,21.266,8.038,21.266z"/>
<rect x="13.788" y="30.338" fill="none" stroke="#1D5E8B" stroke-miterlimit="10" width="9.54" height="0.681"/>
<path fill="none" stroke="#1D5E8B" stroke-miterlimit="10" d="M8.038,27.91c-1.529,0-2.769,1.239-2.769,2.769
	c0,1.528,1.239,2.769,2.769,2.769c1.529,0,2.769-1.24,2.769-2.769C10.807,29.149,9.567,27.91,8.038,27.91z M8.038,32.34
	c-0.917,0-1.661-0.744-1.661-1.661c0-0.918,0.744-1.661,1.661-1.661c0.917,0,1.661,0.743,1.661,1.661
	C9.699,31.596,8.955,32.34,8.038,32.34z"/>
<rect x="13.788" y="41.412" fill="none" stroke="#1D5E8B" stroke-miterlimit="10" width="7.325" height="0.68"/>
<path fill="none" stroke="#1D5E8B" stroke-miterlimit="10" d="M8.038,38.983c-1.529,0-2.769,1.24-2.769,2.769
	c0,1.529,1.239,2.769,2.769,2.769c1.529,0,2.769-1.239,2.769-2.769C10.807,40.224,9.567,38.983,8.038,38.983z M8.038,43.413
	c-0.917,0-1.661-0.743-1.661-1.661c0-0.917,0.744-1.661,1.661-1.661c0.917,0,1.661,0.744,1.661,1.661
	C9.699,42.67,8.955,43.413,8.038,43.413z"/>
<path fill="none" stroke="#1D5E8B" stroke-miterlimit="10" d="M38.49,52.059c-6.293,0-11.413-5.12-11.413-11.414
	c0-6.293,5.12-11.413,11.413-11.413c6.294,0,11.414,5.12,11.414,11.413C49.904,46.938,44.784,52.059,38.49,52.059z M38.49,29.911
	c-5.918,0-10.733,4.815-10.733,10.733c0,5.919,4.815,10.733,10.733,10.733c5.919,0,10.733-4.814,10.733-10.733
	C49.224,34.727,44.409,29.911,38.49,29.911z"/>
<path fill="none" stroke="#1D5E8B" stroke-miterlimit="10" d="M36.58,44.309c-0.054,0-0.159-0.014-0.246-0.106l-2.501-2.632
	c-0.097-0.13-0.088-0.308,0.021-0.43c0.089-0.098,0.197-0.112,0.254-0.112c0.055,0,0.135,0.013,0.211,0.074l2.269,2.369l6.087-6.38
	c0.053-0.032,0.115-0.05,0.179-0.05c0.056,0,0.138,0.014,0.216,0.077c0.095,0.078,0.117,0.179,0.123,0.23
	c0.004,0.05,0.002,0.144-0.064,0.233l-6.3,6.619C36.733,44.292,36.643,44.309,36.58,44.309z"/>
</svg>
