<?xml version="1.0" encoding="utf-8"?>
<!-- Generator: Adobe Illustrator 15.1.0, SVG Export Plug-In  -->
<!DOCTYPE svg PUBLIC "-//W3C//DTD SVG 1.1//EN" "http://www.w3.org/Graphics/SVG/1.1/DTD/svg11.dtd" [
	<!ENTITY ns_flows "http://ns.adobe.com/Flows/1.0/">
]>
<svg version="1.1"
	 xmlns="http://www.w3.org/2000/svg" xmlns:xlink="http://www.w3.org/1999/xlink" xmlns:a="http://ns.adobe.com/AdobeSVGViewerExtensions/3.0/"
	 x="0px" y="0px" width="41px" height="42px" viewBox="-0.137 -0.322 41 42" enable-background="new -0.137 -0.322 41 42"
	 xml:space="preserve">
<defs>
</defs>
<path fill="#1D5E8B" d="M5.336,0C2.392,0,0,2.396,0,5.342v20.637c0,2.943,2.392,5.34,5.336,5.34h2.396v9.301
	c0,0.406,0.331,0.736,0.738,0.736c0.194,0,0.382-0.076,0.52-0.213l9.828-9.824h16.568c2.944,0,5.341-2.396,5.341-5.34V5.342
	C40.727,2.396,38.33,0,35.386,0H5.336z M5.336,1.477h30.05c2.152,0,3.865,1.713,3.865,3.865v20.637c0,2.152-1.713,3.865-3.865,3.865
	H18.512c-0.196,0-0.385,0.078-0.522,0.217l-8.782,8.777v-8.254c0.002-0.408-0.327-0.74-0.734-0.74H5.336
	c-2.152,0-3.86-1.713-3.86-3.865V5.342C1.476,3.189,3.184,1.477,5.336,1.477z M11.141,6.568c-0.85,0.002-1.549,0.715-1.535,1.563
	v6.945v0.001c0.002,0.838,0.696,1.533,1.535,1.534h0.001h1.079c-0.055,0.194-0.119,0.363-0.209,0.503
	c-0.007,0.011-0.014,0.021-0.021,0.032c-0.446,0.784-1.186,1.14-1.965,1.468c-0.76,0.321-1.135,1.209-0.834,1.978l1.23,3.171
	c0.309,0.803,1.244,1.199,2.035,0.863c0.002-0.002,0.004-0.002,0.006-0.004c2.384-1.035,4.212-2.717,5.269-4.936
	c0.818-1.699,1.246-3.555,1.246-6.801V8.133c0.017-0.847-0.681-1.559-1.527-1.564c-0.002,0-0.004,0-0.005,0H11.141z M23.791,6.568
	c-0.848,0.003-1.547,0.715-1.532,1.563v6.945v0.001c0.002,0.838,0.696,1.533,1.534,1.534c0,0,0.001,0,0.002,0h1.077
	c-0.055,0.194-0.119,0.363-0.209,0.503c-0.007,0.011-0.013,0.021-0.019,0.032c-0.446,0.784-1.188,1.14-1.967,1.468
	c-0.76,0.321-1.133,1.209-0.832,1.978l1.229,3.171c0.309,0.803,1.244,1.199,2.035,0.863c0.002-0.002,0.004-0.002,0.006-0.004
	c2.385-1.035,4.213-2.717,5.269-4.936c0.818-1.699,1.246-3.555,1.246-6.8V8.133c0.017-0.847-0.681-1.559-1.526-1.564
	c-0.002,0-0.004,0-0.006,0h-6.305H23.791z M11.144,8.044h6.298c0.043,0,0.063,0.021,0.063,0.062c0,0.005,0,0.01,0,0.015v4.768
	c0,3.123-0.372,4.647-1.102,6.161c0,0.001-0.001,0.002-0.001,0.003c-0.898,1.888-2.416,3.3-4.521,4.216
	c-0.041,0.018-0.064,0.006-0.081-0.035h-0.001l-1.23-3.175c-0.001-0.001-0.001-0.002-0.001-0.003
	c-0.015-0.039-0.007-0.063,0.032-0.08c0.815-0.343,1.972-0.865,2.673-2.094c0.413-0.663,0.483-1.338,0.591-1.857
	c0.082-0.398-0.174-0.789-0.573-0.872c-0.05-0.011-0.1-0.016-0.15-0.016h-1.996c-0.043,0-0.061-0.018-0.061-0.061V8.119
	c0-0.004,0-0.008,0-0.012C11.082,8.064,11.099,8.044,11.144,8.044L11.144,8.044z M23.795,8.044L23.795,8.044h6.299
	c0.044,0,0.062,0.021,0.061,0.062c0,0.005,0,0.01,0,0.015v4.768c0,3.123-0.371,4.647-1.1,6.161
	c-0.001,0.001-0.002,0.002-0.002,0.003c-0.898,1.888-2.416,3.3-4.521,4.216c-0.04,0.018-0.065,0.006-0.081-0.035l0,0l-1.231-3.175
	c0-0.001,0-0.002,0-0.003c-0.014-0.039-0.006-0.063,0.033-0.08c0.815-0.343,1.97-0.864,2.671-2.093
	c0.414-0.663,0.482-1.339,0.591-1.858c0.082-0.398-0.175-0.789-0.573-0.872c-0.049-0.01-0.099-0.015-0.148-0.016h-1.997
	c-0.042,0-0.062-0.018-0.062-0.06V8.119c0-0.004,0-0.008,0-0.012C23.733,8.064,23.751,8.045,23.795,8.044L23.795,8.044z"/>
</svg>
