<?xml version="1.0" encoding="utf-8"?>
<!-- Generator: Adobe Illustrator 15.1.0, SVG Export Plug-In  -->
<!DOCTYPE svg PUBLIC "-//W3C//DTD SVG 1.1//EN" "http://www.w3.org/Graphics/SVG/1.1/DTD/svg11.dtd" [
	<!ENTITY ns_flows "http://ns.adobe.com/Flows/1.0/">
]>
<svg version="1.1"
	 xmlns="http://www.w3.org/2000/svg" xmlns:xlink="http://www.w3.org/1999/xlink" xmlns:a="http://ns.adobe.com/AdobeSVGViewerExtensions/3.0/"
	 x="0px" y="0px" width="49px" height="48px" viewBox="-0.129 -0.104 49 48" enable-background="new -0.129 -0.104 49 48"
	 xml:space="preserve">
<defs>
</defs>
<path fill-rule="evenodd" clip-rule="evenodd" fill="#1D5E8B" d="M32.539,47.791c-0.314,0-0.569-0.256-0.569-0.57
	c0-0.313,0.255-0.569,0.569-0.569h4.642v-6.678h-9.854c-0.313,0-0.569-0.255-0.569-0.569V27.679c0-1.032,0.84-1.872,1.872-1.872
	h18.24c1.032,0,1.872,0.84,1.872,1.872v11.726c0,0.314-0.256,0.569-0.569,0.569h-9.854v6.678h4.642c0.314,0,0.57,0.256,0.57,0.569
	c0,0.314-0.256,0.57-0.57,0.57H32.539z M27.897,38.835h19.705V26.946H27.897V38.835z M0.569,45.435C0.255,45.435,0,45.179,0,44.865
	v-3.996c0-5.639,3.547-10.756,8.828-12.734l6.03-2.258l-1.669-2.181c-0.548-0.717-1.019-1.55-1.398-2.479
	c-1.048-2.566-1.368-4.955-1.368-10.226C10.422,4.931,15.353,0,21.414,0c6.062,0,10.992,4.931,10.992,10.992
	c0,5.271-0.319,7.659-1.368,10.226c-0.107,0.263-0.223,0.519-0.345,0.766h-1.226c1.583-2.874,1.799-6.906,1.799-10.991
	c0-5.434-4.42-9.854-9.853-9.854s-9.853,4.42-9.853,9.854c0,7.657,0.761,15.133,9.853,15.133c0.456,0,0.891-0.019,1.305-0.055
	c-0.184,0.374-0.336,0.766-0.454,1.172c-0.279,0.015-0.563,0.022-0.851,0.022c-1.504,0-2.873-0.206-4.071-0.612l-0.688-0.232
	l-7.428,2.782c-4.838,1.812-8.088,6.5-8.088,11.667v3.426H25.79v1.14H0.569z"/>
</svg>
