<?xml version="1.0" encoding="utf-8"?>
<!-- Generator: Adobe Illustrator 15.1.0, SVG Export Plug-In  -->
<!DOCTYPE svg PUBLIC "-//W3C//DTD SVG 1.1//EN" "http://www.w3.org/Graphics/SVG/1.1/DTD/svg11.dtd" [
	<!ENTITY ns_flows "http://ns.adobe.com/Flows/1.0/">
]>
<svg version="1.1"
	 xmlns="http://www.w3.org/2000/svg" xmlns:xlink="http://www.w3.org/1999/xlink" xmlns:a="http://ns.adobe.com/AdobeSVGViewerExtensions/3.0/"
	 x="0px" y="0px" width="54px" height="51px" viewBox="-0.082 -0.227 54 51" enable-background="new -0.082 -0.227 54 51"
	 xml:space="preserve">
<defs>
</defs>
<path fill="#1D5E8B" d="M48.871,10.229c-2.752,0-4.965,2.213-4.965,4.965c0,0.479,0.06,1.017,0.239,1.436l-6.102,2.931
	c-1.196-2.094-3.051-3.828-5.264-4.845l3.888-10.05h0.061c1.256,0,2.332-1.017,2.332-2.333C39.061,1.018,38.044,0,36.729,0
	c-1.316,0-2.334,1.018-2.334,2.333c0,0.658,0.3,1.256,0.719,1.675l-3.889,10.05c-1.076-0.359-2.273-0.538-3.469-0.538
	c-1.854,0-3.649,0.419-5.204,1.196l-2.213-3.769c0.718-0.718,1.196-1.675,1.196-2.752c0-2.094-1.675-3.769-3.769-3.769
	s-3.769,1.675-3.769,3.769s1.675,3.769,3.769,3.769c0.419,0,0.778-0.06,1.137-0.18l2.213,3.769
	c-1.675,1.137-3.051,2.752-3.948,4.606l-2.812-1.137c0-0.239,0.06-0.419,0-0.658c-0.18-1.376-1.496-2.393-2.932-2.153
	c-0.658,0.12-1.256,0.479-1.675,1.017c-0.418,0.539-0.598,1.257-0.479,1.915c0.12,0.657,0.479,1.256,1.017,1.675
	c0.479,0.358,0.958,0.538,1.555,0.538c0.12,0,0.239,0,0.359,0c0.598-0.06,1.077-0.359,1.436-0.718l2.871,1.196
	c-0.359,1.137-0.599,2.393-0.599,3.648c0,1.556,0.299,2.991,0.838,4.308l-5.862,2.691C9.81,30.866,8.016,29.79,5.922,29.79
	C2.691,29.79,0,32.481,0,35.771s2.691,5.922,5.922,5.922c3.29,0,5.922-2.691,5.922-5.922c0-0.599-0.12-1.196-0.239-1.734
	l5.862-2.812c1.196,2.094,3.051,3.828,5.264,4.845L18.902,46c-1.077,0.061-2.034,0.897-2.153,2.034
	c-0.06,0.598,0.12,1.196,0.479,1.675s0.957,0.777,1.555,0.838c0.06,0,0.179,0,0.239,0c1.136,0,2.154-0.897,2.273-2.034
	c0.12-0.838-0.239-1.556-0.837-2.034l3.829-9.81c1.076,0.358,2.273,0.538,3.469,0.538c1.854,0,3.649-0.419,5.204-1.196l2.692,4.606
	c-0.718,0.718-1.196,1.675-1.196,2.751c0,2.094,1.675,3.769,3.769,3.769s3.769-1.675,3.769-3.769S40.317,39.6,38.224,39.6
	c-0.419,0-0.778,0.06-1.196,0.18l-2.633-4.546c1.676-1.137,2.991-2.632,3.889-4.427l3.769,1.556c0,0.119,0,0.299,0,0.418
	c0.12,0.658,0.479,1.257,1.017,1.675c0.479,0.359,0.957,0.539,1.556,0.539c0.12,0,0.239,0,0.358,0
	c1.376-0.18,2.394-1.496,2.154-2.932c-0.12-0.658-0.479-1.256-1.018-1.675c-0.538-0.419-1.256-0.598-1.914-0.479
	c-0.658,0.12-1.256,0.419-1.615,0.957l-3.648-1.495c0.419-1.196,0.658-2.513,0.658-3.828c0-1.556-0.299-2.991-0.838-4.308
	l6.161-3.11c0.897,1.196,2.333,2.034,3.948,2.034c2.752,0,4.965-2.213,4.965-4.965S51.623,10.229,48.871,10.229z M37.386,2.333
	c0,0.359-0.299,0.658-0.657,0.658c-0.359,0-0.658-0.299-0.658-0.658c0-0.358,0.299-0.658,0.658-0.658
	C37.087,1.675,37.386,1.975,37.386,2.333z M19.919,8.195c0,1.196-0.957,2.094-2.093,2.094c-1.196,0-2.094-0.957-2.094-2.094
	c0-1.196,0.958-2.094,2.094-2.094C18.962,6.042,19.919,6.999,19.919,8.195z M12.682,18.544c0.06,0.479-0.299,0.957-0.778,1.017
	c-0.479,0.061-0.958-0.299-1.017-0.777s0.299-0.957,0.778-1.017c0.06,0,0.06,0,0.12,0C12.263,17.767,12.622,18.125,12.682,18.544z
	 M10.229,35.771c0,2.333-1.914,4.307-4.307,4.307c-2.333,0-4.307-1.914-4.307-4.307c0-2.333,1.914-4.307,4.307-4.307
	S10.229,33.379,10.229,35.771z M18.364,48.214c0.06-0.359,0.299-0.599,0.658-0.599h0.06c0.179,0,0.299,0.12,0.418,0.239
	c0.12,0.12,0.179,0.299,0.12,0.479l0,0c-0.06,0.359-0.359,0.599-0.718,0.599c-0.18,0-0.299-0.12-0.419-0.239
	C18.424,48.572,18.364,48.393,18.364,48.214z M40.377,43.309c0,1.196-0.957,2.094-2.094,2.094c-1.196,0-2.094-0.957-2.094-2.094
	c0-1.196,0.957-2.094,2.094-2.094S40.377,42.172,40.377,43.309z M43.906,31.764c0.119-0.18,0.359-0.299,0.598-0.358
	c0.061,0,0.061,0,0.12,0c0.18,0,0.358,0.06,0.538,0.179c0.18,0.12,0.299,0.359,0.359,0.599c0.06,0.479-0.299,0.957-0.777,1.017
	s-0.957-0.299-1.018-0.777C43.727,32.183,43.787,31.943,43.906,31.764z M37.924,25.363c0,5.623-4.546,10.169-10.168,10.169
	s-10.169-4.546-10.169-10.169s4.546-10.169,10.169-10.169S37.924,19.74,37.924,25.363z M48.871,18.425
	c-1.795,0-3.29-1.496-3.29-3.29c0-1.795,1.495-3.29,3.29-3.29s3.29,1.495,3.29,3.29C52.161,16.988,50.726,18.425,48.871,18.425z"/>
</svg>
