<?xml version="1.0" encoding="utf-8"?>
<!-- Generator: Adobe Illustrator 15.1.0, SVG Export Plug-In  -->
<!DOCTYPE svg PUBLIC "-//W3C//DTD SVG 1.1//EN" "http://www.w3.org/Graphics/SVG/1.1/DTD/svg11.dtd" [
	<!ENTITY ns_flows "http://ns.adobe.com/Flows/1.0/">
]>
<svg version="1.1"
	 xmlns="http://www.w3.org/2000/svg" xmlns:xlink="http://www.w3.org/1999/xlink" xmlns:a="http://ns.adobe.com/AdobeSVGViewerExtensions/3.0/"
	 x="0px" y="0px" width="47px" height="44px" viewBox="0.205 0.209 47 44" enable-background="new 0.205 0.209 47 44"
	 xml:space="preserve">
<defs>
</defs>
<path fill="none" stroke="#1D5E8B" stroke-width="0.5" stroke-miterlimit="10" d="M42.496,18.423c-0.947,0-1.719-0.771-1.719-1.718
	v-1.474c0-1.086-0.643-2.066-1.639-2.5c-0.342-0.146-0.697-0.219-1.059-0.219c-0.818,0-1.639,0.374-2.373,1.081
	c-0.16,0.16-0.336,0.428-0.336,0.856v2.255c0,0.947-0.771,1.718-1.719,1.718h-2.947c-0.932,0-1.717-0.787-1.717-1.718v-4.177h-3.484
	c-0.467,0-0.902-0.174-1.195-0.476c-1.151-1.199-1.511-2.678-0.962-3.952C23.848,6.91,25,6.145,26.285,6.145h2.703V1.968
	c0-0.947,0.77-1.718,1.717-1.718h14.738c0.945,0,1.717,0.771,1.717,1.718v14.737c0,0.931-0.787,1.718-1.717,1.718H42.496z
	 M24.634,11.689c0.142,0.165,0.408,0.365,0.869,0.365h3.727c0.129,0,0.246,0.116,0.246,0.244v4.421c0,0.678,0.551,1.229,1.229,1.229
	h2.947c0.678,0,1.23-0.552,1.23-1.229v-2.255c0-0.476,0.174-0.916,0.475-1.208c0.809-0.785,1.773-1.217,2.717-1.217
	c0.428,0,0.844,0.086,1.236,0.255c1.189,0.501,1.955,1.652,1.955,2.937v1.474c0,0.678,0.551,1.229,1.23,1.229h2.947
	c0.678,0,1.229-0.552,1.229-1.229V1.968c0-0.678-0.551-1.229-1.229-1.229H30.705c-0.678,0-1.229,0.552-1.229,1.229v4.421
	c0,0.128-0.117,0.244-0.246,0.244h-2.945c-1.074,0-2.049,0.648-2.486,1.652C23.326,9.396,23.632,10.632,24.634,11.689z"/>
<path fill="none" stroke="#1D5E8B" stroke-width="0.5" stroke-miterlimit="10" d="M19.652,44.168c-0.337,0-0.681-0.115-0.968-0.322
	l-0.505-0.367l-0.506,0.367c-0.287,0.207-0.631,0.322-0.969,0.322H1.967c-0.931,0-1.717-0.787-1.717-1.719V27.713
	c0-0.338,0.114-0.682,0.322-0.969l0.366-0.504l-0.366-0.506c-0.208-0.287-0.322-0.631-0.322-0.969V10.029
	c0-0.932,0.786-1.718,1.717-1.718h14.737c0.932,0,1.718,0.786,1.718,1.718v2.947c0,0.931-0.786,1.718-1.718,1.718H15.23
	c-1.082,0-2.058,0.65-2.487,1.658c-0.462,1.135-0.145,2.379,0.865,3.426c0.221,0.222,0.521,0.338,0.856,0.338h2.255
	c0.931,0,1.717,0.786,1.717,1.718v2.946c0,0.1-0.013,0.199-0.023,0.299l-0.119,1.068l1.069-0.111
	c0.101-0.012,0.202-0.025,0.303-0.025h4.177v-3.484c0-0.467,0.173-0.901,0.474-1.194c0.805-0.779,1.77-1.208,2.715-1.208
	c0.422,0,0.836,0.084,1.232,0.249c1.182,0.498,1.947,1.65,1.947,2.934v2.703h4.176c0.932,0,1.719,0.779,1.719,1.703V42.45
	c0,0.947-0.771,1.719-1.719,1.719H19.652z M19.652,38.288c-0.678,0-1.23,0.553-1.23,1.23v2.947c0,0.678,0.552,1.23,1.23,1.23h14.736
	c0.344,0,0.654-0.143,0.877-0.369h0.354l0.016-0.861V27.729c0-0.678-0.553-1.23-1.23-1.23h-4.422c-0.127,0-0.242-0.115-0.242-0.244
	v-2.947c0-1.082-0.652-2.058-1.66-2.487c-0.336-0.144-0.691-0.217-1.053-0.217c-0.803,0-1.607,0.36-2.33,1.042
	c-0.241,0.196-0.38,0.512-0.38,0.881v3.728c0,0.129-0.117,0.244-0.244,0.244h-4.421c-0.678,0-1.23,0.553-1.23,1.23v2.947
	c0,0.678,0.552,1.23,1.23,1.23h2.255c0.466,0,0.902,0.172,1.194,0.473c1.151,1.201,1.512,2.68,0.963,3.953
	c-0.502,1.191-1.654,1.955-2.938,1.955H19.652z M1.967,26.499c-0.678,0-1.23,0.553-1.23,1.23v14.736c0,0.678,0.552,1.23,1.23,1.23
	h14.737c0.679,0,1.23-0.553,1.23-1.23v-4.422c0-0.137,0.123-0.242,0.229-0.242h2.947c1.073,0,2.048-0.648,2.485-1.654
	c0.473-1.109,0.167-2.346-0.836-3.402c-0.141-0.166-0.408-0.365-0.868-0.365h-3.728c-0.127,0-0.244-0.117-0.244-0.244v-4.422
	c0-0.678-0.552-1.23-1.23-1.23h-2.947c-0.678,0-1.229,0.553-1.229,1.23v2.256c0,0.475-0.173,0.916-0.476,1.209
	c-0.176,0.176-0.354,0.322-0.565,0.467l-0.174,0.121l-0.363,0.215c-0.035,0.018-0.069,0.033-0.103,0.049l0.013,0.004l-0.169,0.1
	l0.027-0.064c-0.207,0.08-0.429,0.162-0.654,0.213c-0.291,0.061-0.457,0.082-0.624,0.082H9.105L9.053,32.37
	c-0.021-0.002-0.441-0.07-0.441-0.07c-0.158-0.027-0.33-0.08-0.507-0.158c-1.195-0.504-1.96-1.656-1.96-2.939v-1.473
	c0-0.678-0.552-1.23-1.229-1.23H1.967z M1.967,8.813c-0.678,0-1.23,0.553-1.23,1.23V24.78c0,0.68,0.552,1.23,1.23,1.23h4.421
	c0.127,0,0.244,0.117,0.244,0.244v2.947c0,1.098,0.648,2.076,1.653,2.49c0.337,0.139,0.686,0.207,1.041,0.207
	c0.824,0,1.646-0.371,2.376-1.074c0.16-0.16,0.337-0.428,0.337-0.855v-3.729c0-0.129,0.117-0.244,0.244-0.244h4.421
	c0.679,0,1.23-0.553,1.23-1.23v-2.948c0-0.678-0.552-1.229-1.23-1.229H14.45c-0.466,0-0.902-0.173-1.194-0.475
	c-1.153-1.189-1.513-2.661-0.963-3.938c0.502-1.19,1.654-1.956,2.938-1.956h1.474c0.679,0,1.23-0.552,1.23-1.229v-2.947
	c0-0.678-0.552-1.23-1.23-1.23H1.967z"/>
</svg>
