<?xml version="1.0" encoding="utf-8"?>
<!-- Generator: Adobe Illustrator 15.1.0, SVG Export Plug-In  -->
<!DOCTYPE svg PUBLIC "-//W3C//DTD SVG 1.1//EN" "http://www.w3.org/Graphics/SVG/1.1/DTD/svg11.dtd" [
	<!ENTITY ns_flows "http://ns.adobe.com/Flows/1.0/">
]>
<svg version="1.1"
	 xmlns="http://www.w3.org/2000/svg" xmlns:xlink="http://www.w3.org/1999/xlink" xmlns:a="http://ns.adobe.com/AdobeSVGViewerExtensions/3.0/"
	 x="0px" y="0px" width="51px" height="51px" viewBox="-0.112 -0.112 51 51" enable-background="new -0.112 -0.112 51 51"
	 xml:space="preserve">
<defs>
</defs>
<circle fill="#1D5E8B" cx="38.756" cy="20.657" r="1.118"/>
<path fill="#1D5E8B" d="M43.487,4.113h-3.613V1.119C39.874,0.502,39.373,0,38.756,0c-0.616,0-1.118,0.502-1.118,1.119v2.994H26.403
	V1.119C26.403,0.502,25.901,0,25.284,0c-0.616,0-1.118,0.502-1.118,1.119v2.994H13.034V1.119C13.034,0.502,12.532,0,11.916,0
	c-0.617,0-1.119,0.502-1.119,1.119v2.994H7.288C3.27,4.113,0,7.383,0,11.401v32.086c0,4.019,3.27,7.288,7.288,7.288h15.734
	c0.616,0,1.118-0.501,1.118-1.118c0-0.616-0.502-1.119-1.118-1.119H7.288c-2.786,0-5.052-2.267-5.052-5.051V11.401
	c0-2.785,2.266-5.052,5.052-5.052h3.509v2.996c0,0.617,0.502,1.117,1.119,1.117c0.616,0,1.118-0.5,1.118-1.117V6.35h11.132v2.996
	c0,0.617,0.502,1.117,1.118,1.117c0.617,0,1.119-0.5,1.119-1.117V6.35h11.234v2.996c0,0.617,0.502,1.117,1.118,1.117
	c0.617,0,1.118-0.5,1.118-1.117V6.35h3.613c2.785,0,5.051,2.267,5.051,5.052v11.724c0,0.617,0.502,1.118,1.118,1.118
	c0.617,0,1.119-0.501,1.119-1.118V11.401C50.775,7.383,47.505,4.113,43.487,4.113z"/>
<path fill="#1D5E8B" d="M39.271,27.766c-6.344,0-11.505,5.161-11.505,11.505s5.161,11.505,11.505,11.505s11.505-5.161,11.505-11.505
	S45.614,27.766,39.271,27.766z M39.271,48.538c-5.111,0-9.269-4.157-9.269-9.268s4.157-9.268,9.269-9.268
	c5.11,0,9.268,4.157,9.268,9.268S44.381,48.538,39.271,48.538z"/>
<path fill="#1D5E8B" d="M42.253,38.152h-1.864v-3.098c0-0.617-0.501-1.119-1.118-1.119s-1.119,0.502-1.119,1.119v4.216
	c0,0.617,0.502,1.118,1.119,1.118h2.982c0.616,0,1.118-0.501,1.118-1.118S42.869,38.152,42.253,38.152z"/>
<circle fill="#1D5E8B" cx="29.809" cy="20.657" r="1.119"/>
<circle fill="#1D5E8B" cx="20.862" cy="29.604" r="1.119"/>
<circle fill="#1D5E8B" cx="11.916" cy="20.657" r="1.118"/>
<circle fill="#1D5E8B" cx="11.916" cy="29.604" r="1.119"/>
<circle fill="#1D5E8B" cx="11.916" cy="38.551" r="1.118"/>
<circle fill="#1D5E8B" cx="20.862" cy="38.551" r="1.118"/>
<circle fill="#1D5E8B" cx="20.862" cy="20.657" r="1.118"/>
</svg>
