<?xml version="1.0" encoding="utf-8"?>
<!-- Generator: Adobe Illustrator 15.1.0, SVG Export Plug-In  -->
<!DOCTYPE svg PUBLIC "-//W3C//DTD SVG 1.1//EN" "http://www.w3.org/Graphics/SVG/1.1/DTD/svg11.dtd" [
	<!ENTITY ns_flows "http://ns.adobe.com/Flows/1.0/">
]>
<svg version="1.1"
	 xmlns="http://www.w3.org/2000/svg" xmlns:xlink="http://www.w3.org/1999/xlink" xmlns:a="http://ns.adobe.com/AdobeSVGViewerExtensions/3.0/"
	 x="0px" y="0px" width="47px" height="49px" viewBox="-0.113 -0.333 47 49" enable-background="new -0.113 -0.333 47 49"
	 xml:space="preserve">
<defs>
</defs>
<path fill="#1D5E8B" d="M7.094,15.592h22.531c0.467,0,0.779-0.312,0.779-0.779s-0.313-0.779-0.779-0.779H7.094
	c-0.467,0-0.78,0.312-0.78,0.779S6.705,15.592,7.094,15.592z"/>
<path fill="#1D5E8B" d="M7.094,9.589h22.531c0.467,0,0.779-0.312,0.779-0.779S30.092,8.03,29.625,8.03H7.094
	c-0.467,0-0.78,0.312-0.78,0.779S6.705,9.589,7.094,9.589z"/>
<path fill="#1D5E8B" d="M29.625,21.283c0.467,0,0.779-0.312,0.779-0.779s-0.313-0.78-0.779-0.78H7.094
	c-0.467,0-0.78,0.313-0.78,0.78s0.313,0.779,0.78,0.779H29.625z"/>
<path fill="#1D5E8B" d="M22.608,26.039c0-0.467-0.312-0.779-0.78-0.779H7.796c-0.468,0-0.779,0.313-0.779,0.779
	c0,0.469,0.312,0.779,0.779,0.779h14.033C22.296,26.818,22.608,26.429,22.608,26.039z"/>
<path fill="#1D5E8B" d="M46.62,8.107c-0.313-0.779-0.858-1.402-1.56-1.715l-1.403-0.701c-0.779-0.39-1.56-0.39-2.339-0.078
	c-0.779,0.312-1.403,0.857-1.793,1.637l-1.169,2.495V3.196C38.356,1.403,36.875,0,35.082,0H3.196C1.481,0,0,1.403,0,3.196v35.083
	l0,0c0,0.232,0.078,0.467,0.234,0.545l10.447,9.277c0.156,0.156,0.312,0.234,0.546,0.234h23.855c1.793,0,3.196-1.404,3.196-3.197
	V28.144l6.782-14.735l1.325-2.963C46.854,9.745,46.854,8.888,46.62,8.107z M27.598,42.177l0.857-6.549l3.586,1.715L27.598,42.177z
	 M32.977,36.095l-4.131-2.027l1.715-3.82l1.247,0.625c0.39,0.156,0.857,0,1.013-0.391l0,0c0.156-0.389,0-0.857-0.389-1.014
	l-1.326-0.623l0.469-1.014l1.246,0.623c0.391,0.156,0.858,0,1.014-0.389l0,0c0.156-0.391,0-0.857-0.39-1.014l-1.325-0.623
	l0.468-1.014l1.247,0.623c0.391,0.156,0.857,0,1.014-0.391l0,0c0.156-0.389,0-0.857-0.39-1.012l-1.247-0.624l5.769-12.552
	l4.132,1.949L32.977,36.095z M10.446,45.841l-7.562-6.783h6.158c0.78,0,1.403,0.623,1.403,1.402V45.841z M36.797,45.138
	c0,0.857-0.779,1.637-1.637,1.637H12.006v-6.393c0-1.637-1.325-2.961-2.963-2.961H1.559V3.119c0-0.858,0.78-1.56,1.637-1.56h31.886
	c0.936,0,1.637,0.702,1.637,1.637v9.901l-9.667,21.048c0,0.078,0,0.078,0,0.156v0.078l-1.013,7.641
	c-0.078,0.623,0.312,1.246,0.935,1.559c0.234,0.078,0.468,0.156,0.702,0.156c0.39,0,0.779-0.156,1.092-0.469l0,0l5.223-5.613
	c0,0,0-0.076,0.078-0.076c0-0.078,0.078-0.078,0.078-0.156l2.729-5.926v13.643H36.797z M45.061,9.745l-1.014,2.261l-4.209-1.871
	l1.013-2.261c0.156-0.39,0.468-0.701,0.858-0.779c0.389-0.156,0.779-0.156,1.169,0.078l1.403,0.701
	c0.39,0.156,0.623,0.468,0.779,0.857C45.295,8.966,45.217,9.355,45.061,9.745z"/>
</svg>
